<svg xmlns="http://www.w3.org/2000/svg" xmlns:xlink="http://www.w3.org/1999/xlink" width="315" height="51" viewBox="0 0 315 51">
  <defs>
    <clipPath id="clip-path">
      <rect id="Rect치ngulo_38179" data-name="Rect치ngulo 38179" width="35" height="35" fill="#fff"/>
    </clipPath>
  </defs>
  <g id="Grupo_104207" data-name="Grupo 104207" transform="translate(-180 -898)">
    <rect id="Rect치ngulo_38178" data-name="Rect치ngulo 38178" width="315" height="51" rx="10" transform="translate(180 898)" fill="#361d90"/>
    <path id="Trazado_148350" data-name="Trazado 148350" d="M-101.914-4.526h-1.67V0h-3.085V-12.8h5.036a5.621,5.621,0,0,1,3.56,1.01A3.421,3.421,0,0,1-96.79-8.934a4.155,4.155,0,0,1-.541,2.213A3.837,3.837,0,0,1-99.022-5.3L-96.35-.132V0h-3.3Zm-1.67-2.373h1.951a1.751,1.751,0,0,0,1.323-.463,1.788,1.788,0,0,0,.444-1.291,1.809,1.809,0,0,0-.448-1.3,1.735,1.735,0,0,0-1.318-.471h-1.951ZM-89.706,0a3.344,3.344,0,0,1-.281-.853A2.754,2.754,0,0,1-92.272.176a3.374,3.374,0,0,1-2.285-.813,2.588,2.588,0,0,1-.94-2.043,2.66,2.66,0,0,1,1.143-2.338,5.821,5.821,0,0,1,3.322-.791h.914v-.5q0-1.316-1.134-1.316a.927.927,0,0,0-1.055,1.042h-2.962A2.655,2.655,0,0,1-94.1-8.825a4.931,4.931,0,0,1,2.993-.86,4.323,4.323,0,0,1,2.874.888,3.086,3.086,0,0,1,1.081,2.435v4.21a4.311,4.311,0,0,0,.4,2V0ZM-91.56-1.934a1.652,1.652,0,0,0,.918-.237,1.487,1.487,0,0,0,.523-.536V-4.228h-.861q-1.547,0-1.547,1.389a.848.848,0,0,0,.272.655A.986.986,0,0,0-91.56-1.934Zm9.545-.352h4.333V0h-8.077V-1.652l4.219-5.572h-4.034V-9.51h7.8v1.6Zm5.256-2.558a5.613,5.613,0,0,1,.554-2.536,3.96,3.96,0,0,1,1.591-1.709,4.791,4.791,0,0,1,2.435-.6,4.373,4.373,0,0,1,3.366,1.323,5.076,5.076,0,0,1,1.23,3.6v.105a4.925,4.925,0,0,1-1.235,3.529A4.384,4.384,0,0,1-72.163.176a4.434,4.434,0,0,1-3.261-1.217,4.761,4.761,0,0,1-1.327-3.3Zm2.962.185a3.538,3.538,0,0,0,.413,1.934,1.376,1.376,0,0,0,1.222.615q1.582,0,1.617-2.435v-.3q0-2.558-1.635-2.558-1.485,0-1.608,2.206ZM-63.558-9.51l.1,1.116a3.225,3.225,0,0,1,2.716-1.292,2.713,2.713,0,0,1,2.219.888,4.226,4.226,0,0,1,.76,2.672V0h-2.971V-6a1.6,1.6,0,0,0-.29-1.059A1.342,1.342,0,0,0-62.082-7.4a1.413,1.413,0,0,0-1.292.686V0h-2.962V-9.51ZM-51.526.176a4.889,4.889,0,0,1-3.542-1.305,4.507,4.507,0,0,1-1.354-3.4v-.246a5.84,5.84,0,0,1,.541-2.575A3.955,3.955,0,0,1-54.3-9.075a4.763,4.763,0,0,1,2.461-.611,4.117,4.117,0,0,1,3.164,1.244,4.887,4.887,0,0,1,1.16,3.467v1.151h-5.889a2.135,2.135,0,0,0,.694,1.257,2.066,2.066,0,0,0,1.389.457,2.662,2.662,0,0,0,2.2-.984l1.354,1.6A3.784,3.784,0,0,1-49.342-.277,5.3,5.3,0,0,1-51.526.176ZM-51.86-7.4q-1.3,0-1.547,1.723h2.988v-.229a1.467,1.467,0,0,0-.36-1.1A1.434,1.434,0,0,0-51.86-7.4Zm10.512,4.729a.684.684,0,0,0-.4-.606,6.016,6.016,0,0,0-1.5-.475A6.853,6.853,0,0,1-45.075-4.4a3.062,3.062,0,0,1-1.1-.971,2.319,2.319,0,0,1-.378-1.31A2.628,2.628,0,0,1-45.47-8.837a4.453,4.453,0,0,1,2.83-.848,4.934,4.934,0,0,1,3.023.853,2.666,2.666,0,0,1,1.143,2.241h-2.971q0-1.143-1.2-1.143a1.194,1.194,0,0,0-.782.259.8.8,0,0,0-.316.646.737.737,0,0,0,.387.642,3.654,3.654,0,0,0,1.235.4,10.671,10.671,0,0,1,1.49.378A2.706,2.706,0,0,1-38.492-2.76,2.491,2.491,0,0,1-39.647-.642,5.068,5.068,0,0,1-42.64.176a5.172,5.172,0,0,1-2.18-.439,3.645,3.645,0,0,1-1.494-1.2A2.707,2.707,0,0,1-46.85-3.05h2.769a1.145,1.145,0,0,0,.439.962,1.808,1.808,0,0,0,1.081.3,1.422,1.422,0,0,0,.91-.246A.787.787,0,0,0-41.348-2.672ZM-33-4.825a5.809,5.809,0,0,1,.976-3.56,3.211,3.211,0,0,1,2.725-1.3,2.731,2.731,0,0,1,2.145,1V-13.5h2.971V0h-2.663L-27-1.02a2.8,2.8,0,0,1-2.32,1.2,3.205,3.205,0,0,1-2.689-1.3A5.993,5.993,0,0,1-33-4.825Zm2.962.185q0,2.531,1.477,2.531a1.458,1.458,0,0,0,1.406-.826V-6.557A1.419,1.419,0,0,0-28.542-7.4q-1.371,0-1.485,2.215ZM-17.9.176a4.889,4.889,0,0,1-3.542-1.305,4.507,4.507,0,0,1-1.354-3.4v-.246a5.84,5.84,0,0,1,.541-2.575,3.955,3.955,0,0,1,1.578-1.727,4.763,4.763,0,0,1,2.461-.611,4.117,4.117,0,0,1,3.164,1.244,4.887,4.887,0,0,1,1.16,3.467v1.151H-19.78a2.135,2.135,0,0,0,.694,1.257,2.066,2.066,0,0,0,1.389.457,2.662,2.662,0,0,0,2.2-.984l1.354,1.6A3.784,3.784,0,0,1-15.715-.277,5.3,5.3,0,0,1-17.9.176ZM-18.233-7.4q-1.3,0-1.547,1.723h2.988v-.229a1.467,1.467,0,0,0-.36-1.1A1.434,1.434,0,0,0-18.233-7.4ZM-5.093,0H-8.064V-13.5h2.971ZM2.087,0a3.344,3.344,0,0,1-.281-.853A2.754,2.754,0,0,1-.479.176,3.374,3.374,0,0,1-2.764-.637,2.588,2.588,0,0,1-3.7-2.681,2.66,2.66,0,0,1-2.562-5.019,5.821,5.821,0,0,1,.76-5.81h.914v-.5q0-1.316-1.134-1.316A.927.927,0,0,0-.514-6.587H-3.476A2.655,2.655,0,0,1-2.3-8.825,4.931,4.931,0,0,1,.69-9.686,4.323,4.323,0,0,1,3.564-8.8,3.086,3.086,0,0,1,4.645-6.363v4.21a4.311,4.311,0,0,0,.4,2V0ZM.233-1.934a1.652,1.652,0,0,0,.918-.237,1.487,1.487,0,0,0,.523-.536V-4.228H.813q-1.547,0-1.547,1.389a.848.848,0,0,0,.272.655A.986.986,0,0,0,.233-1.934Zm11.03-.738a.684.684,0,0,0-.4-.606,6.016,6.016,0,0,0-1.5-.475A6.853,6.853,0,0,1,7.537-4.4a3.062,3.062,0,0,1-1.1-.971A2.319,2.319,0,0,1,6.06-6.68,2.628,2.628,0,0,1,7.141-8.837a4.453,4.453,0,0,1,2.83-.848,4.934,4.934,0,0,1,3.023.853,2.666,2.666,0,0,1,1.143,2.241H11.167q0-1.143-1.2-1.143a1.194,1.194,0,0,0-.782.259.8.8,0,0,0-.316.646.737.737,0,0,0,.387.642,3.654,3.654,0,0,0,1.235.4,10.671,10.671,0,0,1,1.49.378A2.706,2.706,0,0,1,14.12-2.76,2.491,2.491,0,0,1,12.964-.642,5.068,5.068,0,0,1,9.971.176a5.172,5.172,0,0,1-2.18-.439A3.645,3.645,0,0,1,6.3-1.459,2.707,2.707,0,0,1,5.761-3.05H8.53a1.145,1.145,0,0,0,.439.962,1.808,1.808,0,0,0,1.081.3,1.422,1.422,0,0,0,.91-.246A.787.787,0,0,0,11.263-2.672Zm8.35-2.171a5.613,5.613,0,0,1,.554-2.536,3.96,3.96,0,0,1,1.591-1.709,4.791,4.791,0,0,1,2.435-.6,4.373,4.373,0,0,1,3.366,1.323,5.076,5.076,0,0,1,1.23,3.6v.105a4.925,4.925,0,0,1-1.235,3.529A4.384,4.384,0,0,1,24.209.176a4.434,4.434,0,0,1-3.261-1.217,4.761,4.761,0,0,1-1.327-3.3Zm2.962.185a3.538,3.538,0,0,0,.413,1.934,1.376,1.376,0,0,0,1.222.615q1.582,0,1.617-2.435v-.3q0-2.558-1.635-2.558-1.485,0-1.608,2.206Zm16.348-.018a5.8,5.8,0,0,1-.967,3.595A3.238,3.238,0,0,1,35.231.176,2.81,2.81,0,0,1,32.893-.976L32.77,0H30.116V-13.5h2.962v4.755a2.711,2.711,0,0,1,2.136-.94,3.239,3.239,0,0,1,2.742,1.274,5.826,5.826,0,0,1,.967,3.586Zm-2.971-.189a3.866,3.866,0,0,0-.365-1.952A1.229,1.229,0,0,0,34.466-7.4a1.418,1.418,0,0,0-1.389.763v3.773a1.426,1.426,0,0,0,1.406.755,1.258,1.258,0,0,0,1.327-1.018A7.309,7.309,0,0,0,35.952-4.865ZM43.414-9.51V.325a3.452,3.452,0,0,1-.967,2.6,3.714,3.714,0,0,1-2.672.914,6.308,6.308,0,0,1-1.4-.149V1.45a5.667,5.667,0,0,0,.835.079A1.084,1.084,0,0,0,40.443.308V-9.51Zm-3.19-2.452A1.322,1.322,0,0,1,40.68-13a1.724,1.724,0,0,1,1.187-.4,1.724,1.724,0,0,1,1.187.4,1.322,1.322,0,0,1,.457,1.037,1.322,1.322,0,0,1-.457,1.037,1.724,1.724,0,0,1-1.187.4,1.724,1.724,0,0,1-1.187-.4A1.322,1.322,0,0,1,40.223-11.962ZM49.689.176a4.889,4.889,0,0,1-3.542-1.305,4.507,4.507,0,0,1-1.354-3.4v-.246a5.84,5.84,0,0,1,.541-2.575,3.955,3.955,0,0,1,1.578-1.727,4.763,4.763,0,0,1,2.461-.611,4.117,4.117,0,0,1,3.164,1.244A4.887,4.887,0,0,1,53.7-4.975v1.151H47.808A2.135,2.135,0,0,0,48.5-2.566a2.066,2.066,0,0,0,1.389.457,2.662,2.662,0,0,0,2.2-.984l1.354,1.6A3.784,3.784,0,0,1,51.873-.277,5.3,5.3,0,0,1,49.689.176ZM49.355-7.4q-1.3,0-1.547,1.723H50.8v-.229a1.467,1.467,0,0,0-.36-1.1A1.434,1.434,0,0,0,49.355-7.4Zm9.554,5.291a1.317,1.317,0,0,0,.967-.338,1.241,1.241,0,0,0,.334-.945h2.777A3.288,3.288,0,0,1,61.866-.826a4.168,4.168,0,0,1-2.887,1,4.22,4.22,0,0,1-3.27-1.3,5.125,5.125,0,0,1-1.2-3.6v-.123A5.792,5.792,0,0,1,55.046-7.4a3.872,3.872,0,0,1,1.534-1.7,4.573,4.573,0,0,1,2.373-.593A4.116,4.116,0,0,1,61.9-8.657a3.647,3.647,0,0,1,1.09,2.786H60.209A1.626,1.626,0,0,0,59.849-7a1.244,1.244,0,0,0-.967-.4q-1.151,0-1.345,1.468a10.357,10.357,0,0,0-.062,1.283,4.068,4.068,0,0,0,.343,1.986A1.187,1.187,0,0,0,58.909-2.109ZM67.364,0H64.393V-9.51h2.971ZM64.217-11.962A1.322,1.322,0,0,1,64.674-13a1.724,1.724,0,0,1,1.187-.4,1.724,1.724,0,0,1,1.187.4,1.322,1.322,0,0,1,.457,1.037,1.322,1.322,0,0,1-.457,1.037,1.724,1.724,0,0,1-1.187.4,1.724,1.724,0,0,1-1.187-.4A1.322,1.322,0,0,1,64.217-11.962Zm4.6,7.119a5.613,5.613,0,0,1,.554-2.536,3.96,3.96,0,0,1,1.591-1.709,4.791,4.791,0,0,1,2.435-.6,4.373,4.373,0,0,1,3.366,1.323,5.076,5.076,0,0,1,1.23,3.6v.105a4.925,4.925,0,0,1-1.235,3.529A4.384,4.384,0,0,1,73.411.176,4.434,4.434,0,0,1,70.15-1.042a4.761,4.761,0,0,1-1.327-3.3Zm2.962.185a3.538,3.538,0,0,0,.413,1.934,1.376,1.376,0,0,0,1.222.615q1.582,0,1.617-2.435v-.3q0-2.558-1.635-2.558-1.485,0-1.608,2.206ZM82.015-9.51l.1,1.116a3.225,3.225,0,0,1,2.716-1.292,2.713,2.713,0,0,1,2.219.888,4.226,4.226,0,0,1,.76,2.672V0H84.836V-6a1.6,1.6,0,0,0-.29-1.059A1.342,1.342,0,0,0,83.492-7.4a1.413,1.413,0,0,0-1.292.686V0H79.238V-9.51ZM94.047.176a4.889,4.889,0,0,1-3.542-1.305,4.507,4.507,0,0,1-1.354-3.4v-.246a5.84,5.84,0,0,1,.541-2.575A3.955,3.955,0,0,1,91.27-9.075a4.763,4.763,0,0,1,2.461-.611A4.117,4.117,0,0,1,96.9-8.442a4.887,4.887,0,0,1,1.16,3.467v1.151H92.167a2.135,2.135,0,0,0,.694,1.257,2.066,2.066,0,0,0,1.389.457,2.662,2.662,0,0,0,2.2-.984l1.354,1.6A3.784,3.784,0,0,1,96.231-.277,5.3,5.3,0,0,1,94.047.176ZM93.713-7.4q-1.3,0-1.547,1.723h2.988v-.229a1.467,1.467,0,0,0-.36-1.1A1.434,1.434,0,0,0,93.713-7.4Zm10.512,4.729a.684.684,0,0,0-.4-.606,6.016,6.016,0,0,0-1.5-.475A6.853,6.853,0,0,1,100.5-4.4a3.062,3.062,0,0,1-1.1-.971,2.319,2.319,0,0,1-.378-1.31A2.628,2.628,0,0,1,100.1-8.837a4.453,4.453,0,0,1,2.83-.848,4.934,4.934,0,0,1,3.023.853A2.666,2.666,0,0,1,107.1-6.592h-2.971q0-1.143-1.2-1.143a1.194,1.194,0,0,0-.782.259.8.8,0,0,0-.316.646.737.737,0,0,0,.387.642,3.654,3.654,0,0,0,1.235.4,10.671,10.671,0,0,1,1.49.378,2.706,2.706,0,0,1,2.145,2.646,2.491,2.491,0,0,1-1.156,2.118,5.068,5.068,0,0,1-2.993.817,5.172,5.172,0,0,1-2.18-.439,3.645,3.645,0,0,1-1.494-1.2,2.707,2.707,0,0,1-.536-1.591h2.769a1.145,1.145,0,0,0,.439.962,1.808,1.808,0,0,0,1.081.3,1.422,1.422,0,0,0,.91-.246A.787.787,0,0,0,104.225-2.672Z" transform="translate(357 931)" fill="#fff"/>
    <g id="Grupo_90665" data-name="Grupo 90665" transform="translate(194 906)">
      <g id="Grupo_90664" data-name="Grupo 90664" clip-path="url(#clip-path)">
        <path id="Trazado_129403" data-name="Trazado 129403" d="M33.74,20.3a16.483,16.483,0,0,1-2.585,6.425l-2.7-1.836.013-.02q.081-.12.159-.242l.031-.048q.08-.127.158-.255l0-.006q.077-.127.15-.256l.027-.048q.072-.126.14-.254l.028-.052c.047-.088.093-.176.137-.264l.009-.018q.064-.128.126-.258l.022-.047q.061-.131.12-.264L29.6,22.8c.039-.09.078-.18.116-.271l.011-.028c.036-.087.07-.174.1-.261l.017-.045q.052-.136.1-.273l.02-.058q.048-.138.094-.277l.012-.036q.043-.133.083-.266l.013-.041q.041-.14.079-.281l.016-.059c.025-.094.049-.188.072-.283l.01-.041c.022-.091.043-.182.063-.274l.007-.034c.021-.1.04-.192.058-.289l.006-.031,3.134.331ZM25.37,31.978l-1.207-2.3-.311-.593.018-.01q.125-.069.248-.14l.047-.028q.127-.075.253-.152l.006,0q.124-.077.245-.156l.044-.029q.119-.078.236-.158L25,28.375c.08-.055.16-.111.239-.169l.013-.009q.115-.084.229-.17l.04-.03q.113-.087.225-.176l.044-.035q.114-.092.225-.185l.016-.014q.108-.091.214-.185l.035-.03q.107-.1.213-.193l.041-.038q.106-.1.211-.2l.018-.018q.1-.1.2-.2l.029-.03q.1-.1.2-.209l.038-.041q.1-.107.195-.216l.021-.024q.092-.1.182-.212l.026-.03q.093-.11.182-.223l.018-.022,2.71,1.84a16.627,16.627,0,0,1-5.185,4.426m-.913.462a16.264,16.264,0,0,1-6.445,1.529V30.7h.023l.277-.014.053,0c.095-.006.19-.013.284-.021h0q.143-.012.285-.028l.053-.006c.091-.01.182-.021.273-.033l.053-.007c.094-.013.188-.026.282-.041h0c.093-.015.185-.031.278-.048l.053-.01.268-.053.054-.011c.092-.02.184-.04.275-.061l.009,0c.09-.021.179-.044.268-.067l.052-.013q.132-.035.263-.072l.054-.016c.09-.026.18-.053.269-.081l.014,0q.13-.041.26-.085l.05-.017.258-.092.053-.02q.132-.049.264-.1l.016-.006q.127-.051.254-.1l.047-.02q.127-.054.254-.111l.022-.01,1.27,2.421ZM9.47,31.891,10.8,29.757l.4-.643.1.055.051.027.185.1.01.005.175.086.057.028.13.062.067.031.123.056.069.031.125.054.066.028.141.058.05.02.2.077h0l.189.071.057.021.138.049.068.024.129.044.071.023.131.042.068.021.146.044.052.016.2.057.007,0,.192.051.061.015.14.035.073.017.13.03.075.017.131.028.073.015.145.028.058.011.2.036.015,0,.188.03.067.01.137.02.078.01.129.016.08.009.13.014.078.008.142.013.065.006.206.016h.026l.181.011.072,0,.1,0v3.269A16.45,16.45,0,0,1,9.47,31.891M2.656,24.66l3.035-1.235,0,.006.032.062.077.15.043.081.07.13.047.085.07.124.048.084.073.124.049.081.079.129.045.073c.032.051.065.1.1.153l.029.046q.065.1.132.2l.029.042.106.152.048.066.091.126.054.072L7,25.525l.056.073.092.117.055.07.1.121.051.062.121.143.031.037q.078.09.157.178l.032.035.127.139.055.058.108.114.062.064.1.105.065.064.106.1.065.062.113.106.06.055.137.124.039.035c.059.052.119.1.179.156l.04.033L9.1,27.7l.064.052.12.1.072.057.116.09.075.057.118.087.075.055.125.089.069.049.15.1.046.032q.1.064.193.127L8.592,31.363a16.428,16.428,0,0,1-5.936-6.7m-1.62-7.812.637.067,2.621.277c0,.012,0,.023,0,.034q0,.138,0,.274t0,.3v.034q0,.143.01.285c0,.016,0,.032,0,.047q.007.14.017.279c0,.016,0,.032,0,.048q.011.14.023.28l0,.04q.014.145.031.289s0,.01,0,.015q.017.144.038.287c0,.009,0,.017,0,.026q.02.141.044.281l.007.044q.023.137.05.272l.009.048q.027.136.057.271l.01.042c.021.093.042.185.065.277l.006.024q.035.141.073.28l0,.015q.038.14.08.279l.011.037q.04.134.083.267l.015.045q.043.132.089.263l.015.042c.032.089.064.178.1.266l.011.029q.053.14.11.279L2.24,23.724A16.364,16.364,0,0,1,1.024,17.5c0-.216,0-.435.013-.652m2.3-7.774,2.71,1.84-.016.03q-.076.133-.15.268l-.012.022q-.07.131-.138.263l-.022.043q-.068.135-.133.271l-.026.055q-.065.138-.127.277l-.015.034q-.059.134-.115.269l-.016.037q-.058.141-.112.282l-.022.058q-.053.141-.1.283l-.016.045q-.048.139-.094.279l-.009.028c-.031.1-.061.195-.09.293l-.017.058q-.042.144-.081.289l-.014.052c-.026.1-.05.2-.074.294l0,.013q-.036.151-.067.3l-.012.057q-.03.147-.057.295l-.01.057c-.018.1-.036.2-.051.306,0,0,0,.008,0,.013-.015.1-.029.2-.042.3l-.007.054q-.019.149-.034.3c0,.009,0,.018,0,.027l-1.094-.115-2.156-.227A16.469,16.469,0,0,1,3.338,9.073m5.83-5.791,1.52,2.9-.03.018c-.089.054-.178.109-.266.166l-.021.014q-.128.082-.254.167l-.04.027q-.128.087-.253.177l-.05.035c-.084.061-.168.122-.25.185l-.03.023q-.121.092-.239.187L9.228,7.2q-.122.1-.241.2l-.045.038q-.118.1-.234.2l-.035.032q-.115.1-.228.21L8.432,7.9c-.077.073-.152.146-.227.221l-.041.041q-.109.109-.216.22l-.038.04q-.11.116-.218.235l0,0q-.107.118-.21.239l-.036.042q-.1.117-.2.236l-.038.048c-.066.081-.13.163-.194.246L7,9.489q-.092.119-.18.241l-.029.04q-.09.125-.177.252l-.018.026L3.89,8.211A16.6,16.6,0,0,1,9.168,3.282m7.82-2.251V4.3l-.068,0-.074,0-.132.007-.062,0-.193.014h-.016l-.177.016-.064.006-.13.013L16,4.376l-.123.015L15.8,4.4l-.127.017-.066.009-.155.023-.037.006-.191.032-.052.009-.139.025-.069.013-.122.024-.073.015-.12.026-.071.016-.131.03-.058.014-.187.046-.032.008-.155.041-.066.018-.12.034-.073.022-.114.034-.073.022-.118.037-.067.022-.144.048-.039.013-.18.063-.059.022-.122.045-.071.027-.111.043-.073.029-.11.045-.07.029-.122.052-.055.024-.175.077-.041.019-.135.063-.063.03-.112.054-.068.034-.052.026-.994-1.9-.524-1a16.51,16.51,0,0,1,6.922-1.76m9.064,2.383-.526.841-1.206,1.93-.14-.083-.037-.022-.2-.112-.062-.034-.137-.075-.078-.041-.123-.064-.083-.042-.12-.06-.084-.041-.123-.059-.081-.038-.138-.063-.068-.031-.2-.088-.049-.02-.158-.065-.08-.032-.129-.05-.088-.034-.123-.046-.09-.032-.124-.044-.089-.031-.131-.043L21.5,4.909l-.164-.051-.05-.015-.212-.061L21,4.761l-.142-.038L20.773,4.7l-.13-.033-.093-.022-.128-.03L20.33,4.6,20.2,4.567l-.088-.018-.15-.029-.071-.013-.22-.038-.049-.008-.174-.027-.082-.012-.143-.02-.09-.011L19,4.375l-.091-.01-.139-.014-.088-.008-.149-.012-.077-.006-.2-.013-.028,0-.213-.01V1.031a16.4,16.4,0,0,1,8.041,2.383m6.72,7.892-1.239.5-1.789.728q-.047-.116-.1-.232l-.03-.068c-.024-.054-.047-.108-.072-.162l-.038-.084-.068-.145L29.4,11.76l-.069-.139-.044-.088-.072-.14-.044-.084c-.026-.05-.053-.1-.08-.148l-.04-.073c-.035-.063-.071-.125-.106-.187l-.018-.031c-.042-.073-.086-.145-.129-.217L28.76,10.6c-.032-.053-.065-.105-.1-.158l-.049-.076-.088-.136-.054-.081-.087-.128-.057-.082-.09-.126-.057-.079-.1-.13-.054-.072-.116-.15-.037-.048q-.078-.1-.157-.2l-.035-.041c-.042-.051-.084-.1-.126-.151L27.5,8.877l-.107-.122-.066-.074-.1-.114-.069-.075-.1-.111-.07-.073-.11-.112L26.8,8.129,26.678,8l-.053-.051q-.091-.087-.183-.172l-.024-.022-.162-.147-.064-.056-.125-.109-.075-.063-.119-.1-.079-.064-.119-.1-.08-.063-.124-.1-.077-.058-.138-.1-.065-.048-.015-.011.937-1.5.8-1.276a16.64,16.64,0,0,1,5.863,7.333m-3.529,9.452q-.025.089-.051.177a12.2,12.2,0,0,1-1.873,3.779q-.322.438-.683.846-.12.136-.244.268t-.252.261q-.125.126-.254.248-.292.277-.6.535-.249.207-.51.4a12.155,12.155,0,0,1-1.844,1.137h0A12.062,12.062,0,0,1,17.5,29.686a12.191,12.191,0,0,1-1.225-.062q-.2-.02-.4-.048-.3-.041-.6-.1-.2-.037-.4-.081l-.2-.045a12.132,12.132,0,0,1-3.38-1.367,12.324,12.324,0,0,1-1.162-.781c-.089-.067-.177-.137-.264-.207a12.169,12.169,0,0,1-4.552-9.5c0-.238.007-.479.023-.736h0A12.177,12.177,0,0,1,7.17,11.034h0q.309-.493.664-.954A12.2,12.2,0,0,1,19.277,5.443q.24.035.479.08.174.032.346.07l.1.021a12.112,12.112,0,0,1,4,1.707h0a12.177,12.177,0,0,1,1.545,1.211q.356.328.684.683.1.109.2.219.312.354.6.73l.008.01q.173.23.335.468a12.127,12.127,0,0,1,1.4,2.739v0a12.149,12.149,0,0,1,.713,4.116q0,.228-.009.456a12.366,12.366,0,0,1-.127,1.363q-.082.546-.214,1.083-.044.179-.093.356M33.977,17.5a16.775,16.775,0,0,1-.1,1.784l-1.795-.19-1.455-.153c.007-.065.013-.13.02-.194l0-.048q.008-.088.015-.176l.005-.067q.006-.091.012-.183c0-.013,0-.027,0-.04,0-.073.007-.147.01-.22l0-.058c0-.057,0-.113,0-.17,0-.021,0-.043,0-.064,0-.074,0-.147,0-.221q0-.136,0-.272c0-.03,0-.06,0-.09,0-.061,0-.122-.006-.182,0-.035,0-.071,0-.106,0-.055-.006-.111-.009-.166,0-.037,0-.074-.007-.112q-.005-.08-.012-.159c0-.038-.006-.076-.01-.114s-.01-.105-.015-.158-.008-.075-.012-.113q-.009-.08-.019-.16c0-.036-.009-.072-.013-.108-.007-.057-.016-.114-.024-.171,0-.032-.009-.065-.014-.1-.011-.072-.023-.143-.035-.214,0-.017-.006-.035-.009-.052q-.023-.132-.049-.264c-.005-.027-.011-.054-.017-.081-.012-.061-.025-.122-.038-.183l-.023-.1c-.012-.054-.024-.107-.037-.161-.009-.036-.018-.073-.026-.109s-.026-.1-.039-.153l-.029-.111-.042-.151-.032-.11c-.015-.051-.03-.1-.046-.153l-.033-.106-.012-.04.051-.02,2.985-1.214a16.431,16.431,0,0,1,.849,5.233m.1-5.619.007,0-.172-.462v0l-.184-.495-.008,0A17.541,17.541,0,0,0,27.452,3.1l0-.007-.421-.274h0L26.6,2.54l0,.007A17.42,17.42,0,0,0,18.012.008V0H16.988V.008a17.535,17.535,0,0,0-7.4,1.878l0-.007-.457.249h0l-.44.24,0,.007A17.622,17.622,0,0,0,3.043,7.636l-.007,0-.282.44,0,0-.269.419.006,0a17.5,17.5,0,0,0-2.4,7.221H.082l-.038.528v0L.01,16.74H.017c-.011.254-.017.508-.017.76a17.378,17.378,0,0,0,1.292,6.61l-.008,0L1.5,24.6h0l.2.453.007,0a17.56,17.56,0,0,0,6.344,7.185l0,.007.444.267h0l.431.259,0-.007a17.473,17.473,0,0,0,8.061,2.233V35h1.024v-.007a17.276,17.276,0,0,0,6.921-1.645l0,.006.45-.227h0l.461-.233,0-.007A17.655,17.655,0,0,0,31.4,28.129l.006,0,.291-.4h0l.308-.427L32,27.3a17.509,17.509,0,0,0,2.758-6.892h.007l.068-.491h0l.072-.522H34.9A17.776,17.776,0,0,0,35,17.5a17.45,17.45,0,0,0-.923-5.619" fill="#fff"/>
        <path id="Trazado_129404" data-name="Trazado 129404" d="M52.782,44.86a9.436,9.436,0,0,1-18.767-1.409c0-.184.006-.371.017-.57a9.435,9.435,0,0,1,18.854.57,9.569,9.569,0,0,1-.1,1.409M49.2,34.715a10.465,10.465,0,0,0-10.8-.424,10.457,10.457,0,0,0-5.39,8.529c-.013.217-.02.429-.02.631a10.462,10.462,0,0,0,15.123,9.363,10.45,10.45,0,0,0,5.8-9.363,10.426,10.426,0,0,0-.613-3.534,10.544,10.544,0,0,0-4.094-5.2" transform="translate(-25.951 -25.951)" fill="#fff"/>
        <path id="Trazado_129405" data-name="Trazado 129405" d="M58.64,50.739a.594.594,0,0,1-.577-.456.508.508,0,0,0,.053-.417.593.593,0,1,1,.524.872m-6.527,1.719H52.09A2.4,2.4,0,0,1,49.7,50.1v-.007c0-.009,0-.019,0-.028a2.4,2.4,0,0,1,2.366-2.394h.028a2.4,2.4,0,0,1,2.394,2.379v0h0v.016a2.4,2.4,0,0,1-2.372,2.392m.018,5.24a.594.594,0,1,1,.594-.594.594.594,0,0,1-.594.594M45.09,50.739a.594.594,0,1,1,.594-.594.594.594,0,0,1-.594.594m6.918-8.105a.594.594,0,1,1-.594.594.594.594,0,0,1,.594-.594m6.632,5.895a1.619,1.619,0,0,0-1.487.981l-1.688.018a3.432,3.432,0,0,0-2.9-2.849l-.02-1.926a1.617,1.617,0,1,0-1.023.015l.02,1.921A3.419,3.419,0,0,0,48.7,49.6l-2.085.022a1.617,1.617,0,1,0,.009,1.023l2.09-.022a3.42,3.42,0,0,0,2.894,2.826l.022,2.118a1.617,1.617,0,1,0,1.024.01l-.023-2.137a3.421,3.421,0,0,0,2.839-2.888l1.6-.017a1.617,1.617,0,1,0,1.569-2.006" transform="translate(-34.195 -32.73)" fill="#fff"/>
      </g>
    </g>
  </g>
</svg>
