<svg xmlns="http://www.w3.org/2000/svg" xmlns:xlink="http://www.w3.org/1999/xlink" width="85" height="85" viewBox="0 0 85 85">
  <defs>
    <clipPath id="clip-path">
      <rect id="Rectángulo_36841" data-name="Rectángulo 36841" width="61" height="55" transform="translate(192 1709)" fill="#fff"/>
    </clipPath>
  </defs>
  <g id="Grupo_119012" data-name="Grupo 119012" transform="translate(-180 -1694)">
    <circle id="Elipse_4518" data-name="Elipse 4518" cx="42.5" cy="42.5" r="42.5" transform="translate(180 1694)" fill="#ff6d60"/>
    <g id="Enmascarar_grupo_255" data-name="Enmascarar grupo 255" clip-path="url(#clip-path)">
      <g id="estandar" transform="translate(194.113 1708.113)">
        <g id="Grupo_115106" data-name="Grupo 115106">
          <path id="Trazado_160600" data-name="Trazado 160600" d="M15.081,32.823V51.452A3.549,3.549,0,0,0,18.629,55H50.565a3.549,3.549,0,0,0,3.548-3.548V7.984a3.549,3.549,0,0,0-3.548-3.548H18.629a3.549,3.549,0,0,0-3.548,3.548V32.823Z" fill="#953528"/>
          <path id="Trazado_160601" data-name="Trazado 160601" d="M50.565,4.435H18.629a3.5,3.5,0,0,0-.434.043c0,.134-.01.266-.01.4A41.7,41.7,0,0,0,54.113,46.166V7.984A3.549,3.549,0,0,0,50.565,4.435Z" fill="#c64635"/>
          <path id="Trazado_160602" data-name="Trazado 160602" d="M18.629,39.328v10.35A1.774,1.774,0,0,0,20.4,51.452H48.79a1.774,1.774,0,0,0,1.774-1.774V9.758A1.774,1.774,0,0,0,48.79,7.984H20.4a1.774,1.774,0,0,0-1.774,1.774v29.57Z" fill="#d9d5ca"/>
          <path id="Trazado_160603" data-name="Trazado 160603" d="M7.984,30.161,2.661,39.014l5.323-.868,1.774,4.435,5.323-9.758Z" fill="#5490f5"/>
          <path id="Trazado_160604" data-name="Trazado 160604" d="M22.177,30.161,27.5,39.014l-5.323-.868L20.4,42.581l-5.323-9.758Z" fill="#81b4fc"/>
          <path id="Trazado_160605" data-name="Trazado 160605" d="M18.629,10.947A41.719,41.719,0,0,0,50.565,45.513V9.758A1.774,1.774,0,0,0,48.79,7.984H20.4a1.774,1.774,0,0,0-1.774,1.774Z" fill="#e8e4d8"/>
          <path id="Trazado_160606" data-name="Trazado 160606" d="M42.581,10.645H26.613a1.774,1.774,0,0,1-1.774-1.774V3.548a1.774,1.774,0,0,1,1.774-1.774H42.581a1.774,1.774,0,0,1,1.774,1.774V8.871A1.774,1.774,0,0,1,42.581,10.645Z" fill="#d5d6d8"/>
          <path id="Trazado_160607" data-name="Trazado 160607" d="M25.726,22.177a10.645,10.645,0,0,1-21.29,0,10.645,10.645,0,1,1,21.29,0Z" fill="#ffc239"/>
          <circle id="Elipse_5013" data-name="Elipse 5013" cx="7.984" cy="7.984" r="7.984" transform="translate(7.097 14.194)" fill="#ffd55d"/>
          <g id="Grupo_115093" data-name="Grupo 115093">
            <path id="Trazado_160608" data-name="Trazado 160608" d="M13.306,25.726a.851.851,0,0,1-.142-.012.888.888,0,0,1-.651-.479l-1.774-3.548,1.587-.794L13.55,23.34,18.889,18l1.254,1.254-6.21,6.21a.884.884,0,0,1-.627.261Z" fill="#f4ac1c"/>
          </g>
          <path id="Trazado_160609" data-name="Trazado 160609" d="M42.581,1.774H27.5V6.21a1.774,1.774,0,0,0,1.774,1.774H44.355V3.548A1.774,1.774,0,0,0,42.581,1.774Z" fill="#f1f1f3"/>
          <g id="Grupo_115094" data-name="Grupo 115094">
            <path id="Trazado_160610" data-name="Trazado 160610" d="M30.753,21.29a.887.887,0,0,1-.681-.319L28.593,19.2l1.363-1.135.8.956,2.275-2.73,1.363,1.135-2.957,3.548a.885.885,0,0,1-.68.319Z" fill="#c64635"/>
          </g>
          <g id="Grupo_115095" data-name="Grupo 115095">
            <path id="Trazado_160611" data-name="Trazado 160611" d="M30.753,30.161a.889.889,0,0,1-.681-.318l-1.479-1.774,1.363-1.135.8.956,2.275-2.73,1.363,1.135-2.957,3.548a.887.887,0,0,1-.68.318Z" fill="#c64635"/>
          </g>
          <g id="Grupo_115096" data-name="Grupo 115096">
            <path id="Trazado_160612" data-name="Trazado 160612" d="M36.371,16.855H47.9v1.774H36.371Z" fill="#88857c"/>
          </g>
          <g id="Grupo_115097" data-name="Grupo 115097">
            <path id="Trazado_160613" data-name="Trazado 160613" d="M36.371,19.516H47.9V21.29H36.371Z" fill="#88857c"/>
          </g>
          <g id="Grupo_115098" data-name="Grupo 115098">
            <path id="Trazado_160614" data-name="Trazado 160614" d="M36.371,25.726H47.9V27.5H36.371Z" fill="#88857c"/>
          </g>
          <g id="Grupo_115099" data-name="Grupo 115099">
            <path id="Trazado_160615" data-name="Trazado 160615" d="M36.371,28.387H47.9v1.774H36.371Z" fill="#88857c"/>
          </g>
          <g id="Grupo_115100" data-name="Grupo 115100">
            <path id="Trazado_160616" data-name="Trazado 160616" d="M30.753,39.032a.889.889,0,0,1-.681-.318L28.593,36.94,29.955,35.8l.8.956,2.275-2.73,1.363,1.136-2.957,3.548a.887.887,0,0,1-.68.318Z" fill="#c64635"/>
          </g>
          <g id="Grupo_115101" data-name="Grupo 115101">
            <path id="Trazado_160617" data-name="Trazado 160617" d="M30.753,47.9a.889.889,0,0,1-.681-.318l-1.479-1.774,1.363-1.136.8.956,2.275-2.73,1.363,1.136-2.957,3.548a.887.887,0,0,1-.68.318Z" fill="#c64635"/>
          </g>
          <g id="Grupo_115102" data-name="Grupo 115102">
            <path id="Trazado_160618" data-name="Trazado 160618" d="M36.371,34.6H47.9v1.774H36.371Z" fill="#88857c"/>
          </g>
          <g id="Grupo_115103" data-name="Grupo 115103">
            <path id="Trazado_160619" data-name="Trazado 160619" d="M36.371,37.258H47.9v1.774H36.371Z" fill="#88857c"/>
          </g>
          <g id="Grupo_115104" data-name="Grupo 115104">
            <path id="Trazado_160620" data-name="Trazado 160620" d="M36.371,43.468H47.9v1.774H36.371Z" fill="#88857c"/>
          </g>
          <g id="Grupo_115105" data-name="Grupo 115105">
            <path id="Trazado_160621" data-name="Trazado 160621" d="M36.371,46.129H47.9V47.9H36.371Z" fill="#88857c"/>
          </g>
        </g>
        <g id="Grupo_115107" data-name="Grupo 115107">
          <path id="Trazado_160622" data-name="Trazado 160622" d="M15.081,31.048A8.871,8.871,0,1,0,6.21,22.177,8.881,8.881,0,0,0,15.081,31.048Zm0-15.968a7.1,7.1,0,1,1-7.1,7.1A7.105,7.105,0,0,1,15.081,15.081Z"/>
          <path id="Trazado_160623" data-name="Trazado 160623" d="M13.165,25.714a.851.851,0,0,0,.142.012.887.887,0,0,0,.627-.26l6.21-6.21L18.889,18,13.55,23.341l-1.223-2.448-1.587.794,1.774,3.548a.885.885,0,0,0,.651.478Z"/>
          <path id="Trazado_160624" data-name="Trazado 160624" d="M1.927,39.51a.887.887,0,0,0,.877.379l4.62-.754,1.51,3.775a.887.887,0,0,0,.771.556l.053,0a.887.887,0,0,0,.779-.462l3.657-6.7V51.452a4.441,4.441,0,0,0,4.435,4.435H50.565A4.441,4.441,0,0,0,55,51.452V7.984a4.441,4.441,0,0,0-4.435-4.435H45.242A2.665,2.665,0,0,0,42.581.887H26.613a2.665,2.665,0,0,0-2.661,2.661H18.629a4.441,4.441,0,0,0-4.435,4.435V10.69A11.617,11.617,0,0,0,3.548,22.17a11.3,11.3,0,0,0,3.263,8.078c.018.018.037.033.055.051L1.9,38.556a.887.887,0,0,0,.026.955ZM26.613,11.532H42.581a2.665,2.665,0,0,0,2.661-2.661H48.79a.889.889,0,0,1,.887.887V49.677a.888.888,0,0,1-.887.887H20.4a.888.888,0,0,1-.887-.887V42.807l.108.2a.887.887,0,0,0,.779.462l.053,0a.886.886,0,0,0,.771-.556l1.51-3.775,4.62.754a.888.888,0,0,0,.9-1.333L23.3,30.31a11.43,11.43,0,0,0,3.311-8.136,11.6,11.6,0,0,0-7.1-10.635V9.758a.889.889,0,0,1,.887-.887h3.548a2.665,2.665,0,0,0,2.661,2.661ZM21.936,31.481l3.817,6.348-3.433-.561a.884.884,0,0,0-.967.546L20.279,40.5l-3.753-6.881a11.3,11.3,0,0,0,5.41-2.138ZM50.565,5.323a2.665,2.665,0,0,1,2.661,2.661V51.452a2.665,2.665,0,0,1-2.661,2.661H18.629a2.665,2.665,0,0,1-2.661-2.661V36.3l1.774,3.253V49.677A2.665,2.665,0,0,0,20.4,52.339H48.79a2.665,2.665,0,0,0,2.661-2.661V9.758A2.665,2.665,0,0,0,48.79,7.1H45.242V5.323ZM25.726,3.548a.889.889,0,0,1,.887-.887H42.581a.889.889,0,0,1,.887.887V8.871a.889.889,0,0,1-.887.887H26.613a.889.889,0,0,1-.887-.887Zm-7.1,1.774h5.323V7.1H20.4a2.665,2.665,0,0,0-2.661,2.661V10.97a11.464,11.464,0,0,0-1.774-.279V7.984A2.665,2.665,0,0,1,18.629,5.323ZM5.323,22.185a9.758,9.758,0,1,1,19.516,0A9.67,9.67,0,0,1,21.99,29.12,9.859,9.859,0,0,1,8.076,29a9.531,9.531,0,0,1-2.754-6.818Zm2.914,9.277a11.574,11.574,0,0,0,5.407,2.143L9.882,40.5,8.808,37.817a.888.888,0,0,0-.967-.546l-3.433.561Z"/>
          <path id="Trazado_160625" data-name="Trazado 160625" d="M30.753,21.29a.887.887,0,0,0,.681-.319l2.957-3.548-1.363-1.135-2.275,2.73-.8-.956L28.594,19.2l1.479,1.774a.882.882,0,0,0,.68.319Z"/>
          <path id="Trazado_160626" data-name="Trazado 160626" d="M30.753,30.161a.889.889,0,0,0,.681-.318l2.957-3.548-1.363-1.135-2.275,2.73-.8-.956-1.363,1.135,1.479,1.774a.884.884,0,0,0,.68.318Z"/>
          <path id="Trazado_160627" data-name="Trazado 160627" d="M36.371,16.855H47.9v1.774H36.371Z"/>
          <path id="Trazado_160628" data-name="Trazado 160628" d="M36.371,19.516H47.9V21.29H36.371Z"/>
          <path id="Trazado_160629" data-name="Trazado 160629" d="M36.371,25.726H47.9V27.5H36.371Z"/>
          <path id="Trazado_160630" data-name="Trazado 160630" d="M36.371,28.387H47.9v1.774H36.371Z"/>
          <path id="Trazado_160631" data-name="Trazado 160631" d="M30.753,39.032a.889.889,0,0,0,.681-.318l2.957-3.548-1.363-1.136-2.275,2.73-.8-.956L28.594,36.94l1.479,1.774a.884.884,0,0,0,.68.318Z"/>
          <path id="Trazado_160632" data-name="Trazado 160632" d="M30.753,47.9a.889.889,0,0,0,.681-.318l2.957-3.548L33.028,42.9l-2.275,2.73-.8-.956-1.363,1.136,1.479,1.774a.884.884,0,0,0,.68.318Z"/>
          <path id="Trazado_160633" data-name="Trazado 160633" d="M36.371,34.6H47.9v1.774H36.371Z"/>
          <path id="Trazado_160634" data-name="Trazado 160634" d="M36.371,37.258H47.9v1.774H36.371Z"/>
          <path id="Trazado_160635" data-name="Trazado 160635" d="M36.371,43.468H47.9v1.774H36.371Z"/>
          <path id="Trazado_160636" data-name="Trazado 160636" d="M36.371,46.129H47.9V47.9H36.371Z"/>
        </g>
      </g>
    </g>
  </g>
</svg>
