<svg xmlns="http://www.w3.org/2000/svg" xmlns:xlink="http://www.w3.org/1999/xlink" width="85" height="85" viewBox="0 0 85 85">
  <defs>
    <clipPath id="clip-path">
      <rect id="Rectángulo_36842" data-name="Rectángulo 36842" width="61" height="55" transform="translate(507 1709)" fill="#fff"/>
    </clipPath>
  </defs>
  <g id="Grupo_119013" data-name="Grupo 119013" transform="translate(-495 -1694)">
    <circle id="Elipse_4519" data-name="Elipse 4519" cx="42.5" cy="42.5" r="42.5" transform="translate(495 1694)" fill="#ff6d60"/>
    <g id="Enmascarar_grupo_253" data-name="Enmascarar grupo 253" clip-path="url(#clip-path)">
      <g id="atencion-al-cliente" transform="translate(507 1706)">
        <g id="Grupo_115089" data-name="Grupo 115089">
          <g id="Grupo_115088" data-name="Grupo 115088">
            <g id="Grupo_115087" data-name="Grupo 115087">
              <g id="Grupo_115086" data-name="Grupo 115086">
                <g id="Grupo_115085" data-name="Grupo 115085">
                  <g id="Grupo_115072" data-name="Grupo 115072">
                    <path id="Trazado_160520" data-name="Trazado 160520" d="M53.8,13.538a9.413,9.413,0,1,0-18.825,0s0,13.8,0,15.957H53.8c0-2.155,0-15.957,0-15.957Z" fill="#756e78"/>
                    <g id="Grupo_115054" data-name="Grupo 115054">
                      <path id="Trazado_160521" data-name="Trazado 160521" d="M53.8,13.538A9.406,9.406,0,0,0,42.749,4.27a4.391,4.391,0,0,1,3.269,4.245v20.98H53.8c0-2.155,0-15.957,0-15.957Z" fill="#665e66"/>
                    </g>
                    <g id="Grupo_115056" data-name="Grupo 115056">
                      <g id="Grupo_115055" data-name="Grupo 115055">
                        <path id="Trazado_160522" data-name="Trazado 160522" d="M50.027,13.345v5.332h3.148a1.341,1.341,0,0,0,1.341-1.341V14.686a1.341,1.341,0,0,0-1.341-1.341H50.027Z" fill="#9bc4f9"/>
                      </g>
                    </g>
                    <g id="Grupo_115058" data-name="Grupo 115058">
                      <g id="Grupo_115057" data-name="Grupo 115057">
                        <path id="Trazado_160523" data-name="Trazado 160523" d="M38.744,13.345v5.332H35.6a1.341,1.341,0,0,1-1.341-1.341V14.686A1.341,1.341,0,0,1,35.6,13.345h3.148Z" fill="#9bc4f9"/>
                      </g>
                    </g>
                    <g id="Grupo_115062" data-name="Grupo 115062">
                      <g id="Grupo_115061" data-name="Grupo 115061">
                        <g id="Grupo_115060" data-name="Grupo 115060">
                          <g id="Grupo_115059" data-name="Grupo 115059">
                            <path id="Trazado_160524" data-name="Trazado 160524" d="M51.823,32.225l-2.209-4.856c-.023,0-.044-.011-.067-.016a1.919,1.919,0,0,1-1.49-1.869V20.213H40.713v5.271a1.919,1.919,0,0,1-1.49,1.869l-.067.016-2.209,4.856Z" fill="#ffddce"/>
                            <path id="Trazado_160525" data-name="Trazado 160525" d="M52.241,28.025l-.05.045a9.948,9.948,0,0,1-15.611,0l-.056-.043a10.213,10.213,0,0,0-7.86,9.938v6.2H60.106v-6.2a10.213,10.213,0,0,0-7.865-9.939Z" fill="#dbe8f9"/>
                            <path id="Trazado_160526" data-name="Trazado 160526" d="M48.467,27.766l-.29-1.62a1.921,1.921,0,0,0,1.371,1.207l.067.016,2.209.567a10.213,10.213,0,0,1,8.283,10.029v6.2H48.058A40.814,40.814,0,0,0,48.467,27.766Z" fill="#7fb2f9"/>
                            <path id="Trazado_160527" data-name="Trazado 160527" d="M51.823,27.935l-2.209-.567c-.023,0-.044-.011-.067-.016a1.921,1.921,0,0,1-1.371-1.207l.29,1.62c.15.835.27,1.673.367,2.514a10.2,10.2,0,0,1,3.488,7.686v6.2h7.784v-6.2A10.213,10.213,0,0,0,51.823,27.935Z" fill="#60a0f7"/>
                            <path id="Trazado_160528" data-name="Trazado 160528" d="M40.3,27.766l.29-1.62a1.921,1.921,0,0,1-1.371,1.207l-.067.016-2.209.567a10.213,10.213,0,0,0-8.283,10.029v6.2H40.714a40.814,40.814,0,0,1-.409-16.4Z" fill="#7fb2f9"/>
                          </g>
                        </g>
                      </g>
                      <path id="Trazado_160529" data-name="Trazado 160529" d="M52.771,37.628h2.86a.953.953,0,0,0,.953-.953v-1.4a.953.953,0,0,0-.953-.953h-2.86a.953.953,0,0,0-.953.953v1.4A.953.953,0,0,0,52.771,37.628Z" fill="#ffd064"/>
                    </g>
                    <g id="Grupo_115071" data-name="Grupo 115071">
                      <g id="Grupo_115070" data-name="Grupo 115070">
                        <g id="Grupo_115069" data-name="Grupo 115069">
                          <g id="Grupo_115068" data-name="Grupo 115068">
                            <g id="Grupo_115067" data-name="Grupo 115067">
                              <g id="Grupo_115064" data-name="Grupo 115064">
                                <g id="Grupo_115063" data-name="Grupo 115063">
                                  <path id="Trazado_160530" data-name="Trazado 160530" d="M51.1,13.345A6.3,6.3,0,0,1,47.935,9.6a.356.356,0,0,0-.651-.062c-1.459,2.625-4.362,3.809-7.707,3.809H37.672V17.6a6.715,6.715,0,0,0,13.428,0Z" fill="#ffddce"/>
                                </g>
                              </g>
                              <path id="Trazado_160531" data-name="Trazado 160531" d="M47.935,9.6a.356.356,0,0,0-.651-.062,6.633,6.633,0,0,1-1.266,1.624V17.6a6.718,6.718,0,0,1-4.173,6.115A6.716,6.716,0,0,0,51.1,17.6V13.346A6.3,6.3,0,0,1,47.935,9.6Z" fill="#ffcbbe"/>
                              <g id="Grupo_115066" data-name="Grupo 115066">
                                <g id="Grupo_115065" data-name="Grupo 115065">
                                  <path id="Trazado_160532" data-name="Trazado 160532" d="M48.976,23.346H46.939a1.407,1.407,0,1,1,0-2.815h2.037a1.407,1.407,0,1,1,0,2.815Z" fill="#db636e"/>
                                </g>
                              </g>
                            </g>
                          </g>
                        </g>
                      </g>
                    </g>
                  </g>
                  <path id="Trazado_160533" data-name="Trazado 160533" d="M13.931,56.875H57.692a2.414,2.414,0,0,0,2.414-2.414V43.4H13.931Z" fill="#eaf2ff"/>
                  <path id="Trazado_160534" data-name="Trazado 160534" d="M52.323,43.4V54.46a2.414,2.414,0,0,1-2.414,2.414h7.784a2.414,2.414,0,0,0,2.414-2.414V43.4Z" fill="#dbe8f9"/>
                  <g id="Grupo_115084" data-name="Grupo 115084">
                    <g id="Grupo_115083" data-name="Grupo 115083">
                      <g id="Grupo_115082" data-name="Grupo 115082">
                        <g id="Grupo_115081" data-name="Grupo 115081">
                          <g id="Grupo_115080" data-name="Grupo 115080">
                            <g id="Grupo_115079" data-name="Grupo 115079">
                              <g id="Grupo_115078" data-name="Grupo 115078">
                                <g id="Grupo_115077" data-name="Grupo 115077">
                                  <g id="Grupo_115076" data-name="Grupo 115076">
                                    <g id="Grupo_115075" data-name="Grupo 115075">
                                      <g id="Grupo_115074" data-name="Grupo 115074">
                                        <path id="Trazado_160535" data-name="Trazado 160535" d="M21.933,37.342V31.83H14.261v5.512A2.006,2.006,0,0,1,12.7,39.3s.2,4.532,5.394,4.532,5.722-4.465,5.722-4.465l-.259-.05a2.007,2.007,0,0,1-1.627-1.971Z" fill="#ffddce"/>
                                        <path id="Trazado_160536" data-name="Trazado 160536" d="M32.4,56.875a2.905,2.905,0,0,0,2.9-2.905V51.36a11.852,11.852,0,0,0-9.612-11.639l-1.869-.36a7.959,7.959,0,0,1-11.052,0L12.7,39.3c-.023.005-.046.012-.07.017l-2.127.409A11.852,11.852,0,0,0,.894,51.36V53.97A2.905,2.905,0,0,0,3.8,56.875Z" fill="#e07f84"/>
                                        <g id="Grupo_115073" data-name="Grupo 115073">
                                          <path id="Trazado_160537" data-name="Trazado 160537" d="M25.688,39.722l-1.869-.36a7.936,7.936,0,0,1-2.445,1.609A11.854,11.854,0,0,1,27.521,51.36V53.97a2.905,2.905,0,0,1-2.9,2.905H32.4A2.905,2.905,0,0,0,35.3,53.97V51.36a11.852,11.852,0,0,0-9.612-11.639Z" fill="#db636e"/>
                                        </g>
                                      </g>
                                    </g>
                                  </g>
                                </g>
                              </g>
                            </g>
                          </g>
                        </g>
                      </g>
                    </g>
                    <path id="Trazado_160538" data-name="Trazado 160538" d="M27.477,24.31a4.324,4.324,0,0,0,.354-2.486l-.008-.056a1.77,1.77,0,0,0-.521-1.247.663.663,0,0,1-.2-.469,2.366,2.366,0,0,0-1.58-2.2.8.8,0,0,1-.5-.534,1.944,1.944,0,0,0-1.757-1.37.664.664,0,0,1-.493-.276,2.017,2.017,0,0,0-1.643-.818,2.091,2.091,0,0,0-.538.07.813.813,0,0,1-.779-.2,2.2,2.2,0,0,0-1.724-.577h0a2.169,2.169,0,0,0-1.724.577.812.812,0,0,1-.779.2,2.091,2.091,0,0,0-.538-.07,2.017,2.017,0,0,0-1.643.818.663.663,0,0,1-.493.276,1.943,1.943,0,0,0-1.757,1.37.8.8,0,0,1-.5.534,2.367,2.367,0,0,0-1.58,2.2.663.663,0,0,1-.2.469,1.77,1.77,0,0,0-.521,1.247l-.008.056a4.326,4.326,0,0,0,.363,2.507,21.606,21.606,0,0,1,.58,2.871,4.864,4.864,0,0,0,.513,1.524,4.932,4.932,0,0,1,.557,1.707A7.3,7.3,0,0,0,12.8,35.069a7.906,7.906,0,0,0,10.662-.046,7.3,7.3,0,0,0,2.383-4.657,4.718,4.718,0,0,1,.55-1.695l0-.009a4.876,4.876,0,0,0,.529-1.571,20.966,20.966,0,0,1,.55-2.782Z" fill="#ffddce"/>
                    <path id="Trazado_160539" data-name="Trazado 160539" d="M27.831,21.824l-.008-.056a1.77,1.77,0,0,0-.521-1.247.663.663,0,0,1-.2-.469,2.366,2.366,0,0,0-1.58-2.2.8.8,0,0,1-.5-.534,1.944,1.944,0,0,0-1.757-1.37.664.664,0,0,1-.493-.276,2.017,2.017,0,0,0-1.643-.818,2.091,2.091,0,0,0-.538.07.813.813,0,0,1-.779-.2,2.2,2.2,0,0,0-1.724-.577h0a2.169,2.169,0,0,0-1.724.577.813.813,0,0,1-.779.2,2.1,2.1,0,0,0-1.215.042,2.026,2.026,0,0,1,.59.342c.386.313.406.609.838.64a2.066,2.066,0,0,1,1,.341c.934.628.552,1.3,1.253,1.563a2.366,2.366,0,0,1,1.58,2.2c0,.585.775.5.777,2.428,0,1.547-.323.549-.955,4.611-.232,1.494-.915,1.821-1.084,3.274a7.3,7.3,0,0,1-2.383,4.657,8.751,8.751,0,0,1-1.622,1.135,7.959,7.959,0,0,0,3.765.956,8.112,8.112,0,0,0,5.322-2.09,7.3,7.3,0,0,0,2.383-4.657,4.718,4.718,0,0,1,.55-1.695l.005-.009a4.876,4.876,0,0,0,.529-1.571,20.89,20.89,0,0,1,.55-2.782,4.323,4.323,0,0,0,.354-2.486Z" fill="#ffcbbe"/>
                    <path id="Trazado_160540" data-name="Trazado 160540" d="M27.823,21.769a1.77,1.77,0,0,0-.521-1.247.663.663,0,0,1-.2-.469,2.366,2.366,0,0,0-1.58-2.2.8.8,0,0,1-.5-.534,1.944,1.944,0,0,0-1.756-1.37.664.664,0,0,1-.493-.276,2.017,2.017,0,0,0-1.643-.817,2.091,2.091,0,0,0-.538.07.813.813,0,0,1-.779-.2,2.2,2.2,0,0,0-1.724-.577h0a2.169,2.169,0,0,0-1.724.577.813.813,0,0,1-.779.2,2.091,2.091,0,0,0-.538-.07,2.017,2.017,0,0,0-1.643.817.664.664,0,0,1-.493.276,1.944,1.944,0,0,0-1.756,1.37.8.8,0,0,1-.5.534,2.367,2.367,0,0,0-1.58,2.2.663.663,0,0,1-.2.469,1.77,1.77,0,0,0-.521,1.247l-.008.056a4.326,4.326,0,0,0,.363,2.507,21.606,21.606,0,0,1,.58,2.871,4.868,4.868,0,0,0,.513,1.524,5.3,5.3,0,0,1,.325.738,4.368,4.368,0,0,0,1.491,2.062l.065.048a10.845,10.845,0,0,0,12.87-.047l.015-.011a4.285,4.285,0,0,0,1.468-2.067,5.042,5.042,0,0,1,.341-.778l.005-.009a4.876,4.876,0,0,0,.529-1.571,20.89,20.89,0,0,1,.55-2.782,4.324,4.324,0,0,0,.354-2.486Z" fill="#756e78"/>
                    <path id="Trazado_160541" data-name="Trazado 160541" d="M27.831,21.824l-.008-.056a1.77,1.77,0,0,0-.521-1.247.663.663,0,0,1-.2-.469,2.366,2.366,0,0,0-1.58-2.2.8.8,0,0,1-.5-.534,1.944,1.944,0,0,0-1.756-1.37.664.664,0,0,1-.493-.276,2.017,2.017,0,0,0-1.643-.817,2.091,2.091,0,0,0-.538.07.813.813,0,0,1-.779-.2,2.2,2.2,0,0,0-1.724-.577h0a2.169,2.169,0,0,0-1.724.577.813.813,0,0,1-.779.2,2.1,2.1,0,0,0-1.215.042,2.026,2.026,0,0,1,.59.342c.386.313.406.609.838.64a2.066,2.066,0,0,1,1,.341c.934.628.552,1.3,1.253,1.563a2.366,2.366,0,0,1,1.58,2.2c0,.585.775.5.777,2.428,0,1.547-.323.549-.955,4.611-.232,1.494-.915,1.821-1.084,3.274a7.511,7.511,0,0,1-1.171,3.256c.3.026.617.042.939.043a10.8,10.8,0,0,0,6.425-2.139l.015-.011a4.285,4.285,0,0,0,1.468-2.067,5.042,5.042,0,0,1,.341-.778l.005-.009a4.876,4.876,0,0,0,.529-1.571,20.89,20.89,0,0,1,.55-2.782,4.322,4.322,0,0,0,.354-2.486Z" fill="#665e66"/>
                  </g>
                </g>
              </g>
            </g>
          </g>
        </g>
        <g id="Grupo_115091" data-name="Grupo 115091">
          <g id="Grupo_115090" data-name="Grupo 115090">
            <path id="Trazado_160542" data-name="Trazado 160542" d="M54.7,27.952c0-.013,0-.886,0-8.981a2.226,2.226,0,0,0,.715-1.633V14.686a2.226,2.226,0,0,0-.732-1.648,10.3,10.3,0,0,0-20.584,0,2.226,2.226,0,0,0-.732,1.649v2.652a2.226,2.226,0,0,0,.716,1.634v2.813a.893.893,0,0,0,.893.894h0a.894.894,0,0,0,.894-.893V19.572h1.2a7.589,7.589,0,0,0,2.755,4.01c-.02,1.9.048,1.96-.067,2.264-.3.779-.859.577-3.889,1.431V25.963a.893.893,0,0,0-.893-.894h0a.893.893,0,0,0-.894.893v1.99a11.127,11.127,0,0,0-6.3,10.013v1.408a12.721,12.721,0,0,0-1.915-.529l-2.127-.409a1.115,1.115,0,0,1-.9-1.093v-.728a9.921,9.921,0,0,0,1.223-.919A8.172,8.172,0,0,0,26.73,30.47a3.9,3.9,0,0,1,.454-1.382c.851-1.573.7-3.3,1.108-4.41.658-1.42.737-3.609-.295-4.721a3.243,3.243,0,0,0-2.121-2.922,2.839,2.839,0,0,0-2.434-1.963,2.949,2.949,0,0,0-3.036-1.015,3.02,3.02,0,0,0-2.31-.794,3.016,3.016,0,0,0-2.309.794,2.948,2.948,0,0,0-3.036,1.015,2.834,2.834,0,0,0-2.434,1.963A3.243,3.243,0,0,0,8.2,19.956c-1.049,1.131-.95,3.328-.283,4.747.12.318.393,1.917.462,2.342.347,2.122.949,2.176,1.113,3.5a8.17,8.17,0,0,0,2.725,5.2,9.963,9.963,0,0,0,1.154.86v.737a1.107,1.107,0,0,1-.864,1.083h0l-2.165.419A12.68,12.68,0,0,0,5.8,40.673a.894.894,0,0,0,.975,1.5,10.9,10.9,0,0,1,3.9-1.572l1.754-.338a8.806,8.806,0,0,0,5.863,2.223h0a8.806,8.806,0,0,0,5.8-2.16l1.428.275A10.974,10.974,0,0,1,34.407,51.36v2.609A2.014,2.014,0,0,1,32.4,55.981H29.714V52.815a.894.894,0,1,0-1.787,0v3.166H8.247V52.815a.894.894,0,1,0-1.787,0v3.166H3.8a2.014,2.014,0,0,1-2.011-2.011V51.36a10.878,10.878,0,0,1,2.169-6.545.894.894,0,1,0-1.433-1.068A12.653,12.653,0,0,0,0,51.36V53.97a3.8,3.8,0,0,0,3.8,3.8H57.692A3.312,3.312,0,0,0,61,54.46v-16.5a11.127,11.127,0,0,0-6.3-10.013Zm-43.71-9.26a1.707,1.707,0,0,0,1.04-1.129,1.05,1.05,0,0,1,.96-.719,1.579,1.579,0,0,0,1.154-.645,1.159,1.159,0,0,1,1.226-.406A1.712,1.712,0,0,0,17,15.37a1.312,1.312,0,0,1,1.1-.32,1.342,1.342,0,0,1,1.1.32,1.711,1.711,0,0,0,1.636.423l.011,0a1.307,1.307,0,0,1,1.39.609,1.55,1.55,0,0,0,.818.423c.144.025.922.032,1.12.74a1.708,1.708,0,0,0,1.04,1.129,1.47,1.47,0,0,1,1,1.357,1.55,1.55,0,0,0,.454,1.1,3.1,3.1,0,0,1,0,2.784c-.48,1.03-.385,3.066-1.06,4.314-.554,1.024-.51,1.77-1.553,2.551l-.018.013a9.952,9.952,0,0,1-11.806.044l-.06-.045c-1.024-.766-1.078-1.6-1.563-2.506-.635-1.19-.6-3.357-1.073-4.355a3.084,3.084,0,0,1-.006-2.8,1.55,1.55,0,0,0,.454-1.1,1.47,1.47,0,0,1,1-1.357Zm1.181,14.256A11.715,11.715,0,0,0,18.14,34.56h.017a11.7,11.7,0,0,0,5.884-1.61,6.061,6.061,0,0,1-1.172,1.4,7.023,7.023,0,0,1-9.487.041A6.067,6.067,0,0,1,12.166,32.948Zm2.1,6.486a2.88,2.88,0,0,0,.886-1.95,8.609,8.609,0,0,0,5.9.005,2.9,2.9,0,0,0,1.06,2.1A7.032,7.032,0,0,1,14.262,39.434Zm44.95-1.469v4.544h-3.2v-1.8a.894.894,0,1,0-1.787,0v1.8H49.31a41.594,41.594,0,0,0,.146-14.258c2.12.543,2.155.554,2.2.562A9.333,9.333,0,0,1,59.213,37.965ZM41.281,42.509a39.709,39.709,0,0,1-.618-10.421,10.879,10.879,0,0,0,7.447,0,39.713,39.713,0,0,1-.618,10.421Zm11.895-28.27a.447.447,0,0,1,.447.447v2.652a.447.447,0,0,1-.447.447H51.987c.013-.33,0,.094.006-3.545Zm-2.04,6.912c-.01-.028-.02-.057-.031-.084a7.593,7.593,0,0,0,.6-1.5h1.2v.514a1.087,1.087,0,0,1-1.085,1.065Zm-1.645.788a.514.514,0,0,1-.514.514H46.939a.514.514,0,1,1,0-1.027h2.037A.514.514,0,0,1,49.489,21.939Zm.292,4.552.012,0a1.046,1.046,0,0,1-.842-1.009V24.239h.024a2.3,2.3,0,0,0,2.069-1.3h.777a2.856,2.856,0,0,0,1.085-.214v4.552l-3.127-.785Zm-5.4-21.472a8.538,8.538,0,0,1,8.447,7.433H51.327a5.39,5.39,0,0,1-2.541-3.126A1.25,1.25,0,0,0,46.5,9.1c-2.121,3.817-6.766,3.349-10.563,3.349A8.537,8.537,0,0,1,44.386,5.019ZM35.6,17.784a.448.448,0,0,1-.447-.447V14.686a.448.448,0,0,1,.447-.447h1.182c.005,4.008-.008,3.152.007,3.545Zm2.969-.194V14.239c.426-.07,5.923.595,8.918-3.374a7.151,7.151,0,0,0,2.722,3.006v3.72a5.817,5.817,0,0,1-.463,2.181,2.285,2.285,0,0,0-.767-.134H46.939a2.3,2.3,0,0,0-1.869,3.637,5.806,5.806,0,0,1-6.5-5.685Zm8.6,6.987c.035,1.068.613,4.383.766,5.658a9.058,9.058,0,0,1-7.089,0c.153-1.272.731-4.592.766-5.655A7.61,7.61,0,0,0,47.164,24.577Zm-17.606,15.6V37.965a9.332,9.332,0,0,1,7.558-9.152c.043-.008.077-.019,2.2-.562a41.594,41.594,0,0,0,.146,14.258H34.546v-1.8a.894.894,0,1,0-1.787,0v1.8H32.61a12.759,12.759,0,0,0-3.051-2.332ZM59.213,54.46a1.521,1.521,0,0,1-1.521,1.521H35.615a3.775,3.775,0,0,0,.578-2.011V51.36a12.7,12.7,0,0,0-1.86-6.617l-.195-.3a.093.093,0,0,1,.078-.143h25Z"/>
            <path id="Trazado_160543" data-name="Trazado 160543" d="M50.925,35.279v1.4a1.849,1.849,0,0,0,1.847,1.847h2.86a1.849,1.849,0,0,0,1.847-1.847v-1.4a1.849,1.849,0,0,0-1.847-1.847h-2.86A1.849,1.849,0,0,0,50.925,35.279Zm1.787,0a.06.06,0,0,1,.06-.06h2.86a.06.06,0,0,1,.06.06v1.4a.06.06,0,0,1-.06.06h-2.86a.06.06,0,0,1-.06-.06Z"/>
          </g>
        </g>
      </g>
    </g>
  </g>
</svg>
