<svg xmlns="http://www.w3.org/2000/svg" xmlns:xlink="http://www.w3.org/1999/xlink" width="85" height="85" viewBox="0 0 85 85">
  <defs>
    <clipPath id="clip-path">
      <rect id="Rectángulo_36843" data-name="Rectángulo 36843" width="61" height="55" transform="translate(822 1709)" fill="#fff"/>
    </clipPath>
  </defs>
  <g id="Grupo_119014" data-name="Grupo 119014" transform="translate(-810 -1694)">
    <circle id="Elipse_4520" data-name="Elipse 4520" cx="42.5" cy="42.5" r="42.5" transform="translate(810 1694)" fill="#ff6d60"/>
    <g id="Enmascarar_grupo_254" data-name="Enmascarar grupo 254" clip-path="url(#clip-path)">
      <g id="capacitacion" transform="translate(824.113 1708.113)">
        <path id="Trazado_160544" data-name="Trazado 160544" d="M43.468,42.581H48.79v4.435H43.468Z" fill="#eeb8ab"/>
        <path id="Trazado_160545" data-name="Trazado 160545" d="M45.242,44.355a2.869,2.869,0,0,1-1.774-.618v3.28H48.79v-3.28a2.869,2.869,0,0,1-1.774.618Z" fill="#ffe1d3"/>
        <path id="Trazado_160546" data-name="Trazado 160546" d="M7.984,42.581h5.323v4.435H7.984Z" fill="#eeb8ab"/>
        <path id="Trazado_160547" data-name="Trazado 160547" d="M9.758,44.355a2.869,2.869,0,0,1-1.774-.618v3.28h5.323v-3.28a2.869,2.869,0,0,1-1.774.618Z" fill="#ffe1d3"/>
        <path id="Trazado_160548" data-name="Trazado 160548" d="M17.742,35.484h21.29v20.4H17.742Z" fill="#893b1b"/>
        <path id="Trazado_160549" data-name="Trazado 160549" d="M39.032,36.371H20.4V49.677a3.549,3.549,0,0,0,3.548,3.548H39.032Z" fill="#a44b2f"/>
        <path id="Trazado_160550" data-name="Trazado 160550" d="M34.6,35.484V30.161l1.885,1.885a2.651,2.651,0,0,0,3.144.452l7.9-4.311a2.417,2.417,0,0,0,1.26-2.123,2.114,2.114,0,0,0-3.14-1.848l-7.506,4.17L36.429,24.1c-.038-.1-.081-.191-.128-.284a3.736,3.736,0,0,0-2.61-1.993l-2.643-.529H25.726l-3.654.914a4.544,4.544,0,0,0-3.443,4.409v8.871" fill="#b4b4b4"/>
        <path id="Trazado_160551" data-name="Trazado 160551" d="M46.677,23.951a2.113,2.113,0,0,0-1.027.266l-7.506,4.17L36.429,24.1c-.038-.1-.081-.191-.128-.284a3.736,3.736,0,0,0-2.61-1.993l-2.643-.529H25.726l-3.654.914a4.577,4.577,0,0,0-.491.168,4.521,4.521,0,0,0-.29,1.58v6.21a2.661,2.661,0,0,0,2.661,2.661H34.6V30.161l1.885,1.885a2.651,2.651,0,0,0,3.144.452l7.9-4.311a2.417,2.417,0,0,0,1.26-2.123,2.114,2.114,0,0,0-2.113-2.114Z" fill="#c8c8c8"/>
        <path id="Trazado_160552" data-name="Trazado 160552" d="M31.048,24.839l2.928-2.928c-.1-.028-.185-.072-.285-.091l-2.644-.529-2.661.887Z" fill="#b4b4b4"/>
        <path id="Trazado_160553" data-name="Trazado 160553" d="M28.387,22.177l-2.661-.887L22.887,22l2.839,2.839Z" fill="#b4b4b4"/>
        <path id="Trazado_160554" data-name="Trazado 160554" d="M30.339,24.129l-1.065,1.6H27.5l-1.065-1.6,1.952-1.952Z" fill="#e66967"/>
        <path id="Trazado_160555" data-name="Trazado 160555" d="M25.726,18.8V21.29l2.661.887,2.661-.887V18.8Z" fill="#eeb8ab"/>
        <path id="Trazado_160556" data-name="Trazado 160556" d="M21.29,10.69V6.21a4.436,4.436,0,0,1,4.435-4.435h4.435a2.661,2.661,0,0,1,2.661,2.661A2.661,2.661,0,0,1,35.484,7.1V10.69" fill="#3f4042"/>
        <path id="Trazado_160557" data-name="Trazado 160557" d="M35.484,7.1a2.661,2.661,0,0,0-2.661-2.661,2.661,2.661,0,0,0-2.661-2.661H25.726a4.406,4.406,0,0,0-2.551.816,4.429,4.429,0,0,0-.11.958,4.48,4.48,0,0,0,4.48,4.48h7.94Z" fill="#5a5b5d"/>
        <g id="Grupo_115092" data-name="Grupo 115092">
          <path id="Trazado_160558" data-name="Trazado 160558" d="M33.71,9.758v4.435a5.323,5.323,0,0,1-10.645,0V9.758h3.011A5.978,5.978,0,0,0,31.048,7.1Z" fill="#eeb8ab"/>
          <path id="Trazado_160559" data-name="Trazado 160559" d="M23.065,10.645H21.734a2.218,2.218,0,1,0,0,4.435h1.4" fill="#eeb8ab"/>
          <path id="Trazado_160560" data-name="Trazado 160560" d="M33.71,10.645H35.04a2.218,2.218,0,1,1,0,4.435h-1.4" fill="#eeb8ab"/>
        </g>
        <path id="Trazado_160561" data-name="Trazado 160561" d="M30.161,35.484l-.887-9.758H27.5l-.887,9.758Z" fill="#e66967"/>
        <path id="Trazado_160562" data-name="Trazado 160562" d="M28.831,19.494a5.321,5.321,0,0,0,4.879-5.3V9.758L31.048,7.1a5.978,5.978,0,0,1-4.973,2.661H23.952v4.435A5.321,5.321,0,0,0,28.831,19.494Z" fill="#ffe1d3"/>
        <path id="Trazado_160563" data-name="Trazado 160563" d="M31.048,19.686a5.272,5.272,0,0,1-4.435.408v1.2l2.218.739,2.218-.739Z" fill="#ffe1d3"/>
        <path id="Trazado_160564" data-name="Trazado 160564" d="M28.387,25.726,27.5,35.484h2.661l-.887-9.758Z" fill="#ee8382"/>
        <path id="Trazado_160565" data-name="Trazado 160565" d="M21.29,28.387h1.774v7.1H21.29Z" fill="#959595"/>
        <path id="Trazado_160566" data-name="Trazado 160566" d="M9.758,43.468a2.87,2.87,0,0,1-2.567-1.587l-.227-.453a7.143,7.143,0,0,1-.754-3.194V36a3.178,3.178,0,0,1,3.177-3.177H11.9A3.178,3.178,0,0,1,15.081,36v2.234a7.143,7.143,0,0,1-.754,3.194l-.226.453a2.873,2.873,0,0,1-2.568,1.587Z" fill="#893b1b"/>
        <path id="Trazado_160567" data-name="Trazado 160567" d="M25.726,42.581h5.323v4.435H25.726Z" fill="#eeb8ab"/>
        <path id="Trazado_160568" data-name="Trazado 160568" d="M42.581,6.21H53.226A1.774,1.774,0,0,1,55,7.984v7.1a1.774,1.774,0,0,1-1.774,1.774H47.9L42.581,21.29l.887-4.435h-.887a1.774,1.774,0,0,1-1.774-1.774v-7.1A1.774,1.774,0,0,1,42.581,6.21Z" fill="#6ac4e8"/>
        <path id="Trazado_160569" data-name="Trazado 160569" d="M53.226,6.21H42.581v6.21a2.661,2.661,0,0,0,2.661,2.661H55v-7.1A1.774,1.774,0,0,0,53.226,6.21Z" fill="#8edff8"/>
        <path id="Trazado_160570" data-name="Trazado 160570" d="M50.565,12.419h1.774v1.774H50.565Z" fill="#fff"/>
        <path id="Trazado_160571" data-name="Trazado 160571" d="M47.016,12.419H48.79v1.774H47.016Z" fill="#fff"/>
        <path id="Trazado_160572" data-name="Trazado 160572" d="M43.468,12.419h1.774v1.774H43.468Z" fill="#fff"/>
        <path id="Trazado_160573" data-name="Trazado 160573" d="M46.677,23.951a2.113,2.113,0,0,0-1.027.266l-1.926,1.07,2.168,3.794,1.638-.893a2.417,2.417,0,0,0,1.26-2.123,2.114,2.114,0,0,0-2.113-2.114Z" fill="#ffe1d3"/>
        <path id="Trazado_160574" data-name="Trazado 160574" d="M12.908,32.986a3.166,3.166,0,0,0-1-.163H9.386a3.173,3.173,0,0,0-2.252.939,3.088,3.088,0,0,0-.037.464v2.234a7.143,7.143,0,0,0,.754,3.194l.226.453a2.873,2.873,0,0,0,2.568,1.587h1.774a2.865,2.865,0,0,0,2.259-1.11,7.15,7.15,0,0,0,.4-2.351V36a3.176,3.176,0,0,0-2.172-3.013Z" fill="#a44b2f"/>
        <path id="Trazado_160575" data-name="Trazado 160575" d="M27.5,43.468a2.87,2.87,0,0,1-2.567-1.587l-.227-.453a7.143,7.143,0,0,1-.754-3.194V36a3.178,3.178,0,0,1,3.177-3.177h2.518A3.178,3.178,0,0,1,32.823,36v2.234a7.143,7.143,0,0,1-.754,3.194l-.226.453a2.873,2.873,0,0,1-2.568,1.587Z" fill="#3f4042"/>
        <path id="Trazado_160576" data-name="Trazado 160576" d="M45.242,43.468a2.87,2.87,0,0,1-2.567-1.587l-.227-.453a7.143,7.143,0,0,1-.754-3.194V36a3.178,3.178,0,0,1,3.177-3.177h2.518A3.178,3.178,0,0,1,50.565,36v2.234a7.143,7.143,0,0,1-.754,3.194l-.226.453a2.873,2.873,0,0,1-2.568,1.587Z" fill="#c99728"/>
        <path id="Trazado_160577" data-name="Trazado 160577" d="M48.392,32.986a3.166,3.166,0,0,0-1-.163H44.87a3.173,3.173,0,0,0-2.252.939,3.088,3.088,0,0,0-.037.464v2.234a7.143,7.143,0,0,0,.754,3.194l.226.453a2.873,2.873,0,0,0,2.568,1.587H47.9a2.865,2.865,0,0,0,2.259-1.11,7.15,7.15,0,0,0,.4-2.351V36a3.176,3.176,0,0,0-2.173-3.013Z" fill="#e7b532"/>
        <path id="Trazado_160578" data-name="Trazado 160578" d="M30.65,32.986a3.166,3.166,0,0,0-1-.163H27.128a3.173,3.173,0,0,0-2.252.939,3.088,3.088,0,0,0-.037.464v2.234a7.143,7.143,0,0,0,.754,3.194l.226.453a2.873,2.873,0,0,0,2.568,1.587h1.774a2.865,2.865,0,0,0,2.259-1.11,7.15,7.15,0,0,0,.4-2.351V36a3.176,3.176,0,0,0-2.172-3.013Z" fill="#5a5b5d"/>
        <path id="Trazado_160579" data-name="Trazado 160579" d="M3.548,55.887v-6.21A2.661,2.661,0,0,1,6.21,47.016h8.871a2.661,2.661,0,0,1,2.661,2.661v6.21" fill="#6bb566"/>
        <path id="Trazado_160580" data-name="Trazado 160580" d="M8.871,53.226h8.871V49.677a2.661,2.661,0,0,0-2.661-2.661H6.21v3.548A2.661,2.661,0,0,0,8.871,53.226Z" fill="#89c683"/>
        <path id="Trazado_160581" data-name="Trazado 160581" d="M21.29,55.887v-6.21a2.661,2.661,0,0,1,2.661-2.661h8.871a2.661,2.661,0,0,1,2.661,2.661v6.21" fill="#6bb566"/>
        <path id="Trazado_160582" data-name="Trazado 160582" d="M26.613,53.226h8.871V49.677a2.661,2.661,0,0,0-2.661-2.661H23.952v3.548A2.661,2.661,0,0,0,26.613,53.226Z" fill="#89c683"/>
        <path id="Trazado_160583" data-name="Trazado 160583" d="M39.032,55.887v-6.21a2.661,2.661,0,0,1,2.661-2.661h8.871a2.661,2.661,0,0,1,2.661,2.661v6.21" fill="#6bb566"/>
        <path id="Trazado_160584" data-name="Trazado 160584" d="M44.355,53.226h8.871V49.677a2.661,2.661,0,0,0-2.661-2.661H41.694v3.548A2.661,2.661,0,0,0,44.355,53.226Z" fill="#89c683"/>
        <path id="Trazado_160585" data-name="Trazado 160585" d="M27.5,44.355a2.869,2.869,0,0,1-1.774-.618v3.28h5.323v-3.28a2.869,2.869,0,0,1-1.774.618Z" fill="#ffe1d3"/>
        <path id="Trazado_160586" data-name="Trazado 160586" d="M14.194,1.774H3.548A1.774,1.774,0,0,0,1.774,3.548v7.1a1.774,1.774,0,0,0,1.774,1.774H8.871l5.323,4.435-.887-4.435h.887a1.774,1.774,0,0,0,1.774-1.774v-7.1A1.774,1.774,0,0,0,14.194,1.774Z" fill="#6ac4e8"/>
        <path id="Trazado_160587" data-name="Trazado 160587" d="M14.194,1.774H3.548v6.21A2.661,2.661,0,0,0,6.21,10.645h9.758v-7.1A1.774,1.774,0,0,0,14.194,1.774Z" fill="#8edff8"/>
        <path id="Trazado_160588" data-name="Trazado 160588" d="M4.435,7.984H6.21V9.758H4.435Z" fill="#fff"/>
        <path id="Trazado_160589" data-name="Trazado 160589" d="M7.984,7.984H9.758V9.758H7.984Z" fill="#fff"/>
        <path id="Trazado_160590" data-name="Trazado 160590" d="M11.532,7.984h1.774V9.758H11.532Z" fill="#fff"/>
        <path id="Trazado_160591" data-name="Trazado 160591" d="M16.855,46.622a3.512,3.512,0,0,0-1.774-.493h-.887V43.243a3.769,3.769,0,0,0,.7-.966l.226-.453a8.072,8.072,0,0,0,.848-3.591V36A4.064,4.064,0,0,0,11.9,31.935H9.386A4.063,4.063,0,0,0,5.323,36v2.234a8.072,8.072,0,0,0,.848,3.591l.226.453a3.754,3.754,0,0,0,.7.966v2.886H6.21a3.552,3.552,0,0,0-3.548,3.548v6.21H4.435v-6.21A1.776,1.776,0,0,1,6.21,47.9h8.871a1.776,1.776,0,0,1,1.774,1.774v6.21h1.774V36.371h4.435v1.862a8.072,8.072,0,0,0,.848,3.591l.226.453a3.77,3.77,0,0,0,.7.966v2.886h-.887A3.552,3.552,0,0,0,20.4,49.677v6.21h1.774v-6.21A1.776,1.776,0,0,1,23.952,47.9h8.871A1.776,1.776,0,0,1,34.6,49.677v6.21h1.774v-6.21a3.552,3.552,0,0,0-3.548-3.548h-.887V43.243a3.77,3.77,0,0,0,.7-.966l.226-.453a8.072,8.072,0,0,0,.848-3.591V36.371h4.435V55.887h1.774v-6.21A1.776,1.776,0,0,1,41.694,47.9h8.871a1.776,1.776,0,0,1,1.774,1.774v6.21h1.774v-6.21a3.552,3.552,0,0,0-3.548-3.548h-.887V43.243a3.769,3.769,0,0,0,.7-.966l.226-.453a8.072,8.072,0,0,0,.848-3.591V36a4.064,4.064,0,0,0-4.064-4.064H44.87A4.063,4.063,0,0,0,40.806,36v2.234a8.072,8.072,0,0,0,.848,3.591l.226.453a3.77,3.77,0,0,0,.7.966v2.886h-.887a3.512,3.512,0,0,0-1.774.493V35.484a.887.887,0,0,0-.887-.887H35.484V32.3l.37.37a3.6,3.6,0,0,0,4.2.6l7.9-4.311a3.3,3.3,0,0,0,1.723-2.9,3,3,0,0,0-4.459-2.623l-6.625,3.681-1.34-3.351c-.048-.12-.1-.238-.159-.355a4.6,4.6,0,0,0-3.229-2.466l-1.93-.387V19.282a6.227,6.227,0,0,0,2.4-3.314h.705a3.1,3.1,0,0,0,1.331-5.9V7.1a3.554,3.554,0,0,0-2.752-3.458A3.554,3.554,0,0,0,30.161.887H25.726A5.328,5.328,0,0,0,20.4,6.21v3.86a3.1,3.1,0,0,0,1.331,5.9h.705a6.224,6.224,0,0,0,2.4,3.314V20.6l-2.982.745a5.426,5.426,0,0,0-4.114,5.27V34.6a.887.887,0,0,0-.887.887ZM7.1,36a2.288,2.288,0,0,1,2.29-2.29H11.9A2.288,2.288,0,0,1,14.194,36v2.234a6.278,6.278,0,0,1-.661,2.8l-.226.453a1.973,1.973,0,0,1-1.774,1.1H9.758a1.973,1.973,0,0,1-1.774-1.1l-.226-.453a6.278,6.278,0,0,1-.661-2.8Zm1.774,8.243a3.774,3.774,0,0,0,.887.113h1.774a3.774,3.774,0,0,0,.887-.113v1.887H8.871ZM42.581,36a2.288,2.288,0,0,1,2.29-2.29h2.518A2.288,2.288,0,0,1,49.677,36v2.234a6.278,6.278,0,0,1-.661,2.8l-.226.453a1.973,1.973,0,0,1-1.774,1.1H45.242a1.973,1.973,0,0,1-1.774-1.1l-.226-.453a6.278,6.278,0,0,1-.661-2.8Zm1.774,8.243a3.774,3.774,0,0,0,.887.113h1.774a3.774,3.774,0,0,0,.887-.113v1.887H44.355ZM30.161,46.129H26.613V44.242a3.774,3.774,0,0,0,.887.113h1.774a3.774,3.774,0,0,0,.887-.113Zm1.774-7.9a6.278,6.278,0,0,1-.661,2.8l-.226.453a1.973,1.973,0,0,1-1.774,1.1H27.5a1.973,1.973,0,0,1-1.774-1.1l-.226-.453a6.278,6.278,0,0,1-.661-2.8V36a2.288,2.288,0,0,1,2.29-2.29h2.518A2.288,2.288,0,0,1,31.935,36ZM25.69,22.214l1.055.351-1.019,1.019-1.1-1.1Zm5.416-.007,1.1.22-1.159,1.158-1.019-1.019Zm-2.8,4.406h.153l.483,5.323H27.826Zm.077-3.181.81.81-.4.6h-.825l-.4-.6Zm17.694,1.56A1.226,1.226,0,0,1,47.9,26.065a1.531,1.531,0,0,1-.8,1.344l-.875.477-1.292-2.259Zm-10.574-.785c.035.071.067.142.1.218l1.716,4.291a.887.887,0,0,0,.527.507.9.9,0,0,0,.728-.06l4.813-2.675,1.285,2.247L39.2,31.72a1.8,1.8,0,0,1-2.093-.3l-1.885-1.885a.887.887,0,0,0-1.514.628V34.6h-.258a4.052,4.052,0,0,0-2.521-2.453c-.061-.02-.124-.028-.186-.046l-.558-6.14.3-.449a.864.864,0,0,0,1.19-.043l2.535-2.535a2.83,2.83,0,0,1,1.3,1.277ZM35.04,14.194H34.6V11.532h.444a1.331,1.331,0,1,1,0,2.661ZM22.177,6.21a3.552,3.552,0,0,1,3.548-3.548h4.435a1.776,1.776,0,0,1,1.774,1.774.887.887,0,0,0,.887.887A1.776,1.776,0,0,1,34.6,7.1V9.758a.885.885,0,0,0-.26-.627L31.676,6.47A.887.887,0,0,0,30.31,6.6a5.078,5.078,0,0,1-4.234,2.267H23.065a.887.887,0,0,0-.887.887Zm-.444,7.984a1.331,1.331,0,1,1,0-2.661h.444v2.661Zm2.218,0V10.645h2.125a6.847,6.847,0,0,0,5.051-2.216l1.7,1.7v4.068a4.435,4.435,0,1,1-8.871,0Zm4.435,6.21a6.171,6.171,0,0,0,1.774-.262v.509l-1.774.592-1.774-.592v-.509A6.171,6.171,0,0,0,28.387,20.4Zm-8.871,6.21a3.652,3.652,0,0,1,2.77-3.548l.328-.083L25.1,25.466a.864.864,0,0,0,1.19.043l.3.449L26.03,32.1c-.062.018-.125.026-.186.046a4.052,4.052,0,0,0-2.52,2.453h-.259v-6.21H21.29V34.6H19.516Z"/>
        <path id="Trazado_160592" data-name="Trazado 160592" d="M3.548,13.306h5l5.076,4.23a.887.887,0,0,0,1.437-.856L14.387,13.3a2.663,2.663,0,0,0,2.468-2.653v-7.1A2.665,2.665,0,0,0,14.194.887H3.548A2.665,2.665,0,0,0,.887,3.548v7.1a2.665,2.665,0,0,0,2.661,2.661ZM2.661,3.548a.889.889,0,0,1,.887-.887H14.194a.889.889,0,0,1,.887.887v7.1a.889.889,0,0,1-.887.887h-.887a.887.887,0,0,0-.869,1.061l.394,1.971L9.439,11.738a.886.886,0,0,0-.568-.206H3.548a.889.889,0,0,1-.887-.887Z"/>
        <path id="Trazado_160593" data-name="Trazado 160593" d="M4.435,7.984H6.21V9.758H4.435Z"/>
        <path id="Trazado_160594" data-name="Trazado 160594" d="M7.984,7.984H9.758V9.758H7.984Z"/>
        <path id="Trazado_160595" data-name="Trazado 160595" d="M11.532,7.984h1.774V9.758H11.532Z"/>
        <path id="Trazado_160596" data-name="Trazado 160596" d="M53.226,5.323H42.581a2.665,2.665,0,0,0-2.661,2.661v7.1a2.664,2.664,0,0,0,2.468,2.654l-.676,3.382a.887.887,0,0,0,1.437.855l5.076-4.23h5a2.665,2.665,0,0,0,2.661-2.661v-7.1a2.665,2.665,0,0,0-2.661-2.661Zm.887,9.758a.889.889,0,0,1-.887.887H47.9a.886.886,0,0,0-.568.206L43.943,19l.394-1.971a.887.887,0,0,0-.869-1.061h-.887a.889.889,0,0,1-.887-.887v-7.1a.889.889,0,0,1,.887-.887H53.226a.889.889,0,0,1,.887.887Z"/>
        <path id="Trazado_160597" data-name="Trazado 160597" d="M50.565,12.419h1.774v1.774H50.565Z"/>
        <path id="Trazado_160598" data-name="Trazado 160598" d="M47.016,12.419H48.79v1.774H47.016Z"/>
        <path id="Trazado_160599" data-name="Trazado 160599" d="M43.468,12.419h1.774v1.774H43.468Z"/>
      </g>
    </g>
  </g>
</svg>
