<svg xmlns="http://www.w3.org/2000/svg" xmlns:xlink="http://www.w3.org/1999/xlink" width="85" height="85" viewBox="0 0 85 85">
  <defs>
    <clipPath id="clip-path">
      <rect id="Rectángulo_36844" data-name="Rectángulo 36844" width="61" height="55" transform="translate(1133 1709)" fill="#fff"/>
    </clipPath>
  </defs>
  <g id="Grupo_119015" data-name="Grupo 119015" transform="translate(-1125 -1694)">
    <circle id="Elipse_4521" data-name="Elipse 4521" cx="42.5" cy="42.5" r="42.5" transform="translate(1125 1694)" fill="#ff6d60"/>
    <g id="Enmascarar_grupo_256" data-name="Enmascarar grupo 256" clip-path="url(#clip-path)">
      <g id="perdida-de-dinero" transform="translate(1135.987 1708.986)">
        <path id="Trazado_160637" data-name="Trazado 160637" d="M1.667.917l7.6-.091a.9.9,0,0,1,.77.414l2.377,3.693,3.427,5.019-2.991,4.772L1.36,1.585A.407.407,0,0,1,1.667.917Z" fill="#fe646f"/>
        <path id="Trazado_160638" data-name="Trazado 160638" d="M26.289,14.219,42.132,31.193l-2.448,2.3a.911.911,0,0,0,.368,1.539l12.085,3.536a.911.911,0,0,0,1.125-1.148l-3.9-12.373a.911.911,0,0,0-1.517-.367L45.89,26.655,25.406,5.932l-3.633,4.02Z" fill="#fe646f"/>
        <path id="Trazado_160639" data-name="Trazado 160639" d="M24.06,11.275l1.667-4.586a1.124,1.124,0,0,0-1.361-1.465l-3.409.963L19.6,5.177a1.246,1.246,0,0,0-1.484,0L16.751,6.186l-3.409-.963a1.124,1.124,0,0,0-1.361,1.465l1.667,4.586,1.219,3.448h7.688Z" fill="#f9f3f1"/>
        <g id="Grupo_115109" data-name="Grupo 115109">
          <path id="Trazado_160640" data-name="Trazado 160640" d="M24.677,18.806,34.9,35.436A12.319,12.319,0,0,1,24.409,54.207H13.355A12.319,12.319,0,0,1,2.861,35.436l10.225-16.63,2.8-3.838h6.442Z" fill="#f9f3f1"/>
          <path id="Trazado_160641" data-name="Trazado 160641" d="M14.26,35.341,22.2,22.423a2.18,2.18,0,0,1,1.857-1.038A4.506,4.506,0,0,0,26,20.95l-1.318-2.144-.119-.195-2.229-3.643H15.888l-2.8,3.838L2.861,35.436A12.319,12.319,0,0,0,13.355,54.207H24.409a12.73,12.73,0,0,0,1.54-.092l-1.195,0A12.319,12.319,0,0,1,14.26,35.341Z" fill="#f3eae6"/>
          <path id="Trazado_160642" data-name="Trazado 160642" d="M24.06,15.005H13.648a1.846,1.846,0,1,0,0,3.693H24.06a1.846,1.846,0,0,0,0-3.693Z" fill="#fef0ae"/>
          <path id="Trazado_160643" data-name="Trazado 160643" d="M24.964,8.787a4.536,4.536,0,0,0-.9-.091H19.169a1.588,1.588,0,0,1-1.493-1.047c-.277-.766-.606-1.675-.612-1.7l-.314.233-3.409-.963a1.124,1.124,0,0,0-1.361,1.465l1.667,4.586,1.219,3.448h7.689l.276-.633,1.228-2.815Z" fill="#f3eae6"/>
          <path id="Trazado_160644" data-name="Trazado 160644" d="M24.06,11.382H13.648a1.846,1.846,0,1,0,0,3.693H24.06a1.846,1.846,0,0,0,0-3.693Z" fill="#fef0ae"/>
          <path id="Trazado_160645" data-name="Trazado 160645" d="M16.952,16.852A1.846,1.846,0,0,1,18.8,15.006H13.648a1.846,1.846,0,0,0,0,3.693H18.8A1.846,1.846,0,0,1,16.952,16.852Z" fill="#fee97d"/>
          <path id="Trazado_160646" data-name="Trazado 160646" d="M16.952,13.229A1.847,1.847,0,0,1,18.8,11.382H13.648a1.846,1.846,0,0,0,0,3.693H18.8a1.846,1.846,0,0,1-1.846-1.846Z" fill="#fee97d"/>
          <path id="Trazado_160647" data-name="Trazado 160647" d="M24.4,36.735H15.2V33.559H25.369a.309.309,0,0,0,.309-.309V30.645a.309.309,0,0,0-.309-.309H20.234V28.719a.6.6,0,0,0-.6-.6H17.611a.6.6,0,0,0-.6.6v1.616H13.592a1.612,1.612,0,0,0-1.612,1.612v6.4a1.612,1.612,0,0,0,1.612,1.612h9.2v3.175H12.782a.615.615,0,0,0-.615.615v1.994a.615.615,0,0,0,.615.615H17.01v1.768a.45.45,0,0,0,.45.45h2.325a.45.45,0,0,0,.45-.45V46.358H24.4a1.612,1.612,0,0,0,1.612-1.612v-6.4A1.612,1.612,0,0,0,24.4,36.735Z" fill="#fedf30"/>
          <path id="Trazado_160648" data-name="Trazado 160648" d="M52.407,54.207H33.518A1.813,1.813,0,0,1,31.7,52.394V49.472a1.813,1.813,0,0,1,1.813-1.813h18.89a1.813,1.813,0,0,1,1.813,1.813v2.921a1.813,1.813,0,0,1-1.813,1.813Z" fill="#fee45a"/>
          <path id="Trazado_160649" data-name="Trazado 160649" d="M52.407,47.659H33.518A1.813,1.813,0,0,1,31.7,45.846V42.925a1.813,1.813,0,0,1,1.813-1.813h18.89a1.813,1.813,0,0,1,1.813,1.813v2.921a1.813,1.813,0,0,1-1.813,1.813Z" fill="#fee45a"/>
          <g id="Grupo_115108" data-name="Grupo 115108">
            <path id="Trazado_160650" data-name="Trazado 160650" d="M39.624,52.394V49.472a1.813,1.813,0,0,1,1.813-1.813H33.517A1.813,1.813,0,0,0,31.7,49.472v2.921a1.813,1.813,0,0,0,1.813,1.813h7.919A1.813,1.813,0,0,1,39.624,52.394Z" fill="#fedf30"/>
            <path id="Trazado_160651" data-name="Trazado 160651" d="M39.624,45.846V42.925a1.813,1.813,0,0,1,1.813-1.813H33.517A1.813,1.813,0,0,0,31.7,42.925v2.921a1.813,1.813,0,0,0,1.813,1.813h7.919A1.813,1.813,0,0,1,39.624,45.846Z" fill="#fedf30"/>
          </g>
        </g>
        <g id="Grupo_115110" data-name="Grupo 115110">
          <path id="Trazado_160652" data-name="Trazado 160652" d="M28.33,52.732a11.606,11.606,0,0,1-3.921.669H13.355A11.513,11.513,0,0,1,3.548,35.858l9.991-16.249c.036,0,10.63,0,10.684,0l9.993,16.252a11.854,11.854,0,0,1,1.093,2.295.806.806,0,1,0,1.522-.532,13.468,13.468,0,0,0-1.242-2.608L25.746,19.005a2.649,2.649,0,0,0,.195-3.914l.03-.032,7.171,7.683a.806.806,0,0,0,1.178-1.1L26.7,13.475a2.725,2.725,0,0,0-1.577-2.759l1.044-2.871L45.317,27.221a.806.806,0,0,0,.573.239h0a.806.806,0,0,0,.573-.239l1.958-1.978a.105.105,0,0,1,.175.042l3.9,12.373a.105.105,0,0,1-.13.133L40.278,34.256a.105.105,0,0,1-.043-.178l2.448-2.3a.806.806,0,0,0,.038-1.138l-6.056-6.488a.806.806,0,0,0-1.179,1.1l5.508,5.9L39.132,32.9a1.717,1.717,0,0,0,.693,2.9L51.91,39.339a1.718,1.718,0,0,0,2.121-2.164L50.134,24.8a1.717,1.717,0,0,0-2.859-.692l-1.385,1.4L26.57,5.963a1.93,1.93,0,0,0-2.424-1.515L21.119,5.3,20.076,4.53a2.04,2.04,0,0,0-2.444,0L16.589,5.3l-3.028-.855a1.939,1.939,0,0,0-.546-.073L10.446.383a.806.806,0,0,0-1.356.873l2.46,3.821a1.92,1.92,0,0,0-.326,1.888l1.364,3.753a2.742,2.742,0,0,0-1.308,1.268L1.42.4A.806.806,0,0,0,.192,1.449s11.4,13.464,11.575,13.642A2.648,2.648,0,0,0,12,19.035L2.175,35.014a13.125,13.125,0,0,0,11.18,20H24.409a13.215,13.215,0,0,0,4.464-.764.806.806,0,0,0-.543-1.518ZM13.72,12.081H23.987a1.113,1.113,0,0,1,0,2.226H13.72a1.113,1.113,0,1,1,0-2.226Zm10.34,3.838a1.04,1.04,0,0,1,0,2.081H13.648a1.04,1.04,0,1,1,0-2.081ZM16.532,6.962a.806.806,0,0,0,.7-.128l1.361-1.009a.437.437,0,0,1,.524,0l1.361,1.009a.805.805,0,0,0,.7.128L24.585,6a.318.318,0,0,1,.385.414L23.5,10.469H14.213L12.739,6.413A.318.318,0,0,1,13.124,6Z"/>
          <path id="Trazado_160653" data-name="Trazado 160653" d="M17.459,49.382h2.325a1.257,1.257,0,0,0,1.256-1.256v-.962H24.4a2.421,2.421,0,0,0,2.418-2.418v-6.4A2.421,2.421,0,0,0,24.4,35.929H16.01V34.366h9.359a1.116,1.116,0,0,0,1.115-1.115V30.645a1.116,1.116,0,0,0-1.115-1.115H21.04v-.81a1.409,1.409,0,0,0-1.408-1.408H17.611A1.409,1.409,0,0,0,16.2,28.719v.81H13.592a2.421,2.421,0,0,0-2.418,2.418v6.4a2.421,2.421,0,0,0,2.418,2.418h8.392v1.563H17.825a.806.806,0,0,0,0,1.612H22.79a.806.806,0,0,0,.806-.806V39.959a.806.806,0,0,0-.806-.806h-9.2a.807.807,0,0,1-.806-.806v-6.4a.807.807,0,0,1,.806-.806H17.01a.806.806,0,0,0,.806-.806V28.923h1.612v1.412a.806.806,0,0,0,.806.806h4.638v1.612H15.2a.806.806,0,0,0-.806.806v3.175a.806.806,0,0,0,.806.806h9.2a.807.807,0,0,1,.806.806v6.4a.807.807,0,0,1-.806.806H20.234a.806.806,0,0,0-.806.806V47.77H17.816V46.358a.806.806,0,0,0-.806-.806H12.973V43.94H14.39a.806.806,0,1,0,0-1.612H12.782a1.423,1.423,0,0,0-1.421,1.421v1.994a1.423,1.423,0,0,0,1.421,1.421H16.2v.962a1.257,1.257,0,0,0,1.256,1.256Z"/>
          <path id="Trazado_160654" data-name="Trazado 160654" d="M55.026,42.925a2.622,2.622,0,0,0-2.619-2.619H48.365a.806.806,0,1,0,0,1.612h4.042a1.008,1.008,0,0,1,1.007,1.007v2.921a1.009,1.009,0,0,1-1.006,1.007H33.516a1.008,1.008,0,0,1-1.006-1.007V42.925a1.008,1.008,0,0,1,1.007-1.007H44.93a.806.806,0,1,0,0-1.612H33.518A2.622,2.622,0,0,0,30.9,42.925v2.921a2.61,2.61,0,0,0,.732,1.813,2.61,2.61,0,0,0-.732,1.813v2.921a2.622,2.622,0,0,0,2.619,2.619h18.89a2.622,2.622,0,0,0,2.619-2.619V49.473a2.61,2.61,0,0,0-.732-1.813,2.61,2.61,0,0,0,.732-1.813V42.925Zm-1.612,9.469A1.008,1.008,0,0,1,52.407,53.4H33.518a1.008,1.008,0,0,1-1.007-1.007V49.472a1.008,1.008,0,0,1,1.006-1.007H52.408a1.008,1.008,0,0,1,1.006,1.007v2.921Z"/>
        </g>
      </g>
    </g>
  </g>
</svg>
