<svg xmlns="http://www.w3.org/2000/svg" xmlns:xlink="http://www.w3.org/1999/xlink" width="54" height="54" viewBox="0 0 54 54">
  <defs>
    <clipPath id="clip-path">
      <rect id="Rectángulo_36640" data-name="Rectángulo 36640" width="54" height="54" transform="translate(2099 -7457)" fill="#fff"/>
    </clipPath>
  </defs>
  <g id="Enmascarar_grupo_233" data-name="Enmascarar grupo 233" transform="translate(-2099 7457)" clip-path="url(#clip-path)">
    <g id="banco" transform="translate(2099 -7457)">
      <g id="Grupo_112792" data-name="Grupo 112792">
        <path id="Trazado_158740" data-name="Trazado 158740" d="M4.348,16.315V29.15H49.655V16.315L27,3.236Z" fill="#eceaec" fill-rule="evenodd"/>
      </g>
      <g id="Grupo_112793" data-name="Grupo 112793">
        <path id="Trazado_158741" data-name="Trazado 158741" d="M1.069,17.921A2.079,2.079,0,0,0,3.9,18.68l.445-.257L27,5.343l22.655,13.08.445.257a2.074,2.074,0,0,0,2.072-3.594L28.139,1.212a2.426,2.426,0,0,0-2.278,0L1.828,15.086a2.082,2.082,0,0,0-.759,2.834Z" fill="#9fd4fe" fill-rule="evenodd"/>
      </g>
      <g id="Grupo_112794" data-name="Grupo 112794">
        <path id="Trazado_158742" data-name="Trazado 158742" d="M3.726,33.012h49a.486.486,0,0,0,.484-.484V29.634a.486.486,0,0,0-.484-.484H1.278a.486.486,0,0,0-.484.484v2.894a.486.486,0,0,0,.484.484Z" fill="#9fd4fe" fill-rule="evenodd"/>
      </g>
      <g id="Grupo_112795" data-name="Grupo 112795">
        <path id="Trazado_158743" data-name="Trazado 158743" d="M5.939,36.462h8.706a.472.472,0,0,0,.469-.469V33.012H3.726v2.981a.472.472,0,0,0,.469.469Z" fill="#eceaec" fill-rule="evenodd"/>
      </g>
      <g id="Grupo_112796" data-name="Grupo 112796">
        <path id="Trazado_158744" data-name="Trazado 158744" d="M23.52,36.462h8.7a.473.473,0,0,0,.472-.469V33.012H21.3v2.981a.473.473,0,0,0,.472.469Z" fill="#eceaec" fill-rule="evenodd"/>
      </g>
      <g id="Grupo_112797" data-name="Grupo 112797">
        <path id="Trazado_158745" data-name="Trazado 158745" d="M39.359,36.462H49.8a.473.473,0,0,0,.472-.469V33.012H38.886v2.981A.473.473,0,0,0,39.359,36.462Z" fill="#eceaec" fill-rule="evenodd"/>
      </g>
      <g id="Grupo_112798" data-name="Grupo 112798">
        <path id="Trazado_158746" data-name="Trazado 158746" d="M41.1,36.462h6.96v9.3H41.1Z" fill="#ffe07d" fill-rule="evenodd"/>
      </g>
      <g id="Grupo_112799" data-name="Grupo 112799">
        <path id="Trazado_158747" data-name="Trazado 158747" d="M23.52,36.462h6.96v9.3H23.52Z" fill="#ffe07d" fill-rule="evenodd"/>
      </g>
      <g id="Grupo_112800" data-name="Grupo 112800">
        <path id="Trazado_158748" data-name="Trazado 158748" d="M5.939,36.462H12.9v9.3H5.939Z" fill="#ffe07d" fill-rule="evenodd"/>
      </g>
      <g id="Grupo_112801" data-name="Grupo 112801">
        <path id="Trazado_158749" data-name="Trazado 158749" d="M3.726,49.21H15.114V46.232a.473.473,0,0,0-.469-.472H4.2a.473.473,0,0,0-.469.472Z" fill="#eceaec" fill-rule="evenodd"/>
      </g>
      <g id="Grupo_112802" data-name="Grupo 112802">
        <path id="Trazado_158750" data-name="Trazado 158750" d="M38.886,49.21h11.39V46.232a.473.473,0,0,0-.472-.472H39.359a.473.473,0,0,0-.472.472Z" fill="#eceaec" fill-rule="evenodd"/>
      </g>
      <g id="Grupo_112803" data-name="Grupo 112803">
        <path id="Trazado_158751" data-name="Trazado 158751" d="M21.3,49.21h11.39V46.232a.473.473,0,0,0-.472-.472H21.777a.473.473,0,0,0-.472.472V49.21Z" fill="#eceaec" fill-rule="evenodd"/>
      </g>
      <g id="Grupo_112804" data-name="Grupo 112804">
        <path id="Trazado_158752" data-name="Trazado 158752" d="M1.278,53.073H52.725a.486.486,0,0,0,.484-.484V49.694a.486.486,0,0,0-.484-.484H1.278a.486.486,0,0,0-.484.484v2.894a.486.486,0,0,0,.484.484Z" fill="#9fd4fe" fill-rule="evenodd"/>
      </g>
      <g id="Grupo_112805" data-name="Grupo 112805">
        <path id="Trazado_158753" data-name="Trazado 158753" d="M24.584,12.551a2.532,2.532,0,1,0,2.532-2.532A2.531,2.531,0,0,0,24.584,12.551Z" fill="#ffe07d" fill-rule="evenodd"/>
      </g>
      <g id="Grupo_112806" data-name="Grupo 112806">
        <path id="Trazado_158754" data-name="Trazado 158754" d="M12.9,36.462v9.3h1.743a.473.473,0,0,1,.469.472V49.21H21.3V46.232a.473.473,0,0,1,.472-.472H23.52v-9.3H21.777a.473.473,0,0,1-.472-.469V33.012H15.113v2.981a.472.472,0,0,1-.469.469Z" fill="#b6b1b7" fill-rule="evenodd"/>
      </g>
      <g id="Grupo_112807" data-name="Grupo 112807">
        <path id="Trazado_158755" data-name="Trazado 158755" d="M30.48,36.462v9.3h1.743a.473.473,0,0,1,.472.472V49.21h6.191V46.232a.473.473,0,0,1,.472-.472H41.1v-9.3H39.359a.473.473,0,0,1-.472-.469V33.012H32.695v2.981a.473.473,0,0,1-.472.469Z" fill="#b6b1b7" fill-rule="evenodd"/>
      </g>
      <g id="Grupo_112808" data-name="Grupo 112808">
        <path id="Trazado_158756" data-name="Trazado 158756" d="M27,5.343,4.348,18.423v2.942L27,8.285l22.655,13.08V18.423Z" fill="#dad8db" fill-rule="evenodd"/>
      </g>
      <g id="Grupo_112809" data-name="Grupo 112809">
        <path id="Trazado_158757" data-name="Trazado 158757" d="M27.117,10.019a2.534,2.534,0,0,0-2.395,3.357,2.532,2.532,0,0,1,4.741.123,2.5,2.5,0,0,0,.185-.948A2.533,2.533,0,0,0,27.117,10.019Z" fill="#ffc269" fill-rule="evenodd"/>
      </g>
      <g id="Grupo_112810" data-name="Grupo 112810">
        <path id="Trazado_158758" data-name="Trazado 158758" d="M5.939,36.462H12.9v2.529H5.939Z" fill="#ffc269" fill-rule="evenodd"/>
      </g>
      <g id="Grupo_112811" data-name="Grupo 112811">
        <path id="Trazado_158759" data-name="Trazado 158759" d="M23.52,36.462h6.96v2.529H23.52Z" fill="#ffc269" fill-rule="evenodd"/>
      </g>
      <g id="Grupo_112812" data-name="Grupo 112812">
        <path id="Trazado_158760" data-name="Trazado 158760" d="M41.1,36.462h6.96v2.529H41.1Z" fill="#ffc269" fill-rule="evenodd"/>
      </g>
      <g id="Grupo_112813" data-name="Grupo 112813">
        <path id="Trazado_158761" data-name="Trazado 158761" d="M3.726,33.012H15.114v1.851H3.726Z" fill="#dad8db" fill-rule="evenodd"/>
      </g>
      <g id="Grupo_112814" data-name="Grupo 112814">
        <path id="Trazado_158762" data-name="Trazado 158762" d="M21.3,33.012h11.39v1.851H21.3Z" fill="#dad8db" fill-rule="evenodd"/>
      </g>
      <g id="Grupo_112815" data-name="Grupo 112815">
        <path id="Trazado_158763" data-name="Trazado 158763" d="M38.886,33.012h11.39v1.851H38.886Z" fill="#dad8db" fill-rule="evenodd"/>
      </g>
      <g id="Grupo_112817" data-name="Grupo 112817">
        <path id="Trazado_158764" data-name="Trazado 158764" d="M49.8,37.253a1.263,1.263,0,0,0,1.263-1.26V33.8h1.657A1.277,1.277,0,0,0,54,32.528V29.634a1.277,1.277,0,0,0-1.275-1.275H50.446V19.664a2.823,2.823,0,0,0,.682.085,2.892,2.892,0,0,0,.751-.1,2.866,2.866,0,0,0,.688-5.248L28.537.528a3.214,3.214,0,0,0-3.071,0L1.432,14.4a2.866,2.866,0,0,0,2.126,5.262v8.694H1.278A1.277,1.277,0,0,0,0,29.634v2.894A1.277,1.277,0,0,0,1.278,33.8H2.935v2.19a1.262,1.262,0,0,0,1.26,1.26h.952v7.716H4.2a1.263,1.263,0,0,0-1.26,1.263v2.187H1.278A1.277,1.277,0,0,0,0,49.694v2.894a1.277,1.277,0,0,0,1.275,1.275H25.35a.791.791,0,1,0,0-1.582H1.585V50H52.418v2.281H29a.791.791,0,1,0,0,1.582H52.725A1.277,1.277,0,0,0,54,52.588V49.694a1.277,1.277,0,0,0-1.275-1.275H51.067V46.232A1.265,1.265,0,0,0,49.8,44.969h-.952V37.253H49.8ZM3.507,17.995a1.288,1.288,0,0,1-1.754-.47h0a1.285,1.285,0,0,1,.47-1.753L26.259,1.9A1.52,1.52,0,0,1,27,1.719a1.5,1.5,0,0,1,.744.178L51.777,15.772A1.283,1.283,0,0,1,50.5,18L27.4,4.658a.791.791,0,0,0-.791,0ZM1.585,29.941H25.35a.791.791,0,0,0,0-1.582H5.139V18.879L27,6.257,48.864,18.879v9.479h-20a.791.791,0,0,0,0,1.582h23.55v2.281H1.585ZM22.1,35.671V33.8H31.9v1.868Zm7.593,1.582v7.716H24.311V37.253ZM4.517,35.671V33.8h9.805v1.868Zm7.593,1.582v7.716H6.73V37.253Zm2.212,11.166H4.517V46.551h9.805Zm6.191-2.187v2.187H15.9V46.232a1.263,1.263,0,0,0-1.26-1.263h-.952V37.253h.952a1.262,1.262,0,0,0,1.26-1.26V33.8h4.609v2.19a1.263,1.263,0,0,0,1.263,1.26h.952v7.716h-.952A1.265,1.265,0,0,0,20.514,46.232ZM31.9,48.419H22.1V46.551H31.9ZM38.1,46.232v2.187H33.486V46.232a1.265,1.265,0,0,0-1.263-1.263h-.952V37.253h.952a1.263,1.263,0,0,0,1.263-1.26V33.8H38.1v2.19a1.263,1.263,0,0,0,1.263,1.26h.952v7.716h-.952A1.265,1.265,0,0,0,38.1,46.232Zm11.39.319v1.868H39.677V46.551Zm-7.593-1.582V37.253H47.27v7.716Zm-2.215-9.3V33.8h9.808v1.868Z"/>
        <path id="Trazado_158765" data-name="Trazado 158765" d="M30.44,12.551a3.323,3.323,0,1,0-3.323,3.323A3.327,3.327,0,0,0,30.44,12.551Zm-5.064,0a1.741,1.741,0,1,1,1.741,1.741A1.743,1.743,0,0,1,25.375,12.551Z"/>
        <g id="Grupo_112816" data-name="Grupo 112816">
          <path id="Trazado_158766" data-name="Trazado 158766" d="M17.459,21.648a2.2,2.2,0,0,0-1.86-3.383H13.815a.791.791,0,0,0-.791.791V25.2a.791.791,0,0,0,.791.791h0s1.64-.007,2.093-.007a2.443,2.443,0,0,0,1.548-4.335Zm-1.86-1.8a.622.622,0,1,1,0,1.245l-.993,0V19.847H15.6Zm.312,4.554-1.3,0V22.677h1.3a.862.862,0,0,1,0,1.725Z"/>
          <path id="Trazado_158767" data-name="Trazado 158767" d="M23.844,18.863l-.008-.021a.927.927,0,0,0-.86-.577h0a.927.927,0,0,0-.861.578l-.007.018L19.8,24.917a.791.791,0,0,0,1.478.563l.38-1h2.614l.376,1a.791.791,0,1,0,1.48-.559ZM22.262,22.9l.711-1.866.7,1.866Z"/>
          <path id="Trazado_158768" data-name="Trazado 158768" d="M32.865,18.265h-.008a.791.791,0,0,0-.783.8l.036,3.668-2.841-4.114a.791.791,0,0,0-1.442.45V25.2a.791.791,0,1,0,1.582,0V21.605l2.7,3.916a.871.871,0,0,0,.985.362.9.9,0,0,0,.616-.9l-.057-5.936A.791.791,0,0,0,32.865,18.265Z"/>
          <path id="Trazado_158769" data-name="Trazado 158769" d="M40.918,24.63l-2.763-2.666,2.528-2.324a.791.791,0,0,0-1.071-1.165l-2.019,1.856V18.979a.791.791,0,0,0-1.582,0V25.2a.791.791,0,0,0,1.582,0V23.62l2.226,2.148a.791.791,0,1,0,1.1-1.139Z"/>
        </g>
      </g>
    </g>
  </g>
</svg>
