<svg xmlns="http://www.w3.org/2000/svg" xmlns:xlink="http://www.w3.org/1999/xlink" width="54" height="54" viewBox="0 0 54 54">
  <defs>
    <clipPath id="clip-path">
      <rect id="Rectángulo_36636" data-name="Rectángulo 36636" width="54" height="54" transform="translate(2099 -7743)" fill="#fff"/>
    </clipPath>
  </defs>
  <g id="Enmascarar_grupo_231" data-name="Enmascarar grupo 231" transform="translate(-2099 7743)" clip-path="url(#clip-path)">
    <g id="socios" transform="translate(2098.129 -7743.871)">
      <path id="Trazado_158693" data-name="Trazado 158693" d="M13.065,45.29v1.742H2.613a.874.874,0,0,1-.871-.871V44.419a.874.874,0,0,1,.871-.871h8.71A1.747,1.747,0,0,1,13.065,45.29Z" fill="#cf9e76"/>
      <path id="Trazado_158694" data-name="Trazado 158694" d="M54,44.419v1.742a.874.874,0,0,1-.871.871H42.677V45.29a1.747,1.747,0,0,1,1.742-1.742h8.71A.874.874,0,0,1,54,44.419Z" fill="#cf9e76"/>
      <path id="Trazado_158695" data-name="Trazado 158695" d="M47.032,47.032h3.484V54H47.032Z" fill="#b27946"/>
      <path id="Trazado_158696" data-name="Trazado 158696" d="M5.226,47.032H8.71V54H5.226Z" fill="#b27946"/>
      <path id="Trazado_158697" data-name="Trazado 158697" d="M26.129,43.548h3.484V54H26.129Z" fill="#b27946"/>
      <path id="Trazado_158698" data-name="Trazado 158698" d="M14.806,39.194H43.548a5.225,5.225,0,0,0-5.165,4.451l-.636-.1H17.985l-.627.1a5.225,5.225,0,0,0-5.165-4.451Z" fill="#cf9e76"/>
      <path id="Trazado_158699" data-name="Trazado 158699" d="M10.939,39.194H1.82a4.764,4.764,0,0,1-.078-.871V33.184a5.315,5.315,0,0,1,10.5-1.15l.671,3a.867.867,0,0,0,.845.679h3.658a1.755,1.755,0,0,1,1.742,1.742,1.747,1.747,0,0,1-1.742,1.742h-6.48Z" fill="#fcd770"/>
      <path id="Trazado_158700" data-name="Trazado 158700" d="M44.8,39.194h-6.48a1.747,1.747,0,0,1-1.742-1.742,1.755,1.755,0,0,1,1.742-1.742h3.658a.867.867,0,0,0,.845-.679l.671-3A5.316,5.316,0,0,1,54,33.184v5.139a4.764,4.764,0,0,1-.078.871Z" fill="#fcd770"/>
      <g id="Grupo_112765" data-name="Grupo 112765">
        <path id="Trazado_158701" data-name="Trazado 158701" d="M12.194,39.194a5.225,5.225,0,0,1,5.165,4.451,4.578,4.578,0,0,1,.061.775v7.4a2.177,2.177,0,0,1-4.355,0V45.29a1.747,1.747,0,0,0-1.742-1.742H6.968A5.217,5.217,0,0,1,1.82,39.194H12.194Z" fill="#838f9b"/>
        <path id="Trazado_158702" data-name="Trazado 158702" d="M42.677,47.032v4.79a2.177,2.177,0,1,1-4.355,0v-7.4a4.578,4.578,0,0,1,.061-.775,5.225,5.225,0,0,1,5.165-4.451H53.922a5.217,5.217,0,0,1-5.147,4.355H44.419a1.747,1.747,0,0,0-1.742,1.742Z" fill="#838f9b"/>
        <path id="Trazado_158703" data-name="Trazado 158703" d="M27.871,32.226H33.1v6.968H27.871Z" fill="#838f9b"/>
        <path id="Trazado_158704" data-name="Trazado 158704" d="M22.645,32.226h5.226v6.968H22.645Z" fill="#838f9b"/>
      </g>
      <path id="Trazado_158705" data-name="Trazado 158705" d="M19.161,1.742V13.3l-6.28-5.7a2.413,2.413,0,0,0-1.611-.627H11.1a2.395,2.395,0,0,0-1.576,4.2l5.156,4.512H1.742V1.742Z" fill="#e6e9ed"/>
      <path id="Trazado_158706" data-name="Trazado 158706" d="M54,1.742V15.677H41.057l5.156-4.512a2.388,2.388,0,0,0,.819-1.8,2.379,2.379,0,0,0-2.4-2.4h-.165a2.413,2.413,0,0,0-1.611.627l-2.8,2.543v-8.4Z" fill="#e6e9ed"/>
      <path id="Trazado_158707" data-name="Trazado 158707" d="M14.685,15.677,9.528,11.166a2.395,2.395,0,0,1,1.576-4.2h.165a2.413,2.413,0,0,1,1.611.627l6.28,5.7,1.028.941a7.068,7.068,0,0,0,3.7,1.742l2.535.357a3.262,3.262,0,0,0,.392.1l-.009.1-.679,7.839,1.742,1.742,1.742-1.742-.679-7.865H28.4a5.315,5.315,0,0,0,.915-.183l2.535-.357a7.068,7.068,0,0,0,3.7-1.742l4.512-4.1,2.8-2.543a2.413,2.413,0,0,1,1.611-.627h.165a2.379,2.379,0,0,1,2.4,2.4,2.388,2.388,0,0,1-.819,1.8l-5.156,4.512L34.29,21.6A3.491,3.491,0,0,0,33.1,24.23v8H22.645v-8a3.491,3.491,0,0,0-1.193-2.63Z" fill="#ff826e"/>
      <path id="Trazado_158708" data-name="Trazado 158708" d="M27.871,16.548a5.294,5.294,0,0,0,.531-.026h.531l.679,7.865-1.742,1.742-1.742-1.742.679-7.839.009-.1A5.211,5.211,0,0,0,27.871,16.548Z" fill="#e6e9ed"/>
      <circle id="Elipse_4950" data-name="Elipse 4950" cx="4.355" cy="4.355" r="4.355" transform="translate(3.484 19.161)" fill="#f0d0b4"/>
      <path id="Trazado_158709" data-name="Trazado 158709" d="M27.871,6.1a5.223,5.223,0,0,1,1.446,10.243l-1.446.209-1.446-.209A5.223,5.223,0,0,1,27.871,6.1Z" fill="#f0d0b4"/>
      <circle id="Elipse_4951" data-name="Elipse 4951" cx="4.355" cy="4.355" r="4.355" transform="translate(43.548 19.161)" fill="#f0d0b4"/>
      <path id="Trazado_158710" data-name="Trazado 158710" d="M34.86,22.26l6.528-5.712H54.871V.871H39.194V9.75l-4.228,3.844a6.078,6.078,0,0,1-2.121,1.241,6.1,6.1,0,1,0-9.949,0,6.083,6.083,0,0,1-2.12-1.241l-.744-.677V.871H.871V16.548H14.354l6.528,5.712a2.611,2.611,0,0,1,.892,1.966v14.1h-1.9a2.584,2.584,0,0,0,.16-.871,2.616,2.616,0,0,0-2.613-2.613H13.764L13.1,31.844a6.143,6.143,0,0,0-2.641-3.814,5.222,5.222,0,1,0-5.937-.48A6.192,6.192,0,0,0,.871,33.187v5.135A6.074,6.074,0,0,0,2.71,42.677h-.1A1.744,1.744,0,0,0,.871,44.419v1.742A1.744,1.744,0,0,0,2.613,47.9H4.355v5.226H2.613v1.742H53.129V53.129H51.387V47.9h1.742a1.744,1.744,0,0,0,1.742-1.742V44.419a1.744,1.744,0,0,0-1.742-1.742h-.1a6.074,6.074,0,0,0,1.839-4.355V33.187a6.193,6.193,0,0,0-3.649-5.637,5.229,5.229,0,1,0-5.937.481,6.146,6.146,0,0,0-2.641,3.814l-.665,2.994H38.323a2.616,2.616,0,0,0-2.613,2.613,2.584,2.584,0,0,0,.16.871h-1.9v-14.1a2.611,2.611,0,0,1,.892-1.966ZM40.935,2.613H53.129V14.806h-9.75l3.41-2.984A3.268,3.268,0,0,0,44.635,6.1h-.161a3.259,3.259,0,0,0-2.2.85L40.935,8.166ZM28.711,24.058l-.84.84-.84-.84.575-6.652c.088,0,.175.013.265.013s.176-.01.264-.013Zm-.84-17.09A4.344,4.344,0,0,1,29.019,15.5l-1.148.165L26.723,15.5a4.344,4.344,0,0,1,1.148-8.537ZM2.613,14.806V2.613H18.29v8.72L13.465,6.946a3.264,3.264,0,0,0-2.2-.849h-.162a3.268,3.268,0,0,0-2.151,5.727l3.409,2.983ZM10.1,10.513a1.525,1.525,0,0,1,1-2.674h.162a1.522,1.522,0,0,1,1.026.4l7.313,6.647a7.819,7.819,0,0,0,4.163,1.96l2.112.3-.654,7.572,2.643,2.644,2.644-2.644-.655-7.572,2.113-.3a7.825,7.825,0,0,0,4.164-1.96l7.312-6.647a1.52,1.52,0,0,1,1.025-.4h.161a1.525,1.525,0,0,1,1.005,2.673L33.713,20.949a4.355,4.355,0,0,0-1.488,3.277v7.129h-8.71V24.226a4.358,4.358,0,0,0-1.488-3.278ZM23.516,33.1H27v5.226H23.516ZM18.29,51.823v-7.4h6.968v8.71H17.985A3.017,3.017,0,0,0,18.29,51.823Zm8.71-7.4h1.742v8.71H27Zm3.484,0h6.968v7.4a3.017,3.017,0,0,0,.306,1.306H30.484Zm7.226-1.742H18.033a6.1,6.1,0,0,0-1.576-2.613H39.285A6.1,6.1,0,0,0,37.709,42.677ZM7.839,20.032a3.484,3.484,0,1,1-3.484,3.484A3.487,3.487,0,0,1,7.839,20.032ZM2.613,33.187a4.445,4.445,0,0,1,8.785-.965l.665,2.994a1.732,1.732,0,0,0,1.7,1.364h3.656a.871.871,0,1,1,0,1.742H10.941a.872.872,0,0,1-.846-.659L8.684,32.015l-1.69.422,1.412,5.649c.021.083.053.159.081.237H2.613Zm.369,6.877h9.211a4.36,4.36,0,0,1,4.355,4.355v7.4a1.306,1.306,0,0,1-2.613,0V45.29a2.616,2.616,0,0,0-2.613-2.613H6.968a4.357,4.357,0,0,1-3.986-2.613ZM12.194,47.9v3.919a3.017,3.017,0,0,0,.306,1.306H9.581V47.9ZM2.613,44.419h8.71a.871.871,0,0,1,.871.871v.871H2.613ZM6.1,47.9H7.839v5.226H6.1Zm37.452,0h2.613v5.226H43.243a3.017,3.017,0,0,0,.306-1.306Zm6.1,5.226H47.9V47.9h1.742Zm3.484-8.71v1.742H43.548V45.29a.871.871,0,0,1,.871-.871h8.71Zm-8.71-1.742a2.616,2.616,0,0,0-2.613,2.613v6.532a1.306,1.306,0,0,1-2.613,0v-7.4a4.36,4.36,0,0,1,4.355-4.355H52.76a4.357,4.357,0,0,1-3.986,2.613ZM47.9,20.032a3.484,3.484,0,1,1-3.484,3.484A3.487,3.487,0,0,1,47.9,20.032ZM37.452,37.452a.871.871,0,0,1,.871-.871h3.656a1.733,1.733,0,0,0,1.7-1.364l.665-2.994a4.445,4.445,0,0,1,8.785.965v5.135H47.255c.028-.078.06-.155.081-.237l1.412-5.648-1.689-.422-1.412,5.647a.873.873,0,0,1-.847.659H38.323A.871.871,0,0,1,37.452,37.452Zm-8.71.871V33.1h3.484v5.226Z"/>
      <path id="Trazado_158711" data-name="Trazado 158711" d="M47.9,11.323h3.484v1.742H47.9Z"/>
      <path id="Trazado_158712" data-name="Trazado 158712" d="M49.645,7.839h1.742V9.581H49.645Z"/>
      <path id="Trazado_158713" data-name="Trazado 158713" d="M49.645,4.355h1.742V6.1H49.645Z"/>
    </g>
  </g>
</svg>
