<svg xmlns="http://www.w3.org/2000/svg" xmlns:xlink="http://www.w3.org/1999/xlink" width="54" height="54" viewBox="0 0 54 54">
  <defs>
    <clipPath id="clip-path">
      <rect id="Rectángulo_36644" data-name="Rectángulo 36644" width="54" height="54" transform="translate(2099 -7141)" fill="#fff"/>
    </clipPath>
  </defs>
  <g id="Enmascarar_grupo_235" data-name="Enmascarar grupo 235" transform="translate(-2099 7141)" clip-path="url(#clip-path)">
    <g id="contacto" transform="translate(2098.129 -7141.871)">
      <g id="Grupo_112838" data-name="Grupo 112838">
        <g id="Grupo_112826" data-name="Grupo 112826">
          <path id="Trazado_158818" data-name="Trazado 158818" d="M20.9,1.742l.714,2.134a14.426,14.426,0,0,1,4.512,1.873l2.012-1.01,3.7,3.7-1.01,2.012A14.425,14.425,0,0,1,32.7,14.963l2.134.714V20.9l-2.134.714a14.425,14.425,0,0,1-1.873,4.512l1.01,2.012-3.7,3.7-2.012-1.01A14.425,14.425,0,0,1,21.617,32.7L20.9,34.839H15.677L14.963,32.7a14.426,14.426,0,0,1-4.512-1.873L8.71,31.7V54H50.516V1.742Z" fill="#e6e9ed"/>
        </g>
        <g id="Grupo_112827" data-name="Grupo 112827">
          <path id="Trazado_158819" data-name="Trazado 158819" d="M34.839,36.581h8.71V50.516h-8.71Z" fill="#ff826e"/>
        </g>
        <g id="Grupo_112828" data-name="Grupo 112828">
          <path id="Trazado_158820" data-name="Trazado 158820" d="M54,10.452v3.484H47.032V10.452a3.484,3.484,0,0,1,6.968,0Z" fill="#ccd1d9"/>
        </g>
        <g id="Grupo_112829" data-name="Grupo 112829">
          <path id="Trazado_158821" data-name="Trazado 158821" d="M51.692,47.955a1.254,1.254,0,0,1-2.352,0l-2.308-6.149H54Z" fill="#ccd1d9"/>
        </g>
        <g id="Grupo_112830" data-name="Grupo 112830">
          <path id="Trazado_158822" data-name="Trazado 158822" d="M54,13.935v3.484H47.032V13.935Z" fill="#ffeaa7"/>
        </g>
        <g id="Grupo_112831" data-name="Grupo 112831">
          <path id="Trazado_158823" data-name="Trazado 158823" d="M50.516,17.419H54V41.806H50.516Z" fill="#69d6f4"/>
        </g>
        <g id="Grupo_112832" data-name="Grupo 112832">
          <path id="Trazado_158824" data-name="Trazado 158824" d="M50.516,17.419V41.806H47.032V17.419Z" fill="#b4dd7f"/>
        </g>
        <g id="Grupo_112833" data-name="Grupo 112833">
          <path id="Trazado_158825" data-name="Trazado 158825" d="M25.258,27.209a11.283,11.283,0,1,0-8.71,2.273,11.469,11.469,0,0,0,1.742.131A11.234,11.234,0,0,0,25.258,27.209Zm9.581-8.048V20.9l-2.134.714a14.425,14.425,0,0,1-1.873,4.512l1.01,2.012-3.7,3.7-2.012-1.01A14.425,14.425,0,0,1,21.617,32.7L20.9,34.839H15.677L14.963,32.7a14.425,14.425,0,0,1-4.512-1.873L8.71,31.7l-.27.139-3.7-3.7,1.01-2.012a14.425,14.425,0,0,1-1.873-4.512L1.742,20.9V15.677l2.134-.714a14.426,14.426,0,0,1,1.873-4.512L4.738,8.44l3.7-3.7,2.012,1.01a14.426,14.426,0,0,1,4.512-1.873l.714-2.134H20.9l.714,2.134a14.425,14.425,0,0,1,4.512,1.873l2.012-1.01,3.7,3.7-1.01,2.012A14.425,14.425,0,0,1,32.7,14.963l2.134.714Z" fill="#fcd770"/>
        </g>
        <g id="Grupo_112834" data-name="Grupo 112834">
          <path id="Trazado_158826" data-name="Trazado 158826" d="M25.258,24.387v2.822a11.234,11.234,0,0,1-6.968,2.4,11.469,11.469,0,0,1-1.742-.131v-5.1l1.742-2.238,3.109-4a6.954,6.954,0,0,1,3.858,6.236Z" fill="#ff826e"/>
        </g>
        <g id="Grupo_112835" data-name="Grupo 112835">
          <path id="Trazado_158827" data-name="Trazado 158827" d="M15.181,18.151l3.109,4-1.742,2.238v5.1a11.287,11.287,0,0,1-5.226-2.273V24.387a6.98,6.98,0,0,1,2.038-4.93,7.167,7.167,0,0,1,1.82-1.306Z" fill="#ff826e"/>
        </g>
        <g id="Grupo_112836" data-name="Grupo 112836">
          <path id="Trazado_158828" data-name="Trazado 158828" d="M21.4,18.151l-3.109,4-3.109-4a6.973,6.973,0,0,1,6.219,0Z" fill="#f0d0b4"/>
        </g>
        <g id="Grupo_112837" data-name="Grupo 112837">
          <circle id="Elipse_4954" data-name="Elipse 4954" cx="3.484" cy="3.484" r="3.484" transform="translate(14.806 10.452)" fill="#f0d0b4"/>
        </g>
      </g>
      <g id="Grupo_112839" data-name="Grupo 112839">
        <path id="Trazado_158829" data-name="Trazado 158829" d="M18.29,30.484A12.194,12.194,0,1,0,6.1,18.29,12.207,12.207,0,0,0,18.29,30.484ZM15.677,13.935a2.613,2.613,0,1,1,2.613,2.613A2.616,2.616,0,0,1,15.677,13.935Zm4.317,4.6-1.7,2.191-1.7-2.191a6,6,0,0,1,3.409,0Zm-5.033.748,2.225,2.862-1.509,1.941V28.4a10.411,10.411,0,0,1-3.484-1.636V24.387A6.092,6.092,0,0,1,14.961,19.286ZM17.419,28.7V24.686l4.2-5.4a6.092,6.092,0,0,1,2.768,5.1v2.375a10.383,10.383,0,0,1-6.1,1.98C18,28.742,17.708,28.722,17.419,28.7ZM18.29,7.839a10.435,10.435,0,0,1,7.839,17.342v-.793a7.848,7.848,0,0,0-4.9-7.261,4.355,4.355,0,1,0-5.883,0,7.848,7.848,0,0,0-4.9,7.261v.793A10.435,10.435,0,0,1,18.29,7.839Z"/>
        <path id="Trazado_158830" data-name="Trazado 158830" d="M51.387,6.185V.871H15.049l-.757,2.27a15.548,15.548,0,0,0-3.885,1.612L8.265,3.682,3.682,8.265l1.071,2.143a15.549,15.549,0,0,0-1.612,3.885l-2.27.757V21.53l2.27.757a15.549,15.549,0,0,0,1.612,3.885L3.682,28.315l4.157,4.158v22.4H51.387V49.453a2.129,2.129,0,0,0,1.122-1.188l2.362-6.3V10.452a4.363,4.363,0,0,0-3.484-4.267Zm1.742,4.267v2.613H47.9V10.452a2.613,2.613,0,0,1,5.226,0ZM51.387,40.935V18.29h1.742V40.935ZM47.9,18.29h1.742V40.935H47.9Zm0-1.742V14.806h5.226v1.742ZM6.485,25.67a13.8,13.8,0,0,1-1.765-4.251l-.109-.476-2-.667V16.3l2-.666.109-.476a13.823,13.823,0,0,1,1.765-4.251l.26-.415L5.8,8.609,8.609,5.8l1.888.943.415-.26a13.8,13.8,0,0,1,4.251-1.765l.476-.109.666-2h3.97l.666,2,.476.109a13.823,13.823,0,0,1,4.251,1.765l.415.26L27.972,5.8l2.807,2.807L29.836,10.5l.26.415a13.8,13.8,0,0,1,1.765,4.251l.109.476,2,.667v3.971l-2,.666-.109.476A13.823,13.823,0,0,1,30.1,25.67l-.26.415.943,1.888L27.973,30.78l-1.888-.943-.415.26a13.8,13.8,0,0,1-4.251,1.765l-.476.109-.667,2H16.3l-.666-2-.476-.109A13.823,13.823,0,0,1,10.911,30.1l-.415-.26-1.888.943L5.8,27.973l.943-1.888Zm3.1,27.459V32.241l.828-.414a15.549,15.549,0,0,0,3.885,1.612l.756,2.27H21.53l.757-2.27a15.519,15.519,0,0,0,3.885-1.613L28.316,32.9,32.9,28.316l-1.071-2.143a15.548,15.548,0,0,0,1.612-3.885l2.271-.757V15.05l-2.27-.757a15.549,15.549,0,0,0-1.612-3.885L32.9,8.265,28.317,3.682,26.173,4.755a15.551,15.551,0,0,0-3.885-1.613l-.177-.529H49.645V6.185a4.363,4.363,0,0,0-3.484,4.267V41.964l2.362,6.3a2.134,2.134,0,0,0,1.122,1.189v3.676Zm41.3-5.476a.4.4,0,0,1-.722,0l-1.866-4.976h4.454Z"/>
        <path id="Trazado_158831" data-name="Trazado 158831" d="M27.432,49.071c-.38.434-.53.574-.87.574s-.49-.14-.87-.574a2.618,2.618,0,0,0-4.36,0c-.378.433-.53.573-.867.573s-.489-.14-.867-.573A2.766,2.766,0,0,0,17.419,47.9V46.6a3.048,3.048,0,1,0-6.1,0v3.048h1.742V46.6a1.306,1.306,0,1,1,2.613,0v3.048h1.742c.337,0,.489.14.867.573a2.615,2.615,0,0,0,4.357,0c.379-.433.53-.573.867-.573s.49.14.87.574a2.62,2.62,0,0,0,4.362,0c.38-.434.53-.574.87-.574h.871V47.9h-.871A2.771,2.771,0,0,0,27.432,49.071Z"/>
        <path id="Trazado_158832" data-name="Trazado 158832" d="M33.968,4.355H44.419V6.1H33.968Z"/>
        <path id="Trazado_158833" data-name="Trazado 158833" d="M35.71,7.839h8.71V9.581H35.71Z"/>
        <path id="Trazado_158834" data-name="Trazado 158834" d="M35.71,11.323h8.71v1.742H35.71Z"/>
        <path id="Trazado_158835" data-name="Trazado 158835" d="M37.452,14.806h6.968v1.742H37.452Z"/>
        <path id="Trazado_158836" data-name="Trazado 158836" d="M37.452,18.29h6.968v1.742H37.452Z"/>
        <path id="Trazado_158837" data-name="Trazado 158837" d="M37.452,21.774h6.968v1.742H37.452Z"/>
        <path id="Trazado_158838" data-name="Trazado 158838" d="M37.452,25.258h6.968V27H37.452Z"/>
        <path id="Trazado_158839" data-name="Trazado 158839" d="M33.968,28.742H44.419v1.742H33.968Z"/>
        <path id="Trazado_158840" data-name="Trazado 158840" d="M33.968,32.226H44.419v1.742H33.968Z"/>
        <path id="Trazado_158841" data-name="Trazado 158841" d="M33.968,51.387H44.419V35.71H33.968ZM35.71,37.452h6.968V49.645H35.71Z"/>
      </g>
    </g>
  </g>
</svg>
