<svg xmlns="http://www.w3.org/2000/svg" xmlns:xlink="http://www.w3.org/1999/xlink" width="54" height="54" viewBox="0 0 54 54">
  <defs>
    <clipPath id="clip-path">
      <rect id="Rectángulo_36638" data-name="Rectángulo 36638" width="54" height="54" transform="translate(2099 -7610)" fill="#fff"/>
    </clipPath>
  </defs>
  <g id="Enmascarar_grupo_232" data-name="Enmascarar grupo 232" transform="translate(-2099 7610)" clip-path="url(#clip-path)">
    <g id="proveedor" transform="translate(2098.198 -7610.735)">
      <g id="Grupo_112790" data-name="Grupo 112790">
        <g id="Grupo_112766" data-name="Grupo 112766">
          <path id="Trazado_158714" data-name="Trazado 158714" d="M46.916,20.851a1.743,1.743,0,0,1-1.738-1.738,1.743,1.743,0,0,1-1.738,1.738H38.228a1.743,1.743,0,0,1-1.738-1.738,1.743,1.743,0,0,1-1.738,1.738H29.54A1.743,1.743,0,0,1,27.8,19.114v-.156a2.408,2.408,0,0,1-.869.156h-.869a5.214,5.214,0,0,1-3.345,4.865l.738,2.954.017.009a18.687,18.687,0,0,1,2.181.808l3.884,2.659V53.866H51.26A.871.871,0,0,0,52.129,53V20.851Z" fill="#e6e9ed"/>
        </g>
        <g id="Grupo_112767" data-name="Grupo 112767">
          <path id="Trazado_158715" data-name="Trazado 158715" d="M42.572,6.95l2.606,10.426H36.49L33.884,6.95Z" fill="#ffeaa7"/>
        </g>
        <g id="Grupo_112768" data-name="Grupo 112768">
          <path id="Trazado_158716" data-name="Trazado 158716" d="M50.791,8.141l3.076,9.235H45.178L42.572,6.95H49.14a1.746,1.746,0,0,1,1.651,1.19Z" fill="#ff826e"/>
        </g>
        <g id="Grupo_112769" data-name="Grupo 112769">
          <path id="Trazado_158717" data-name="Trazado 158717" d="M36.49,17.376H29.383a2.408,2.408,0,0,0,.156-.869,2.613,2.613,0,0,0-.712-1.79l.261-1.573a33,33,0,0,0,.452-5.474,6.4,6.4,0,0,0-.043-.712l.043-.009h4.344Z" fill="#ff826e"/>
        </g>
        <g id="Grupo_112770" data-name="Grupo 112770">
          <path id="Trazado_158718" data-name="Trazado 158718" d="M45.178,19.114a1.743,1.743,0,0,1-1.738,1.738H38.228a1.743,1.743,0,0,1-1.738-1.738V17.376h8.688Z" fill="#fcd770"/>
        </g>
        <g id="Grupo_112771" data-name="Grupo 112771">
          <path id="Trazado_158719" data-name="Trazado 158719" d="M53.866,17.376v1.738a1.743,1.743,0,0,1-1.738,1.738H46.916a1.743,1.743,0,0,1-1.738-1.738V17.376Z" fill="#fc6e51"/>
        </g>
        <g id="Grupo_112772" data-name="Grupo 112772">
          <path id="Trazado_158720" data-name="Trazado 158720" d="M36.49,17.376v1.738a1.743,1.743,0,0,1-1.738,1.738H29.54A1.743,1.743,0,0,1,27.8,19.114v-.156a2.552,2.552,0,0,0,1.581-1.581H36.49Z" fill="#fc6e51"/>
        </g>
        <g id="Grupo_112773" data-name="Grupo 112773">
          <path id="Trazado_158721" data-name="Trazado 158721" d="M29.088,13.145l-.261,1.573a2.6,2.6,0,0,0-1.894-.817h-.869V12.163a1.743,1.743,0,0,0-1.738-1.738H21.72a4.352,4.352,0,0,1-3.475-1.738H15.639a3.474,3.474,0,0,0-3.475,3.475V13.9h-.869a2.6,2.6,0,0,0-1.894.817l-.626-3.771A6.059,6.059,0,0,1,8.688,9.9a6.422,6.422,0,0,1,6.421-6.421h1.738a10.376,10.376,0,0,0,5.743-1.738,4.71,4.71,0,0,1,2.354,2.711l.252.765.643-.321A7.694,7.694,0,0,0,27.8,3.475,5.935,5.935,0,0,1,29.5,6.959a6.4,6.4,0,0,1,.043.712A33,33,0,0,1,29.088,13.145Z" fill="#656d78"/>
        </g>
        <g id="Grupo_112774" data-name="Grupo 112774">
          <path id="Trazado_158722" data-name="Trazado 158722" d="M19.983,33.015l1.738,5.213H16.507l1.738-5.213Z" fill="#ffeaa7"/>
        </g>
        <g id="Grupo_112775" data-name="Grupo 112775">
          <path id="Trazado_158723" data-name="Trazado 158723" d="M21.286,30.408l-1.3,2.606H18.245l-1.3-2.606,2.172-1.738Z" fill="#fcd770"/>
        </g>
        <g id="Grupo_112776" data-name="Grupo 112776">
          <path id="Trazado_158724" data-name="Trazado 158724" d="M36.047,38.9l-.417-1a18.706,18.706,0,0,0-1.677-3.136,18.9,18.9,0,0,0-8.3-7.011l-2.2,4.4-2.172-1.738-1.3,2.606,1.738,5.213H16.507l1.738-5.213-1.3-2.606L14.77,32.146l-2.2-4.4A19.06,19.06,0,0,0,2.6,37.9l-.417,1a5.8,5.8,0,0,0,5.352,8.019H8.688v6.95H29.54v-6.95H30.7a5.859,5.859,0,0,0,2.32-.478A5.8,5.8,0,0,0,36.047,38.9Z" fill="#4fc1e9"/>
        </g>
        <g id="Grupo_112777" data-name="Grupo 112777">
          <path id="Trazado_158725" data-name="Trazado 158725" d="M25.656,27.75l-2.2,4.4-2.172-1.738-2.172-1.738,4.344-1.738.017.009A18.687,18.687,0,0,1,25.656,27.75Z" fill="#3bafda"/>
        </g>
        <g id="Grupo_112778" data-name="Grupo 112778">
          <path id="Trazado_158726" data-name="Trazado 158726" d="M19.114,28.671l-2.172,1.738L14.77,32.146l-2.2-4.4a18.687,18.687,0,0,1,2.181-.808l.017-.009Z" fill="#3bafda"/>
        </g>
        <g id="Grupo_112779" data-name="Grupo 112779">
          <path id="Trazado_158727" data-name="Trazado 158727" d="M24.327,46.916v2.606a.871.871,0,0,1-.869.869H14.77a.871.871,0,0,1-.869-.869V46.916h.869a2.606,2.606,0,0,0,0-5.213H13.9V39.1a.871.871,0,0,1,.869-.869h8.688a.871.871,0,0,1,.869.869V41.7h-.869a2.606,2.606,0,0,0,0,5.213Z" fill="#e6e9ed"/>
        </g>
        <g id="Grupo_112780" data-name="Grupo 112780">
          <path id="Trazado_158728" data-name="Trazado 158728" d="M26.064,41.7v5.213H23.458a2.606,2.606,0,0,1,0-5.213h2.606Z" fill="#f0d0b4"/>
        </g>
        <g id="Grupo_112781" data-name="Grupo 112781">
          <path id="Trazado_158729" data-name="Trazado 158729" d="M13.9,41.7h.869a2.606,2.606,0,0,1,0,5.213H12.163V41.7Z" fill="#f0d0b4"/>
        </g>
        <g id="Grupo_112782" data-name="Grupo 112782">
          <path id="Trazado_158730" data-name="Trazado 158730" d="M26.933,13.9a2.608,2.608,0,0,1,2.606,2.606,2.408,2.408,0,0,1-.156.869A2.552,2.552,0,0,1,27.8,18.957a2.408,2.408,0,0,1-.869.156h-.869V13.9Z" fill="#f0d0b4"/>
        </g>
        <g id="Grupo_112783" data-name="Grupo 112783">
          <path id="Trazado_158731" data-name="Trazado 158731" d="M22.719,23.979l.738,2.954-4.344,1.738L14.77,26.933l.738-2.954a5.134,5.134,0,0,0,1.868.348h3.475A5.134,5.134,0,0,0,22.719,23.979Z" fill="#f0d0b4"/>
        </g>
        <g id="Grupo_112784" data-name="Grupo 112784">
          <path id="Trazado_158732" data-name="Trazado 158732" d="M26.064,13.9v5.213a5.214,5.214,0,0,1-3.345,4.865,5.134,5.134,0,0,1-1.868.348H17.376a5.134,5.134,0,0,1-1.868-.348,5.214,5.214,0,0,1-3.345-4.865v-6.95a3.474,3.474,0,0,1,3.475-3.475h2.606a4.352,4.352,0,0,0,3.475,1.738h2.606a1.743,1.743,0,0,1,1.738,1.738Z" fill="#f0d0b4"/>
        </g>
        <g id="Grupo_112785" data-name="Grupo 112785">
          <path id="Trazado_158733" data-name="Trazado 158733" d="M12.163,13.9v5.213h-.869a2.606,2.606,0,0,1,0-5.213Z" fill="#f0d0b4"/>
        </g>
        <g id="Grupo_112786" data-name="Grupo 112786">
          <path id="Trazado_158734" data-name="Trazado 158734" d="M33.962,34.752l-.009.009A18.706,18.706,0,0,1,35.63,37.9l.417,1a5.8,5.8,0,0,1-3.032,7.541v3.084a.871.871,0,0,0,.869.869h13.9a.871.871,0,0,0,.869-.869V34.752Z" fill="#d3a06c"/>
        </g>
        <g id="Grupo_112787" data-name="Grupo 112787">
          <path id="Trazado_158735" data-name="Trazado 158735" d="M47.785,24.327H39.1a.871.871,0,0,0-.869.869v9.557H48.653V25.2A.871.871,0,0,0,47.785,24.327Z" fill="#d3a06c"/>
        </g>
        <g id="Grupo_112788" data-name="Grupo 112788">
          <path id="Trazado_158736" data-name="Trazado 158736" d="M38.228,34.752H43.44v3.475H38.228Z" fill="#b27946"/>
        </g>
        <g id="Grupo_112789" data-name="Grupo 112789">
          <path id="Trazado_158737" data-name="Trazado 158737" d="M41.7,24.327h3.475V27.8H41.7Z" fill="#b27946"/>
        </g>
      </g>
      <g id="Grupo_112791" data-name="Grupo 112791">
        <circle id="Elipse_4952" data-name="Elipse 4952" cx="0.869" cy="0.869" r="0.869" transform="translate(14.77 13.032)"/>
        <circle id="Elipse_4953" data-name="Elipse 4953" cx="0.869" cy="0.869" r="0.869" transform="translate(21.72 13.032)"/>
        <path id="Trazado_158738" data-name="Trazado 158738" d="M23.458,18.245H21.72a1.739,1.739,0,0,1-1.738,1.738H16.507V21.72h3.475A3.479,3.479,0,0,0,23.458,18.245Z"/>
        <path id="Trazado_158739" data-name="Trazado 158739" d="M51.611,7.864a2.6,2.6,0,0,0-2.472-1.782H30.209a6.842,6.842,0,0,0-1.793-3.221L27.8,2.247l-.614.614A6.7,6.7,0,0,1,25.7,3.984,5.517,5.517,0,0,0,22.977.961L22.526.735l-.42.28a9.451,9.451,0,0,1-5.256,1.592H15.108A7.3,7.3,0,0,0,7.819,9.895a7.223,7.223,0,0,0,.1,1.2l.565,3.388a3.444,3.444,0,0,0-.664,2.026,3.479,3.479,0,0,0,3.475,3.475h.07a6.091,6.091,0,0,0,3.128,4.483l-.448,1.791A19.9,19.9,0,0,0,1.8,37.56l-.417,1A6.661,6.661,0,0,0,7.53,47.785h.289v6.95H51.26A1.739,1.739,0,0,0,53,53V21.56a2.6,2.6,0,0,0,1.738-2.447V17.235Zm-1.647.55,2.7,8.094H45.856L43.684,7.819h5.454A.869.869,0,0,1,49.964,8.414ZM26.933,14.77a1.738,1.738,0,0,1,0,3.475ZM30.4,7.819h2.8l2.172,8.688H30.408a3.453,3.453,0,0,0-.664-2.027l.2-1.194A34.246,34.246,0,0,0,30.4,7.819Zm6.763,8.688L35,7.819h6.9l2.172,8.688Zm-7.242,1.738h5.7v.869a.869.869,0,0,1-.869.869H29.54a.868.868,0,0,1-.795-.523A3.489,3.489,0,0,0,29.925,18.245Zm7.434,0h6.95v.869a.869.869,0,0,1-.869.869H38.228a.869.869,0,0,1-.869-.869Zm-27.8-1.738a1.739,1.739,0,0,1,1.738-1.738v3.475A1.739,1.739,0,0,1,9.557,16.507Zm1.738-4.344v.869a3.445,3.445,0,0,0-1.251.242l-.411-2.468a5.483,5.483,0,0,1-.076-.911,5.557,5.557,0,0,1,5.551-5.551h1.743a11.175,11.175,0,0,0,5.76-1.593,3.8,3.8,0,0,1,1.507,1.973l.571,1.713,1.535-.766a8.487,8.487,0,0,0,1.5-.957,5.114,5.114,0,0,1,.952,2.955A32.568,32.568,0,0,1,28.229,13l-.046.274a3.436,3.436,0,0,0-1.25-.242v-.869a2.61,2.61,0,0,0-2.606-2.606H21.72a3.479,3.479,0,0,1-3.475-3.475H16.507a5.188,5.188,0,0,0,.3,1.738H15.639A4.349,4.349,0,0,0,11.295,12.163Zm1.738,6.95v-6.95a2.61,2.61,0,0,1,2.606-2.606h2.2a5.2,5.2,0,0,0,3.883,1.738h2.606a.869.869,0,0,1,.869.869v6.95a4.349,4.349,0,0,1-4.344,4.344H17.376A4.349,4.349,0,0,1,13.032,19.114ZM42.572,25.2h1.738v1.738H42.572Zm3.475,3.475V25.2h1.738v8.688H39.1V25.2h1.738v3.475Zm-3.475,6.95v1.738H39.1V35.621ZM44.309,39.1V35.621h3.475v13.9h-13.9V46.971a6.657,6.657,0,0,0,2.963-8.409l-.417-1a20.126,20.126,0,0,0-.935-1.939h1.864V39.1h6.95Zm-9.484-.867.417,1A4.923,4.923,0,0,1,30.7,46.047H26.933V42.572h6.95V40.834H30.408V37.359H28.671v3.475H25.2V39.1a1.739,1.739,0,0,0-1.738-1.738H22.346L20.92,33.082l.662-1.323L23.754,33.5l2.307-4.613a18.164,18.164,0,0,1,8.765,9.346ZM14.77,42.572a1.738,1.738,0,1,1,0,3.475H13.032V42.572Zm0,5.213a3.475,3.475,0,0,0,0-6.95V39.1h8.688v1.738a3.475,3.475,0,0,0,0,6.95v1.738H14.77Zm2.637-18.861L15.066,30.8l-1.3-2.6q.481-.182.974-.338Zm1.707.86,1.081.864-.749,1.5h-.664l-.749-1.5Zm-.243,4.1h.486l1.158,3.475h-2.8ZM25.2,42.572v3.475H23.458a1.738,1.738,0,1,1,0-3.475ZM24.462,28.2l-1.3,2.6-2.341-1.872,2.667-1.067Q23.982,28.013,24.462,28.2Zm-7.086-3h3.475a6.05,6.05,0,0,0,1.244-.129l.335,1.341-3.317,1.328L15.8,26.408l.335-1.341a6.111,6.111,0,0,0,1.244.129ZM2.606,41.123a4.881,4.881,0,0,1,.379-1.893l.417-1a18.171,18.171,0,0,1,8.765-9.346L14.474,33.5l2.172-1.738.662,1.323-1.426,4.277H14.77A1.739,1.739,0,0,0,13.032,39.1v1.738H9.557V37.359H7.819v3.475H4.344v1.738h6.95v3.475H7.53a4.929,4.929,0,0,1-4.924-4.924Zm6.95,6.661h3.475v1.738A1.739,1.739,0,0,0,14.77,51.26h8.688A1.739,1.739,0,0,0,25.2,49.522V47.785h3.475V53H9.557ZM30.408,53V47.785H30.7a6.631,6.631,0,0,0,1.448-.163v1.9a1.739,1.739,0,0,0,1.738,1.738h13.9a1.739,1.739,0,0,0,1.738-1.738V25.2a1.739,1.739,0,0,0-1.738-1.738H39.1A1.739,1.739,0,0,0,37.359,25.2v8.688H34.42A19.926,19.926,0,0,0,24.185,26.26l-.449-1.794a6.094,6.094,0,0,0,3.128-4.483h.07c.053,0,.1-.013.156-.016A2.6,2.6,0,0,0,29.54,21.72h5.213a2.59,2.59,0,0,0,1.738-.678,2.585,2.585,0,0,0,1.738.678H43.44a2.59,2.59,0,0,0,1.738-.678,2.585,2.585,0,0,0,1.738.678H51.26V53Zm21.72-33.015H46.916a.869.869,0,0,1-.869-.869v-.869H53v.869A.869.869,0,0,1,52.129,19.983Z"/>
      </g>
    </g>
  </g>
</svg>
