<svg xmlns="http://www.w3.org/2000/svg" xmlns:xlink="http://www.w3.org/1999/xlink" width="54" height="54" viewBox="0 0 54 54">
  <defs>
    <clipPath id="clip-path">
      <rect id="Rectángulo_36642" data-name="Rectángulo 36642" width="54" height="54" transform="translate(2099 -7274)" fill="#fff"/>
    </clipPath>
  </defs>
  <g id="Enmascarar_grupo_234" data-name="Enmascarar grupo 234" transform="translate(-2099 7274)" clip-path="url(#clip-path)">
    <g id="clasificacion" transform="translate(2099 -7274)">
      <g id="Grupo_112823" data-name="Grupo 112823">
        <path id="Trazado_158770" data-name="Trazado 158770" d="M51.3,48.482V36.391a7.81,7.81,0,0,0-7.011-7.769c-.263-.027-.529.038-.8.038a7.639,7.639,0,0,0-7.632,7.785V48.431Z" fill="#855b51"/>
        <path id="Trazado_158771" data-name="Trazado 158771" d="M44.333,28.627a7.81,7.81,0,0,0-6.965,7.764v12l-1.687.039V36.391a7.809,7.809,0,0,1,7.809-7.809,7.7,7.7,0,0,1,.844.045Z" fill="#724d44"/>
        <path id="Trazado_158772" data-name="Trazado 158772" d="M45.668,52.881V44.7l-.323-.956.323-2.809H41.309l.185,4.443-.185,1.477v6.028l2.179.328Z" fill="#c48958"/>
        <path id="Trazado_158773" data-name="Trazado 158773" d="M41.225,45.583l-4.284,1.7.52,5.93h6.027l-.315-.346c-1.5-1.652-1.794-3.786-1.851-6.01C41.311,46.364,41.225,46.076,41.225,45.583Z" fill="#ffd163"/>
        <path id="Trazado_158774" data-name="Trazado 158774" d="M41.324,46.853l-.014.005-4.253,1.748-.126-1.43,4.378-1.8.184.735Z" fill="#ffb65f"/>
        <path id="Trazado_158775" data-name="Trazado 158775" d="M50.142,47.22l-4.473-1.843c0,2.7-.029,5.479-1.88,7.5l-.3.328H50.72a1.056,1.056,0,0,0,1.056-1.056V49.66A2.639,2.639,0,0,0,50.142,47.22Z" fill="#ffd163"/>
        <path id="Trazado_158776" data-name="Trazado 158776" d="M41.31,40.935h0s0,3.758,0,3.758,0,1.671.014,2.161l1.1-.45a.422.422,0,0,0,.261-.39v-.468a.21.21,0,0,1,.246-.207,3.355,3.355,0,0,0,.56.048,4.123,4.123,0,0,0,2.18-.687V40.934H41.31Z" fill="#b27a49"/>
        <path id="Trazado_158777" data-name="Trazado 158777" d="M38.81,37.334a5.334,5.334,0,0,0-.057,1.061c.577,2.8,2.849,5.619,4.735,5.619,2.18,0,4.873-3.759,4.873-6.914a5.978,5.978,0,0,0-1.908-4.706c-.26-.214-.474-.194-.785-.345a.17.17,0,0,0-.239.113A6.567,6.567,0,0,1,40.462,36.9l-1.518.263C38.865,37.183,38.81,37.334,38.81,37.334Z" fill="#c48958"/>
        <path id="Trazado_158778" data-name="Trazado 158778" d="M40.779,37.946a7.58,7.58,0,0,0,5.673-5.55,4.253,4.253,0,0,0-.856-.549.17.17,0,0,0-.239.113,6.539,6.539,0,0,1-4.932,4.754l-1.675.358a.169.169,0,0,0-.133.167h0a6.552,6.552,0,0,0,.137,1.156Z" fill="#b27a49"/>
        <path id="Trazado_158779" data-name="Trazado 158779" d="M18.8,47.893l-6.107-2.176A2.814,2.814,0,0,1,8.4,45.565L3.991,47.4A2.433,2.433,0,0,0,2.33,49.66v2.387A1.056,1.056,0,0,0,3.386,53.1l.21.105H8.331l2.11-.27,2.249.27h3.9l2.212-.392Z" fill="#bae6ef"/>
        <path id="Trazado_158780" data-name="Trazado 158780" d="M12.537,41.99H8.543l.018,3.171c.379.438.63.949,1.142,1.1a2.881,2.881,0,0,0,2.986-.88V43.7Z" fill="#f2d1a5"/>
        <path id="Trazado_158781" data-name="Trazado 158781" d="M9.3,46.274,4.7,48.353l-.324.136A1.263,1.263,0,0,0,3.6,49.66v3.549H3.28a1.056,1.056,0,0,1-1.056-1.056V49.66A2.639,2.639,0,0,1,3.858,47.22L8.13,45.565a5.944,5.944,0,0,0,1.167.709Z" fill="#94d8e6"/>
        <path id="Trazado_158782" data-name="Trazado 158782" d="M17.67,47.428l-4.98,5.781H8.331L4.7,48.352,4,47.279l2.388-.83,1.943-1.072a2.882,2.882,0,0,0,4.358,0h0Z" fill="#f8f7f7"/>
        <path id="Trazado_158783" data-name="Trazado 158783" d="M9.7,41.99H8.332v3.6l1.089.678a1.614,1.614,0,0,1,.282-.014V44.494a.21.21,0,0,1,.243-.208,3.666,3.666,0,0,0,.564.044,4.462,4.462,0,0,0,2.18-.628V41.99Z" fill="#f2bb88"/>
        <g id="Grupo_112818" data-name="Grupo 112818">
          <path id="Trazado_158784" data-name="Trazado 158784" d="M9.7,46.258h0l-5,2.094L3.859,47.22l4.473-1.844A2.764,2.764,0,0,0,9.7,46.258Z" fill="#e8e8e8"/>
        </g>
        <path id="Trazado_158785" data-name="Trazado 158785" d="M15.53,36.077c0-3.317-1.7-5.34-5.02-5.34s-5.02,2.023-5.02,5.34a6.772,6.772,0,0,0,.242,2.1c.825,2.565,2.97,4.784,4.778,4.784,1.792,0,3.914-2.178,4.755-4.714a6.808,6.808,0,0,0,.265-2.169Z" fill="#f2d1a5"/>
        <path id="Trazado_158786" data-name="Trazado 158786" d="M13.343,31.4a3.4,3.4,0,0,0-.961.248l0,.011a2.022,2.022,0,0,0-.2-.725,6.622,6.622,0,0,0-1.664-.2c-3.317,0-5.125,2.023-5.125,5.34a6.891,6.891,0,0,0,.348,2.1c.074-.067.153-.142.24-.23a10.5,10.5,0,0,1,3.065-2.352,7.6,7.6,0,0,0,1.993-.9.212.212,0,0,1,.324.052,5.042,5.042,0,0,0,1.833,1.6,6.892,6.892,0,0,1,2.077,1.895,6.93,6.93,0,0,0,.37-2.169c0-2.2-.794-3.826-2.293-4.676Z" fill="#f2bb88"/>
        <path id="Trazado_158787" data-name="Trazado 158787" d="M12.39,30.393a3.49,3.49,0,0,1,1.332-.386,2.993,2.993,0,0,1,2.188.84c2,2.02.948,5.136.181,6.5a.211.211,0,0,1-.342.038,12.945,12.945,0,0,0-2.594-2.237,4.879,4.879,0,0,1-1.058-.909,3.77,3.77,0,0,1-.592-1.324Z" fill="#8e868e"/>
        <path id="Trazado_158788" data-name="Trazado 158788" d="M13.511,31.987A5.924,5.924,0,0,1,12.1,34.241,3.807,3.807,0,0,1,11.361,33l1.021-2.725a3.515,3.515,0,0,1,1.341-.271,4.344,4.344,0,0,1-.212,1.98Z" fill="#766d78"/>
        <path id="Trazado_158789" data-name="Trazado 158789" d="M12.09,29.415A2.444,2.444,0,0,0,10.352,28.4a5.989,5.989,0,0,0-4.161,1.4c-2.65,1.937-2.108,5.732-1.277,7.416a.211.211,0,0,0,.362.032c.145-.2.375-.347.7-.677a8.512,8.512,0,0,1,3.17-2.035C11.8,33.571,13,30.832,12.09,29.415Z" fill="#8e868e"/>
        <path id="Trazado_158790" data-name="Trazado 158790" d="M10.364,28.407a6.467,6.467,0,0,0-2.86,1.2c-2.3,1.68-2.153,5.011-1.53,6.964a7.236,7.236,0,0,0-.7.821.212.212,0,0,1-.362-.032c-.831-1.685-1.431-5.816,1.219-7.753a5.859,5.859,0,0,1,4.231-1.2Z" fill="#766d78"/>
        <path id="Trazado_158791" data-name="Trazado 158791" d="M15.823,21.231l-2.451-.014a1.132,1.132,0,0,0-.793.325l-1.651,1.622a.566.566,0,0,1-.8,0L8.514,21.548a1.131,1.131,0,0,0-.8-.331H5.17a2.036,2.036,0,0,1-2.036-2.036V12.052A2.089,2.089,0,0,1,4.4,10.021a2.035,2.035,0,0,1,.665-.111H18.028v9.376a2.032,2.032,0,0,1-.111.666,2.19,2.19,0,0,1-2.095,1.279Z" fill="#f8f7f7"/>
        <path id="Trazado_158792" data-name="Trazado 158792" d="M17.916,19.952a2.036,2.036,0,0,1-1.924,1.371H13.478a1.135,1.135,0,0,0-.794.325l-1.756,1.728a.566.566,0,0,1-.8,0L8.409,21.653a1.135,1.135,0,0,0-.8-.33H5.065a2.036,2.036,0,0,1-2.036-2.037v-7.34A2.034,2.034,0,0,1,4.4,10.022v9.264a.665.665,0,0,0,.664.666H7.61a2.486,2.486,0,0,1,1.768.731l.862.861a.423.423,0,0,0,.595,0l.889-.875a2.5,2.5,0,0,1,1.755-.718Z" fill="#e8e8e8"/>
        <g id="Grupo_112819" data-name="Grupo 112819">
          <path id="Trazado_158793" data-name="Trazado 158793" d="M10.362,14.065a.246.246,0,0,0,.336,0,1.881,1.881,0,0,1,1.291-.5,1.845,1.845,0,0,1,1.842,1.851c-.019,1.332-1.44,2.472-2.412,3.1a3.82,3.82,0,0,1-.779.317.246.246,0,0,1-.223,0c-.582-.287-3.084-1.562-3.046-3.42A1.773,1.773,0,0,1,8.4,13.745a1.808,1.808,0,0,1,.207-.118,1.771,1.771,0,0,1,.474-.068,1.845,1.845,0,0,1,1.282.507Z" fill="#df646e"/>
          <path id="Trazado_158794" data-name="Trazado 158794" d="M11.418,18.506c-.343.22-.631.377-.779.455a.244.244,0,0,1-.223,0c-.582-.287-3.227-1.7-3.189-3.554a1.925,1.925,0,0,1,1.378-1.782,1.891,1.891,0,0,0-.429,1.15C8.145,16.281,10.292,17.821,11.418,18.506Z" fill="#dc4955"/>
        </g>
        <path id="Trazado_158795" data-name="Trazado 158795" d="M48.807,21.217H46.293a1.132,1.132,0,0,0-.793.325L43.849,23.27a.566.566,0,0,1-.8,0l-1.617-1.719a1.131,1.131,0,0,0-.8-.331H38.091a2.036,2.036,0,0,1-2.036-2.036l.134-9.063,2.054-.209h10.67a2.036,2.036,0,0,1,2.036,2.036v7.34a2.033,2.033,0,0,1-.111.666,2.089,2.089,0,0,1-2.03,1.265Z" fill="#f8f7f7"/>
        <g id="Grupo_112820" data-name="Grupo 112820">
          <path id="Trazado_158796" data-name="Trazado 158796" d="M43.283,14.065a.246.246,0,0,0,.336,0,1.881,1.881,0,0,1,1.291-.5,1.845,1.845,0,0,1,1.842,1.851c-.019,1.332-1.44,2.472-2.412,3.1a3.82,3.82,0,0,1-.779.317.246.246,0,0,1-.223,0c-.582-.287-3.084-1.562-3.046-3.42a1.773,1.773,0,0,1,1.028-1.661,1.808,1.808,0,0,1,.207-.118A1.771,1.771,0,0,1,42,13.558a1.845,1.845,0,0,1,1.282.507Z" fill="#df646e"/>
          <path id="Trazado_158797" data-name="Trazado 158797" d="M44.339,18.506c-.343.22-.631.377-.779.455a.244.244,0,0,1-.223,0c-.582-.287-3.227-1.7-3.189-3.554a1.925,1.925,0,0,1,1.378-1.782,1.891,1.891,0,0,0-.429,1.15C41.066,16.281,43.213,17.821,44.339,18.506Z" fill="#dc4955"/>
        </g>
        <path id="Trazado_158798" data-name="Trazado 158798" d="M46.4,19.952a2.491,2.491,0,0,0-1.755.718l-1.038,1.022a.212.212,0,0,1-.3,0L42.3,20.682a2.5,2.5,0,0,0-1.768-.731H37.986a.665.665,0,0,1-.666-.666V15.594a.211.211,0,0,1,.051-.137,2.892,2.892,0,0,0,.272-.376,4.2,4.2,0,0,0,.6-2.165V9.91H35.949v9.376a2.037,2.037,0,0,0,2.037,2.037h2.545a1.135,1.135,0,0,1,.8.33l1.722,1.719a.566.566,0,0,0,.8,0L45.6,21.647a1.134,1.134,0,0,1,.793-.325h2.514a2.037,2.037,0,0,0,1.925-1.371H46.4Z" fill="#e8e8e8"/>
        <path id="Trazado_158799" data-name="Trazado 158799" d="M33.721,15.495l-3.048.1a1.7,1.7,0,0,0-1.265.565l-1.77,1.948a.792.792,0,0,1-1.185,0l-1.637-1.982a1.7,1.7,0,0,0-1.274-.576l-3.494.2a2.829,2.829,0,0,1-2.829-2.829V3.62A2.828,2.828,0,0,1,20.047.791h14a2.828,2.828,0,0,1,2.828,2.828v9.3a2.815,2.815,0,0,1-.4,1.457,3.224,3.224,0,0,1-2.747,1.122Z" fill="#f8f7f7"/>
        <path id="Trazado_158800" data-name="Trazado 158800" d="M36.468,14.373a2.829,2.829,0,0,1-2.425,1.371H30.671a1.7,1.7,0,0,0-1.266.565L27.64,18.283a.791.791,0,0,1-1.184,0L24.731,16.32a1.7,1.7,0,0,0-1.274-.576h-3.41a2.829,2.829,0,0,1-2.829-2.829V3.62A2.829,2.829,0,0,1,18.59,1.195V12.916a1.458,1.458,0,0,0,1.458,1.458h3.41a3.066,3.066,0,0,1,2.3,1.041l1.058,1.2a.315.315,0,0,0,.472,0L28.385,15.4a3.065,3.065,0,0,1,2.287-1.022Z" fill="#e8e8e8"/>
        <path id="Trazado_158801" data-name="Trazado 158801" d="M26.79,5.414a.378.378,0,0,0,.515,0,2.887,2.887,0,0,1,1.98-.774,2.83,2.83,0,0,1,2.826,2.84c-.031,2.142-2.425,3.96-3.911,4.884a6.987,6.987,0,0,1-.953.445.378.378,0,0,1-.342,0c-.892-.44-4.788-2.319-4.73-5.17a3,3,0,0,1,1.8-2.859,2.72,2.72,0,0,1,.853-.144,2.829,2.829,0,0,1,1.967.777Z" fill="#df646e"/>
        <path id="Trazado_158802" data-name="Trazado 158802" d="M28.2,12.36c-.432.269-.788.462-.985.564a.379.379,0,0,1-.342,0c-.892-.441-4.951-2.6-4.894-5.452a2.951,2.951,0,0,1,1.991-2.7,2.906,2.906,0,0,0-.831,1.958C23.091,9.176,26.618,11.47,28.2,12.36Z" fill="#dc4955"/>
        <path id="Trazado_158803" data-name="Trazado 158803" d="M29.769,37.748h-5.49l.26,3.66-.26,1.935h0a4.085,4.085,0,0,0,.73.828,3.85,3.85,0,0,0,3.972.148c.319-.192.527-.677.786-.976l0,0V41.019l-.222-.364Z" fill="#e3a76f"/>
        <path id="Trazado_158804" data-name="Trazado 158804" d="M35.5,45.706l-2.872-1.183-2.86-.87a3.634,3.634,0,0,1-5.49.15l-5.521,1.9A3.167,3.167,0,0,0,16.8,48.634L16.9,53l1.054.211h6.929l2.243-.508,1.987.508h8.344V48.634A3.167,3.167,0,0,0,35.5,45.706Z" fill="#ccf49f"/>
        <path id="Trazado_158805" data-name="Trazado 158805" d="M25.65,37.748H24.279v5.6c.172.2.095.534.3.685.228.173.739.155.994.266h0v-2.6a.211.211,0,0,1,.259-.205,5.518,5.518,0,0,0,1.2.182,6.015,6.015,0,0,0,2.745-.651V37.748H25.65Z" fill="#d6995c"/>
        <path id="Trazado_158806" data-name="Trazado 158806" d="M25.447,44.3l-3.175,1.358-3.2,1.32a1.79,1.79,0,0,0-1.113,1.66v4.575H16.586V48.634a3.166,3.166,0,0,1,1.961-2.928L21.4,44.529l1.3-.4,1.515-.68a3.121,3.121,0,0,0,1.225.849Z" fill="#b3e59f"/>
        <path id="Trazado_158807" data-name="Trazado 158807" d="M32.629,44.523l-.119.138a14.636,14.636,0,0,0-3.393,8.431v.117h-4.23v-.076a14.632,14.632,0,0,0-2.614-7.479,12.589,12.589,0,0,0-.718-1.049l-.032-.041,2.756-1.111a3.317,3.317,0,0,0,1.29.843,3.633,3.633,0,0,0,4.2-.95h0Z" fill="#f8f7f7"/>
        <path id="Trazado_158808" data-name="Trazado 158808" d="M25.568,44.3l-3.3,1.358q-.391-.56-.836-1.084l-.032-.041,2.875-1.184a3.626,3.626,0,0,0,.852.724q.043.027.085.051a3.649,3.649,0,0,0,.351.177Z" fill="#e8e8e8"/>
        <path id="Trazado_158809" data-name="Trazado 158809" d="M32.994,31.553c0-3.973-2-7.156-5.971-7.156s-5.774,3.211-5.774,7.184a11.644,11.644,0,0,0-.184,2.037c.594,3.394,2.649,6.68,5.958,6.68,3.524,0,5.626-3.726,6.055-7.341a11.958,11.958,0,0,0-.084-1.4Z" fill="#e3a76f"/>
        <path id="Trazado_158810" data-name="Trazado 158810" d="M33.161,31.59c0-2.905-1.159-5.406-3.334-6.542a.106.106,0,0,1-.187-.094,6.056,6.056,0,0,0-2.617-.558c-3.973,0-6.138,3.221-6.138,7.193a11.823,11.823,0,0,0,.18,2.028,2.823,2.823,0,0,1,.339-.325c1.039-.978,2.53-1.013,2.689-2.036a.211.211,0,0,1,.265-.177A3.635,3.635,0,0,0,28.1,29.36a.211.211,0,0,1,.329-.062,2.3,2.3,0,0,0,1.734.477.212.212,0,0,1,.223.141c.6,1.745,2.233,1.1,2.689,3.042a11.582,11.582,0,0,0,.083-1.367Z" fill="#d6995c"/>
        <g id="Grupo_112821" data-name="Grupo 112821">
          <path id="Trazado_158811" data-name="Trazado 158811" d="M33.7,26.188c-.055-.016-.159-.036-.244-.051a.1.1,0,0,1-.078-.146,2.215,2.215,0,0,0-3.565-2.514.1.1,0,0,1-.178-.053,2.688,2.688,0,0,0-4.328-1.575.106.106,0,0,1-.149-.015,2.212,2.212,0,0,0-3.89,1.124.106.106,0,0,1-.1.092,3.16,3.16,0,0,0-.717.125,3.114,3.114,0,0,0-2.121,3.09,2.841,2.841,0,0,0,.808,1.993.1.1,0,0,1,.026.074,9.385,9.385,0,0,0,.1,2.143,2.794,2.794,0,0,0,1.616,2.152,1.057,1.057,0,0,1,.519-.917c.645-.533,1.759-.629,2.039-1.612a.1.1,0,0,1,.116-.076,5.418,5.418,0,0,0,.751.089,3.8,3.8,0,0,0,3.545-2.436.1.1,0,0,1,.174-.025,2.585,2.585,0,0,0,2.729.888.1.1,0,0,1,.127.07c.647,2.115,2.267,1.432,2.267,3.406,1.061-.479,1.695-2.116,2-3.2A2.131,2.131,0,0,0,33.7,26.188Z" fill="#855b51"/>
        </g>
        <g id="Grupo_112822" data-name="Grupo 112822">
          <path id="Trazado_158812" data-name="Trazado 158812" d="M21.4,31.71a1.266,1.266,0,0,0-.458,1.048,3.031,3.031,0,0,1-1.8-2.225,9.527,9.527,0,0,1-.11-2.134.1.1,0,0,0-.026-.074,3.162,3.162,0,0,1,1.45-5.149,3.161,3.161,0,0,0-.29,4.516.1.1,0,0,1,.026.074A9.527,9.527,0,0,0,20.3,29.9a2.948,2.948,0,0,0,1.1,1.81Z" fill="#724d44"/>
        </g>
      </g>
      <g id="Grupo_112825" data-name="Grupo 112825">
        <g id="Grupo_112824" data-name="Grupo 112824">
          <path id="Trazado_158813" data-name="Trazado 158813" d="M42.987,19.672a1.041,1.041,0,0,0,.938-.01c.84-.438,3.585-2.039,3.617-4.241a2.649,2.649,0,0,0-4.091-2.226,2.623,2.623,0,0,0-1.437-.427,2.726,2.726,0,0,0-2.657,2.626c-.046,2.286,2.767,3.853,3.63,4.279Zm-.981-5.323h.007a1.056,1.056,0,0,1,.727.291h0a1.039,1.039,0,0,0,1.418,0,1.068,1.068,0,0,1,1.8.757c-.015,1.042-1.492,2.147-2.521,2.728-1.04-.56-2.523-1.638-2.5-2.7a1.123,1.123,0,0,1,1.068-1.076Z"/>
          <path id="Trazado_158814" data-name="Trazado 158814" d="M10.067,19.672a1.041,1.041,0,0,0,.938-.01c.84-.438,3.585-2.039,3.617-4.241a2.649,2.649,0,0,0-4.091-2.226,2.624,2.624,0,0,0-1.456-.427,2.687,2.687,0,0,0-2.639,2.626c-.046,2.286,2.767,3.853,3.631,4.279Zm-.981-5.323h.007a1.056,1.056,0,0,1,.726.291h0a1.039,1.039,0,0,0,1.418,0,1.068,1.068,0,0,1,1.8.757c-.015,1.042-1.492,2.147-2.521,2.728-1.04-.56-2.523-1.638-2.5-2.7a1.122,1.122,0,0,1,1.068-1.076Z"/>
          <path id="Trazado_158815" data-name="Trazado 158815" d="M5.065,22.114H7.61a.338.338,0,0,1,.24.1l1.723,1.719a1.361,1.361,0,0,0,1.91.007l1.756-1.728a.338.338,0,0,1,.239-.1h2.514a2.831,2.831,0,0,0,2.827-2.827V16.32a3.6,3.6,0,0,0,1.228.215h3.41a.907.907,0,0,1,.68.307L25.862,18.8a1.584,1.584,0,0,0,1.182.537h.006a1.584,1.584,0,0,0,1.18-.527L30,16.837a.907.907,0,0,1,.675-.3h3.373a3.606,3.606,0,0,0,1.115-.176v2.927a2.831,2.831,0,0,0,2.827,2.827h2.545a.338.338,0,0,1,.24.1l1.723,1.719a1.361,1.361,0,0,0,1.91.007l1.756-1.728a.338.338,0,0,1,.239-.1h2.514a2.831,2.831,0,0,0,2.827-2.827v-7.34a2.831,2.831,0,0,0-2.827-2.827H37.663v-5.5A3.623,3.623,0,0,0,34.043,0H27.6a.791.791,0,0,0,0,1.582h6.444a2.039,2.039,0,0,1,2.037,2.037v9.3a2.04,2.04,0,0,1-2.037,2.037H30.671a2.491,2.491,0,0,0-1.854.829l-1.767,1.974L25.325,15.8a2.489,2.489,0,0,0-1.868-.844h-3.41a2.04,2.04,0,0,1-2.037-2.037v-9.3a2.04,2.04,0,0,1,2.037-2.037h3.861a.791.791,0,0,0,0-1.582H20.047a3.623,3.623,0,0,0-3.619,3.619v5.5H5.065a2.831,2.831,0,0,0-2.827,2.827v7.34a2.831,2.831,0,0,0,2.827,2.827ZM48.913,10.7a1.247,1.247,0,0,1,1.245,1.245v7.34a1.247,1.247,0,0,1-1.245,1.245H46.4a1.911,1.911,0,0,0-1.348.552l-1.6,1.571-1.565-1.561a1.91,1.91,0,0,0-1.358-.562H37.986a1.247,1.247,0,0,1-1.245-1.245v-3.96a3.6,3.6,0,0,0,.922-2.41V10.7h11.25ZM3.82,11.946A1.247,1.247,0,0,1,5.065,10.7H16.428v2.215a3.6,3.6,0,0,0,.809,2.278v4.093a1.247,1.247,0,0,1-1.245,1.245H13.477a1.911,1.911,0,0,0-1.348.552l-1.6,1.571L8.968,21.093a1.91,1.91,0,0,0-1.358-.562H5.065a1.247,1.247,0,0,1-1.245-1.245v-7.34Z"/>
          <path id="Trazado_158816" data-name="Trazado 158816" d="M21.189,7.46c-.066,3.258,4.066,5.552,5.334,6.177a1.173,1.173,0,0,0,1.058-.011c1.237-.645,5.276-2.993,5.321-6.138a3.642,3.642,0,0,0-5.855-2.893,3.621,3.621,0,0,0-2.23-.749A3.7,3.7,0,0,0,21.189,7.46Zm3.64-2.033h.015a2.041,2.041,0,0,1,1.4.562h0a1.17,1.17,0,0,0,1.6,0A2.061,2.061,0,0,1,31.32,7.465c-.025,1.751-2.282,3.578-4.285,4.659C25,11.083,22.734,9.286,22.77,7.492A2.131,2.131,0,0,1,24.829,5.427Z"/>
          <path id="Trazado_158817" data-name="Trazado 158817" d="M52.089,47.913V36.391a8.6,8.6,0,0,0-12.525-7.654.791.791,0,1,0,.723,1.407,6.94,6.94,0,0,1,3.2-.771,7.026,7.026,0,0,1,7.018,7.018V46.518l-.064-.029h0l-3.984-1.642V43.3a9.359,9.359,0,0,0,2.693-6.2c0-2.888-1.286-5.157-3.439-6.07a.792.792,0,0,0-.613,0,.823.823,0,0,0-.469.561,5.706,5.706,0,0,1-4.371,4.35l-1.81.387a.918.918,0,0,0-.624.932,9.381,9.381,0,0,0,2.692,6.052v1.537l-3.147,1.3a3.939,3.939,0,0,0-.9-.813V36.391a6.974,6.974,0,0,1,1.267-4.024.791.791,0,0,0-1.3-.908,8.547,8.547,0,0,0-1.554,4.932V44.6L30.56,42.814v-3a10.641,10.641,0,0,0,3.374-7.334,6.455,6.455,0,0,0,1.977-3.454,2.934,2.934,0,0,0-.385-2.416,2.9,2.9,0,0,0-1.191-1.022,3.034,3.034,0,0,0,.035-.806,3,3,0,0,0-4.282-2.442,3.482,3.482,0,0,0-4.766-1.442,3.007,3.007,0,0,0-4.716,1.433A3.955,3.955,0,0,0,18.23,28.63a9.991,9.991,0,0,0,.135,2.049,3.764,3.764,0,0,0,1.847,2.592,12.96,12.96,0,0,0,.3,1.532.834.834,0,0,0,.966.565.791.791,0,0,0,.565-.966,11.388,11.388,0,0,1-.3-1.643c-.035-.306.079-.44.773-.779a3.2,3.2,0,0,0,1.441-1.1,4.628,4.628,0,0,0,4.193-2.047,3.538,3.538,0,0,0,2.2.581A3.669,3.669,0,0,0,31.76,30.97c.471.325.616.426.619,1.023-.164,3.7-2.209,7.514-5.356,7.514a4.462,4.462,0,0,1-3.58-2.032.791.791,0,1,0-1.28.93,7.381,7.381,0,0,0,1.325,1.413v3l-5.242,2.16a3.954,3.954,0,0,0-1.582,1.184l-3.182-1.311V42.415a9.212,9.212,0,0,0,2.568-4.023.79.79,0,0,0,.554-.356c.822-1.285,2.4-5.18-.13-7.744a3.924,3.924,0,0,0-3.551-1,2.5,2.5,0,0,0-.166-.3c-1.068-1.669-3.829-1.9-6.286-.533a.791.791,0,1,0,.771,1.382c1.843-1.028,3.65-.828,4.183,0a1.725,1.725,0,0,1,.039,1.452,4.247,4.247,0,0,1-2.59,2.5A9.288,9.288,0,0,0,5.3,36.135a7.2,7.2,0,0,1-.06-3.889.791.791,0,0,0-1.515-.457,8.668,8.668,0,0,0,.7,6.311.791.791,0,0,0,.573.359,9.237,9.237,0,0,0,2.547,3.949v2.439c-.072.032-3.951,1.624-4.028,1.662A3.418,3.418,0,0,0,1.433,49.66v2.493A1.849,1.849,0,0,0,3.28,54H50.72a1.849,1.849,0,0,0,1.847-1.847V49.66a3.424,3.424,0,0,0-.477-1.747ZM31.618,28.3a.791.791,0,0,0-1.006-.539,1.794,1.794,0,0,1-2.04-.7.791.791,0,0,0-1.406.2,3,3,0,0,1-2.856,2.068,5.385,5.385,0,0,1-.7-.091.791.791,0,0,0-.921.607c-.068.31-.3.45-.863.718a3.222,3.222,0,0,0-1.325.968,2.164,2.164,0,0,1-.586-1.133,8.837,8.837,0,0,1-.1-1.968.791.791,0,0,0-.208-.6,2.372,2.372,0,0,1,1.67-3.982.791.791,0,0,0,.764-.717A1.421,1.421,0,0,1,24.6,22.4a.791.791,0,0,0,1.151.116,1.9,1.9,0,0,1,3.135,1.212.791.791,0,0,0,1.395.416,1.411,1.411,0,0,1,1.226-.51,1.424,1.424,0,0,1,1.119,2.1.791.791,0,0,0,.611,1.168,1.328,1.328,0,0,1,.974.582,1.354,1.354,0,0,1,.177,1.115,7.465,7.465,0,0,1-.8,1.944,3.068,3.068,0,0,0-.927-.874A2.114,2.114,0,0,1,31.618,28.3Zm8.973,9.191a7.3,7.3,0,0,0,5.283-4.541,5.128,5.128,0,0,1,1.7,4.155c0,2.839-2.47,6.123-4.082,6.123-1.494,0-3.724-2.8-4.043-5.491ZM25.619,52.418a15.542,15.542,0,0,0-2.945-7.557l1.419-.585a4.417,4.417,0,0,0,2.93,1.113h0a4.419,4.419,0,0,0,2.932-1.113l1.4.575a15.55,15.55,0,0,0-2.97,7.566Zm7.249-6.942,2.331.961a2.368,2.368,0,0,1,1.471,2.2v3.784H29.977A13.947,13.947,0,0,1,32.868,45.476Zm-5.845-4.387a5.433,5.433,0,0,0,1.955-.357v2.3a2.838,2.838,0,0,1-1.954.779h0a2.838,2.838,0,0,1-1.953-.778v-2.3a5.469,5.469,0,0,0,1.953.356ZM15.8,52.418h-1.38l1.38-1.6Zm.009-4.037-3.477,4.037h-3.6L5.1,47.563l3.05-1.257a3.671,3.671,0,0,0,2.359.858h0a3.671,3.671,0,0,0,2.359-.858l3.071,1.265A3.963,3.963,0,0,0,15.8,48.381ZM15.347,31.4c1.377,1.394.943,3.509.4,4.834a13.39,13.39,0,0,0-2.166-1.752,3.815,3.815,0,0,1-1.3-1.358,5.16,5.16,0,0,0,.682-1.327,4.111,4.111,0,0,0,.2-.938,2.4,2.4,0,0,1,2.184.541ZM6.326,37.351a7.683,7.683,0,0,1,3.088-2.069,6.228,6.228,0,0,0,1.738-.969,5.513,5.513,0,0,0,1.576,1.505,11.872,11.872,0,0,1,1.952,1.591c-.61,2.6-2.737,4.759-4.17,4.759s-3.592-2.2-4.184-4.817Zm4.184,6.4a3.561,3.561,0,0,0,1.389-.305v1.61a2.09,2.09,0,0,1-1.388.527h0a2.09,2.09,0,0,1-1.388-.528V43.443a3.542,3.542,0,0,0,1.388.307Zm-7.5,8.4V49.66a1.841,1.841,0,0,1,.636-1.4l3.1,4.153H3.28A.265.265,0,0,1,3.015,52.153Zm14.362-3.519a2.369,2.369,0,0,1,1.471-2.2l2.312-.953a13.942,13.942,0,0,1,2.864,6.933H17.378V48.634Zm20.875,3.784V48.634a3.975,3.975,0,0,0-.151-1.08l2.423-1a11.157,11.157,0,0,0,1.324,5.862ZM42.1,45.375v-.913a2.974,2.974,0,0,0,2.777,0s0,.836,0,.918c0,2.374,0,4.824-1.388,6.629-1.388-1.8-1.389-4.254-1.389-6.631a.009.009,0,0,0,0,0Zm8.884,6.778a.265.265,0,0,1-.265.265H45.129a11.158,11.158,0,0,0,1.325-5.862l3.387,1.4h0a1.842,1.842,0,0,1,1.144,1.709Z"/>
        </g>
      </g>
    </g>
  </g>
</svg>
