<svg xmlns="http://www.w3.org/2000/svg" xmlns:xlink="http://www.w3.org/1999/xlink" width="400" height="574.197" viewBox="0 0 400 574.197">
  <defs>
    <clipPath id="clip-path">
      <path id="Trazado_158873" data-name="Trazado 158873" d="M1331.314,611.615l-71.052-60.851-8.981,11.611,45.908,63.413a7.24,7.24,0,0,0,1.881,1.8h0a36.389,36.389,0,0,0,29.093,4.853Z" transform="translate(-1251.281 -550.764)" fill="#f4d2c6"/>
    </clipPath>
    <clipPath id="clip-path-2">
      <path id="Trazado_158877" data-name="Trazado 158877" d="M1432.017,747.094l5.288,277.2h18.641l39.068-277.822Z" transform="translate(-1432.017 -746.471)" fill="#324d90"/>
    </clipPath>
    <clipPath id="clip-path-3">
      <path id="Trazado_158881" data-name="Trazado 158881" d="M1591.2,747.094l-5.289,277.2h-18.641L1528.2,746.471Z" transform="translate(-1528.203 -746.471)" fill="#324d90"/>
    </clipPath>
    <clipPath id="clip-path-4">
      <path id="Trazado_158886" data-name="Trazado 158886" d="M1505.7,375.9c-.978-8.138-5.163-19.63,8.185-23.2-7.847-15.378,28.2-5.563,31.154,2.353,3.226,7.572,1.179,20.845,1.179,20.845Z" transform="translate(-1504.304 -344.592)" fill="#59445a"/>
    </clipPath>
    <clipPath id="clip-path-5">
      <path id="Trazado_158891" data-name="Trazado 158891" d="M1548.071,396.548c-.476,30.6-37.761,30.592-38.234,0C1506.447,365.229,1550.449,364.923,1548.071,396.548Z" transform="translate(-1509.651 -372.944)" fill="#f4d2c6"/>
    </clipPath>
    <clipPath id="clip-path-6">
      <rect id="Rectángulo_36651" data-name="Rectángulo 36651" width="14.394" height="70.43" fill="#f9ce68"/>
    </clipPath>
    <clipPath id="clip-path-7">
      <path id="Trazado_158911" data-name="Trazado 158911" d="M1439.109,545.057,1423,560.526l-52.445-38.169h0c-1.875-4.837-4.063-10.767-9.158-13.038-1.667-.805-3.524-2.053-5.376-1.49l-7.4,2.755h5.4l2.618,4.056-6.688,3.112-13.811,1.642a1.4,1.4,0,0,0-1,2.173l3.085,4.577c3.8,7,15.836,4.962,22.282,5.572,22.645,21.131,46.093,76.676,78.54,54.5l21.065-20.592Z" transform="translate(-1334.91 -507.688)" fill="#f4d2c6"/>
    </clipPath>
  </defs>
  <g id="Grupo_119008" data-name="Grupo 119008" transform="translate(-75 -3026.5)">
    <rect id="Rectángulo_36621" data-name="Rectángulo 36621" width="400" height="338" transform="translate(75 3225)" fill="#ffc967"/>
    <g id="Grupo_112885" data-name="Grupo 112885" transform="translate(-730.073 3060.375)">
      <g id="Grupo_112841" data-name="Grupo 112841" transform="translate(857.323 455.915)">
        <path id="Trazado_158842" data-name="Trazado 158842" d="M1152.811,1473.352c2.267,45-312.926,52.961-294.729-10.9l292.9-2.323Z" transform="translate(-857.323 -1424.325)" fill="#f08f3c"/>
        <g id="Grupo_112840" data-name="Grupo 112840" transform="translate(2.936)">
          <path id="Trazado_158843" data-name="Trazado 158843" d="M1014.877,1367.841c-192.153-.438-192.15-71.173,0-71.609C1207.029,1296.67,1207.026,1367.4,1014.877,1367.841Z" transform="translate(-870.763 -1296.232)" fill="#f9ce68"/>
          <path id="Trazado_158844" data-name="Trazado 158844" d="M1128.209,1388.127c-149.915-.342-149.912-55.528,0-55.868C1278.123,1332.6,1278.121,1387.787,1128.209,1388.127Z" transform="translate(-984.096 -1324.389)" fill="#fff"/>
          <path id="Trazado_158845" data-name="Trazado 158845" d="M1241.54,1408.414c-107.677-.246-107.675-39.883,0-40.127C1349.217,1368.531,1349.216,1408.169,1241.54,1408.414Z" transform="translate(-1097.427 -1352.546)" fill="#f9ce68"/>
          <path id="Trazado_158846" data-name="Trazado 158846" d="M1354.872,1428.7c-65.439-.149-65.438-24.238,0-24.387C1420.311,1404.462,1420.31,1428.552,1354.872,1428.7Z" transform="translate(-1210.759 -1380.702)" fill="#fff"/>
          <path id="Trazado_158847" data-name="Trazado 158847" d="M1484.795,1445.222c.69,5.556-36.1,5.556-35.4,0C1448.7,1439.666,1485.488,1439.666,1484.795,1445.222Z" transform="translate(-1322.98 -1409.418)" fill="#f9ce68"/>
        </g>
      </g>
      <g id="Grupo_112846" data-name="Grupo 112846" transform="translate(1061.646 406.563)">
        <g id="Grupo_112845" data-name="Grupo 112845" transform="translate(0)">
          <g id="Grupo_112844" data-name="Grupo 112844" transform="translate(0)">
            <g id="Grupo_112842" data-name="Grupo 112842" transform="translate(8.726)">
              <path id="Trazado_158848" data-name="Trazado 158848" d="M1841.2,1148.135l-1.1,3.854-7.527-7.482,1.1-3.854Z" transform="translate(-1832.578 -1125.289)" fill="#4292f3"/>
              <path id="Trazado_158849" data-name="Trazado 158849" d="M1846.266,1130.386l-1.1,3.854-7.527-7.481,1.1-3.854Z" transform="translate(-1836.534 -1111.417)" fill="#fff"/>
              <path id="Trazado_158850" data-name="Trazado 158850" d="M1851.283,1112.8l-1.1,3.854-7.527-7.481,1.1-3.854Z" transform="translate(-1840.455 -1097.669)" fill="#4292f3"/>
              <path id="Trazado_158851" data-name="Trazado 158851" d="M1856.247,1095.391l-1.1,3.854-7.527-7.481,1.1-3.854Z" transform="translate(-1844.335 -1084.067)" fill="#fff"/>
              <path id="Trazado_158852" data-name="Trazado 158852" d="M1861.264,1077.8l-1.1,3.854-7.527-7.481,1.1-3.854Z" transform="translate(-1848.256 -1070.319)" fill="#4292f3"/>
            </g>
            <g id="Grupo_112843" data-name="Grupo 112843" transform="translate(17.112 5.341)">
              <path id="Trazado_158853" data-name="Trazado 158853" d="M1901.367,1098.623l1.1-3.854-10.341,2.385-1.1,3.854Z" transform="translate(-1886.644 -1094.769)" fill="#4292f3"/>
              <path id="Trazado_158854" data-name="Trazado 158854" d="M1896.3,1116.372l1.1-3.854-10.341,2.385-1.1,3.854Z" transform="translate(-1882.687 -1108.641)" fill="#fff"/>
              <path id="Trazado_158855" data-name="Trazado 158855" d="M1891.287,1133.963l1.1-3.854-10.341,2.385-1.1,3.854Z" transform="translate(-1878.766 -1122.388)" fill="#4292f3"/>
              <path id="Trazado_158856" data-name="Trazado 158856" d="M1886.324,1151.367l1.1-3.854-10.341,2.385-1.1,3.854Z" transform="translate(-1874.887 -1135.991)" fill="#fff"/>
              <path id="Trazado_158857" data-name="Trazado 158857" d="M1881.307,1168.958l1.1-3.854-10.341,2.385-1.1,3.854Z" transform="translate(-1870.966 -1149.739)" fill="#4292f3"/>
            </g>
            <rect id="Rectángulo_36647" data-name="Rectángulo 36647" width="76.487" height="2.492" transform="matrix(0.274, -0.962, 0.962, 0.274, 0, 80.772)" fill="#152e60"/>
          </g>
        </g>
      </g>
      <g id="Grupo_112851" data-name="Grupo 112851" transform="translate(920.05 414.233)">
        <g id="Grupo_112850" data-name="Grupo 112850" transform="translate(0)">
          <g id="Grupo_112849" data-name="Grupo 112849">
            <g id="Grupo_112847" data-name="Grupo 112847" transform="translate(0 9.433)">
              <path id="Trazado_158858" data-name="Trazado 158858" d="M1190.624,1212.53l1.948,3.5-10.612.032-1.948-3.5Z" transform="translate(-1172.246 -1198.567)" fill="#4292f3"/>
              <path id="Trazado_158859" data-name="Trazado 158859" d="M1181.653,1196.4l1.948,3.5-10.612.032-1.948-3.5Z" transform="translate(-1165.235 -1185.96)" fill="#fff"/>
              <path id="Trazado_158860" data-name="Trazado 158860" d="M1172.762,1180.414l1.948,3.5-10.612.032-1.948-3.5Z" transform="translate(-1158.286 -1173.467)" fill="#4292f3"/>
              <path id="Trazado_158861" data-name="Trazado 158861" d="M1163.966,1164.6l1.948,3.5-10.612.032-1.948-3.5Z" transform="translate(-1151.411 -1161.105)" fill="#fff"/>
              <path id="Trazado_158862" data-name="Trazado 158862" d="M1155.075,1148.611l1.948,3.5-10.612.032-1.948-3.5Z" transform="translate(-1144.463 -1148.611)" fill="#4292f3"/>
            </g>
            <g id="Grupo_112848" data-name="Grupo 112848" transform="translate(11.393)">
              <path id="Trazado_158863" data-name="Trazado 158863" d="M1204.19,1108.933l-1.948-3.5-5.625,9,1.948,3.5Z" transform="translate(-1196.616 -1105.43)" fill="#4292f3"/>
              <path id="Trazado_158864" data-name="Trazado 158864" d="M1213.161,1125.063l-1.948-3.5-5.625,9,1.948,3.5Z" transform="translate(-1203.628 -1118.037)" fill="#fff"/>
              <path id="Trazado_158865" data-name="Trazado 158865" d="M1222.052,1141.049l-1.948-3.5-5.625,9,1.948,3.5Z" transform="translate(-1210.576 -1130.531)" fill="#4292f3"/>
              <path id="Trazado_158866" data-name="Trazado 158866" d="M1230.848,1156.866l-1.948-3.5-5.625,9,1.948,3.5Z" transform="translate(-1217.451 -1142.892)" fill="#fff"/>
              <path id="Trazado_158867" data-name="Trazado 158867" d="M1239.739,1172.852l-1.948-3.5-5.625,9,1.948,3.5Z" transform="translate(-1224.4 -1155.386)" fill="#4292f3"/>
            </g>
            <rect id="Rectángulo_36648" data-name="Rectángulo 36648" width="76.487" height="2.492" transform="matrix(-0.486, -0.874, 0.874, -0.486, 47.068, 76.626)" fill="#152e60"/>
          </g>
        </g>
      </g>
      <path id="Trazado_158868" data-name="Trazado 158868" d="M1319.792,1108.983l5.336-4.816-2.692-11.512-5.34,4.8,5.336-4.816-.677-2.892c-8.078,6.954-3.748,5.924-14.052,3.286l2.692,11.512,6.918,1.951,0,.017-6.918-1.951.677,2.892,6.918,1.951,9.6,41.057,1.8-.421Z" transform="translate(-351.992 -678.939)" fill="#152e60"/>
      <path id="Trazado_158869" data-name="Trazado 158869" d="M1705.851,1167.273l4.935-1.648c.486-2.637,1.065-5.779,1.551-8.416l-4.933,1.636,4.935-1.648.39-2.114c-7.323,2.271-4.25,2.824-10.273-1.893-.486,2.637-1.065,5.78-1.551,8.416l4.024,3.3,0,.013-4.024-3.3-.389,2.114,4.023,3.3-5.53,30.016,1.315.242Z" transform="translate(-657.813 -728.523)" fill="#152e60"/>
      <path id="Trazado_158870" data-name="Trazado 158870" d="M1248.369,548.24s-2.218-2.91-2.217-12.324c0-4.332,5.729-10.05,5.729-10.05s5.547,4.364,5.547,4.952-1.275,14.9-1.863,15.786S1248.369,548.24,1248.369,548.24Z" transform="translate(-341.682 -427.97)" fill="#f4d2c6"/>
      <g id="Grupo_112879" data-name="Grupo 112879" transform="translate(882.178 -33.875)">
        <g id="Grupo_112853" data-name="Grupo 112853" transform="translate(24.51 142.533)">
          <path id="Trazado_158871" data-name="Trazado 158871" d="M1331.314,611.615l-71.052-60.851-8.981,11.611,45.908,63.413a7.24,7.24,0,0,0,1.881,1.8h0a36.389,36.389,0,0,0,29.093,4.853Z" transform="translate(-1251.281 -550.764)" fill="#f4d2c6"/>
          <g id="Grupo_112852" data-name="Grupo 112852" clip-path="url(#clip-path)">
            <path id="Trazado_158872" data-name="Trazado 158872" d="M1386.906,642.935s8.211,39.382,17.58,46.29h0l8.536-28.112Z" transform="translate(-1328.28 -603.092)" fill="#eda19d"/>
          </g>
        </g>
        <path id="Trazado_158874" data-name="Trazado 158874" d="M1429.091,535.4,1393,586.811l21.452,19.118Z" transform="translate(-1307.227 -399.506)" fill="#3c7ed7"/>
        <g id="Grupo_112860" data-name="Grupo 112860" transform="translate(82.417 227.131)">
          <g id="Grupo_112856" data-name="Grupo 112856">
            <g id="Grupo_112855" data-name="Grupo 112855" transform="translate(20.219)">
              <path id="Trazado_158875" data-name="Trazado 158875" d="M1432.017,747.094l5.288,277.2h18.641l39.068-277.822Z" transform="translate(-1432.017 -746.471)" fill="#324d90"/>
              <g id="Grupo_112854" data-name="Grupo 112854" clip-path="url(#clip-path-2)">
                <path id="Trazado_158876" data-name="Trazado 158876" d="M1504.436,918.712c-27.085,35.981-35.242,155.344-37.381,207.13h16.353l20.226-126.995.8-80.135" transform="translate(-1451.909 -844.257)" fill="#2a437d"/>
              </g>
            </g>
            <path id="Trazado_158878" data-name="Trazado 158878" d="M1413.883,1389.179l-2.057,7.207-22.221,9.523a7.2,7.2,0,0,0-4.363,6.617h45.889l-1.74-23.347Z" transform="translate(-1385.242 -1111.356)" fill="#152e60"/>
          </g>
          <g id="Grupo_112859" data-name="Grupo 112859" transform="translate(61.798)">
            <g id="Grupo_112858" data-name="Grupo 112858">
              <path id="Trazado_158879" data-name="Trazado 158879" d="M1591.2,747.094l-5.289,277.2h-18.641L1528.2,746.471Z" transform="translate(-1528.203 -746.471)" fill="#324d90"/>
              <g id="Grupo_112857" data-name="Grupo 112857" clip-path="url(#clip-path-3)">
                <path id="Trazado_158880" data-name="Trazado 158880" d="M1552.424,918.712c27.085,35.981,35.243,155.344,37.381,207.13h-16.352l-20.227-126.995-.8-80.135" transform="translate(-1541.954 -844.257)" fill="#2a437d"/>
              </g>
            </g>
            <path id="Trazado_158882" data-name="Trazado 158882" d="M1631.8,1389.179l2.057,7.207,22.221,9.523a7.2,7.2,0,0,1,4.364,6.617h-45.889l1.741-23.347Z" transform="translate(-1577.228 -1111.356)" fill="#152e60"/>
          </g>
          <path id="Trazado_158883" data-name="Trazado 158883" d="M1433.12,830.762h104.309l-103.855,20.182Z" transform="translate(-1412.423 -794.325)" fill="#2a437d"/>
        </g>
        <g id="Grupo_112868" data-name="Grupo 112868" transform="translate(132.517 53.411)">
          <g id="Grupo_112862" data-name="Grupo 112862" transform="translate(1.367)">
            <path id="Trazado_158884" data-name="Trazado 158884" d="M1505.7,375.9c-.978-8.138-5.163-19.63,8.185-23.2-7.847-15.378,28.2-5.563,31.154,2.353,3.226,7.572,1.179,20.845,1.179,20.845Z" transform="translate(-1504.304 -344.592)" fill="#59445a"/>
            <g id="Grupo_112861" data-name="Grupo 112861" clip-path="url(#clip-path-4)">
              <path id="Trazado_158885" data-name="Trazado 158885" d="M1510.561,363.342s.333,2.514,3.223,7.311h0l-9.343,15.047-3.339-.416c-3.565-11.463-5.948-18.763,9.459-21.942" transform="translate(-1500.983 -355.237)" fill="#1a1949"/>
            </g>
          </g>
          <g id="Grupo_112867" data-name="Grupo 112867" transform="translate(0 12.255)">
            <g id="Grupo_112863" data-name="Grupo 112863" transform="translate(0 17.36)">
              <path id="Trazado_158887" data-name="Trazado 158887" d="M1508.041,418.384c1.291,7.765-5.39,8.9-6.734,1.144C1500.015,411.763,1506.7,410.628,1508.041,418.384Z" transform="translate(-1501.142 -413.104)" fill="#eda19d"/>
              <path id="Trazado_158888" data-name="Trazado 158888" d="M1591.3,418.384c-1.293,7.765,5.389,8.9,6.733,1.144C1599.32,411.763,1592.639,410.628,1591.3,418.384Z" transform="translate(-1552.231 -413.104)" fill="#eda19d"/>
            </g>
            <g id="Grupo_112866" data-name="Grupo 112866" transform="translate(3.678)">
              <g id="Grupo_112865" data-name="Grupo 112865">
                <path id="Trazado_158889" data-name="Trazado 158889" d="M1548.071,396.548c-.476,30.6-37.761,30.592-38.234,0C1506.447,365.229,1550.449,364.923,1548.071,396.548Z" transform="translate(-1509.651 -372.944)" fill="#f4d2c6"/>
                <g id="Grupo_112864" data-name="Grupo 112864" clip-path="url(#clip-path-5)">
                  <path id="Trazado_158890" data-name="Trazado 158890" d="M1519.074,373.846s6.663,11.588,23.565,11.684l-1.145-3.438s3.517,2.435,11.928,1.934h0l-5.722-13.774-23.44-1.814Z" transform="translate(-1515.001 -370.386)" fill="#eda19d"/>
                </g>
              </g>
              <path id="Trazado_158892" data-name="Trazado 158892" d="M1547.492,440.551h-19.816c2.391,6.824-2.825,41-2.825,41h25.466S1545.1,447.375,1547.492,440.551Z" transform="translate(-1518.28 -411.326)" fill="#f4d2c6"/>
            </g>
          </g>
          <path id="Trazado_158893" data-name="Trazado 158893" d="M1531.281,474.024a16.757,16.757,0,0,0,19.271,0l.539,6.1s-11.093,5.393-20.37.277Z" transform="translate(-1517.935 -418.075)" fill="#eda19d"/>
          <path id="Trazado_158894" data-name="Trazado 158894" d="M1527.821,366.841s3.758,13.559,17.621,15.417l-2.018-5.387a21.54,21.54,0,0,0,14.964,6.037C1555.237,365.764,1539.836,365.8,1527.821,366.841Z" transform="translate(-1516.288 -357.012)" fill="#59445a"/>
        </g>
        <g id="Grupo_112869" data-name="Grupo 112869" transform="translate(95.437 121.677)">
          <path id="Trazado_158895" data-name="Trazado 158895" d="M1518.791,541.687c-4.184-27.872-25.467-41.838-49.316-38.748-19.042-.7-36.2,18.668-38.571,38.779-.305,2.013-15.541,102.666-15.541,102.666h118.974Z" transform="translate(-1415.363 -502.517)" fill="#4292f3"/>
        </g>
        <path id="Trazado_158896" data-name="Trazado 158896" d="M1524.355,501.888c4.294,12.735,20.5,12.73,24.8,0C1549.15,501.888,1538.545,496.148,1524.355,501.888Z" transform="translate(-1381.804 -379.034)" fill="#f4d2c6"/>
        <path id="Trazado_158897" data-name="Trazado 158897" d="M1519.04,505.238l11.829,9.587-4.9,3.1c-7.812,4.107-9.081-6.708-10.979-11.531A17.161,17.161,0,0,1,1519.04,505.238Z" transform="translate(-1376.489 -382.385)" fill="#fff"/>
        <path id="Trazado_158898" data-name="Trazado 158898" d="M1558.578,514.6l4.606,2.858a5.427,5.427,0,0,0,8.191-3.583l1.428-7.4s-3.228-1.07-4.223-1.234Z" transform="translate(-1401.233 -382.385)" fill="#fff"/>
        <path id="Trazado_158899" data-name="Trazado 158899" d="M1537.628,527.116,1526.9,611.53l11.273,18.523,12.422-17.565-10-85.6Z" transform="translate(-1383.248 -394.676)" fill="#2a437d"/>
        <g id="Grupo_112876" data-name="Grupo 112876" transform="translate(0 0)">
          <g id="Grupo_112875" data-name="Grupo 112875">
            <g id="Grupo_112874" data-name="Grupo 112874" transform="translate(28.022 62.719)">
              <g id="Grupo_112871" data-name="Grupo 112871" transform="translate(26.581)">
                <rect id="Rectángulo_36649" data-name="Rectángulo 36649" width="14.394" height="70.43" fill="#f9ce68"/>
                <g id="Grupo_112870" data-name="Grupo 112870" clip-path="url(#clip-path-6)">
                  <rect id="Rectángulo_36650" data-name="Rectángulo 36650" width="19.93" height="15.606" transform="translate(-2.673 -1.903)" fill="#f08f3c"/>
                </g>
              </g>
              <rect id="Rectángulo_36652" data-name="Rectángulo 36652" width="67.556" height="23.545" transform="translate(0 64.09)" fill="#2a437d"/>
              <rect id="Rectángulo_36653" data-name="Rectángulo 36653" width="51.776" height="16.553" transform="translate(7.89 67.43)" fill="#324d90"/>
              <g id="Grupo_112872" data-name="Grupo 112872" transform="translate(10.037 69.087)">
                <path id="Trazado_158900" data-name="Trazado 158900" d="M1285.257,527.229a1.317,1.317,0,0,1-2.633,0A1.317,1.317,0,0,1,1285.257,527.229Z" transform="translate(-1282.625 -525.948)" fill="#2a437d"/>
                <path id="Trazado_158901" data-name="Trazado 158901" d="M1285.257,552.127a1.317,1.317,0,0,1-2.633,0A1.317,1.317,0,0,1,1285.257,552.127Z" transform="translate(-1282.625 -540.083)" fill="#2a437d"/>
              </g>
              <g id="Grupo_112873" data-name="Grupo 112873" transform="translate(55.114 69.044)">
                <path id="Trazado_158902" data-name="Trazado 158902" d="M1389.538,527.13a1.317,1.317,0,0,1-2.632,0A1.317,1.317,0,0,1,1389.538,527.13Z" transform="translate(-1386.905 -525.849)" fill="#2a437d"/>
                <path id="Trazado_158903" data-name="Trazado 158903" d="M1389.538,552.028a1.317,1.317,0,0,1-2.632,0A1.317,1.317,0,0,1,1389.538,552.028Z" transform="translate(-1386.905 -539.985)" fill="#2a437d"/>
              </g>
            </g>
            <path id="Trazado_158904" data-name="Trazado 158904" d="M1318.71,251.452c.056-14.564-13.934-25.895-28.176-22.835v-7.585h-67.557v7.585c-41.449-3.7-37.838,58.606,12.911,57.782,11.272,9.5,30.464,9.5,41.736,0C1302.221,286.641,1320.909,269.875,1318.71,251.452Zm-110.856,17.832c-14.134-16.906-3.11-38.029,15.123-33.6.449,12.1-2.426,33.183,5.839,43.137C1221.075,277.754,1212.683,274.592,1207.854,269.284Zm97.8,0c-4.831,5.309-13.219,8.468-20.962,9.538,8.257-9.887,5.4-31.106,5.839-43.137C1308.759,231.258,1319.8,252.365,1305.657,269.284Z" transform="translate(-1194.581 -221.032)" fill="#f9ce68"/>
            <path id="Trazado_158905" data-name="Trazado 158905" d="M1302.8,228.567l8.379,16.978,18.736,2.723-13.558,13.216,3.2,18.661-16.758-8.81-16.759,8.81,3.2-18.661-13.558-13.216,18.736-2.723Z" transform="translate(-1240.627 -225.31)" fill="#f08f3c"/>
            <path id="Trazado_158906" data-name="Trazado 158906" d="M1367.476,232.567h14.553c-2.034,18.078,7.385,41.49-14.553,57.207Z" transform="translate(-1292.739 -227.581)" fill="#fff" opacity="0.18"/>
            <path id="Trazado_158907" data-name="Trazado 158907" d="M1345.9,232.567v57.215l-9.458-57.215Z" transform="translate(-1275.119 -227.581)" fill="#fff" opacity="0.18"/>
          </g>
          <path id="Trazado_158908" data-name="Trazado 158908" d="M1389.845,309.488l-19.861-8.546s15.55,10.187,19.282,11.823A11.354,11.354,0,0,0,1389.845,309.488Z" transform="translate(-1294.163 -266.399)" fill="#f08f3c"/>
        </g>
        <g id="Grupo_112878" data-name="Grupo 112878" transform="translate(60.66 123.913)">
          <path id="Trazado_158909" data-name="Trazado 158909" d="M1439.109,545.057,1423,560.526l-52.445-38.169h0c-1.875-4.837-4.063-10.767-9.158-13.038-1.667-.805-3.524-2.053-5.376-1.49l-7.4,2.755h5.4l2.618,4.056-6.688,3.112-13.811,1.642a1.4,1.4,0,0,0-1,2.173l3.085,4.577c3.8,7,15.836,4.962,22.282,5.572,22.645,21.131,46.093,76.676,78.54,54.5l21.065-20.592Z" transform="translate(-1334.91 -507.688)" fill="#f4d2c6"/>
          <g id="Grupo_112877" data-name="Grupo 112877" clip-path="url(#clip-path-7)">
            <path id="Trazado_158910" data-name="Trazado 158910" d="M1546.456,608.728l12.7,32.462,14.848-9.619-22.019-27.052Z" transform="translate(-1455.011 -562.662)" fill="#eda19d"/>
          </g>
        </g>
        <path id="Trazado_158912" data-name="Trazado 158912" d="M1552.134,556.648l27.205,32.169c10.295-10.58,30.435-24.127,27.536-41.344h0c-.138-16.383-18.865-24.505-30.824-31.536l-1.948,18.029Z" transform="translate(-1397.575 -388.458)" fill="#4292f3"/>
        <path id="Trazado_158913" data-name="Trazado 158913" d="M1577.384,660.448l9.582-9.365,6.709,7.933,20.141-19.431,5.307,39.252S1590.316,678.237,1577.384,660.448Z" transform="translate(-1411.91 -458.658)" fill="#3c7ed7"/>
        <path id="Trazado_158914" data-name="Trazado 158914" d="M1260.5,568.856c-1.985,2.041-4.017,2.381-6.456,2.843,9.831,4.624,9.063,3.22,16.919-2.843Z" transform="translate(-1228.34 -418.502)" fill="#eda19d"/>
      </g>
      <g id="Grupo_112884" data-name="Grupo 112884" transform="translate(999.958 410.172)">
        <g id="Grupo_112883" data-name="Grupo 112883" transform="translate(0)">
          <g id="Grupo_112882" data-name="Grupo 112882" transform="translate(0)">
            <g id="Grupo_112880" data-name="Grupo 112880" transform="translate(8.726)">
              <path id="Trazado_158915" data-name="Trazado 158915" d="M1558.82,1164.655l-1.1,3.854-7.527-7.481,1.1-3.854Z" transform="translate(-1550.194 -1141.809)" fill="#4292f3"/>
              <path id="Trazado_158916" data-name="Trazado 158916" d="M1563.883,1146.906l-1.1,3.854-7.527-7.481,1.1-3.854Z" transform="translate(-1554.151 -1127.937)" fill="#fff"/>
              <path id="Trazado_158917" data-name="Trazado 158917" d="M1568.9,1129.315l-1.1,3.854-7.527-7.481,1.1-3.854Z" transform="translate(-1558.072 -1114.189)" fill="#4292f3"/>
              <path id="Trazado_158918" data-name="Trazado 158918" d="M1573.864,1111.911l-1.1,3.854-7.526-7.481,1.1-3.854Z" transform="translate(-1561.951 -1100.587)" fill="#fff"/>
              <path id="Trazado_158919" data-name="Trazado 158919" d="M1578.881,1094.32l-1.1,3.854-7.527-7.481,1.1-3.854Z" transform="translate(-1565.872 -1086.839)" fill="#4292f3"/>
            </g>
            <g id="Grupo_112881" data-name="Grupo 112881" transform="translate(17.112 5.341)">
              <path id="Trazado_158920" data-name="Trazado 158920" d="M1618.983,1115.143l1.1-3.854-10.341,2.385-1.1,3.854Z" transform="translate(-1604.26 -1111.288)" fill="#4292f3"/>
              <path id="Trazado_158921" data-name="Trazado 158921" d="M1613.921,1132.892l1.1-3.854-10.341,2.385-1.1,3.854Z" transform="translate(-1600.304 -1125.16)" fill="#fff"/>
              <path id="Trazado_158922" data-name="Trazado 158922" d="M1608.9,1150.483l1.1-3.854-10.341,2.385-1.1,3.854Z" transform="translate(-1596.383 -1138.908)" fill="#4292f3"/>
              <path id="Trazado_158923" data-name="Trazado 158923" d="M1603.94,1167.887l1.1-3.854-10.341,2.385-1.1,3.854Z" transform="translate(-1592.503 -1152.51)" fill="#fff"/>
              <path id="Trazado_158924" data-name="Trazado 158924" d="M1598.923,1185.478l1.1-3.854-10.341,2.385-1.1,3.854Z" transform="translate(-1588.582 -1166.258)" fill="#4292f3"/>
            </g>
            <rect id="Rectángulo_36654" data-name="Rectángulo 36654" width="76.487" height="2.492" transform="matrix(0.274, -0.962, 0.962, 0.274, 0, 80.772)" fill="#152e60"/>
          </g>
        </g>
      </g>
    </g>
  </g>
</svg>
