<svg xmlns="http://www.w3.org/2000/svg" xmlns:xlink="http://www.w3.org/1999/xlink" width="54" height="54" viewBox="0 0 54 54">
  <defs>
    <clipPath id="clip-path">
      <rect id="Rectángulo_36627" data-name="Rectángulo 36627" width="54" height="54" transform="translate(946 2980)" fill="#fff"/>
    </clipPath>
  </defs>
  <g id="Enmascarar_grupo_224" data-name="Enmascarar grupo 224" transform="translate(-946 -2980)" clip-path="url(#clip-path)">
    <g id="fabrica" transform="translate(946 2980)">
      <g id="Grupo_112739" data-name="Grupo 112739">
        <path id="Trazado_158575" data-name="Trazado 158575" d="M46.17,20.081l-.233-2.32.233-.362-.388-4.163-.675-.419H40.545l-.554.419L39.6,17.4l.243.269L39.6,20.2l-.283.229L38.3,31.32l.5.372h8.227l.438-.372L46.453,20.429Z" fill="#dbedff"/>
        <path id="Trazado_158576" data-name="Trazado 158576" d="M42.52,20.429,42.8,20.2l.243-2.531L42.8,17.4l.388-4.163.554-.419h-3.2l-.554.419L39.6,17.4l.243.269L39.6,20.2l-.283.229L38.3,31.32l.5.372H42l-.5-.372Z" fill="#b5dcff"/>
        <path id="Trazado_158577" data-name="Trazado 158577" d="M50.5,31.32H34.686l-.82.8V50.329h16.98l.242-.216v-18.2A.588.588,0,0,0,50.5,31.32Z" fill="#8479c2"/>
        <path id="Trazado_158578" data-name="Trazado 158578" d="M38.3,31.908a.588.588,0,0,1,.588-.588H34.686l-.82.8V50.329h4.68l-.242-.216Z" fill="#6e60b8"/>
        <path id="Trazado_158579" data-name="Trazado 158579" d="M46.1,10.207H39.675a.55.55,0,0,0-.55.55v1.929a.55.55,0,0,0,.55.55H46.1a.55.55,0,0,0,.55-.55V10.757A.55.55,0,0,0,46.1,10.207Z" fill="#b5dcff"/>
        <path id="Trazado_158580" data-name="Trazado 158580" d="M42.219,12.686V10.757a.55.55,0,0,1,.55-.55H39.675a.55.55,0,0,0-.55.55v1.929a.55.55,0,0,0,.55.55h3.094A.55.55,0,0,1,42.219,12.686Z" fill="#8bcaff"/>
        <path id="Trazado_158581" data-name="Trazado 158581" d="M41.943,2.736a.472.472,0,0,1-.52-.258,3.092,3.092,0,0,0-4.841-.88.469.469,0,0,1-.634,0,3.086,3.086,0,0,0-4.17,0,.468.468,0,0,1-.634,0,3.087,3.087,0,1,0,0,4.551.468.468,0,0,1,.634,0,3.086,3.086,0,0,0,4.171,0,.469.469,0,0,1,.633,0,3.087,3.087,0,0,0,3.841.266.474.474,0,0,1,.584.025,2.136,2.136,0,1,0,.937-3.7Z" fill="#dbedff"/>
        <path id="Trazado_158582" data-name="Trazado 158582" d="M41.006,4.037a.474.474,0,0,0-.584-.025,3.087,3.087,0,0,1-3.841-.266.469.469,0,0,0-.633,0,3.086,3.086,0,0,1-4.171,0,.468.468,0,0,0-.634,0A3.109,3.109,0,0,1,26.2,2.673a3.1,3.1,0,0,0,4.941,3.475.468.468,0,0,1,.634,0,3.086,3.086,0,0,0,4.171,0,.469.469,0,0,1,.633,0,3.087,3.087,0,0,0,3.841.266.474.474,0,0,1,.584.025,2.14,2.14,0,0,0,3.536-1.614,2.11,2.11,0,0,0-.364-1.194,2.156,2.156,0,0,1-3.172.409Z" fill="#b5dcff"/>
        <path id="Trazado_158583" data-name="Trazado 158583" d="M39.32,20.429h7.133L46.17,17.4H39.6Z" fill="#f27182"/>
        <path id="Trazado_158584" data-name="Trazado 158584" d="M39.6,17.4l-.283,3.029h3.2L42.8,17.4Z" fill="#ed5469"/>
        <path id="Trazado_158585" data-name="Trazado 158585" d="M38.163,47.079h9.448V50.25H38.163Z" fill="#00d2fc"/>
        <path id="Trazado_158586" data-name="Trazado 158586" d="M38.163,47.079h4.444V50.25H38.163Z" fill="#00c2fb"/>
        <path id="Trazado_158587" data-name="Trazado 158587" d="M38.163,41.288h9.448v3.171H38.163Z" fill="#00d2fc"/>
        <path id="Trazado_158588" data-name="Trazado 158588" d="M38.163,41.288h4.444v3.171H38.163Z" fill="#00c2fb"/>
        <path id="Trazado_158589" data-name="Trazado 158589" d="M33.754,26.063l-9.3,4.683a.643.643,0,0,0-.354.574l-.357.372V50.329H34.252l.434-.216V26.637a.643.643,0,0,0-.932-.574Z" fill="#ffc365"/>
        <path id="Trazado_158590" data-name="Trazado 158590" d="M38.163,44.321h9.448v2.9H38.163Z" fill="#62ddfc"/>
        <path id="Trazado_158591" data-name="Trazado 158591" d="M38.163,44.321h4.444v2.9H38.163Z" fill="#00d2fc"/>
        <path id="Trazado_158592" data-name="Trazado 158592" d="M47.469,38.232H38.3a.5.5,0,0,1-.141-.023v3.216h9.448V38.209A.5.5,0,0,1,47.469,38.232Z" fill="#62ddfc"/>
        <path id="Trazado_158593" data-name="Trazado 158593" d="M42.54,38.232H38.229a.127.127,0,0,1-.067-.023v3.216h4.444V38.209A.126.126,0,0,1,42.54,38.232Z" fill="#00d2fc"/>
        <path id="Trazado_158594" data-name="Trazado 158594" d="M47.469,35.521H38.3a.55.55,0,0,0-.55.55V38a.55.55,0,0,0,.55.55h9.165a.55.55,0,0,0,.55-.55V36.071a.55.55,0,0,0-.55-.55Z" fill="#dbedff"/>
        <path id="Trazado_158595" data-name="Trazado 158595" d="M42.057,38V36.071a.55.55,0,0,1,.55-.55H38.3a.55.55,0,0,0-.55.55V38a.55.55,0,0,0,.55.55h4.3A.55.55,0,0,1,42.057,38Z" fill="#b5dcff"/>
        <path id="Trazado_158596" data-name="Trazado 158596" d="M27.061,32.344a.643.643,0,0,1,.354-.574l7.271-3.66V26.637a.643.643,0,0,0-.932-.574l-9.3,4.683a.643.643,0,0,0-.354.574V50.113h2.963V32.344Z" fill="#ffa90f"/>
        <path id="Trazado_158597" data-name="Trazado 158597" d="M23.166,26.063l-9.3,4.683a.643.643,0,0,0-.354.574l-.457.372V50.61h10.23l.814-.5V26.637a.643.643,0,0,0-.932-.574Z" fill="#ffc365"/>
        <path id="Trazado_158598" data-name="Trazado 158598" d="M16.473,32.344a.643.643,0,0,1,.354-.574L24.1,28.11V26.637a.643.643,0,0,0-.932-.574l-9.3,4.683a.643.643,0,0,0-.354.574V50.113h2.963V32.344Z" fill="#ffa90f"/>
        <path id="Trazado_158599" data-name="Trazado 158599" d="M12.578,26.063l-9.3,4.683a.643.643,0,0,0-.354.574V50.113H13.51V26.637a.643.643,0,0,0-.932-.574Z" fill="#ffc365"/>
        <path id="Trazado_158600" data-name="Trazado 158600" d="M5.885,32.344a.643.643,0,0,1,.354-.574l7.271-3.66V26.637a.643.643,0,0,0-.932-.574l-9.3,4.683a.643.643,0,0,0-.354.574V50.113H5.885V32.344Z" fill="#ffa90f"/>
        <path id="Trazado_158601" data-name="Trazado 158601" d="M52.449,50.007H1.56a.765.765,0,0,0-.765.765V52.44a.765.765,0,0,0,.765.765H52.449a.765.765,0,0,0,.765-.765V50.772A.764.764,0,0,0,52.449,50.007Z" fill="#dbedff"/>
        <path id="Trazado_158602" data-name="Trazado 158602" d="M52.449,51.606H1.56A.765.765,0,0,1,.8,50.841v1.6a.765.765,0,0,0,.765.765H52.449a.765.765,0,0,0,.765-.765v-1.6A.764.764,0,0,1,52.449,51.606Z" fill="#b5dcff"/>
        <g id="Grupo_112738" data-name="Grupo 112738">
          <path id="Trazado_158603" data-name="Trazado 158603" d="M31.175,33.678H27.609a.653.653,0,0,0-.653.653v3.988a.653.653,0,0,0,.653.653h3.566a.653.653,0,0,0,.653-.653V34.331A.653.653,0,0,0,31.175,33.678Z" fill="#00d2fc"/>
          <path id="Trazado_158604" data-name="Trazado 158604" d="M20.587,33.678H17.021a.653.653,0,0,0-.653.653v3.988a.653.653,0,0,0,.653.653h3.566a.653.653,0,0,0,.653-.653V34.331A.653.653,0,0,0,20.587,33.678Z" fill="#00d2fc"/>
          <path id="Trazado_158605" data-name="Trazado 158605" d="M10,33.678H6.433a.653.653,0,0,0-.653.653v3.988a.653.653,0,0,0,.653.653H10a.653.653,0,0,0,.653-.653V34.331A.653.653,0,0,0,10,33.678Z" fill="#00d2fc"/>
        </g>
        <path id="Trazado_158606" data-name="Trazado 158606" d="M29.392,38.319V34.331a.653.653,0,0,1,.653-.653H27.609a.653.653,0,0,0-.653.653v3.988a.653.653,0,0,0,.653.653h2.436A.653.653,0,0,1,29.392,38.319Z" fill="#00c2fb"/>
        <path id="Trazado_158607" data-name="Trazado 158607" d="M18.8,38.319V34.331a.653.653,0,0,1,.653-.653H17.021a.653.653,0,0,0-.653.653v3.988a.653.653,0,0,0,.653.653h2.436A.653.653,0,0,1,18.8,38.319Z" fill="#00c2fb"/>
        <path id="Trazado_158608" data-name="Trazado 158608" d="M8.216,38.319V34.331a.653.653,0,0,1,.653-.653H6.433a.653.653,0,0,0-.653.653v3.988a.653.653,0,0,0,.653.653H8.869A.653.653,0,0,1,8.216,38.319Z" fill="#00c2fb"/>
      </g>
      <g id="Grupo_112740" data-name="Grupo 112740">
        <path id="Trazado_158609" data-name="Trazado 158609" d="M6.428,39.767H9.994a1.446,1.446,0,0,0,1.444-1.444V34.336a1.446,1.446,0,0,0-1.444-1.444H6.428a1.446,1.446,0,0,0-1.444,1.444v3.988A1.446,1.446,0,0,0,6.428,39.767Zm.138-5.294h3.29v3.712H6.566Z"/>
        <path id="Trazado_158610" data-name="Trazado 158610" d="M17.016,39.767h3.566a1.446,1.446,0,0,0,1.444-1.444V34.336a1.446,1.446,0,0,0-1.444-1.444H17.016a1.446,1.446,0,0,0-1.444,1.444v3.988A1.446,1.446,0,0,0,17.016,39.767Zm.138-5.294h3.29v3.712h-3.29Z"/>
        <path id="Trazado_158611" data-name="Trazado 158611" d="M27.6,39.767H31.17a1.446,1.446,0,0,0,1.444-1.444V34.336a1.446,1.446,0,0,0-1.444-1.444H27.6a1.446,1.446,0,0,0-1.444,1.444v3.988A1.446,1.446,0,0,0,27.6,39.767Zm.138-5.294h3.29v3.712h-3.29Z"/>
        <path id="Trazado_158612" data-name="Trazado 158612" d="M42.015,1.924A3.888,3.888,0,0,0,36.259.833a3.9,3.9,0,0,0-4.8,0,3.875,3.875,0,0,0-3.963-.5,3.812,3.812,0,0,0-2.319,3.544,3.812,3.812,0,0,0,2.319,3.544,3.875,3.875,0,0,0,3.963-.5,3.9,3.9,0,0,0,4.8,0,3.9,3.9,0,0,0,4.413.273,2.928,2.928,0,1,0,1.341-5.268Zm-.49,3.924a1.262,1.262,0,0,0-1.558-.082,2.3,2.3,0,0,1-2.855-.2,1.265,1.265,0,0,0-1.705,0,2.3,2.3,0,0,1-3.1,0,1.263,1.263,0,0,0-1.709,0,2.264,2.264,0,0,1-2.475.4,2.222,2.222,0,0,1-1.368-2.093,2.222,2.222,0,0,1,1.368-2.093,2.259,2.259,0,0,1,2.475.4,1.263,1.263,0,0,0,1.71,0,2.3,2.3,0,0,1,3.1,0,1.264,1.264,0,0,0,1.707,0,2.3,2.3,0,0,1,3.6.654,1.26,1.26,0,0,0,1.4.676h0a1.346,1.346,0,1,1-.587,2.336Z"/>
        <path id="Trazado_158613" data-name="Trazado 158613" d="M52.445,49.326h-.571V31.913a1.381,1.381,0,0,0-1.379-1.379H48.185l-.314-3.361a.791.791,0,1,0-1.575.147l.3,3.214H39.168l.869-9.309h5.691l.224,2.4a.791.791,0,0,0,1.575-.147l-.892-9.564a1.342,1.342,0,0,0,.8-1.226V10.762a1.343,1.343,0,0,0-1.341-1.341H39.67a1.343,1.343,0,0,0-1.341,1.341v1.929a1.342,1.342,0,0,0,.8,1.226L37.579,30.534H35.472V26.642a1.434,1.434,0,0,0-2.078-1.281l-8.51,4.284v-3a1.434,1.434,0,0,0-2.078-1.281L14.3,29.645v-3a1.434,1.434,0,0,0-2.078-1.281l-9.3,4.683a1.427,1.427,0,0,0-.789,1.281v18H1.556A1.557,1.557,0,0,0,0,50.882v1.563A1.557,1.557,0,0,0,1.556,54h23.6a.791.791,0,0,0,0-1.582H1.582v-1.51H52.418v1.51H28.846a.791.791,0,1,0,0,1.582h23.6A1.557,1.557,0,0,0,54,52.444V50.882a1.557,1.557,0,0,0-1.555-1.555ZM40.184,19.642l.135-1.447h5.126l.135,1.447Zm.283-3.029.241-2.581h4.349l.241,2.581ZM39.911,11h5.941V12.45H39.911Zm-27.2,38.324H3.708V31.416l9.006-4.534Zm10.588,0H14.3V31.416L23.3,26.882Zm10.588,0H24.884V31.416l9.006-4.534Zm12.925,0H38.949V48.012h7.866Zm0-2.9H38.949V45.117h7.866Zm0-2.9H38.949V42.221h7.866Zm0-2.9H38.949V39.346h7.866Zm.409-2.875H38.54V36.316h8.684Zm3.068,11.563H48.4V38.966A1.336,1.336,0,0,0,48.806,38V36.075a1.343,1.343,0,0,0-1.341-1.341H38.3a1.343,1.343,0,0,0-1.341,1.341V38a1.336,1.336,0,0,0,.409.962v10.36H35.472V32.116h14.82Z"/>
      </g>
    </g>
  </g>
</svg>
