<svg xmlns="http://www.w3.org/2000/svg" xmlns:xlink="http://www.w3.org/1999/xlink" width="54" height="54" viewBox="0 0 54 54">
  <defs>
    <clipPath id="clip-path">
      <rect id="Rectángulo_36628" data-name="Rectángulo 36628" width="54" height="54" transform="translate(2099 -8720)" fill="#fff"/>
    </clipPath>
  </defs>
  <g id="Enmascarar_grupo_226" data-name="Enmascarar grupo 226" transform="translate(-2099 8720)" clip-path="url(#clip-path)">
    <g id="vision" transform="translate(2099 -8720)">
      <g id="Grupo_112743" data-name="Grupo 112743">
        <g id="Grupo_112741" data-name="Grupo 112741">
          <path id="Trazado_158621" data-name="Trazado 158621" d="M30.729,21.566V9.314h2.664L27,.791,20.608,9.314h2.664V21.566Z" fill="#9bd069"/>
        </g>
        <g id="Grupo_112742" data-name="Grupo 112742">
          <path id="Trazado_158622" data-name="Trazado 158622" d="M30.729,19.145a28.888,28.888,0,0,0-7.458,0v2.422h7.458V19.145Z" fill="#7dbe3b"/>
        </g>
      </g>
      <g id="Grupo_112746" data-name="Grupo 112746">
        <g id="Grupo_112744" data-name="Grupo 112744">
          <path id="Trazado_158623" data-name="Trazado 158623" d="M47.456,30.2V17.944h2.664L43.727,9.421l-6.392,8.523H40V30.2Z" fill="#9bd069"/>
        </g>
        <g id="Grupo_112745" data-name="Grupo 112745">
          <path id="Trazado_158624" data-name="Trazado 158624" d="M40,21.964V30.2h7.458V26.957A35.022,35.022,0,0,0,40,21.964Z" fill="#7dbe3b"/>
        </g>
      </g>
      <g id="Grupo_112749" data-name="Grupo 112749">
        <g id="Grupo_112747" data-name="Grupo 112747">
          <path id="Trazado_158625" data-name="Trazado 158625" d="M6.544,30.2V17.944H3.881l6.392-8.523,6.392,8.523H14V30.2Z" fill="#9bd069"/>
        </g>
        <g id="Grupo_112748" data-name="Grupo 112748">
          <path id="Trazado_158626" data-name="Trazado 158626" d="M6.544,26.957V30.2H14V21.964a35.022,35.022,0,0,0-7.458,4.993Z" fill="#7dbe3b"/>
        </g>
      </g>
      <g id="Grupo_112750" data-name="Grupo 112750">
        <path id="Trazado_158627" data-name="Trazado 158627" d="M27,21.247C9.954,21.247.791,37.228.791,37.228S9.954,53.209,27,53.209,53.209,37.228,53.209,37.228,44.046,21.247,27,21.247Z" fill="#f6f9f9"/>
      </g>
      <g id="Grupo_112751" data-name="Grupo 112751">
        <path id="Trazado_158628" data-name="Trazado 158628" d="M28.436,49.156a31.1,31.1,0,0,1-18.106-1.632A27.952,27.952,0,0,0,27,53.209c17.046,0,26.209-15.981,26.209-15.981A32.466,32.466,0,0,0,49.958,32.8c-3.655,6.057-10.4,13.965-21.521,16.359Z" fill="#f1f4f6"/>
      </g>
      <g id="Grupo_112752" data-name="Grupo 112752">
        <circle id="Elipse_4944" data-name="Elipse 4944" cx="10.654" cy="10.654" r="10.654" transform="translate(16.346 26.574)" fill="#cbe2ff"/>
      </g>
      <g id="Grupo_112756" data-name="Grupo 112756">
        <g id="Grupo_112753" data-name="Grupo 112753">
          <path id="Trazado_158629" data-name="Trazado 158629" d="M28.7,32.434h3.409v9.8H28.7Z" fill="#9bd069"/>
        </g>
        <g id="Grupo_112754" data-name="Grupo 112754">
          <path id="Trazado_158630" data-name="Trazado 158630" d="M25.3,34.671H28.7v7.564H25.3Z" fill="#e28086"/>
        </g>
        <g id="Grupo_112755" data-name="Grupo 112755">
          <path id="Trazado_158631" data-name="Trazado 158631" d="M21.886,36.8H25.3v5.434H21.886Z" fill="#ffe07d"/>
        </g>
      </g>
      <g id="Grupo_112757" data-name="Grupo 112757">
        <path id="Trazado_158632" data-name="Trazado 158632" d="M53.9,36.834A36.269,36.269,0,0,0,48.247,29.8V25.474a.791.791,0,0,0-1.582,0v2.854a34.351,34.351,0,0,0-5.876-4.2V17.944A.791.791,0,0,0,40,17.153H38.916l4.81-6.414,4.81,6.414H47.456a.791.791,0,0,0-.791.791v3.835a.791.791,0,1,0,1.582,0V18.735h1.872a.791.791,0,0,0,.633-1.266L44.36,8.946a.791.791,0,0,0-1.266,0L36.7,17.469a.791.791,0,0,0,.633,1.266h1.873V23.3q-.294-.143-.59-.28a27.97,27.97,0,0,0-7.1-2.2V16.389a.791.791,0,1,0-1.582,0v4.224a27.485,27.485,0,0,0-5.876,0V9.314a.791.791,0,0,0-.791-.791H22.19L27,2.109l4.81,6.414H30.729a.791.791,0,0,0-.791.791v3.367a.791.791,0,0,0,1.582,0V10.105h1.872a.791.791,0,0,0,.633-1.266L27.633.316a.791.791,0,0,0-1.266,0L19.975,8.84a.791.791,0,0,0,.633,1.266H22.48V20.83a27.963,27.963,0,0,0-7.1,2.2q-.3.136-.59.28v-4.57h1.872a.791.791,0,0,0,.633-1.266L10.906,8.946a.791.791,0,0,0-1.266,0L3.248,17.469a.791.791,0,0,0,.633,1.266H5.753v3.044a.791.791,0,0,0,1.582,0V17.944a.791.791,0,0,0-.791-.791H5.463l4.81-6.414,4.81,6.414H14a.791.791,0,0,0-.791.791v6.189a34.356,34.356,0,0,0-5.876,4.2V25.474a.791.791,0,0,0-1.582,0V29.8A36.271,36.271,0,0,0,.1,36.835a.791.791,0,0,0,0,.787,37.192,37.192,0,0,0,6.868,8.184,33.47,33.47,0,0,0,8.41,5.625,27.548,27.548,0,0,0,23.235,0,33.468,33.468,0,0,0,8.41-5.625A37.192,37.192,0,0,0,53.9,37.621.791.791,0,0,0,53.9,36.834Zm-7.966,7.831C42,48.2,35.534,52.418,27,52.418S12,48.2,8.071,44.665a37.489,37.489,0,0,1-6.352-7.438A37.5,37.5,0,0,1,8.071,29.79C12,26.254,18.466,22.038,27,22.038s15,4.216,18.929,7.752a37.487,37.487,0,0,1,6.352,7.438A37.5,37.5,0,0,1,45.929,44.665Z"/>
        <path id="Trazado_158633" data-name="Trazado 158633" d="M27,25.783A11.445,11.445,0,1,0,38.445,37.228,11.458,11.458,0,0,0,27,25.783Zm0,21.308a9.863,9.863,0,1,1,9.863-9.863A9.874,9.874,0,0,1,27,47.091Z"/>
        <path id="Trazado_158634" data-name="Trazado 158634" d="M32.114,31.643H28.7a.791.791,0,0,0-.791.791V33.88H25.3a.791.791,0,0,0-.791.791v1.34H21.886a.791.791,0,0,0-.791.791v5.434a.791.791,0,0,0,.791.791H32.114a.791.791,0,0,0,.791-.791v-9.8a.791.791,0,0,0-.791-.791Zm-9.437,5.95H24.5v3.852H22.677Zm3.409-2.131h1.827v5.982H26.086Zm5.237,5.982H29.5v-8.22h1.827Z"/>
        <path id="Trazado_158635" data-name="Trazado 158635" d="M45.325,36.437H41.063a.791.791,0,0,0,0,1.582h4.262a.791.791,0,1,0,0-1.582Z"/>
        <path id="Trazado_158636" data-name="Trazado 158636" d="M42.875,39.846H40.744a.791.791,0,0,0,0,1.582h2.131a.791.791,0,0,0,0-1.582Z"/>
        <path id="Trazado_158637" data-name="Trazado 158637" d="M40.744,34.61h2.131a.791.791,0,0,0,0-1.582H40.744a.791.791,0,0,0,0,1.582Z"/>
        <path id="Trazado_158638" data-name="Trazado 158638" d="M13.728,37.228a.791.791,0,0,0-.791-.791H8.675a.791.791,0,0,0,0,1.582h4.262A.791.791,0,0,0,13.728,37.228Z"/>
        <path id="Trazado_158639" data-name="Trazado 158639" d="M13.256,39.846H11.125a.791.791,0,0,0,0,1.582h2.131a.791.791,0,0,0,0-1.582Z"/>
        <path id="Trazado_158640" data-name="Trazado 158640" d="M13.256,33.028H11.125a.791.791,0,0,0,0,1.582h2.131a.791.791,0,0,0,0-1.582Z"/>
      </g>
    </g>
  </g>
</svg>
