<svg xmlns="http://www.w3.org/2000/svg" xmlns:xlink="http://www.w3.org/1999/xlink" width="54" height="54" viewBox="0 0 54 54">
  <defs>
    <clipPath id="clip-path">
      <rect id="Rectángulo_36629" data-name="Rectángulo 36629" width="54" height="54" transform="translate(2099 -8524)" fill="#fff"/>
    </clipPath>
  </defs>
  <g id="Enmascarar_grupo_225" data-name="Enmascarar grupo 225" transform="translate(-2099 8524)" clip-path="url(#clip-path)">
    <g id="Fill_out_line" data-name="Fill out line" transform="translate(2097.2 -8525.8)">
      <path id="Trazado_158614" data-name="Trazado 158614" d="M37.8,41.4l-9.9,9.9-7.2-7.2,3.6-3.6V35.1l6.3-6.3a3.8,3.8,0,0,1,1.111,2.489c0,.071.007.141.007.211A3.808,3.808,0,0,1,30.6,34.2Z" fill="#f4ceaf"/>
      <path id="Trazado_158615" data-name="Trazado 158615" d="M28.8,36,36,43.2l4.5-4.5-7.2-7.2Z" fill="#f4ceaf"/>
      <path id="Trazado_158616" data-name="Trazado 158616" d="M7.2,55.8,21.6,41.4l9.9,9.9L27,55.8Z" fill="#8acce7"/>
      <rect id="Rectángulo_36645" data-name="Rectángulo 36645" width="3.818" height="12.728" transform="translate(36 43.2) rotate(-45)" fill="#ad7d4d"/>
      <rect id="Rectángulo_36646" data-name="Rectángulo 36646" width="3.818" height="25.456" transform="translate(8.1 15.3) rotate(-45)" fill="#ad7d4d"/>
      <path id="Trazado_158617" data-name="Trazado 158617" d="M26.1,13.5,36.9,2.7,49.5,15.3l-9.45,9.45a1.909,1.909,0,0,1-2.7,0Z" fill="#eebe33"/>
      <path id="Trazado_158618" data-name="Trazado 158618" d="M10.8,18,22.95,5.85a1.909,1.909,0,0,1,2.7,0l12.6,12.6h0a1.909,1.909,0,0,0-2.7,0L23.4,30.6Z" fill="#eedc9a"/>
      <path id="Trazado_158619" data-name="Trazado 158619" d="M38.809,19.8a1.9,1.9,0,0,1-.559,1.35l-.9.9a1.909,1.909,0,0,0,0,2.7L33.3,20.7l2.25-2.25a1.909,1.909,0,0,1,3.259,1.35Z" fill="#e88604"/>
      <path id="Trazado_158620" data-name="Trazado 158620" d="M33.3,21.973l3.414,3.414a2.813,2.813,0,0,0,3.973,0l9.45-9.45a.9.9,0,0,0,0-1.273l-12.6-12.6a.9.9,0,0,0-1.273,0L29.7,8.627,26.286,5.214a2.813,2.813,0,0,0-3.973,0L13.5,14.027l-2.064-2.064a.9.9,0,0,0-1.273,0l-2.7,2.7a.9.9,0,0,0,0,1.273L24.827,33.3l-1.164,1.164a.9.9,0,0,0-.264.636v5.027l-.9.9-.264-.264a.9.9,0,0,0-1.273,0l-13.5,13.5,1.273,1.273L21.6,42.673,30.227,51.3l-2.964,2.964,1.273,1.273,3.6-3.6a.9.9,0,0,0,0-1.273L30.973,49.5,36,44.473l8.364,8.364a.9.9,0,0,0,1.273,0l2.7-2.7a.9.9,0,0,0,0-1.273L39.973,40.5l1.164-1.164a.9.9,0,0,0,0-1.273l-7.2-7.2a.9.9,0,0,0-1.273,0l-.079.079a4.682,4.682,0,0,0-1.348-2.779.9.9,0,0,0-1.273,0L28.8,29.327,27.373,27.9Zm4.314-1.459-.9.9a2.794,2.794,0,0,0-.58.847l-1.56-1.56,1.614-1.614a1.009,1.009,0,0,1,1.427,1.427ZM36.9,3.973,48.227,15.3l-8.814,8.814a1.009,1.009,0,1,1-1.427-1.427l.9-.9a2.81,2.81,0,0,0,0-3.973L30.973,9.9ZM23.586,6.486a1.01,1.01,0,0,1,1.427,0L35.76,17.232a2.8,2.8,0,0,0-.846.581L23.4,29.327,12.073,18ZM10.8,13.873,12.227,15.3,10.8,16.727,9.373,15.3ZM46.427,49.5,45,50.927,37.273,43.2,38.7,41.773ZM33.3,32.773,39.227,38.7,36,41.927,30.073,36l1.164-1.164h0l0,0Zm-2.8-2.6a2.923,2.923,0,0,1-.537,3.391l-1.8,1.8a.9.9,0,0,0,0,1.273,4.2,4.2,0,0,1,0,5.927l1.273,1.273a5.971,5.971,0,0,0,1.751-4.177l3.54,3.54L29.7,48.227,23.773,42.3l1.164-1.164A.9.9,0,0,0,25.2,40.5V35.473Zm-2.973.428L26.1,32.027,24.673,30.6,26.1,29.173Z"/>
    </g>
  </g>
</svg>
