<svg xmlns="http://www.w3.org/2000/svg" xmlns:xlink="http://www.w3.org/1999/xlink" width="54" height="54" viewBox="0 0 54 54">
  <defs>
    <clipPath id="clip-path">
      <rect id="Rectángulo_36630" data-name="Rectángulo 36630" width="54" height="54" transform="translate(2099 -8377)" fill="#fff"/>
    </clipPath>
  </defs>
  <g id="Enmascarar_grupo_227" data-name="Enmascarar grupo 227" transform="translate(-2099 8377)" clip-path="url(#clip-path)">
    <g id="objetivo" transform="translate(2099 -8377)">
      <g id="Grupo_112759" data-name="Grupo 112759">
        <circle id="Elipse_4945" data-name="Elipse 4945" cx="24.167" cy="24.167" r="24.167" transform="translate(0.791 4.875)" fill="#e94444"/>
        <circle id="Elipse_4946" data-name="Elipse 4946" cx="17.524" cy="17.524" r="17.524" transform="translate(7.434 11.518)" fill="#ebebeb"/>
        <circle id="Elipse_4947" data-name="Elipse 4947" cx="10.881" cy="10.881" r="10.881" transform="translate(14.077 18.161)" fill="#e94444"/>
        <circle id="Elipse_4948" data-name="Elipse 4948" cx="4.238" cy="4.238" r="4.238" transform="translate(20.72 24.804)" fill="#5a5a5a"/>
        <path id="Trazado_158641" data-name="Trazado 158641" d="M24.958,4.875c-.7,0-1.4.032-2.092.091a24.167,24.167,0,0,1,0,48.152c.69.059,1.387.091,2.092.091a24.167,24.167,0,0,0,0-48.334Z" fill="#d83131"/>
        <g id="Grupo_112758" data-name="Grupo 112758">
          <path id="Trazado_158642" data-name="Trazado 158642" d="M47.362.9l-5.3,5.3a1.123,1.123,0,0,0-.327.864l.307,4.892,6.246-6.246L48,1.142A.374.374,0,0,0,47.362.9Z" fill="#0055a3"/>
          <path id="Trazado_158643" data-name="Trazado 158643" d="M53.1,6.638l-5.3,5.3a1.123,1.123,0,0,1-.864.327l-4.892-.307,6.246-6.246L52.857,6a.374.374,0,0,1,.241.638Z" fill="#0055a3"/>
        </g>
      </g>
      <path id="Trazado_158644" data-name="Trazado 158644" d="M47,13.059a1.914,1.914,0,0,0,1.353-.561l5.3-5.3a1.166,1.166,0,0,0-.751-1.987l-2.821-.177,1.841-1.841a.791.791,0,0,0-1.119-1.119L48.967,3.914,48.79,1.093A1.166,1.166,0,0,0,46.8.342l-5.3,5.3a1.914,1.914,0,0,0-.557,1.473l.182,2.9A24.962,24.962,0,0,0,6.492,45.832a.791.791,0,0,0,1.17-1.065,23.388,23.388,0,0,1,33.272-32.82l-3.609,3.609A18.3,18.3,0,0,0,8.671,37.414h0a18.315,18.315,0,0,0,34.221-4.649.791.791,0,1,0-1.549-.321,16.733,16.733,0,0,1-31.267,4.244h0a16.515,16.515,0,0,1-1.852-7.647A16.716,16.716,0,0,1,36.206,16.675l-3.577,3.577a11.686,11.686,0,1,0,1.119,1.119l3.577-3.577a16.661,16.661,0,0,1,4.366,11.151.791.791,0,0,0,.791.786h0a.791.791,0,0,0,.786-.8,18.239,18.239,0,0,0-4.829-12.261l3.61-3.61a23.388,23.388,0,0,1-31.8,34.152.791.791,0,1,0-1,1.229,24.959,24.959,0,0,0,40.656-19.4,24.756,24.756,0,0,0-4.909-14.866q-.5-.672-1.037-1.3c3.1.195,2.934.187,3.032.187ZM35.048,29.042a10.1,10.1,0,1,1-3.54-7.669l-3.6,3.6a5.036,5.036,0,1,0,1.119,1.119l3.6-3.6A10.046,10.046,0,0,1,35.048,29.042ZM24.4,29.6a.791.791,0,0,0,1.119,0l2.371-2.371a3.451,3.451,0,1,1-1.119-1.119L24.4,28.483a.791.791,0,0,0,0,1.119ZM42.524,7.018a.331.331,0,0,1,.1-.255l4.649-4.649.207,3.292-4.755,4.755Zm1.316,4.262,4.755-4.755,3.292.207L47.238,11.38a.331.331,0,0,1-.255.1Z"/>
    </g>
  </g>
</svg>
