<svg xmlns="http://www.w3.org/2000/svg" xmlns:xlink="http://www.w3.org/1999/xlink" width="54" height="54" viewBox="0 0 54 54">
  <defs>
    <clipPath id="clip-path">
      <rect id="Rectángulo_36631" data-name="Rectángulo 36631" width="54" height="54" transform="translate(2099 -8230)" fill="#fff"/>
    </clipPath>
  </defs>
  <g id="Enmascarar_grupo_228" data-name="Enmascarar grupo 228" transform="translate(-2099 8230)" clip-path="url(#clip-path)">
    <g id="producto" transform="translate(2099 -8230)">
      <g id="Grupo_112760" data-name="Grupo 112760">
        <path id="Trazado_158645" data-name="Trazado 158645" d="M45.957,25.071l-8.048,3.906L27,29.4,15.742,29.22l-7.7-4.149L27,20.737Z" fill="#f4aa73"/>
        <path id="Trazado_158646" data-name="Trazado 158646" d="M28.21,9.113l3.658,7.412a1.35,1.35,0,0,0,1.016.738l8.18,1.189a1.35,1.35,0,0,1,.748,2.3l-4.958,4.833-1.209.943a1.35,1.35,0,0,0-.388,1.195L36.9,35.866a1.35,1.35,0,0,1-1.958,1.423l-7.316-3.846a1.35,1.35,0,0,0-1.256,0l-7.316,3.846A1.35,1.35,0,0,1,17.1,35.866l2.24-8.1a1.35,1.35,0,0,0-.388-1.195l-4.986-5.559a1.35,1.35,0,0,1,.748-2.3l5.97-1.387.435-.063a1.35,1.35,0,0,0,1.016-.738L25.79,9.113a1.35,1.35,0,0,1,2.421,0Z" fill="#ffef92"/>
        <path id="Trazado_158647" data-name="Trazado 158647" d="M34.945,37.29l-7.317-3.847a1.354,1.354,0,0,0-1.256,0L19.055,37.29A1.35,1.35,0,0,1,17.1,35.866l1.4-8.146a1.35,1.35,0,0,0-.387-1.2l-5.92-5.769a1.35,1.35,0,0,1,.748-2.3l7.745-1.126a12.256,12.256,0,0,0,16.175,8.26l-.961.937a1.35,1.35,0,0,0-.387,1.2l1.4,8.146a1.35,1.35,0,0,1-1.959,1.424Z" fill="#fee45a"/>
        <path id="Trazado_158648" data-name="Trazado 158648" d="M45.957,25.071V48.039a1.084,1.084,0,0,1-.841,1.056L27,53.236,24.919,41.774,27,29.4l3.818.377,4.669-2.317Z" fill="#f4aa73"/>
        <path id="Trazado_158649" data-name="Trazado 158649" d="M27,29.4V53.236L11.209,49.627,9.626,48.58a1.084,1.084,0,0,1-.841-1.056L8.043,25.071l10.619,5Z" fill="#e29a6c"/>
        <path id="Trazado_158650" data-name="Trazado 158650" d="M11.209,25.8V49.627L8.884,49.1a1.084,1.084,0,0,1-.841-1.056V25.071Z" fill="#d48c64"/>
        <path id="Trazado_158651" data-name="Trazado 158651" d="M27,29.4l-6.851,6.851a.211.211,0,0,1-.2.057L4.484,32.83l-2.417-.858a.211.211,0,0,1-.1-.355l6.092-5.842,3.295.053Z" fill="#fbbd80"/>
        <path id="Trazado_158652" data-name="Trazado 158652" d="M11.35,25.827l-6.866,7-3.055-.688a.211.211,0,0,1-.1-.356l6.717-6.715,2.694.054Z" fill="#f4aa73"/>
        <path id="Trazado_158653" data-name="Trazado 158653" d="M27,29.4l6.851,6.851a.211.211,0,0,0,.2.057l18.525-4.169a.211.211,0,0,0,.1-.355l-6.717-6.716Z" fill="#fbbd80"/>
      </g>
      <g id="Grupo_112761" data-name="Grupo 112761">
        <path id="Trazado_158654" data-name="Trazado 158654" d="M53.5,31.5l-6.987-6.987a.821.821,0,0,0-.383-.212l-5.527-1.263,1.759-1.714a2.141,2.141,0,0,0-1.187-3.652L33,16.481a.558.558,0,0,1-.42-.305L28.92,8.763a2.141,2.141,0,0,0-3.84,0l-3.658,7.412a.558.558,0,0,1-.42.305l-1.945.283a.791.791,0,0,0,.228,1.566l1.945-.283a2.141,2.141,0,0,0,1.612-1.171L26.5,9.463a.558.558,0,0,1,1,0l3.658,7.412a2.141,2.141,0,0,0,1.612,1.171l8.18,1.189a.558.558,0,0,1,.309.952l-5.919,5.77a2.134,2.134,0,0,0-.535.85L27,28.592l-7.807-1.784a2.132,2.132,0,0,0-.535-.85l-5.919-5.77a.558.558,0,0,1,.309-.952l2.634-.383a.791.791,0,0,0-.228-1.566l-2.634.383a2.141,2.141,0,0,0-1.187,3.652l1.758,1.714L7.866,24.3a.746.746,0,0,0-.383.212L.5,31.5A.792.792,0,0,0,.882,32.83l6.37,1.434V48.039a1.865,1.865,0,0,0,1.457,1.828l4.675,1.069a.791.791,0,0,0,.353-1.543L9.061,48.324a.29.29,0,0,1-.227-.284V34.62l11.059,2.489a.792.792,0,0,0,.733-.212l5.582-5.582v9.253a.791.791,0,0,0,1.583,0V31.315L33.374,36.9a.792.792,0,0,0,.733.212l3.956-.89a.791.791,0,0,0-.347-1.544l-3.53.795-5.613-5.613L45.707,25.94,51.369,31.6,41.3,33.868a.791.791,0,0,0,.347,1.544l3.52-.792v13.42a.29.29,0,0,1-.227.284l-17.148,3.92V44.261a.791.791,0,0,0-1.583,0v7.982l-8.879-2.03a.791.791,0,0,0-.353,1.543l9.612,2.2a1.856,1.856,0,0,0,.823,0l17.88-4.087a1.865,1.865,0,0,0,1.457-1.828V34.264l6.369-1.434A.791.791,0,0,0,53.5,31.5ZM39.258,24.351l3.148.72-5.077,1.16Zm-22.586,1.88-5.077-1.16,3.148-.72Zm3.144,9.238L2.631,31.6,8.293,25.94l17.136,3.917Z"/>
        <path id="Trazado_158655" data-name="Trazado 158655" d="M27,4.833a.791.791,0,0,0,.791-.791V.791a.791.791,0,0,0-1.583,0v3.25A.791.791,0,0,0,27,4.833Z"/>
        <path id="Trazado_158656" data-name="Trazado 158656" d="M33.165,10.767a.791.791,0,0,0,1.115-.1l2.089-2.49a.791.791,0,1,0-1.212-1.017l-2.089,2.49a.791.791,0,0,0,.1,1.115Z"/>
        <path id="Trazado_158657" data-name="Trazado 158657" d="M42.877,14.137a.788.788,0,0,0,.508-.185l2.489-2.089a.791.791,0,1,0-1.017-1.212L42.368,12.74a.791.791,0,0,0,.509,1.4Z"/>
        <path id="Trazado_158658" data-name="Trazado 158658" d="M19.72,10.67a.791.791,0,0,0,1.213-1.017l-2.089-2.49A.791.791,0,0,0,17.631,8.18Z"/>
        <path id="Trazado_158659" data-name="Trazado 158659" d="M8.125,11.863l2.49,2.089a.791.791,0,1,0,1.017-1.212l-2.49-2.089a.791.791,0,1,0-1.017,1.212Z"/>
      </g>
    </g>
  </g>
</svg>
