<svg xmlns="http://www.w3.org/2000/svg" xmlns:xlink="http://www.w3.org/1999/xlink" width="54" height="54" viewBox="0 0 54 54">
  <defs>
    <clipPath id="clip-path">
      <rect id="Rectángulo_36632" data-name="Rectángulo 36632" width="54" height="54" transform="translate(2099 -8059)" fill="#fff"/>
    </clipPath>
  </defs>
  <g id="Enmascarar_grupo_229" data-name="Enmascarar grupo 229" transform="translate(-2099 8059)" clip-path="url(#clip-path)">
    <g id="asistencia-social" transform="translate(2099 -8059)">
      <g id="Grupo_112762" data-name="Grupo 112762">
        <path id="Trazado_158660" data-name="Trazado 158660" d="M11.17,41.015,7.727,37.351a6.344,6.344,0,0,1-1.721-4.344V20.033a2.476,2.476,0,0,0-1.94-2.417h0a2.476,2.476,0,0,0-3.012,2.417V36.386a9.215,9.215,0,0,0,1.7,5.335L4.637,44.37l4.5,6.339,1.588,2.237h12l-1.728-8.236a14.559,14.559,0,0,0-6.125-9.092l-3.689-2.481a2.644,2.644,0,0,0-3.454.441h0a2.845,2.845,0,0,0,.06,3.84c2.02,2.141,5.026,5.342,5.026,5.342" fill="#ffcdac"/>
        <path id="Trazado_158661" data-name="Trazado 158661" d="M42.83,41.015l3.443-3.664a6.344,6.344,0,0,0,1.721-4.344V20.033a2.476,2.476,0,0,1,1.94-2.417h0a2.476,2.476,0,0,1,3.012,2.417V36.386a9.215,9.215,0,0,1-1.7,5.335L49.363,44.37l-4.5,6.339-1.588,2.237h-12l1.728-8.236a14.559,14.559,0,0,1,6.125-9.092l3.689-2.481a2.644,2.644,0,0,1,3.454.441h0a2.845,2.845,0,0,1-.06,3.84c-2.02,2.141-5.026,5.342-5.026,5.342" fill="#ffcdac"/>
      </g>
      <g id="Grupo_112763" data-name="Grupo 112763">
        <path id="Trazado_158662" data-name="Trazado 158662" d="M29.546,22.326a3.892,3.892,0,0,1,1.9-1.087l2.693-.645V18.949h3.289V20.6h0l2.686.642a3.9,3.9,0,0,1,3,3.8V27H37.155Z" fill="#7d9bff"/>
        <path id="Trazado_158663" data-name="Trazado 158663" d="M24.468,22.32a3.892,3.892,0,0,0-1.9-1.087l-2.693-.645V18.943H16.586v1.649h0l-2.686.642a3.9,3.9,0,0,0-3,3.8V27h5.954Z" fill="#7d9bff"/>
      </g>
      <path id="Trazado_158664" data-name="Trazado 158664" d="M24.713,22.261l-3.751.9a5.435,5.435,0,0,0-4.169,5.286v3.793H37.207V28.449a5.435,5.435,0,0,0-4.172-5.286l-3.741-.894" fill="#78d2fa"/>
      <path id="Trazado_158665" data-name="Trazado 158665" d="M29.293,19.971v2.3L27,27.475l-2.291-5.213v-2.29" fill="#ffb487"/>
      <path id="Trazado_158666" data-name="Trazado 158666" d="M32.119,12.082v3.172a5.106,5.106,0,0,1-5.106,5.106h0a5.106,5.106,0,0,1-5.106-5.106V12.082" fill="#ffcdac"/>
      <path id="Trazado_158667" data-name="Trazado 158667" d="M27.013,6.75h0a5.106,5.106,0,0,0-5.106,5.106v1.229h2.5a5.609,5.609,0,0,0,4.3-2.007h0l3.416,2.007V11.856A5.106,5.106,0,0,0,27.013,6.75Z" fill="#bebebe"/>
      <path id="Trazado_158668" data-name="Trazado 158668" d="M21.9,14v-.882a3.666,3.666,0,0,0-3.666-3.666h0a3.666,3.666,0,0,0-3.666,3.666V14h2.527a8.739,8.739,0,0,0,4.492-1.243h0" fill="#f5b955"/>
      <path id="Trazado_158669" data-name="Trazado 158669" d="M21.9,13.279v2.277a3.666,3.666,0,0,1-3.666,3.666h0a3.666,3.666,0,0,1-3.666-3.666V13.279" fill="#ffcdac"/>
      <path id="Trazado_158670" data-name="Trazado 158670" d="M32.115,14v-.882a3.666,3.666,0,0,1,3.666-3.666h0a3.666,3.666,0,0,1,3.666,3.666V14H36.92a8.739,8.739,0,0,1-4.492-1.243h0" fill="#f5b955"/>
      <path id="Trazado_158671" data-name="Trazado 158671" d="M32.115,13.284v2.277a3.666,3.666,0,0,0,3.666,3.666h0a3.666,3.666,0,0,0,3.666-3.666V13.284" fill="#ffcdac"/>
      <path id="Trazado_158672" data-name="Trazado 158672" d="M10,50.1a1.055,1.055,0,1,0-1.72,1.221l1.588,2.237a1.055,1.055,0,1,0,1.72-1.221Z"/>
      <path id="Trazado_158673" data-name="Trazado 158673" d="M22.024,44.493a15.532,15.532,0,0,0-6.569-9.751l-3.689-2.481a3.711,3.711,0,0,0-4.7.48V20.032a3.531,3.531,0,0,0-5.74-2.754A3.514,3.514,0,0,0,0,20.032V36.386a10.216,10.216,0,0,0,1.9,5.945L3.777,44.98A1.055,1.055,0,0,0,5.5,43.759L3.616,41.11a8.118,8.118,0,0,1-1.506-4.724V20.032a1.421,1.421,0,1,1,2.843,0V33.007a7.369,7.369,0,0,0,1.9,4.948c.053.063.107.125.164.186.7.742,1.524,1.617,2.3,2.441L10.4,41.737l.011.01,1.628,1.733a1.055,1.055,0,1,0,1.538-1.444c-.019-.02-1.254-1.335-2.664-2.834L8.5,36.629l-.018-.02a1.78,1.78,0,0,1,.034-2.332,1.6,1.6,0,0,1,2.076-.265l3.689,2.481a13.433,13.433,0,0,1,5.681,8.434l1.728,8.236a1.055,1.055,0,1,0,2.064-.433Z"/>
      <path id="Trazado_158674" data-name="Trazado 158674" d="M7.807,47.014A1.055,1.055,0,0,0,6.09,48.24l.007.009a1.055,1.055,0,0,0,1.717-1.225Z"/>
      <path id="Trazado_158675" data-name="Trazado 158675" d="M52.679,17.279a3.531,3.531,0,0,0-5.74,2.754V32.741a3.711,3.711,0,0,0-4.7-.48l-3.689,2.481a15.532,15.532,0,0,0-6.569,9.751l-1.728,8.236a1.055,1.055,0,1,0,2.064.433l1.728-8.236a13.434,13.434,0,0,1,5.681-8.434l3.689-2.481a1.594,1.594,0,0,1,2.076.265,1.78,1.78,0,0,1,.037,2.33l-.02.022-5.082,5.407a1.055,1.055,0,1,0,1.538,1.444c.014-.015,4.324-4.6,5.024-5.34.057-.06.111-.123.164-.186a7.37,7.37,0,0,0,1.9-4.948V20.032a1.421,1.421,0,1,1,2.843,0V36.386a8.118,8.118,0,0,1-1.506,4.724L42.416,52.335a1.055,1.055,0,1,0,1.72,1.221L52.1,42.331A10.216,10.216,0,0,0,54,36.386V20.032A3.515,3.515,0,0,0,52.679,17.279Z"/>
      <path id="Trazado_158676" data-name="Trazado 158676" d="M37.207,33.293a1.055,1.055,0,0,0,1.055-1.055V28.449c0-.131-.005-.26-.013-.389h4.86A1.055,1.055,0,0,0,44.163,27v-1.97a4.941,4.941,0,0,0-3.805-4.821l-1.876-.448v-.336A4.717,4.717,0,0,0,40.5,15.562V13.122a4.717,4.717,0,0,0-7.783-3.588A6.158,6.158,0,0,0,21.3,9.543a4.717,4.717,0,0,0-7.793,3.579v2.439a4.717,4.717,0,0,0,2.019,3.868v.336l-1.876.448A4.941,4.941,0,0,0,9.85,25.035V27A1.055,1.055,0,0,0,10.9,28.059h4.846c-.007.128-.013.256-.013.386v3.792a1.055,1.055,0,0,0,1.055,1.055h6.34a1.055,1.055,0,1,0,0-2.109h-1.09V29a1.055,1.055,0,1,0-2.109,0v2.18H17.848V28.446a4.367,4.367,0,0,1,3.36-4.26l2.894-.694L26.038,27.9a1.055,1.055,0,0,0,.965.63h0a1.055,1.055,0,0,0,.965-.63L29.9,23.5l2.885.689a4.366,4.366,0,0,1,3.363,4.261v2.735H34.066V29a1.055,1.055,0,0,0-2.109,0v2.18h-1.2a1.055,1.055,0,1,0,0,2.109ZM23.658,20.5a4.949,4.949,0,0,0-.844-.285l-1.884-.452v-.329a4.759,4.759,0,0,0,.914-.835,6.209,6.209,0,0,0,1.814,1.819Zm-8.036-4.936v-.5h1.472a9.8,9.8,0,0,0,3.75-.747v1.249a2.611,2.611,0,0,1-5.222,0Zm7.341-.308V14.139H24.4a6.645,6.645,0,0,0,4.482-1.731l2.175,1.278v1.722a4.051,4.051,0,0,1-8.1-.154ZM30.348,20.5v-.071a6.207,6.207,0,0,0,1.83-1.823,4.758,4.758,0,0,0,.906.826v.329l-1.884.452A4.963,4.963,0,0,0,30.348,20.5Zm2.822-4.939v-.154c0-.051,0-.1,0-.154v-.939a9.8,9.8,0,0,0,3.746.745h1.472v.5a2.611,2.611,0,1,1-5.222,0Zm2.611-5.05a2.614,2.614,0,0,1,2.605,2.439H36.92a7.687,7.687,0,0,1-3.536-.862A2.615,2.615,0,0,1,35.781,10.511ZM22.962,11.856a4.051,4.051,0,0,1,8.051-.644l-1.776-1.043A1.054,1.054,0,0,0,27.9,10.4,4.544,4.544,0,0,1,24.4,12.03H22.962v-.174Zm-4.73-1.345a2.615,2.615,0,0,1,2.4,1.577,7.688,7.688,0,0,1-3.536.862H15.627A2.614,2.614,0,0,1,18.232,10.511Zm2.483,11.623a6.468,6.468,0,0,0-4.482,3.816H11.959v-.915a2.838,2.838,0,0,1,2.186-2.77l2.686-.642a1.055,1.055,0,0,0,.81-1.026v-.355a4.578,4.578,0,0,0,1.179,0v.3c0,.016,0,.031,0,.047a1.056,1.056,0,0,0,.857,1.038l1.573.377ZM27,24.854,25.767,22.04v-.753a6.181,6.181,0,0,0,2.471,0v.756Zm6.275-2.717-.53-.126,1.582-.379a1.056,1.056,0,0,0,.862-1.039c0-.008,0-.017,0-.025v-.324a4.578,4.578,0,0,0,1.179,0V20.6a1.055,1.055,0,0,0,.81,1.026l2.686.642a2.838,2.838,0,0,1,2.186,2.77v.915H37.765A6.467,6.467,0,0,0,33.279,22.137Z"/>
      <path id="Trazado_158677" data-name="Trazado 158677" d="M27,31.184a1.053,1.053,0,1,0,.746.308A1.06,1.06,0,0,0,27,31.184Z"/>
      <path id="Trazado_158678" data-name="Trazado 158678" d="M27,3.687a1.055,1.055,0,0,0,1.055-1.055V1.055a1.055,1.055,0,0,0-2.109,0V2.633A1.055,1.055,0,0,0,27,3.687Z"/>
      <path id="Trazado_158679" data-name="Trazado 158679" d="M21.623,4.932A1.055,1.055,0,1,0,23.114,3.44L22.008,2.335a1.055,1.055,0,1,0-1.491,1.492Z"/>
      <path id="Trazado_158680" data-name="Trazado 158680" d="M31.614,5.262a1.051,1.051,0,0,0,.746-.309l1.1-1.1a1.055,1.055,0,1,0-1.492-1.491l-1.1,1.1a1.055,1.055,0,0,0,.746,1.8Z"/>
    </g>
  </g>
</svg>
