<svg xmlns="http://www.w3.org/2000/svg" xmlns:xlink="http://www.w3.org/1999/xlink" width="54" height="54" viewBox="0 0 54 54">
  <defs>
    <clipPath id="clip-path">
      <rect id="Rectángulo_36634" data-name="Rectángulo 36634" width="54" height="54" transform="translate(2099 -7900)" fill="#fff"/>
    </clipPath>
  </defs>
  <g id="Enmascarar_grupo_230" data-name="Enmascarar grupo 230" transform="translate(-2099 7900)" clip-path="url(#clip-path)">
    <g id="certificado-de-garantia" transform="translate(2099.001 -7899.995)">
      <path id="Trazado_158681" data-name="Trazado 158681" d="M40.685,31.14a2.936,2.936,0,0,0-.475,1.149L39.6,35.755a2.264,2.264,0,0,1-2.232,1.878,2.173,2.173,0,0,1-.321-.023l-3.484-.489a3.079,3.079,0,0,0-.412-.029,2.934,2.934,0,0,0-2.048.828l-1.39,1.345,13.89,13.886L45.4,45.4l7.755-1.79Z" fill="#f9b534"/>
      <path id="Trazado_158682" data-name="Trazado 158682" d="M42.95,33.409l-.523,2.847a5.129,5.129,0,0,1-5.062,4.251,5.243,5.243,0,0,1-.722-.051L34.871,40.2,44.4,49.724l1-4.328,7.755-1.79Z" fill="#f9cb4e"/>
      <path id="Trazado_158683" data-name="Trazado 158683" d="M13.31,31.14a2.936,2.936,0,0,1,.475,1.149l.608,3.467a2.264,2.264,0,0,0,2.232,1.878,2.173,2.173,0,0,0,.321-.023l3.484-.489a3.079,3.079,0,0,1,.412-.029,2.934,2.934,0,0,1,2.048.828l1.39,1.345L10.389,53.151,8.6,45.4.844,43.605Z" fill="#f9b534"/>
      <path id="Trazado_158684" data-name="Trazado 158684" d="M11.044,33.409l.523,2.847a5.129,5.129,0,0,0,5.058,4.251,5.243,5.243,0,0,0,.722-.051l1.772-.253L9.6,49.724,8.6,45.4.844,43.605Z" fill="#f9cb4e"/>
      <path id="Trazado_158685" data-name="Trazado 158685" d="M9.423,19.947,7.877,16.789A2.607,2.607,0,0,1,9,13.342l3.109-1.649a2.605,2.605,0,0,0,1.35-1.856l.608-3.466A2.606,2.606,0,0,1,17,4.239l3.484.493a2.606,2.606,0,0,0,2.178-.708l2.531-2.447a2.606,2.606,0,0,1,3.628,0L31.35,4.024a2.606,2.606,0,0,0,2.178.708l3.484-.493a2.606,2.606,0,0,1,2.922,2.13l.608,3.466a2.605,2.605,0,0,0,1.346,1.856L45,13.341a2.607,2.607,0,0,1,1.12,3.448l-1.546,3.162a2.6,2.6,0,0,0,0,2.29L46.117,25.4A2.607,2.607,0,0,1,45,28.85l-3.109,1.645a2.605,2.605,0,0,0-1.346,1.856l-.608,3.466A2.606,2.606,0,0,1,37,37.948l-3.484-.493a2.606,2.606,0,0,0-2.178.708L28.808,40.61a2.606,2.606,0,0,1-3.628,0l-2.531-2.447a2.606,2.606,0,0,0-2.178-.708l-3.484.493a2.606,2.606,0,0,1-2.933-2.131l-.608-3.466a2.605,2.605,0,0,0-1.35-1.856L8.987,28.846A2.607,2.607,0,0,1,7.866,25.4l1.546-3.162a2.6,2.6,0,0,0,.011-2.29Z" fill="#64e1dc"/>
      <g id="Grupo_112764" data-name="Grupo 112764">
        <path id="Trazado_158686" data-name="Trazado 158686" d="M23.852,4.731a2.606,2.606,0,0,0,2.178-.708l2.531-2.447a.759.759,0,0,1,.132-.108,2.608,2.608,0,0,0-3.506.108L22.656,4.023a2.576,2.576,0,0,1-.649.459Z" fill="#50cdc8"/>
        <path id="Trazado_158687" data-name="Trazado 158687" d="M28.56,40.606,26.029,38.16a2.606,2.606,0,0,0-2.178-.708L22,37.713a2.583,2.583,0,0,1,.656.446l2.531,2.447a2.607,2.607,0,0,0,3.51.1C28.655,40.675,28.6,40.644,28.56,40.606Z" fill="#50cdc8"/>
        <path id="Trazado_158688" data-name="Trazado 158688" d="M17.435,35.813l-.608-3.466a2.605,2.605,0,0,0-1.346-1.856l-3.109-1.649a2.607,2.607,0,0,1-1.12-3.447L12.8,22.233a2.6,2.6,0,0,0,0-2.29l-1.546-3.154a2.607,2.607,0,0,1,1.12-3.447l3.109-1.649a2.605,2.605,0,0,0,1.346-1.856l.608-3.466A2.6,2.6,0,0,1,18.829,4.5l-1.836-.26A2.606,2.606,0,0,0,14.06,6.37l-.608,3.466a2.605,2.605,0,0,1-1.35,1.856L8.993,13.341a2.607,2.607,0,0,0-1.116,3.448l1.546,3.162a2.6,2.6,0,0,1,0,2.29L7.877,25.4A2.607,2.607,0,0,0,9,28.846l3.109,1.649a2.605,2.605,0,0,1,1.35,1.856l.608,3.466A2.607,2.607,0,0,0,17,37.948l1.836-.26a2.6,2.6,0,0,1-1.4-1.875Z" fill="#50cdc8"/>
      </g>
      <circle id="Elipse_4949" data-name="Elipse 4949" cx="11.811" cy="11.811" r="11.811" transform="translate(15.186 9.28)" fill="#f9cb4e"/>
      <path id="Trazado_158689" data-name="Trazado 158689" d="M18.561,21.092A11.8,11.8,0,0,1,28.684,9.414a11.811,11.811,0,1,0,0,23.354A11.8,11.8,0,0,1,18.561,21.092Z" fill="#f9b534"/>
      <path id="Trazado_158690" data-name="Trazado 158690" d="M53.747,43.009,42.1,31.366a1.678,1.678,0,0,1,.181-.124l3.1-1.651a3.437,3.437,0,0,0,1.482-4.564l-1.546-3.161a1.753,1.753,0,0,1,0-1.549l1.546-3.161a3.437,3.437,0,0,0-1.482-4.564l-3.106-1.649a1.751,1.751,0,0,1-.909-1.253l-.608-3.466A3.437,3.437,0,0,0,36.884,3.4L33.4,3.9a1.772,1.772,0,0,1-1.473-.478L29.4.971a3.436,3.436,0,0,0-4.8,0L22.066,3.418a1.772,1.772,0,0,1-1.473.478L17.108,3.4a3.439,3.439,0,0,0-3.881,2.821l-.608,3.466a1.749,1.749,0,0,1-.91,1.253l-3.1,1.649a3.437,3.437,0,0,0-1.482,4.564l1.546,3.161a1.753,1.753,0,0,1,0,1.549L7.12,25.027A3.437,3.437,0,0,0,8.6,29.591l3.11,1.649a1.754,1.754,0,0,1,.181.124L.25,43.007a.844.844,0,0,0,.407,1.419L7.9,46.1l1.671,7.241a.844.844,0,0,0,1.419.407L24.05,40.682l.548.531a3.437,3.437,0,0,0,4.8,0l.548-.531L43.009,53.747a.844.844,0,0,0,1.419-.407L46.1,46.1l7.241-1.671a.844.844,0,0,0,.407-1.419ZM10.868,51.478,9.421,45.206a.844.844,0,0,0-.633-.633L2.517,43.126,12.7,32.942l.529,3.017a3.44,3.44,0,0,0,3.881,2.821l3.484-.494a1.777,1.777,0,0,1,1.473.478l.769.743ZM25.771,40l-1.135-1.1-1.4-1.35a3.429,3.429,0,0,0-2.392-.972,3.574,3.574,0,0,0-.49.035l-3.486.494a1.753,1.753,0,0,1-1.983-1.442L14.282,32.2a3.44,3.44,0,0,0-.422-1.115.862.862,0,0,0-.067-.118A3.417,3.417,0,0,0,12.5,29.75L9.4,28.1a1.756,1.756,0,0,1-.759-2.332l1.546-3.159a3.437,3.437,0,0,0,0-3.032L8.636,16.417A1.756,1.756,0,0,1,9.4,14.085L12.5,12.436a3.427,3.427,0,0,0,1.782-2.452l.608-3.466a1.75,1.75,0,0,1,1.98-1.444l3.485.494A3.434,3.434,0,0,0,23.24,4.63l2.531-2.447a1.755,1.755,0,0,1,2.452,0L30.754,4.63a3.433,3.433,0,0,0,2.881.938l3.486-.494A1.752,1.752,0,0,1,39.1,6.516l.608,3.466a3.429,3.429,0,0,0,1.781,2.452L44.6,14.082a1.756,1.756,0,0,1,.759,2.332l-1.549,3.159a3.437,3.437,0,0,0,0,3.032l1.546,3.161A1.756,1.756,0,0,1,44.6,28.1l-3.108,1.649A3.427,3.427,0,0,0,39.709,32.2L39.1,35.665a1.754,1.754,0,0,1-1.98,1.444l-3.487-.494a3.435,3.435,0,0,0-2.882.937L28.221,40a1.755,1.755,0,0,1-2.45,0Zm19.435,4.573a.844.844,0,0,0-.633.633l-1.447,6.272L31.157,39.509l.768-.743a1.78,1.78,0,0,1,1.473-.478l3.485.494a3.44,3.44,0,0,0,3.881-2.821l.529-3.017L51.478,43.126Z"/>
      <path id="Trazado_158691" data-name="Trazado 158691" d="M39.652,21.092a12.649,12.649,0,0,0-3.065-8.257.844.844,0,1,0-1.276,1.1A10.955,10.955,0,1,1,33.1,11.971a.844.844,0,1,0,.94-1.4,12.655,12.655,0,1,0,5.615,10.521Z"/>
      <path id="Trazado_158692" data-name="Trazado 158692" d="M31.869,17.136,25.3,24.06l-3.149-3.587a.844.844,0,1,0-1.265,1.112l3.753,4.282a.844.844,0,0,0,.618.288h.017a.844.844,0,0,0,.612-.263L33.09,18.3a.844.844,0,1,0-1.223-1.161Z"/>
    </g>
  </g>
</svg>
