<svg xmlns="http://www.w3.org/2000/svg" xmlns:xlink="http://www.w3.org/1999/xlink" width="819" height="140.767" viewBox="0 0 819 140.767">
  <defs>
    <clipPath id="clip-path">
      <rect id="Rectángulo_40570" data-name="Rectángulo 40570" width="206.106" height="140.767" fill="#361d90"/>
    </clipPath>
    <clipPath id="clip-path-2">
      <rect id="Rectángulo_40571" data-name="Rectángulo 40571" width="205.021" height="140.027" fill="#ffd947"/>
    </clipPath>
    <clipPath id="clip-path-3">
      <rect id="Rectángulo_40571-2" data-name="Rectángulo 40571" width="205.021" height="140.027" fill="#361d90"/>
    </clipPath>
  </defs>
  <g id="Grupo_104199" data-name="Grupo 104199" transform="translate(-391 -1474.5)">
    <g id="Grupo_93849" data-name="Grupo 93849" transform="translate(391 1474.5)">
      <g id="Grupo_93848" data-name="Grupo 93848" transform="translate(0 0)" clip-path="url(#clip-path)">
        <path id="Trazado_136153" data-name="Trazado 136153" d="M203.163,61.665,161.221,5.858A14.664,14.664,0,0,0,149.493,0H14.7A14.672,14.672,0,0,0,2.868,23.348L28.646,58.5a20.22,20.22,0,0,1,.07,23.825L3.4,117.276a14.672,14.672,0,0,0,11.728,23.488H150.663A14.673,14.673,0,0,0,162.5,134.77l40.772-55.614a14.674,14.674,0,0,0-.1-17.491" transform="translate(0.001 0.001)" fill="#361d90"/>
      </g>
    </g>
    <g id="Grupo_93851" data-name="Grupo 93851" transform="translate(594.937 1475)">
      <g id="Grupo_93850" data-name="Grupo 93850" transform="translate(0 0)" clip-path="url(#clip-path-2)">
        <path id="Trazado_136154" data-name="Trazado 136154" d="M202.094,61.341,160.373,5.827A14.586,14.586,0,0,0,148.706,0H14.623A14.594,14.594,0,0,0,2.852,23.225L29.959,60.193a16.725,16.725,0,0,1,.06,19.7L3.378,116.659a14.6,14.6,0,0,0,11.667,23.365H149.87a14.6,14.6,0,0,0,11.771-5.963L202.2,78.739a14.6,14.6,0,0,0-.1-17.4" transform="translate(0.001 0.001)" fill="#ffd947"/>
      </g>
    </g>
    <g id="Grupo_93852" data-name="Grupo 93852" transform="translate(800 1475)">
      <g id="Grupo_93850-2" data-name="Grupo 93850" transform="translate(0 0)" clip-path="url(#clip-path-3)">
        <path id="Trazado_136154-2" data-name="Trazado 136154" d="M202.094,61.341,160.373,5.827A14.586,14.586,0,0,0,148.706,0H14.623A14.594,14.594,0,0,0,2.852,23.225L29.959,60.193a16.725,16.725,0,0,1,.06,19.7L3.378,116.659a14.6,14.6,0,0,0,11.667,23.365H149.87a14.6,14.6,0,0,0,11.771-5.963L202.2,78.739a14.6,14.6,0,0,0-.1-17.4" transform="translate(0.001 0.001)" fill="#361d90"/>
      </g>
    </g>
    <g id="Grupo_93853" data-name="Grupo 93853" transform="translate(1004.979 1474.5)">
      <g id="Grupo_93850-3" data-name="Grupo 93850" transform="translate(0 0)" clip-path="url(#clip-path-2)">
        <path id="Trazado_136154-3" data-name="Trazado 136154" d="M202.094,61.341,160.373,5.827A14.586,14.586,0,0,0,148.706,0H14.623A14.594,14.594,0,0,0,2.852,23.225L29.959,60.193a16.725,16.725,0,0,1,.06,19.7L3.378,116.659a14.6,14.6,0,0,0,11.667,23.365H149.87a14.6,14.6,0,0,0,11.771-5.963L202.2,78.739a14.6,14.6,0,0,0-.1-17.4" transform="translate(0.001 0.001)" fill="#ffd947"/>
      </g>
    </g>
    <path id="Trazado_148328" data-name="Trazado 148328" d="M4.052-4.342V0H.967V-12.8H6.073a5.948,5.948,0,0,1,2.6.541,4.074,4.074,0,0,1,1.749,1.538,4.2,4.2,0,0,1,.62,2.263A3.7,3.7,0,0,1,9.7-5.462,5.561,5.561,0,0,1,6.021-4.342Zm0-2.382H6.073A1.906,1.906,0,0,0,7.44-7.172a1.665,1.665,0,0,0,.47-1.266A2.059,2.059,0,0,0,7.427-9.87a1.712,1.712,0,0,0-1.318-.545H4.052ZM15.671,0H12.7V-13.5h2.971Zm7.181,0a3.344,3.344,0,0,1-.281-.853A2.754,2.754,0,0,1,20.285.176,3.374,3.374,0,0,1,18-.637a2.588,2.588,0,0,1-.94-2.043A2.66,2.66,0,0,1,18.2-5.019a5.821,5.821,0,0,1,3.322-.791h.914v-.5q0-1.316-1.134-1.316A.927.927,0,0,0,20.25-6.587H17.288a2.655,2.655,0,0,1,1.173-2.239,4.931,4.931,0,0,1,2.993-.86,4.323,4.323,0,0,1,2.874.888,3.086,3.086,0,0,1,1.081,2.435v4.21a4.311,4.311,0,0,0,.4,2V0ZM21-1.934a1.652,1.652,0,0,0,.918-.237,1.487,1.487,0,0,0,.523-.536V-4.228h-.861q-1.547,0-1.547,1.389a.848.848,0,0,0,.272.655A.986.986,0,0,0,21-1.934ZM29.769-9.51l.1,1.116a3.225,3.225,0,0,1,2.716-1.292A2.713,2.713,0,0,1,34.8-8.8a4.226,4.226,0,0,1,.76,2.672V0H32.59V-6a1.6,1.6,0,0,0-.29-1.059A1.342,1.342,0,0,0,31.245-7.4a1.413,1.413,0,0,0-1.292.686V0H26.991V-9.51ZM41.8.176a4.889,4.889,0,0,1-3.542-1.305,4.507,4.507,0,0,1-1.354-3.4v-.246a5.84,5.84,0,0,1,.541-2.575,3.955,3.955,0,0,1,1.578-1.727,4.763,4.763,0,0,1,2.461-.611,4.117,4.117,0,0,1,3.164,1.244,4.887,4.887,0,0,1,1.16,3.467v1.151H39.92a2.135,2.135,0,0,0,.694,1.257A2.066,2.066,0,0,0,42-2.109a2.662,2.662,0,0,0,2.2-.984l1.354,1.6A3.784,3.784,0,0,1,43.985-.277,5.3,5.3,0,0,1,41.8.176ZM41.467-7.4q-1.3,0-1.547,1.723h2.988v-.229a1.467,1.467,0,0,0-.36-1.1A1.434,1.434,0,0,0,41.467-7.4ZM52.356,0a3.344,3.344,0,0,1-.281-.853A2.754,2.754,0,0,1,49.79.176,3.374,3.374,0,0,1,47.5-.637a2.588,2.588,0,0,1-.94-2.043,2.66,2.66,0,0,1,1.143-2.338,5.821,5.821,0,0,1,3.322-.791h.914v-.5q0-1.316-1.134-1.316a.927.927,0,0,0-1.055,1.042H46.793a2.655,2.655,0,0,1,1.173-2.239,4.931,4.931,0,0,1,2.993-.86,4.323,4.323,0,0,1,2.874.888,3.086,3.086,0,0,1,1.081,2.435v4.21a4.311,4.311,0,0,0,.4,2V0ZM50.5-1.934a1.652,1.652,0,0,0,.918-.237,1.487,1.487,0,0,0,.523-.536V-4.228h-.861q-1.547,0-1.547,1.389a.848.848,0,0,0,.272.655A.986.986,0,0,0,50.5-1.934Zm10.072-.176a1.317,1.317,0,0,0,.967-.338,1.241,1.241,0,0,0,.334-.945h2.777A3.288,3.288,0,0,1,63.532-.826a4.168,4.168,0,0,1-2.887,1,4.22,4.22,0,0,1-3.27-1.3,5.125,5.125,0,0,1-1.2-3.6v-.123A5.792,5.792,0,0,1,56.711-7.4a3.872,3.872,0,0,1,1.534-1.7,4.573,4.573,0,0,1,2.373-.593,4.116,4.116,0,0,1,2.944,1.028,3.647,3.647,0,0,1,1.09,2.786H61.875A1.626,1.626,0,0,0,61.515-7a1.244,1.244,0,0,0-.967-.4Q59.4-7.4,59.2-5.933a10.357,10.357,0,0,0-.062,1.283,4.068,4.068,0,0,0,.343,1.986A1.187,1.187,0,0,0,60.574-2.109ZM69.029,0H66.059V-9.51h2.971ZM65.883-11.962A1.322,1.322,0,0,1,66.34-13a1.724,1.724,0,0,1,1.187-.4,1.724,1.724,0,0,1,1.187.4,1.322,1.322,0,0,1,.457,1.037,1.322,1.322,0,0,1-.457,1.037,1.724,1.724,0,0,1-1.187.4,1.724,1.724,0,0,1-1.187-.4A1.322,1.322,0,0,1,65.883-11.962Zm4.6,7.119a5.613,5.613,0,0,1,.554-2.536,3.96,3.96,0,0,1,1.591-1.709,4.791,4.791,0,0,1,2.435-.6,4.373,4.373,0,0,1,3.366,1.323,5.076,5.076,0,0,1,1.23,3.6v.105A4.925,4.925,0,0,1,78.42-1.129,4.384,4.384,0,0,1,75.076.176a4.434,4.434,0,0,1-3.261-1.217,4.761,4.761,0,0,1-1.327-3.3Zm2.962.185a3.538,3.538,0,0,0,.413,1.934,1.376,1.376,0,0,0,1.222.615q1.582,0,1.617-2.435v-.3q0-2.558-1.635-2.558-1.485,0-1.608,2.206ZM75.463-13.5h3.129l-2.443,2.76-2.417,0Zm8.218,3.99.1,1.116a3.225,3.225,0,0,1,2.716-1.292,2.713,2.713,0,0,1,2.219.888,4.226,4.226,0,0,1,.76,2.672V0H86.5V-6a1.6,1.6,0,0,0-.29-1.059A1.342,1.342,0,0,0,85.157-7.4a1.413,1.413,0,0,0-1.292.686V0H80.9V-9.51Z" transform="translate(451 1551)" fill="#fff"/>
    <path id="Trazado_148329" data-name="Trazado 148329" d="M-33.662-12.8l2.856,8.9,2.848-8.9H-23.9V0h-3.094V-2.988l.3-6.117L-29.786,0h-2.039l-3.1-9.114.3,6.126V0h-3.085V-12.8Zm11.215,7.954a5.613,5.613,0,0,1,.554-2.536A3.96,3.96,0,0,1-20.3-9.088a4.791,4.791,0,0,1,2.435-.6A4.373,4.373,0,0,1-14.5-8.363a5.076,5.076,0,0,1,1.23,3.6v.105a4.925,4.925,0,0,1-1.235,3.529A4.384,4.384,0,0,1-17.851.176a4.434,4.434,0,0,1-3.261-1.217,4.761,4.761,0,0,1-1.327-3.3Zm2.962.185a3.538,3.538,0,0,0,.413,1.934,1.376,1.376,0,0,0,1.222.615q1.582,0,1.617-2.435v-.3q0-2.558-1.635-2.558-1.485,0-1.608,2.206ZM-9.167-9.51l.1,1.116A3.27,3.27,0,0,1-6.354-9.686,2.407,2.407,0,0,1-3.92-8.253,3.165,3.165,0,0,1-1.125-9.686q2.892,0,2.971,3.5V0H-1.125V-6a1.813,1.813,0,0,0-.246-1.063,1.048,1.048,0,0,0-.9-.334,1.4,1.4,0,0,0-1.31.782l.009.123V0H-6.539V-5.985a1.906,1.906,0,0,0-.237-1.081A1.045,1.045,0,0,0-7.682-7.4a1.42,1.42,0,0,0-1.3.782V0h-2.962V-9.51ZM8.139.176A4.889,4.889,0,0,1,4.6-1.129a4.507,4.507,0,0,1-1.354-3.4v-.246a5.84,5.84,0,0,1,.541-2.575A3.955,3.955,0,0,1,5.361-9.075a4.763,4.763,0,0,1,2.461-.611,4.117,4.117,0,0,1,3.164,1.244,4.887,4.887,0,0,1,1.16,3.467v1.151H6.258a2.135,2.135,0,0,0,.694,1.257,2.066,2.066,0,0,0,1.389.457,2.662,2.662,0,0,0,2.2-.984l1.354,1.6A3.784,3.784,0,0,1,10.323-.277,5.3,5.3,0,0,1,8.139.176ZM7.8-7.4q-1.3,0-1.547,1.723H9.246v-.229a1.467,1.467,0,0,0-.36-1.1A1.434,1.434,0,0,0,7.8-7.4ZM16.058-9.51l.1,1.116A3.225,3.225,0,0,1,18.87-9.686a2.713,2.713,0,0,1,2.219.888,4.226,4.226,0,0,1,.76,2.672V0H18.879V-6a1.6,1.6,0,0,0-.29-1.059A1.342,1.342,0,0,0,17.534-7.4a1.413,1.413,0,0,0-1.292.686V0H13.28V-9.51Zm10.881-2.364V-9.51H28.5v2.057H26.938V-3.1a1.111,1.111,0,0,0,.193.747,1.037,1.037,0,0,0,.765.211,4.345,4.345,0,0,0,.738-.053V-.079a5.466,5.466,0,0,1-1.67.255,3.1,3.1,0,0,1-2.259-.721,2.954,2.954,0,0,1-.729-2.188v-4.72H22.764V-9.51h1.213v-2.364ZM29.03-4.843a5.613,5.613,0,0,1,.554-2.536,3.96,3.96,0,0,1,1.591-1.709,4.791,4.791,0,0,1,2.435-.6,4.373,4.373,0,0,1,3.366,1.323,5.076,5.076,0,0,1,1.23,3.6v.105a4.925,4.925,0,0,1-1.235,3.529A4.384,4.384,0,0,1,33.627.176a4.434,4.434,0,0,1-3.261-1.217,4.761,4.761,0,0,1-1.327-3.3Zm2.962.185a3.538,3.538,0,0,0,.413,1.934,1.376,1.376,0,0,0,1.222.615q1.582,0,1.617-2.435v-.3q0-2.558-1.635-2.558Q32.124-7.4,32-5.194ZM-22.236,20.658V25h-3.085V12.2h5.106a5.948,5.948,0,0,1,2.6.541,4.074,4.074,0,0,1,1.749,1.538,4.2,4.2,0,0,1,.62,2.263,3.7,3.7,0,0,1-1.34,2.993,5.561,5.561,0,0,1-3.678,1.121Zm0-2.382h2.021a1.906,1.906,0,0,0,1.367-.448,1.665,1.665,0,0,0,.47-1.266,2.059,2.059,0,0,0-.483-1.433,1.712,1.712,0,0,0-1.318-.545h-2.057Zm14.247-.105-.976-.07a1.752,1.752,0,0,0-1.793.879V25H-13.72V15.49h2.777l.1,1.222a2.294,2.294,0,0,1,2.083-1.4,2.888,2.888,0,0,1,.826.105Zm5.669,7a4.889,4.889,0,0,1-3.542-1.305,4.507,4.507,0,0,1-1.354-3.4v-.246a5.84,5.84,0,0,1,.541-2.575A3.955,3.955,0,0,1-5.1,15.925a4.763,4.763,0,0,1,2.461-.611A4.117,4.117,0,0,1,.527,16.558a4.887,4.887,0,0,1,1.16,3.467v1.151H-4.2a2.135,2.135,0,0,0,.694,1.257,2.066,2.066,0,0,0,1.389.457,2.662,2.662,0,0,0,2.2-.984l1.354,1.6A3.784,3.784,0,0,1-.136,24.723,5.3,5.3,0,0,1-2.32,25.176ZM-2.654,17.6q-1.3,0-1.547,1.723h2.988v-.229a1.467,1.467,0,0,0-.36-1.1A1.434,1.434,0,0,0-2.654,17.6Zm9.211,3.876,1.5-5.985h3.12L8.077,25H5.054l-3.1-9.51H5.08ZM15.188,25H12.217V15.49h2.971ZM12.041,13.038A1.322,1.322,0,0,1,12.5,12a1.724,1.724,0,0,1,1.187-.4,1.724,1.724,0,0,1,1.187.4,1.405,1.405,0,0,1,0,2.074,1.724,1.724,0,0,1-1.187.4,1.724,1.724,0,0,1-1.187-.4A1.322,1.322,0,0,1,12.041,13.038Zm4.6,7.119a5.613,5.613,0,0,1,.554-2.536,3.96,3.96,0,0,1,1.591-1.709,4.791,4.791,0,0,1,2.435-.6,4.373,4.373,0,0,1,3.366,1.323,5.076,5.076,0,0,1,1.23,3.6v.105a4.925,4.925,0,0,1-1.235,3.529,4.384,4.384,0,0,1-3.344,1.305,4.434,4.434,0,0,1-3.261-1.217,4.761,4.761,0,0,1-1.327-3.3Zm2.962.185a3.538,3.538,0,0,0,.413,1.934,1.376,1.376,0,0,0,1.222.615q1.582,0,1.617-2.435v-.3q0-2.558-1.635-2.558-1.485,0-1.608,2.206Z" transform="translate(699 1539)" fill="#12263f"/>
    <path id="Trazado_148331" data-name="Trazado 148331" d="M-13.68-4.333a4.673,4.673,0,0,1-.721,2.36,4.35,4.35,0,0,1-1.85,1.586,6.3,6.3,0,0,1-2.72.563,5.025,5.025,0,0,1-3.973-1.644,6.786,6.786,0,0,1-1.45-4.641v-.633a7.746,7.746,0,0,1,.655-3.292,4.961,4.961,0,0,1,1.885-2.18,5.26,5.26,0,0,1,2.848-.769,5.516,5.516,0,0,1,3.744,1.226,4.844,4.844,0,0,1,1.608,3.379H-16.73a2.292,2.292,0,0,0-.589-1.679,2.422,2.422,0,0,0-1.687-.51,1.843,1.843,0,0,0-1.687.861,5.536,5.536,0,0,0-.562,2.751v.905a6.126,6.126,0,0,0,.514,2.927,1.882,1.882,0,0,0,1.771.879,2.369,2.369,0,0,0,1.626-.5,2.126,2.126,0,0,0,.6-1.591ZM-9.233,0H-12.2V-9.51h2.971Zm-3.146-11.962A1.322,1.322,0,0,1-11.922-13a1.724,1.724,0,0,1,1.187-.4,1.724,1.724,0,0,1,1.187.4,1.322,1.322,0,0,1,.457,1.037,1.322,1.322,0,0,1-.457,1.037,1.724,1.724,0,0,1-1.187.4,1.724,1.724,0,0,1-1.187-.4A1.322,1.322,0,0,1-12.379-11.962ZM-2.808.176A4.889,4.889,0,0,1-6.35-1.129,4.507,4.507,0,0,1-7.7-4.526v-.246a5.84,5.84,0,0,1,.541-2.575A3.955,3.955,0,0,1-5.585-9.075a4.763,4.763,0,0,1,2.461-.611A4.117,4.117,0,0,1,.04-8.442,4.887,4.887,0,0,1,1.2-4.975v1.151H-4.689a2.135,2.135,0,0,0,.694,1.257,2.066,2.066,0,0,0,1.389.457,2.662,2.662,0,0,0,2.2-.984l1.354,1.6A3.784,3.784,0,0,1-.624-.277,5.3,5.3,0,0,1-2.808.176ZM-3.142-7.4q-1.3,0-1.547,1.723H-1.7v-.229a1.467,1.467,0,0,0-.36-1.1A1.434,1.434,0,0,0-3.142-7.4Zm11.285.571L7.167-6.9a1.752,1.752,0,0,0-1.793.879V0H2.413V-9.51H5.19l.1,1.222a2.294,2.294,0,0,1,2.083-1.4A2.888,2.888,0,0,1,8.2-9.58Zm6.82,0-.976-.07a1.752,1.752,0,0,0-1.793.879V0H9.233V-9.51H12.01l.1,1.222a2.294,2.294,0,0,1,2.083-1.4,2.888,2.888,0,0,1,.826.105Zm5.669,7A4.889,4.889,0,0,1,17.09-1.129a4.507,4.507,0,0,1-1.354-3.4v-.246a5.84,5.84,0,0,1,.541-2.575,3.955,3.955,0,0,1,1.578-1.727,4.763,4.763,0,0,1,2.461-.611A4.117,4.117,0,0,1,23.48-8.442a4.887,4.887,0,0,1,1.16,3.467v1.151H18.751a2.135,2.135,0,0,0,.694,1.257,2.066,2.066,0,0,0,1.389.457,2.662,2.662,0,0,0,2.2-.984l1.354,1.6A3.784,3.784,0,0,1,22.816-.277,5.3,5.3,0,0,1,20.632.176ZM20.3-7.4q-1.3,0-1.547,1.723H21.74v-.229a1.467,1.467,0,0,0-.36-1.1A1.434,1.434,0,0,0,20.3-7.4ZM-34.238,20.175a5.809,5.809,0,0,1,.976-3.56,3.211,3.211,0,0,1,2.725-1.3,2.731,2.731,0,0,1,2.145,1V11.5h2.971V25h-2.663l-.149-1.02a2.8,2.8,0,0,1-2.32,1.2,3.205,3.205,0,0,1-2.689-1.3A5.993,5.993,0,0,1-34.238,20.175Zm2.962.185q0,2.531,1.477,2.531a1.458,1.458,0,0,0,1.406-.826V18.443a1.419,1.419,0,0,0-1.389-.844q-1.371,0-1.485,2.215Zm12.138,4.816a4.889,4.889,0,0,1-3.542-1.305,4.507,4.507,0,0,1-1.354-3.4v-.246a5.84,5.84,0,0,1,.541-2.575,3.955,3.955,0,0,1,1.578-1.727,4.763,4.763,0,0,1,2.461-.611,4.117,4.117,0,0,1,3.164,1.244,4.887,4.887,0,0,1,1.16,3.467v1.151h-5.889a2.135,2.135,0,0,0,.694,1.257,2.066,2.066,0,0,0,1.389.457,2.662,2.662,0,0,0,2.2-.984l1.354,1.6a3.784,3.784,0,0,1-1.569,1.217A5.3,5.3,0,0,1-19.138,25.176Zm-.334-7.576q-1.3,0-1.547,1.723h2.988v-.229a1.467,1.467,0,0,0-.36-1.1A1.434,1.434,0,0,0-19.472,17.6Zm13.808,3.876,1.5-5.985h3.12L-4.144,25H-7.167l-3.1-9.51h3.129Zm10.107,3.7A4.889,4.889,0,0,1,.9,23.871a4.507,4.507,0,0,1-1.354-3.4v-.246a5.84,5.84,0,0,1,.541-2.575,3.955,3.955,0,0,1,1.578-1.727,4.763,4.763,0,0,1,2.461-.611,4.117,4.117,0,0,1,3.164,1.244,4.887,4.887,0,0,1,1.16,3.467v1.151H2.562a2.135,2.135,0,0,0,.694,1.257,2.066,2.066,0,0,0,1.389.457,2.662,2.662,0,0,0,2.2-.984l1.354,1.6a3.784,3.784,0,0,1-1.569,1.217A5.3,5.3,0,0,1,4.443,25.176ZM4.109,17.6q-1.3,0-1.547,1.723H5.55v-.229a1.467,1.467,0,0,0-.36-1.1A1.434,1.434,0,0,0,4.109,17.6Zm8.253-2.109.1,1.116a3.225,3.225,0,0,1,2.716-1.292,2.713,2.713,0,0,1,2.219.888,4.226,4.226,0,0,1,.76,2.672V25H15.183V19a1.6,1.6,0,0,0-.29-1.059,1.342,1.342,0,0,0-1.055-.338,1.413,1.413,0,0,0-1.292.686V25H9.584V15.49Zm10.881-2.364V15.49h1.564v2.057H23.243V21.9a1.111,1.111,0,0,0,.193.747,1.037,1.037,0,0,0,.765.211,4.345,4.345,0,0,0,.738-.053v2.118a5.466,5.466,0,0,1-1.67.255,3.1,3.1,0,0,1-2.259-.721,2.954,2.954,0,0,1-.729-2.188v-4.72H19.068V15.49h1.213V13.126ZM31.329,25a3.344,3.344,0,0,1-.281-.853,2.754,2.754,0,0,1-2.285,1.028,3.374,3.374,0,0,1-2.285-.813,2.588,2.588,0,0,1-.94-2.043,2.66,2.66,0,0,1,1.143-2.338A5.821,5.821,0,0,1,30,19.19h.914v-.5q0-1.316-1.134-1.316a.927.927,0,0,0-1.055,1.042H25.765a2.655,2.655,0,0,1,1.173-2.239,4.931,4.931,0,0,1,2.993-.86,4.323,4.323,0,0,1,2.874.888,3.086,3.086,0,0,1,1.081,2.435v4.21a4.311,4.311,0,0,0,.4,2V25Zm-1.854-1.934a1.652,1.652,0,0,0,.918-.237,1.487,1.487,0,0,0,.523-.536V20.772h-.861q-1.547,0-1.547,1.389a.848.848,0,0,0,.272.655A.986.986,0,0,0,29.474,23.066Z" transform="translate(1107 1539)" fill="#12263f"/>
    <path id="Trazado_148330" data-name="Trazado 148330" d="M-28.165-2.391h-4.228L-33.13,0h-3.3l4.693-12.8h2.9L-24.1,0h-3.313Zm-3.489-2.382H-28.9l-1.38-4.438Zm11.646-7.1V-9.51h1.564v2.057h-1.564V-3.1a1.111,1.111,0,0,0,.193.747,1.037,1.037,0,0,0,.765.211,4.345,4.345,0,0,0,.738-.053V-.079a5.466,5.466,0,0,1-1.67.255,3.1,3.1,0,0,1-2.259-.721,2.954,2.954,0,0,1-.729-2.188v-4.72h-1.213V-9.51h1.213v-2.364Zm7.33,12.05A4.889,4.889,0,0,1-16.22-1.129a4.507,4.507,0,0,1-1.354-3.4v-.246a5.84,5.84,0,0,1,.541-2.575,3.955,3.955,0,0,1,1.578-1.727,4.763,4.763,0,0,1,2.461-.611A4.117,4.117,0,0,1-9.831-8.442,4.887,4.887,0,0,1-8.67-4.975v1.151h-5.889a2.135,2.135,0,0,0,.694,1.257,2.066,2.066,0,0,0,1.389.457,2.662,2.662,0,0,0,2.2-.984l1.354,1.6A3.784,3.784,0,0,1-10.494-.277,5.3,5.3,0,0,1-12.678.176ZM-13.012-7.4q-1.3,0-1.547,1.723h2.988v-.229a1.467,1.467,0,0,0-.36-1.1A1.434,1.434,0,0,0-13.012-7.4ZM-4.759-9.51l.1,1.116A3.225,3.225,0,0,1-1.947-9.686,2.713,2.713,0,0,1,.272-8.8a4.226,4.226,0,0,1,.76,2.672V0H-1.938V-6a1.6,1.6,0,0,0-.29-1.059A1.342,1.342,0,0,0-3.283-7.4a1.413,1.413,0,0,0-1.292.686V0H-7.537V-9.51Zm11.452,7.4a1.317,1.317,0,0,0,.967-.338,1.241,1.241,0,0,0,.334-.945h2.777A3.288,3.288,0,0,1,9.65-.826a4.168,4.168,0,0,1-2.887,1,4.22,4.22,0,0,1-3.27-1.3,5.125,5.125,0,0,1-1.2-3.6v-.123A5.792,5.792,0,0,1,2.83-7.4a3.872,3.872,0,0,1,1.534-1.7,4.573,4.573,0,0,1,2.373-.593A4.116,4.116,0,0,1,9.681-8.657a3.647,3.647,0,0,1,1.09,2.786H7.994A1.626,1.626,0,0,0,7.633-7a1.244,1.244,0,0,0-.967-.4q-1.151,0-1.345,1.468A10.357,10.357,0,0,0,5.26-4.649,4.068,4.068,0,0,0,5.6-2.663,1.187,1.187,0,0,0,6.693-2.109ZM15.148,0H12.177V-9.51h2.971ZM12-11.962A1.322,1.322,0,0,1,12.458-13a1.724,1.724,0,0,1,1.187-.4,1.724,1.724,0,0,1,1.187.4,1.322,1.322,0,0,1,.457,1.037,1.322,1.322,0,0,1-.457,1.037,1.724,1.724,0,0,1-1.187.4,1.724,1.724,0,0,1-1.187-.4A1.322,1.322,0,0,1,12-11.962Zm4.6,7.119a5.613,5.613,0,0,1,.554-2.536,3.96,3.96,0,0,1,1.591-1.709,4.791,4.791,0,0,1,2.435-.6,4.373,4.373,0,0,1,3.366,1.323,5.076,5.076,0,0,1,1.23,3.6v.105a4.925,4.925,0,0,1-1.235,3.529A4.384,4.384,0,0,1,21.195.176a4.434,4.434,0,0,1-3.261-1.217,4.761,4.761,0,0,1-1.327-3.3Zm2.962.185a3.538,3.538,0,0,0,.413,1.934,1.376,1.376,0,0,0,1.222.615q1.582,0,1.617-2.435v-.3q0-2.558-1.635-2.558-1.485,0-1.608,2.206ZM21.582-13.5H24.71l-2.443,2.76-2.417,0ZM29.8-9.51l.1,1.116a3.225,3.225,0,0,1,2.716-1.292,2.713,2.713,0,0,1,2.219.888,4.226,4.226,0,0,1,.76,2.672V0H32.621V-6a1.6,1.6,0,0,0-.29-1.059A1.342,1.342,0,0,0,31.276-7.4a1.413,1.413,0,0,0-1.292.686V0H27.022V-9.51ZM-30.894,25a3.344,3.344,0,0,1-.281-.853,2.754,2.754,0,0,1-2.285,1.028,3.374,3.374,0,0,1-2.285-.813,2.588,2.588,0,0,1-.94-2.043,2.66,2.66,0,0,1,1.143-2.338,5.821,5.821,0,0,1,3.322-.791h.914v-.5q0-1.316-1.134-1.316A.927.927,0,0,0-33.5,18.413h-2.962a2.655,2.655,0,0,1,1.173-2.239,4.931,4.931,0,0,1,2.993-.86,4.323,4.323,0,0,1,2.874.888,3.086,3.086,0,0,1,1.081,2.435v4.21a4.311,4.311,0,0,0,.4,2V25Zm-1.854-1.934a1.652,1.652,0,0,0,.918-.237,1.487,1.487,0,0,0,.523-.536V20.772h-.861q-1.547,0-1.547,1.389a.848.848,0,0,0,.272.655A.986.986,0,0,0-32.748,23.066ZM-23.572,25h-2.971V11.5h2.971Zm10.327-2.109a1.317,1.317,0,0,0,.967-.338,1.241,1.241,0,0,0,.334-.945h2.777a3.288,3.288,0,0,1-1.121,2.566,4.168,4.168,0,0,1-2.887,1,4.22,4.22,0,0,1-3.27-1.3,5.125,5.125,0,0,1-1.2-3.6v-.123a5.792,5.792,0,0,1,.532-2.544,3.872,3.872,0,0,1,1.534-1.7,4.573,4.573,0,0,1,2.373-.593,4.116,4.116,0,0,1,2.944,1.028,3.647,3.647,0,0,1,1.09,2.786h-2.777A1.626,1.626,0,0,0-12.3,18a1.244,1.244,0,0,0-.967-.4q-1.151,0-1.345,1.468a10.357,10.357,0,0,0-.062,1.283,4.068,4.068,0,0,0,.343,1.986A1.187,1.187,0,0,0-13.245,22.891ZM-4.79,25H-7.761V11.5H-4.79ZM.158,25H-2.812V15.49H.158ZM-2.988,13.038A1.322,1.322,0,0,1-2.531,12a1.724,1.724,0,0,1,1.187-.4A1.724,1.724,0,0,1-.158,12,1.322,1.322,0,0,1,.3,13.038a1.322,1.322,0,0,1-.457,1.037,1.724,1.724,0,0,1-1.187.4,1.724,1.724,0,0,1-1.187-.4A1.322,1.322,0,0,1-2.988,13.038ZM6.583,25.176a4.889,4.889,0,0,1-3.542-1.305,4.507,4.507,0,0,1-1.354-3.4v-.246a5.84,5.84,0,0,1,.541-2.575,3.955,3.955,0,0,1,1.578-1.727,4.763,4.763,0,0,1,2.461-.611,4.117,4.117,0,0,1,3.164,1.244,4.887,4.887,0,0,1,1.16,3.467v1.151H4.7A2.135,2.135,0,0,0,5.4,22.434a2.066,2.066,0,0,0,1.389.457,2.662,2.662,0,0,0,2.2-.984l1.354,1.6a3.784,3.784,0,0,1-1.569,1.217A5.3,5.3,0,0,1,6.583,25.176ZM6.249,17.6q-1.3,0-1.547,1.723H7.69v-.229a1.467,1.467,0,0,0-.36-1.1A1.434,1.434,0,0,0,6.249,17.6ZM14.5,15.49l.1,1.116a3.225,3.225,0,0,1,2.716-1.292,2.713,2.713,0,0,1,2.219.888,4.226,4.226,0,0,1,.76,2.672V25H17.323V19a1.6,1.6,0,0,0-.29-1.059,1.342,1.342,0,0,0-1.055-.338,1.413,1.413,0,0,0-1.292.686V25H11.725V15.49Zm10.881-2.364V15.49h1.564v2.057H25.383V21.9a1.111,1.111,0,0,0,.193.747,1.037,1.037,0,0,0,.765.211,4.345,4.345,0,0,0,.738-.053v2.118a5.466,5.466,0,0,1-1.67.255,3.1,3.1,0,0,1-2.259-.721,2.954,2.954,0,0,1-.729-2.188v-4.72H21.208V15.49h1.213V13.126Zm7.33,12.05a4.889,4.889,0,0,1-3.542-1.305,4.507,4.507,0,0,1-1.354-3.4v-.246a5.84,5.84,0,0,1,.541-2.575,3.955,3.955,0,0,1,1.578-1.727,4.763,4.763,0,0,1,2.461-.611,4.117,4.117,0,0,1,3.164,1.244,4.887,4.887,0,0,1,1.16,3.467v1.151H30.832a2.135,2.135,0,0,0,.694,1.257,2.066,2.066,0,0,0,1.389.457,2.662,2.662,0,0,0,2.2-.984l1.354,1.6A3.784,3.784,0,0,1,34.9,24.723,5.3,5.3,0,0,1,32.713,25.176ZM32.379,17.6q-1.3,0-1.547,1.723H33.82v-.229a1.467,1.467,0,0,0-.36-1.1A1.434,1.434,0,0,0,32.379,17.6Z" transform="translate(902 1539)" fill="#fff"/>
  </g>
</svg>
