<svg xmlns="http://www.w3.org/2000/svg" xmlns:xlink="http://www.w3.org/1999/xlink" width="154" height="154" viewBox="0 0 154 154">
  <defs>
    <clipPath id="clip-path">
      <rect id="Rect치ngulo_36439" data-name="Rect치ngulo 36439" width="132" height="132" transform="translate(-6542.667 -9571.667)" fill="#fff"/>
    </clipPath>
  </defs>
  <g id="Grupo_119015" data-name="Grupo 119015" transform="translate(5406 9571.7)">
    <circle id="Elipse_4884" data-name="Elipse 4884" cx="77" cy="77" r="77" transform="translate(-5406 -9571.7)" fill="#ffc967"/>
    <g id="Enmascarar_grupo_190" data-name="Enmascarar grupo 190" transform="translate(1147.667 10.667)" clip-path="url(#clip-path)">
      <g id="nuevo-email" transform="translate(-6543 -9572)">
        <rect id="Rect치ngulo_36440" data-name="Rect치ngulo 36440" width="128.386" height="128.386" rx="9.935" transform="translate(2.14 2.14)" fill="#50bcf7"/>
        <path id="Trazado_156493" data-name="Trazado 156493" d="M4.968,130.989a8.559,8.559,0,0,0,8.559,8.559H124.8a8.559,8.559,0,0,0,8.559-8.559V49.677H4.968Z" transform="translate(-2.828 -9.022)" fill="#e0e0e0"/>
        <path id="Trazado_156494" data-name="Trazado 156494" d="M4.968,49.677V120.29a119,119,0,0,0,22.468,2.14c51.111,0,92.992-32.032,97.013-72.752Z" transform="translate(-2.828 -9.022)" fill="#f3f3f3"/>
        <path id="Trazado_156495" data-name="Trazado 156495" d="M22.355,84.452H99.387v47.075H22.355Z" transform="translate(-5.237 -13.839)" fill="#f9d78f"/>
        <path id="Trazado_156496" data-name="Trazado 156496" d="M22.355,134.279l38.516-29.957,38.516,29.957Z" transform="translate(-5.237 -16.592)" fill="#f4b248"/>
        <g id="Grupo_108440" data-name="Grupo 108440" transform="translate(66.333 14.978)">
          <circle id="Elipse_4888" data-name="Elipse 4888" cx="6.419" cy="6.419" r="6.419" transform="translate(42.795)" fill="#fff"/>
          <circle id="Elipse_4889" data-name="Elipse 4889" cx="6.419" cy="6.419" r="6.419" transform="translate(21.398)" fill="#fff"/>
          <circle id="Elipse_4890" data-name="Elipse 4890" cx="6.419" cy="6.419" r="6.419" fill="#fff"/>
        </g>
        <path id="Trazado_156497" data-name="Trazado 156497" d="M22.355,84.452l38.516,29.957L99.387,84.452Z" transform="translate(-5.237 -13.839)" fill="#f4b248"/>
        <path id="Trazado_156498" data-name="Trazado 156498" d="M94.387,92.742a21.916,21.916,0,0,0,6.419-15.5v-1.62a8.559,8.559,0,0,1,17.118,0v1.62a21.916,21.916,0,0,0,6.42,15.5Z" transform="translate(-15.215 -11.43)" fill="#ec4c5e"/>
        <path id="Trazado_156499" data-name="Trazado 156499" d="M106.806,96.871v4.28a4.28,4.28,0,0,0,8.559,0v-4.28Z" transform="translate(-16.936 -15.56)" fill="#c73245"/>
        <path id="Trazado_156500" data-name="Trazado 156500" d="M124.451,2.484H13.183a10.712,10.712,0,0,0-10.7,10.7V124.451a10.712,10.712,0,0,0,10.7,10.7H124.451a10.712,10.712,0,0,0,10.7-10.7V13.183a10.712,10.712,0,0,0-10.7-10.7ZM13.183,6.763H124.451a6.419,6.419,0,0,1,6.419,6.419V41H6.763V13.183a6.419,6.419,0,0,1,6.419-6.419ZM124.451,130.87H13.183a6.419,6.419,0,0,1-6.419-6.419V45.279H130.87v79.172A6.419,6.419,0,0,1,124.451,130.87Z" transform="translate(-2.484 -2.484)"/>
        <path id="Trazado_156501" data-name="Trazado 156501" d="M135.237,34.505a8.559,8.559,0,1,0-8.559-8.559A8.559,8.559,0,0,0,135.237,34.505Zm0-12.839a4.28,4.28,0,1,1-4.28,4.28A4.28,4.28,0,0,1,135.237,21.667Z" transform="translate(-19.689 -4.548)"/>
        <path id="Trazado_156502" data-name="Trazado 156502" d="M110.4,34.505a8.559,8.559,0,1,0-8.559-8.559A8.559,8.559,0,0,0,110.4,34.505Zm0-12.839a4.28,4.28,0,1,1-4.28,4.28A4.28,4.28,0,0,1,110.4,21.667Z" transform="translate(-16.248 -4.548)"/>
        <path id="Trazado_156503" data-name="Trazado 156503" d="M85.559,34.505A8.559,8.559,0,1,0,77,25.946,8.559,8.559,0,0,0,85.559,34.505Zm0-12.839a4.28,4.28,0,1,1-4.28,4.28A4.28,4.28,0,0,1,85.559,21.667Z" transform="translate(-12.807 -4.548)"/>
        <path id="Trazado_156504" data-name="Trazado 156504" d="M109.741,76.9V75.28a10.7,10.7,0,0,0-21.4,0V76.9a19.93,19.93,0,0,1-.2,2.66H22.011a2.14,2.14,0,0,0-2.14,2.14v47.075a2.14,2.14,0,0,0,2.14,2.14H99.043a2.14,2.14,0,0,0,2.14-2.14V102.7a6.419,6.419,0,0,0,4.28-6.026v-2.14h8.559a2.14,2.14,0,0,0,1.513-3.653A19.647,19.647,0,0,1,109.742,76.9ZM82.087,93.217a2.14,2.14,0,0,0,1.977,1.32h8.559v2.14A6.419,6.419,0,0,0,96.9,102.7v21.7L72.265,105.236,81.1,98.368l-2.628-3.381L60.527,108.945,28.248,83.839H87.075a19.686,19.686,0,0,1-4.523,7.046A2.14,2.14,0,0,0,82.087,93.217Zm-33.3,12.019L24.151,124.4V86.075Zm3.486,2.711,6.939,5.4a2.14,2.14,0,0,0,2.628,0l6.939-5.4,24.025,18.687H28.248Zm48.909-11.27a2.14,2.14,0,1,1-4.28,0v-2.14h4.28Zm-12.6-6.419A23.9,23.9,0,0,0,92.623,76.9V75.28a6.419,6.419,0,1,1,12.839,0V76.9a23.9,23.9,0,0,0,4.04,13.359Z" transform="translate(-4.893 -11.086)"/>
        <path id="Trazado_156505" data-name="Trazado 156505" d="M0,0H9.078V4.279H0Z" transform="translate(105.46 54.127) rotate(-45)"/>
        <path id="Trazado_156506" data-name="Trazado 156506" d="M129.161,72.032h8.559v4.28h-8.559Z" transform="translate(-20.033 -12.119)"/>
        <path id="Trazado_156507" data-name="Trazado 156507" d="M0,0H4.279V9.078H0Z" transform="translate(73.365 50.731) rotate(-45)"/>
        <path id="Trazado_156508" data-name="Trazado 156508" d="M84.452,72.032h8.559v4.28H84.452Z" transform="translate(-13.839 -12.119)"/>
      </g>
    </g>
  </g>
</svg>
