<svg xmlns="http://www.w3.org/2000/svg" xmlns:xlink="http://www.w3.org/1999/xlink" width="154" height="154.3" viewBox="0 0 154 154.3">
  <defs>
    <clipPath id="clip-path">
      <rect id="Rectángulo_36438" data-name="Rectángulo 36438" width="154" height="154" transform="translate(-6894 -9572)" fill="#fff" stroke="#707070" stroke-width="1"/>
    </clipPath>
  </defs>
  <g id="Grupo_119014" data-name="Grupo 119014" transform="translate(5757 9572)">
    <circle id="Elipse_4883" data-name="Elipse 4883" cx="77" cy="77" r="77" transform="translate(-5757 -9571.7)" fill="#ffc967"/>
    <g id="Enmascarar_grupo_189" data-name="Enmascarar grupo 189" transform="translate(1137)" clip-path="url(#clip-path)">
      <g id="app" transform="translate(-6879.233 -9572)">
        <path id="Trazado_156458" data-name="Trazado 156458" d="M52.7,41.75v70.737a24.841,24.841,0,0,1-24.819,24.979v14.278H2.255V66.978A25.228,25.228,0,0,1,27.483,41.75Zm0,0" fill="#edb48a"/>
        <path id="Trazado_156459" data-name="Trazado 156459" d="M27.876,41.75H52.7V151.744H27.876Zm0,0" fill="#e29c6d"/>
        <path id="Trazado_156460" data-name="Trazado 156460" d="M111.408,151.52H46.693a10.8,10.8,0,0,1-10.8-10.8V13.059a10.8,10.8,0,0,1,10.8-10.8h64.715a10.8,10.8,0,0,1,10.8,10.8V140.716A10.8,10.8,0,0,1,111.408,151.52Zm0,0" fill="#618baa"/>
        <path id="Trazado_156461" data-name="Trazado 156461" d="M122.21,13.058V140.718a10.8,10.8,0,0,1-10.8,10.8h-9.314a10.8,10.8,0,0,0,10.8-10.8V13.058a10.8,10.8,0,0,0-10.8-10.8h9.314a10.8,10.8,0,0,1,10.8,10.8Zm0,0" fill="#4e7693"/>
        <path id="Trazado_156462" data-name="Trazado 156462" d="M104.156,18.135l-1.545,4.07A3,3,0,0,1,99.8,24.142H58.3A3,3,0,0,1,55.489,22.2l-1.544-4.07A3.006,3.006,0,0,0,51.138,16.2H35.889v119.88h86.322V16.2H106.963a3,3,0,0,0-2.807,1.937Zm0,0" fill="#5be167"/>
        <path id="Trazado_156463" data-name="Trazado 156463" d="M112.9,16.2h9.312V136.077H112.9Zm0,0" fill="#1fc974"/>
        <path id="Trazado_156464" data-name="Trazado 156464" d="M58.715,77.581H49.436a2.749,2.749,0,0,1-2.748-2.749V65.554a2.748,2.748,0,0,1,2.748-2.748h9.278a2.748,2.748,0,0,1,2.748,2.748v9.277A2.749,2.749,0,0,1,58.715,77.581Zm0,0" fill="#fd9e28"/>
        <path id="Trazado_156465" data-name="Trazado 156465" d="M61.463,65.554v9.277a2.75,2.75,0,0,1-2.748,2.749h-5.5a2.75,2.75,0,0,0,2.748-2.749V65.554a2.749,2.749,0,0,0-2.748-2.748h5.5a2.749,2.749,0,0,1,2.748,2.748Zm0,0" fill="#fd8724"/>
        <path id="Trazado_156466" data-name="Trazado 156466" d="M83.69,77.581H74.412a2.749,2.749,0,0,1-2.748-2.749V65.554a2.748,2.748,0,0,1,2.748-2.748H83.69a2.749,2.749,0,0,1,2.748,2.748v9.277A2.75,2.75,0,0,1,83.69,77.581Zm0,0" fill="#fd9e28"/>
        <path id="Trazado_156467" data-name="Trazado 156467" d="M86.438,65.554v9.277A2.75,2.75,0,0,1,83.69,77.58h-5.5a2.749,2.749,0,0,0,2.748-2.749V65.554a2.748,2.748,0,0,0-2.748-2.748h5.5a2.749,2.749,0,0,1,2.749,2.748Zm0,0" fill="#fd8724"/>
        <path id="Trazado_156468" data-name="Trazado 156468" d="M108.664,77.581H99.386a2.75,2.75,0,0,1-2.748-2.749V65.554a2.749,2.749,0,0,1,2.748-2.748h9.278a2.748,2.748,0,0,1,2.748,2.748v9.277A2.749,2.749,0,0,1,108.664,77.581Zm0,0" fill="#fd9e28"/>
        <path id="Trazado_156469" data-name="Trazado 156469" d="M111.412,65.554v9.277a2.75,2.75,0,0,1-2.748,2.749h-5.5a2.75,2.75,0,0,0,2.748-2.749V65.554a2.749,2.749,0,0,0-2.748-2.748h5.5a2.749,2.749,0,0,1,2.748,2.748Zm0,0" fill="#fd8724"/>
        <path id="Trazado_156470" data-name="Trazado 156470" d="M58.715,123.83H49.436a2.748,2.748,0,0,1-2.748-2.748V111.8a2.748,2.748,0,0,1,2.748-2.748h9.278a2.748,2.748,0,0,1,2.748,2.748v9.278A2.748,2.748,0,0,1,58.715,123.83Zm0,0" fill="#43a3f9"/>
        <path id="Trazado_156471" data-name="Trazado 156471" d="M61.463,111.8v9.277a2.749,2.749,0,0,1-2.748,2.748h-5.5a2.749,2.749,0,0,0,2.748-2.748V111.8a2.75,2.75,0,0,0-2.748-2.749h5.5A2.75,2.75,0,0,1,61.463,111.8Zm0,0" fill="#1685fb"/>
        <path id="Trazado_156472" data-name="Trazado 156472" d="M83.69,123.83H74.412a2.748,2.748,0,0,1-2.748-2.748V111.8a2.748,2.748,0,0,1,2.748-2.748H83.69a2.749,2.749,0,0,1,2.748,2.748v9.278A2.749,2.749,0,0,1,83.69,123.83Zm0,0" fill="#43a3f9"/>
        <path id="Trazado_156473" data-name="Trazado 156473" d="M86.438,111.8v9.277a2.749,2.749,0,0,1-2.748,2.748h-5.5a2.748,2.748,0,0,0,2.748-2.748V111.8a2.749,2.749,0,0,0-2.748-2.749h5.5A2.75,2.75,0,0,1,86.438,111.8Zm0,0" fill="#1685fb"/>
        <path id="Trazado_156474" data-name="Trazado 156474" d="M108.664,123.83H99.386a2.749,2.749,0,0,1-2.748-2.748V111.8a2.749,2.749,0,0,1,2.748-2.748h9.278a2.748,2.748,0,0,1,2.748,2.748v9.278A2.748,2.748,0,0,1,108.664,123.83Zm0,0" fill="#43a3f9"/>
        <path id="Trazado_156475" data-name="Trazado 156475" d="M111.412,111.8v9.277a2.749,2.749,0,0,1-2.748,2.748h-5.5a2.749,2.749,0,0,0,2.748-2.748V111.8a2.75,2.75,0,0,0-2.748-2.749h5.5A2.75,2.75,0,0,1,111.412,111.8Zm0,0" fill="#1685fb"/>
        <path id="Trazado_156476" data-name="Trazado 156476" d="M27.876,72.249a12.409,12.409,0,0,1,24.818,0v40.239A24.92,24.92,0,0,1,36,136.109a12.046,12.046,0,0,0-8.125,11.379Zm0,0" fill="#edb48a"/>
        <path id="Trazado_156477" data-name="Trazado 156477" d="M52.7,72.249v40.239a24.931,24.931,0,0,1-15.5,23.17,25,25,0,0,0,8.289-18.665V72.248a12.413,12.413,0,0,0-8.806-11.877A12.411,12.411,0,0,1,52.7,72.248Zm0,0" fill="#e29c6d"/>
        <path id="Trazado_156478" data-name="Trazado 156478" d="M58.715,51.839H49.436a2.748,2.748,0,0,1-2.748-2.748V39.812a2.749,2.749,0,0,1,2.748-2.748h9.278a2.749,2.749,0,0,1,2.748,2.748v9.278A2.748,2.748,0,0,1,58.715,51.839Zm0,0" fill="#e3f4ff"/>
        <path id="Trazado_156479" data-name="Trazado 156479" d="M61.463,39.814v9.278a2.749,2.749,0,0,1-2.748,2.748h-5.5a2.749,2.749,0,0,0,2.748-2.748V39.814a2.749,2.749,0,0,0-2.748-2.748h5.5A2.749,2.749,0,0,1,61.463,39.814Zm0,0" fill="#bddff4"/>
        <path id="Trazado_156480" data-name="Trazado 156480" d="M83.69,51.839H74.412a2.748,2.748,0,0,1-2.748-2.748V39.812a2.749,2.749,0,0,1,2.748-2.748H83.69a2.749,2.749,0,0,1,2.748,2.748v9.278A2.749,2.749,0,0,1,83.69,51.839Zm0,0" fill="#e3f4ff"/>
        <path id="Trazado_156481" data-name="Trazado 156481" d="M86.438,39.814v9.278A2.749,2.749,0,0,1,83.69,51.84h-5.5a2.749,2.749,0,0,0,2.748-2.748V39.814a2.748,2.748,0,0,0-2.748-2.748h5.5A2.749,2.749,0,0,1,86.438,39.814Zm0,0" fill="#bddff4"/>
        <path id="Trazado_156482" data-name="Trazado 156482" d="M108.664,51.839H99.386a2.749,2.749,0,0,1-2.748-2.748V39.812a2.749,2.749,0,0,1,2.748-2.748h9.278a2.749,2.749,0,0,1,2.748,2.748v9.278A2.748,2.748,0,0,1,108.664,51.839Zm0,0" fill="#e3f4ff"/>
        <path id="Trazado_156483" data-name="Trazado 156483" d="M111.412,39.814v9.278a2.749,2.749,0,0,1-2.748,2.748h-5.5a2.749,2.749,0,0,0,2.748-2.748V39.814a2.749,2.749,0,0,0-2.748-2.748h5.5A2.749,2.749,0,0,1,111.412,39.814Zm0,0" fill="#bddff4"/>
        <path id="Trazado_156484" data-name="Trazado 156484" d="M2.256,118.669A2.256,2.256,0,0,0,0,120.925v30.82a2.256,2.256,0,0,0,4.512,0v-30.82A2.256,2.256,0,0,0,2.256,118.669Zm0,0"/>
        <path id="Trazado_156485" data-name="Trazado 156485" d="M88.694,65.554a5.01,5.01,0,0,0-5-5H74.412a5.01,5.01,0,0,0-5,5v9.277a5.01,5.01,0,0,0,5,5.005H83.69a5.011,5.011,0,0,0,5-5.005Zm-4.512,9.277a.493.493,0,0,1-.492.493H74.412a.493.493,0,0,1-.492-.493V65.554a.493.493,0,0,1,.492-.492H83.69a.492.492,0,0,1,.492.492Zm0,0"/>
        <path id="Trazado_156486" data-name="Trazado 156486" d="M113.668,65.554a5.009,5.009,0,0,0-5-5H99.386a5.01,5.01,0,0,0-5,5v9.277a5.011,5.011,0,0,0,5,5.005h9.278a5.01,5.01,0,0,0,5-5.005Zm-4.512,9.277a.493.493,0,0,1-.492.493H99.386a.493.493,0,0,1-.492-.493V65.554a.493.493,0,0,1,.492-.492h9.278a.492.492,0,0,1,.492.492Zm0,0"/>
        <path id="Trazado_156487" data-name="Trazado 156487" d="M83.689,106.8H74.412a5.01,5.01,0,0,0-5,5.005v9.277a5.009,5.009,0,0,0,5,5h9.277a5.01,5.01,0,0,0,5.005-5V111.8A5.011,5.011,0,0,0,83.689,106.8Zm.493,14.282a.493.493,0,0,1-.492.492H74.412a.492.492,0,0,1-.492-.492V111.8a.493.493,0,0,1,.492-.493H83.69a.493.493,0,0,1,.492.493Zm0,0"/>
        <path id="Trazado_156488" data-name="Trazado 156488" d="M108.664,106.8H99.386a5.011,5.011,0,0,0-5,5.005v9.277a5.01,5.01,0,0,0,5,5h9.278a5.009,5.009,0,0,0,5-5V111.8A5.01,5.01,0,0,0,108.664,106.8Zm.492,14.282a.493.493,0,0,1-.492.492H99.386a.492.492,0,0,1-.492-.492V111.8a.493.493,0,0,1,.492-.493h9.278a.493.493,0,0,1,.492.493Zm0,0"/>
        <path id="Trazado_156489" data-name="Trazado 156489" d="M122.211,87.78a2.256,2.256,0,0,0,2.256-2.256V13.059A13.074,13.074,0,0,0,111.408,0H68.972a2.256,2.256,0,0,0,0,4.512h42.436a8.556,8.556,0,0,1,8.548,8.548v.882H106.964a5.286,5.286,0,0,0-4.917,3.393L100.5,21.4a.751.751,0,0,1-.7.483H58.3a.753.753,0,0,1-.7-.483l-1.544-4.069a5.287,5.287,0,0,0-4.917-3.393H38.145v-.882a8.557,8.557,0,0,1,8.548-8.548H58.588a2.256,2.256,0,0,0,0-4.512H46.693A13.075,13.075,0,0,0,33.634,13.059V39.494h-6.15A27.514,27.514,0,0,0,0,66.978v42.678a2.256,2.256,0,0,0,4.512,0V66.977A23,23,0,0,1,27.484,44h6.15V59.186a14.679,14.679,0,0,0-8.013,13.063V93.421a9.209,9.209,0,0,0-6.938,8.913,2.256,2.256,0,0,0,4.512,0,4.685,4.685,0,0,1,2.426-4.1v6.336a2.256,2.256,0,0,0,4.512,0V72.249a10.153,10.153,0,0,1,20.306,0v40.239a22.69,22.69,0,0,1-15.177,21.489,14.23,14.23,0,0,0-8.891,8.942,2.255,2.255,0,1,0,4.273,1.445,9.745,9.745,0,0,1,2.989-4.371v.723a13.075,13.075,0,0,0,13.059,13.059h64.715a13.075,13.075,0,0,0,13.059-13.059V95.908a2.256,2.256,0,0,0-4.512,0v37.914H44.738a27.16,27.16,0,0,0,6.6-7.736h7.373a5.009,5.009,0,0,0,5-5V111.8a5.01,5.01,0,0,0-5-5.005H54.95V79.836h3.764a5.01,5.01,0,0,0,5-5.005V65.554a5.009,5.009,0,0,0-5-5H49.436a2.2,2.2,0,0,0-.294.021,14.584,14.584,0,0,0-8.857-2.987,14.785,14.785,0,0,0-2.141.157V18.453H51.138a.752.752,0,0,1,.7.482L53.381,23A5.289,5.289,0,0,0,58.3,26.4H99.8A5.289,5.289,0,0,0,104.72,23l1.545-4.07a.75.75,0,0,1,.7-.483h12.992V85.524a2.256,2.256,0,0,0,2.256,2.256Zm-2.256,50.554v2.383a8.557,8.557,0,0,1-8.548,8.548H46.693a8.557,8.557,0,0,1-8.548-8.548v-2.384h81.81ZM58.715,111.311a.493.493,0,0,1,.492.493v9.277a.493.493,0,0,1-.492.492H53.4a27.42,27.42,0,0,0,1.549-9.087v-1.176Zm0-46.25a.492.492,0,0,1,.492.492v9.277a.493.493,0,0,1-.492.493H54.95V72.248a14.566,14.566,0,0,0-1.889-7.187Zm0,0"/>
        <path id="Trazado_156490" data-name="Trazado 156490" d="M49.436,34.809a5.01,5.01,0,0,0-5,5v9.278a5.01,5.01,0,0,0,5,5h9.278a5.01,5.01,0,0,0,5-5V39.813a5.009,5.009,0,0,0-5-5Zm9.771,5v9.278a.494.494,0,0,1-.492.492H49.436a.493.493,0,0,1-.492-.492V39.813a.493.493,0,0,1,.492-.492h9.278A.493.493,0,0,1,59.207,39.813Zm0,0"/>
        <path id="Trazado_156491" data-name="Trazado 156491" d="M88.694,39.814a5.01,5.01,0,0,0-5-5H74.412a5.01,5.01,0,0,0-5,5v9.278a5.01,5.01,0,0,0,5,5H83.69a5.01,5.01,0,0,0,5-5Zm-4.512,9.277a.493.493,0,0,1-.492.492H74.412a.493.493,0,0,1-.492-.492V39.812a.493.493,0,0,1,.492-.492H83.69a.493.493,0,0,1,.492.492Zm0,0"/>
        <path id="Trazado_156492" data-name="Trazado 156492" d="M113.668,39.814a5.009,5.009,0,0,0-5-5H99.386a5.01,5.01,0,0,0-5,5v9.278a5.01,5.01,0,0,0,5,5h9.278a5.01,5.01,0,0,0,5-5Zm-4.512,9.277a.493.493,0,0,1-.492.492H99.386a.493.493,0,0,1-.492-.492V39.812a.493.493,0,0,1,.492-.492h9.278a.493.493,0,0,1,.492.492Zm0,0"/>
      </g>
    </g>
  </g>
</svg>
