<svg xmlns="http://www.w3.org/2000/svg" xmlns:xlink="http://www.w3.org/1999/xlink" width="156" height="154" viewBox="0 0 156 154">
  <defs>
    <clipPath id="clip-path">
      <rect id="Rectángulo_36437" data-name="Rectángulo 36437" width="144" height="144" transform="translate(1067 2119)" fill="#fff"/>
    </clipPath>
  </defs>
  <g id="Grupo_119013" data-name="Grupo 119013" transform="translate(6101 9571.7)">
    <circle id="Elipse_4708" data-name="Elipse 4708" cx="77" cy="77" r="77" transform="translate(-6101 -9571.7)" fill="#ffc967"/>
    <g id="Enmascarar_grupo_188" data-name="Enmascarar grupo 188" transform="translate(-7156 -11688)" clip-path="url(#clip-path)">
      <g id="chat_1_" data-name="chat (1)" transform="translate(1073.764 2119)">
        <path id="Trazado_156437" data-name="Trazado 156437" d="M113.963,142.242H39.487a6.414,6.414,0,0,1-6.414-6.414V8.875a6.414,6.414,0,0,1,6.414-6.414h74.477a6.414,6.414,0,0,1,6.414,6.414V135.828A6.414,6.414,0,0,1,113.963,142.242Z" transform="translate(-11.489 -0.352)" fill="#b1e4f9"/>
        <path id="Trazado_156438" data-name="Trazado 156438" d="M126.42,2.461h-6.147a6.414,6.414,0,0,1,6.414,6.414V135.828a6.414,6.414,0,0,1-6.414,6.414h6.147a6.414,6.414,0,0,0,6.414-6.414V8.875a6.414,6.414,0,0,0-6.414-6.414Z" transform="translate(-23.946 -0.352)" fill="#9dc6fb"/>
        <path id="Trazado_156439" data-name="Trazado 156439" d="M91.872,12.082H68.166A4.026,4.026,0,0,1,64.61,9.944L60.637,2.461H99.4L95.428,9.944a4.025,4.025,0,0,1-3.556,2.138Z" transform="translate(-15.426 -0.352)" fill="#524798"/>
        <path id="Trazado_156440" data-name="Trazado 156440" d="M97.052,2.461,93.078,9.944a4.026,4.026,0,0,1-3.556,2.138H96a4.026,4.026,0,0,0,3.556-2.138l3.973-7.483Z" transform="translate(-19.553 -0.352)" fill="#453d81"/>
        <path id="Trazado_156441" data-name="Trazado 156441" d="M63.426,27.759H12.951a2.6,2.6,0,0,0-2.6,2.6V48.315a2.6,2.6,0,0,0,2.6,2.6H38.935a2.6,2.6,0,0,1,2.188,1.2L43.553,55.9a2.6,2.6,0,0,0,4.376,0L50.36,52.11a2.6,2.6,0,0,1,2.188-1.2H63.426a2.6,2.6,0,0,0,2.6-2.6V30.358a2.6,2.6,0,0,0-2.6-2.6Z" transform="translate(-8.243 -3.966)" fill="#dd636e"/>
        <g id="Grupo_108435" data-name="Grupo 108435" transform="translate(49.286 23.794)">
          <path id="Trazado_156442" data-name="Trazado 156442" d="M71.289,27.759h-5.9a2.6,2.6,0,0,1,2.6,2.6V48.315a2.6,2.6,0,0,1-2.6,2.6h5.9a2.6,2.6,0,0,0,2.6-2.6V30.358a2.6,2.6,0,0,0-2.6-2.6Z" transform="translate(-65.392 -27.759)" fill="#da4a54"/>
        </g>
        <path id="Trazado_156443" data-name="Trazado 156443" d="M145.77,61.991H95.3a2.6,2.6,0,0,0-2.6,2.6V82.547a2.6,2.6,0,0,0,2.6,2.6H104.4a2.6,2.6,0,0,1,2.188,1.2l2.431,3.795a2.6,2.6,0,0,0,4.376,0l2.431-3.795a2.6,2.6,0,0,1,2.188-1.2H145.77a2.6,2.6,0,0,0,2.6-2.6V64.59A2.6,2.6,0,0,0,145.77,61.991Z" transform="translate(-20.006 -8.856)" fill="#ffe07d"/>
        <g id="Grupo_108436" data-name="Grupo 108436" transform="translate(119.867 53.135)">
          <path id="Trazado_156444" data-name="Trazado 156444" d="M153.633,61.991h-5.9a2.6,2.6,0,0,1,2.6,2.6V82.547a2.6,2.6,0,0,1-2.6,2.6h5.9a2.6,2.6,0,0,0,2.6-2.6V64.59A2.6,2.6,0,0,0,153.633,61.991Z" transform="translate(-147.736 -61.991)" fill="#ffd064"/>
        </g>
        <path id="Trazado_156445" data-name="Trazado 156445" d="M63.426,86.548H12.951a2.6,2.6,0,0,0-2.6,2.6V107.1a2.6,2.6,0,0,0,2.6,2.6H38.935a2.6,2.6,0,0,1,2.188,1.2l2.431,3.795a2.6,2.6,0,0,0,4.376,0L50.36,110.9a2.6,2.6,0,0,1,2.188-1.2H63.426a2.6,2.6,0,0,0,2.6-2.6V89.147a2.6,2.6,0,0,0-2.6-2.6Z" transform="translate(-8.243 -12.364)" fill="#dd636e"/>
        <g id="Grupo_108437" data-name="Grupo 108437" transform="translate(49.286 74.184)">
          <path id="Trazado_156446" data-name="Trazado 156446" d="M71.289,86.548h-5.9a2.6,2.6,0,0,1,2.6,2.6V107.1a2.6,2.6,0,0,1-2.6,2.6h5.9a2.6,2.6,0,0,0,2.6-2.6V89.147a2.6,2.6,0,0,0-2.6-2.6Z" transform="translate(-65.392 -86.548)" fill="#da4a54"/>
        </g>
        <path id="Trazado_156447" data-name="Trazado 156447" d="M145.77,120.78H95.3a2.6,2.6,0,0,0-2.6,2.6v17.957a2.6,2.6,0,0,0,2.6,2.6H104.4a2.6,2.6,0,0,1,2.188,1.2l2.431,3.795a2.6,2.6,0,0,0,4.376,0l2.431-3.795a2.6,2.6,0,0,1,2.188-1.2H145.77a2.6,2.6,0,0,0,2.6-2.6V123.379A2.6,2.6,0,0,0,145.77,120.78Z" transform="translate(-20.006 -17.254)" fill="#ffe07d"/>
        <g id="Grupo_108438" data-name="Grupo 108438" transform="translate(119.867 103.526)">
          <path id="Trazado_156448" data-name="Trazado 156448" d="M153.633,120.78h-5.9a2.6,2.6,0,0,1,2.6,2.6v17.957a2.6,2.6,0,0,1-2.6,2.6h5.9a2.6,2.6,0,0,0,2.6-2.6V123.379A2.6,2.6,0,0,0,153.633,120.78Z" transform="translate(-147.736 -120.78)" fill="#ffd064"/>
        </g>
        <g id="Grupo_108439" data-name="Grupo 108439" transform="translate(0 0)">
          <path id="Trazado_156449" data-name="Trazado 156449" d="M21.7,38.864H41.847a2.109,2.109,0,1,0,0-4.219H21.7a2.109,2.109,0,0,0,0,4.219Z" transform="translate(-9.563 -4.949)"/>
          <path id="Trazado_156450" data-name="Trazado 156450" d="M21.7,47.183H57.313a2.109,2.109,0,1,0,0-4.219H21.7a2.109,2.109,0,1,0,0,4.219Z" transform="translate(-9.563 -6.138)"/>
          <path id="Trazado_156451" data-name="Trazado 156451" d="M104.049,73.1h20.143a2.109,2.109,0,1,0,0-4.219H104.049a2.109,2.109,0,0,0,0,4.219Z" transform="translate(-21.327 -9.84)"/>
          <path id="Trazado_156452" data-name="Trazado 156452" d="M139.657,77.2H104.049a2.109,2.109,0,0,0,0,4.219h35.608a2.109,2.109,0,1,0,0-4.219Z" transform="translate(-21.327 -11.028)"/>
          <path id="Trazado_156453" data-name="Trazado 156453" d="M133.655,78.4a4.713,4.713,0,0,0,4.708-4.708V55.734a4.713,4.713,0,0,0-4.708-4.708H118.889V25.461a2.109,2.109,0,1,0-4.219,0V51.026H83.18a4.713,4.713,0,0,0-4.708,4.708V73.691A4.713,4.713,0,0,0,83.18,78.4h9.109a.487.487,0,0,1,.412.226l2.431,3.795a4.708,4.708,0,0,0,7.928,0l2.431-3.795a.487.487,0,0,1,.412-.225h8.768v23.018H83.18a4.713,4.713,0,0,0-4.708,4.708v17.957a4.713,4.713,0,0,0,4.708,4.708h9.109a.486.486,0,0,1,.412.225l2.431,3.795a4.708,4.708,0,0,0,7.928,0l2.431-3.795a.487.487,0,0,1,.412-.225h8.768v6.687a4.31,4.31,0,0,1-4.3,4.3H35.889a4.31,4.31,0,0,1-4.3-4.3V99.447h7a.487.487,0,0,1,.412.225l2.431,3.794a4.708,4.708,0,0,0,7.928,0l2.431-3.794a.487.487,0,0,1,.412-.226H63.075a4.713,4.713,0,0,0,4.708-4.708V76.783a4.713,4.713,0,0,0-4.708-4.708H31.585V49.057h7a.487.487,0,0,1,.412.225l2.431,3.794a4.708,4.708,0,0,0,7.928,0l2.431-3.794a.487.487,0,0,1,.412-.226H63.075a4.713,4.713,0,0,0,4.708-4.708V26.392a4.713,4.713,0,0,0-4.708-4.708H53.023a2.109,2.109,0,1,0,0,4.219H63.075a.49.49,0,0,1,.489.489V44.349a.49.49,0,0,1-.489.489H52.2a4.689,4.689,0,0,0-3.964,2.168L45.8,50.8a.489.489,0,0,1-.823,0l-2.431-3.795a4.688,4.688,0,0,0-3.964-2.168H12.6a.49.49,0,0,1-.489-.489V26.392A.49.49,0,0,1,12.6,25.9h31.99a2.109,2.109,0,1,0,0-4.219h-13V8.523a4.309,4.309,0,0,1,4.3-4.3H51.834l3.378,6.363a6.122,6.122,0,0,0,5.419,3.258H84.338a6.122,6.122,0,0,0,5.419-3.258l3.378-6.363h17.231a4.309,4.309,0,0,1,4.3,4.3v8.5a2.109,2.109,0,0,0,4.219,0v-8.5A8.533,8.533,0,0,0,110.365,0H35.889a8.533,8.533,0,0,0-8.523,8.523V21.685H12.6a4.713,4.713,0,0,0-4.708,4.708V44.349A4.713,4.713,0,0,0,12.6,49.057H27.366V72.075H12.6a4.713,4.713,0,0,0-4.708,4.708V94.739A4.713,4.713,0,0,0,12.6,99.447H27.366v36.029A8.533,8.533,0,0,0,35.889,144h74.477a8.533,8.533,0,0,0,8.523-8.524v-6.687h14.767a4.713,4.713,0,0,0,4.708-4.708v-4.9a2.109,2.109,0,1,0-4.219,0v4.9a.49.49,0,0,1-.489.489H105.9a4.688,4.688,0,0,0-3.964,2.168l-2.431,3.795a.489.489,0,0,1-.823,0l-2.431-3.794a4.687,4.687,0,0,0-3.964-2.168H83.18a.49.49,0,0,1-.489-.489V106.125a.49.49,0,0,1,.489-.489h50.476a.49.49,0,0,1,.489.489v4.625a2.109,2.109,0,1,0,4.219,0v-4.625a4.713,4.713,0,0,0-4.708-4.708H118.888V78.4Zm-45.3-74.18L86.03,8.6a1.913,1.913,0,0,1-1.693,1.018H60.631A1.913,1.913,0,0,1,58.938,8.6L56.61,4.219ZM12.6,95.229a.49.49,0,0,1-.489-.489V76.783a.49.49,0,0,1,.489-.489H63.074a.49.49,0,0,1,.489.489V94.739a.49.49,0,0,1-.489.489H52.2A4.689,4.689,0,0,0,48.232,97.4L45.8,101.192a.489.489,0,0,1-.823,0L42.546,97.4a4.688,4.688,0,0,0-3.964-2.168ZM105.9,74.18a4.688,4.688,0,0,0-3.964,2.168l-2.431,3.795a.489.489,0,0,1-.824,0l-2.431-3.794a4.688,4.688,0,0,0-3.964-2.169H83.179a.489.489,0,0,1-.489-.489V55.734a.489.489,0,0,1,.489-.489h50.476a.489.489,0,0,1,.489.489V73.691a.489.489,0,0,1-.489.489Z" transform="translate(-7.891 0)"/>
          <path id="Trazado_156454" data-name="Trazado 156454" d="M21.7,97.653H41.847a2.109,2.109,0,1,0,0-4.219H21.7a2.109,2.109,0,0,0,0,4.219Z" transform="translate(-9.563 -13.348)"/>
          <path id="Trazado_156455" data-name="Trazado 156455" d="M59.422,103.862a2.109,2.109,0,0,0-2.109-2.109H21.7a2.109,2.109,0,1,0,0,4.219H57.313A2.109,2.109,0,0,0,59.422,103.862Z" transform="translate(-9.563 -14.536)"/>
          <path id="Trazado_156456" data-name="Trazado 156456" d="M104.049,131.885h20.143a2.109,2.109,0,1,0,0-4.219H104.049a2.109,2.109,0,1,0,0,4.219Z" transform="translate(-21.327 -18.238)"/>
          <path id="Trazado_156457" data-name="Trazado 156457" d="M104.049,140.2h35.608a2.109,2.109,0,1,0,0-4.219H104.049a2.109,2.109,0,1,0,0,4.219Z" transform="translate(-21.327 -19.426)"/>
        </g>
      </g>
    </g>
  </g>
</svg>
