<svg xmlns="http://www.w3.org/2000/svg" width="390.667" height="282.47" viewBox="0 0 390.667 282.47">
  <g id="Grupo_110731" data-name="Grupo 110731" transform="translate(-96.327 -41.606)">
    <g id="Background_Complete" data-name="Background Complete" transform="translate(96.327 109.961)">
      <g id="Grupo_110634" data-name="Grupo 110634" transform="translate(252.707 28.073)">
        <path id="Trazado_157039" data-name="Trazado 157039" d="M474.951,195.929v29.433a9.6,9.6,0,0,0,9.642,9.436H590.129a9.642,9.642,0,0,0,9.642-9.642V200.286l13.138-13.8-128.287-.4A9.687,9.687,0,0,0,474.951,195.929Z" transform="translate(-474.951 -186.081)" fill="#f5f5f5"/>
        <g id="Grupo_110631" data-name="Grupo 110631" transform="translate(13.496 14.446)">
          <path id="Trazado_157040" data-name="Trazado 157040" d="M590.939,211.11l-95.767-.442.01-2.944,95.767.443Z" transform="translate(-495.172 -207.724)" fill="#e0e0e0"/>
        </g>
        <g id="Grupo_110632" data-name="Grupo 110632" transform="translate(13.496 24.129)">
          <path id="Trazado_157041" data-name="Trazado 157041" d="M590.939,225.619l-95.767-.442.01-2.944,95.767.443Z" transform="translate(-495.172 -222.233)" fill="#e0e0e0"/>
        </g>
        <g id="Grupo_110633" data-name="Grupo 110633" transform="translate(71.37 33.824)">
          <rect id="Rectángulo_36470" data-name="Rectángulo 36470" width="2.943" height="37.892" transform="matrix(0.005, -1, 1, 0.005, 0, 2.943)" fill="#e0e0e0"/>
        </g>
      </g>
      <g id="Grupo_110638" data-name="Grupo 110638">
        <path id="Trazado_157042" data-name="Trazado 157042" d="M203.222,151.491v22.8a7.472,7.472,0,0,1-7.471,7.471H113.979a7.472,7.472,0,0,1-7.471-7.471V155.027l-10.18-10.7,99.4-.311A7.471,7.471,0,0,1,203.222,151.491Z" transform="translate(-96.327 -144.02)" fill="#e0e0e0"/>
        <g id="Grupo_110635" data-name="Grupo 110635" transform="translate(22.227 11.193)">
          <path id="Trazado_157043" data-name="Trazado 157043" d="M129.636,163.414l74.2-.343-.008-2.281-74.2.343Z" transform="translate(-129.629 -160.791)" fill="#fafafa"/>
        </g>
        <g id="Grupo_110636" data-name="Grupo 110636" transform="translate(22.227 18.697)">
          <path id="Trazado_157044" data-name="Trazado 157044" d="M129.636,174.656l74.2-.343-.008-2.281-74.2.343Z" transform="translate(-129.629 -172.032)" fill="#fafafa"/>
        </g>
        <g id="Grupo_110637" data-name="Grupo 110637" transform="translate(22.224 26.208)">
          <rect id="Rectángulo_36471" data-name="Rectángulo 36471" width="29.36" height="2.281" transform="translate(0 0.144) rotate(-0.282)" fill="#fafafa"/>
        </g>
      </g>
    </g>
    <g id="Device" transform="translate(163.152 151.808)">
      <g id="Grupo_110678" data-name="Grupo 110678" transform="translate(0 0)">
        <g id="Grupo_110644" data-name="Grupo 110644" transform="translate(0)">
          <g id="Grupo_110643" data-name="Grupo 110643">
            <g id="Grupo_110639" data-name="Grupo 110639">
              <path id="Rectángulo_36472" data-name="Rectángulo 36472" d="M11.55,0h149.17a11.549,11.549,0,0,1,11.549,11.549V235.671a11.549,11.549,0,0,1-11.549,11.549H11.549A11.549,11.549,0,0,1,0,235.67V11.55A11.55,11.55,0,0,1,11.55,0Z" transform="translate(0 172.268) rotate(-90)" fill="#263238"/>
            </g>
            <g id="Grupo_110640" data-name="Grupo 110640" transform="translate(16.914 5.433)">
              <rect id="Rectángulo_36473" data-name="Rectángulo 36473" width="161.404" height="206.458" transform="translate(0 161.404) rotate(-90)" fill="#fff"/>
            </g>
            <g id="Grupo_110641" data-name="Grupo 110641" transform="translate(226.85 78.187)">
              <circle id="Elipse_4908" data-name="Elipse 4908" cx="6.61" cy="6.61" r="6.61" transform="matrix(0.229, -0.973, 0.973, 0.229, 0, 12.869)" fill="#455a64"/>
            </g>
            <g id="Grupo_110642" data-name="Grupo 110642" transform="translate(7.12 60.192)">
              <rect id="Rectángulo_36474" data-name="Rectángulo 36474" width="51.885" height="2.731" rx="1.215" transform="translate(0 51.885) rotate(-90)" fill="#455a64"/>
            </g>
          </g>
        </g>
        <g id="Grupo_110650" data-name="Grupo 110650" transform="translate(38.441 67.882)">
          <circle id="Elipse_4909" data-name="Elipse 4909" cx="16.68" cy="16.68" r="16.68" transform="translate(0 27.865) rotate(-56.646)" fill="#e8505b"/>
          <circle id="Elipse_4910" data-name="Elipse 4910" cx="16.68" cy="16.68" r="16.68" transform="translate(0 27.865) rotate(-56.646)" fill="#fff" opacity="0.3"/>
          <g id="Grupo_110645" data-name="Grupo 110645" transform="translate(16.332 18.898)">
            <path id="Trazado_157045" data-name="Trazado 157045" d="M279.53,336.741c.631-.052,1.205.645,1.281,1.558s-.376,1.694-1.008,1.746-1.206-.645-1.281-1.558S278.9,336.793,279.53,336.741Z" transform="translate(-278.514 -336.738)" fill="#263238"/>
          </g>
          <g id="Grupo_110646" data-name="Grupo 110646" transform="translate(26.735 18.682)">
            <path id="Trazado_157046" data-name="Trazado 157046" d="M295.318,336.415c-.634-.026-1.177.693-1.215,1.608s.446,1.677,1.079,1.7,1.178-.695,1.216-1.609S295.952,336.44,295.318,336.415Z" transform="translate(-294.101 -336.414)" fill="#263238"/>
          </g>
          <g id="Grupo_110647" data-name="Grupo 110647" transform="translate(15.884 26.05)">
            <path id="Trazado_157047" data-name="Trazado 157047" d="M291.73,347.81c0,.2-3.109.356-6.943.356s-6.945-.16-6.945-.356,3.109-.356,6.945-.356S291.73,347.614,291.73,347.81Z" transform="translate(-277.842 -347.454)" fill="#263238"/>
          </g>
          <g id="Grupo_110648" data-name="Grupo 110648" transform="translate(15.073 16.578)">
            <path id="Trazado_157048" data-name="Trazado 157048" d="M280.178,333.669c-.041.2-.832.191-1.759.342s-1.681.387-1.781.211c-.1-.161.6-.749,1.671-.914S280.226,333.484,280.178,333.669Z" transform="translate(-276.628 -333.262)" fill="#263238"/>
          </g>
          <g id="Grupo_110649" data-name="Grupo 110649" transform="translate(27.445 16.452)">
            <path id="Trazado_157049" data-name="Trazado 157049" d="M298.682,334.414c-.126.159-.846-.218-1.773-.5s-1.73-.382-1.745-.585.884-.427,1.954-.1S298.809,334.272,298.682,334.414Z" transform="translate(-295.164 -333.073)" fill="#263238"/>
          </g>
        </g>
        <g id="Grupo_110656" data-name="Grupo 110656" transform="translate(162.499 69.809)">
          <circle id="Elipse_4911" data-name="Elipse 4911" cx="17.289" cy="17.289" r="17.289" transform="translate(0 34.147) rotate(-80.951)" fill="#e8505b"/>
          <circle id="Elipse_4912" data-name="Elipse 4912" cx="17.289" cy="17.289" r="17.289" transform="translate(0 34.147) rotate(-80.951)" opacity="0.3"/>
          <g id="Grupo_110651" data-name="Grupo 110651" transform="translate(12.774 15.434)">
            <path id="Trazado_157050" data-name="Trazado 157050" d="M460.109,334.438c.655-.054,1.249.669,1.328,1.615s-.39,1.756-1.045,1.81-1.25-.669-1.328-1.615S459.454,334.492,460.109,334.438Z" transform="translate(-459.055 -334.435)" fill="#263238"/>
          </g>
          <g id="Grupo_110652" data-name="Grupo 110652" transform="translate(23.557 15.21)">
            <path id="Trazado_157051" data-name="Trazado 157051" d="M476.473,334.1c-.657-.027-1.221.72-1.26,1.667s.463,1.739,1.119,1.766,1.221-.72,1.26-1.669S477.13,334.126,476.473,334.1Z" transform="translate(-475.211 -334.099)" fill="#263238"/>
          </g>
          <g id="Grupo_110653" data-name="Grupo 110653" transform="translate(12.307 20.182)">
            <path id="Trazado_157052" data-name="Trazado 157052" d="M472.753,344.583a12.458,12.458,0,0,1-2.025-1.05,11.207,11.207,0,0,0-5.147-1.271,12.813,12.813,0,0,0-5.161,1.34,11.122,11.122,0,0,1-2.063.982,5.66,5.66,0,0,1,1.827-1.426,11.228,11.228,0,0,1,5.385-1.607,10.11,10.11,0,0,1,5.4,1.544A5.376,5.376,0,0,1,472.753,344.583Z" transform="translate(-458.355 -341.549)" fill="#263238"/>
          </g>
          <g id="Grupo_110654" data-name="Grupo 110654" transform="translate(11.474 13.416)">
            <path id="Trazado_157053" data-name="Trazado 157053" d="M460.783,331.446c.059.073-.055.29-.341.541a2.875,2.875,0,0,1-1.353.633,2.6,2.6,0,0,1-1.5-.166c-.353-.164-.515-.351-.476-.435.091-.188.9.083,1.851-.1S460.651,331.28,460.783,331.446Z" transform="translate(-457.107 -331.411)" fill="#263238"/>
          </g>
          <g id="Grupo_110655" data-name="Grupo 110655" transform="translate(24.272 13.144)">
            <path id="Trazado_157054" data-name="Trazado 157054" d="M479.95,332.149c.029.087-.161.256-.543.377a2.567,2.567,0,0,1-1.554-.057,3.023,3.023,0,0,1-1.271-.85c-.254-.293-.346-.523-.278-.59.15-.156.846.44,1.782.768S479.882,331.948,479.95,332.149Z" transform="translate(-476.282 -331.004)" fill="#263238"/>
          </g>
        </g>
        <g id="Grupo_110662" data-name="Grupo 110662" transform="translate(81.539 125.509)">
          <g id="Grupo_110657" data-name="Grupo 110657" transform="translate(65.356)">
            <path id="Trazado_157055" data-name="Trazado 157055" d="M418.8,406.845l4.005-1.985,3.906,2.174-.65-4.423,3.275-3.043-4.407-.748-1.882-4.055-2.073,3.96-4.438.537,3.126,3.2Z" transform="translate(-416.538 -394.765)" fill="#e0e0e0"/>
          </g>
          <g id="Grupo_110658" data-name="Grupo 110658" transform="translate(49.017)">
            <path id="Trazado_157056" data-name="Trazado 157056" d="M394.323,406.845l4.005-1.985,3.906,2.174-.651-4.423,3.275-3.043-4.407-.748-1.882-4.055-2.073,3.96-4.438.537,3.126,3.2Z" transform="translate(-392.057 -394.765)" fill="#e8505b"/>
          </g>
          <g id="Grupo_110659" data-name="Grupo 110659" transform="translate(32.678)">
            <path id="Trazado_157057" data-name="Trazado 157057" d="M369.843,406.845l4.005-1.985,3.906,2.174-.651-4.423,3.275-3.043-4.407-.748-1.882-4.055-2.073,3.96-4.438.537,3.126,3.2Z" transform="translate(-367.577 -394.765)" fill="#e8505b"/>
          </g>
          <g id="Grupo_110660" data-name="Grupo 110660" transform="translate(16.339)">
            <path id="Trazado_157058" data-name="Trazado 157058" d="M345.362,406.845l4.005-1.985,3.906,2.174-.651-4.423,3.275-3.043-4.407-.748-1.882-4.055-2.073,3.96-4.438.537,3.126,3.2Z" transform="translate(-343.097 -394.765)" fill="#e8505b"/>
          </g>
          <g id="Grupo_110661" data-name="Grupo 110661">
            <path id="Trazado_157059" data-name="Trazado 157059" d="M320.882,406.845l4.005-1.985,3.906,2.174-.651-4.423,3.275-3.043-4.407-.748-1.882-4.055-2.073,3.96-4.438.537,3.126,3.2Z" transform="translate(-318.616 -394.765)" fill="#e8505b"/>
          </g>
        </g>
        <g id="Grupo_110663" data-name="Grupo 110663" transform="translate(79.813 39.064)">
          <path id="Trazado_157060" data-name="Trazado 157060" d="M396.1,265.425c0,.1-17.925.178-40.031.178s-40.035-.079-40.035-.178,17.921-.178,40.035-.178S396.1,265.327,396.1,265.425Z" transform="translate(-316.03 -265.247)" fill="#263238"/>
        </g>
        <g id="Grupo_110664" data-name="Grupo 110664" transform="translate(100.651 34.255)">
          <path id="Trazado_157061" data-name="Trazado 157061" d="M386.8,258.22c0,.1-8.854.178-19.773.178s-19.774-.079-19.774-.178,8.852-.178,19.774-.178S386.8,258.122,386.8,258.22Z" transform="translate(-347.251 -258.042)" fill="#263238"/>
        </g>
        <g id="Grupo_110675" data-name="Grupo 110675" transform="translate(94.349 56.959)">
          <g id="Grupo_110673" data-name="Grupo 110673" transform="translate(0.254)">
            <g id="Grupo_110670" data-name="Grupo 110670" transform="translate(0)">
              <circle id="Elipse_4913" data-name="Elipse 4913" cx="22.774" cy="22.774" r="22.774" transform="matrix(0.307, -0.952, 0.952, 0.307, 0, 43.355)" fill="#e8505b"/>
              <g id="Grupo_110665" data-name="Grupo 110665" transform="translate(19.416 22.919)">
                <path id="Trazado_157062" data-name="Trazado 157062" d="M368.667,326.4c.863-.071,1.646.881,1.749,2.127s-.514,2.313-1.377,2.385-1.647-.882-1.749-2.127S367.8,326.471,368.667,326.4Z" transform="translate(-367.279 -326.396)" fill="#263238"/>
              </g>
              <g id="Grupo_110666" data-name="Grupo 110666" transform="translate(33.62 22.623)">
                <path id="Trazado_157063" data-name="Trazado 157063" d="M390.224,325.955c-.865-.035-1.608.948-1.659,2.2s.609,2.29,1.474,2.325,1.608-.948,1.659-2.2S391.09,325.99,390.224,325.955Z" transform="translate(-388.562 -325.954)" fill="#263238"/>
              </g>
              <g id="Grupo_110667" data-name="Grupo 110667" transform="translate(18.801 30.09)">
                <path id="Trazado_157064" data-name="Trazado 157064" d="M385.324,337.15c.035.035-.15.27-.517.668a13.013,13.013,0,0,1-1.707,1.537,12.163,12.163,0,0,1-3.012,1.651,10.671,10.671,0,0,1-4.175.654,12.319,12.319,0,0,1-4.107-.946,17.7,17.7,0,0,1-3.025-1.584,9.853,9.853,0,0,1-2.42-1.979,21.888,21.888,0,0,1,2.681,1.548,21.467,21.467,0,0,0,3,1.4,12.7,12.7,0,0,0,3.9.847,10.754,10.754,0,0,0,3.923-.561,13.409,13.409,0,0,0,2.943-1.445c.776-.533,1.4-.983,1.807-1.329C385.039,337.283,385.289,337.115,385.324,337.15Z" transform="translate(-366.359 -337.141)" fill="#263238"/>
              </g>
              <g id="Grupo_110668" data-name="Grupo 110668" transform="translate(16.991 17.368)">
                <path id="Trazado_157065" data-name="Trazado 157065" d="M368.488,318.511c-.039.2-1.129.128-2.423.339-1.3.194-2.312.6-2.411.416-.1-.158.86-.9,2.3-1.119S368.538,318.329,368.488,318.511Z" transform="translate(-363.647 -318.079)" fill="#263238"/>
              </g>
              <g id="Grupo_110669" data-name="Grupo 110669" transform="translate(35.364 17.139)">
                <path id="Trazado_157066" data-name="Trazado 157066" d="M395.978,319.461c-.125.163-1.091-.413-2.381-.8-1.287-.4-2.408-.469-2.421-.673-.027-.186,1.2-.452,2.63-.007S396.1,319.323,395.978,319.461Z" transform="translate(-391.174 -317.737)" fill="#263238"/>
              </g>
            </g>
            <g id="Grupo_110671" data-name="Grupo 110671" transform="translate(16.915 28.46)">
              <path id="Trazado_157067" data-name="Trazado 157067" d="M365.792,334.7c.089-.016.234.22.257.65a2.681,2.681,0,0,1-1.817,2.56c-.414.12-.684.061-.7-.028-.033-.2.84-.491,1.44-1.37C365.607,335.655,365.6,334.733,365.792,334.7Z" transform="translate(-363.533 -334.699)" fill="#263238"/>
            </g>
            <g id="Grupo_110672" data-name="Grupo 110672" transform="translate(37.075 28.704)">
              <path id="Trazado_157068" data-name="Trazado 157068" d="M396.354,336.914c.017.09-.169.228-.526.258a2.062,2.062,0,0,1-2.06-1.529c-.073-.35,0-.569.095-.579.2-.016.425.657,1.093,1.131C395.6,336.7,396.312,336.719,396.354,336.914Z" transform="translate(-393.738 -335.065)" fill="#263238"/>
            </g>
          </g>
          <g id="Grupo_110674" data-name="Grupo 110674" transform="translate(0 0.023)">
            <path id="Trazado_157069" data-name="Trazado 157069" d="M394.572,320.53s-.02-.155-.041-.458l-.085-1.344q-.027-.443-.059-.988c-.038-.362-.115-.755-.179-1.182s-.141-.886-.218-1.377a15.2,15.2,0,0,0-.37-1.542,26.973,26.973,0,0,0-3.132-7.506,28.12,28.12,0,0,0-7.166-7.992l-1.218-.907c-.428-.28-.878-.537-1.324-.812-.455-.259-.885-.573-1.373-.794l-1.462-.7-.744-.352-.781-.284-1.585-.577c-.538-.178-1.1-.292-1.659-.444a14.288,14.288,0,0,0-1.7-.386,26.186,26.186,0,0,0-3.558-.411c-.607-.021-1.218-.08-1.834-.071l-1.862.1c-.312.022-.627.02-.94.061l-.938.144c-.626.1-1.263.177-1.892.307a29.762,29.762,0,0,0-3.751,1.1,29.314,29.314,0,0,0-3.668,1.612c-.594.322-1.163.7-1.751,1.046-.288.185-.595.342-.869.549l-.828.62a31.728,31.728,0,0,0-3.19,2.712l-1.429,1.574-.36.4-.323.428-.643.862-.647.865-.567.925-.565.932-.284.467-.24.492-.954,1.983-.763,2.082a27.866,27.866,0,0,0,0,17.744q.382,1.046.763,2.083.479,1,.954,1.984l.24.493.284.467.565.931.567.926.647.865.643.862.323.428.36.4,1.43,1.574a31.584,31.584,0,0,0,3.19,2.712l.828.62c.274.208.582.365.87.549.588.349,1.157.724,1.751,1.047a29.47,29.47,0,0,0,3.669,1.613,29.8,29.8,0,0,0,3.751,1.1c.63.13,1.267.2,1.893.308l.938.144c.312.041.628.039.94.061l1.862.1c.616.009,1.227-.049,1.834-.071a26.1,26.1,0,0,0,3.559-.411,14.441,14.441,0,0,0,1.7-.386c.557-.151,1.121-.266,1.659-.444l1.584-.577.782-.284.743-.353,1.462-.7c.487-.222.918-.536,1.373-.794.446-.274.9-.531,1.324-.812l1.217-.908a28.108,28.108,0,0,0,7.166-7.992,26.978,26.978,0,0,0,3.132-7.505,15.4,15.4,0,0,0,.369-1.542q.116-.736.218-1.377c.063-.427.141-.819.179-1.181q.032-.545.059-.989c.037-.581.065-1.028.085-1.342s.041-.458.041-.458,0,.155-.005.459-.028.763-.05,1.346q-.019.446-.041.993c-.033.364-.1.758-.163,1.187s-.131.892-.2,1.386a15.4,15.4,0,0,1-.355,1.552,26.842,26.842,0,0,1-3.1,7.574,28.208,28.208,0,0,1-7.184,8.09l-1.225.92c-.43.284-.884.545-1.333.824-.458.263-.892.581-1.384.806l-1.474.713-.75.358-.788.29-1.6.587c-.543.182-1.111.3-1.674.454a14.587,14.587,0,0,1-1.72.394,26.5,26.5,0,0,1-3.6.426c-.613.023-1.231.083-1.854.075l-1.882-.093c-.316-.021-.635-.019-.951-.06l-.949-.144c-.633-.1-1.277-.177-1.915-.308a29.966,29.966,0,0,1-3.8-1.107,29.566,29.566,0,0,1-3.714-1.626c-.6-.325-1.179-.7-1.774-1.056-.292-.186-.6-.345-.88-.555l-.839-.626a31.847,31.847,0,0,1-3.232-2.742l-1.449-1.593-.364-.4-.327-.432-.653-.872-.655-.876-.574-.936-.573-.943-.287-.473-.244-.5-.968-2.008q-.386-1.051-.774-2.109a28.186,28.186,0,0,1,0-17.967l.774-2.108.968-2.008.244-.5.288-.473.573-.942.574-.936.655-.876.652-.871.328-.433.364-.4,1.448-1.592a31.938,31.938,0,0,1,3.232-2.741l.838-.626c.278-.21.589-.369.88-.555.6-.352,1.173-.732,1.774-1.056a29.549,29.549,0,0,1,3.714-1.626,30.091,30.091,0,0,1,3.8-1.107c.637-.131,1.281-.2,1.915-.307l.949-.144c.316-.041.635-.038.95-.059l1.883-.093c.623-.009,1.241.053,1.853.075a26.277,26.277,0,0,1,3.595.425,14.634,14.634,0,0,1,1.721.394c.563.155,1.131.273,1.674.454l1.6.588.788.29.75.358,1.474.713c.491.225.926.543,1.384.806.449.278.9.539,1.333.824l1.225.92a28.215,28.215,0,0,1,7.185,8.09,26.822,26.822,0,0,1,3.1,7.574,15.282,15.282,0,0,1,.356,1.553q.108.741.2,1.386c.058.429.13.824.163,1.188q.022.547.041.993c.021.583.039,1.031.05,1.347S394.572,320.53,394.572,320.53Z" transform="translate(-337.809 -292.093)" fill="#e8505b"/>
          </g>
        </g>
        <rect id="Rectángulo_36475" data-name="Rectángulo 36475" width="206.458" height="10.301" transform="translate(16.914 5.433)" fill="#e0e0e0"/>
        <path id="Trazado_157070" data-name="Trazado 157070" d="M230.381,221.453a1.395,1.395,0,1,1-1.395-1.395A1.4,1.4,0,0,1,230.381,221.453Z" transform="translate(-206.806 -211.154)" fill="#fff"/>
        <path id="Trazado_157071" data-name="Trazado 157071" d="M237.324,221.453a1.395,1.395,0,1,1-1.395-1.395A1.4,1.4,0,0,1,237.324,221.453Z" transform="translate(-209.115 -211.154)" fill="#fff"/>
        <path id="Trazado_157072" data-name="Trazado 157072" d="M244.267,221.453a1.395,1.395,0,1,1-1.395-1.395A1.395,1.395,0,0,1,244.267,221.453Z" transform="translate(-211.424 -211.154)" fill="#fff"/>
        <g id="Grupo_110676" data-name="Grupo 110676" transform="translate(40.61 47.187)">
          <path id="Trazado_157073" data-name="Trazado 157073" d="M417.309,277.595c0,.1-35.823.178-80,.178s-80.011-.08-80.011-.178,35.816-.178,80.011-.178S417.309,277.5,417.309,277.595Z" transform="translate(-257.294 -277.417)" fill="#e0e0e0"/>
        </g>
        <g id="Grupo_110677" data-name="Grupo 110677" transform="translate(40.61 51.153)">
          <path id="Trazado_157074" data-name="Trazado 157074" d="M417.309,283.537c0,.1-35.823.178-80,.178s-80.011-.079-80.011-.178,35.816-.178,80.011-.178S417.309,283.439,417.309,283.537Z" transform="translate(-257.294 -283.359)" fill="#e0e0e0"/>
        </g>
      </g>
    </g>
    <g id="Character" transform="translate(218.009 57.705)">
      <g id="Grupo_110724" data-name="Grupo 110724">
        <g id="Grupo_110696" data-name="Grupo 110696" transform="translate(0 41.121)">
          <g id="Grupo_110693" data-name="Grupo 110693">
            <g id="Grupo_110679" data-name="Grupo 110679" transform="translate(0 17.862)">
              <path id="Trazado_157075" data-name="Trazado 157075" d="M336.675,190.329s-1.412-3.2-1.675-3.9c-.717-1.917-5.337-14.75-4.229-16.694,5.122-8.986,9.09-15.375,19.192-15.375l17.837-.119s16.9-3.442,28.816,35Z" transform="translate(-295.92 -154.12)" fill="#455a64"/>
              <path id="Trazado_157076" data-name="Trazado 157076" d="M281.761,193.527l23.357-5.034,27.461-14.445.1-19.708c-4.121-1.137-12,1.721-26.2,8.953L285.4,174.178a12.484,12.484,0,0,0-3.637,19.349Z" transform="translate(-278.639 -154.098)" fill="#455a64"/>
            </g>
            <g id="Grupo_110686" data-name="Grupo 110686" transform="translate(2.459 42.48)">
              <g id="Grupo_110683" data-name="Grupo 110683" transform="translate(37.075 42.582)">
                <g id="Grupo_110680" data-name="Grupo 110680">
                  <path id="Trazado_157077" data-name="Trazado 157077" d="M354.029,265.16c-.338-1.109-.108-1.821,1.508-1.278,3.564,1.2,6.746.806,7.525.115s.063-2.016-1.095-1.9a14.025,14.025,0,0,1-3.754-.52,9.143,9.143,0,0,1-2.8-1.183c-.743-.475-1.386-.918-1.955-1.326,0,0-3.286-2.373-4.316-4.284l-11.272,4.836,1.815,5.646a5.968,5.968,0,0,0,3.813,4.374c3.222,1.05,8.346.655,8.346.655.94-.616,4.567,4.631,5.663,6.483,1.083,1.83,2.407,2.081,2.832.95.29-.772-2.933-6.52-4.059-8.327a22.017,22.017,0,0,1-2.253-4.238" transform="translate(-337.872 -254.782)" fill="#b77153"/>
                </g>
                <g id="Grupo_110681" data-name="Grupo 110681" transform="translate(6.305 11.958)">
                  <path id="Trazado_157078" data-name="Trazado 157078" d="M349.535,276.266c-.01.041-.278.029-.663-.16a2.917,2.917,0,0,1-1.543-2.759c.041-.426.171-.661.21-.648a3.73,3.73,0,0,0,2,3.567Z" transform="translate(-347.319 -272.698)" fill="#995037"/>
                </g>
                <g id="Grupo_110682" data-name="Grupo 110682" transform="translate(10.004 12.19)">
                  <path id="Trazado_157079" data-name="Trazado 157079" d="M354.943,276.517c-.012.041-.268.016-.628-.178a2.9,2.9,0,0,1-1.446-2.67c.035-.408.155-.635.195-.623a3.864,3.864,0,0,0,1.879,3.471Z" transform="translate(-352.861 -273.046)" fill="#995037"/>
                </g>
              </g>
              <g id="Grupo_110685" data-name="Grupo 110685">
                <path id="Trazado_157080" data-name="Trazado 157080" d="M282.323,205.029s35.784,41.127,35.742,40.448,16.04-12.7,16.04-12.7l-35.085-41.79Z" transform="translate(-282.323 -190.983)" fill="#455a64"/>
                <g id="Grupo_110684" data-name="Grupo 110684" transform="translate(21.703 5.964)">
                  <path id="Trazado_157081" data-name="Trazado 157081" d="M314.841,199.919c.009-.008.1.076.252.244l.667.743,2.4,2.777c2.018,2.354,4.788,5.622,7.83,9.246s5.783,6.919,7.753,9.315l2.319,2.85.617.787a1.3,1.3,0,0,1,.2.29c-.009.008-.1-.076-.251-.243l-.667-.743-2.4-2.776c-2.018-2.355-4.789-5.623-7.832-9.249s-5.783-6.919-7.753-9.315L315.654,201l-.617-.787A1.306,1.306,0,0,1,314.841,199.919Z" transform="translate(-314.84 -199.918)" fill="#263238"/>
                </g>
              </g>
            </g>
            <g id="Grupo_110687" data-name="Grupo 110687" transform="translate(81.09 37.059)">
              <path id="Trazado_157082" data-name="Trazado 157082" d="M406.51,198.986a12.177,12.177,0,0,0,.428-2.635,7.9,7.9,0,0,0-2.339-5.769c-.868-.913-1.8-1.7-2.553-2.528a7.8,7.8,0,0,1-1.6-2.5,4.357,4.357,0,0,1-.291-1.983,1.753,1.753,0,0,1,.186-.71,4.961,4.961,0,0,0,.338,2.6,7.97,7.97,0,0,0,1.61,2.369c.746.8,1.682,1.572,2.571,2.507a8.2,8.2,0,0,1,1.928,3.08,7.888,7.888,0,0,1,.4,2.941,7.118,7.118,0,0,1-.375,1.962A2.189,2.189,0,0,1,406.51,198.986Z" transform="translate(-400.133 -182.861)" fill="#263238"/>
            </g>
            <g id="Grupo_110688" data-name="Grupo 110688" transform="translate(27.073 20.158)">
              <path id="Trazado_157083" data-name="Trazado 157083" d="M331.331,158.917a3.471,3.471,0,0,1,.519-.246c.346-.149.866-.349,1.549-.566a13.473,13.473,0,0,1,2.563-.522,8.811,8.811,0,0,1,3.453.322,8,8,0,0,1,3.531,2.272,9.385,9.385,0,0,1,2.122,4.326,16.482,16.482,0,0,1,.339,5.321,11.549,11.549,0,0,1-1.978,5.363,14.731,14.731,0,0,1-4.281,3.8c-1.566.987-3.144,1.795-4.638,2.582l-7.947,4.171-5.372,2.785-1.468.742a3.4,3.4,0,0,1-.523.236,3.527,3.527,0,0,1,.491-.3l1.438-.8,5.317-2.884,7.907-4.237c1.488-.794,3.067-1.611,4.609-2.589a14.491,14.491,0,0,0,4.177-3.708,11.245,11.245,0,0,0,1.922-5.2,16.3,16.3,0,0,0-.312-5.209,9.128,9.128,0,0,0-2.022-4.2,7.792,7.792,0,0,0-3.389-2.229,8.7,8.7,0,0,0-3.36-.364,14,14,0,0,0-2.542.457c-.684.194-1.209.372-1.562.5A3.439,3.439,0,0,1,331.331,158.917Z" transform="translate(-319.202 -157.539)" fill="#263238"/>
            </g>
            <g id="Grupo_110689" data-name="Grupo 110689" transform="translate(22.564 43.67)">
              <path id="Trazado_157084" data-name="Trazado 157084" d="M317.98,201.31a14.577,14.577,0,0,0-5.532-8.541,4.473,4.473,0,0,1,1.317.813,11.48,11.48,0,0,1,4.011,6.194A4.484,4.484,0,0,1,317.98,201.31Z" transform="translate(-312.446 -192.766)" fill="#263238"/>
            </g>
            <g id="Grupo_110690" data-name="Grupo 110690" transform="translate(58.369 34.729)">
              <path id="Trazado_157085" data-name="Trazado 157085" d="M388.417,192.388a4.344,4.344,0,0,1-.76.2,7.662,7.662,0,0,1-2.257.1,8.3,8.3,0,0,1-3.392-1.115,7.763,7.763,0,0,1-3.132-3.518,8.281,8.281,0,0,1-.432-5.679,4.654,4.654,0,0,1,1.888-2.617,2.338,2.338,0,0,1,1.7-.348,2.493,2.493,0,0,1,1.488.988,8.265,8.265,0,0,1,.8,7.12,8.461,8.461,0,0,1-2.023,3.314,7.7,7.7,0,0,1-3.478,1.966,7.951,7.951,0,0,1-7.435-1.73,7.8,7.8,0,0,1-2.231-6.779,6.714,6.714,0,0,1,1.362-3.14,3.352,3.352,0,0,1,1.332-1.02,2.146,2.146,0,0,1,1.639.017,3.048,3.048,0,0,1,1.745,2.425,5.108,5.108,0,0,1-.541,2.727,13.024,13.024,0,0,1-2.841,3.788,13.514,13.514,0,0,1-2.917,2.064,12.543,12.543,0,0,1-2.083.87c-.245.081-.438.122-.565.157a.816.816,0,0,1-.2.039.879.879,0,0,1,.186-.074c.124-.046.313-.1.553-.19a14.119,14.119,0,0,0,2.04-.924,13.744,13.744,0,0,0,2.846-2.087,12.967,12.967,0,0,0,2.748-3.748,4.869,4.869,0,0,0,.5-2.588,2.773,2.773,0,0,0-1.585-2.186,1.846,1.846,0,0,0-1.415-.007,3.062,3.062,0,0,0-1.2.936,6.413,6.413,0,0,0-1.279,2.993,7.474,7.474,0,0,0,2.146,6.474,7.615,7.615,0,0,0,7.1,1.64,7.353,7.353,0,0,0,3.319-1.874,8.124,8.124,0,0,0,1.942-3.172,8.7,8.7,0,0,0,.394-3.581,7.478,7.478,0,0,0-.367-1.715,4.937,4.937,0,0,0-.753-1.514,2.17,2.17,0,0,0-1.292-.874,2.023,2.023,0,0,0-1.478.3,4.369,4.369,0,0,0-1.768,2.434,8.041,8.041,0,0,0,.378,5.492,7.588,7.588,0,0,0,3,3.451,8.282,8.282,0,0,0,3.3,1.147A9.236,9.236,0,0,0,388.417,192.388Z" transform="translate(-366.091 -179.371)" fill="#fafafa"/>
            </g>
            <g id="Grupo_110692" data-name="Grupo 110692" transform="translate(74.571)">
              <g id="Grupo_110691" data-name="Grupo 110691">
                <path id="Trazado_157086" data-name="Trazado 157086" d="M402.733,136.386a8.089,8.089,0,0,1-1.594-3.17,2.152,2.152,0,0,1-.043-1.158.893.893,0,0,1,.861-.661c.4.038.673.411.887.752a17.02,17.02,0,0,1,1.646,3.122,2.377,2.377,0,0,1,.192.948.963.963,0,0,1-.464.808.99.99,0,0,1-1-.135,2.913,2.913,0,0,1-.685-.808" transform="translate(-393.913 -128.686)" fill="#995037"/>
                <path id="Trazado_157087" data-name="Trazado 157087" d="M405.09,134.828l-1.765-3.694a2.935,2.935,0,0,1-.365-1.15.888.888,0,0,1,1.544-.736,2.951,2.951,0,0,1,.591.872l.833,1.62a5.2,5.2,0,0,1,.549,1.378,1.755,1.755,0,0,1-.276,1.416,1.076,1.076,0,0,1-1.328.315" transform="translate(-394.554 -127.874)" fill="#995037"/>
                <path id="Trazado_157088" data-name="Trazado 157088" d="M393.059,145.729s-2.456-3.186-2.677-4.865,1.837-4.657,6.25-5.327a10.809,10.809,0,0,0,4.535-1.554,1.424,1.424,0,0,0,.517-1.722,25.613,25.613,0,0,1-1.545-4.367c.206-.9.792-.883,2.319,1.349s3.285,4.5,2.946,5.525-5.718,4.212-5.718,4.212l1.471,2.37Z" transform="translate(-390.366 -127.337)" fill="#b77153"/>
              </g>
              <path id="Trazado_157089" data-name="Trazado 157089" d="M407.825,184.352l-16.934-33.174,10.9-6.11L424.7,181.381s1.209,2.32,2.9,5.036h-19.2" transform="translate(-390.54 -133.234)" fill="#455a64"/>
            </g>
          </g>
          <g id="Grupo_110694" data-name="Grupo 110694" transform="translate(74.545 11.834)">
            <path id="Trazado_157090" data-name="Trazado 157090" d="M401.431,145.068a.823.823,0,0,1-.188.133l-.572.346-2.193,1.277-7.875,4.487.062-.2c1.647,3.359,3.787,7.242,5.945,11.463,3.212,6.244,5.989,11.962,7.941,16.127.978,2.082,1.751,3.775,2.277,4.949l.595,1.356a2.824,2.824,0,0,1,.185.483,2.874,2.874,0,0,1-.25-.453l-.655-1.328-2.379-4.9c-2.01-4.136-4.82-9.833-8.031-16.073-2.155-4.216-4.282-8.111-5.9-11.489l-.063-.133.125-.069,7.937-4.375,2.235-1.2.594-.306A.855.855,0,0,1,401.431,145.068Z" transform="translate(-390.328 -145.067)" fill="#263238"/>
          </g>
          <g id="Grupo_110695" data-name="Grupo 110695" transform="translate(37.917 46.274)">
            <path id="Trazado_157091" data-name="Trazado 157091" d="M338.288,204.464a20.359,20.359,0,0,1-2.823-7.8c.1-.023.563,1.776,1.346,3.923S338.381,204.417,338.288,204.464Z" transform="translate(-335.449 -196.668)" fill="#263238"/>
          </g>
        </g>
        <g id="Grupo_110723" data-name="Grupo 110723" transform="translate(30.517)">
          <path id="Trazado_157092" data-name="Trazado 157092" d="M394.3,121.449a6.7,6.7,0,0,0,7.9-10.127c3.824-.968,6.208-5.378,5.434-9.246a10.453,10.453,0,0,0-8.085-7.722,8.6,8.6,0,0,0-4.472.113,5.473,5.473,0,0,0-3.335,2.862" transform="translate(-346.771 -75.168)" fill="#263238"/>
          <g id="Grupo_110697" data-name="Grupo 110697" transform="translate(42.355 37.426)">
            <path id="Trazado_157093" data-name="Trazado 157093" d="M392.462,122.008c.012.041-.5.13-1.305.553a5.768,5.768,0,0,0-2.554,2.751,5.642,5.642,0,0,0,.428,5.379,5.632,5.632,0,0,0,2.494,2.1,5.595,5.595,0,0,0,6.466-1.477,5.638,5.638,0,0,0,1.334-2.976,5.644,5.644,0,0,0-1.951-5.031,5.77,5.77,0,0,0-3.5-1.369c-.91-.03-1.409.111-1.416.069a1.422,1.422,0,0,1,.358-.1,4.622,4.622,0,0,1,1.061-.108,5.758,5.758,0,0,1,3.654,1.314,5.839,5.839,0,0,1,1.654,2.168,5.937,5.937,0,0,1,.461,3.1,5.954,5.954,0,0,1-1.4,3.164,5.914,5.914,0,0,1-6.869,1.568,5.937,5.937,0,0,1-2.631-2.243,5.93,5.93,0,0,1-.929-2.989,5.833,5.833,0,0,1,.548-2.671,5.762,5.762,0,0,1,2.72-2.771,4.612,4.612,0,0,1,1-.363A1.431,1.431,0,0,1,392.462,122.008Z" transform="translate(-387.821 -121.801)" fill="#e8505b"/>
          </g>
          <path id="Trazado_157094" data-name="Trazado 157094" d="M374.25,92.842a6.561,6.561,0,0,0,3.088-12.127,8.152,8.152,0,0,0-12.168-9.54,10.817,10.817,0,0,0-20,3.2,10.454,10.454,0,0,0-13.415,14.185,8.1,8.1,0,0,0,1.372,16.138,7.145,7.145,0,0,0,10.828,8.021,7.816,7.816,0,0,0,14.053-1.615" transform="translate(-324.362 -65.727)" fill="#263238"/>
          <g id="Grupo_110709" data-name="Grupo 110709" transform="translate(21.566 12.995)">
            <g id="Grupo_110708" data-name="Grupo 110708">
              <g id="Grupo_110698" data-name="Grupo 110698">
                <path id="Trazado_157095" data-name="Trazado 157095" d="M376.963,130.629c.14-3.25.314-6.192.314-6.192s7.264-.916,7.577-8.331-.424-24.488-.424-24.488L371.059,85.2,356.674,96.786l2.257,34.053a9.03,9.03,0,0,0,9.428,8.424h0A9.03,9.03,0,0,0,376.963,130.629Z" transform="translate(-356.674 -85.197)" fill="#b77153"/>
              </g>
              <g id="Grupo_110701" data-name="Grupo 110701" transform="translate(23.744 18.004)">
                <g id="Grupo_110700" data-name="Grupo 110700">
                  <g id="Grupo_110699" data-name="Grupo 110699">
                    <path id="Trazado_157096" data-name="Trazado 157096" d="M395.9,113.289c-.117.124-.809-.459-1.8-.5-.994-.053-1.734.467-1.839.332-.052-.06.068-.288.39-.524a2.4,2.4,0,0,1,2.909.131C395.862,113,395.962,113.233,395.9,113.289Z" transform="translate(-392.249 -112.173)" fill="#263238"/>
                  </g>
                </g>
              </g>
              <g id="Grupo_110704" data-name="Grupo 110704" transform="translate(12.72 18.004)">
                <g id="Grupo_110703" data-name="Grupo 110703">
                  <g id="Grupo_110702" data-name="Grupo 110702">
                    <path id="Trazado_157097" data-name="Trazado 157097" d="M379.387,113.289c-.117.124-.81-.459-1.8-.5-.994-.053-1.734.467-1.839.332-.052-.06.067-.288.39-.524a2.4,2.4,0,0,1,2.909.131C379.344,113,379.445,113.233,379.387,113.289Z" transform="translate(-375.731 -112.173)" fill="#263238"/>
                  </g>
                </g>
              </g>
              <g id="Grupo_110706" data-name="Grupo 110706" transform="translate(19.785 17.697)">
                <g id="Grupo_110705" data-name="Grupo 110705">
                  <path id="Trazado_157098" data-name="Trazado 157098" d="M386.646,120.612a6.127,6.127,0,0,1,1.622-.247c.255-.018.5-.063.542-.247a1.484,1.484,0,0,0-.157-.814q-.343-1-.719-2.1a38.2,38.2,0,0,1-1.6-5.49,38,38,0,0,1,2.01,5.348q.36,1.106.688,2.114a1.7,1.7,0,0,1,.115,1.074.63.63,0,0,1-.425.381,1.585,1.585,0,0,1-.432.047A6.086,6.086,0,0,1,386.646,120.612Z" transform="translate(-386.318 -111.711)" fill="#263238"/>
                </g>
              </g>
              <g id="Grupo_110707" data-name="Grupo 110707" transform="translate(10.984 36.091)">
                <path id="Trazado_157099" data-name="Trazado 157099" d="M382.75,142.42a17.69,17.69,0,0,1-9.619-3.149s2.261,5.4,9.493,4.969Z" transform="translate(-373.131 -139.271)" fill="#995037"/>
              </g>
            </g>
          </g>
          <path id="Trazado_157100" data-name="Trazado 157100" d="M371.215,85.249a9.786,9.786,0,0,0,.135,11.331,5.686,5.686,0,0,0,4.489,2.508c1.781-.065,3.5-1.753,3.127-3.495a3.686,3.686,0,1,0,7.06.126,6.647,6.647,0,0,0,.831,2.275,2.255,2.255,0,0,0,2.048,1.077c1.118-.148,1.767-1.348,2.023-2.445a10.051,10.051,0,0,0-2.856-9.243,12.181,12.181,0,0,0-9.263-3.249,15.513,15.513,0,0,0-9.1,3.98" transform="translate(-339.365 -71.839)" fill="#263238"/>
          <path id="Trazado_157101" data-name="Trazado 157101" d="M365.366,89.737a17.284,17.284,0,0,1,1.493,6.652,8.923,8.923,0,0,1-2.4,6.245,6.071,6.071,0,0,1-6.307,1.513,7.024,7.024,0,0,1-.919,5.919,4.5,4.5,0,0,1-5.5,1.445c-1.638-.9-2.346-2.884-2.571-4.738a15.169,15.169,0,0,1,16.5-16.932" transform="translate(-332.574 -73.712)" fill="#263238"/>
          <g id="Grupo_110712" data-name="Grupo 110712" transform="translate(19.406 33.422)">
            <g id="Grupo_110711" data-name="Grupo 110711">
              <path id="Trazado_157102" data-name="Trazado 157102" d="M357.654,116.072a2.608,2.608,0,0,0-3.124.748,4.261,4.261,0,0,0,4.24,7" transform="translate(-353.438 -115.802)" fill="#b77153"/>
              <g id="Grupo_110710" data-name="Grupo 110710" transform="translate(1.53 2.189)">
                <path id="Trazado_157103" data-name="Trazado 157103" d="M358.188,122.685c0,.042-.33.089-.841-.055a2.232,2.232,0,0,1-1.524-1.363,1.629,1.629,0,0,1,.041-1.184,1.743,1.743,0,0,1,.616-.73c.457-.3.808-.29.81-.252.017.056-.3.137-.656.452a1.463,1.463,0,0,0-.473,1.6,2.2,2.2,0,0,0,1.272,1.239C357.88,122.585,358.194,122.63,358.188,122.685Z" transform="translate(-355.731 -119.082)" fill="#995037"/>
              </g>
            </g>
          </g>
          <g id="Grupo_110713" data-name="Grupo 110713" transform="translate(33.6 28.189)">
            <path id="Trazado_157104" data-name="Trazado 157104" d="M379.658,108.792c-.093.289-1.177.183-2.467.24-1.291.039-2.363.225-2.478-.055-.12-.26.934-.959,2.438-1.011S379.758,108.525,379.658,108.792Z" transform="translate(-374.704 -107.962)" fill="#263238"/>
          </g>
          <g id="Grupo_110714" data-name="Grupo 110714" transform="translate(45.698 27.649)">
            <path id="Trazado_157105" data-name="Trazado 157105" d="M396.073,108.317c-.113.1-.336.035-.594-.03a2.42,2.42,0,0,0-.906-.057,11.165,11.165,0,0,1-1.139.1c-.326,0-.554-.073-.6-.215s.1-.325.381-.509a2.849,2.849,0,0,1,1.259-.44,1.671,1.671,0,0,1,1.433.5C396.164,107.972,396.178,108.226,396.073,108.317Z" transform="translate(-392.831 -107.152)" fill="#263238"/>
          </g>
          <path id="Trazado_157106" data-name="Trazado 157106" d="M383.958,127.707a2.234,2.234,0,0,1,1.873-.265,1.4,1.4,0,0,1,.93,1.53,1.533,1.533,0,0,1-.6.854,1.951,1.951,0,0,1-1.545.378,1.513,1.513,0,0,1-1.149-1.051,1.238,1.238,0,0,1,.6-1.39" transform="translate(-344.005 -86.216)" fill="#995037"/>
          <g id="Grupo_110715" data-name="Grupo 110715" transform="translate(39.251 40.476)">
            <path id="Trazado_157107" data-name="Trazado 157107" d="M387.513,128.176c.017.04-.237.21-.715.313a3.225,3.225,0,0,1-3.334-1.389c-.264-.412-.321-.712-.281-.728s.188.234.483.577a3.607,3.607,0,0,0,3.1,1.29C387.214,128.207,387.493,128.125,387.513,128.176Z" transform="translate(-383.171 -126.371)" fill="#263238"/>
          </g>
          <g id="Grupo_110716" data-name="Grupo 110716" transform="translate(16.793 39.886)">
            <path id="Trazado_157108" data-name="Trazado 157108" d="M361.272,131.419c-.042,0-.015-.515-.248-1.4a5.77,5.77,0,0,0-2.114-3.1,5.644,5.644,0,0,0-5.339-.781,5.65,5.65,0,0,0-2.6,1.963,5.6,5.6,0,0,0,0,6.633,5.642,5.642,0,0,0,2.6,1.964,5.643,5.643,0,0,0,5.34-.782,5.768,5.768,0,0,0,2.113-3.1c.232-.88.206-1.4.248-1.4a1.419,1.419,0,0,1,.017.371,4.632,4.632,0,0,1-.131,1.059,5.761,5.761,0,0,1-2.1,3.269,5.833,5.833,0,0,1-2.482,1.129,5.927,5.927,0,0,1-3.122-.24,5.929,5.929,0,0,1-2.773-2.065,5.913,5.913,0,0,1,0-7.045,5.937,5.937,0,0,1,2.773-2.065,5.931,5.931,0,0,1,3.121-.24,5.841,5.841,0,0,1,2.482,1.129,5.764,5.764,0,0,1,2.1,3.27,4.623,4.623,0,0,1,.131,1.058A1.416,1.416,0,0,1,361.272,131.419Z" transform="translate(-349.523 -125.486)" fill="#e8505b"/>
          </g>
          <g id="Grupo_110717" data-name="Grupo 110717" transform="translate(32.974 12.636)">
            <path id="Trazado_157109" data-name="Trazado 157109" d="M389.729,84.662c0-.009.065.006.185.045a1.443,1.443,0,0,1,.466.3,2.158,2.158,0,0,1,.6,1.946A2.782,2.782,0,0,1,388.667,89a5.788,5.788,0,0,1-3.912-.935l-1.378-.795,1.512.5a1.636,1.636,0,0,1,1.021,1.171,2.1,2.1,0,0,1-.211,1.6,2.234,2.234,0,0,1-1.358.962,3.182,3.182,0,0,1-1.692-.037,5.786,5.786,0,0,1-2.906-2.51l-.966-1.414L380,88.724a2.67,2.67,0,0,1,.661,2.523,2.763,2.763,0,0,1-1.484,1.88,3.594,3.594,0,0,1-3.8-.463,4.518,4.518,0,0,1-1.438-2.142,4.174,4.174,0,0,1-.16-.675.732.732,0,0,1-.014-.24c.029-.005.071.322.286.876a4.6,4.6,0,0,0,1.462,2.007,3.369,3.369,0,0,0,3.526.371,2.458,2.458,0,0,0,1.3-1.686,2.348,2.348,0,0,0-.58-2.2l.262-.222a5.51,5.51,0,0,0,2.72,2.363,2.339,2.339,0,0,0,2.651-.762,1.592,1.592,0,0,0-.615-2.275l.134-.3a5.568,5.568,0,0,0,3.7.95,2.578,2.578,0,0,0,2.166-1.815,2.082,2.082,0,0,0-.476-1.831A2.49,2.49,0,0,0,389.729,84.662Z" transform="translate(-373.766 -84.659)" fill="#455a64"/>
          </g>
          <g id="Grupo_110718" data-name="Grupo 110718" transform="translate(9.805 13.073)">
            <path id="Trazado_157110" data-name="Trazado 157110" d="M360.4,96.8c.006,0-.024.049-.088.129a2.96,2.96,0,0,1-.312.332,4.322,4.322,0,0,1-4.19.932,4.487,4.487,0,0,1-2.65-2.292l.28-.039a4.317,4.317,0,1,1-7.262-3.8l.232.253a4.436,4.436,0,0,1-2.807,1.016,4.82,4.82,0,0,1-2.636-.718,3.986,3.986,0,0,1-1.578-1.853,4.685,4.685,0,0,1,.767-4.777,2.862,2.862,0,0,1,.814-.675c.022.027-.3.226-.725.751a4.61,4.61,0,0,0-.969,2.65,4.453,4.453,0,0,0,.352,1.95,3.736,3.736,0,0,0,1.494,1.7,4.539,4.539,0,0,0,2.474.645,4.124,4.124,0,0,0,2.589-.952l.232.253a4.121,4.121,0,0,0-.85,4.487,4.079,4.079,0,0,0,4.458,2.265,4.143,4.143,0,0,0,3.122-3.25l.077-.47.2.431a4.261,4.261,0,0,0,2.458,2.19,4.113,4.113,0,0,0,2.57.021,4.453,4.453,0,0,0,1.486-.792C360.249,96.949,360.388,96.789,360.4,96.8Z" transform="translate(-339.053 -85.314)" fill="#455a64"/>
          </g>
          <g id="Grupo_110719" data-name="Grupo 110719" transform="translate(2.933 28.18)">
            <path id="Trazado_157111" data-name="Trazado 157111" d="M343.74,116.2a1.7,1.7,0,0,1-.577.344,3.931,3.931,0,0,1-4.394-.955,4.12,4.12,0,0,1-1-3.423l.305.135a6.813,6.813,0,0,1-2.507,2.046,5.381,5.381,0,0,1-2.433.519,4.959,4.959,0,0,1-2.236-.615,3.951,3.951,0,0,1-2.126-3.158,3.749,3.749,0,0,1,.687-2.5,2.887,2.887,0,0,1,.5-.509c.132-.1.2-.142.211-.131.024.027-.26.224-.6.72a3.7,3.7,0,0,0,1.483,5.3,4.822,4.822,0,0,0,4.362.061,6.577,6.577,0,0,0,2.383-1.932l.432-.558-.127.693a3.85,3.85,0,0,0,.887,3.165,3.671,3.671,0,0,0,2.349,1.223,4.086,4.086,0,0,0,1.783-.181C343.524,116.3,343.727,116.179,343.74,116.2Z" transform="translate(-328.757 -107.948)" fill="#455a64"/>
          </g>
          <g id="Grupo_110720" data-name="Grupo 110720" transform="translate(50.722 21.974)">
            <path id="Trazado_157112" data-name="Trazado 157112" d="M405.35,98.65a2.24,2.24,0,0,1,.148,1.233,4.434,4.434,0,0,1-3.9,4.079,2.241,2.241,0,0,1-1.239-.092c.005-.059.476-.009,1.2-.156a4.58,4.58,0,0,0,3.692-3.86C405.362,99.126,405.291,98.658,405.35,98.65Z" transform="translate(-400.358 -98.65)" fill="#455a64"/>
          </g>
          <g id="Grupo_110721" data-name="Grupo 110721" transform="translate(51.379 28.963)">
            <path id="Trazado_157113" data-name="Trazado 157113" d="M409.76,109.121a1.08,1.08,0,0,1,.168.506,2.873,2.873,0,0,1-.138,1.464,2.27,2.27,0,0,1-1.616,1.485,2.317,2.317,0,0,1-1.351-.117,1.864,1.864,0,0,1-1.063-1.031l.336-.113a2.3,2.3,0,0,1,.083.656,2.658,2.658,0,0,1-1.673,2.378,2.226,2.226,0,0,1-1.328.055,2.571,2.571,0,0,1-1-.552,2.423,2.423,0,0,1-.808-1.4,1.058,1.058,0,0,1,.019-.591c.033,0,.021.212.117.561a2.443,2.443,0,0,0,.835,1.238,2.077,2.077,0,0,0,2.052.383,2.359,2.359,0,0,0,1.434-2.078,1.978,1.978,0,0,0-.068-.551l.336-.113a1.806,1.806,0,0,0,2.02.962A2.045,2.045,0,0,0,409.565,111a3.083,3.083,0,0,0,.232-1.36A3.152,3.152,0,0,1,409.76,109.121Z" transform="translate(-401.342 -109.121)" fill="#455a64"/>
          </g>
          <g id="Grupo_110722" data-name="Grupo 110722" transform="translate(37.766 38.879)">
            <path id="Trazado_157114" data-name="Trazado 157114" d="M382.623,123.979c.045.007.075.152.015.378a1.561,1.561,0,0,1-1.324,1.1c-.233.016-.37-.041-.369-.085,0-.1.515-.15.968-.538S382.524,123.962,382.623,123.979Z" transform="translate(-380.946 -123.978)" fill="#263238"/>
          </g>
        </g>
      </g>
    </g>
    <g id="Speech_Bubble" data-name="Speech Bubble" transform="translate(187.083 41.606)">
      <g id="Grupo_110730" data-name="Grupo 110730" transform="translate(0)">
        <g id="Grupo_110726" data-name="Grupo 110726">
          <g id="Grupo_110725" data-name="Grupo 110725">
            <path id="Trazado_157115" data-name="Trazado 157115" d="M257.73,41.615a2.8,2.8,0,0,1-.464.057l-1.36.115a15.272,15.272,0,0,0-2.19.318c-.428.092-.9.132-1.384.28l-1.544.447a25.531,25.531,0,0,0-7.33,3.741,26.12,26.12,0,0,0-7.163,8.157,27.526,27.526,0,0,0-2.477,5.835,29.223,29.223,0,0,0-.924,10.413c.039.613.178,1.22.263,1.837a12.974,12.974,0,0,0,.372,1.847,26.107,26.107,0,0,0,2.882,7.225,25.8,25.8,0,0,0,12.3,10.927,23.726,23.726,0,0,0,8.609,1.831,23.225,23.225,0,0,0,8.949-1.392l.876-.333.115-.043.105.051,12.683,6.259-.371.324c-1.394-4.163-2.746-8.2-4.042-12.073l-.05-.15.11-.113a26.929,26.929,0,0,0,6.495-11.082,27.647,27.647,0,0,0,.827-11.729,26.969,26.969,0,0,0-9.2-16.8,27.7,27.7,0,0,0-6.239-3.871,27.123,27.123,0,0,0-5.251-1.589l-1.965-.312-1.448-.085-.887-.058a1.516,1.516,0,0,1-.3-.035,1.615,1.615,0,0,1,.3-.009l.89.015,1.458.042,1.983.272a26.6,26.6,0,0,1,5.319,1.528,27.66,27.66,0,0,1,6.347,3.854,27.168,27.168,0,0,1,5.9,6.959A27.47,27.47,0,0,1,283.454,64.3a28.044,28.044,0,0,1-.8,11.928,27.37,27.37,0,0,1-6.59,11.306l.06-.262,4.059,12.068.2.608-.576-.284-12.686-6.251.221.008-.894.34a23.724,23.724,0,0,1-9.149,1.42,24.228,24.228,0,0,1-8.8-1.88,26.276,26.276,0,0,1-12.531-11.167,26.546,26.546,0,0,1-2.913-7.364,13.49,13.49,0,0,1-.371-1.88c-.085-.629-.224-1.246-.262-1.869a29.623,29.623,0,0,1,.984-10.575,27.792,27.792,0,0,1,2.546-5.909,26.284,26.284,0,0,1,7.316-8.211,25.364,25.364,0,0,1,7.448-3.7l1.564-.426a14.147,14.147,0,0,1,1.4-.258,14.313,14.313,0,0,1,2.209-.268l1.368-.061A3,3,0,0,1,257.73,41.615Z" transform="translate(-232.303 -41.606)" fill="#263238"/>
          </g>
        </g>
        <g id="Grupo_110729" data-name="Grupo 110729" transform="translate(15.906 14.047)">
          <g id="Grupo_110727" data-name="Grupo 110727">
            <path id="Trazado_157116" data-name="Trazado 157116" d="M271.622,71.893l-1.848.021-4.1-5.574-.042-3.688s-2.858-.143-2.467,4.683.013,3.6.013,3.6-6.064.092-6.562.625c-.362.387-.459,6.413-.486,9.68a3.539,3.539,0,0,0,2.547,3.535,2.653,2.653,0,0,0,.653.08c1.512-.017,9.227-1.335,9.227-1.335l3.192-.036Z" transform="translate(-256.135 -62.652)" fill="#e8505b"/>
          </g>
          <g id="Grupo_110728" data-name="Grupo 110728" transform="translate(16.467 8.169)">
            <path id="Trazado_157117" data-name="Trazado 157117" d="M285.1,74.891l-.993,12.65-3.164.036-.141-12.383Z" transform="translate(-280.807 -74.891)" fill="#e8505b"/>
          </g>
        </g>
      </g>
    </g>
  </g>
</svg>
