<svg xmlns="http://www.w3.org/2000/svg" xmlns:xlink="http://www.w3.org/1999/xlink" width="85" height="85" viewBox="0 0 85 85">
  <defs>
    <clipPath id="clip-path">
      <rect id="Rectángulo_36420" data-name="Rectángulo 36420" width="52" height="52" transform="translate(197 956)" fill="#fff" stroke="#707070" stroke-width="1"/>
    </clipPath>
  </defs>
  <g id="Grupo_119008" data-name="Grupo 119008" transform="translate(-180 -939)">
    <circle id="Elipse_4518" data-name="Elipse 4518" cx="42.5" cy="42.5" r="42.5" transform="translate(180 939)" fill="#ff6d60"/>
    <g id="Enmascarar_grupo_186" data-name="Enmascarar grupo 186" clip-path="url(#clip-path)">
      <g id="rapido" transform="translate(197 959.834)">
        <g id="Grupo_108363" data-name="Grupo 108363">
          <path id="Trazado_155964" data-name="Trazado 155964" d="M10.471,34.989a17.907,17.907,0,0,1-2.4-8.974H1.012A24.925,24.925,0,0,0,4.36,38.5a3.524,3.524,0,0,0,6.111-3.512Zm0,0" fill="#00c9af" stroke="#707070" stroke-width="0.102" fill-rule="evenodd"/>
          <path id="Trazado_155965" data-name="Trazado 155965" d="M43.932,26.015a17.907,17.907,0,0,1-2.4,8.974A3.524,3.524,0,0,0,47.64,38.5a24.921,24.921,0,0,0,3.348-12.486Zm0,0" fill="#fd4848" stroke="#707070" stroke-width="0.102" fill-rule="evenodd"/>
          <path id="Trazado_155966" data-name="Trazado 155966" d="M8.223,23.67a17.85,17.85,0,0,1,2.253-6.618L4.352,13.517a25.1,25.1,0,0,0-3.34,12.5H8.068a18.021,18.021,0,0,1,.154-2.345Zm0,0" fill="#8ae7d3" stroke="#707070" stroke-width="0.102" fill-rule="evenodd"/>
          <path id="Trazado_155967" data-name="Trazado 155967" d="M4.353,13.517l6.123,3.535a18.072,18.072,0,0,1,6.562-6.56L13.5,4.36a25.057,25.057,0,0,0-9.145,9.156Zm0,0" fill="#ffd777" stroke="#707070" stroke-width="0.102" fill-rule="evenodd"/>
          <path id="Trazado_155968" data-name="Trazado 155968" d="M13.5,4.36l3.54,6.132A17.9,17.9,0,0,1,26,8.1V1.016A24.971,24.971,0,0,0,13.5,4.36Zm0,0" fill="#ffba4a" stroke="#707070" stroke-width="0.102" fill-rule="evenodd"/>
          <path id="Trazado_155969" data-name="Trazado 155969" d="M26,1.016V8.1a17.986,17.986,0,0,1,4.432.554l.413.11a17.8,17.8,0,0,1,4.117,1.733L38.5,4.36A24.968,24.968,0,0,0,26,1.016Zm0,0" fill="#ffba4a" stroke="#707070" stroke-width="0.102" fill-rule="evenodd"/>
          <path id="Trazado_155970" data-name="Trazado 155970" d="M38.5,4.36l-3.54,6.132a18.072,18.072,0,0,1,6.562,6.56l6.124-3.535A25.062,25.062,0,0,0,38.5,4.36Zm0,0" fill="#ff8244" stroke="#707070" stroke-width="0.102" fill-rule="evenodd"/>
          <path id="Trazado_155971" data-name="Trazado 155971" d="M47.648,13.517l-6.124,3.535a17.85,17.85,0,0,1,2.253,6.618,18.091,18.091,0,0,1,.154,2.345h7.056a25.1,25.1,0,0,0-3.34-12.5Zm0,0" fill="#ff8244" stroke="#707070" stroke-width="0.102" fill-rule="evenodd"/>
          <path id="Trazado_155972" data-name="Trazado 155972" d="M25.482,27.957l4.933.806,14.958,2.444L31.2,25.844l-4.674-1.768a2.009,2.009,0,1,0-1.04,3.881Zm0,0" fill="gray" stroke="#707070" stroke-width="0.102" fill-rule="evenodd"/>
          <path id="Trazado_155973" data-name="Trazado 155973" d="M30.415,28.763l-4.933-.806a2.009,2.009,0,1,1,1.04-3.881L31.2,25.844a5.178,5.178,0,1,0-.78,2.919Zm0,0" fill="#e6e6e6" stroke="#707070" stroke-width="0.102" fill-rule="evenodd"/>
          <path id="Trazado_155974" data-name="Trazado 155974" d="M19.905,37.019H32.095v3.25H19.905Zm0,0" fill="#8ae7d3" stroke="#707070" stroke-width="0.102" fill-rule="evenodd"/>
        </g>
        <path id="Trazado_155975" data-name="Trazado 155975" d="M8.323,9.354a1.012,1.012,0,0,0,.718-.3l.006-.006A1.016,1.016,0,0,0,7.626,7.6L7.6,7.621a1.016,1.016,0,0,0,.719,1.733Zm0,0" stroke="#707070" stroke-width="0.102"/>
        <path id="Trazado_155976" data-name="Trazado 155976" d="M51.781,22.625A26.152,26.152,0,0,0,44.4,7.62,26.023,26.023,0,0,0,10.964,4.781,1.016,1.016,0,0,0,12.14,6.437q.492-.349,1-.67l2.526,4.376a19,19,0,0,0-5.529,5.538L5.759,13.156A23.773,23.773,0,0,1,7.243,11.07,1.016,1.016,0,0,0,5.653,9.8a26.03,26.03,0,0,0-2.174,29.2,4.54,4.54,0,1,0,7.872-4.526,16.912,16.912,0,0,1,26.6-20.419,16.926,16.926,0,0,1,4.689,15.026l-10.494-3.97a6.2,6.2,0,1,0-1.271,4.75l11.07,1.809a17.1,17.1,0,0,1-1.3,2.806,4.54,4.54,0,0,0,7.872,4.526,26.124,26.124,0,0,0,3.261-16.383ZM9.591,35.495a2.509,2.509,0,1,1-4.351,2.5A23.754,23.754,0,0,1,2.045,27.031H7.084a19.049,19.049,0,0,0,2.507,8.464ZM7.216,23.538c-.064.486-.108.974-.134,1.462H2.049q.046-1.052.184-2.109a24.083,24.083,0,0,1,2.512-7.974l4.373,2.524a18.881,18.881,0,0,0-1.9,6.1Zm15.829,5.436a4.181,4.181,0,1,1,6.734-4.751l-2.9-1.1a2.706,2.706,0,0,0-2.215.144,3.112,3.112,0,0,0-1.194,4.457,2.707,2.707,0,0,0,1.846,1.233l3.056.5a4.188,4.188,0,0,1-5.329-.486Zm7.535-1.212-.008,0-4.925-.8a.7.7,0,0,1-.468-.33,1.081,1.081,0,0,1,.415-1.547.785.785,0,0,1,.352-.091.612.612,0,0,1,.217.04l4.655,1.761.029.011,4.683,1.771ZM27.016,7.107V2.054a23.818,23.818,0,0,1,10.09,2.693L34.579,9.124a18.807,18.807,0,0,0-7.563-2.018ZM14.895,4.748a23.8,23.8,0,0,1,10.09-2.695V7.107a18.807,18.807,0,0,0-7.563,2.018Zm21.442,5.4,2.528-4.378a24.24,24.24,0,0,1,7.383,7.387l-4.381,2.53a19.007,19.007,0,0,0-5.53-5.539Zm6.546,7.3,4.381-2.53a24,24,0,0,1,2.5,7.979q.139,1.056.184,2.109H44.918q-.039-.732-.134-1.462a18.872,18.872,0,0,0-1.9-6.1Zm3.877,20.554a2.508,2.508,0,0,1-4.351-2.5,18.829,18.829,0,0,0,1.564-3.489l1.238.2a1.016,1.016,0,0,0,.523-1.953l-1.176-.444a19.183,19.183,0,0,0,.359-2.782h5.039a23.75,23.75,0,0,1-3.2,10.964Zm0,0" stroke="#707070" stroke-width="0.102"/>
        <path id="Trazado_155977" data-name="Trazado 155977" d="M32.095,36H19.905a1.016,1.016,0,0,0-1.016,1.016v3.25a1.016,1.016,0,0,0,1.016,1.016H32.095a1.016,1.016,0,0,0,1.016-1.016v-3.25A1.016,1.016,0,0,0,32.095,36Zm-1.016,3.25H20.921V38.035H31.079Zm0,0" stroke="#707070" stroke-width="0.102"/>
        <path id="Trazado_155978" data-name="Trazado 155978" d="M10.987,25a1.016,1.016,0,0,0,0,2.031h.024a1.016,1.016,0,0,0,0-2.031Zm0,0" stroke="#707070" stroke-width="0.102"/>
        <path id="Trazado_155979" data-name="Trazado 155979" d="M19.387,12.526l-.012-.021a1.016,1.016,0,0,0-1.759,1.016l.012.021a1.016,1.016,0,1,0,1.759-1.016Zm0,0" stroke="#707070" stroke-width="0.102"/>
        <path id="Trazado_155980" data-name="Trazado 155980" d="M33.5,14.052a1.015,1.015,0,0,0,.88-.508l.012-.021a1.016,1.016,0,1,0-1.759-1.016l-.012.021a1.016,1.016,0,0,0,.879,1.524Zm0,0" stroke="#707070" stroke-width="0.102"/>
        <path id="Trazado_155981" data-name="Trazado 155981" d="M41.013,27.034a1.016,1.016,0,0,0,0-2.032H40.99a1.016,1.016,0,1,0,0,2.032Zm0,0" stroke="#707070" stroke-width="0.102"/>
        <path id="Trazado_155982" data-name="Trazado 155982" d="M22.469,42.3h-.024a1.016,1.016,0,0,0,0,2.031h.024a1.016,1.016,0,1,0,0-2.031Zm0,0" stroke="#707070" stroke-width="0.102"/>
        <path id="Trazado_155983" data-name="Trazado 155983" d="M29.555,42.3H25.387a1.016,1.016,0,0,0,0,2.032h4.168a1.016,1.016,0,0,0,0-2.032Zm0,0" stroke="#707070" stroke-width="0.102"/>
      </g>
    </g>
  </g>
</svg>
