<svg xmlns="http://www.w3.org/2000/svg" width="85" height="85" viewBox="0 0 85 85">
  <g id="Grupo_119009" data-name="Grupo 119009" transform="translate(-600 -939)">
    <circle id="Elipse_4519" data-name="Elipse 4519" cx="42.5" cy="42.5" r="42.5" transform="translate(600 939)" fill="#ff6d60"/>
    <g id="compras" transform="translate(612.01 951)">
      <path id="Trazado_155926" data-name="Trazado 155926" d="M52.849,10.563v40a1.25,1.25,0,0,1-1.25,1.25H18.191a1.25,1.25,0,0,1-1.251-1.25v-40a1.251,1.251,0,0,1,1.251-1.251H51.6A1.25,1.25,0,0,1,52.849,10.563Zm0,0" fill="#f44545"/>
      <path id="Trazado_155927" data-name="Trazado 155927" d="M52.849,10.563v40a1.25,1.25,0,0,1-1.25,1.25H43.116V9.312H51.6a1.25,1.25,0,0,1,1.25,1.251Zm0,0" fill="#c42d2d"/>
      <path id="Trazado_155928" data-name="Trazado 155928" d="M40.568,39.569A2.661,2.661,0,0,0,39.4,43.15l.82,1.612a.782.782,0,0,1-.7,1.136H36.363l-7.479,0a1.772,1.772,0,1,0-.049,3.543c-3.5,0-3.3,0-3.311,0A1.855,1.855,0,0,0,24.275,50a1.8,1.8,0,0,0-.482,1.742,1.67,1.67,0,0,0,1.693,1.239h1.538a1.771,1.771,0,0,0,.035,3.541l5.522,0a1.768,1.768,0,0,0-1.772,1.77,1.771,1.771,0,0,0,1.77,1.771l12.386,0H45A4.18,4.18,0,0,0,49.18,55.9l-.016-9.361a4.255,4.255,0,0,0-.049-.644H46.752a2.83,2.83,0,0,1-2.523-1.547l-2.191-4.3a1.093,1.093,0,0,0-1.47-.478Zm0,0" fill="#f2bb88"/>
      <path id="Trazado_155929" data-name="Trazado 155929" d="M49.177,54.3A4.181,4.181,0,0,1,45,58.333h-.032l-14.155,0a1.77,1.77,0,0,0,1.769,1.734l12.386,0H45A4.181,4.181,0,0,0,49.18,55.9Zm0,0" fill="#e3a76f"/>
      <path id="Trazado_155930" data-name="Trazado 155930" d="M51.325,60.358h6.353c1.308,0,2.384-.806,2.384-1.793V45.335a2.159,2.159,0,0,0-2.377-1.8H51.332c-1.308,0-2.378.807-2.379,1.793l0,13.231a2.158,2.158,0,0,0,2.376,1.8Zm0,0" fill="#d2d2d7"/>
      <path id="Trazado_155931" data-name="Trazado 155931" d="M53.295,60.358h4.384c1.308,0,2.384-.806,2.384-1.793V45.335a2.159,2.159,0,0,0-2.377-1.8H53.295Zm0,0" fill="#5596fb"/>
      <path id="Trazado_155932" data-name="Trazado 155932" d="M20.411,15.081a2.662,2.662,0,0,1,1.165,3.581l-.82,1.612a.782.782,0,0,0,.7,1.136h3.163l7.48,0a1.772,1.772,0,1,1,.049,3.543c2.8,0,3.293,0,3.311,0a1.854,1.854,0,0,1,1.248.559,1.808,1.808,0,0,1,.482,1.742,1.67,1.67,0,0,1-1.693,1.239H33.954a1.771,1.771,0,0,1-.036,3.542l-5.521,0a1.767,1.767,0,0,1,1.772,1.77,1.771,1.771,0,0,1-1.77,1.771l-12.386,0h-.032A4.181,4.181,0,0,1,11.8,31.414l.017-9.361a4.2,4.2,0,0,1,.049-.644h2.362a2.83,2.83,0,0,0,2.523-1.547l2.191-4.3a1.093,1.093,0,0,1,1.471-.478Zm0,0" fill="#f2bb88"/>
      <path id="Trazado_155933" data-name="Trazado 155933" d="M11.8,29.812a4.179,4.179,0,0,0,4.179,4.033h.033l14.155,0A1.77,1.77,0,0,1,28.4,35.577l-12.386,0h-.033A4.179,4.179,0,0,1,11.8,31.415Zm0,0" fill="#e3a76f"/>
      <path id="Trazado_155934" data-name="Trazado 155934" d="M12.029,33.7a2.158,2.158,0,0,1-2.375,1.8H3.3C1.991,35.5.915,34.7.915,33.708V20.48a2.159,2.159,0,0,1,2.376-1.8H9.646c1.308,0,2.378.807,2.379,1.794Zm0,0" fill="#ebebf0"/>
      <path id="Trazado_155935" data-name="Trazado 155935" d="M7.083,33.835,8.512,35.5H3.3C1.992,35.5.915,34.7.915,33.708V20.48a2.159,2.159,0,0,1,2.376-1.8h5.22L7.083,20.345a1.738,1.738,0,0,0,0,2.261l.47.546a1.738,1.738,0,0,1,0,2.261l-.47.547a1.735,1.735,0,0,0,0,2.259l.47.547a1.738,1.738,0,0,1,0,2.261l-.47.548a1.736,1.736,0,0,0,0,2.26Zm0,0" fill="#ffa90b"/>
      <path id="Trazado_155936" data-name="Trazado 155936" d="M57.7,42.256H53.72v-31.6A2.156,2.156,0,0,0,51.566,8.5H43.947V7.223A7.221,7.221,0,0,0,33.563.729,7.221,7.221,0,0,0,23.179,7.223V8.5h-5.02a2.156,2.156,0,0,0-2.154,2.154v8.794a1.957,1.957,0,0,1-1.776,1.159h-1.3v-.053a3.04,3.04,0,0,0-3.283-2.7H3.282A3.041,3.041,0,0,0,0,20.567V33.813A2.509,2.509,0,0,0,1.063,35.8a3.709,3.709,0,0,0,2.225.709H9.651a3.688,3.688,0,0,0,2.226-.715,2.832,2.832,0,0,0,.594-.605,5.062,5.062,0,0,0,3.517,1.414h.018V50.662a2.156,2.156,0,0,0,2.154,2.152h5.113a2.527,2.527,0,0,0,1.284.943,2.677,2.677,0,0,0,2.475,3.69h3a.072.072,0,0,0,0,.011A2.678,2.678,0,0,0,32.559,61l12.433,0a5.062,5.062,0,0,0,3.517-1.413,3.467,3.467,0,0,0,2.818,1.319h6.364a3.911,3.911,0,0,0,1.423-.266,3.332,3.332,0,0,0,.8-.442,2.535,2.535,0,0,0,1.063-1.99V44.961A3.041,3.041,0,0,0,57.7,42.256ZM6.836,30.535l-.47.547a2.626,2.626,0,0,0,0,3.436l.161.187H3.288a1.928,1.928,0,0,1-1.14-.347.754.754,0,0,1-.342-.546V20.567c0-.425.631-.9,1.476-.9H6.527l-.16.187a2.624,2.624,0,0,0,0,3.436l.469.546a.829.829,0,0,1,0,1.085l-.468.546a2.624,2.624,0,0,0,0,3.436l.469.547a.829.829,0,0,1,0,1.085Zm4.291,3.271a.76.76,0,0,1-.341.551,3.05,3.05,0,0,1-1.881.348L7.737,33.343a.83.83,0,0,1,0-1.085l.469-.547a2.625,2.625,0,0,0,0-3.436l-.469-.546a.829.829,0,0,1,0-1.085l.468-.546a2.625,2.625,0,0,0,0-3.437l-.469-.546a.829.829,0,0,1,0-1.085l1.169-1.362h.74c.845,0,1.476.472,1.477.893,0,.013,0,14.14,0,13.247Zm25.6-32A5.423,5.423,0,0,1,42.14,7.223V8.5H37.626V7.223a7.2,7.2,0,0,0-2.264-5.244,5.4,5.4,0,0,1,1.361-.174Zm-3.16,1.022a5.413,5.413,0,0,1,2.258,4.4V8.5H31.306V7.223A5.414,5.414,0,0,1,33.563,2.827Zm-8.578,4.4a5.418,5.418,0,0,1,6.778-5.244A7.2,7.2,0,0,0,29.5,7.223V8.5H24.985ZM16.005,34.8h-.018a3.256,3.256,0,0,1-1.41-.318,3.3,3.3,0,0,1-1.645-1.765l0-10.3h1.3a3.718,3.718,0,0,0,3.331-2.043l2.159-4.241v0h0l0-.007h0l.011-.022v0l0-.007.011-.022-.007.014.013-.025a.194.194,0,0,1,.259-.084,1.766,1.766,0,0,1,.772,2.372l-.822,1.613a1.687,1.687,0,0,0,1.5,2.451l10.655,0a.914.914,0,0,1,.92.883.874.874,0,0,1-.869.858H26.1a.9.9,0,1,0,0,1.806h9.353a.955.955,0,0,1,.643.3.816.816,0,0,1-.574,1.442H26.036a.9.9,0,0,0,0,1.806h7.913a.87.87,0,0,1,0,1.741l-8.647,0a.9.9,0,0,0,0,1.806c3.336,0,3.39-.09,3.736.255a.871.871,0,0,1-.615,1.486H28.4l-12.4,0Zm6.816,16.209H18.159a.348.348,0,0,1-.348-.347V36.6l10.609,0a2.678,2.678,0,0,0,2.534-3.537l0-.01,3,0a2.676,2.676,0,0,0,2.475-3.69,2.629,2.629,0,0,0,.95-4.383,3.265,3.265,0,0,0-2.673-.825,2.693,2.693,0,0,0-2.579-3.547l-10.46,0,.732-1.439a3.567,3.567,0,0,0-1.561-4.8,2,2,0,0,0-2.687.874l-.333.655V10.658a.348.348,0,0,1,.348-.348h5.02v3.345a.9.9,0,0,0,1.806,0V10.31H35.82v3.345a.9.9,0,0,0,1.806,0V10.31h4.555V38.9a1.994,1.994,0,0,0-2.033-.134,3.574,3.574,0,0,0-1.563,4.8l.732,1.439L28.859,45a2.728,2.728,0,0,0-2.573,1.8,2.614,2.614,0,0,0-.007,1.743h-.753a2.783,2.783,0,0,0-2.705,2.46Zm25.225,6.1a3.282,3.282,0,0,1-3.053,2.083l-12.432,0a.872.872,0,0,1-.616-1.486c.441-.441.854-.182,3.736-.256a.9.9,0,0,0,0-1.806h-3.12c-6-.009-5.792.095-6.142-.258a.872.872,0,0,1,.595-1.487h7.93a.9.9,0,0,0,0-1.806h-7.91c-1.264-.06-1.891.165-2.258-.282a.941.941,0,0,1,.753-1.457h9.35a.9.9,0,0,0,0-1.806H28.789a.866.866,0,0,1-.8-1.136.933.933,0,0,1,.872-.6l10.656,0a1.686,1.686,0,0,0,1.5-2.45L40.2,42.748a1.766,1.766,0,0,1,.772-2.372.192.192,0,0,1,.259.084L43.384,44.7h0l0,0,0,0v0l0,.01,0,.008,0,0,0,.007,0,.007h0l0,.007,0-.005,0,.006v0h0l0,.006v0l0,0v0l0,.007,0-.005,0,.007,0,.006h0A3.876,3.876,0,0,0,47.1,46.812h.948c0,1.894,0,10.872,0,10.3ZM48,20.354a.9.9,0,0,0-.9.9V45.005a2.075,2.075,0,0,1-2.074-1.056l-1.04-2.043V10.31H47.1v7.334a.9.9,0,1,0,1.806,0V10.31h2.658a.347.347,0,0,1,.348.348v31.6h-.58a3.629,3.629,0,0,0-2.426.882V21.256a.9.9,0,0,0-.9-.9ZM59.174,58.208a.791.791,0,0,1-.29.505,1.891,1.891,0,0,1-1.194.387H54.2V53.9a.9.9,0,0,0-1.806,0v5.2H51.328a1.91,1.91,0,0,1-1.134-.347.767.767,0,0,1-.342-.553v-.787c0-.013,0-12.44,0-12.458,0-.423.632-.894,1.479-.894h1.056v6.225a.9.9,0,0,0,1.806,0V44.062h3.5c.845,0,1.477.476,1.477.9Zm0,0"/>
      <path id="Trazado_155937" data-name="Trazado 155937" d="M56.559,55.445a1.235,1.235,0,1,0,1.235,1.235A1.238,1.238,0,0,0,56.559,55.445Zm0,0"/>
    </g>
  </g>
</svg>
