<svg xmlns="http://www.w3.org/2000/svg" width="85" height="85" viewBox="0 0 85 85">
  <g id="Grupo_119010" data-name="Grupo 119010" transform="translate(-1020 -939)">
    <circle id="Elipse_4520" data-name="Elipse 4520" cx="42.5" cy="42.5" r="42.5" transform="translate(1020 939)" fill="#ff6d60"/>
    <g id="carro-de-la-carretilla" transform="translate(1032 951)">
      <path id="Trazado_155938" data-name="Trazado 155938" d="M36.953,39.154h4.234v3.771H36.953Z" fill="#cbc4e5"/>
      <path id="Trazado_155939" data-name="Trazado 155939" d="M15.519,11.568V18.25H26.5V6.673a.662.662,0,0,0-.661-.662H9.7a.662.662,0,0,0-.662.662v4.234h5.822a.661.661,0,0,1,.661.661Z" fill="#f6a96c"/>
      <g id="Grupo_108351" data-name="Grupo 108351">
        <path id="Trazado_155940" data-name="Trazado 155940" d="M23.082,6.011H17.4V9.318a.357.357,0,0,0,.357.357h4.972a.357.357,0,0,0,.357-.357Z" fill="#fff"/>
      </g>
      <g id="Grupo_108352" data-name="Grupo 108352">
        <path id="Trazado_155941" data-name="Trazado 155941" d="M12.749,10.907V6.673a.662.662,0,0,1,.661-.662H9.7a.662.662,0,0,0-.662.662v4.234Z" fill="#ea9b58"/>
      </g>
      <path id="Trazado_155942" data-name="Trazado 155942" d="M15.519,18.25h6.615V14.611a1.323,1.323,0,0,0-1.323-1.323H15.519Z" fill="#fd5426"/>
      <g id="Grupo_108353" data-name="Grupo 108353">
        <path id="Trazado_155943" data-name="Trazado 155943" d="M13.838,47.613l-1.925,3.328a.4.4,0,0,1-.687,0L9.3,47.613a4.044,4.044,0,1,0,4.538,0Z" fill="#cbc4e5"/>
        <path id="Trazado_155944" data-name="Trazado 155944" d="M10.023,50.953a4.014,4.014,0,0,1,.311-1.554L9.3,47.613a4.038,4.038,0,0,0,3.517,7.179A4.037,4.037,0,0,1,10.023,50.953Z" fill="#b5adcf"/>
        <path id="Trazado_155945" data-name="Trazado 155945" d="M8.5,46.233l2.724,4.708a.4.4,0,0,0,.687,0l2.724-4.708Z" fill="#08a9f1"/>
        <path id="Trazado_155946" data-name="Trazado 155946" d="M38.467,47.613l-1.925,3.328a.4.4,0,0,1-.687,0l-1.925-3.328a4.044,4.044,0,1,0,4.538,0Z" fill="#cbc4e5"/>
        <path id="Trazado_155947" data-name="Trazado 155947" d="M34.566,50.953a4.014,4.014,0,0,1,.348-1.639l-.984-1.7A4.039,4.039,0,0,0,37.4,54.807,4.039,4.039,0,0,1,34.566,50.953Z" fill="#b5adcf"/>
        <path id="Trazado_155948" data-name="Trazado 155948" d="M33.131,46.233l2.724,4.708a.4.4,0,0,0,.687,0l2.724-4.708Z" fill="#08a9f1"/>
      </g>
      <g id="Grupo_108354" data-name="Grupo 108354">
        <path id="Trazado_155949" data-name="Trazado 155949" d="M42.529,46.233H6.059a1.654,1.654,0,0,1,0-3.308h36.47a.662.662,0,0,1,.662.662v1.985a.662.662,0,0,1-.662.661Z" fill="#fd5426"/>
      </g>
      <g id="Grupo_108355" data-name="Grupo 108355">
        <path id="Trazado_155950" data-name="Trazado 155950" d="M42.529,46.233H6.059a1.654,1.654,0,0,1,0-3.308h36.47a.662.662,0,0,1,.662.662v1.985a.662.662,0,0,1-.662.661Z" fill="#fd5426"/>
      </g>
      <g id="Grupo_108356" data-name="Grupo 108356">
        <path id="Trazado_155951" data-name="Trazado 155951" d="M10.6,44.579a1.654,1.654,0,0,1,1.654-1.654h-6.2a1.654,1.654,0,0,0,0,3.308h6.2A1.654,1.654,0,0,1,10.6,44.579Z" fill="#ef4424"/>
      </g>
      <path id="Trazado_155952" data-name="Trazado 155952" d="M15.519,18.25V11.568a.662.662,0,0,0-.661-.662H6.919a.662.662,0,0,0-.661.662V18.25Z" fill="#08a9f1"/>
      <path id="Trazado_155953" data-name="Trazado 155953" d="M10.008,18.25V11.568a.662.662,0,0,1,.661-.662H6.919a.662.662,0,0,0-.661.662V18.25Z" fill="#0290cf"/>
      <path id="Trazado_155954" data-name="Trazado 155954" d="M41.187,18.25V11.325A1.323,1.323,0,0,0,39.864,10H33.248a1.323,1.323,0,0,0-1.323,1.323V18.25Z" fill="#ffee9a"/>
      <path id="Trazado_155955" data-name="Trazado 155955" d="M35.624,16.658V11.325A1.323,1.323,0,0,1,36.947,10h-3.7a1.323,1.323,0,0,0-1.323,1.323v2.24A5.912,5.912,0,0,1,35.624,16.658Z" fill="#fcdd66"/>
      <path id="Trazado_155956" data-name="Trazado 155956" d="M36.134,18.25a5.9,5.9,0,0,0-11.625,0Z" fill="#57be92"/>
      <path id="Trazado_155957" data-name="Trazado 155957" d="M28.257,18.25a5.905,5.905,0,0,1,3.939-4.6,5.9,5.9,0,0,0-7.686,4.6Z" fill="#22b27f"/>
      <g id="Grupo_108357" data-name="Grupo 108357">
        <path id="Trazado_155958" data-name="Trazado 155958" d="M41.944,39.154H6.637a.662.662,0,0,1-.64-.5L.915,19.077a.662.662,0,0,1,.64-.828H47.008L43.244,38.078A1.323,1.323,0,0,1,41.944,39.154Z" fill="#c8effe"/>
      </g>
      <g id="Grupo_108358" data-name="Grupo 108358">
        <path id="Trazado_155959" data-name="Trazado 155959" d="M10.941,38.659,5.86,19.077a.662.662,0,0,1,.64-.828H1.556a.662.662,0,0,0-.64.828L6,38.659a.662.662,0,0,0,.64.5h4.944a.661.661,0,0,1-.64-.5Z" fill="#99e6fc"/>
      </g>
      <g id="Grupo_108361" data-name="Grupo 108361">
        <g id="Grupo_108359" data-name="Grupo 108359">
          <path id="Trazado_155960" data-name="Trazado 155960" d="M59.445,13.194H51.374V11.21A1.323,1.323,0,0,1,52.7,9.887h6.748a.662.662,0,0,1,.662.662v1.985A.662.662,0,0,1,59.445,13.194Z" fill="#fd5426"/>
        </g>
        <g id="Grupo_108360" data-name="Grupo 108360">
          <path id="Trazado_155961" data-name="Trazado 155961" d="M56.45,9.887H52.7a1.323,1.323,0,0,0-1.323,1.323v1.985h3.753V11.21A1.323,1.323,0,0,1,56.45,9.887Z" fill="#ef4424"/>
        </g>
      </g>
      <g id="Grupo_108362" data-name="Grupo 108362">
        <path id="Trazado_155962" data-name="Trazado 155962" d="M10.842,13.046H9.055a.894.894,0,1,0,0,1.787h1.787a.894.894,0,0,0,0-1.787Z"/>
        <circle id="Elipse_4872" data-name="Elipse 4872" cx="0.894" cy="0.894" r="0.894" transform="translate(37.649 11.914)"/>
        <circle id="Elipse_4873" data-name="Elipse 4873" cx="0.894" cy="0.894" r="0.894" transform="translate(37.649 14.535)"/>
        <path id="Trazado_155963" data-name="Trazado 155963" d="M59.445,8.993H52.7a2.219,2.219,0,0,0-2.217,2.217V12.3h-.869a2.881,2.881,0,0,0-2.828,2.341l-.515,2.714H42.08V11.325a2.219,2.219,0,0,0-2.217-2.217H33.249a2.219,2.219,0,0,0-2.217,2.217v1.165a6.659,6.659,0,0,0-3.637.633v-.851a.894.894,0,1,0-1.787,0v2.1A6.787,6.787,0,0,0,23.8,17.356h-.77V14.611a2.219,2.219,0,0,0-2.216-2.216h-4.4v-.827a1.557,1.557,0,0,0-1.555-1.555H9.93V6.9H16.5V9.318a1.252,1.252,0,0,0,1.251,1.251h4.972a1.252,1.252,0,0,0,1.251-1.251V6.9h1.632V8.1a.894.894,0,1,0,1.787,0V6.673a1.557,1.557,0,0,0-1.555-1.555H9.7A1.557,1.557,0,0,0,8.143,6.673v3.34H6.919a1.557,1.557,0,0,0-1.555,1.555v5.788H1.556A1.555,1.555,0,0,0,.051,19.3L5.132,38.883a1.555,1.555,0,0,0,1.505,1.164H36.059v1.984H31.93a.894.894,0,1,0,0,1.787H42.3v1.521H6.059a.76.76,0,0,1,0-1.521h21.7a.894.894,0,0,0,0-1.787H6.059a2.547,2.547,0,0,0,0,5.095H7.987l.161.279a4.937,4.937,0,1,0,6.843,0l.161-.279H32.615l.161.279a4.937,4.937,0,1,0,6.843,0l.161-.279h2.748a1.557,1.557,0,0,0,1.555-1.555V43.586a1.557,1.557,0,0,0-1.555-1.555H42.08v-1.99a2.218,2.218,0,0,0,2.041-1.8L48.54,14.975a1.092,1.092,0,0,1,1.072-.887h9.833A1.557,1.557,0,0,0,61,12.533V10.548a1.557,1.557,0,0,0-1.555-1.555ZM18.289,6.9h3.9V8.782h-3.9Zm-5.2,40.222L11.57,49.751l-1.518-2.624Zm1.632,3.827a3.15,3.15,0,1,1-5.634-1.928l1.367,2.364a1.291,1.291,0,0,0,2.234,0l1.367-2.364a3.12,3.12,0,0,1,.665,1.928Zm23-3.827L36.2,49.75,34.68,47.126Zm1.632,3.827a3.15,3.15,0,1,1-5.634-1.929l1.367,2.364a1.291,1.291,0,0,0,2.234,0l1.367-2.364A3.119,3.119,0,0,1,39.348,50.953ZM29.241,24.3h7.522l-.608,3.505H29.084Zm.08-1.787.151-3.373h8.187l-.586,3.373Zm3.5-11.191a.43.43,0,0,1,.43-.43h6.615a.43.43,0,0,1,.43.43v6.031H36.841a6.848,6.848,0,0,0-4.023-4.422V11.325Zm-2.5,2.913a5.039,5.039,0,0,1,4.634,3.119H25.688A5.038,5.038,0,0,1,30.322,14.237ZM12.153,22.516H10.817l-.723-3.373h8.156l.2,3.373H16.323a.894.894,0,0,0,0,1.787h2.231l.207,3.505h-6.81L11.2,24.3h.953a.894.894,0,1,0,0-1.787Zm8.659-8.334a.43.43,0,0,1,.429.429v2.745H16.413V14.182h4.4ZM7.151,11.8h7.474v5.556H7.151ZM2.731,22.517l-.875-3.374h6.41l.723,3.373H2.731ZM3.195,24.3H9.372l.751,3.505H4.1Zm2.283,8.8L4.568,29.6h5.939l.751,3.505Zm1.339,5.16-.875-3.373h5.7l.723,3.373ZM12.334,29.6h6.532l.207,3.505H13.086Zm1.858,8.665-.723-3.373h5.711l.2,3.373Zm12.636,0H21.169l-.2-3.373h6.009Zm.231-5.16H20.864L20.657,29.6h6.558Zm.237-5.292H20.551L20.344,24.3h7.108Zm.237-5.292H20.239l-.2-3.373h7.644ZM34.34,38.261H28.616l.151-3.373h6.158Zm.9-5.16H28.847L29,29.6h6.84Zm2.611,8.931V40.048h2.447v1.984Zm4.519-4.12a.43.43,0,0,1-.422.349h-5.79l.586-3.373h6.2Zm.913-4.811H37.05l.608-3.505h6.286Zm1-5.292H37.969l.608-3.505h6.372Zm1-5.292h-6.4l.586-3.373h6.456ZM59.213,12.3H52.268V11.21a.43.43,0,0,1,.43-.43h6.516Z"/>
      </g>
    </g>
  </g>
</svg>
