<svg xmlns="http://www.w3.org/2000/svg" width="156" height="154.3" viewBox="0 0 156 154.3">
  <g id="Grupo_119012" data-name="Grupo 119012" transform="translate(6805 9572)">
    <circle id="Elipse_4706" data-name="Elipse 4706" cx="77" cy="77" r="77" transform="translate(-6803 -9571.7)" fill="#ffc967"/>
    <g id="medios-de-comunicacion-social" transform="translate(-6806 -9573)">
      <g id="Grupo_108421" data-name="Grupo 108421" transform="translate(3.489 3.489)">
        <g id="Grupo_108409" data-name="Grupo 108409" transform="translate(4.977 74.661)">
          <path id="Trazado_156407" data-name="Trazado 156407" d="M53.774,91.729v11.548a3.393,3.393,0,0,1-6,2.165L36.353,91.729H8.977A4.992,4.992,0,0,1,4,86.752V36.977A4.992,4.992,0,0,1,8.977,32H34.686l3.136,3.758a3.393,3.393,0,0,0,6-2.165V32h19.91v4.977a4.992,4.992,0,0,0,4.977,4.977h19.91v44.8a4.992,4.992,0,0,1-4.977,4.977Z" transform="translate(-4 -32)" fill="#e6e9ed"/>
        </g>
        <g id="Grupo_108410" data-name="Grupo 108410" transform="translate(64.706 19.91)">
          <path id="Trazado_156408" data-name="Trazado 156408" d="M32.977,54.8a4.992,4.992,0,0,0,4.977-4.977V10h69.684a4.992,4.992,0,0,1,4.977,4.977V69.729a4.992,4.992,0,0,1-4.977,4.977H80.263L68.84,88.419a3.393,3.393,0,0,1-6-2.165V74.706H32.977A4.992,4.992,0,0,1,28,69.729V54.8Z" transform="translate(-28 -10)" fill="#ffeaa7"/>
        </g>
        <g id="Grupo_108411" data-name="Grupo 108411">
          <path id="Trazado_156409" data-name="Trazado 156409" d="M76.661,21.91V61.729a4.992,4.992,0,0,1-4.977,4.977H46.8V78.254a3.393,3.393,0,0,1-6,2.165l-3.136-3.758-8.287-9.955H6.977A4.992,4.992,0,0,1,2,61.729V6.977A4.992,4.992,0,0,1,6.977,2H71.684a4.992,4.992,0,0,1,4.977,4.977Z" transform="translate(-2 -2)" fill="#f0d0b4"/>
        </g>
        <g id="Grupo_108412" data-name="Grupo 108412" transform="translate(14.932 109.503)">
          <path id="Trazado_156410" data-name="Trazado 156410" d="M27.984,48.563a13.774,13.774,0,0,0-1.443,4.828l-1.12,10.029H8V58.444A12.448,12.448,0,0,1,20.444,46a12.262,12.262,0,0,1,7.541,2.563Z" transform="translate(-8 -46)" fill="#b4dd7f"/>
        </g>
        <g id="Grupo_108413" data-name="Grupo 108413" transform="translate(59.654 109.503)">
          <path id="Trazado_156411" data-name="Trazado 156411" d="M45.954,58.444v4.977H28.533l-1.12-10.029a13.774,13.774,0,0,0-1.443-4.828A12.262,12.262,0,0,1,33.511,46,12.406,12.406,0,0,1,45.954,58.444Z" transform="translate(-25.97 -46)" fill="#b4dd7f"/>
        </g>
        <g id="Grupo_108414" data-name="Grupo 108414" transform="translate(32.353 104.526)">
          <path id="Trazado_156412" data-name="Trazado 156412" d="M43.745,56.369,44.864,66.4H15l1.12-10.029A13.858,13.858,0,0,1,29.932,44a14,14,0,0,1,9.283,3.534A14.741,14.741,0,0,1,42.3,51.541,13.774,13.774,0,0,1,43.745,56.369Z" transform="translate(-15 -44)" fill="#fcd770"/>
        </g>
        <g id="Grupo_108415" data-name="Grupo 108415" transform="translate(59.232 94.206)">
          <circle id="Elipse_4885" data-name="Elipse 4885" cx="7.5" cy="7.5" r="7.5" transform="translate(0.279 0.305)" fill="#f0d0b4"/>
        </g>
        <g id="Grupo_108416" data-name="Grupo 108416" transform="translate(39.687 90.092)">
          <ellipse id="Elipse_4886" data-name="Elipse 4886" cx="8" cy="7" rx="8" ry="7" transform="translate(-0.176 0.42)" fill="#f0d0b4"/>
        </g>
        <g id="Grupo_108417" data-name="Grupo 108417" transform="translate(20.142 94.206)">
          <ellipse id="Elipse_4887" data-name="Elipse 4887" cx="7" cy="7.5" rx="7" ry="7.5" transform="translate(0.369 0.305)" fill="#f0d0b4"/>
        </g>
        <g id="Grupo_108418" data-name="Grupo 108418" transform="translate(14.932 14.932)">
          <path id="Trazado_156413" data-name="Trazado 156413" d="M52.8,21.041v.4a14.49,14.49,0,0,1-4.828,10.776L30.4,47.819l-17.57-15.6A14.49,14.49,0,0,1,8,21.439v-.4a13.491,13.491,0,0,1,3.957-9.532,12.017,12.017,0,0,1,16.973,0L30.4,12.977l1.468-1.468a12.017,12.017,0,0,1,16.973,0A13.491,13.491,0,0,1,52.8,21.041Z" transform="translate(-8 -8)" fill="#ff826e"/>
        </g>
        <g id="Grupo_108419" data-name="Grupo 108419" transform="translate(84.616 44.797)">
          <path id="Trazado_156414" data-name="Trazado 156414" d="M50.932,44.887v2.489a2.5,2.5,0,0,1-2.489,2.489H38.489A2.5,2.5,0,0,1,36,47.376V22.489A2.5,2.5,0,0,1,38.489,20h9.955a2.5,2.5,0,0,1,2.489,2.489Z" transform="translate(-36 -20)" fill="#b4dd7f"/>
        </g>
        <g id="Grupo_108420" data-name="Grupo 108420" transform="translate(99.548 29.864)">
          <path id="Trazado_156415" data-name="Trazado 156415" d="M76.842,36.4V51.331A7.456,7.456,0,0,1,69.376,58.8H58.45A29.723,29.723,0,0,1,42,53.819v-22.4l2.962-2.962a23.11,23.11,0,0,0,6.048-10.7A4.956,4.956,0,0,1,55.837,14a7.241,7.241,0,0,1,7.143,8.437l-1.07,6.5h7.466A7.456,7.456,0,0,1,76.842,36.4Z" transform="translate(-42 -14)" fill="#f0d0b4"/>
        </g>
      </g>
      <g id="Grupo_108422" data-name="Grupo 108422" transform="translate(1 1)">
        <path id="Trazado_156416" data-name="Trazado 156416" d="M56.774,22.925v-.391A15.854,15.854,0,0,0,52.1,11.248a14.505,14.505,0,0,0-20.211-.294,14.505,14.505,0,0,0-20.211.294A15.854,15.854,0,0,0,7,22.535v.391a16.913,16.913,0,0,0,5.672,12.63L31.887,52.638,51.1,35.558a16.908,16.908,0,0,0,5.674-12.633ZM31.887,45.978,15.979,31.837a11.929,11.929,0,0,1-4-8.912v-.391A10.911,10.911,0,0,1,15.2,14.767a9.529,9.529,0,0,1,13.474,0l3.218,3.218L35.1,14.767a9.762,9.762,0,0,1,13.474,0A10.911,10.911,0,0,1,51.8,22.535v.391a11.933,11.933,0,0,1-4,8.912Z" transform="translate(7.932 7.932)"/>
        <path id="Trazado_156417" data-name="Trazado 156417" d="M147.834,20.91h-67.2V8.466A7.475,7.475,0,0,0,73.173,1H8.466A7.475,7.475,0,0,0,1,8.466V63.218a7.475,7.475,0,0,0,7.466,7.466H29.7l4.149,4.977h-20.4a7.475,7.475,0,0,0-7.466,7.466V132.9a7.475,7.475,0,0,0,7.466,7.466H39.655l10.682,12.817a5.877,5.877,0,0,0,10.393-3.763v-9.054H88.1a7.475,7.475,0,0,0,7.466-7.466V90.593h4.977v9.054a5.877,5.877,0,0,0,10.393,3.763l10.682-12.817h26.211a7.475,7.475,0,0,0,7.466-7.466V28.376a7.475,7.475,0,0,0-7.466-7.466Zm-115.8,44.8H8.466a2.491,2.491,0,0,1-2.489-2.489V8.466A2.491,2.491,0,0,1,8.466,5.977H73.172a2.491,2.491,0,0,1,2.489,2.489V63.218a2.491,2.491,0,0,1-2.489,2.489H45.8V79.738a.932.932,0,0,1-1.593.575Zm33.677,4.977v4.977H50.774V70.684ZM90.593,132.9A2.491,2.491,0,0,1,88.1,135.39H55.752v14.031a.932.932,0,0,1-1.593.575L41.984,135.39H13.444a2.491,2.491,0,0,1-2.489-2.489V83.127a2.491,2.491,0,0,1,2.489-2.489H37.995L40.381,83.5a5.86,5.86,0,0,0,10.3-2.862H65.706v2.489a7.475,7.475,0,0,0,7.466,7.466H90.593Zm59.729-49.774a2.491,2.491,0,0,1-2.489,2.489h-28.54l-12.175,14.606a.934.934,0,0,1-1.593-.575V85.616H73.173a2.491,2.491,0,0,1-2.489-2.489V70.684h2.489a7.475,7.475,0,0,0,7.466-7.466V25.887h67.2a2.491,2.491,0,0,1,2.489,2.489Z" transform="translate(-1 -1)"/>
        <path id="Trazado_156418" data-name="Trazado 156418" d="M51.8,51.932a9.857,9.857,0,0,0,.921,4.124,16.421,16.421,0,0,0-3.559-2.407,9.955,9.955,0,1,0-14.634,0,16.422,16.422,0,0,0-3.559,2.407,9.857,9.857,0,0,0,.921-4.124,9.955,9.955,0,1,0-17.155,6.836A14.94,14.94,0,0,0,7,71.842v4.977h4.977V71.842a9.934,9.934,0,0,1,14.395-8.9,16.556,16.556,0,0,0-.821,3.569L24.436,76.543l4.945.55L30.5,67.064a11.416,11.416,0,0,1,22.692,0L54.3,77.093l4.945-.55L58.133,66.514a16.41,16.41,0,0,0-.821-3.569,9.934,9.934,0,0,1,14.395,8.9v4.977h4.977V71.842a14.94,14.94,0,0,0-7.732-13.073A9.944,9.944,0,1,0,51.8,51.932ZM21.932,56.91a4.977,4.977,0,1,1,4.977-4.977A4.982,4.982,0,0,1,21.932,56.91Zm19.91-4.977a4.977,4.977,0,1,1,4.977-4.977A4.982,4.982,0,0,1,41.842,51.932Zm24.887,0a4.977,4.977,0,1,1-4.977-4.977A4.982,4.982,0,0,1,66.729,51.932Z" transform="translate(7.932 52.593)"/>
        <path id="Trazado_156419" data-name="Trazado 156419" d="M79.8,27.932H75.267l.6-3.594A9.739,9.739,0,0,0,66.263,13a7.46,7.46,0,0,0-7.245,5.654,20.53,20.53,0,0,1-5.4,9.537l-.734.734a4.941,4.941,0,0,0-2.954-.993H39.977A4.982,4.982,0,0,0,35,32.91V57.8a4.982,4.982,0,0,0,4.977,4.977h9.955a4.968,4.968,0,0,0,4.681-3.35,31.992,31.992,0,0,0,14.245,3.35H79.8a9.965,9.965,0,0,0,9.955-9.955V37.887A9.965,9.965,0,0,0,79.8,27.932ZM39.977,57.8V32.91h9.955l0,24.887Zm44.8-4.977A4.982,4.982,0,0,1,79.8,57.8H68.859A27.042,27.042,0,0,1,54.91,53.919V33.94l2.23-2.23a25.511,25.511,0,0,0,6.71-11.849,2.485,2.485,0,0,1,2.414-1.884,4.762,4.762,0,0,1,4.694,5.545L69.394,32.91H79.8a4.982,4.982,0,0,1,4.977,4.977Z" transform="translate(49.616 16.864)"/>
      </g>
    </g>
  </g>
</svg>
