<svg xmlns="http://www.w3.org/2000/svg" xmlns:xlink="http://www.w3.org/1999/xlink" width="154" height="154.3" viewBox="0 0 154 154.3">
  <defs>
    <clipPath id="clip-path">
      <rect id="Rectángulo_36432" data-name="Rectángulo 36432" width="154" height="154" transform="translate(723 2128)" fill="#fff" stroke="#707070" stroke-width="1"/>
    </clipPath>
  </defs>
  <g id="Grupo_119011" data-name="Grupo 119011" transform="translate(-723 -2194)">
    <circle id="Elipse_4707" data-name="Elipse 4707" cx="77" cy="77" r="77" transform="translate(723 2194.3)" fill="#ffc967"/>
    <g id="Enmascarar_grupo_187" data-name="Enmascarar grupo 187" transform="translate(0 66)" clip-path="url(#clip-path)">
      <g id="chat" transform="translate(723 2128)">
        <g id="Grupo_108427" data-name="Grupo 108427">
          <g id="Grupo_108423" data-name="Grupo 108423">
            <path id="Trazado_156420" data-name="Trazado 156420" d="M95.569,151.747H29.287a9.142,9.142,0,0,1-9.142-9.142V11.4a9.143,9.143,0,0,1,9.142-9.142H95.569a9.143,9.143,0,0,1,9.142,9.142V142.6A9.142,9.142,0,0,1,95.569,151.747Z" fill="#acacac"/>
          </g>
          <g id="Grupo_108424" data-name="Grupo 108424">
            <path id="Trazado_156421" data-name="Trazado 156421" d="M104.711,11.4V142.6a9.142,9.142,0,0,1-9.143,9.143H89.584a9.142,9.142,0,0,0,9.143-9.143V11.4a9.142,9.142,0,0,0-9.143-9.143h5.984a9.142,9.142,0,0,1,9.143,9.143Z" fill="#9c9c9c"/>
          </g>
          <g id="Grupo_108425" data-name="Grupo 108425">
            <path id="Trazado_156422" data-name="Trazado 156422" d="M80.636,13.118,78.2,17.253A3.553,3.553,0,0,1,75.139,19H49.716a3.554,3.554,0,0,1-3.063-1.751L44.22,13.118a3.553,3.553,0,0,0-3.063-1.751H34.2a3.554,3.554,0,0,0-3.554,3.554V139.079a3.554,3.554,0,0,0,3.554,3.554H90.657a3.554,3.554,0,0,0,3.554-3.554V14.921a3.554,3.554,0,0,0-3.554-3.554H83.7a3.554,3.554,0,0,0-3.063,1.751Z" fill="#d8ecfe"/>
          </g>
          <g id="Grupo_108426" data-name="Grupo 108426">
            <path id="Trazado_156423" data-name="Trazado 156423" d="M94.21,14.92V139.08a3.552,3.552,0,0,1-3.551,3.554H84.675a3.552,3.552,0,0,0,3.551-3.554V14.92a3.552,3.552,0,0,0-3.551-3.554h5.984A3.552,3.552,0,0,1,94.21,14.92Z" fill="#c4e2ff"/>
          </g>
        </g>
        <g id="Grupo_108428" data-name="Grupo 108428">
          <path id="Trazado_156424" data-name="Trazado 156424" d="M94.5,24.066a39.336,39.336,0,0,0-34.486,58.2,3.885,3.885,0,0,1,.47,2.077L59.9,95.168a4.144,4.144,0,0,0,4.141,4.368l14.149-.011a4,4,0,0,1,1.509.3A39.332,39.332,0,1,0,94.5,24.066Z" fill="#b0e7c9"/>
        </g>
        <g id="Grupo_108429" data-name="Grupo 108429">
          <path id="Trazado_156425" data-name="Trazado 156425" d="M133.856,63.561A39.344,39.344,0,0,1,79.7,99.827a4.014,4.014,0,0,0-1.508-.3l-14.148.012a4.145,4.145,0,0,1-4.14-4.368l.159-2.926a4.074,4.074,0,0,0,2.908,1.212l13.969-.009a3.92,3.92,0,0,1,1.49.3A38.849,38.849,0,0,0,130.515,47.51,39.185,39.185,0,0,1,133.856,63.561Z" fill="#91deb6"/>
        </g>
        <g id="Grupo_108430" data-name="Grupo 108430">
          <path id="Trazado_156426" data-name="Trazado 156426" d="M94.232,33.523A29.879,29.879,0,0,0,68.322,77.744a2.918,2.918,0,0,1,.349,1.563L68.12,89.469a1.308,1.308,0,0,0,1.307,1.379l12.69-.009a3.031,3.031,0,0,1,1.146.23A29.876,29.876,0,1,0,94.232,33.523Z" fill="#f9f3f1"/>
        </g>
        <g id="Grupo_108431" data-name="Grupo 108431">
          <path id="Trazado_156427" data-name="Trazado 156427" d="M124.4,63.648A29.885,29.885,0,0,1,83.265,91.071a3.026,3.026,0,0,0-1.146-.23l-12.691.009a1.307,1.307,0,0,1-1.307-1.379l.305-5.631L80.7,83.83a2.932,2.932,0,0,1,1.119.224A29.141,29.141,0,0,0,120.881,49.32,29.746,29.746,0,0,1,124.4,63.648Z" fill="#efe2dd"/>
        </g>
        <g id="Grupo_108432" data-name="Grupo 108432">
          <path id="Trazado_156428" data-name="Trazado 156428" d="M89.657,49.7c-2.1-2.746-4.8-4.795-8.127-2.3a10.563,10.563,0,0,0-3.724,5.739,17.836,17.836,0,0,0,2.409,13.842,31.714,31.714,0,0,0,13.6,12.07c6.013,2.708,11.675,1.63,16.221-3.149,1.921-2.019,2.664-5.325.018-7.138-2.179-1.493-5.5-3.807-8.069-1.832-1.769,1.36-2.194,3.446-4.64,3.8-4.183.613-9.154-5.579-9.983-9.182a3.883,3.883,0,0,1,.583-3.079c.637-1,1.471-1.3,2.262-2.021,1.88-1.713,1.152-4.532-.548-6.76Z" fill="#b0e7c9"/>
        </g>
        <g id="Grupo_108433" data-name="Grupo 108433">
          <path id="Trazado_156429" data-name="Trazado 156429" d="M110.036,75.908c-4.548,4.778-10.208,5.855-16.222,3.147a31.7,31.7,0,0,1-13.6-12.069,17.832,17.832,0,0,1-2.408-13.843,11.47,11.47,0,0,1,1.3-3.04,18.534,18.534,0,0,0,2.842,11.486,31.683,31.683,0,0,0,13.6,12.069c5.93,2.672,11.512,1.66,16.024-2.947a5.4,5.4,0,0,1-1.535,5.2Z" fill="#91deb6"/>
        </g>
        <g id="Grupo_108434" data-name="Grupo 108434">
          <path id="Trazado_156430" data-name="Trazado 156430" d="M55.224,13.62H69.632a2.253,2.253,0,0,0,0-4.506H55.224a2.253,2.253,0,1,0,0,4.506Z"/>
          <path id="Trazado_156431" data-name="Trazado 156431" d="M41.538,113.519H83.317a2.253,2.253,0,1,0,0-4.506H41.538a2.253,2.253,0,1,0,0,4.506Z"/>
          <path id="Trazado_156432" data-name="Trazado 156432" d="M41.538,122.853H83.317a2.253,2.253,0,1,0,0-4.506H41.538a2.253,2.253,0,1,0,0,4.506Z"/>
          <path id="Trazado_156433" data-name="Trazado 156433" d="M41.538,132.187H83.317a2.253,2.253,0,1,0,0-4.506H41.538a2.253,2.253,0,1,0,0,4.506Z"/>
          <path id="Trazado_156434" data-name="Trazado 156434" d="M127.365,37.883a2.253,2.253,0,0,0-3.557,2.767A37.085,37.085,0,0,1,80.55,97.743a6.217,6.217,0,0,0-2.356-.47h-.005l-14.149.011h0A1.891,1.891,0,0,1,62.15,95.29l.586-10.824a6.127,6.127,0,0,0-.744-3.282A37.083,37.083,0,0,1,94.5,26.32h.023a36.754,36.754,0,0,1,22.279,7.438,2.253,2.253,0,0,0,2.711-3.6A41.327,41.327,0,0,0,106.964,23.7V11.4A11.409,11.409,0,0,0,95.568,0H29.287a11.409,11.409,0,0,0-11.4,11.4V142.6a11.409,11.409,0,0,0,11.4,11.4H95.569a11.409,11.409,0,0,0,11.4-11.4V103.08a41.591,41.591,0,0,0,20.4-65.2ZM102.458,142.6a6.9,6.9,0,0,1-6.89,6.89H29.287a6.9,6.9,0,0,1-6.89-6.89V11.4a6.9,6.9,0,0,1,6.89-6.89H95.569a6.9,6.9,0,0,1,6.89,6.89V22.569a41.817,41.817,0,0,0-5.994-.708v-6.94a5.813,5.813,0,0,0-5.807-5.807H83.7a5.83,5.83,0,0,0-5,2.861l-2.434,4.135a1.306,1.306,0,0,1-1.121.641H49.717a1.306,1.306,0,0,1-1.121-.641l-2.434-4.135a5.83,5.83,0,0,0-5-2.861H34.2a5.813,5.813,0,0,0-5.807,5.807V89.448a2.253,2.253,0,0,0,4.506,0V14.921a1.3,1.3,0,0,1,1.3-1.3h6.959a1.306,1.306,0,0,1,1.121.641L44.712,18.4a5.829,5.829,0,0,0,5,2.861H75.139a5.829,5.829,0,0,0,5-2.861l2.434-4.135A1.306,1.306,0,0,1,83.7,13.62h6.959a1.3,1.3,0,0,1,1.3,1.3V21.9A41.587,41.587,0,0,0,58.041,83.349a1.631,1.631,0,0,1,.2.873l-.586,10.824a6.4,6.4,0,0,0,6.387,6.743h0l14.149-.011h0a1.741,1.741,0,0,1,.656.137,41.212,41.212,0,0,0,13.108,2.98v34.184a1.3,1.3,0,0,1-1.3,1.3H34.2a1.3,1.3,0,0,1-1.3-1.3V99.958a2.253,2.253,0,1,0-4.506,0v39.121a5.813,5.813,0,0,0,5.807,5.807H90.657a5.813,5.813,0,0,0,5.807-5.807V104.93a41.652,41.652,0,0,0,5.994-.711Z"/>
          <path id="Trazado_156435" data-name="Trazado 156435" d="M66.842,91.99A3.577,3.577,0,0,0,69.429,93.1l12.691-.009c.782-.042,1.949.694,2.7.931a31.992,31.992,0,0,0,32.57-8.109,32.1,32.1,0,1,0-51.044-7.086.669.669,0,0,1,.074.357l-.551,10.163a3.575,3.575,0,0,0,.972,2.643Zm.078-29.454A27.6,27.6,0,1,1,84.114,88.983a5.264,5.264,0,0,0-1.994-.4h0l-11.692.009.5-9.166A5.168,5.168,0,0,0,70.3,76.66,27.637,27.637,0,0,1,66.92,62.537Z"/>
          <path id="Trazado_156436" data-name="Trazado 156436" d="M92.889,81.11a17.6,17.6,0,0,0,7.241,1.658,15.718,15.718,0,0,0,11.537-5.308,8,8,0,0,0,2.319-6.184,6.009,6.009,0,0,0-2.661-4.366l-.07-.048c-2.378-1.629-6.805-4.663-10.645-1.712a11.063,11.063,0,0,0-1.946,2.033c-.775.981-1.038,1.239-1.648,1.329-1.091.161-2.741-.741-4.307-2.351a12.585,12.585,0,0,1-3.153-5.106,1.622,1.622,0,0,1,.287-1.362c.418-.655,1.309-1.048,1.879-1.567,2.54-2.314,2.43-6.249-.274-9.792-4.727-6.194-9.091-4.369-11.272-2.729a12.792,12.792,0,0,0-4.547,6.96A20.048,20.048,0,0,0,78.29,68.155a34.193,34.193,0,0,0,14.6,12.955ZM79.983,53.723a8.276,8.276,0,0,1,2.9-4.518,2.6,2.6,0,0,1,1.567-.676c.825,0,1.913.568,3.415,2.537.7.913,1.765,2.867.821,3.727a6.745,6.745,0,0,1-.624.48,6.9,6.9,0,0,0-2.02,2,6.1,6.1,0,0,0-.878,4.795c1,4.328,6.821,11.736,12.505,10.905a6.768,6.768,0,0,0,4.529-2.992,7.038,7.038,0,0,1,1.157-1.255c1.15-.883,3.275.432,5.353,1.856l.07.048a1.479,1.479,0,0,1,.726,1.12,3.586,3.586,0,0,1-1.1,2.606c-3.889,4.088-8.486,4.979-13.663,2.647a29.52,29.52,0,0,1-12.6-11.186,15.6,15.6,0,0,1-2.157-12.092Z"/>
        </g>
      </g>
    </g>
  </g>
</svg>
