<svg xmlns="http://www.w3.org/2000/svg" xmlns:xlink="http://www.w3.org/1999/xlink" width="476.52" height="565.471" viewBox="0 0 476.52 565.471">
  <defs>
    <clipPath id="clip-path">
      <rect id="Rectángulo_36476" data-name="Rectángulo 36476" width="40" height="40" transform="translate(674 1767)" fill="#12263f"/>
    </clipPath>
    <clipPath id="clip-path-2">
      <rect id="Rectángulo_36479" data-name="Rectángulo 36479" width="40" height="40" transform="translate(674 1984)" fill="#fff"/>
    </clipPath>
    <clipPath id="clip-path-3">
      <rect id="Rectángulo_36477" data-name="Rectángulo 36477" width="40" height="40" transform="translate(896 1767)" fill="#fff"/>
    </clipPath>
    <clipPath id="clip-path-4">
      <rect id="Rectángulo_36478" data-name="Rectángulo 36478" width="40" height="40" transform="translate(896 1984)" fill="#12263f"/>
    </clipPath>
  </defs>
  <g id="Grupo_119013" data-name="Grupo 119013" transform="translate(-561.74 -1674.829)">
    <g id="Grupo_119012" data-name="Grupo 119012">
      <g id="Grupo_119011" data-name="Grupo 119011" transform="translate(-0.26 -13.171)">
        <g id="Grupo_110735" data-name="Grupo 110735" transform="translate(0 48)">
          <g id="Grupo_110734" data-name="Grupo 110734" transform="translate(-2593.751 565.601)">
            <path id="Trazado_157123" data-name="Trazado 157123" d="M3394.011,1074.4v282.729h-238.26V1181.838C3240.711,1164.7,3344.061,1124.131,3394.011,1074.4Z" fill="#ffc967"/>
            <path id="Trazado_157124" data-name="Trazado 157124" d="M3632.271,1204.135v120.088q-.135,15.308-.34,32.906h-237.92V1074.4c48.96,50.978,153.18,93.306,237.91,112.09C3631.9,1188.34,3632.081,1193.087,3632.271,1204.135Z" fill="#ff6d60"/>
            <path id="Trazado_157125" data-name="Trazado 157125" d="M3631.931,1312.659c0,.309-.01.629-.01.938-2.14,182.209-210.13,269.961-237.91,281.8V1312.659Z" transform="translate(0 44.47)" fill="#ffa648"/>
            <path id="Trazado_157126" data-name="Trazado 157126" d="M3394.011,1312.659V1595.4c-27.19-13.219-222.39-95.976-238.26-261.916v-20.826Z" transform="translate(0 44.47)" fill="#373660"/>
          </g>
          <path id="Trazado_162053" data-name="Trazado 162053" d="M-73.2,0l2.224-12.8,3.99.009a5.293,5.293,0,0,1,3.34.905A2.8,2.8,0,0,1-62.631-9.36a3.223,3.223,0,0,1-2.241,2.839,2.15,2.15,0,0,1,1.187.989,2.959,2.959,0,0,1,.36,1.709,3.7,3.7,0,0,1-1.419,2.817A5.629,5.629,0,0,1-68.282,0Zm3.551-5.572-.606,3.454,2.03.009a2.618,2.618,0,0,0,1.591-.47,1.866,1.866,0,0,0,.765-1.27,1.577,1.577,0,0,0-.215-1.235,1.427,1.427,0,0,0-1.138-.479Zm.316-1.863,1.749.018a2.785,2.785,0,0,0,1.6-.457A1.772,1.772,0,0,0-65.241-9.1q.22-1.547-1.626-1.556l-1.9-.009ZM-56.619,0a2.566,2.566,0,0,1-.1-.861A3.221,3.221,0,0,1-59.142.176a2.919,2.919,0,0,1-2.07-.813A2.46,2.46,0,0,1-61.98-2.6a2.843,2.843,0,0,1,1.305-2.386,5.924,5.924,0,0,1,3.335-.831l1.16.018.123-.571a1.984,1.984,0,0,0,.026-.554.952.952,0,0,0-.312-.646,1.075,1.075,0,0,0-.708-.242,1.514,1.514,0,0,0-.984.286,1.384,1.384,0,0,0-.519.875l-2.487.009a2.764,2.764,0,0,1,1.252-2.21,4.851,4.851,0,0,1,2.94-.831,3.507,3.507,0,0,1,2.531.962,2.816,2.816,0,0,1,.765,2.386l-.729,4.553-.044.563a2.714,2.714,0,0,0,.149,1.055L-54.185,0Zm-1.907-1.749a2.27,2.27,0,0,0,1.872-.932l.308-1.644-.861-.009a2.406,2.406,0,0,0-1.978.835,1.454,1.454,0,0,0-.272.712.844.844,0,0,0,.2.751A1,1,0,0,0-58.526-1.749Zm10.02-.114a1.628,1.628,0,0,0,1.143-.374,1.836,1.836,0,0,0,.6-1.042l2.329-.009a3.416,3.416,0,0,1-.628,1.8A3.818,3.818,0,0,1-46.578-.237a4.327,4.327,0,0,1-1.991.422,3.514,3.514,0,0,1-2.742-1.2,4.461,4.461,0,0,1-.976-3.111l.026-.483.009-.1A5.945,5.945,0,0,1-50.687-8.38a4.231,4.231,0,0,1,3.278-1.305,3.428,3.428,0,0,1,2.553,1.05,3.71,3.71,0,0,1,.927,2.676h-2.312a1.947,1.947,0,0,0-.334-1.2,1.269,1.269,0,0,0-1-.475q-1.775-.053-2.153,2.593a8.755,8.755,0,0,0-.1,1.617Q-49.737-1.89-48.507-1.863Zm9.141-1.925-1.151,1L-41,0h-2.479l2.338-13.5h2.487l-1.283,7.33.483-.519,2.821-2.821h3.182l-4.157,4.087L-34.963,0h-2.716Zm11.188,2.8A3.283,3.283,0,0,1-30.8.176a2.443,2.443,0,0,1-2.074-.984,3.6,3.6,0,0,1-.545-2.549l1.028-6.152h2.479l-1.046,6.186a2.446,2.446,0,0,0-.009.545.9.9,0,0,0,.976.906,2.265,2.265,0,0,0,1.907-.889l1.187-6.749h2.5L-26.051,0h-2.312Zm13.1-3.744a7.854,7.854,0,0,1-.782,2.654A4.3,4.3,0,0,1-17.341-.352,3.44,3.44,0,0,1-19.31.185a2.745,2.745,0,0,1-2.18-1.028l-.87,4.5h-2.479L-22.562-9.51l2.285-.009-.167.958a3.036,3.036,0,0,1,2.426-1.125A2.7,2.7,0,0,1-15.847-8.67a4.412,4.412,0,0,1,.826,2.659A10.274,10.274,0,0,1-15.073-4.729Zm-2.461-.18.053-.845a2.351,2.351,0,0,0-.312-1.356,1.12,1.12,0,0,0-.962-.519,2.046,2.046,0,0,0-1.784.915l-.712,3.926a1.387,1.387,0,0,0,1.4.924,1.789,1.789,0,0,0,1.494-.7A4.763,4.763,0,0,0-17.534-4.909ZM-4.482.176A4.668,4.668,0,0,1-7.888-1.107,4.561,4.561,0,0,1-9.2-4.526v-.246a5.745,5.745,0,0,1,.554-2.562A4.064,4.064,0,0,1-7.08-9.075a4.4,4.4,0,0,1,2.316-.611,3.947,3.947,0,0,1,3.072,1.23A5,5,0,0,1-.571-4.966v1.037H-6.627a2.36,2.36,0,0,0,.743,1.494,2.245,2.245,0,0,0,1.569.563A2.742,2.742,0,0,0-2.021-2.936l1.248,1.4A3.813,3.813,0,0,1-2.32-.277,5.075,5.075,0,0,1-4.482.176Zm-.29-7.813A1.587,1.587,0,0,0-6-7.126,2.651,2.651,0,0,0-6.6-5.66h3.533v-.2a1.891,1.891,0,0,0-.457-1.311A1.638,1.638,0,0,0-4.772-7.638ZM3.208-9.51l.079,1.1A3.32,3.32,0,0,1,6.021-9.686a2.759,2.759,0,0,1,2.25.888,4.142,4.142,0,0,1,.756,2.654V0H6.486V-6.082a1.648,1.648,0,0,0-.352-1.173A1.574,1.574,0,0,0,4.966-7.62a1.747,1.747,0,0,0-1.608.914V0H.817V-9.51ZM18.114,0H15.565V-13.5h2.549Zm7.6,0a2.821,2.821,0,0,1-.255-.853,3.073,3.073,0,0,1-2.4,1.028,3.376,3.376,0,0,1-2.316-.809,2.6,2.6,0,0,1-.918-2.039,2.687,2.687,0,0,1,1.121-2.32,5.529,5.529,0,0,1,3.239-.817h1.169v-.545a1.567,1.567,0,0,0-.338-1.055,1.331,1.331,0,0,0-1.068-.4,1.513,1.513,0,0,0-1.006.308,1.045,1.045,0,0,0-.365.844h-2.54a2.551,2.551,0,0,1,.51-1.529,3.37,3.37,0,0,1,1.441-1.1,5.253,5.253,0,0,1,2.092-.4,4.15,4.15,0,0,1,2.791.883,3.09,3.09,0,0,1,1.033,2.483V-2.2a4.546,4.546,0,0,0,.378,2.048V0Zm-2.1-1.767a2.188,2.188,0,0,0,1.037-.25,1.645,1.645,0,0,0,.7-.672V-4.324h-.949q-1.907,0-2.03,1.318l-.009.149a1.017,1.017,0,0,0,.334.782A1.3,1.3,0,0,0,23.616-1.767ZM36.677-9.51l.079,1.1a3.32,3.32,0,0,1,2.733-1.274,2.759,2.759,0,0,1,2.25.888A4.142,4.142,0,0,1,42.5-6.144V0h-2.54V-6.082A1.648,1.648,0,0,0,39.6-7.255a1.574,1.574,0,0,0-1.169-.365,1.747,1.747,0,0,0-1.608.914V0h-2.54V-9.51ZM50.115-.967a3.185,3.185,0,0,1-2.6,1.143A3,3,0,0,1,45.18-.7a3.752,3.752,0,0,1-.822-2.575V-9.51H46.9v6.151q0,1.487,1.354,1.487a1.834,1.834,0,0,0,1.775-.9V-9.51h2.549V0H50.186Zm12.946-3.7A5.758,5.758,0,0,1,62.086-1.1,3.231,3.231,0,0,1,59.361.176a2.969,2.969,0,0,1-2.47-1.187L56.777,0H54.492V-13.5h2.54v4.843a2.893,2.893,0,0,1,2.312-1.028,3.258,3.258,0,0,1,2.729,1.279,5.767,5.767,0,0,1,.989,3.6Zm-2.54-.185a3.783,3.783,0,0,0-.457-2.1A1.545,1.545,0,0,0,58.7-7.62a1.676,1.676,0,0,0-1.67.993v3.753a1.7,1.7,0,0,0,1.688,1,1.568,1.568,0,0,0,1.617-1.213A6.257,6.257,0,0,0,60.521-4.852ZM69,.176A4.668,4.668,0,0,1,65.6-1.107a4.561,4.561,0,0,1-1.314-3.419v-.246a5.745,5.745,0,0,1,.554-2.562,4.064,4.064,0,0,1,1.569-1.74,4.4,4.4,0,0,1,2.316-.611,3.947,3.947,0,0,1,3.072,1.23,5,5,0,0,1,1.121,3.489v1.037H66.858A2.36,2.36,0,0,0,67.6-2.435a2.245,2.245,0,0,0,1.569.563,2.742,2.742,0,0,0,2.294-1.063l1.248,1.4A3.813,3.813,0,0,1,71.165-.277,5.075,5.075,0,0,1,69,.176Zm-.29-7.813a1.587,1.587,0,0,0-1.226.512,2.651,2.651,0,0,0-.6,1.466h3.533v-.2a1.891,1.891,0,0,0-.457-1.311A1.638,1.638,0,0,0,68.713-7.638Z" transform="translate(694 1828)" fill="#12263f"/>
          <path id="Trazado_162057" data-name="Trazado 162057" d="M33.7,14.737a4.528,4.528,0,0,1-1.525,3.252,5.355,5.355,0,0,1-3.625,1.187,4.816,4.816,0,0,1-3.872-1.657,6.793,6.793,0,0,1-1.411-4.548v-.782a7.671,7.671,0,0,1,.65-3.252,4.874,4.874,0,0,1,1.859-2.158,5.207,5.207,0,0,1,2.808-.751,5.217,5.217,0,0,1,3.568,1.187,4.866,4.866,0,0,1,1.564,3.331H31.083a2.673,2.673,0,0,0-.69-1.8,2.555,2.555,0,0,0-1.806-.558,2.24,2.24,0,0,0-1.973.945,5.3,5.3,0,0,0-.672,2.931v.967a5.667,5.667,0,0,0,.628,3.032,2.2,2.2,0,0,0,1.982.958,2.6,2.6,0,0,0,1.824-.558,2.521,2.521,0,0,0,.69-1.727ZM40.778,19a2.821,2.821,0,0,1-.255-.853,3.073,3.073,0,0,1-2.4,1.028,3.376,3.376,0,0,1-2.316-.809,2.6,2.6,0,0,1-.918-2.039,2.687,2.687,0,0,1,1.121-2.32,5.529,5.529,0,0,1,3.239-.817h1.169v-.545a1.567,1.567,0,0,0-.338-1.055,1.331,1.331,0,0,0-1.068-.4A1.513,1.513,0,0,0,38,11.5a1.045,1.045,0,0,0-.365.844H35.1a2.551,2.551,0,0,1,.51-1.529,3.37,3.37,0,0,1,1.441-1.1,5.253,5.253,0,0,1,2.092-.4,4.15,4.15,0,0,1,2.791.883,3.09,3.09,0,0,1,1.033,2.483V16.8a4.546,4.546,0,0,0,.378,2.048V19Zm-2.1-1.767a2.188,2.188,0,0,0,1.037-.25,1.645,1.645,0,0,0,.7-.672V14.676h-.949q-1.907,0-2.03,1.318l-.009.149a1.017,1.017,0,0,0,.334.782A1.3,1.3,0,0,0,38.677,17.233Zm11.584-5.361a6.9,6.9,0,0,0-.914-.07,1.86,1.86,0,0,0-1.89.976V19h-2.54V9.49h2.4l.07,1.134a2.354,2.354,0,0,1,2.118-1.31,2.662,2.662,0,0,1,.791.114Zm9.782,2.461a5.7,5.7,0,0,1-1,3.52,3.2,3.2,0,0,1-2.694,1.323,2.963,2.963,0,0,1-2.329-1v4.482h-2.54V9.49h2.355l.088.932a2.985,2.985,0,0,1,2.408-1.107,3.22,3.22,0,0,1,2.733,1.3,5.858,5.858,0,0,1,.976,3.586Zm-2.54-.185a3.743,3.743,0,0,0-.47-2.048,1.532,1.532,0,0,0-1.367-.721,1.663,1.663,0,0,0-1.644.914v3.894a1.692,1.692,0,0,0,1.661.94Q57.5,17.128,57.5,14.148Zm8.49,5.027a4.668,4.668,0,0,1-3.406-1.283,4.561,4.561,0,0,1-1.314-3.419v-.246a5.745,5.745,0,0,1,.554-2.562A4.064,4.064,0,0,1,63.4,9.925a4.4,4.4,0,0,1,2.316-.611,3.947,3.947,0,0,1,3.072,1.23A5,5,0,0,1,69.9,14.034v1.037H63.849a2.36,2.36,0,0,0,.743,1.494,2.245,2.245,0,0,0,1.569.563,2.742,2.742,0,0,0,2.294-1.063l1.248,1.4a3.813,3.813,0,0,1-1.547,1.261A5.075,5.075,0,0,1,65.994,19.176Zm-.29-7.813a1.587,1.587,0,0,0-1.226.512,2.651,2.651,0,0,0-.6,1.466h3.533v-.2a1.891,1.891,0,0,0-.457-1.311A1.638,1.638,0,0,0,65.7,11.362Zm8.684-4.21V9.49h1.626v1.863H74.387V16.1a1.133,1.133,0,0,0,.2.756,1.015,1.015,0,0,0,.773.229,4.051,4.051,0,0,0,.747-.062v1.925a5.229,5.229,0,0,1-1.538.229,2.425,2.425,0,0,1-2.725-2.7V11.354H70.458V9.49h1.389V7.152ZM82.939,19a2.821,2.821,0,0,1-.255-.853,3.073,3.073,0,0,1-2.4,1.028,3.376,3.376,0,0,1-2.316-.809,2.6,2.6,0,0,1-.918-2.039,2.687,2.687,0,0,1,1.121-2.32,5.529,5.529,0,0,1,3.239-.817h1.169v-.545a1.567,1.567,0,0,0-.338-1.055,1.331,1.331,0,0,0-1.068-.4,1.513,1.513,0,0,0-1.006.308,1.045,1.045,0,0,0-.365.844h-2.54a2.551,2.551,0,0,1,.51-1.529,3.37,3.37,0,0,1,1.441-1.1,5.253,5.253,0,0,1,2.092-.4,4.15,4.15,0,0,1,2.791.883,3.09,3.09,0,0,1,1.033,2.483V16.8a4.546,4.546,0,0,0,.378,2.048V19Zm-2.1-1.767a2.188,2.188,0,0,0,1.037-.25,1.645,1.645,0,0,0,.7-.672V14.676h-.949q-1.907,0-2.03,1.318l-.009.149a1.017,1.017,0,0,0,.334.782A1.3,1.3,0,0,0,80.838,17.233Zm11.391-.861a.818.818,0,0,0-.461-.734,5.241,5.241,0,0,0-1.481-.479q-3.393-.712-3.393-2.883a2.613,2.613,0,0,1,1.05-2.114,4.237,4.237,0,0,1,2.747-.848,4.56,4.56,0,0,1,2.9.853,2.687,2.687,0,0,1,1.085,2.215h-2.54a1.229,1.229,0,0,0-.352-.9,1.488,1.488,0,0,0-1.1-.356,1.52,1.52,0,0,0-.993.29.916.916,0,0,0-.352.738.783.783,0,0,0,.4.681,4.114,4.114,0,0,0,1.349.448,11.019,11.019,0,0,1,1.6.426A2.628,2.628,0,0,1,94.7,16.267a2.481,2.481,0,0,1-1.116,2.1,4.815,4.815,0,0,1-2.883.8,5.029,5.029,0,0,1-2.123-.426,3.561,3.561,0,0,1-1.455-1.169,2.716,2.716,0,0,1-.527-1.6H89a1.326,1.326,0,0,0,.5,1.037,1.987,1.987,0,0,0,1.248.36,1.839,1.839,0,0,0,1.1-.277A.861.861,0,0,0,92.229,16.372Zm12.542.756a1.666,1.666,0,0,0,1.143-.387,1.355,1.355,0,0,0,.457-1.028h2.382a3.258,3.258,0,0,1-.527,1.771,3.48,3.48,0,0,1-1.419,1.248,4.442,4.442,0,0,1-1.991.444,4.129,4.129,0,0,1-3.217-1.3A5.13,5.13,0,0,1,100.42,14.3v-.167a5.071,5.071,0,0,1,1.169-3.507,4.08,4.08,0,0,1,3.208-1.31,4,4,0,0,1,2.861,1.015,3.594,3.594,0,0,1,1.094,2.7h-2.382a1.745,1.745,0,0,0-.457-1.206,1.7,1.7,0,0,0-2.5.183,3.749,3.749,0,0,0-.453,2.1v.264a3.8,3.8,0,0,0,.448,2.113A1.549,1.549,0,0,0,104.771,17.128Zm5.036-2.971a5.64,5.64,0,0,1,.545-2.522,3.989,3.989,0,0,1,1.569-1.714,4.577,4.577,0,0,1,2.377-.606,4.33,4.33,0,0,1,3.142,1.178,4.727,4.727,0,0,1,1.358,3.2l.018.65a4.97,4.97,0,0,1-1.222,3.511,4.735,4.735,0,0,1-6.561,0,5.058,5.058,0,0,1-1.226-3.586Zm2.54.18a3.555,3.555,0,0,0,.51,2.073,1.831,1.831,0,0,0,2.9.009,3.89,3.89,0,0,0,.519-2.267,3.519,3.519,0,0,0-.519-2.06,1.686,1.686,0,0,0-1.459-.731,1.658,1.658,0,0,0-1.441.726A3.955,3.955,0,0,0,112.347,14.338ZM122.718,9.49l.079,1.1a3.32,3.32,0,0,1,2.733-1.274,2.759,2.759,0,0,1,2.25.888,4.142,4.142,0,0,1,.756,2.654V19H126V12.918a1.648,1.648,0,0,0-.352-1.173,1.574,1.574,0,0,0-1.169-.365,1.747,1.747,0,0,0-1.608.914V19h-2.54V9.49ZM31.105,37.128a1.666,1.666,0,0,0,1.143-.387,1.355,1.355,0,0,0,.457-1.028h2.382a3.258,3.258,0,0,1-.527,1.771,3.48,3.48,0,0,1-1.419,1.248,4.442,4.442,0,0,1-1.991.444,4.129,4.129,0,0,1-3.217-1.3A5.13,5.13,0,0,1,26.755,34.3v-.167a5.071,5.071,0,0,1,1.169-3.507,4.08,4.08,0,0,1,3.208-1.31,4,4,0,0,1,2.861,1.015,3.594,3.594,0,0,1,1.094,2.7H32.705a1.745,1.745,0,0,0-.457-1.206,1.7,1.7,0,0,0-2.5.183,3.749,3.749,0,0,0-.453,2.1v.264a3.8,3.8,0,0,0,.448,2.113A1.549,1.549,0,0,0,31.105,37.128Zm5.036-2.971a5.64,5.64,0,0,1,.545-2.522,3.989,3.989,0,0,1,1.569-1.714,4.577,4.577,0,0,1,2.377-.606,4.33,4.33,0,0,1,3.142,1.178,4.727,4.727,0,0,1,1.358,3.2l.018.65a4.97,4.97,0,0,1-1.222,3.511,4.735,4.735,0,0,1-6.561,0,5.058,5.058,0,0,1-1.226-3.586Zm2.54.18a3.555,3.555,0,0,0,.51,2.073,1.831,1.831,0,0,0,2.9.009,3.89,3.89,0,0,0,.519-2.267,3.519,3.519,0,0,0-.519-2.06,1.686,1.686,0,0,0-1.459-.731,1.658,1.658,0,0,0-1.441.726A3.955,3.955,0,0,0,38.682,34.338ZM49.053,29.49l.079,1.1a3.32,3.32,0,0,1,2.733-1.274,2.759,2.759,0,0,1,2.25.888,4.142,4.142,0,0,1,.756,2.654V39h-2.54V32.918a1.648,1.648,0,0,0-.352-1.173,1.574,1.574,0,0,0-1.169-.365,1.747,1.747,0,0,0-1.608.914V39h-2.54V29.49Zm10.784-2.338V29.49h1.626v1.863H59.837V36.1a1.133,1.133,0,0,0,.2.756,1.015,1.015,0,0,0,.773.229,4.051,4.051,0,0,0,.747-.062v1.925a5.229,5.229,0,0,1-1.538.229,2.425,2.425,0,0,1-2.725-2.7V31.354H55.908V29.49H57.3V27.152Zm8.385,4.72a6.9,6.9,0,0,0-.914-.07,1.86,1.86,0,0,0-1.89.976V39h-2.54V29.49h2.4l.07,1.134a2.354,2.354,0,0,1,2.118-1.31,2.662,2.662,0,0,1,.791.114ZM74.69,39a2.821,2.821,0,0,1-.255-.853,3.073,3.073,0,0,1-2.4,1.028,3.376,3.376,0,0,1-2.316-.809,2.6,2.6,0,0,1-.918-2.039,2.687,2.687,0,0,1,1.121-2.32,5.529,5.529,0,0,1,3.239-.817H74.33v-.545a1.567,1.567,0,0,0-.338-1.055,1.331,1.331,0,0,0-1.068-.4,1.513,1.513,0,0,0-1.006.308,1.045,1.045,0,0,0-.365.844h-2.54a2.551,2.551,0,0,1,.51-1.529,3.37,3.37,0,0,1,1.441-1.1,5.253,5.253,0,0,1,2.092-.4,4.15,4.15,0,0,1,2.791.883,3.09,3.09,0,0,1,1.033,2.483V36.8a4.546,4.546,0,0,0,.378,2.048V39Zm-2.1-1.767a2.188,2.188,0,0,0,1.037-.25,1.645,1.645,0,0,0,.7-.672V34.676h-.949q-1.907,0-2.03,1.318l-.009.149a1.017,1.017,0,0,0,.334.782A1.3,1.3,0,0,0,72.59,37.233Zm11.391-.861a.818.818,0,0,0-.461-.734,5.241,5.241,0,0,0-1.481-.479q-3.393-.712-3.393-2.883a2.613,2.613,0,0,1,1.05-2.114,4.237,4.237,0,0,1,2.747-.848,4.56,4.56,0,0,1,2.9.853,2.687,2.687,0,0,1,1.085,2.215h-2.54a1.229,1.229,0,0,0-.352-.9,1.488,1.488,0,0,0-1.1-.356,1.52,1.52,0,0,0-.993.29.916.916,0,0,0-.352.738.783.783,0,0,0,.4.681,4.114,4.114,0,0,0,1.349.448,11.019,11.019,0,0,1,1.6.426,2.628,2.628,0,0,1,2.013,2.558,2.481,2.481,0,0,1-1.116,2.1,4.815,4.815,0,0,1-2.883.8,5.029,5.029,0,0,1-2.123-.426,3.561,3.561,0,0,1-1.455-1.169,2.716,2.716,0,0,1-.527-1.6h2.408a1.326,1.326,0,0,0,.5,1.037,1.987,1.987,0,0,0,1.248.36,1.839,1.839,0,0,0,1.1-.277A.861.861,0,0,0,83.98,36.372Zm8.481,2.8a4.668,4.668,0,0,1-3.406-1.283,4.561,4.561,0,0,1-1.314-3.419v-.246a5.745,5.745,0,0,1,.554-2.562,4.064,4.064,0,0,1,1.569-1.74,4.4,4.4,0,0,1,2.316-.611,3.947,3.947,0,0,1,3.072,1.23,5,5,0,0,1,1.121,3.489v1.037H90.317a2.36,2.36,0,0,0,.743,1.494,2.245,2.245,0,0,0,1.569.563,2.742,2.742,0,0,0,2.294-1.063l1.248,1.4a3.813,3.813,0,0,1-1.547,1.261A5.075,5.075,0,0,1,92.462,39.176Zm-.29-7.813a1.587,1.587,0,0,0-1.226.512,2.651,2.651,0,0,0-.6,1.466h3.533v-.2a1.891,1.891,0,0,0-.457-1.311A1.638,1.638,0,0,0,92.172,31.362Zm7.98-1.872.079,1.1a3.32,3.32,0,0,1,2.733-1.274,2.759,2.759,0,0,1,2.25.888,4.142,4.142,0,0,1,.756,2.654V39h-2.54V32.918a1.648,1.648,0,0,0-.352-1.173,1.574,1.574,0,0,0-1.169-.365,1.747,1.747,0,0,0-1.608.914V39h-2.54V29.49Zm5.045-3.876a2.46,2.46,0,0,1-.58,1.666,1.8,1.8,0,0,1-1.415.672,2.146,2.146,0,0,1-.593-.075,3.981,3.981,0,0,1-.716-.321,3.864,3.864,0,0,0-.659-.3,1.611,1.611,0,0,0-.439-.057.7.7,0,0,0-.523.22.854.854,0,0,0-.215.624l-1.477-.088a2.5,2.5,0,0,1,.576-1.661,1.776,1.776,0,0,1,1.411-.686,1.816,1.816,0,0,1,.5.066,5.468,5.468,0,0,1,.76.321,4.941,4.941,0,0,0,.729.308,1.665,1.665,0,0,0,.422.053.741.741,0,0,0,.532-.215.819.819,0,0,0,.224-.62ZM113.406,39a2.821,2.821,0,0,1-.255-.853,3.073,3.073,0,0,1-2.4,1.028,3.376,3.376,0,0,1-2.316-.809,2.6,2.6,0,0,1-.918-2.039,2.687,2.687,0,0,1,1.121-2.32,5.529,5.529,0,0,1,3.239-.817h1.169v-.545a1.567,1.567,0,0,0-.338-1.055,1.331,1.331,0,0,0-1.068-.4,1.513,1.513,0,0,0-1.006.308,1.045,1.045,0,0,0-.365.844h-2.54a2.551,2.551,0,0,1,.51-1.529,3.37,3.37,0,0,1,1.441-1.1,5.253,5.253,0,0,1,2.092-.4,4.15,4.15,0,0,1,2.791.883,3.09,3.09,0,0,1,1.033,2.483V36.8a4.546,4.546,0,0,0,.378,2.048V39Zm-2.1-1.767a2.188,2.188,0,0,0,1.037-.25,1.645,1.645,0,0,0,.7-.672V34.676H112.1q-1.907,0-2.03,1.318l-.009.149a1.017,1.017,0,0,0,.334.782A1.3,1.3,0,0,0,111.306,37.233Zm11.391-.861a.818.818,0,0,0-.461-.734,5.241,5.241,0,0,0-1.481-.479q-3.393-.712-3.393-2.883a2.613,2.613,0,0,1,1.05-2.114,4.237,4.237,0,0,1,2.747-.848,4.56,4.56,0,0,1,2.9.853,2.687,2.687,0,0,1,1.085,2.215H122.6a1.229,1.229,0,0,0-.352-.9,1.488,1.488,0,0,0-1.1-.356,1.52,1.52,0,0,0-.993.29.916.916,0,0,0-.352.738.783.783,0,0,0,.4.681,4.114,4.114,0,0,0,1.349.448,11.019,11.019,0,0,1,1.6.426,2.628,2.628,0,0,1,2.013,2.558,2.481,2.481,0,0,1-1.116,2.1,4.815,4.815,0,0,1-2.883.8,5.029,5.029,0,0,1-2.123-.426,3.561,3.561,0,0,1-1.455-1.169,2.716,2.716,0,0,1-.527-1.6h2.408a1.326,1.326,0,0,0,.5,1.037,1.987,1.987,0,0,0,1.248.36,1.839,1.839,0,0,0,1.1-.277A.861.861,0,0,0,122.7,36.372Z" transform="translate(840 2029)" fill="#12263f"/>
          <path id="Trazado_162054" data-name="Trazado 162054" d="M-66.788-4.263a4.528,4.528,0,0,1-1.525,3.252A5.355,5.355,0,0,1-71.938.176,4.816,4.816,0,0,1-75.81-1.481a6.793,6.793,0,0,1-1.411-4.548v-.782a7.671,7.671,0,0,1,.65-3.252,4.874,4.874,0,0,1,1.859-2.158,5.207,5.207,0,0,1,2.808-.751,5.217,5.217,0,0,1,3.568,1.187,4.866,4.866,0,0,1,1.564,3.331h-2.637a2.673,2.673,0,0,0-.69-1.8,2.555,2.555,0,0,0-1.806-.558,2.24,2.24,0,0,0-1.973.945,5.3,5.3,0,0,0-.672,2.931v.967a5.667,5.667,0,0,0,.628,3.032,2.2,2.2,0,0,0,1.982.958,2.6,2.6,0,0,0,1.824-.558,2.521,2.521,0,0,0,.69-1.727Zm1.169-.58a5.64,5.64,0,0,1,.545-2.522,3.989,3.989,0,0,1,1.569-1.714,4.577,4.577,0,0,1,2.377-.606,4.33,4.33,0,0,1,3.142,1.178,4.727,4.727,0,0,1,1.358,3.2l.018.65a4.97,4.97,0,0,1-1.222,3.511A4.247,4.247,0,0,1-61.11.176a4.268,4.268,0,0,1-3.283-1.318,5.058,5.058,0,0,1-1.226-3.586Zm2.54.18a3.555,3.555,0,0,0,.51,2.073,1.682,1.682,0,0,0,1.459.717,1.686,1.686,0,0,0,1.441-.709,3.89,3.89,0,0,0,.519-2.267,3.519,3.519,0,0,0-.519-2.06,1.686,1.686,0,0,0-1.459-.731,1.658,1.658,0,0,0-1.441.726A3.955,3.955,0,0,0-63.079-4.662Zm16.594,0a5.7,5.7,0,0,1-1,3.52A3.2,3.2,0,0,1-50.177.176a2.963,2.963,0,0,1-2.329-1V3.656h-2.54V-9.51h2.355l.088.932a2.985,2.985,0,0,1,2.408-1.107,3.22,3.22,0,0,1,2.733,1.3A5.858,5.858,0,0,1-46.485-4.8Zm-2.54-.185A3.743,3.743,0,0,0-49.5-6.9a1.532,1.532,0,0,0-1.367-.721,1.663,1.663,0,0,0-1.644.914v3.894a1.692,1.692,0,0,0,1.661.94Q-49.025-1.872-49.025-4.852ZM-42.231,0H-44.78V-9.51h2.549Zm-2.7-11.971a1.251,1.251,0,0,1,.382-.94,1.436,1.436,0,0,1,1.042-.369,1.44,1.44,0,0,1,1.037.369,1.244,1.244,0,0,1,.387.94,1.247,1.247,0,0,1-.391.949,1.443,1.443,0,0,1-1.033.369,1.443,1.443,0,0,1-1.033-.369A1.247,1.247,0,0,1-44.93-11.971ZM-34.629,0a2.821,2.821,0,0,1-.255-.853,3.073,3.073,0,0,1-2.4,1.028A3.376,3.376,0,0,1-39.6-.633a2.6,2.6,0,0,1-.918-2.039A2.687,2.687,0,0,1-39.4-4.992a5.529,5.529,0,0,1,3.239-.817h1.169v-.545a1.567,1.567,0,0,0-.338-1.055A1.331,1.331,0,0,0-36.4-7.8,1.513,1.513,0,0,0-37.4-7.5a1.045,1.045,0,0,0-.365.844h-2.54a2.551,2.551,0,0,1,.51-1.529,3.37,3.37,0,0,1,1.441-1.1,5.253,5.253,0,0,1,2.092-.4,4.15,4.15,0,0,1,2.791.883A3.09,3.09,0,0,1-32.44-6.319V-2.2a4.546,4.546,0,0,0,.378,2.048V0Zm-2.1-1.767a2.188,2.188,0,0,0,1.037-.25,1.645,1.645,0,0,0,.7-.672V-4.324h-.949q-1.907,0-2.03,1.318l-.009.149a1.017,1.017,0,0,0,.334.782A1.3,1.3,0,0,0-36.729-1.767ZM-26.4-4.825a5.731,5.731,0,0,1,1-3.542,3.237,3.237,0,0,1,2.729-1.318,2.913,2.913,0,0,1,2.294,1.037V-13.5h2.549V0h-2.294l-.123-1.011A2.989,2.989,0,0,1-22.693.176a3.228,3.228,0,0,1-2.694-1.323A5.916,5.916,0,0,1-26.4-4.825Zm2.54.189A3.754,3.754,0,0,0-23.4-2.585a1.517,1.517,0,0,0,1.354.713,1.7,1.7,0,0,0,1.661-.995V-6.625a1.675,1.675,0,0,0-1.644-.995Q-23.862-7.62-23.862-4.636ZM-11.487.176a4.668,4.668,0,0,1-3.406-1.283,4.561,4.561,0,0,1-1.314-3.419v-.246a5.745,5.745,0,0,1,.554-2.562,4.064,4.064,0,0,1,1.569-1.74,4.4,4.4,0,0,1,2.316-.611A3.947,3.947,0,0,1-8.7-8.455,5,5,0,0,1-7.576-4.966v1.037h-6.056a2.36,2.36,0,0,0,.743,1.494,2.245,2.245,0,0,0,1.569.563A2.742,2.742,0,0,0-9.026-2.936l1.248,1.4A3.813,3.813,0,0,1-9.325-.277,5.075,5.075,0,0,1-11.487.176Zm-.29-7.813A1.587,1.587,0,0,0-13-7.126a2.651,2.651,0,0,0-.6,1.466h3.533v-.2a1.891,1.891,0,0,0-.457-1.311A1.638,1.638,0,0,0-11.777-7.638ZM3.5-2.628a.818.818,0,0,0-.461-.734,5.241,5.241,0,0,0-1.481-.479q-3.393-.712-3.393-2.883A2.613,2.613,0,0,1-.787-8.837,4.237,4.237,0,0,1,1.96-9.686a4.56,4.56,0,0,1,2.9.853A2.687,2.687,0,0,1,5.941-6.618H3.4a1.229,1.229,0,0,0-.352-.9,1.488,1.488,0,0,0-1.1-.356,1.52,1.52,0,0,0-.993.29.916.916,0,0,0-.352.738.783.783,0,0,0,.4.681,4.114,4.114,0,0,0,1.349.448,11.019,11.019,0,0,1,1.6.426A2.628,2.628,0,0,1,5.968-2.733a2.481,2.481,0,0,1-1.116,2.1,4.815,4.815,0,0,1-2.883.8A5.029,5.029,0,0,1-.154-.25,3.561,3.561,0,0,1-1.608-1.419a2.716,2.716,0,0,1-.527-1.6H.272a1.326,1.326,0,0,0,.5,1.037,1.987,1.987,0,0,0,1.248.36,1.839,1.839,0,0,0,1.1-.277A.861.861,0,0,0,3.5-2.628Zm8.481,2.8A4.668,4.668,0,0,1,8.574-1.107,4.561,4.561,0,0,1,7.26-4.526v-.246a5.745,5.745,0,0,1,.554-2.562,4.064,4.064,0,0,1,1.569-1.74A4.4,4.4,0,0,1,11.7-9.686a3.947,3.947,0,0,1,3.072,1.23,5,5,0,0,1,1.121,3.489v1.037H9.835a2.36,2.36,0,0,0,.743,1.494,2.245,2.245,0,0,0,1.569.563A2.742,2.742,0,0,0,14.44-2.936l1.248,1.4A3.813,3.813,0,0,1,14.142-.277,5.075,5.075,0,0,1,11.979.176Zm-.29-7.813a1.587,1.587,0,0,0-1.226.512,2.651,2.651,0,0,0-.6,1.466h3.533v-.2a1.891,1.891,0,0,0-.457-1.311A1.638,1.638,0,0,0,11.689-7.638Zm5.273,2.813A5.573,5.573,0,0,1,18-8.35a3.375,3.375,0,0,1,2.808-1.336,2.96,2.96,0,0,1,2.435,1.072l.105-.9h2.3V-.316a4.064,4.064,0,0,1-.567,2.171,3.641,3.641,0,0,1-1.6,1.406,5.608,5.608,0,0,1-2.408.483,5.215,5.215,0,0,1-2.039-.417,3.619,3.619,0,0,1-1.5-1.077L18.668.7a2.975,2.975,0,0,0,2.3,1.063,2.178,2.178,0,0,0,1.573-.541,2.027,2.027,0,0,0,.563-1.534v-.51a2.938,2.938,0,0,1-2.312.993,3.366,3.366,0,0,1-2.773-1.34A5.572,5.572,0,0,1,16.963-4.72Zm2.54.189a3.47,3.47,0,0,0,.519,2.029,1.65,1.65,0,0,0,1.424.735,1.764,1.764,0,0,0,1.661-.871V-6.749a1.76,1.76,0,0,0-1.644-.871,1.66,1.66,0,0,0-1.437.748A3.911,3.911,0,0,0,19.5-4.636ZM33.3-.967A3.185,3.185,0,0,1,30.7.176,3,3,0,0,1,28.367-.7a3.752,3.752,0,0,1-.822-2.575V-9.51h2.54v6.151q0,1.487,1.354,1.487a1.834,1.834,0,0,0,1.775-.9V-9.51h2.549V0H33.372Zm9.721-6.161a6.9,6.9,0,0,0-.914-.07,1.86,1.86,0,0,0-1.89.976V0h-2.54V-9.51h2.4l.07,1.134a2.354,2.354,0,0,1,2.118-1.31,2.662,2.662,0,0,1,.791.114ZM46.925,0H44.376V-9.51h2.549Zm-2.7-11.971a1.251,1.251,0,0,1,.382-.94,1.436,1.436,0,0,1,1.042-.369,1.44,1.44,0,0,1,1.037.369,1.244,1.244,0,0,1,.387.94,1.247,1.247,0,0,1-.391.949,1.443,1.443,0,0,1-1.033.369,1.443,1.443,0,0,1-1.033-.369A1.247,1.247,0,0,1,44.227-11.971Zm4.395,7.146a5.731,5.731,0,0,1,1-3.542,3.237,3.237,0,0,1,2.729-1.318,2.913,2.913,0,0,1,2.294,1.037V-13.5H57.19V0H54.9l-.123-1.011A2.989,2.989,0,0,1,52.33.176a3.228,3.228,0,0,1-2.694-1.323A5.916,5.916,0,0,1,48.621-4.825Zm2.54.189a3.754,3.754,0,0,0,.466,2.051,1.517,1.517,0,0,0,1.354.713,1.7,1.7,0,0,0,1.661-.995V-6.625A1.675,1.675,0,0,0,53-7.62Q51.161-7.62,51.161-4.636ZM64.67,0a2.821,2.821,0,0,1-.255-.853,3.073,3.073,0,0,1-2.4,1.028A3.376,3.376,0,0,1,59.7-.633a2.6,2.6,0,0,1-.918-2.039A2.687,2.687,0,0,1,59.9-4.992a5.529,5.529,0,0,1,3.239-.817H64.31v-.545a1.567,1.567,0,0,0-.338-1.055A1.331,1.331,0,0,0,62.9-7.8,1.513,1.513,0,0,0,61.9-7.5a1.045,1.045,0,0,0-.365.844h-2.54a2.551,2.551,0,0,1,.51-1.529,3.37,3.37,0,0,1,1.441-1.1,5.253,5.253,0,0,1,2.092-.4,4.15,4.15,0,0,1,2.791.883,3.09,3.09,0,0,1,1.033,2.483V-2.2a4.546,4.546,0,0,0,.378,2.048V0Zm-2.1-1.767a2.188,2.188,0,0,0,1.037-.25,1.645,1.645,0,0,0,.7-.672V-4.324H63.36q-1.907,0-2.03,1.318l-.009.149a1.017,1.017,0,0,0,.334.782A1.3,1.3,0,0,0,62.569-1.767Zm5.845-3.059a5.731,5.731,0,0,1,1-3.542,3.237,3.237,0,0,1,2.729-1.318,2.913,2.913,0,0,1,2.294,1.037V-13.5h2.549V0H74.689l-.123-1.011A2.989,2.989,0,0,1,72.123.176a3.228,3.228,0,0,1-2.694-1.323A5.916,5.916,0,0,1,68.414-4.825Zm2.54.189a3.754,3.754,0,0,0,.466,2.051,1.517,1.517,0,0,0,1.354.713,1.7,1.7,0,0,0,1.661-.995V-6.625a1.675,1.675,0,0,0-1.644-.995Q70.954-7.62,70.954-4.636Z" transform="translate(916 1828)" fill="#fff"/>
          <path id="Trazado_162055" data-name="Trazado 162055" d="M17.362,14.737a4.528,4.528,0,0,1-1.525,3.252,5.355,5.355,0,0,1-3.625,1.187A4.816,4.816,0,0,1,8.34,17.519a6.793,6.793,0,0,1-1.411-4.548v-.782a7.671,7.671,0,0,1,.65-3.252A4.874,4.874,0,0,1,9.438,6.779a5.207,5.207,0,0,1,2.808-.751,5.217,5.217,0,0,1,3.568,1.187,4.866,4.866,0,0,1,1.564,3.331H14.743a2.673,2.673,0,0,0-.69-1.8,2.555,2.555,0,0,0-1.806-.558,2.24,2.24,0,0,0-1.973.945A5.3,5.3,0,0,0,9.6,12.065v.967a5.667,5.667,0,0,0,.628,3.032,2.2,2.2,0,0,0,1.982.958,2.6,2.6,0,0,0,1.824-.558,2.521,2.521,0,0,0,.69-1.727ZM23.3,19.176A4.668,4.668,0,0,1,19.9,17.893a4.561,4.561,0,0,1-1.314-3.419v-.246a5.745,5.745,0,0,1,.554-2.562,4.064,4.064,0,0,1,1.569-1.74,4.4,4.4,0,0,1,2.316-.611,3.947,3.947,0,0,1,3.072,1.23,5,5,0,0,1,1.121,3.489v1.037H21.159a2.36,2.36,0,0,0,.743,1.494,2.245,2.245,0,0,0,1.569.563,2.742,2.742,0,0,0,2.294-1.063l1.248,1.4a3.813,3.813,0,0,1-1.547,1.261A5.075,5.075,0,0,1,23.3,19.176Zm-.29-7.813a1.587,1.587,0,0,0-1.226.512,2.651,2.651,0,0,0-.6,1.466h3.533v-.2a1.891,1.891,0,0,0-.457-1.311A1.638,1.638,0,0,0,23.013,11.362Zm7.98-1.872.079,1.1a3.32,3.32,0,0,1,2.733-1.274,2.759,2.759,0,0,1,2.25.888,4.142,4.142,0,0,1,.756,2.654V19h-2.54V12.918a1.648,1.648,0,0,0-.352-1.173,1.574,1.574,0,0,0-1.169-.365,1.747,1.747,0,0,0-1.608.914V19H28.6V9.49ZM41.778,7.152V9.49H43.4v1.863H41.778V16.1a1.133,1.133,0,0,0,.2.756,1.015,1.015,0,0,0,.773.229,4.051,4.051,0,0,0,.747-.062v1.925a5.229,5.229,0,0,1-1.538.229,2.425,2.425,0,0,1-2.725-2.7V11.354H37.849V9.49h1.389V7.152Zm8.385,4.72a6.9,6.9,0,0,0-.914-.07,1.86,1.86,0,0,0-1.89.976V19h-2.54V9.49h2.4l.07,1.134a2.354,2.354,0,0,1,2.118-1.31,2.662,2.662,0,0,1,.791.114ZM56.631,19a2.821,2.821,0,0,1-.255-.853,3.073,3.073,0,0,1-2.4,1.028,3.376,3.376,0,0,1-2.316-.809,2.6,2.6,0,0,1-.918-2.039,2.687,2.687,0,0,1,1.121-2.32A5.529,5.529,0,0,1,55.1,13.19h1.169v-.545a1.567,1.567,0,0,0-.338-1.055,1.331,1.331,0,0,0-1.068-.4,1.513,1.513,0,0,0-1.006.308,1.045,1.045,0,0,0-.365.844h-2.54a2.551,2.551,0,0,1,.51-1.529,3.37,3.37,0,0,1,1.441-1.1A5.253,5.253,0,0,1,55,9.314a4.15,4.15,0,0,1,2.791.883,3.09,3.09,0,0,1,1.033,2.483V16.8a4.546,4.546,0,0,0,.378,2.048V19Zm-2.1-1.767a2.188,2.188,0,0,0,1.037-.25,1.645,1.645,0,0,0,.7-.672V14.676h-.949q-1.907,0-2.03,1.318l-.009.149a1.017,1.017,0,0,0,.334.782A1.3,1.3,0,0,0,54.531,17.233ZM63.452,19H60.9V5.5h2.549Zm4.772,0H65.675V9.49h2.549Zm-2.7-11.971a1.251,1.251,0,0,1,.382-.94,1.648,1.648,0,0,1,2.079,0,1.244,1.244,0,0,1,.387.94,1.247,1.247,0,0,1-.391.949,1.629,1.629,0,0,1-2.065,0A1.247,1.247,0,0,1,65.526,7.029Zm7.708,9.923h4.649V19H69.991V17.453l4.474-5.915H70.123V9.49h7.62v1.5ZM84.985,19a2.821,2.821,0,0,1-.255-.853,3.073,3.073,0,0,1-2.4,1.028,3.376,3.376,0,0,1-2.316-.809,2.6,2.6,0,0,1-.918-2.039,2.687,2.687,0,0,1,1.121-2.32,5.529,5.529,0,0,1,3.239-.817h1.169v-.545a1.567,1.567,0,0,0-.338-1.055,1.331,1.331,0,0,0-1.068-.4,1.513,1.513,0,0,0-1.006.308,1.045,1.045,0,0,0-.365.844h-2.54a2.551,2.551,0,0,1,.51-1.529,3.37,3.37,0,0,1,1.441-1.1,5.253,5.253,0,0,1,2.092-.4,4.15,4.15,0,0,1,2.791.883,3.09,3.09,0,0,1,1.033,2.483V16.8a4.546,4.546,0,0,0,.378,2.048V19Zm-2.1-1.767a2.188,2.188,0,0,0,1.037-.25,1.645,1.645,0,0,0,.7-.672V14.676h-.949q-1.907,0-2.03,1.318l-.009.149a1.017,1.017,0,0,0,.334.782A1.3,1.3,0,0,0,82.884,17.233Zm10.2-.105a1.666,1.666,0,0,0,1.143-.387,1.355,1.355,0,0,0,.457-1.028h2.382a3.258,3.258,0,0,1-.527,1.771,3.48,3.48,0,0,1-1.419,1.248,4.442,4.442,0,0,1-1.991.444,4.129,4.129,0,0,1-3.217-1.3A5.13,5.13,0,0,1,88.729,14.3v-.167A5.071,5.071,0,0,1,89.9,10.624a4.08,4.08,0,0,1,3.208-1.31,4,4,0,0,1,2.861,1.015,3.594,3.594,0,0,1,1.094,2.7H94.679a1.745,1.745,0,0,0-.457-1.206,1.7,1.7,0,0,0-2.5.183,3.749,3.749,0,0,0-.453,2.1v.264a3.8,3.8,0,0,0,.448,2.113A1.549,1.549,0,0,0,93.08,17.128ZM101.192,19H98.643V9.49h2.549Zm-2.7-11.971a1.251,1.251,0,0,1,.382-.94,1.648,1.648,0,0,1,2.079,0,1.244,1.244,0,0,1,.387.94,1.247,1.247,0,0,1-.391.949,1.629,1.629,0,0,1-2.065,0A1.247,1.247,0,0,1,98.494,7.029Zm4.395,7.128a5.64,5.64,0,0,1,.545-2.522A3.989,3.989,0,0,1,105,9.921a4.577,4.577,0,0,1,2.377-.606,4.33,4.33,0,0,1,3.142,1.178,4.727,4.727,0,0,1,1.358,3.2l.018.65a4.97,4.97,0,0,1-1.222,3.511,4.735,4.735,0,0,1-6.561,0,5.058,5.058,0,0,1-1.226-3.586Zm2.54.18a3.555,3.555,0,0,0,.51,2.073,1.831,1.831,0,0,0,2.9.009,3.89,3.89,0,0,0,.519-2.267,3.519,3.519,0,0,0-.519-2.06,1.686,1.686,0,0,0-1.459-.731,1.658,1.658,0,0,0-1.441.726A3.955,3.955,0,0,0,105.428,14.338ZM107.88,5.5h2.769l-2.435,2.725h-2.065ZM115.8,9.49l.079,1.1a3.32,3.32,0,0,1,2.733-1.274,2.759,2.759,0,0,1,2.25.888,4.142,4.142,0,0,1,.756,2.654V19h-2.54V12.918a1.648,1.648,0,0,0-.352-1.173,1.574,1.574,0,0,0-1.169-.365,1.747,1.747,0,0,0-1.608.914V19h-2.54V9.49Zm11.83,4.685a5.731,5.731,0,0,1,1-3.542,3.237,3.237,0,0,1,2.729-1.318,2.913,2.913,0,0,1,2.294,1.037V5.5H136.2V19H133.9l-.123-1.011a2.989,2.989,0,0,1-2.443,1.187,3.228,3.228,0,0,1-2.694-1.323A5.916,5.916,0,0,1,127.629,14.175Zm2.54.189a3.754,3.754,0,0,0,.466,2.051,1.517,1.517,0,0,0,1.354.713,1.7,1.7,0,0,0,1.661-.995V12.375a1.675,1.675,0,0,0-1.644-.995Q130.169,11.38,130.169,14.364Zm12.375,4.812a4.668,4.668,0,0,1-3.406-1.283,4.561,4.561,0,0,1-1.314-3.419v-.246a5.745,5.745,0,0,1,.554-2.562,4.064,4.064,0,0,1,1.569-1.74,4.4,4.4,0,0,1,2.316-.611,3.947,3.947,0,0,1,3.072,1.23,5,5,0,0,1,1.121,3.489v1.037H140.4a2.36,2.36,0,0,0,.743,1.494,2.245,2.245,0,0,0,1.569.563,2.742,2.742,0,0,0,2.294-1.063l1.248,1.4a3.813,3.813,0,0,1-1.547,1.261A5.075,5.075,0,0,1,142.544,19.176Zm-.29-7.813a1.587,1.587,0,0,0-1.226.512,2.651,2.651,0,0,0-.6,1.466h3.533v-.2a1.891,1.891,0,0,0-.457-1.311A1.638,1.638,0,0,0,142.254,11.362ZM155.06,19h-2.549V5.5h2.549Zm7.6,0a2.821,2.821,0,0,1-.255-.853,3.073,3.073,0,0,1-2.4,1.028,3.376,3.376,0,0,1-2.316-.809,2.6,2.6,0,0,1-.918-2.039,2.687,2.687,0,0,1,1.121-2.32,5.529,5.529,0,0,1,3.239-.817H162.3v-.545a1.567,1.567,0,0,0-.338-1.055,1.331,1.331,0,0,0-1.068-.4,1.513,1.513,0,0,0-1.006.308,1.045,1.045,0,0,0-.365.844h-2.54a2.551,2.551,0,0,1,.51-1.529,3.37,3.37,0,0,1,1.441-1.1,5.253,5.253,0,0,1,2.092-.4,4.15,4.15,0,0,1,2.791.883,3.09,3.09,0,0,1,1.033,2.483V16.8a4.546,4.546,0,0,0,.378,2.048V19Zm-2.1-1.767a2.188,2.188,0,0,0,1.037-.25,1.645,1.645,0,0,0,.7-.672V14.676h-.949q-1.907,0-2.03,1.318l-.009.149a1.017,1.017,0,0,0,.334.782A1.3,1.3,0,0,0,160.562,17.233ZM40.807,39H38.258V29.49h2.549Zm-2.7-11.971a1.251,1.251,0,0,1,.382-.94,1.648,1.648,0,0,1,2.079,0,1.342,1.342,0,0,1,0,1.89,1.629,1.629,0,0,1-2.065,0A1.247,1.247,0,0,1,38.108,27.029Zm7.128,2.461.079,1.1a3.32,3.32,0,0,1,2.733-1.274,2.759,2.759,0,0,1,2.25.888,4.142,4.142,0,0,1,.756,2.654V39h-2.54V32.918a1.648,1.648,0,0,0-.352-1.173,1.574,1.574,0,0,0-1.169-.365,1.747,1.747,0,0,0-1.608.914V39h-2.54V29.49ZM53.674,39V31.354H52.259V29.49h1.415v-.809a3.283,3.283,0,0,1,.918-2.483,3.557,3.557,0,0,1,2.571-.883,5.938,5.938,0,0,1,1.292.176l-.026,1.969a3.238,3.238,0,0,0-.773-.079q-1.433,0-1.433,1.345v.765h1.89v1.863h-1.89V39Zm5.361-4.843a5.64,5.64,0,0,1,.545-2.522,3.989,3.989,0,0,1,1.569-1.714,4.577,4.577,0,0,1,2.377-.606,4.33,4.33,0,0,1,3.142,1.178,4.727,4.727,0,0,1,1.358,3.2l.018.65a4.97,4.97,0,0,1-1.222,3.511,4.735,4.735,0,0,1-6.561,0,5.058,5.058,0,0,1-1.226-3.586Zm2.54.18a3.555,3.555,0,0,0,.51,2.073,1.831,1.831,0,0,0,2.9.009,3.89,3.89,0,0,0,.519-2.267,3.519,3.519,0,0,0-.519-2.06,1.686,1.686,0,0,0-1.459-.731,1.658,1.658,0,0,0-1.441.726A3.955,3.955,0,0,0,61.575,34.338Zm13.377-2.465a6.9,6.9,0,0,0-.914-.07,1.86,1.86,0,0,0-1.89.976V39h-2.54V29.49h2.4l.07,1.134a2.354,2.354,0,0,1,2.118-1.31,2.662,2.662,0,0,1,.791.114Zm3.6-2.382.079,1.063a3.342,3.342,0,0,1,2.733-1.239,2.536,2.536,0,0,1,2.522,1.45,3.265,3.265,0,0,1,2.856-1.45,2.836,2.836,0,0,1,2.3.9,4.141,4.141,0,0,1,.756,2.711V39H87.257V32.936a1.811,1.811,0,0,0-.316-1.182,1.4,1.4,0,0,0-1.116-.374,1.585,1.585,0,0,0-1.582,1.09L84.251,39h-2.54V32.944a1.789,1.789,0,0,0-.325-1.2,1.416,1.416,0,0,0-1.107-.369,1.646,1.646,0,0,0-1.564.9V39h-2.54V29.49ZM97.268,39a2.821,2.821,0,0,1-.255-.853,3.073,3.073,0,0,1-2.4,1.028,3.376,3.376,0,0,1-2.316-.809,2.6,2.6,0,0,1-.918-2.039,2.687,2.687,0,0,1,1.121-2.32,5.529,5.529,0,0,1,3.239-.817h1.169v-.545a1.567,1.567,0,0,0-.338-1.055,1.331,1.331,0,0,0-1.068-.4,1.513,1.513,0,0,0-1.006.308,1.045,1.045,0,0,0-.365.844H91.59a2.551,2.551,0,0,1,.51-1.529,3.37,3.37,0,0,1,1.441-1.1,5.253,5.253,0,0,1,2.092-.4,4.15,4.15,0,0,1,2.791.883,3.09,3.09,0,0,1,1.033,2.483V36.8a4.546,4.546,0,0,0,.378,2.048V39Zm-2.1-1.767a2.188,2.188,0,0,0,1.037-.25,1.645,1.645,0,0,0,.7-.672V34.676h-.949q-1.907,0-2.03,1.318l-.009.149a1.017,1.017,0,0,0,.334.782A1.3,1.3,0,0,0,95.167,37.233Zm10.2-.105a1.666,1.666,0,0,0,1.143-.387,1.355,1.355,0,0,0,.457-1.028h2.382a3.258,3.258,0,0,1-.527,1.771,3.48,3.48,0,0,1-1.419,1.248,4.442,4.442,0,0,1-1.991.444,4.129,4.129,0,0,1-3.217-1.3,5.13,5.13,0,0,1-1.178-3.582v-.167a5.071,5.071,0,0,1,1.169-3.507,4.08,4.08,0,0,1,3.208-1.31,4,4,0,0,1,2.861,1.015,3.594,3.594,0,0,1,1.094,2.7h-2.382a1.745,1.745,0,0,0-.457-1.206,1.7,1.7,0,0,0-2.5.183,3.749,3.749,0,0,0-.453,2.1v.264A3.8,3.8,0,0,0,104,36.485,1.549,1.549,0,0,0,105.362,37.128ZM113.475,39h-2.549V29.49h2.549Zm-2.7-11.971a1.251,1.251,0,0,1,.382-.94,1.648,1.648,0,0,1,2.079,0,1.342,1.342,0,0,1,0,1.89,1.629,1.629,0,0,1-2.065,0A1.247,1.247,0,0,1,110.776,27.029Zm4.395,7.128a5.64,5.64,0,0,1,.545-2.522,3.989,3.989,0,0,1,1.569-1.714,4.577,4.577,0,0,1,2.377-.606,4.33,4.33,0,0,1,3.142,1.178,4.727,4.727,0,0,1,1.358,3.2l.018.65a4.97,4.97,0,0,1-1.222,3.511,4.735,4.735,0,0,1-6.561,0,5.058,5.058,0,0,1-1.226-3.586Zm2.54.18a3.555,3.555,0,0,0,.51,2.073,1.831,1.831,0,0,0,2.9.009,3.89,3.89,0,0,0,.519-2.267,3.519,3.519,0,0,0-.519-2.06,1.686,1.686,0,0,0-1.459-.731,1.658,1.658,0,0,0-1.441.726A3.955,3.955,0,0,0,117.711,34.338Zm2.452-8.838h2.769L120.5,28.225h-2.065Zm7.919,3.99.079,1.1a3.32,3.32,0,0,1,2.733-1.274,2.759,2.759,0,0,1,2.25.888,4.142,4.142,0,0,1,.756,2.654V39h-2.54V32.918a1.648,1.648,0,0,0-.352-1.173,1.574,1.574,0,0,0-1.169-.365,1.747,1.747,0,0,0-1.608.914V39h-2.54V29.49Z" transform="translate(608 2029)" fill="#fff"/>
          <ellipse id="Elipse_4914" data-name="Elipse 4914" cx="73.5" cy="71.5" rx="73.5" ry="71.5" transform="translate(727 1851)" fill="#fff"/>
          <path id="Trazado_162056" data-name="Trazado 162056" d="M26.03,6.2l2.856,8.9,2.848-8.9h4.061V19H32.7V16.012L33,9.895,29.906,19H27.867l-3.1-9.114.3,6.126V19H21.979V6.2ZM42.22,19.176a4.889,4.889,0,0,1-3.542-1.305,4.507,4.507,0,0,1-1.354-3.4v-.246a5.84,5.84,0,0,1,.541-2.575,3.955,3.955,0,0,1,1.578-1.727A4.763,4.763,0,0,1,41.9,9.314a4.117,4.117,0,0,1,3.164,1.244,4.887,4.887,0,0,1,1.16,3.467v1.151H40.339a2.135,2.135,0,0,0,.694,1.257,2.066,2.066,0,0,0,1.389.457,2.662,2.662,0,0,0,2.2-.984l1.354,1.6A3.784,3.784,0,0,1,44.4,18.723,5.3,5.3,0,0,1,42.22,19.176ZM41.886,11.6q-1.3,0-1.547,1.723h2.988v-.229a1.467,1.467,0,0,0-.36-1.1A1.434,1.434,0,0,0,41.886,11.6Zm5.159,2.575a5.809,5.809,0,0,1,.976-3.56,3.211,3.211,0,0,1,2.725-1.3,2.731,2.731,0,0,1,2.145,1V5.5H55.86V19H53.2l-.149-1.02a2.8,2.8,0,0,1-2.32,1.2,3.205,3.205,0,0,1-2.689-1.3A5.993,5.993,0,0,1,47.045,14.175Zm2.962.185q0,2.531,1.477,2.531a1.458,1.458,0,0,0,1.406-.826V12.443A1.419,1.419,0,0,0,51.5,11.6q-1.371,0-1.485,2.215ZM60.668,19H57.7V9.49h2.971ZM57.521,7.038A1.322,1.322,0,0,1,57.979,6a1.943,1.943,0,0,1,2.373,0,1.322,1.322,0,0,1,.457,1.037,1.322,1.322,0,0,1-.457,1.037,1.943,1.943,0,0,1-2.373,0A1.322,1.322,0,0,1,57.521,7.038Zm4.6,7.119a5.613,5.613,0,0,1,.554-2.536,3.96,3.96,0,0,1,1.591-1.709,4.791,4.791,0,0,1,2.435-.6,4.373,4.373,0,0,1,3.366,1.323,5.076,5.076,0,0,1,1.23,3.6v.105a4.925,4.925,0,0,1-1.235,3.529,4.384,4.384,0,0,1-3.344,1.305,4.434,4.434,0,0,1-3.261-1.217,4.761,4.761,0,0,1-1.327-3.3Zm2.962.185a3.538,3.538,0,0,0,.413,1.934,1.376,1.376,0,0,0,1.222.615q1.582,0,1.617-2.435v-.3q0-2.558-1.635-2.558-1.485,0-1.608,2.206Zm12.5,1.986a.684.684,0,0,0-.4-.606,6.016,6.016,0,0,0-1.5-.475,6.853,6.853,0,0,1-1.828-.646,3.062,3.062,0,0,1-1.1-.971,2.319,2.319,0,0,1-.378-1.31,2.628,2.628,0,0,1,1.081-2.158,4.453,4.453,0,0,1,2.83-.848,4.934,4.934,0,0,1,3.023.853,2.666,2.666,0,0,1,1.143,2.241H77.481q0-1.143-1.2-1.143a1.194,1.194,0,0,0-.782.259.8.8,0,0,0-.316.646.737.737,0,0,0,.387.642,3.654,3.654,0,0,0,1.235.4,10.671,10.671,0,0,1,1.49.378,2.706,2.706,0,0,1,2.145,2.646,2.491,2.491,0,0,1-1.156,2.118,5.068,5.068,0,0,1-2.993.817,5.172,5.172,0,0,1-2.18-.439,3.645,3.645,0,0,1-1.494-1.2,2.707,2.707,0,0,1-.536-1.591h2.769a1.145,1.145,0,0,0,.439.962,1.808,1.808,0,0,0,1.081.3,1.422,1.422,0,0,0,.91-.246A.787.787,0,0,0,77.578,16.328ZM6.04,39.176A4.889,4.889,0,0,1,2.5,37.871a4.507,4.507,0,0,1-1.354-3.4v-.246a5.84,5.84,0,0,1,.541-2.575,3.955,3.955,0,0,1,1.578-1.727,4.763,4.763,0,0,1,2.461-.611,4.117,4.117,0,0,1,3.164,1.244,4.887,4.887,0,0,1,1.16,3.467v1.151H4.159a2.135,2.135,0,0,0,.694,1.257,2.066,2.066,0,0,0,1.389.457,2.662,2.662,0,0,0,2.2-.984l1.354,1.6a3.784,3.784,0,0,1-1.569,1.217A5.3,5.3,0,0,1,6.04,39.176ZM5.706,31.6q-1.3,0-1.547,1.723H7.147v-.229a1.467,1.467,0,0,0-.36-1.1A1.434,1.434,0,0,0,5.706,31.6ZM14.363,39H11.392V25.5h2.971Zm6.425.176a4.889,4.889,0,0,1-3.542-1.305,4.507,4.507,0,0,1-1.354-3.4v-.246a5.84,5.84,0,0,1,.541-2.575,3.955,3.955,0,0,1,1.578-1.727,4.763,4.763,0,0,1,2.461-.611,4.117,4.117,0,0,1,3.164,1.244,4.887,4.887,0,0,1,1.16,3.467v1.151H18.907a2.135,2.135,0,0,0,.694,1.257,2.066,2.066,0,0,0,1.389.457,2.662,2.662,0,0,0,2.2-.984l1.354,1.6a3.784,3.784,0,0,1-1.569,1.217A5.3,5.3,0,0,1,20.788,39.176ZM20.454,31.6q-1.3,0-1.547,1.723H21.9v-.229a1.467,1.467,0,0,0-.36-1.1A1.434,1.434,0,0,0,20.454,31.6Zm9.554,5.291a1.317,1.317,0,0,0,.967-.338,1.241,1.241,0,0,0,.334-.945h2.777a3.288,3.288,0,0,1-1.121,2.566,4.168,4.168,0,0,1-2.887,1,4.22,4.22,0,0,1-3.27-1.3,5.125,5.125,0,0,1-1.2-3.6v-.123a5.792,5.792,0,0,1,.532-2.544,3.872,3.872,0,0,1,1.534-1.7,4.573,4.573,0,0,1,2.373-.593A4.116,4.116,0,0,1,33,30.343a3.647,3.647,0,0,1,1.09,2.786H31.308A1.626,1.626,0,0,0,30.948,32a1.244,1.244,0,0,0-.967-.4q-1.151,0-1.345,1.468a10.357,10.357,0,0,0-.062,1.283,4.068,4.068,0,0,0,.343,1.986A1.187,1.187,0,0,0,30.007,36.891Zm8.78-9.765V29.49h1.564v2.057H38.788V35.9a1.111,1.111,0,0,0,.193.747,1.037,1.037,0,0,0,.765.211,4.345,4.345,0,0,0,.738-.053v2.118a5.466,5.466,0,0,1-1.67.255,3.1,3.1,0,0,1-2.259-.721,2.954,2.954,0,0,1-.729-2.188v-4.72H34.613V29.49h1.213V27.126Zm8.481,5.045-.976-.07a1.752,1.752,0,0,0-1.793.879V39H41.539V29.49h2.777l.1,1.222a2.294,2.294,0,0,1,2.083-1.4,2.888,2.888,0,0,1,.826.105Zm.694,1.986a5.613,5.613,0,0,1,.554-2.536,3.96,3.96,0,0,1,1.591-1.709,4.791,4.791,0,0,1,2.435-.6,4.373,4.373,0,0,1,3.366,1.323,5.076,5.076,0,0,1,1.23,3.6v.105A4.925,4.925,0,0,1,55.9,37.871a4.384,4.384,0,0,1-3.344,1.305A4.434,4.434,0,0,1,49.3,37.958a4.761,4.761,0,0,1-1.327-3.3Zm2.962.185a3.538,3.538,0,0,0,.413,1.934,1.376,1.376,0,0,0,1.222.615q1.582,0,1.617-2.435v-.3q0-2.558-1.635-2.558-1.485,0-1.608,2.206ZM52.947,25.5h3.129l-2.443,2.76-2.417,0Zm8.218,3.99.1,1.116a3.225,3.225,0,0,1,2.716-1.292A2.713,2.713,0,0,1,66.2,30.2a4.226,4.226,0,0,1,.76,2.672V39H63.986V33a1.6,1.6,0,0,0-.29-1.059,1.342,1.342,0,0,0-1.055-.338,1.413,1.413,0,0,0-1.292.686V39H58.387V29.49ZM71.72,39H68.75V29.49H71.72ZM68.574,27.038A1.322,1.322,0,0,1,69.031,26,1.943,1.943,0,0,1,71.4,26a1.405,1.405,0,0,1,0,2.074,1.943,1.943,0,0,1-2.373,0A1.322,1.322,0,0,1,68.574,27.038Zm8.991,9.853a1.317,1.317,0,0,0,.967-.338,1.241,1.241,0,0,0,.334-.945h2.777a3.288,3.288,0,0,1-1.121,2.566,4.168,4.168,0,0,1-2.887,1,4.22,4.22,0,0,1-3.27-1.3,5.125,5.125,0,0,1-1.2-3.6v-.123A5.792,5.792,0,0,1,73.7,31.6a3.872,3.872,0,0,1,1.534-1.7,4.573,4.573,0,0,1,2.373-.593,4.116,4.116,0,0,1,2.944,1.028,3.647,3.647,0,0,1,1.09,2.786H78.866A1.626,1.626,0,0,0,78.505,32a1.244,1.244,0,0,0-.967-.4q-1.151,0-1.345,1.468a10.357,10.357,0,0,0-.062,1.283,4.068,4.068,0,0,0,.343,1.986A1.187,1.187,0,0,0,77.565,36.891Zm4.957-2.733a5.613,5.613,0,0,1,.554-2.536,3.96,3.96,0,0,1,1.591-1.709,4.791,4.791,0,0,1,2.435-.6,4.373,4.373,0,0,1,3.366,1.323,5.076,5.076,0,0,1,1.23,3.6v.105a4.925,4.925,0,0,1-1.235,3.529,4.384,4.384,0,0,1-3.344,1.305,4.434,4.434,0,0,1-3.261-1.217,4.761,4.761,0,0,1-1.327-3.3Zm2.962.185a3.538,3.538,0,0,0,.413,1.934,1.376,1.376,0,0,0,1.222.615q1.582,0,1.617-2.435v-.3q0-2.558-1.635-2.558-1.485,0-1.608,2.206Zm12.5,1.986a.684.684,0,0,0-.4-.606,6.016,6.016,0,0,0-1.5-.475,6.853,6.853,0,0,1-1.828-.646,3.062,3.062,0,0,1-1.1-.971,2.319,2.319,0,0,1-.378-1.31,2.628,2.628,0,0,1,1.081-2.158,4.453,4.453,0,0,1,2.83-.848,4.934,4.934,0,0,1,3.023.853,2.666,2.666,0,0,1,1.143,2.241H97.885q0-1.143-1.2-1.143a1.194,1.194,0,0,0-.782.259.8.8,0,0,0-.316.646.737.737,0,0,0,.387.642,3.654,3.654,0,0,0,1.235.4,10.671,10.671,0,0,1,1.49.378,2.706,2.706,0,0,1,2.145,2.646,2.491,2.491,0,0,1-1.156,2.118,5.068,5.068,0,0,1-2.993.817,5.172,5.172,0,0,1-2.18-.439,3.645,3.645,0,0,1-1.494-1.2,2.707,2.707,0,0,1-.536-1.591h2.769a1.145,1.145,0,0,0,.439.962,1.808,1.808,0,0,0,1.081.3,1.422,1.422,0,0,0,.91-.246A.787.787,0,0,0,97.982,36.328ZM7.182,56.891a1.317,1.317,0,0,0,.967-.338,1.241,1.241,0,0,0,.334-.945H11.26a3.288,3.288,0,0,1-1.121,2.566,4.168,4.168,0,0,1-2.887,1,4.22,4.22,0,0,1-3.27-1.3,5.125,5.125,0,0,1-1.2-3.6v-.123A5.792,5.792,0,0,1,3.319,51.6a3.872,3.872,0,0,1,1.534-1.7,4.573,4.573,0,0,1,2.373-.593,4.116,4.116,0,0,1,2.944,1.028,3.647,3.647,0,0,1,1.09,2.786H8.483A1.626,1.626,0,0,0,8.123,52a1.244,1.244,0,0,0-.967-.4Q6,51.6,5.811,53.067a10.357,10.357,0,0,0-.062,1.283,4.068,4.068,0,0,0,.343,1.986A1.187,1.187,0,0,0,7.182,56.891Zm9.932,2.285a4.889,4.889,0,0,1-3.542-1.305,4.507,4.507,0,0,1-1.354-3.4v-.246a5.84,5.84,0,0,1,.541-2.575,3.955,3.955,0,0,1,1.578-1.727,4.763,4.763,0,0,1,2.461-.611,4.117,4.117,0,0,1,3.164,1.244,4.887,4.887,0,0,1,1.16,3.467v1.151H15.233a2.135,2.135,0,0,0,.694,1.257,2.066,2.066,0,0,0,1.389.457,2.662,2.662,0,0,0,2.2-.984l1.354,1.6A3.784,3.784,0,0,1,19.3,58.723,5.3,5.3,0,0,1,17.114,59.176ZM16.78,51.6q-1.3,0-1.547,1.723h2.988v-.229a1.467,1.467,0,0,0-.36-1.1A1.434,1.434,0,0,0,16.78,51.6Zm11.285.571-.976-.07a1.752,1.752,0,0,0-1.793.879V59H22.334V49.49h2.777l.1,1.222a2.294,2.294,0,0,1,2.083-1.4,2.888,2.888,0,0,1,.826.105Zm4.957-5.045V49.49h1.564v2.057H33.022V55.9a1.111,1.111,0,0,0,.193.747,1.037,1.037,0,0,0,.765.211,4.345,4.345,0,0,0,.738-.053v2.118a5.466,5.466,0,0,1-1.67.255,3.1,3.1,0,0,1-2.259-.721,2.954,2.954,0,0,1-.729-2.188v-4.72H28.847V49.49H30.06V47.126ZM38.875,59H35.9V49.49h2.971ZM35.729,47.038A1.322,1.322,0,0,1,36.186,46a1.943,1.943,0,0,1,2.373,0,1.405,1.405,0,0,1,0,2.074,1.943,1.943,0,0,1-2.373,0A1.322,1.322,0,0,1,35.729,47.038ZM41.389,59V51.547h-1.38V49.49h1.38v-.316a3.631,3.631,0,0,1,1.248-2.909,4.987,4.987,0,0,1,3.243-.949,11.509,11.509,0,0,1,3.094.51l-.4,2.338-.492-.132a7.832,7.832,0,0,0-2.021-.255q-1.7,0-1.7,1.547v.167h1.863v2.057H44.36V59Zm8.947,0H47.357V49.49h2.979Zm5.827-2.109a1.317,1.317,0,0,0,.967-.338,1.241,1.241,0,0,0,.334-.945h2.777a3.288,3.288,0,0,1-1.121,2.566,4.168,4.168,0,0,1-2.887,1,4.22,4.22,0,0,1-3.27-1.3,5.125,5.125,0,0,1-1.2-3.6v-.123A5.792,5.792,0,0,1,52.3,51.6a3.872,3.872,0,0,1,1.534-1.7,4.573,4.573,0,0,1,2.373-.593,4.116,4.116,0,0,1,2.944,1.028,3.647,3.647,0,0,1,1.09,2.786H57.464A1.626,1.626,0,0,0,57.1,52a1.244,1.244,0,0,0-.967-.4q-1.151,0-1.345,1.468a10.357,10.357,0,0,0-.062,1.283,4.068,4.068,0,0,0,.343,1.986A1.187,1.187,0,0,0,56.164,56.891ZM66.851,59a3.344,3.344,0,0,1-.281-.853,2.754,2.754,0,0,1-2.285,1.028A3.374,3.374,0,0,1,62,58.363a2.588,2.588,0,0,1-.94-2.043A2.66,2.66,0,0,1,62.2,53.981a5.821,5.821,0,0,1,3.322-.791h.914v-.5q0-1.316-1.134-1.316a.927.927,0,0,0-1.055,1.042H61.288a2.655,2.655,0,0,1,1.173-2.239,4.931,4.931,0,0,1,2.993-.86,4.323,4.323,0,0,1,2.874.888,3.086,3.086,0,0,1,1.081,2.435v4.21a4.311,4.311,0,0,0,.4,2V59ZM65,57.066a1.652,1.652,0,0,0,.918-.237,1.487,1.487,0,0,0,.523-.536V54.772h-.861q-1.547,0-1.547,1.389a.848.848,0,0,0,.272.655A.986.986,0,0,0,65,57.066Zm5.678-2.892a5.809,5.809,0,0,1,.976-3.56,3.211,3.211,0,0,1,2.725-1.3,2.731,2.731,0,0,1,2.145,1V45.5H79.49V59H76.827l-.149-1.02a2.8,2.8,0,0,1-2.32,1.2,3.205,3.205,0,0,1-2.689-1.3A5.993,5.993,0,0,1,70.674,54.175Zm2.962.185q0,2.531,1.477,2.531a1.458,1.458,0,0,0,1.406-.826V52.443A1.419,1.419,0,0,0,75.13,51.6q-1.371,0-1.485,2.215Zm7.163-.2a5.613,5.613,0,0,1,.554-2.536,3.96,3.96,0,0,1,1.591-1.709,4.791,4.791,0,0,1,2.435-.6,4.373,4.373,0,0,1,3.366,1.323,5.076,5.076,0,0,1,1.23,3.6v.105a4.925,4.925,0,0,1-1.235,3.529A4.384,4.384,0,0,1,85.4,59.176a4.434,4.434,0,0,1-3.261-1.217,4.761,4.761,0,0,1-1.327-3.3Zm2.962.185a3.538,3.538,0,0,0,.413,1.934,1.376,1.376,0,0,0,1.222.615q1.582,0,1.617-2.435v-.3q0-2.558-1.635-2.558-1.485,0-1.608,2.206Zm12.5,1.986a.684.684,0,0,0-.4-.606,6.016,6.016,0,0,0-1.5-.475,6.853,6.853,0,0,1-1.828-.646,3.062,3.062,0,0,1-1.1-.971,2.319,2.319,0,0,1-.378-1.31,2.628,2.628,0,0,1,1.081-2.158,4.453,4.453,0,0,1,2.83-.848,4.934,4.934,0,0,1,3.023.853,2.666,2.666,0,0,1,1.143,2.241H96.163q0-1.143-1.2-1.143a1.194,1.194,0,0,0-.782.259.8.8,0,0,0-.316.646.737.737,0,0,0,.387.642,3.654,3.654,0,0,0,1.235.4,10.671,10.671,0,0,1,1.49.378,2.706,2.706,0,0,1,2.145,2.646,2.491,2.491,0,0,1-1.156,2.118,5.068,5.068,0,0,1-2.993.817,5.172,5.172,0,0,1-2.18-.439,3.645,3.645,0,0,1-1.494-1.2,2.707,2.707,0,0,1-.536-1.591h2.769a1.145,1.145,0,0,0,.439.962,1.808,1.808,0,0,0,1.081.3,1.422,1.422,0,0,0,.91-.246A.787.787,0,0,0,96.259,56.328Z" transform="translate(750 1901)" fill="#373660"/>
          <g id="Enmascarar_grupo_195" data-name="Enmascarar grupo 195" clip-path="url(#clip-path)">
            <g id="carga-en-la-nube" transform="translate(673.355 1766.354)">
              <path id="Trazado_157127" data-name="Trazado 157127" d="M37.419,20H31.613V18.71h3.871a5.161,5.161,0,0,0,0-10.323,5.071,5.071,0,0,0-1.055.112,7.722,7.722,0,0,0-10.9-4.4,9.58,9.58,0,0,0-7.4-3.457A9.716,9.716,0,0,0,7,7.124a5.806,5.806,0,1,0-.55,11.586H7.1v5.161H2.581A1.938,1.938,0,0,0,.645,25.806v2.581a1.923,1.923,0,0,0,.5,1.29,1.923,1.923,0,0,0-.5,1.29v2.581a1.923,1.923,0,0,0,.5,1.29,1.923,1.923,0,0,0-.5,1.29V38.71a1.938,1.938,0,0,0,1.935,1.935H12.9a1.938,1.938,0,0,0,1.935-1.935V36.129a1.923,1.923,0,0,0-.5-1.29,1.92,1.92,0,0,0,.5-1.29V30.968a1.923,1.923,0,0,0-.5-1.29,1.92,1.92,0,0,0,.5-1.29V25.806A1.938,1.938,0,0,0,12.9,23.871H8.387V18.71H25.161V20H19.355a3.229,3.229,0,0,0-3.226,3.226V33.548a3.229,3.229,0,0,0,3.226,3.226h3.226v2.581H20v1.29H36.774v-1.29H34.194V36.774h3.226a3.229,3.229,0,0,0,3.226-3.226V23.226A3.229,3.229,0,0,0,37.419,20Zm-7.1-5.161v8.283l-.18-.541h-3.51l-.181.541V14.839H23.923l3.919-4.9a.719.719,0,0,1,1.089,0l3.921,4.9ZM13.548,38.71a.645.645,0,0,1-.645.645H2.581a.645.645,0,0,1-.645-.645V36.129a.645.645,0,0,1,.645-.645H12.9a.645.645,0,0,1,.645.645Zm0-5.161a.645.645,0,0,1-.645.645H2.581a.645.645,0,0,1-.645-.645V30.968a.645.645,0,0,1,.645-.645H12.9a.645.645,0,0,1,.645.645ZM12.9,25.161a.645.645,0,0,1,.645.645v2.581a.645.645,0,0,1-.645.645H2.581a.645.645,0,0,1-.645-.645V25.806a.645.645,0,0,1,.645-.645ZM6.452,17.419a4.516,4.516,0,1,1,.874-8.946l.581.114.163-.57a8.419,8.419,0,0,1,8.059-6.082,8.315,8.315,0,0,1,6.722,3.388l.354.475.5-.312a6.432,6.432,0,0,1,9.651,3.957l.168.693L34.2,9.9a3.869,3.869,0,1,1,1.283,7.519H31.613v-1.29h3.923l-5.6-7a1.988,1.988,0,0,0-3.1,0l-5.6,7h3.923v1.29ZM25.3,26.039l.3-.163a5.706,5.706,0,0,1,1.164-.479l.325-.094.477-1.432h1.651L29.69,25.3l.325.094a5.78,5.78,0,0,1,1.164.479l.3.163,1.348-.674,1.167,1.167-.674,1.348.163.3a5.706,5.706,0,0,1,.479,1.164l.094.325,1.431.477v1.47H32.848a4.471,4.471,0,0,0,.055-.645,4.516,4.516,0,1,0-9.032,0,4.471,4.471,0,0,0,.055.645H21.29v-1.47l1.432-.477.094-.325a5.78,5.78,0,0,1,.479-1.164l.163-.3-.674-1.348,1.167-1.167Zm3.087,2.993a1.938,1.938,0,0,0-1.935,1.935,1.914,1.914,0,0,0,.119.645H25.233a3.226,3.226,0,1,1,6.308,0H30.2a1.914,1.914,0,0,0,.119-.645A1.938,1.938,0,0,0,28.387,29.032Zm.645,1.935a.645.645,0,1,1-.645-.645A.645.645,0,0,1,29.032,30.968ZM17.419,23.226a1.938,1.938,0,0,1,1.935-1.935h5.806v3.237L23.7,23.8l-2.483,2.483.792,1.583a7.174,7.174,0,0,0-.325.79L20,29.212v2.4H17.419ZM32.9,39.355H23.871V36.774H32.9Zm6.452-5.806a1.938,1.938,0,0,1-1.935,1.935H19.355a1.938,1.938,0,0,1-1.935-1.935V32.9H39.355Zm0-1.935H36.774v-2.4l-1.681-.561a7.049,7.049,0,0,0-.325-.79l.792-1.583L33.077,23.8l-1.464.732V21.29h5.806a1.938,1.938,0,0,1,1.935,1.935Z" fill="#12263f"/>
              <path id="Trazado_157128" data-name="Trazado 157128" d="M8.387,26.452h1.29v1.29H8.387Z" fill="#12263f"/>
              <path id="Trazado_157129" data-name="Trazado 157129" d="M5.806,26.452H7.1v1.29H5.806Z" fill="#12263f"/>
              <path id="Trazado_157130" data-name="Trazado 157130" d="M3.226,26.452h1.29v1.29H3.226Z" fill="#12263f"/>
              <path id="Trazado_157131" data-name="Trazado 157131" d="M8.387,31.613h1.29V32.9H8.387Z" fill="#12263f"/>
              <path id="Trazado_157132" data-name="Trazado 157132" d="M10.968,31.613h1.29V32.9h-1.29Z" fill="#12263f"/>
              <path id="Trazado_157133" data-name="Trazado 157133" d="M5.806,31.613H7.1V32.9H5.806Z" fill="#12263f"/>
              <path id="Trazado_157134" data-name="Trazado 157134" d="M3.226,36.774h1.29v1.29H3.226Z" fill="#12263f"/>
              <path id="Trazado_157135" data-name="Trazado 157135" d="M8.387,36.774h1.29v1.29H8.387Z" fill="#12263f"/>
              <path id="Trazado_157136" data-name="Trazado 157136" d="M5.806,36.774H7.1v1.29H5.806Z" fill="#12263f"/>
              <path id="Trazado_157137" data-name="Trazado 157137" d="M9.174,8.9l1.265.257A5.811,5.811,0,0,1,18.452,5l.516-1.183a7.042,7.042,0,0,0-2.839-.591A7.116,7.116,0,0,0,9.174,8.9Z" fill="#12263f"/>
              <path id="Trazado_157138" data-name="Trazado 157138" d="M4.516,12.9H3.226a3.229,3.229,0,0,0,3.226,3.226h1.29v-1.29H6.452A1.938,1.938,0,0,1,4.516,12.9Z" fill="#12263f"/>
              <path id="Trazado_157139" data-name="Trazado 157139" d="M9.032,14.839h1.29v1.29H9.032Z" fill="#12263f"/>
            </g>
          </g>
          <g id="Enmascarar_grupo_197" data-name="Enmascarar grupo 197" clip-path="url(#clip-path-2)">
            <g id="seguridad-informatica" transform="translate(674 1984)">
              <path id="Trazado_157164" data-name="Trazado 157164" d="M39.333,28h-.667V7.333A3.337,3.337,0,0,0,35.333,4V3.333A3.337,3.337,0,0,0,32,0H12A3.337,3.337,0,0,0,8.667,3.333V4A3.337,3.337,0,0,0,5.333,7.333v8H6.667v-8a2,2,0,0,1,2-2v9.333H10V3.333a2,2,0,0,1,2-2H32a2,2,0,0,1,2,2V26h1.333V5.333a2,2,0,0,1,2,2V28H28a2.92,2.92,0,0,0-2.078.862,1.6,1.6,0,0,1-1.142.471H21.333v1.333H24.78a2.928,2.928,0,0,0,2.085-.862A1.6,1.6,0,0,1,28,29.333H38.667v1.333A1.335,1.335,0,0,1,37.333,32h-16v1.333h16A2.67,2.67,0,0,0,40,30.667v-2A.667.667,0,0,0,39.333,28Z" fill="#fff"/>
              <path id="Trazado_157165" data-name="Trazado 157165" d="M8.667,21.333H10V26H8.667Z" fill="#fff"/>
              <path id="Trazado_157166" data-name="Trazado 157166" d="M12,2.667h1.333V4H12Z" fill="#fff"/>
              <path id="Trazado_157167" data-name="Trazado 157167" d="M14.666,2.667H16V4H14.666Z" fill="#fff"/>
              <path id="Trazado_157168" data-name="Trazado 157168" d="M17.333,2.667h1.333V4H17.333Z" fill="#fff"/>
              <path id="Trazado_157169" data-name="Trazado 157169" d="M12,5.333H32V6.667H12Z" fill="#fff"/>
              <path id="Trazado_157170" data-name="Trazado 157170" d="M19.96,25.068c-.141-.036-.283-.077-.423-.122l-.408,1.27c.164.053.331.1.494.143a9.332,9.332,0,1,0-5.484-14.052,9.214,9.214,0,0,0-1.223,2.874l1.3.307a7.879,7.879,0,0,1,.86-2.153h2.062a17.031,17.031,0,0,0-.469,4c0,.462.019.928.055,1.386l1.329-.106c-.016-.2-.028-.408-.037-.614h3.319v4h-2v1.333h2V25.3a7.983,7.983,0,0,1-1.374-.236Zm7.325-1.734a8.031,8.031,0,0,1-1.517,1.054c.168-.341.323-.692.464-1.054ZM28.494,22H26.682a16.769,16.769,0,0,0,.637-4h2.653a7.859,7.859,0,0,1-1.479,4ZM20.2,9.539a7.961,7.961,0,0,1,1.132-.176V12H18.939A11.789,11.789,0,0,1,20.2,9.539Zm2.466-.176a7.972,7.972,0,0,1,1.132.176A11.786,11.786,0,0,1,25.061,12H22.667Zm2.822,3.97a15.509,15.509,0,0,1,.5,3.333H22.667V13.333Zm4.483,3.333H27.321a16.919,16.919,0,0,0-.457-3.333h2.062a7.923,7.923,0,0,1,1.045,3.333ZM27.96,12H26.477a14.318,14.318,0,0,0-.716-1.73,7.925,7.925,0,0,1,2.2,1.73Zm-9.721-1.73A14.33,14.33,0,0,0,17.523,12H16.04A7.924,7.924,0,0,1,18.238,10.27Zm-.224,6.4a15.5,15.5,0,0,1,.5-3.333h2.822v3.333ZM22.667,18h3.319a15.272,15.272,0,0,1-.7,4H22.667Zm2.121,5.333a11.118,11.118,0,0,1-.987,1.794,7.949,7.949,0,0,1-1.134.177v-1.97Z" fill="#fff"/>
              <path id="Trazado_157171" data-name="Trazado 157171" d="M18,27.347V24A8,8,0,0,0,2,24v3.347a2.245,2.245,0,0,0-2,2.228v8.183A2.244,2.244,0,0,0,2.242,40H17.758A2.244,2.244,0,0,0,20,37.758V29.575a2.245,2.245,0,0,0-2-2.228ZM10,17.333A6.674,6.674,0,0,1,16.667,24v3.333H15.333V24A5.333,5.333,0,0,0,4.667,24v3.333H3.333V24A6.674,6.674,0,0,1,10,17.333Zm4,10H6V24a4,4,0,0,1,8,0Zm4.667,10.425a.909.909,0,0,1-.908.908H2.242a.909.909,0,0,1-.908-.908V29.575a.909.909,0,0,1,.908-.908H17.758a.909.909,0,0,1,.908.908Z" fill="#fff"/>
              <path id="Trazado_157172" data-name="Trazado 157172" d="M10,31.333a2,2,0,0,0-.667,3.885v1.448h1.333V35.219A2,2,0,0,0,10,31.333ZM10,34a.667.667,0,1,1,.667-.667A.667.667,0,0,1,10,34Z" fill="#fff"/>
            </g>
          </g>
          <g id="Enmascarar_grupo_196" data-name="Enmascarar grupo 196" clip-path="url(#clip-path-3)">
            <g id="copia-de-seguridad" transform="translate(896 1767)">
              <path id="Trazado_157140" data-name="Trazado 157140" d="M39.355,12.9a7.1,7.1,0,0,1-5.05-2.092l-.945-.944a.644.644,0,0,0-.912,0l-.945.944a7.1,7.1,0,0,1-5.05,2.092.645.645,0,0,0-.645.645v5.291a10.3,10.3,0,0,0,2.685,6.944l3.935,4.328a.646.646,0,0,0,.955,0l3.935-4.328A10.3,10.3,0,0,0,40,18.839V13.548A.645.645,0,0,0,39.355,12.9Zm-.645,5.936a9.009,9.009,0,0,1-2.35,6.075l-3.457,3.8-3.457-3.8a9.01,9.01,0,0,1-2.35-6.075V14.17a8.368,8.368,0,0,0,5.318-2.446l.489-.489.489.488a8.368,8.368,0,0,0,5.318,2.446Zm0,0" fill="#fff"/>
              <path id="Trazado_157141" data-name="Trazado 157141" d="M30.968,18.064v.645h-.645a.645.645,0,0,0-.645.645v3.871a.645.645,0,0,0,.645.645h5.161a.645.645,0,0,0,.645-.645V19.355a.645.645,0,0,0-.645-.645h-.645v-.645a1.935,1.935,0,1,0-3.871,0Zm3.871,4.516H30.968V20h3.871Zm-1.29-4.516v.645h-1.29v-.645a.645.645,0,1,1,1.29,0Zm0,0" fill="#fff"/>
              <path id="Trazado_157142" data-name="Trazado 157142" d="M2.581,36.129H7.742v1.29H2.581Zm0,0" fill="#fff"/>
              <path id="Trazado_157143" data-name="Trazado 157143" d="M18.064,36.129h1.29v1.29h-1.29Zm0,0" fill="#fff"/>
              <path id="Trazado_157144" data-name="Trazado 157144" d="M15.484,36.129h1.29v1.29h-1.29Zm0,0" fill="#fff"/>
              <path id="Trazado_157145" data-name="Trazado 157145" d="M12.9,36.129h1.29v1.29H12.9Zm0,0" fill="#fff"/>
              <path id="Trazado_157146" data-name="Trazado 157146" d="M21.29,28.387H.645A.645.645,0,0,0,0,29.032V39.355A.645.645,0,0,0,.645,40H21.29a.645.645,0,0,0,.645-.645V29.032A.645.645,0,0,0,21.29,28.387Zm-20,1.29H20.645v3.871H1.29ZM20.645,38.71H1.29V34.839H20.645Zm0,0" fill="#fff"/>
              <path id="Trazado_157147" data-name="Trazado 157147" d="M2.581,30.968H7.742v1.29H2.581Zm0,0" fill="#fff"/>
              <path id="Trazado_157148" data-name="Trazado 157148" d="M18.064,30.968h1.29v1.29h-1.29Zm0,0" fill="#fff"/>
              <path id="Trazado_157149" data-name="Trazado 157149" d="M15.484,30.968h1.29v1.29h-1.29Zm0,0" fill="#fff"/>
              <path id="Trazado_157150" data-name="Trazado 157150" d="M12.9,30.968h1.29v1.29H12.9Zm0,0" fill="#fff"/>
              <path id="Trazado_157151" data-name="Trazado 157151" d="M2.581,7.742H7.742v1.29H2.581Zm0,0" fill="#fff"/>
              <path id="Trazado_157152" data-name="Trazado 157152" d="M18.064,7.742h1.29v1.29h-1.29Zm0,0" fill="#fff"/>
              <path id="Trazado_157153" data-name="Trazado 157153" d="M15.484,7.742h1.29v1.29h-1.29Zm0,0" fill="#fff"/>
              <path id="Trazado_157154" data-name="Trazado 157154" d="M12.9,7.742h1.29v1.29H12.9Zm0,0" fill="#fff"/>
              <path id="Trazado_157155" data-name="Trazado 157155" d="M21.29,0H.645A.645.645,0,0,0,0,.645V10.968a.645.645,0,0,0,.645.645H21.29a.645.645,0,0,0,.645-.645V.645A.645.645,0,0,0,21.29,0Zm-20,1.29H20.645V5.161H1.29Zm19.355,9.032H1.29V6.452H20.645Zm0,0" fill="#fff"/>
              <path id="Trazado_157156" data-name="Trazado 157156" d="M2.581,2.581H7.742v1.29H2.581Zm0,0" fill="#fff"/>
              <path id="Trazado_157157" data-name="Trazado 157157" d="M18.064,2.581h1.29v1.29h-1.29Zm0,0" fill="#fff"/>
              <path id="Trazado_157158" data-name="Trazado 157158" d="M15.484,2.581h1.29v1.29h-1.29Zm0,0" fill="#fff"/>
              <path id="Trazado_157159" data-name="Trazado 157159" d="M12.9,2.581h1.29v1.29H12.9Zm0,0" fill="#fff"/>
              <path id="Trazado_157160" data-name="Trazado 157160" d="M3.871,27.1H6.452a.645.645,0,0,0,.645-.645v-7.1H9.677a.646.646,0,0,0,.486-1.07L5.647,13.123a.667.667,0,0,0-.972,0L.159,18.284a.646.646,0,0,0,.486,1.07H3.226v7.1a.645.645,0,0,0,.645.645Zm-1.8-9.032,3.094-3.536,3.094,3.536h-1.8a.645.645,0,0,0-.645.645v7.1H4.516v-7.1a.645.645,0,0,0-.645-.645Zm0,0" fill="#fff"/>
              <path id="Trazado_157161" data-name="Trazado 157161" d="M18.064,12.9H15.484a.645.645,0,0,0-.645.645v7.1H12.258a.646.646,0,0,0-.486,1.07l4.516,5.161a.647.647,0,0,0,.972,0l4.516-5.161a.646.646,0,0,0-.486-1.07H18.71v-7.1A.645.645,0,0,0,18.064,12.9Zm1.8,9.032-3.094,3.536L13.68,21.935h1.8a.645.645,0,0,0,.645-.645v-7.1h1.29v7.1a.645.645,0,0,0,.645.645Zm0,0" fill="#fff"/>
              <path id="Trazado_157162" data-name="Trazado 157162" d="M32.258,8.387h1.29V1.935A.645.645,0,0,0,32.9,1.29H23.226v1.29h9.032Zm0,0" fill="#fff"/>
              <path id="Trazado_157163" data-name="Trazado 157163" d="M32.258,37.419H23.226v1.29H32.9a.645.645,0,0,0,.645-.645V31.613h-1.29Zm0,0" fill="#fff"/>
            </g>
          </g>
          <g id="Enmascarar_grupo_198" data-name="Enmascarar grupo 198" clip-path="url(#clip-path-4)">
            <g id="contrasena" transform="translate(894.577 1982.577)">
              <path id="Trazado_157173" data-name="Trazado 157173" d="M38.159,5.1H4.686A3.267,3.267,0,0,0,1.423,8.368V34.142a3.6,3.6,0,0,0,3.6,3.6h32.8a3.6,3.6,0,0,0,3.6-3.6V8.368A3.267,3.267,0,0,0,38.159,5.1Zm2.092,3.264v3.911H17.7l2.839-6H38.159a2.094,2.094,0,0,1,2.092,2.092ZM4.686,6.276H19.247l-2.84,6H2.594V8.368A2.094,2.094,0,0,1,4.686,6.276ZM37.824,36.569H5.021a2.429,2.429,0,0,1-2.427-2.427V13.45H40.251V34.142a2.429,2.429,0,0,1-2.427,2.427Z" fill="#12263f"/>
              <path id="Trazado_157174" data-name="Trazado 157174" d="M7.22,11.2A1.925,1.925,0,1,0,5.3,9.277,1.925,1.925,0,0,0,7.22,11.2Zm0-2.678a.753.753,0,1,1-.753.753.753.753,0,0,1,.753-.753Z" fill="#12263f"/>
              <path id="Trazado_157175" data-name="Trazado 157175" d="M12.594,11.2A1.925,1.925,0,1,0,10.67,9.277,1.925,1.925,0,0,0,12.594,11.2Zm0-2.678a.753.753,0,1,1-.753.753A.753.753,0,0,1,12.594,8.524Z" fill="#12263f"/>
              <path id="Trazado_157176" data-name="Trazado 157176" d="M22.6,9.863H37.579a.586.586,0,0,0,0-1.172H22.6a.586.586,0,0,0,0,1.172Z" fill="#12263f"/>
              <path id="Trazado_157177" data-name="Trazado 157177" d="M32.8,26.611H10.042a.586.586,0,0,0-.586.586v6.695a.586.586,0,0,0,.586.586H32.8a.586.586,0,0,0,.586-.586V27.2A.586.586,0,0,0,32.8,26.611Zm-.586,6.695H10.628V27.782h21.59Z" fill="#12263f"/>
              <path id="Trazado_157178" data-name="Trazado 157178" d="M13.088,31.791a.586.586,0,0,0,.814.153l.424-.289v.229a.586.586,0,1,0,1.172,0v-.229l.423.289a.586.586,0,1,0,.661-.967l-.631-.431.631-.432a.586.586,0,1,0-.661-.967l-.423.289v-.229a.586.586,0,0,0-1.172,0v.229l-.422-.289a.586.586,0,0,0-.661.967l.631.432-.631.431a.586.586,0,0,0-.155.814Z" fill="#12263f"/>
              <path id="Trazado_157179" data-name="Trazado 157179" d="M19.6,31.791a.586.586,0,0,0,.814.153l.422-.289v.229a.586.586,0,1,0,1.172,0v-.229l.422.289a.586.586,0,0,0,.661-.967l-.632-.431.632-.432a.586.586,0,0,0-.661-.967l-.422.289v-.229a.586.586,0,0,0-1.172,0v.229l-.422-.289a.586.586,0,1,0-.661.967l.632.432-.632.431A.586.586,0,0,0,19.6,31.791Z" fill="#12263f"/>
              <path id="Trazado_157180" data-name="Trazado 157180" d="M26.111,31.791a.586.586,0,0,0,.814.153l.422-.289v.229a.586.586,0,1,0,1.172,0v-.229l.422.289a.586.586,0,1,0,.661-.967l-.631-.431.631-.432a.586.586,0,1,0-.661-.967l-.422.289v-.229a.586.586,0,0,0-1.172,0v.229l-.423-.289a.586.586,0,0,0-.661.967l.631.432-.631.431A.586.586,0,0,0,26.111,31.791Z" fill="#12263f"/>
              <path id="Trazado_157181" data-name="Trazado 157181" d="M19.994,25.138h2.858a2.757,2.757,0,0,0,2.755-2.753v-2.4a.586.586,0,0,0-.586-.586H24.3v-.868a2.882,2.882,0,1,0-5.764,0V19.4h-.715a.586.586,0,0,0-.586.586v2.4a2.757,2.757,0,0,0,2.754,2.753Zm-.282-6.611a1.71,1.71,0,0,1,3.421,0V19.4H19.712Zm-1.3,2.04h6.025v1.818a1.584,1.584,0,0,1-1.584,1.582H19.994a1.584,1.584,0,0,1-1.584-1.581Z" fill="#12263f"/>
            </g>
          </g>
          <path id="Trazado_157122" data-name="Trazado 157122" d="M3557.353,949.161l-.089,13.374a3.26,3.26,0,1,1-6.52-.043l.089-13.4a7.928,7.928,0,1,1,6.521.073Z" transform="translate(-2753.88 924.226)" fill="#373660"/>
        </g>
      </g>
    </g>
  </g>
</svg>
