<svg xmlns="http://www.w3.org/2000/svg" xmlns:xlink="http://www.w3.org/1999/xlink" width="43" height="43" viewBox="0 0 43 43">
  <defs>
    <clipPath id="clip-path">
      <rect id="Rect치ngulo_36513" data-name="Rect치ngulo 36513" width="43" height="43" transform="translate(284 2422)" fill="#fff"/>
    </clipPath>
  </defs>
  <g id="Enmascarar_grupo_203" data-name="Enmascarar grupo 203" transform="translate(-284 -2422)" clip-path="url(#clip-path)">
    <g id="Layer_14" data-name="Layer 14" transform="translate(283.653 2421.307)">
      <rect id="Rect치ngulo_36519" data-name="Rect치ngulo 36519" width="26.355" height="23.581" rx="2.774" transform="translate(2.774 19.419)" fill="#f7d881"/>
      <path id="Trazado_157277" data-name="Trazado 157277" d="M42.306,27.048l-2.3-.513a9.4,9.4,0,0,1-6.027-4.342,9.4,9.4,0,0,1-6.027,4.342l-2.3.513a19.419,19.419,0,0,0,7.768,15.535l.555.416.555-.416A19.419,19.419,0,0,0,42.306,27.048Z" fill="#78b75b"/>
      <path id="Trazado_157278" data-name="Trazado 157278" d="M30.419,39.775c5.548-1.5,9.807-6.561,10.916-12.942l-1.325-.3a9.4,9.4,0,0,1-6.027-4.342,9.4,9.4,0,0,1-6.027,4.342l-2.3.513a19.419,19.419,0,0,0,4.758,12.727Z" fill="#96cc7f"/>
      <path id="Trazado_157279" data-name="Trazado 157279" d="M5.548,19.419H9.016V12.484a6.935,6.935,0,0,1,13.871,0v6.935h3.468a2.837,2.837,0,0,1,.694.1V12.484a11.1,11.1,0,1,0-22.194,0v7.033a2.837,2.837,0,0,1,.694-.1Z" fill="#c1c8d1"/>
      <path id="Trazado_157280" data-name="Trazado 157280" d="M1.387,24.968H9.71V37.452H1.387Z" fill="#f5b95b"/>
      <path id="Trazado_157281" data-name="Trazado 157281" d="M17.339,32.285v-5.93a1.387,1.387,0,0,0-2.774,0v5.93a2.774,2.774,0,1,0,2.774,0Z" fill="#c1c8d1"/>
      <circle id="Elipse_4917" data-name="Elipse 4917" cx="4.161" cy="4.161" r="4.161" transform="translate(29.823 28.435)" fill="#ebf7fe"/>
      <path id="Trazado_157282" data-name="Trazado 157282" d="M18.032,31.9V26.355a2.081,2.081,0,0,0-4.161,0V31.9a3.468,3.468,0,0,0,1.255,6.131,3.724,3.724,0,0,0,.825.111A3.468,3.468,0,0,0,18.032,31.9Zm-.791,4.39a2.081,2.081,0,1,1-2.33-3.419.694.694,0,0,0,.347-.6V26.355a.694.694,0,0,1,1.387,0v5.93a.694.694,0,0,0,.347.6,2.081,2.081,0,0,1,.25,3.419Z" fill="#12263f"/>
      <path id="Trazado_157283" data-name="Trazado 157283" d="M42.459,26.355l-2.3-.506a8.76,8.76,0,0,1-5.548-4.023.694.694,0,0,0-1.193,0,8.7,8.7,0,0,1-3.6,3.3V22.194a3.468,3.468,0,0,0-2.081-3.176V12.484a11.79,11.79,0,1,0-23.581,0v6.533a3.468,3.468,0,0,0-2.081,3.176v2.081H1.387a.694.694,0,0,0-.694.694V37.452a.694.694,0,0,0,.694.694h.694v2.081a3.468,3.468,0,0,0,3.468,3.468H26.355a3.468,3.468,0,0,0,3.468-3.468v-.09a20.168,20.168,0,0,0,3.19,3l.555.416a.694.694,0,0,0,.832,0l.555-.416A20.217,20.217,0,0,0,43,27.048a.694.694,0,0,0-.541-.694ZM5.548,12.484a10.4,10.4,0,1,1,20.806,0v6.242H23.581V12.484a7.629,7.629,0,0,0-15.258,0v6.242H5.548Zm16.645,6.242H9.71V12.484a6.242,6.242,0,1,1,12.484,0ZM9.016,25.661v2.774H2.081V25.661Zm-6.935,11.1V33.984H9.016v2.774ZM9.016,32.6H2.081V29.823H9.016Zm19.419,7.629a2.081,2.081,0,0,1-2.081,2.081H5.548a2.081,2.081,0,0,1-2.081-2.081V38.145H9.71a.694.694,0,0,0,.694-.694V24.968a.694.694,0,0,0-.694-.694H3.468V22.194a2.081,2.081,0,0,1,2.081-2.081H26.355a2.081,2.081,0,0,1,2.081,2.081v3.468c-.208.062-.416.125-.631.173l-2.3.52a.694.694,0,0,0-.541.694,20.21,20.21,0,0,0,3.468,11.263Zm5.687,1.8-.139.1-.139-.1A18.83,18.83,0,0,1,26.355,27.6l1.741-.388a10.147,10.147,0,0,0,5.888-3.78,10.147,10.147,0,0,0,5.881,3.78l1.748.388a18.83,18.83,0,0,1-7.49,14.426Z" fill="#12263f"/>
      <path id="Trazado_157284" data-name="Trazado 157284" d="M38.069,28.054l-1.235-.624-.472.936a4.917,4.917,0,1,0,1.089.874ZM37.452,32.6a3.5,3.5,0,1,1-1.713-2.975l-1.873,3.745-1.387-1.88-1.11.832,2.081,2.774a.694.694,0,0,0,.555.277h.062a.694.694,0,0,0,.555-.381l2.2-4.4a3.412,3.412,0,0,1,.631,2Z" fill="#12263f"/>
    </g>
  </g>
</svg>
