<svg xmlns="http://www.w3.org/2000/svg" xmlns:xlink="http://www.w3.org/1999/xlink" width="43" height="43" viewBox="0 0 43 43">
  <defs>
    <clipPath id="clip-path">
      <rect id="Rectángulo_36514" data-name="Rectángulo 36514" width="43" height="43" transform="translate(531.5 2422)" fill="#fff"/>
    </clipPath>
  </defs>
  <g id="Enmascarar_grupo_201" data-name="Enmascarar grupo 201" transform="translate(-531.5 -2422)" clip-path="url(#clip-path)">
    <g id="copia-de-seguridad_1_" data-name="copia-de-seguridad (1)" transform="translate(531.5 2422)">
      <path id="Trazado_157209" data-name="Trazado 157209" d="M35.371,11.1l-1.015,1.015a8.373,8.373,0,0,1-5.92,2.452v5.688a10.4,10.4,0,0,0,2.705,7l4.23,4.653L39.6,27.25a10.4,10.4,0,0,0,2.705-7V14.564a8.373,8.373,0,0,1-5.92-2.452Zm0,0" fill="#835712"/>
      <path id="Trazado_157210" data-name="Trazado 157210" d="M28.435,14.564v5.688a10.4,10.4,0,0,0,2.705,7l3.19,3.509,3.19-3.509a10.4,10.4,0,0,0,2.705-7V14.564a8.372,8.372,0,0,1-5.9-2.429A8.372,8.372,0,0,1,28.435,14.564Zm0,0" fill="#ae7418"/>
      <path id="Trazado_157211" data-name="Trazado 157211" d="M32.6,20.806h5.548v4.161H32.6Zm0,0" fill="#007f76"/>
      <path id="Trazado_157212" data-name="Trazado 157212" d="M32.6,20.806h3.468v4.161H32.6Zm0,0" fill="#00a99d"/>
      <path id="Trazado_157213" data-name="Trazado 157213" d="M4.161,28.435V20.113H.694l4.855-5.548L10.4,20.113H6.935v8.323Zm0,0" fill="#1f80aa"/>
      <path id="Trazado_157214" data-name="Trazado 157214" d="M.694,20.113H4.161v8.323H5.548V20.113H9.016L4.855,15.357Zm0,0" fill="#29abe2"/>
      <path id="Trazado_157215" data-name="Trazado 157215" d="M19.419,14.564v8.323h3.468l-4.855,5.548-4.855-5.548h3.468V14.564Zm0,0" fill="#1f80aa"/>
      <path id="Trazado_157216" data-name="Trazado 157216" d="M21.5,22.887H18.032V14.564H16.645v8.323H13.177l4.161,4.756Zm0,0" fill="#29abe2"/>
      <path id="Trazado_157217" data-name="Trazado 157217" d="M.694.694H22.887V6.242H.694Zm0,0" fill="#736357"/>
      <path id="Trazado_157218" data-name="Trazado 157218" d="M.694.694H20.806V6.242H.694Zm0,0" fill="#998675"/>
      <path id="Trazado_157219" data-name="Trazado 157219" d="M.694,6.242H22.887V11.79H.694Zm0,0" fill="#534741"/>
      <path id="Trazado_157220" data-name="Trazado 157220" d="M.694,6.242H22.887V11.79H.694Zm0,0" fill="#534741"/>
      <path id="Trazado_157221" data-name="Trazado 157221" d="M.694,6.242H20.806V11.79H.694Zm0,0" fill="#736357"/>
      <path id="Trazado_157222" data-name="Trazado 157222" d="M.694,31.21H22.887v5.548H.694Zm0,0" fill="#736357"/>
      <path id="Trazado_157223" data-name="Trazado 157223" d="M.694,31.21H20.806v5.548H.694Zm0,0" fill="#998675"/>
      <path id="Trazado_157224" data-name="Trazado 157224" d="M.694,36.758H22.887v5.548H.694Zm0,0" fill="#534741"/>
      <path id="Trazado_157225" data-name="Trazado 157225" d="M.694,36.758H20.806v5.548H.694Zm0,0" fill="#736357"/>
      <path id="Trazado_157226" data-name="Trazado 157226" d="M22.887,43H.694A.693.693,0,0,1,0,42.306V36.758a.693.693,0,0,1,.694-.694H22.887a.693.693,0,0,1,.694.694v5.548A.693.693,0,0,1,22.887,43Zm-21.5-1.387H22.193V37.451H1.387Zm0,0" fill="#12263f"/>
      <path id="Trazado_157227" data-name="Trazado 157227" d="M35.371,32.6a.694.694,0,0,1-.513-.227l-4.23-4.653a11.075,11.075,0,0,1-2.886-7.464V14.564a.693.693,0,0,1,.694-.694,7.628,7.628,0,0,0,5.429-2.249l1.016-1.015a.693.693,0,0,1,.981,0l1.016,1.015a7.628,7.628,0,0,0,5.429,2.249.693.693,0,0,1,.694.694v5.688a11.074,11.074,0,0,1-2.886,7.464l-4.23,4.653A.694.694,0,0,1,35.371,32.6ZM29.129,15.232v5.02a9.684,9.684,0,0,0,2.526,6.531l3.716,4.089,3.716-4.088a9.686,9.686,0,0,0,2.526-6.531v-5.02A9,9,0,0,1,35.9,12.6l-.526-.526-.526.525a8.992,8.992,0,0,1-5.716,2.629Zm0,0" fill="#12263f"/>
      <path id="Trazado_157228" data-name="Trazado 157228" d="M38.145,25.661H32.6a.693.693,0,0,1-.694-.694V20.806a.693.693,0,0,1,.694-.694h5.548a.693.693,0,0,1,.694.694v4.161A.693.693,0,0,1,38.145,25.661ZM33.29,24.274h4.161V21.5H33.29Zm0,0" fill="#12263f"/>
      <path id="Trazado_157229" data-name="Trazado 157229" d="M37.451,20.806H36.064V19.419a.694.694,0,1,0-1.387,0v1.387H33.29V19.419a2.081,2.081,0,1,1,4.161,0Zm0,0" fill="#12263f"/>
      <path id="Trazado_157230" data-name="Trazado 157230" d="M2.774,38.839H8.323v1.387H2.774Zm0,0" fill="#12263f"/>
      <path id="Trazado_157231" data-name="Trazado 157231" d="M19.419,38.839h1.387v1.387H19.419Zm0,0" fill="#12263f"/>
      <path id="Trazado_157232" data-name="Trazado 157232" d="M16.645,38.839h1.387v1.387H16.645Zm0,0" fill="#12263f"/>
      <path id="Trazado_157233" data-name="Trazado 157233" d="M13.871,38.839h1.387v1.387H13.871Zm0,0" fill="#12263f"/>
      <path id="Trazado_157234" data-name="Trazado 157234" d="M22.887,37.451H.694A.693.693,0,0,1,0,36.758V31.21a.693.693,0,0,1,.694-.694H22.887a.693.693,0,0,1,.694.694v5.548A.693.693,0,0,1,22.887,37.451Zm-21.5-1.387H22.193V31.9H1.387Zm0,0" fill="#12263f"/>
      <path id="Trazado_157235" data-name="Trazado 157235" d="M2.774,33.29H8.323v1.387H2.774Zm0,0" fill="#12263f"/>
      <path id="Trazado_157236" data-name="Trazado 157236" d="M19.419,33.29h1.387v1.387H19.419Zm0,0" fill="#12263f"/>
      <path id="Trazado_157237" data-name="Trazado 157237" d="M16.645,33.29h1.387v1.387H16.645Zm0,0" fill="#12263f"/>
      <path id="Trazado_157238" data-name="Trazado 157238" d="M13.871,33.29h1.387v1.387H13.871Zm0,0" fill="#12263f"/>
      <path id="Trazado_157239" data-name="Trazado 157239" d="M22.887,12.484H.694A.693.693,0,0,1,0,11.79V6.242a.693.693,0,0,1,.694-.694H22.887a.693.693,0,0,1,.694.694V11.79A.693.693,0,0,1,22.887,12.484ZM1.387,11.1H22.193V6.935H1.387Zm0,0" fill="#12263f"/>
      <path id="Trazado_157240" data-name="Trazado 157240" d="M2.774,8.323H8.323V9.71H2.774Zm0,0" fill="#12263f"/>
      <path id="Trazado_157241" data-name="Trazado 157241" d="M19.419,8.323h1.387V9.71H19.419Zm0,0" fill="#12263f"/>
      <path id="Trazado_157242" data-name="Trazado 157242" d="M16.645,8.323h1.387V9.71H16.645Zm0,0" fill="#12263f"/>
      <path id="Trazado_157243" data-name="Trazado 157243" d="M13.871,8.323h1.387V9.71H13.871Zm0,0" fill="#12263f"/>
      <path id="Trazado_157244" data-name="Trazado 157244" d="M22.887,6.935H.694A.693.693,0,0,1,0,6.242V.694A.693.693,0,0,1,.694,0H22.887a.693.693,0,0,1,.694.694V6.242A.693.693,0,0,1,22.887,6.935ZM1.387,5.548H22.193V1.387H1.387Zm0,0" fill="#12263f"/>
      <path id="Trazado_157245" data-name="Trazado 157245" d="M2.774,2.774H8.323V4.161H2.774Zm0,0" fill="#12263f"/>
      <path id="Trazado_157246" data-name="Trazado 157246" d="M19.419,2.774h1.387V4.161H19.419Zm0,0" fill="#12263f"/>
      <path id="Trazado_157247" data-name="Trazado 157247" d="M16.645,2.774h1.387V4.161H16.645Zm0,0" fill="#12263f"/>
      <path id="Trazado_157248" data-name="Trazado 157248" d="M13.871,2.774h1.387V4.161H13.871Zm0,0" fill="#12263f"/>
      <path id="Trazado_157249" data-name="Trazado 157249" d="M6.935,29.129H4.161a.693.693,0,0,1-.694-.694V20.806H.694a.694.694,0,0,1-.522-1.151l4.855-5.548a.717.717,0,0,1,1.044,0l4.855,5.548a.694.694,0,0,1-.522,1.151H7.629v7.629a.693.693,0,0,1-.694.694ZM4.855,27.742H6.242V20.113a.693.693,0,0,1,.694-.694H8.875l-3.326-3.8-3.326,3.8H4.161a.693.693,0,0,1,.694.694Zm0,0" fill="#12263f"/>
      <path id="Trazado_157250" data-name="Trazado 157250" d="M18.032,29.129a.7.7,0,0,1-.522-.236l-4.855-5.548a.694.694,0,0,1,.522-1.151h2.774V14.564a.693.693,0,0,1,.694-.694h2.774a.693.693,0,0,1,.694.694v7.629h2.774a.694.694,0,0,1,.522,1.151l-4.855,5.548A.7.7,0,0,1,18.032,29.129Zm-3.326-5.548,3.326,3.8,3.326-3.8H19.419a.693.693,0,0,1-.694-.694V15.258H17.339v7.629a.693.693,0,0,1-.694.694Zm0,0" fill="#12263f"/>
      <path id="Trazado_157251" data-name="Trazado 157251" d="M36.064,9.016H34.677V2.774h-9.71V1.387h10.4a.693.693,0,0,1,.694.694Zm0,0" fill="#12263f"/>
      <path id="Trazado_157252" data-name="Trazado 157252" d="M35.371,41.613h-10.4V40.226h9.71V33.984h1.387v6.935A.693.693,0,0,1,35.371,41.613Zm0,0" fill="#12263f"/>
    </g>
  </g>
</svg>
