<svg xmlns="http://www.w3.org/2000/svg" xmlns:xlink="http://www.w3.org/1999/xlink" width="43" height="43" viewBox="0 0 43 43">
  <defs>
    <clipPath id="clip-path">
      <rect id="Rect치ngulo_36515" data-name="Rect치ngulo 36515" width="43" height="43" transform="translate(780 2422)" fill="#fff"/>
    </clipPath>
  </defs>
  <g id="Enmascarar_grupo_199" data-name="Enmascarar grupo 199" transform="translate(-780 -2422)" clip-path="url(#clip-path)">
    <g id="contrasena_1_" data-name="contrasena (1)" transform="translate(778.471 2420.471)">
      <g id="Grupo_110739" data-name="Grupo 110739">
        <g id="Grupo_110738" data-name="Grupo 110738">
          <path id="Trazado_157182" data-name="Trazado 157182" d="M5.038,6.117H41.021A2.879,2.879,0,0,1,43.9,9V36.7a3.238,3.238,0,0,1-3.238,3.238H5.4A3.238,3.238,0,0,1,2.159,36.7V9A2.879,2.879,0,0,1,5.038,6.117Z" fill="#e1f7ff"/>
          <path id="Trazado_157183" data-name="Trazado 157183" d="M41.021,6.117H5.038A2.879,2.879,0,0,0,2.159,9v4.834H43.9V9A2.879,2.879,0,0,0,41.021,6.117Z" fill="#0081d0"/>
          <circle id="Elipse_4915" data-name="Elipse 4915" cx="1.439" cy="1.439" r="1.439" transform="translate(6.322 8.534)" fill="#f37249"/>
          <circle id="Elipse_4916" data-name="Elipse 4916" cx="1.439" cy="1.439" r="1.439" transform="translate(12.1 8.534)" fill="#ffcc5b"/>
          <path id="Trazado_157184" data-name="Trazado 157184" d="M43.9,9a2.879,2.879,0,0,0-2.879-2.879H21.684l-3.648,7.712H43.9Z" fill="#a4def7"/>
        </g>
        <rect id="Rect치ngulo_36518" data-name="Rect치ngulo 36518" width="24.469" height="7.197" transform="translate(10.795 29.237)" fill="#a4def7"/>
        <path id="Trazado_157185" data-name="Trazado 157185" d="M19.163,21.48H26.9v2.584a2.331,2.331,0,0,1-2.331,2.331H21.493a2.331,2.331,0,0,1-2.331-2.331V21.48Z" fill="#0081d0"/>
      </g>
      <path id="Trazado_157186" data-name="Trazado 157186" d="M1.529,36.7V9A3.512,3.512,0,0,1,5.038,5.487H17.984a.63.63,0,1,1,0,1.259H5.038A2.251,2.251,0,0,0,2.789,9v4.2H17.638l3.477-7.352c.006-.013.015-.023.022-.036s.023-.041.036-.06a.53.53,0,0,1,.038-.046.546.546,0,0,1,.042-.045.591.591,0,0,1,.047-.039.6.6,0,0,1,.05-.036.559.559,0,0,1,.05-.027.591.591,0,0,1,.059-.028c.018-.007.036-.011.054-.017a.451.451,0,0,1,.127-.022c.015,0,.03,0,.046,0h.8a.63.63,0,1,1,0,1.259h-.4L19.031,13.2H37.6a.63.63,0,1,1,0,1.259H2.789V36.7A2.612,2.612,0,0,0,5.4,39.312h5.4a.63.63,0,1,1,0,1.259H5.4A3.873,3.873,0,0,1,1.529,36.7Zm12.01,2.609a.63.63,0,1,0,0,1.259h.54a.63.63,0,1,0,0-1.259ZM41.021,5.487H25.656a.63.63,0,1,0,0,1.259H41.021A2.251,2.251,0,0,1,43.27,9V36.7a2.612,2.612,0,0,1-2.609,2.609H17.387a.63.63,0,1,0,0,1.259H40.661A3.873,3.873,0,0,0,44.529,36.7V9a3.512,3.512,0,0,0-3.508-3.508Zm-1.253,8.342a.63.63,0,0,0,.63.63H41A.63.63,0,0,0,41,13.2h-.6A.63.63,0,0,0,39.768,13.829ZM7.762,7.9A2.069,2.069,0,1,1,5.693,9.973,2.069,2.069,0,0,1,7.762,7.9Zm0,1.259a.81.81,0,1,0,.81.81A.81.81,0,0,0,7.762,9.163Zm5.778,1.619a.81.81,0,0,1-.81-.81.63.63,0,1,0-1.259,0A2.069,2.069,0,1,0,13.539,7.9a.63.63,0,1,0,0,1.259.81.81,0,0,1,0,1.619ZM40.4,9.343H24.3a.63.63,0,0,0,0,1.259H40.4a.63.63,0,1,0,0-1.259Zm-5.134,25.2a.63.63,0,0,0,.63-.63V29.236a.63.63,0,0,0-.63-.63H10.795a.63.63,0,0,0-.63.63v7.2a.63.63,0,0,0,.63.63H35.264a.63.63,0,1,0,0-1.259H11.425V29.866H34.634v4.048a.63.63,0,0,0,.63.63ZM17.989,31.5a.63.63,0,0,0-.875-.164l-.454.311V31.4a.63.63,0,0,0-1.259,0v.246l-.454-.311a.63.63,0,0,0-.711,1.04l.679.464-.679.464a.63.63,0,0,0,.711,1.04l.454-.311v.246a.63.63,0,1,0,1.259,0v-.246l.454.311a.63.63,0,0,0,.711-1.04l-.679-.464.679-.464a.63.63,0,0,0,.164-.875Zm7,0a.63.63,0,0,0-.875-.164l-.454.311V31.4a.63.63,0,0,0-1.259,0v.246l-.454-.311a.63.63,0,1,0-.711,1.04l.679.464-.679.464a.63.63,0,1,0,.711,1.04l.454-.311v.246a.63.63,0,1,0,1.259,0v-.246l.454.311a.63.63,0,0,0,.711-1.04l-.679-.464.679-.464a.63.63,0,0,0,.165-.875Zm7,0a.63.63,0,0,0-.875-.164l-.454.311V31.4a.63.63,0,0,0-1.259,0v.246l-.454-.311a.63.63,0,1,0-.711,1.04l.679.464-.679.464a.63.63,0,1,0,.711,1.04l.454-.311v.246a.63.63,0,1,0,1.259,0v-.246l.454.311a.63.63,0,0,0,.711-1.04l-.679-.464.679-.464a.63.63,0,0,0,.166-.875ZM21.192,19.917v.933h5.7a.63.63,0,0,1,.63.63v2.584a2.964,2.964,0,0,1-2.96,2.96H21.493a2.964,2.964,0,0,1-2.962-2.96V21.48a.63.63,0,0,1,.63-.63h.77v-.933a3.1,3.1,0,0,1,5.406-2.069.63.63,0,1,1-.938.841,1.839,1.839,0,0,0-3.209,1.227Zm5.075,2.193H19.791v1.954a1.7,1.7,0,0,0,1.7,1.7h3.072a1.7,1.7,0,0,0,1.7-1.7Z" fill="#12263f"/>
    </g>
  </g>
</svg>
