<svg xmlns="http://www.w3.org/2000/svg" xmlns:xlink="http://www.w3.org/1999/xlink" width="43" height="43" viewBox="0 0 43 43">
  <defs>
    <clipPath id="clip-path">
      <rect id="Rectángulo_36516" data-name="Rectángulo 36516" width="43" height="43" transform="translate(1029 2422)" fill="#fff"/>
    </clipPath>
  </defs>
  <g id="Enmascarar_grupo_202" data-name="Enmascarar grupo 202" transform="translate(-1029 -2422)" clip-path="url(#clip-path)">
    <g id="carga-en-la-nube_1_" data-name="carga-en-la-nube (1)" transform="translate(1028.306 2421.307)">
      <g id="Grupo_110751" data-name="Grupo 110751">
        <g id="Grupo_110740" data-name="Grupo 110740">
          <path id="Trazado_157253" data-name="Trazado 157253" d="M24.968,38.839h11.1V43h-11.1Z" fill="#aab2bd"/>
        </g>
        <g id="Grupo_110741" data-name="Grupo 110741">
          <path id="Trazado_157254" data-name="Trazado 157254" d="M43,34.677v1.387a2.773,2.773,0,0,1-2.774,2.774H20.806a2.773,2.773,0,0,1-2.774-2.774V34.677H43Z" fill="#ccd1d9"/>
        </g>
        <g id="Grupo_110742" data-name="Grupo 110742">
          <path id="Trazado_157255" data-name="Trazado 157255" d="M43,24.968v9.71H38.839V31.9l-1.671-.555a6.836,6.836,0,0,0-.569-1.394l.784-1.567L35.42,26.424l-1.567.784q-.27-.146-.562-.27V22.194h6.935A2.773,2.773,0,0,1,43,24.968Z" fill="#69d6f4"/>
        </g>
        <g id="Grupo_110743" data-name="Grupo 110743">
          <path id="Trazado_157256" data-name="Trazado 157256" d="M27.742,22.194v4.744q-.291.125-.562.27l-1.567-.784L23.65,28.387l.784,1.567a6.836,6.836,0,0,0-.569,1.394l-1.671.555v2.774H18.032v-9.71a2.773,2.773,0,0,1,2.774-2.774Z" fill="#69d6f4"/>
        </g>
        <g id="Grupo_110744" data-name="Grupo 110744">
          <path id="Trazado_157257" data-name="Trazado 157257" d="M15.258,33.29v2.774a1.391,1.391,0,0,1-1.387,1.387H2.774a1.391,1.391,0,0,1-1.387-1.387V33.29A1.391,1.391,0,0,1,2.774,31.9h11.1A1.391,1.391,0,0,1,15.258,33.29Z" fill="#fcd770"/>
        </g>
        <g id="Grupo_110745" data-name="Grupo 110745">
          <path id="Trazado_157258" data-name="Trazado 157258" d="M1.387,41.613V38.839a1.391,1.391,0,0,1,1.387-1.387h11.1a1.391,1.391,0,0,1,1.387,1.387v2.774A1.391,1.391,0,0,1,13.871,43H2.774A1.391,1.391,0,0,1,1.387,41.613Z" fill="#fcd770"/>
        </g>
        <g id="Grupo_110746" data-name="Grupo 110746">
          <path id="Trazado_157259" data-name="Trazado 157259" d="M1.387,30.516V27.742a1.391,1.391,0,0,1,1.387-1.387h11.1a1.391,1.391,0,0,1,1.387,1.387v2.774A1.391,1.391,0,0,1,13.871,31.9H2.774A1.391,1.391,0,0,1,1.387,30.516Z" fill="#fcd770"/>
        </g>
        <g id="Grupo_110747" data-name="Grupo 110747">
          <path id="Trazado_157260" data-name="Trazado 157260" d="M38.145,9.71a4.962,4.962,0,0,0-1.609.277A7.614,7.614,0,0,0,25.12,5.306,9.694,9.694,0,0,0,8.01,8.427a5.486,5.486,0,0,0-1.075-.1,5.548,5.548,0,0,0,0,11.1h31.21a4.855,4.855,0,1,0,0-9.71Z" fill="#e6e9ed"/>
        </g>
        <g id="Grupo_110748" data-name="Grupo 110748">
          <path id="Trazado_157261" data-name="Trazado 157261" d="M31.9,24.968H29.129l-.555,1.671a6.987,6.987,0,0,0-.832.3V16.645H24.274l5.118-6.395a1.437,1.437,0,0,1,2.247,0l5.118,6.395H33.29V26.937a6.987,6.987,0,0,0-.832-.3Z" fill="#ff826e"/>
        </g>
        <g id="Grupo_110749" data-name="Grupo 110749">
          <path id="Trazado_157262" data-name="Trazado 157262" d="M38.839,31.9v2.774h-4.4a4.161,4.161,0,1,0-7.851,0h-4.4V31.9l1.671-.555a6.836,6.836,0,0,1,.569-1.394l-.784-1.567,1.963-1.963,1.567.784q.27-.146.562-.27a6.987,6.987,0,0,1,.832-.3l.555-1.671H31.9l.555,1.671a6.987,6.987,0,0,1,.832.3q.291.125.562.27l1.567-.784,1.963,1.963L36.6,29.954a6.836,6.836,0,0,1,.569,1.394Z" fill="#ffc729"/>
        </g>
        <g id="Grupo_110750" data-name="Grupo 110750">
          <path id="Trazado_157263" data-name="Trazado 157263" d="M34.442,34.677H30.516a1.387,1.387,0,1,0-1.387-1.387,1.391,1.391,0,0,0,1.387,1.387H26.591a4.161,4.161,0,1,1,7.851,0Z" fill="#fcd770"/>
        </g>
      </g>
      <g id="Grupo_110752" data-name="Grupo 110752">
        <path id="Trazado_157264" data-name="Trazado 157264" d="M40.226,21.5H33.984V20.113h4.161a5.548,5.548,0,0,0,0-11.1,5.451,5.451,0,0,0-1.135.12A8.3,8.3,0,0,0,25.3,4.41,10.3,10.3,0,0,0,17.339.694,10.445,10.445,0,0,0,7.527,7.658a6.241,6.241,0,1,0-.592,12.455h.694v5.548H2.774A2.083,2.083,0,0,0,.694,27.742v2.774A2.067,2.067,0,0,0,1.235,31.9,2.067,2.067,0,0,0,.694,33.29v2.774a2.067,2.067,0,0,0,.541,1.387,2.067,2.067,0,0,0-.541,1.387v2.774a2.083,2.083,0,0,0,2.081,2.081h11.1a2.083,2.083,0,0,0,2.081-2.081V38.839a2.067,2.067,0,0,0-.541-1.387,2.064,2.064,0,0,0,.541-1.387V33.29a2.067,2.067,0,0,0-.541-1.387,2.064,2.064,0,0,0,.541-1.387V27.742a2.083,2.083,0,0,0-2.081-2.081H9.016V20.113H27.048V21.5H20.806a3.472,3.472,0,0,0-3.468,3.468v11.1a3.472,3.472,0,0,0,3.468,3.468h3.468v2.774H21.5v1.387H39.532V42.306H36.758V39.532h3.468a3.472,3.472,0,0,0,3.468-3.468v-11.1A3.472,3.472,0,0,0,40.226,21.5ZM14.565,33.29v2.774a.694.694,0,0,1-.694.694H2.774a.694.694,0,0,1-.694-.694V33.29a.694.694,0,0,1,.694-.694h11.1A.694.694,0,0,1,14.565,33.29Zm0,8.323a.694.694,0,0,1-.694.694H2.774a.694.694,0,0,1-.694-.694V38.839a.694.694,0,0,1,.694-.694h11.1a.694.694,0,0,1,.694.694Zm0-13.871v2.774a.694.694,0,0,1-.694.694H2.774a.694.694,0,0,1-.694-.694V27.742a.694.694,0,0,1,.694-.694h11.1A.694.694,0,0,1,14.565,27.742Zm25.661-4.855a2.083,2.083,0,0,1,2.081,2.081v9.016H39.532V31.4l-1.807-.6a7.578,7.578,0,0,0-.35-.85l.851-1.7L35.558,25.58l-1.574.787v-3.48Zm-10.4,10.4a.694.694,0,1,1,.694.694A.694.694,0,0,1,29.823,33.29Zm.694-2.081a2.083,2.083,0,0,0-2.081,2.081,2.057,2.057,0,0,0,.128.694H27.125a3.468,3.468,0,1,1,6.782,0H32.469a2.057,2.057,0,0,0,.128-.694A2.083,2.083,0,0,0,30.516,31.21Zm0-2.774a4.861,4.861,0,0,0-4.855,4.855,4.807,4.807,0,0,0,.059.694H22.887V32.4l1.539-.513.1-.349a6.214,6.214,0,0,1,.515-1.251l.175-.319-.724-1.449,1.255-1.255,1.449.724.319-.175a6.134,6.134,0,0,1,1.251-.515l.349-.1.513-1.539H31.4l.513,1.539.349.1a6.214,6.214,0,0,1,1.251.515l.319.175,1.449-.724,1.255,1.255-.724,1.449.175.319a6.134,6.134,0,0,1,.515,1.251l.1.349,1.538.513v1.581H35.312a4.807,4.807,0,0,0,.059-.694,4.861,4.861,0,0,0-4.855-4.855ZM32.6,15.952v8.9l-.194-.581H28.63l-.194.581v-8.9H25.717l4.213-5.267a.772.772,0,0,1,1.171,0l4.215,5.267ZM6.935,18.726a4.854,4.854,0,1,1,.94-9.617l.625.122.175-.612a9.05,9.05,0,0,1,8.663-6.538,8.938,8.938,0,0,1,7.226,3.642l.381.51.541-.335a6.915,6.915,0,0,1,10.375,4.254l.181.745.723-.255a4.16,4.16,0,1,1,1.379,8.083H33.984V17.339H38.2L32.184,9.817a2.137,2.137,0,0,0-3.337,0l-6.016,7.521h4.217v1.387Zm13.871,4.161h6.242v3.48l-1.574-.786L22.806,28.25l.851,1.7a7.711,7.711,0,0,0-.35.85l-1.807.6v2.581H18.726V24.968A2.083,2.083,0,0,1,20.806,22.887ZM35.371,42.306h-9.71V39.532h9.71Zm4.855-4.161H20.806a2.083,2.083,0,0,1-2.081-2.081v-.694H42.306v.694A2.083,2.083,0,0,1,40.226,38.145Z" fill="#12263f"/>
        <path id="Trazado_157265" data-name="Trazado 157265" d="M6.242,28.435H7.629v1.387H6.242Z" fill="#12263f"/>
        <path id="Trazado_157266" data-name="Trazado 157266" d="M9.016,28.435H10.4v1.387H9.016Z" fill="#12263f"/>
        <path id="Trazado_157267" data-name="Trazado 157267" d="M3.468,28.435H4.855v1.387H3.468Z" fill="#12263f"/>
        <path id="Trazado_157268" data-name="Trazado 157268" d="M6.242,33.984H7.629v1.387H6.242Z" fill="#12263f"/>
        <path id="Trazado_157269" data-name="Trazado 157269" d="M11.79,33.984h1.387v1.387H11.79Z" fill="#12263f"/>
        <path id="Trazado_157270" data-name="Trazado 157270" d="M9.016,33.984H10.4v1.387H9.016Z" fill="#12263f"/>
        <path id="Trazado_157271" data-name="Trazado 157271" d="M6.242,39.532H7.629v1.387H6.242Z" fill="#12263f"/>
        <path id="Trazado_157272" data-name="Trazado 157272" d="M9.016,39.532H10.4v1.387H9.016Z" fill="#12263f"/>
        <path id="Trazado_157273" data-name="Trazado 157273" d="M3.468,39.532H4.855v1.387H3.468Z" fill="#12263f"/>
        <path id="Trazado_157274" data-name="Trazado 157274" d="M9.862,9.572l1.36.276a6.246,6.246,0,0,1,8.613-4.473L20.39,4.1a7.57,7.57,0,0,0-3.052-.635,7.65,7.65,0,0,0-7.476,6.1Z" fill="#12263f"/>
        <path id="Trazado_157275" data-name="Trazado 157275" d="M4.855,13.871H3.468a3.472,3.472,0,0,0,3.468,3.468H8.323V15.952H6.935A2.083,2.083,0,0,1,4.855,13.871Z" fill="#12263f"/>
        <path id="Trazado_157276" data-name="Trazado 157276" d="M9.71,15.952H11.1v1.387H9.71Z" fill="#12263f"/>
      </g>
    </g>
  </g>
</svg>
