<svg xmlns="http://www.w3.org/2000/svg" xmlns:xlink="http://www.w3.org/1999/xlink" width="43" height="43" viewBox="0 0 43 43">
  <defs>
    <clipPath id="clip-path">
      <rect id="Rectángulo_36517" data-name="Rectángulo 36517" width="43" height="43" transform="translate(1275 2422)" fill="#fff"/>
    </clipPath>
  </defs>
  <g id="Enmascarar_grupo_200" data-name="Enmascarar grupo 200" transform="translate(-1275 -2422)" clip-path="url(#clip-path)">
    <g id="Filled_outline" data-name="Filled outline" transform="translate(1273.567 2420.566)">
      <path id="Trazado_157187" data-name="Trazado 157187" d="M10.75,6.45H39.417a2.867,2.867,0,0,1,2.867,2.867V31.533a2.15,2.15,0,0,1-2.15,2.15h-30.1a2.15,2.15,0,0,1-2.15-2.15V9.317A2.867,2.867,0,0,1,10.75,6.45Z" fill="#4db7e5"/>
      <path id="Trazado_157188" data-name="Trazado 157188" d="M39.417,6.45H38.7V33.683h1.433V6.54a2.873,2.873,0,0,0-.717-.09Z" fill="#48add9"/>
      <path id="Trazado_157189" data-name="Trazado 157189" d="M35.833,2.15h-21.5a2.867,2.867,0,0,0-2.867,2.867v30.1H38.7V5.017A2.867,2.867,0,0,0,35.833,2.15Z" fill="#348fd9"/>
      <path id="Trazado_157190" data-name="Trazado 157190" d="M38.7,8.958,12.542,35.117H38.7Z" fill="#3086cd"/>
      <path id="Trazado_157191" data-name="Trazado 157191" d="M34.4,20.067q0,.361-.027.717a9.3,9.3,0,0,1-7.993,8.51c-.192.028-.385.048-.581.064q-.355.027-.717.027t-.717-.027c-.2-.015-.389-.036-.581-.064a9.2,9.2,0,0,1-2.17-.576,9.316,9.316,0,0,1-5.823-7.934q-.027-.355-.027-.717t.027-.717a9.306,9.306,0,0,1,7.891-8.5q.337-.051.682-.078t.717-.027q.362,0,.717.027c.2.015.389.036.58.064a9.194,9.194,0,0,1,2.168.575,9.348,9.348,0,0,1,4.8,4.351,9.242,9.242,0,0,1,1.023,3.583Q34.4,19.7,34.4,20.067Z" fill="#4db7e5"/>
      <path id="Trazado_157192" data-name="Trazado 157192" d="M34.373,20.783q.027-.355.027-.717t-.027-.717H30.8a18.228,18.228,0,0,0-.491-3.583H33.35a9.262,9.262,0,0,0-.923-1.433H29.9a14.738,14.738,0,0,0-1.349-2.918,9.193,9.193,0,0,0-2.168-.575l.5.645a12.554,12.554,0,0,1,1.5,2.848H25.8V10.777q-.355-.027-.717-.027t-.717.027v3.556H21.791a12.507,12.507,0,0,1,1.5-2.859c.009-.012.016-.024.024-.036l.366-.584a9.226,9.226,0,0,0-2.067.561,14.692,14.692,0,0,0-1.349,2.918h-2.53a9.262,9.262,0,0,0-.923,1.433h3.038a18.21,18.21,0,0,0-.491,3.583h-3.57q-.027.355-.027.717t.027.717h3.571a17.959,17.959,0,0,0,.684,4.3H17.23a9.353,9.353,0,0,0,1.131,1.433h2.173a13.943,13.943,0,0,0,1.082,2.2,9.2,9.2,0,0,0,2.17.576l-.5-.646a11.868,11.868,0,0,1-1.2-2.13h2.282v2.84q.355.027.717.027t.717-.027v-2.84h2.282a11.821,11.821,0,0,1-1.2,2.13l-.5.646a9.2,9.2,0,0,0,2.17-.576,13.864,13.864,0,0,0,1.082-2.2h2.173a9.353,9.353,0,0,0,1.131-1.433H30.118a17.988,17.988,0,0,0,.684-4.3Zm-10.006,4.3H21.547a16.385,16.385,0,0,1-.749-4.3h3.568Zm0-5.733H20.8a16.654,16.654,0,0,1,.535-3.583h3.034Zm4.253,5.733H25.8v-4.3h3.568a16.417,16.417,0,0,1-.749,4.3ZM25.8,19.35V15.767h3.034a16.679,16.679,0,0,1,.535,3.583Z" fill="#60d1e0"/>
      <path id="Trazado_157193" data-name="Trazado 157193" d="M29.8,32.967a2.447,2.447,0,0,1-1.73.717H22.217a2.447,2.447,0,0,1-1.73-.717,2.447,2.447,0,0,0-1.73-.717H6.45V34.4A2.15,2.15,0,0,0,8.6,36.55H41.567a2.15,2.15,0,0,0,2.15-2.15V32.25H31.533a2.447,2.447,0,0,0-1.73.717Z" fill="#e0e0de"/>
      <path id="Trazado_157194" data-name="Trazado 157194" d="M40.85,32.25V34.4a2.15,2.15,0,0,1-2.15,2.15h2.867a2.15,2.15,0,0,0,2.15-2.15V32.25Z" fill="#d6d6d4"/>
      <path id="Trazado_157195" data-name="Trazado 157195" d="M22.217,33.146V42.1a1.593,1.593,0,0,1-.22.813,1.61,1.61,0,0,1-1.392.8H3.763a1.61,1.61,0,0,1-1.392-.8,1.593,1.593,0,0,1-.22-.813V33.146a1.593,1.593,0,0,1,.22-.813,1.61,1.61,0,0,1,1.392-.8H20.6a1.61,1.61,0,0,1,1.392.8,1.593,1.593,0,0,1,.22.813Z" fill="#ffb531"/>
      <path id="Trazado_157196" data-name="Trazado 157196" d="M22,32.333a21.265,21.265,0,0,1-9.813,2.037A21.265,21.265,0,0,1,2.37,32.333a1.61,1.61,0,0,1,1.392-.8H20.6a1.61,1.61,0,0,1,1.392.8Z" fill="#ffcb73"/>
      <path id="Trazado_157197" data-name="Trazado 157197" d="M22,42.917a1.61,1.61,0,0,1-1.392.8H3.763a1.61,1.61,0,0,1-1.392-.8,21.265,21.265,0,0,1,9.813-2.037A21.265,21.265,0,0,1,22,42.917Z" fill="#ffa912"/>
      <path id="Trazado_157198" data-name="Trazado 157198" d="M12.183,19.35A7.883,7.883,0,0,0,4.3,27.233v4.3H7.167v-4.3a5.017,5.017,0,0,1,10.033,0v4.3h2.867v-4.3A7.883,7.883,0,0,0,12.183,19.35Z" fill="#e0e0de"/>
      <path id="Trazado_157199" data-name="Trazado 157199" d="M14.333,37.267a2.15,2.15,0,1,0-2.867,2.018V40.85H12.9V39.285A2.146,2.146,0,0,0,14.333,37.267Z" fill="#95573a"/>
      <path id="Trazado_157200" data-name="Trazado 157200" d="M43.717,31.533H43V9.317a3.587,3.587,0,0,0-3.583-3.583V5.017a3.587,3.587,0,0,0-3.583-3.583h-21.5A3.587,3.587,0,0,0,10.75,5.017v.717A3.587,3.587,0,0,0,7.167,9.317v8.6H8.6v-8.6a2.152,2.152,0,0,1,2.15-2.15V17.2h1.433V5.017a2.152,2.152,0,0,1,2.15-2.15h21.5a2.152,2.152,0,0,1,2.15,2.15V29.383h1.433V7.167a2.152,2.152,0,0,1,2.15,2.15V31.533H31.533a3.139,3.139,0,0,0-2.234.927,1.724,1.724,0,0,1-1.228.507H24.367V34.4h3.705a3.148,3.148,0,0,0,2.241-.927,1.715,1.715,0,0,1,1.22-.507H43V34.4a1.435,1.435,0,0,1-1.433,1.433h-17.2v1.433h17.2A2.87,2.87,0,0,0,44.433,34.4V32.25A.717.717,0,0,0,43.717,31.533Z" fill="#12263f"/>
      <path id="Trazado_157201" data-name="Trazado 157201" d="M10.75,24.367h1.433v5.017H10.75Z" fill="#12263f"/>
      <path id="Trazado_157202" data-name="Trazado 157202" d="M14.333,4.3h1.433V5.733H14.333Z" fill="#12263f"/>
      <path id="Trazado_157203" data-name="Trazado 157203" d="M17.2,4.3h1.433V5.733H17.2Z" fill="#12263f"/>
      <path id="Trazado_157204" data-name="Trazado 157204" d="M20.066,4.3H21.5V5.733H20.066Z" fill="#12263f"/>
      <path id="Trazado_157205" data-name="Trazado 157205" d="M14.333,7.167h21.5V8.6h-21.5Z" fill="#12263f"/>
      <path id="Trazado_157206" data-name="Trazado 157206" d="M22.89,28.381c-.152-.039-.3-.083-.454-.131L22,29.614c.176.057.356.109.531.154a10.032,10.032,0,1,0-5.895-15.106,9.907,9.907,0,0,0-1.314,3.09l1.395.33a8.47,8.47,0,0,1,.924-2.315h2.217a18.309,18.309,0,0,0-.5,4.3c0,.5.02,1,.059,1.49l1.429-.114c-.017-.218-.031-.439-.04-.66h3.568v4.3h-2.15v1.433h2.15v2.118a8.582,8.582,0,0,1-1.477-.253Zm7.875-1.864a8.634,8.634,0,0,1-1.631,1.133c.18-.367.348-.744.5-1.133Zm1.3-1.433H30.117a18.024,18.024,0,0,0,.685-4.3h2.852a8.449,8.449,0,0,1-1.589,4.3Zm-8.916-13.4a8.561,8.561,0,0,1,1.217-.189v2.835H21.793a12.673,12.673,0,0,1,1.356-2.645ZM25.8,11.5a8.577,8.577,0,0,1,1.217.189,12.671,12.671,0,0,1,1.356,2.645H25.8Zm3.033,4.268a16.669,16.669,0,0,1,.535,3.583H25.8V15.767Zm4.82,3.583H30.8a18.185,18.185,0,0,0-.491-3.583h2.216a8.518,8.518,0,0,1,1.124,3.583ZM31.49,14.333H29.9a15.4,15.4,0,0,0-.769-1.86,8.52,8.52,0,0,1,2.362,1.86ZM21.04,12.473a15.4,15.4,0,0,0-.769,1.86H18.677a8.519,8.519,0,0,1,2.363-1.86ZM20.8,19.35a16.662,16.662,0,0,1,.535-3.583h3.033V19.35Zm5,1.433h3.568a16.416,16.416,0,0,1-.75,4.3H25.8Zm2.28,5.733a11.952,11.952,0,0,1-1.061,1.928,8.548,8.548,0,0,1-1.219.19V26.517Z" fill="#12263f"/>
      <path id="Trazado_157207" data-name="Trazado 157207" d="M20.783,30.831v-3.6a8.6,8.6,0,0,0-17.2,0v3.6a2.413,2.413,0,0,0-2.15,2.4v8.8a2.413,2.413,0,0,0,2.41,2.41h16.68a2.413,2.413,0,0,0,2.41-2.41v-8.8a2.413,2.413,0,0,0-2.15-2.4Zm-8.6-10.764a7.175,7.175,0,0,1,7.167,7.167v3.583H17.917V27.233a5.733,5.733,0,0,0-11.467,0v3.583H5.017V27.233A7.175,7.175,0,0,1,12.183,20.067Zm4.3,10.75h-8.6V27.233a4.3,4.3,0,0,1,8.6,0ZM21.5,42.024a.978.978,0,0,1-.976.976H3.843a.978.978,0,0,1-.976-.976v-8.8a.978.978,0,0,1,.976-.976h16.68a.978.978,0,0,1,.976.976Z" fill="#12263f"/>
      <path id="Trazado_157208" data-name="Trazado 157208" d="M12.183,35.117a2.15,2.15,0,0,0-.717,4.177V40.85H12.9V39.293a2.15,2.15,0,0,0-.717-4.177Zm0,2.867a.717.717,0,1,1,.717-.717A.717.717,0,0,1,12.183,37.983Z" fill="#12263f"/>
    </g>
  </g>
</svg>
