<svg xmlns="http://www.w3.org/2000/svg" xmlns:xlink="http://www.w3.org/1999/xlink" width="54" height="54" viewBox="0 0 54 54">
  <defs>
    <clipPath id="clip-path">
      <rect id="Rectángulo_37061" data-name="Rectángulo 37061" width="54" height="54" transform="translate(12127 -9113)" fill="#fff"/>
    </clipPath>
  </defs>
  <g id="Enmascarar_grupo_258" data-name="Enmascarar grupo 258" transform="translate(-12127 9113)" clip-path="url(#clip-path)">
    <g id="mujer" transform="translate(12126.129 -9113.867)">
      <path id="Trazado_160838" data-name="Trazado 160838" d="M6.019,37.851l9.656-3.017v-2.7a10.441,10.441,0,0,1-6.1-9.492V17.417h2a9.453,9.453,0,0,0,8.454-5.225,9.453,9.453,0,0,0,8.454,5.225h2v5.225a10.441,10.441,0,0,1-6.094,9.491l0,2.7,9.656,3.017a6.071,6.071,0,0,1,.743.3,33.949,33.949,0,0,1-1.69-10.567V14.8a13.063,13.063,0,1,0-26.125,0v12.78a33.949,33.949,0,0,1-1.69,10.567,6.071,6.071,0,0,1,.743-.3Z" fill="#686868"/>
      <path id="Trazado_160839" data-name="Trazado 160839" d="M34.04,37.851l-9.656-3.017v-2.7a10.441,10.441,0,0,0,6.1-9.492V17.417h-2a9.453,9.453,0,0,1-8.454-5.225,9.453,9.453,0,0,1-8.454,5.225h-2v5.225a10.441,10.441,0,0,0,6.094,9.491l0,2.7L6.019,37.851A6.1,6.1,0,0,0,1.742,43.67V53.993H38.317V43.67a6.1,6.1,0,0,0-4.277-5.818Z" fill="#fadcb5"/>
      <path id="Trazado_160840" data-name="Trazado 160840" d="M38.317,43.67a6.1,6.1,0,0,0-4.277-5.818l-9.656-3.018-.293.435a4.882,4.882,0,0,1-8.123,0l-.293-.435L6.019,37.851A6.1,6.1,0,0,0,1.742,43.67V53.993H38.317Z" fill="#c0dafb"/>
      <path id="Trazado_160841" data-name="Trazado 160841" d="M34.04,37.851l-9.656-3.017-.293.435a4.882,4.882,0,0,1-8.123,0l-.293-.435L6.019,37.851a6.081,6.081,0,0,0-1.665.821c0,.027,0,.053,0,.08,0,8.414,8.767,15.24,19.584,15.24H38.317V43.67a6.1,6.1,0,0,0-4.277-5.818Z" fill="#d9e9fd"/>
      <path id="Trazado_160842" data-name="Trazado 160842" d="M9.579,22.642V20.03H8.708a2.613,2.613,0,0,0,0,5.225H9.922a10.465,10.465,0,0,1-.342-2.613Z" fill="#fadcb5"/>
      <path id="Trazado_160843" data-name="Trazado 160843" d="M9.579,22.642V20.03H8.708a2.613,2.613,0,0,0,0,5.225H9.922a10.465,10.465,0,0,1-.342-2.613Z" fill="#fadcb5"/>
      <path id="Trazado_160844" data-name="Trazado 160844" d="M20.03,12.192a9.453,9.453,0,0,1-8.454,5.225H9.623a14.786,14.786,0,0,0,16.3,13.853,10.437,10.437,0,0,0,4.558-8.628V17.417h-2a9.453,9.453,0,0,1-8.454-5.225Z" fill="#fcead3"/>
      <path id="Trazado_160845" data-name="Trazado 160845" d="M31.351,20.03H30.48v2.613a10.466,10.466,0,0,1-.331,2.615l1.2,0a2.613,2.613,0,0,0,0-5.225Z" fill="#fadcb5"/>
      <path id="Trazado_160846" data-name="Trazado 160846" d="M13.063,37.229a3.341,3.341,0,0,0,6.328,1.494l.638-1.277a4.883,4.883,0,0,1-4.062-2.177l-.293-.435-2.613.816Z" fill="#77a0d3"/>
      <path id="Trazado_160847" data-name="Trazado 160847" d="M24.21,40.524A3.341,3.341,0,0,0,27,37.229V35.65l-2.613-.816-.293.435a4.883,4.883,0,0,1-4.062,2.177l.638,1.277A3.341,3.341,0,0,0,24.21,40.524Z" fill="#77a0d3"/>
      <path id="Trazado_160848" data-name="Trazado 160848" d="M45.284,17.417a8.7,8.7,0,0,0-6,15.007l-.964,2.41,2.666-1.143a8.708,8.708,0,1,0,4.3-16.274Z" fill="#77a0d3"/>
      <path id="Trazado_160849" data-name="Trazado 160849" d="M45.284,17.417a8.693,8.693,0,0,0-6.719,3.168,8.831,8.831,0,0,0-.247,2.057c0,5.29,4.679,9.579,10.45,9.579a11.311,11.311,0,0,0,3.128-.435,8.7,8.7,0,0,0-6.611-14.369Z" fill="#c0dafb"/>
      <path id="Trazado_160850" data-name="Trazado 160850" d="M45.284,21.771l1.345,2.867,3.009.46-2.177,2.231.514,3.151-2.691-1.487L42.593,30.48l.514-3.151L40.93,25.1l3.009-.46Z" fill="#f3a845"/>
      <path id="Trazado_160851" data-name="Trazado 160851" d="M46.63,24.638l-1.345-2.867-1.345,2.867-1.243.19a4.644,4.644,0,0,0,4.765,3.91c.077,0,.152-.007.228-.01l-.228-1.4L49.638,25.1Z" fill="#eecc61"/>
      <path id="Trazado_160852" data-name="Trazado 160852" d="M35.5,37.534a33.022,33.022,0,0,1-1.54-9.949V24.922a3.42,3.42,0,0,0,0-4.56V14.8A13.934,13.934,0,1,0,6.1,14.8v5.558a3.42,3.42,0,0,0,0,4.56v2.662a33.022,33.022,0,0,1-1.54,9.949A6.922,6.922,0,0,0,.871,43.67V53.993a.871.871,0,0,0,.871.871H38.317a.871.871,0,0,0,.871-.871V43.67A6.921,6.921,0,0,0,35.5,37.534ZM7.838,26a3.43,3.43,0,0,0,.871.124h.554a11.372,11.372,0,0,0,5.542,6.55v1.519L6.6,36.758a34.747,34.747,0,0,0,1.237-9.174Zm.871-5.1v1.742a11.37,11.37,0,0,0,.148,1.742H8.708a1.742,1.742,0,0,1,0-3.483Zm22.642,1.742V20.9a1.742,1.742,0,0,1,0,3.483H31.2A11.37,11.37,0,0,0,31.351,22.642Zm-1.742,0a9.579,9.579,0,1,1-19.159,0V18.288h1.125a10.255,10.255,0,0,0,8.454-4.4,10.255,10.255,0,0,0,8.454,4.4h1.125Zm-6.1,11.931-.146.219a4.01,4.01,0,0,1-6.674,0l-.146-.219V33.409a11.234,11.234,0,0,0,6.967,0ZM13.934,36.29l1.386-.435a5.734,5.734,0,0,0,3.38,2.3l-.087.174a2.47,2.47,0,0,1-4.679-1.1Zm10.805-.435,1.386.435v.939a2.47,2.47,0,0,1-4.679,1.105l-.087-.174a5.734,5.734,0,0,0,3.38-2.3Zm.516-1.661V32.675a11.372,11.372,0,0,0,5.542-6.55h.554A3.43,3.43,0,0,0,32.221,26v1.582a34.747,34.747,0,0,0,1.237,9.174ZM20.03,2.613A12.2,12.2,0,0,1,32.221,14.8v4.478a3.43,3.43,0,0,0-.871-.124V17.417a.871.871,0,0,0-.871-.871h-2a8.534,8.534,0,0,1-7.67-4.744.907.907,0,0,0-1.559,0,8.534,8.534,0,0,1-7.679,4.744h-2a.871.871,0,0,0-.871.871v1.742a3.43,3.43,0,0,0-.871.124V14.8A12.2,12.2,0,0,1,20.03,2.613ZM2.613,43.67a5.2,5.2,0,0,1,3.666-4.987l5.913-1.845v.394a4.2,4.2,0,0,0,3.519,4.155,4.4,4.4,0,0,0,.705.058,4.171,4.171,0,0,0,2.742-1.033v12.71H9.579v-6.1H7.838v6.1H2.613Zm34.834,9.452H32.221v-6.1H30.48v6.1H20.9V40.412a4.174,4.174,0,0,0,2.742,1.03,4.413,4.413,0,0,0,.705-.058,4.2,4.2,0,0,0,3.519-4.155v-.392l5.913,1.848a5.2,5.2,0,0,1,3.666,4.985Z"/>
      <rect id="Rectángulo_37065" data-name="Rectángulo 37065" width="1.742" height="3.483" transform="translate(13.934 20.03)"/>
      <rect id="Rectángulo_37066" data-name="Rectángulo 37066" width="1.742" height="3.483" transform="translate(24.384 20.03)"/>
      <path id="Trazado_160853" data-name="Trazado 160853" d="M20.03,28.738A1.742,1.742,0,0,1,18.288,27H16.546a3.483,3.483,0,1,0,6.967,0H21.771A1.742,1.742,0,0,1,20.03,28.738Z"/>
      <path id="Trazado_160854" data-name="Trazado 160854" d="M45.284,16.546A9.591,9.591,0,0,0,35.7,26.125a9.476,9.476,0,0,0,2.557,6.5l-.753,1.881a.871.871,0,0,0,.809,1.194.861.861,0,0,0,.343-.071l2.28-.974a9.579,9.579,0,1,0,4.344-18.114Zm0,17.417a7.832,7.832,0,0,1-3.87-1.028.871.871,0,0,0-.431-.114.857.857,0,0,0-.343.071l-.733.314.184-.458a.871.871,0,0,0-.208-.954,7.83,7.83,0,1,1,5.4,2.169Z"/>
      <path id="Trazado_160855" data-name="Trazado 160855" d="M49.77,24.237l-2.549-.389L46.072,21.4a.871.871,0,0,0-1.576,0l-1.149,2.446-2.549.389a.871.871,0,0,0-.492,1.469l1.871,1.916-.443,2.717a.871.871,0,0,0,1.281.9l2.269-1.253,2.269,1.254a.871.871,0,0,0,1.281-.9l-.443-2.717,1.871-1.916a.871.871,0,0,0-.492-1.469Zm-2.932,2.485a.871.871,0,0,0-.236.748l.226,1.381-1.122-.62a.871.871,0,0,0-.843,0l-1.122.62.226-1.381a.871.871,0,0,0-.236-.748L42.737,25.7l1.333-.2a.871.871,0,0,0,.657-.49l.557-1.187.557,1.187a.871.871,0,0,0,.657.49l1.333.2Z"/>
    </g>
  </g>
</svg>
