<svg xmlns="http://www.w3.org/2000/svg" width="253" height="175.752" viewBox="0 0 253 175.752">
  <g id="Grupo_119023" data-name="Grupo 119023" transform="translate(-915.325 -4620.092)">
    <rect id="Rectángulo_37073" data-name="Rectángulo 37073" width="253" height="88" rx="10" transform="translate(915.325 4707.844)" fill="#ffe1c2"/>
    <g id="Grupo_118281" data-name="Grupo 118281" transform="translate(867.861 4465.592)">
      <g id="Character_2" data-name="Character 2" transform="translate(158.824 154.5)">
        <g id="Grupo_118129" data-name="Grupo 118129">
          <path id="Trazado_161637" data-name="Trazado 161637" d="M279.155,303.8l-2.79,25.974s-5.436-8.219-9.116-4.556c-3.505,3.49-9.7,28.973-9.7,28.973s-.086,8.31,4.335,10.5c14.154,7.026,29.92-6.223,29.92-6.223L289.575,284.2h0A29.792,29.792,0,0,0,279.155,303.8Z" transform="translate(-241.985 -209.415)" fill="#e8505b"/>
          <g id="Grupo_118059" data-name="Grupo 118059" transform="translate(39.253)">
            <g id="Grupo_118058" data-name="Grupo 118058">
              <g id="Grupo_118057" data-name="Grupo 118057">
                <g id="Grupo_118053" data-name="Grupo 118053" transform="translate(7.577)">
                  <g id="Grupo_118051" data-name="Grupo 118051" transform="translate(3.335 12.183)">
                    <g id="Grupo_118011" data-name="Grupo 118011">
                      <g id="Grupo_118010" data-name="Grupo 118010">
                        <g id="Grupo_118009" data-name="Grupo 118009">
                          <g id="Grupo_118005" data-name="Grupo 118005">
                            <g id="Grupo_118004" data-name="Grupo 118004">
                              <g id="Grupo_118003" data-name="Grupo 118003">
                                <path id="Trazado_161638" data-name="Trazado 161638" d="M352.347,239.8l-24.513-1.958c-.153-2.862.052-13.935.052-13.935s-10.2-1.586-10.325-11.783,1.642-33.613,1.642-33.613h0a35.442,35.442,0,0,1,35.612,4.476l1.511,1.164Z" transform="translate(-317.554 -175.628)" fill="#b78876"/>
                              </g>
                            </g>
                          </g>
                          <g id="Grupo_118008" data-name="Grupo 118008" transform="translate(10.291 44.351)">
                            <g id="Grupo_118007" data-name="Grupo 118007">
                              <g id="Grupo_118006" data-name="Grupo 118006">
                                <path id="Trazado_161639" data-name="Trazado 161639" d="M335.426,256.324a23.715,23.715,0,0,0,13.294-3.778s-3.142,7.338-13.318,6.42Z" transform="translate(-335.402 -252.546)" fill="#aa6550"/>
                              </g>
                            </g>
                          </g>
                        </g>
                      </g>
                    </g>
                    <g id="Grupo_118019" data-name="Grupo 118019" transform="translate(37.117 18.761)">
                      <g id="Grupo_118014" data-name="Grupo 118014">
                        <g id="Grupo_118013" data-name="Grupo 118013">
                          <g id="Grupo_118012" data-name="Grupo 118012">
                            <path id="Trazado_161640" data-name="Trazado 161640" d="M382.323,208.486c.174-.075,7.007-2.072,6.784,4.9s-7.176,5.31-7.182,5.11S382.323,208.486,382.323,208.486Z" transform="translate(-381.925 -208.165)" fill="#b78876"/>
                          </g>
                        </g>
                      </g>
                      <g id="Grupo_118018" data-name="Grupo 118018" transform="translate(2.207 2.283)">
                        <g id="Grupo_118017" data-name="Grupo 118017">
                          <g id="Grupo_118016" data-name="Grupo 118016">
                            <g id="Grupo_118015" data-name="Grupo 118015">
                              <path id="Trazado_161641" data-name="Trazado 161641" d="M385.76,217.6c.031-.021.119.089.321.19a1.214,1.214,0,0,0,.907.047,3.005,3.005,0,0,0,1.477-2.651,4.014,4.014,0,0,0-.284-1.75,1.4,1.4,0,0,0-.884-.961.619.619,0,0,0-.728.31c-.1.192-.059.333-.1.343-.02.017-.146-.121-.081-.407a.778.778,0,0,1,.288-.428.916.916,0,0,1,.677-.156,1.708,1.708,0,0,1,1.234,1.121,4.129,4.129,0,0,1,.359,1.957c-.09,1.4-.851,2.7-1.868,2.954a1.3,1.3,0,0,1-1.1-.22C385.767,217.767,385.735,217.61,385.76,217.6Z" transform="translate(-385.753 -212.124)" fill="#aa6550"/>
                            </g>
                          </g>
                        </g>
                      </g>
                    </g>
                    <g id="Grupo_118050" data-name="Grupo 118050" transform="translate(3.555 10.202)">
                      <g id="Grupo_118049" data-name="Grupo 118049">
                        <g id="Grupo_118042" data-name="Grupo 118042" transform="translate(0 5.493)">
                          <g id="Grupo_118041" data-name="Grupo 118041">
                            <g id="Grupo_118040" data-name="Grupo 118040">
                              <g id="Grupo_118027" data-name="Grupo 118027">
                                <g id="Grupo_118022" data-name="Grupo 118022" transform="translate(0.34 1.673)">
                                  <g id="Grupo_118021" data-name="Grupo 118021">
                                    <g id="Grupo_118020" data-name="Grupo 118020">
                                      <path id="Trazado_161642" data-name="Trazado 161642" d="M324.31,207.064a1.456,1.456,0,0,0,1.4,1.469,1.393,1.393,0,0,0,1.5-1.313,1.457,1.457,0,0,0-1.4-1.47A1.394,1.394,0,0,0,324.31,207.064Z" transform="translate(-324.31 -205.748)" fill="#263238"/>
                                    </g>
                                  </g>
                                </g>
                                <g id="Grupo_118026" data-name="Grupo 118026">
                                  <g id="Grupo_118025" data-name="Grupo 118025">
                                    <g id="Grupo_118024" data-name="Grupo 118024">
                                      <g id="Grupo_118023" data-name="Grupo 118023">
                                        <path id="Trazado_161643" data-name="Trazado 161643" d="M323.743,204.377c.18.19,1.284-.626,2.851-.622,1.565-.018,2.716.788,2.885.6.084-.085-.1-.428-.6-.793a4,4,0,0,0-2.31-.712,3.834,3.834,0,0,0-2.269.732C323.817,203.949,323.654,204.292,323.743,204.377Z" transform="translate(-323.72 -202.847)" fill="#263238"/>
                                      </g>
                                    </g>
                                  </g>
                                </g>
                              </g>
                              <g id="Grupo_118035" data-name="Grupo 118035" transform="translate(15.404 0.292)">
                                <g id="Grupo_118030" data-name="Grupo 118030" transform="translate(0.283 1.927)">
                                  <g id="Grupo_118029" data-name="Grupo 118029">
                                    <g id="Grupo_118028" data-name="Grupo 118028">
                                      <path id="Trazado_161644" data-name="Trazado 161644" d="M350.926,208.012a1.456,1.456,0,0,0,1.4,1.469,1.392,1.392,0,0,0,1.5-1.313,1.457,1.457,0,0,0-1.4-1.47A1.394,1.394,0,0,0,350.926,208.012Z" transform="translate(-350.925 -206.696)" fill="#263238"/>
                                    </g>
                                  </g>
                                </g>
                                <g id="Grupo_118034" data-name="Grupo 118034">
                                  <g id="Grupo_118033" data-name="Grupo 118033">
                                    <g id="Grupo_118032" data-name="Grupo 118032">
                                      <g id="Grupo_118031" data-name="Grupo 118031">
                                        <path id="Trazado_161645" data-name="Trazado 161645" d="M350.457,204.884c.181.19,1.286-.626,2.851-.622,1.565-.018,2.716.788,2.886.6.083-.085-.1-.428-.6-.792a3.991,3.991,0,0,0-2.309-.712,3.837,3.837,0,0,0-2.27.732C350.533,204.456,350.369,204.8,350.457,204.884Z" transform="translate(-350.434 -203.354)" fill="#263238"/>
                                      </g>
                                    </g>
                                  </g>
                                </g>
                              </g>
                              <g id="Grupo_118039" data-name="Grupo 118039" transform="translate(5.747 0.387)">
                                <g id="Grupo_118038" data-name="Grupo 118038">
                                  <g id="Grupo_118037" data-name="Grupo 118037">
                                    <g id="Grupo_118036" data-name="Grupo 118036">
                                      <path id="Trazado_161646" data-name="Trazado 161646" d="M337.679,216.576a10.343,10.343,0,0,0-2.545-.46c-.4-.041-.779-.12-.846-.394a2.037,2.037,0,0,1,.267-1.186l1.184-3.047c1.643-4.338,2.833-7.906,2.658-7.97s-1.65,3.4-3.293,7.737c-.4,1.07-.774,2.09-1.134,3.066a2.318,2.318,0,0,0-.208,1.57,1,1,0,0,0,.658.585,2.746,2.746,0,0,0,.68.095A10.214,10.214,0,0,0,337.679,216.576Z" transform="translate(-333.687 -203.518)" fill="#263238"/>
                                    </g>
                                  </g>
                                </g>
                              </g>
                            </g>
                          </g>
                        </g>
                        <g id="Grupo_118045" data-name="Grupo 118045" transform="translate(15.014)">
                          <g id="Grupo_118044" data-name="Grupo 118044">
                            <g id="Grupo_118043" data-name="Grupo 118043">
                              <path id="Trazado_161647" data-name="Trazado 161647" d="M349.767,194.5c.155.426,1.719.224,3.558.446,1.843.185,3.325.723,3.569.341.109-.183-.149-.584-.749-1a6.234,6.234,0,0,0-5.43-.6C350.04,193.958,349.7,194.293,349.767,194.5Z" transform="translate(-349.759 -193.321)" fill="#263238"/>
                            </g>
                          </g>
                        </g>
                        <g id="Grupo_118048" data-name="Grupo 118048" transform="translate(0.559 0.865)">
                          <g id="Grupo_118047" data-name="Grupo 118047">
                            <g id="Grupo_118046" data-name="Grupo 118046">
                              <path id="Trazado_161648" data-name="Trazado 161648" d="M324.729,196.444c.276.356,1.355-.014,2.654-.031,1.3-.063,2.4.239,2.65-.134.111-.18-.062-.537-.543-.874a3.842,3.842,0,0,0-4.273.133C324.758,195.9,324.608,196.271,324.729,196.444Z" transform="translate(-324.689 -194.821)" fill="#263238"/>
                            </g>
                          </g>
                        </g>
                      </g>
                    </g>
                  </g>
                  <g id="Grupo_118052" data-name="Grupo 118052">
                    <path id="Trazado_161649" data-name="Trazado 161649" d="M311.786,163.125a3.765,3.765,0,0,1,1.39-3.363,2.67,2.67,0,0,1,3.46.259,3.116,3.116,0,0,1,2.678-3.779c1.663-.106,3.081,1.151,4.688,1.591a7.572,7.572,0,0,0,4.762-.549c1.509-.608,2.919-1.446,4.447-2a13.039,13.039,0,0,1,16.678,7.657,5.789,5.789,0,0,1,6.14,2.324,9.494,9.494,0,0,1,1.454,6.691,21.231,21.231,0,0,1-1.166,4.575c0,.131.013.26.011.392-.105,5.607-.739,12.192-3.132,12.229-4.17.063-3.177-7.792-3.177-7.792-5.117-1.977-3.211-9.644-4.49-10.807s-3.956-3.866-14.669,1.61c-4.16,2.126-9.692,2.06-12.711,1.375-.088-.019-.178-.032-.266-.054-.018-.005-.043-.008-.062-.013-.033-.008-.057-.026-.089-.035a9.652,9.652,0,0,1-2.748-1.166,5.431,5.431,0,0,1-2.264-2.517,2.972,2.972,0,0,1,.585-3.192A6.536,6.536,0,0,1,311.786,163.125Z" transform="translate(-311.77 -154.5)" fill="#263238"/>
                  </g>
                </g>
                <g id="Grupo_118056" data-name="Grupo 118056" transform="translate(0 70.438)">
                  <g id="Grupo_118055" data-name="Grupo 118055">
                    <g id="Grupo_118054" data-name="Grupo 118054">
                      <path id="Trazado_161650" data-name="Trazado 161650" d="M364.387,346.564l.771,14.47,1.723,20.786H301.365l2.845-30.712-5.58-48.521c.484-17.145,7.069-24.275,20.539-25.913.112-.014-1.175.146-1.061.133,1.854-.219,0,0,1.061-.133a43.37,43.37,0,0,0,26.137-.016h0c4.039.171,7.386,1.415,10.821,2.073,10.822,2.073,19.732,10.435,21.9,17.713,1.782,5.993,14.668,57.96,14.668,57.96H367.056Z" transform="translate(-298.63 -276.659)" fill="#e8505b"/>
                    </g>
                  </g>
                </g>
              </g>
            </g>
          </g>
          <path id="Trazado_161651" data-name="Trazado 161651" d="M338.145,233.233a7,7,0,0,0,.909,1.781,2.367,2.367,0,0,0,1.682.976,2.123,2.123,0,0,0,1.8-.979,3.389,3.389,0,0,0,.5-2.042c-.029-.643-.323-1.412-.963-1.488a1.61,1.61,0,0,0-.777.172l-3.363,1.364" transform="translate(-276.015 -187.091)" fill="#aa6550"/>
          <g id="Grupo_118060" data-name="Grupo 118060" transform="translate(61.274 44.038)">
            <path id="Trazado_161652" data-name="Trazado 161652" d="M339.019,235.746a4.876,4.876,0,0,0,1.794-.221,2.566,2.566,0,0,0,1.356-1.232,2.7,2.7,0,0,0,.044-2.2,2.422,2.422,0,0,0-.293-.5c-.133-.14-.109-.133-.254-.112-.137.037-.358.141-.539.212l-.552.225c-.72.291-1.372.546-1.922.752a6.11,6.11,0,0,1-1.832.551,6.149,6.149,0,0,1,1.665-.942c.529-.256,1.164-.551,1.872-.87l.544-.244a6.22,6.22,0,0,1,.614-.253.786.786,0,0,1,.5.015.925.925,0,0,1,.371.293,2.887,2.887,0,0,1,.378.638,3.152,3.152,0,0,1-.1,2.691,2.876,2.876,0,0,1-1.707,1.38,2.705,2.705,0,0,1-1.457.057C339.163,235.893,339.006,235.779,339.019,235.746Z" transform="translate(-336.82 -230.874)" fill="#263238"/>
          </g>
          <g id="Grupo_118106" data-name="Grupo 118106" transform="translate(0 60.328)">
            <g id="Grupo_118105" data-name="Grupo 118105">
              <g id="Grupo_118064" data-name="Grupo 118064" transform="translate(0.407)">
                <g id="Grupo_118063" data-name="Grupo 118063">
                  <g id="Grupo_118062" data-name="Grupo 118062">
                    <g id="Grupo_118061" data-name="Grupo 118061">
                      <path id="Trazado_161653" data-name="Trazado 161653" d="M270,336.244l-15.43-47.374-1.4-7.954s-4.2-17.732-4.385-19.487c-.216-2.028-1.245-2.411-1.986-2.281-1.157.2-1.827,1.726-1.7,3.472.046.6,1.144,10.095,1.144,10.095a22.466,22.466,0,0,0-2.116-2.366c-1.6-1.627-5-2.287-8.378-1.814s-4.277.9-4.154,2.223a1.686,1.686,0,0,0,.8,1.207,3.336,3.336,0,0,0,2.316.529c5.413-.684,7.185,2.057,7.185,2.057l.183,1.04s-3.55-2-6.068-.722a3.2,3.2,0,0,0-.977.759,4.268,4.268,0,0,0-3,6.725,1.774,1.774,0,0,0,1.819.88,2.269,2.269,0,0,0,.9-.686,3.389,3.389,0,0,1,.445-.409l.92,2.843s2.408,6.277,3.148,9.128l7.513,47.7a11.974,11.974,0,0,0,13.9,9.931h0A11.973,11.973,0,0,0,270,336.244Z" transform="translate(-231.259 -259.125)" fill="#b78876"/>
                    </g>
                  </g>
                </g>
              </g>
              <g id="Grupo_118074" data-name="Grupo 118074" transform="translate(10.468 17.659)">
                <g id="Grupo_118068" data-name="Grupo 118068" transform="translate(0.291 0.281)">
                  <g id="Grupo_118067" data-name="Grupo 118067">
                    <g id="Grupo_118066" data-name="Grupo 118066">
                      <g id="Grupo_118065" data-name="Grupo 118065">
                        <path id="Trazado_161654" data-name="Trazado 161654" d="M260.537,301.558a2.487,2.487,0,0,1-2.7-1.063c-.633-.823-.967-1.837-1.538-2.7-1.708-2.592-5.267-3.533-6.849-6.2-.22-.372-.376-.9-.059-1.2.294-.273.764-.133,1.134.023L260,294.4" transform="translate(-249.212 -290.237)" fill="#b78876"/>
                      </g>
                    </g>
                  </g>
                </g>
                <g id="Grupo_118073" data-name="Grupo 118073">
                  <g id="Grupo_118072" data-name="Grupo 118072">
                    <g id="Grupo_118071" data-name="Grupo 118071">
                      <g id="Grupo_118070" data-name="Grupo 118070">
                        <g id="Grupo_118069" data-name="Grupo 118069">
                          <path id="Trazado_161655" data-name="Trazado 161655" d="M259.79,294.2a4.158,4.158,0,0,0-.981-.536c-.646-.31-1.589-.741-2.759-1.262l-4.12-1.8-1.194-.513a2.039,2.039,0,0,0-1.519-.26.868.868,0,0,0-.507.831,1.781,1.781,0,0,0,.238.807,6.685,6.685,0,0,0,.91,1.211,39.284,39.284,0,0,0,4.4,3.365,7.761,7.761,0,0,1,1.613,1.665c.407.6.691,1.24,1.015,1.8a3.618,3.618,0,0,0,2.316,2.008,1.3,1.3,0,0,0,1.12-.163,3.008,3.008,0,0,1-1.064-.059,3.5,3.5,0,0,1-2.007-1.984c-.291-.556-.552-1.215-.976-1.877a7.985,7.985,0,0,0-1.677-1.815,45.808,45.808,0,0,1-4.313-3.345,6.322,6.322,0,0,1-.827-1.092c-.212-.371-.231-.768-.01-.832.23-.107.666.076,1.07.251l1.2.495,4.17,1.686c1.19.472,2.157.845,2.831,1.09A4.089,4.089,0,0,0,259.79,294.2Z" transform="translate(-248.708 -289.751)" fill="#aa6550"/>
                        </g>
                      </g>
                    </g>
                  </g>
                </g>
              </g>
              <g id="Grupo_118079" data-name="Grupo 118079" transform="translate(0.662 11.014)">
                <g id="Grupo_118078" data-name="Grupo 118078">
                  <g id="Grupo_118077" data-name="Grupo 118077">
                    <g id="Grupo_118076" data-name="Grupo 118076">
                      <g id="Grupo_118075" data-name="Grupo 118075">
                        <path id="Trazado_161656" data-name="Trazado 161656" d="M242.4,283.715a4.235,4.235,0,0,0-.82-1.761,3.276,3.276,0,0,0-1.781-1.02,8.375,8.375,0,0,0-2.605-.094,13.322,13.322,0,0,1-2.707.055,4.309,4.309,0,0,1-2.1-.781,1.682,1.682,0,0,1-.686-1.346,1,1,0,0,1,.123-.541c.036.006-.006.2.024.534a1.591,1.591,0,0,0,.7,1.14,4.276,4.276,0,0,0,1.98.648,14.731,14.731,0,0,0,2.637-.085,8.143,8.143,0,0,1,2.719.133,3.438,3.438,0,0,1,1.9,1.188,3.053,3.053,0,0,1,.612,1.38A1.057,1.057,0,0,1,242.4,283.715Z" transform="translate(-231.702 -278.227)" fill="#aa6550"/>
                      </g>
                    </g>
                  </g>
                </g>
              </g>
              <g id="Grupo_118084" data-name="Grupo 118084" transform="translate(14.154 2.821)">
                <g id="Grupo_118083" data-name="Grupo 118083">
                  <g id="Grupo_118082" data-name="Grupo 118082">
                    <g id="Grupo_118081" data-name="Grupo 118081">
                      <g id="Grupo_118080" data-name="Grupo 118080">
                        <path id="Trazado_161657" data-name="Trazado 161657" d="M255.156,264.018a10.744,10.744,0,0,1,.231,1.885c.126,1.3.275,2.842.441,4.551.191,1.706.363,3.249.509,4.544a10.709,10.709,0,0,1,.163,1.892,8.513,8.513,0,0,1-.428-1.853c-.205-1.156-.434-2.762-.62-4.544s-.293-3.4-.331-4.573A8.493,8.493,0,0,1,255.156,264.018Z" transform="translate(-255.101 -264.018)" fill="#aa6550"/>
                      </g>
                    </g>
                  </g>
                </g>
              </g>
              <g id="Grupo_118089" data-name="Grupo 118089" transform="translate(3.162 17.001)">
                <g id="Grupo_118088" data-name="Grupo 118088">
                  <g id="Grupo_118087" data-name="Grupo 118087">
                    <g id="Grupo_118086" data-name="Grupo 118086">
                      <g id="Grupo_118085" data-name="Grupo 118085">
                        <path id="Trazado_161658" data-name="Trazado 161658" d="M242.326,290.483a2.289,2.289,0,0,1-.574-.155,1.765,1.765,0,0,0-1.467.087.946.946,0,0,0-.407.842,5.03,5.03,0,0,0,.221,1.218,2.132,2.132,0,0,1-.065,1.511,1.814,1.814,0,0,1-1.366.907,2.059,2.059,0,0,1-1.556-.484,2.574,2.574,0,0,1-.844-1.245,8.338,8.338,0,0,1-.224-2.434,4.924,4.924,0,0,1,.314-1.615c.159-.363.325-.516.337-.5.028.02-.09.2-.2.553a5.808,5.808,0,0,0-.185,1.572,8.963,8.963,0,0,0,.29,2.327,2.037,2.037,0,0,0,2.016,1.454,1.456,1.456,0,0,0,1.087-.705,1.815,1.815,0,0,0,.053-1.26,5,5,0,0,1-.195-1.307,1.226,1.226,0,0,1,.578-1.057,1.843,1.843,0,0,1,1.658,0A1.534,1.534,0,0,1,242.326,290.483Z" transform="translate(-236.037 -288.611)" fill="#aa6550"/>
                      </g>
                    </g>
                  </g>
                </g>
              </g>
              <g id="Grupo_118094" data-name="Grupo 118094" transform="translate(0 16.633)">
                <g id="Grupo_118093" data-name="Grupo 118093">
                  <g id="Grupo_118092" data-name="Grupo 118092">
                    <g id="Grupo_118091" data-name="Grupo 118091">
                      <g id="Grupo_118090" data-name="Grupo 118090">
                        <path id="Trazado_161659" data-name="Trazado 161659" d="M234.916,293.834c.017-.005.091.191.005.542a1.655,1.655,0,0,1-1,1.093,2.2,2.2,0,0,1-2.148-.418,3.608,3.608,0,0,1-1.2-2.4,4.363,4.363,0,0,1,.539-2.623,4.176,4.176,0,0,1,1.548-1.541,3.951,3.951,0,0,1,1.381-.488,1.133,1.133,0,0,1,.536,0,6.851,6.851,0,0,0-1.778.721,4.116,4.116,0,0,0-1.383,1.482,4.16,4.16,0,0,0-.468,2.412A3.353,3.353,0,0,0,232,294.784a1.956,1.956,0,0,0,1.835.434,1.568,1.568,0,0,0,.947-.887C234.9,294.029,234.883,293.835,234.916,293.834Z" transform="translate(-230.553 -287.971)" fill="#aa6550"/>
                      </g>
                    </g>
                  </g>
                </g>
              </g>
              <g id="Grupo_118099" data-name="Grupo 118099" transform="translate(11.586 23.701)">
                <g id="Grupo_118098" data-name="Grupo 118098">
                  <g id="Grupo_118097" data-name="Grupo 118097">
                    <g id="Grupo_118096" data-name="Grupo 118096">
                      <g id="Grupo_118095" data-name="Grupo 118095">
                        <path id="Trazado_161660" data-name="Trazado 161660" d="M250.646,304.668a1.549,1.549,0,0,1,.909-.085,3.581,3.581,0,0,1,2.106.984l-.309.127a10.661,10.661,0,0,1,.073-1.288,8.163,8.163,0,0,1,1.531-4.174,20.665,20.665,0,0,0-1.155,4.218c-.052.434-.078.856-.087,1.246l-.009.431-.3-.3a3.754,3.754,0,0,0-1.885-1.015C250.986,304.7,250.65,304.718,250.646,304.668Z" transform="translate(-250.646 -300.23)" fill="#aa6550"/>
                      </g>
                    </g>
                  </g>
                </g>
              </g>
              <g id="Grupo_118104" data-name="Grupo 118104" transform="translate(7.129 11.991)">
                <g id="Grupo_118103" data-name="Grupo 118103">
                  <g id="Grupo_118102" data-name="Grupo 118102">
                    <g id="Grupo_118101" data-name="Grupo 118101">
                      <g id="Grupo_118100" data-name="Grupo 118100">
                        <path id="Trazado_161661" data-name="Trazado 161661" d="M245.455,279.926c.094.035-.2.755-1,1.2s-1.561.337-1.542.238c0-.11.668-.168,1.356-.567S245.361,279.869,245.455,279.926Z" transform="translate(-242.917 -279.922)" fill="#aa6550"/>
                      </g>
                    </g>
                  </g>
                </g>
              </g>
            </g>
          </g>
          <g id="Grupo_118107" data-name="Grupo 118107" transform="translate(36 72.318)">
            <path id="Trazado_161662" data-name="Trazado 161662" d="M308.353,279.921c.015.016-.21.23-.6.673a6.9,6.9,0,0,0-1.338,2.148,2.819,2.819,0,0,0-.152.831,1.913,1.913,0,0,0,.22.873,3.073,3.073,0,0,0,1.664,1.235,16.428,16.428,0,0,0,5.273.744c.995.019,2.064.057,3.162.122l1.678.2c.571.062,1.141.216,1.726.322a17.478,17.478,0,0,1,6.932,3.08,12.747,12.747,0,0,1,2.863,3,10.225,10.225,0,0,1,.544.935c.167.337.285.669.424,1a12.188,12.188,0,0,1,.6,2.107A13.373,13.373,0,0,1,330,306.052a12.918,12.918,0,0,1-6.814,5.819,13.4,13.4,0,0,1-4.245.842,16.364,16.364,0,0,1-4.1-.5,26.243,26.243,0,0,0-3.774-.674,6.547,6.547,0,0,0-3.426.6,8.839,8.839,0,0,0-2.565,2.081c-.718.807-1.33,1.655-1.935,2.46a12.236,12.236,0,0,1-3.941,3.767,4.835,4.835,0,0,1-2.2.574,4.939,4.939,0,0,1-1.873-.35,4.077,4.077,0,0,1-1.286-.812,3.073,3.073,0,0,1-.645-.909,2.01,2.01,0,0,1-.2-.886,8.354,8.354,0,0,0,.311.833,3.113,3.113,0,0,0,.657.831,3.992,3.992,0,0,0,1.248.725,4.575,4.575,0,0,0,3.832-.3,12.055,12.055,0,0,0,3.756-3.723c.59-.806,1.2-1.674,1.929-2.513a9.255,9.255,0,0,1,2.688-2.219,7.044,7.044,0,0,1,3.683-.687,26.3,26.3,0,0,1,3.858.66,15.916,15.916,0,0,0,3.968.467,12.885,12.885,0,0,0,4.055-.82,12.369,12.369,0,0,0,6.494-5.556,12.828,12.828,0,0,0,1.307-8.462,11.7,11.7,0,0,0-.567-2.016c-.135-.322-.253-.656-.4-.948a9.658,9.658,0,0,0-.505-.876,12.24,12.24,0,0,0-2.721-2.879,17.1,17.1,0,0,0-6.7-3.032c-.573-.11-1.127-.265-1.688-.332l-1.648-.21c-1.086-.076-2.12-.125-3.13-.158a16.452,16.452,0,0,1-5.387-.857,3.344,3.344,0,0,1-1.792-1.412,2.169,2.169,0,0,1-.228-1.013,3.046,3.046,0,0,1,.191-.9,6.532,6.532,0,0,1,1.47-2.152A3.228,3.228,0,0,1,308.353,279.921Z" transform="translate(-292.987 -279.921)" fill="#fafafa"/>
          </g>
          <g id="Grupo_118108" data-name="Grupo 118108" transform="translate(94.889 93.621)">
            <path id="Trazado_161663" data-name="Trazado 161663" d="M395.458,334.009a4.29,4.29,0,0,1-.276-1.3,10.67,10.67,0,0,1,.239-3.615,13.923,13.923,0,0,1,2.238-4.892,16.079,16.079,0,0,1,4.843-4.466,20.417,20.417,0,0,1,6.156-2.325,26.743,26.743,0,0,1,5.331-.549,30.142,30.142,0,0,1,3.6.182,5.243,5.243,0,0,1,1.3.227c-.009.107-1.88-.1-4.89.016a29.306,29.306,0,0,0-5.224.665,20.834,20.834,0,0,0-5.968,2.3,16.091,16.091,0,0,0-4.7,4.271,14.175,14.175,0,0,0-2.275,4.672,11.942,11.942,0,0,0-.419,3.5A7.958,7.958,0,0,1,395.458,334.009Z" transform="translate(-395.119 -316.865)" fill="#fafafa"/>
          </g>
          <g id="Grupo_118109" data-name="Grupo 118109" transform="translate(99.304 120.785)">
            <path id="Trazado_161664" data-name="Trazado 161664" d="M430.206,363.979a4.137,4.137,0,0,1-.677,1.014,16.629,16.629,0,0,1-2.322,2.383,18.881,18.881,0,0,1-4.157,2.677,18.6,18.6,0,0,1-11.876,1.433,18.893,18.893,0,0,1-4.675-1.612,16.633,16.633,0,0,1-2.822-1.762,4.14,4.14,0,0,1-.9-.823,44.783,44.783,0,0,0,3.9,2.2,19.361,19.361,0,0,0,20.258-2.445A44.53,44.53,0,0,0,430.206,363.979Z" transform="translate(-402.776 -363.976)" fill="#fafafa"/>
          </g>
          <g id="Grupo_118110" data-name="Grupo 118110" transform="translate(63.696 118.939)">
            <path id="Trazado_161665" data-name="Trazado 161665" d="M375.1,360.779a2.838,2.838,0,0,1-.526.215,3.963,3.963,0,0,0-1.319.879A6.4,6.4,0,0,0,371.926,364a19.747,19.747,0,0,0-.926,3.254,38.1,38.1,0,0,1-.939,4.064,9.483,9.483,0,0,1-1,2.148,8.342,8.342,0,0,1-1.681,1.879,13.182,13.182,0,0,1-4.763,2.408c-1.776.526-3.658.815-5.546,1.185a23.291,23.291,0,0,0-9.858,4.106,16.156,16.156,0,0,0-3.285,3.311,14.577,14.577,0,0,0-1.875,3.607,12.5,12.5,0,0,0-.609,5.836c.208,1.389.522,2.119.463,2.139a2.03,2.03,0,0,1-.245-.518,5.173,5.173,0,0,1-.223-.658,7.557,7.557,0,0,1-.225-.924,12.153,12.153,0,0,1,.436-6.009,14.7,14.7,0,0,1,1.872-3.761,16.385,16.385,0,0,1,3.355-3.463,23.422,23.422,0,0,1,10.078-4.256c1.906-.373,3.768-.656,5.5-1.16a12.773,12.773,0,0,0,4.576-2.27,7.875,7.875,0,0,0,1.592-1.741,9.068,9.068,0,0,0,.968-2.019,40.571,40.571,0,0,0,1-4,19,19,0,0,1,1.032-3.294,6.392,6.392,0,0,1,1.477-2.168,3.705,3.705,0,0,1,1.439-.823A1.638,1.638,0,0,1,375.1,360.779Z" transform="translate(-341.021 -360.774)" fill="#fafafa"/>
          </g>
          <g id="Grupo_118111" data-name="Grupo 118111" transform="translate(72.615 112.928)">
            <path id="Trazado_161666" data-name="Trazado 161666" d="M366.2,353.96a2.4,2.4,0,0,1,.3,1.18,5.065,5.065,0,0,1-.92,3.19,4.936,4.936,0,0,1-1.737,1.576,4.6,4.6,0,0,1-1.251.454,5.045,5.045,0,0,1-1.409.058,5.516,5.516,0,0,1-2.768-1.12,4.95,4.95,0,0,1-1.786-2.674,4.338,4.338,0,0,1,.891-3.932,9.662,9.662,0,0,1,1.266-1.382,4.745,4.745,0,0,1,.733-.548,1.957,1.957,0,0,1,.9-.316l.077.516-.285.071-.143-.5a4.909,4.909,0,0,1,3.178.172,5.2,5.2,0,0,1,2.006,1.387,4.351,4.351,0,0,1,.821,1.328c.116.341.146.53.123.537a7.767,7.767,0,0,0-1.162-1.657,5.139,5.139,0,0,0-1.934-1.2,4.552,4.552,0,0,0-2.876-.076l-.143-.5.283-.078.077.515a2.626,2.626,0,0,0-1.288.755,9.369,9.369,0,0,0-1.172,1.316,3.791,3.791,0,0,0-.773,3.44,4.408,4.408,0,0,0,1.565,2.355,5.023,5.023,0,0,0,2.467,1.034,4.59,4.59,0,0,0,1.251-.027,4.162,4.162,0,0,0,1.117-.377,4.6,4.6,0,0,0,1.623-1.382,5.118,5.118,0,0,0,1.031-2.938C366.275,354.39,366.143,353.974,366.2,353.96Z" transform="translate(-356.488 -350.35)" fill="#fafafa"/>
          </g>
          <g id="Grupo_118112" data-name="Grupo 118112" transform="translate(43.527 97.705)">
            <path id="Trazado_161667" data-name="Trazado 161667" d="M307.634,323.948a.594.594,0,0,1,.005.155c0,.12-.009.269-.014.453-.021.42-.05,1-.085,1.739-.091,1.509-.181,3.695-.3,6.395-.226,5.4-.447,12.866-.622,21.113s-.285,15.718-.362,21.124c-.041,2.685-.074,4.867-.1,6.4-.016.737-.028,1.319-.037,1.74-.007.185-.013.333-.017.453a.6.6,0,0,1-.016.155.589.589,0,0,1-.015-.155c0-.119-.008-.268-.013-.453,0-.421-.011-1-.019-1.741,0-1.536,0-3.717,0-6.4.023-5.407.1-12.878.274-21.129s.43-15.716.71-21.117c.148-2.7.27-4.885.4-6.392.06-.736.107-1.316.142-1.736.018-.183.033-.332.044-.451A.6.6,0,0,1,307.634,323.948Z" transform="translate(-306.041 -323.948)" fill="#263238"/>
          </g>
          <g id="Grupo_118113" data-name="Grupo 118113" transform="translate(34.099 116.474)" opacity="0.2">
            <path id="Trazado_161668" data-name="Trazado 161668" d="M289.69,391.345c3.216,1.538,7.423-1.417,9.066-4.582a94.631,94.631,0,0,0,.739-10.537c-.222-6.6.26-13.129.039-19.726a20.755,20.755,0,0,1-4.707,10.716,7.2,7.2,0,0,0-1.769,2.724c-.472,1.9.981,5.325,1.915,7.046,2.858,5.27-3.4,14.394-5.074,14.224" transform="translate(-289.69 -356.5)"/>
          </g>
          <g id="Grupo_118114" data-name="Grupo 118114" transform="translate(94.312 108.276)" opacity="0.2">
            <path id="Trazado_161669" data-name="Trazado 161669" d="M394.117,342.282l3.16,39.442a11.611,11.611,0,0,0,.692,3.655,3.934,3.934,0,0,0,2.655,2.42c1.869.38,3.68-1.227,4.208-3.059a11.008,11.008,0,0,0-.352-5.642c-.781-3.154-1.669-6.28-2.556-9.407l-7.719-27.205" transform="translate(-394.117 -342.282)"/>
          </g>
          <g id="Grupo_118115" data-name="Grupo 118115" transform="translate(44.096 125.718)">
            <path id="Trazado_161670" data-name="Trazado 161670" d="M321.107,422.431a7.622,7.622,0,0,0,.877-2.094,9.882,9.882,0,0,0-.981-6.011c-.544-1.191-1.311-2.429-2.083-3.793a16.511,16.511,0,0,1-1.952-4.659,11.089,11.089,0,0,1,.408-5.58c.565-1.859,1.408-3.664,2.087-5.554a16.607,16.607,0,0,0,.288-11.028,16.222,16.222,0,0,0-2.185-4.376,17,17,0,0,0-2.915-3.128,17.273,17.273,0,0,0-5.414-3.02c-1.4-.469-2.218-.6-2.208-.651a2.279,2.279,0,0,1,.6.052,12.366,12.366,0,0,1,1.68.376,16.433,16.433,0,0,1,5.611,2.912,17,17,0,0,1,3.052,3.166,16.464,16.464,0,0,1,2.308,4.495,16.958,16.958,0,0,1-.248,11.4c-.694,1.926-1.536,3.72-2.09,5.523a10.606,10.606,0,0,0-.429,5.3,16.289,16.289,0,0,0,1.846,4.528c.747,1.365,1.5,2.622,2.036,3.863a9.82,9.82,0,0,1,.82,6.238,5.476,5.476,0,0,1-.71,1.582A2.182,2.182,0,0,1,321.107,422.431Z" transform="translate(-307.028 -372.531)" fill="#fafafa"/>
          </g>
          <g id="Grupo_118116" data-name="Grupo 118116" transform="translate(90.314 72.869)">
            <path id="Trazado_161671" data-name="Trazado 161671" d="M409.172,288.767a3.237,3.237,0,0,1-.559,1.148,8.392,8.392,0,0,1-2.5,2.429,10.662,10.662,0,0,1-4.916,1.626,16.262,16.262,0,0,1-6.28-.8,13.091,13.091,0,0,1-5.481-3.182,8.138,8.138,0,0,1-1.6-2.308,7.574,7.574,0,0,1-.621-2.364,6.008,6.008,0,0,1,.641-3.432,3.286,3.286,0,0,1,.292-.468,2.015,2.015,0,0,1,.251-.315c.148-.16.232-.236.248-.223.044.035-.256.381-.581,1.109a6.168,6.168,0,0,0-.428,3.282,7.409,7.409,0,0,0,.65,2.2,7.837,7.837,0,0,0,1.541,2.13,12.937,12.937,0,0,0,5.269,3,16.35,16.35,0,0,0,6.054.822,10.63,10.63,0,0,0,4.736-1.436,9.1,9.1,0,0,0,2.538-2.2C408.917,289.145,409.126,288.744,409.172,288.767Z" transform="translate(-387.183 -280.875)" fill="#fafafa"/>
          </g>
          <g id="Grupo_118117" data-name="Grupo 118117" transform="translate(90.433 80.043)">
            <path id="Trazado_161672" data-name="Trazado 161672" d="M401.367,356.061a.723.723,0,0,1-.061-.161c-.039-.125-.088-.284-.15-.483-.131-.447-.315-1.071-.548-1.866-.469-1.645-1.138-3.989-1.963-6.877-1.634-5.832-3.883-13.856-6.366-22.719-1.231-4.44-2.4-8.669-3.47-12.519a43.01,43.01,0,0,1-1.228-5.547,17,17,0,0,1-.016-4.954,10.666,10.666,0,0,1,3.261-6.274,7.89,7.89,0,0,1,1.619-1.088l.468-.2a.733.733,0,0,1,.163-.057,9.027,9.027,0,0,0-2.171,1.43,10.678,10.678,0,0,0-3.13,6.221,16.957,16.957,0,0,0,.052,4.887,43.681,43.681,0,0,0,1.248,5.508l3.492,12.512,6.282,22.742,1.871,6.9.494,1.881c.05.2.09.364.122.491A.737.737,0,0,1,401.367,356.061Z" transform="translate(-387.391 -293.317)" fill="#263238"/>
          </g>
          <g id="Grupo_118118" data-name="Grupo 118118" transform="translate(53.496 9.205)">
            <path id="Trazado_161673" data-name="Trazado 161673" d="M350.762,176.357a6.1,6.1,0,0,0,.005-1.234,4.813,4.813,0,0,0-1.594-2.864,6.486,6.486,0,0,0-4.591-1.516,20,20,0,0,0-5.965,1.334c-1.042.343-2.068.671-3.087.9a16.017,16.017,0,0,1-2.982.363,16.206,16.206,0,0,1-5.023-.66,15.6,15.6,0,0,1-3.144-1.333c-.353-.2-.615-.367-.79-.488a1.321,1.321,0,0,1-.259-.194c.017-.027.389.218,1.1.579a17.336,17.336,0,0,0,3.148,1.232,16.529,16.529,0,0,0,4.956.588,16.126,16.126,0,0,0,2.926-.373c1-.225,2.017-.551,3.058-.894a19.748,19.748,0,0,1,6.056-1.325,6.642,6.642,0,0,1,4.738,1.636,4.823,4.823,0,0,1,1.566,3.007A2.805,2.805,0,0,1,350.762,176.357Z" transform="translate(-323.331 -170.465)" fill="#455a64"/>
          </g>
          <g id="Grupo_118119" data-name="Grupo 118119" transform="translate(82.507 12.439)">
            <path id="Trazado_161674" data-name="Trazado 161674" d="M379.994,195.964a.8.8,0,0,1-.134-.215c-.081-.144-.188-.363-.317-.65a13.078,13.078,0,0,1-.812-2.534,13.978,13.978,0,0,1-.263-3.942,35.115,35.115,0,0,1,.91-4.737,9.275,9.275,0,0,0,.009-4.687,4.742,4.742,0,0,0-.977-1.776,3.572,3.572,0,0,0-1.465-.961,3.349,3.349,0,0,0-2.517.065,4.845,4.845,0,0,0-.783.548,1.945,1.945,0,0,1,.729-.652,3.383,3.383,0,0,1,2.639-.161,3.744,3.744,0,0,1,1.582.994,4.941,4.941,0,0,1,1.056,1.861,9.39,9.39,0,0,1,.021,4.831,37.716,37.716,0,0,0-.928,4.7,14.437,14.437,0,0,0,.2,3.878,15.274,15.274,0,0,0,.712,2.532A9.267,9.267,0,0,1,379.994,195.964Z" transform="translate(-373.645 -176.073)" fill="#455a64"/>
          </g>
          <g id="Grupo_118120" data-name="Grupo 118120" transform="translate(52.411 2.806)">
            <path id="Trazado_161675" data-name="Trazado 161675" d="M350.944,170.834a2.153,2.153,0,0,1,0-.41c.012-.3.026-.686.044-1.169a13.552,13.552,0,0,0-.471-4.235,7.479,7.479,0,0,0-1.363-2.573,5.26,5.26,0,0,0-2.734-1.806,6.9,6.9,0,0,0-3.649.149,16.878,16.878,0,0,0-3.649,1.654,30.2,30.2,0,0,1-3.618,1.861,11.081,11.081,0,0,1-3.729.749,11.792,11.792,0,0,1-3.415-.419,13.208,13.208,0,0,1-2.771-1.142,11.326,11.326,0,0,1-3.28-2.8,7.123,7.123,0,0,1-.665-.969,2.161,2.161,0,0,1-.2-.359,2.082,2.082,0,0,1,.249.326,8.859,8.859,0,0,0,.7.928,11.728,11.728,0,0,0,3.294,2.689,13.236,13.236,0,0,0,2.732,1.086,11.659,11.659,0,0,0,3.343.383,10.886,10.886,0,0,0,3.628-.746,30.625,30.625,0,0,0,3.58-1.85,16.919,16.919,0,0,1,3.716-1.676,7.144,7.144,0,0,1,3.8-.134,5.5,5.5,0,0,1,2.855,1.916,7.62,7.62,0,0,1,1.373,2.669,12.967,12.967,0,0,1,.385,4.3c-.03.509-.07.9-.1,1.169A2.038,2.038,0,0,1,350.944,170.834Z" transform="translate(-321.449 -159.366)" fill="#455a64"/>
          </g>
          <g id="Grupo_118128" data-name="Grupo 118128" transform="translate(38.656 148.184)">
            <g id="Grupo_118126" data-name="Grupo 118126">
              <g id="Grupo_118122" data-name="Grupo 118122">
                <path id="Trazado_161676" data-name="Trazado 161676" d="M345.22,421.761l43.12-6.431-.7-3.834h23.208l.68,5.9a17.842,17.842,0,0,1-17.34,21.21l-50.293-.559Z" transform="translate(-317.2 -411.495)" fill="#b78876"/>
                <g id="Grupo_118121" data-name="Grupo 118121" transform="translate(0 6.842)">
                  <path id="Trazado_161677" data-name="Trazado 161677" d="M328.726,427.526a45.576,45.576,0,0,1-5.737-2.429,18.766,18.766,0,0,0-8.832-1.712l-11.989.609a5.873,5.873,0,0,0,2.012,2.681c1.271.7,8.725.854,8.725.854l-.382.393a8.622,8.622,0,0,1-5.967,2.611l-1.145.029a11.216,11.216,0,0,1-2.5-.489l-2.957-1.2c-.895-.4-1.84-.338-2.229.563-.352.815-.094,1.938,2.347,3.167,1.364.688,6.424,2.437,6.424,2.437a12.218,12.218,0,0,0,.295,2.135c.221.736,2.209,1.473,2.209,1.473a26.223,26.223,0,0,0,1.767,3.166,18.2,18.2,0,0,0,3.947,1.362,16.977,16.977,0,0,0,9.447-.072l4.569-1.364V427.83" transform="translate(-297.594 -423.361)" fill="#b78876"/>
                </g>
              </g>
              <g id="Grupo_118123" data-name="Grupo 118123" transform="translate(8.682 18.5)">
                <path id="Trazado_161678" data-name="Trazado 161678" d="M318.7,445.179a13.653,13.653,0,0,1-6.05-1.591c.034-.082,1.342.422,3.009.857S318.712,445.091,318.7,445.179Z" transform="translate(-312.652 -443.579)" fill="#aa6550"/>
              </g>
              <g id="Grupo_118124" data-name="Grupo 118124" transform="translate(11.106 22.025)">
                <path id="Trazado_161679" data-name="Trazado 161679" d="M320.06,450.575a4.409,4.409,0,0,1-3.2-.87,58.562,58.562,0,0,0,3.2.87Z" transform="translate(-316.856 -449.693)" fill="#aa6550"/>
              </g>
              <g id="Grupo_118125" data-name="Grupo 118125" transform="translate(71.103 3.627)">
                <path id="Trazado_161680" data-name="Trazado 161680" d="M432.336,428.05c-.055.02-.341-.834-1.033-2.1a16.717,16.717,0,0,0-1.38-2.112,16.711,16.711,0,0,0-4.572-4.1,16.763,16.763,0,0,0-2.248-1.146c-1.33-.552-2.21-.744-2.2-.8a2.545,2.545,0,0,1,.624.1,6.042,6.042,0,0,1,.718.187c.276.087.6.172.932.313a14.988,14.988,0,0,1,2.312,1.105,15.734,15.734,0,0,1,4.65,4.175,14.988,14.988,0,0,1,1.348,2.179c.176.319.3.629.412.894a6.063,6.063,0,0,1,.264.694A2.548,2.548,0,0,1,432.336,428.05Z" transform="translate(-420.908 -417.785)" fill="#aa6550"/>
              </g>
            </g>
            <g id="Grupo_118127" data-name="Grupo 118127" transform="translate(8.551 9.927)">
              <path id="Trazado_161681" data-name="Trazado 161681" d="M320.374,428.713a5.274,5.274,0,0,1-.926.989,14.871,14.871,0,0,1-2.612,1.978,10.383,10.383,0,0,1-3.061,1.181,4.384,4.384,0,0,1-1.35.146,17.5,17.5,0,0,0,4.26-1.587,20.39,20.39,0,0,0,2.623-1.878A7.113,7.113,0,0,1,320.374,428.713Z" transform="translate(-312.425 -428.711)" fill="#aa6550"/>
            </g>
          </g>
        </g>
      </g>
      <g id="Character_1" data-name="Character 1" transform="translate(61.139 161.028)">
        <g id="Grupo_118269" data-name="Grupo 118269" transform="translate(0 0)">
          <path id="Trazado_161682" data-name="Trazado 161682" d="M103.316,352.02c1.028,0-7.854,23.858-10.14,29.952-.253.675-.43,1.269-.43,1.269l62.171.108-.733-57.847a1.078,1.078,0,0,0-.008-.114l-5.2-41.378a1.017,1.017,0,0,0-.743-.857c-2.462-.668-11.333-2.957-18.119-3.209-7.956-.295-19.461,1.284-19.461,1.284s-10.324,1.065-16.006,3.114a1.02,1.02,0,0,0-.666,1.1Z" transform="translate(-74.521 -214.124)" fill="#e8505b"/>
          <g id="Grupo_118130" data-name="Grupo 118130" transform="translate(41.115 112.254)">
            <path id="Trazado_161683" data-name="Trazado 161683" d="M148.836,360.5a4.268,4.268,0,0,1-.312.751,7.213,7.213,0,0,1-.436.849,12.149,12.149,0,0,1-.66,1.08,13.518,13.518,0,0,1-.908,1.237c-.332.443-.744.867-1.166,1.323a18.639,18.639,0,0,1-6.715,4.4c-.587.2-1.141.412-1.679.54a13.478,13.478,0,0,1-1.5.338,11.993,11.993,0,0,1-1.254.173,7.266,7.266,0,0,1-.953.061,4.185,4.185,0,0,1-.812-.014c0-.066,1.159-.059,2.978-.428a14.363,14.363,0,0,0,1.47-.37c.528-.135,1.071-.349,1.646-.558a19.429,19.429,0,0,0,6.619-4.335c.421-.445.834-.856,1.169-1.286a14.492,14.492,0,0,0,.925-1.2C148.318,361.543,148.776,360.474,148.836,360.5Z" transform="translate(-132.444 -360.503)" fill="#263238"/>
          </g>
          <g id="Grupo_118131" data-name="Grupo 118131" transform="translate(20.336 145.571)" opacity="0.2">
            <path id="Trazado_161684" data-name="Trazado 161684" d="M96.407,436.051a18.3,18.3,0,0,0,17.837-2.231c2.242-1.628,4.123-3.755,6.542-5.106,3.355-1.872,7.355-2.049,11.186-2.323a54.521,54.521,0,0,0,15.12-2.782,6.045,6.045,0,0,0,2.644-1.6,2.355,2.355,0,0,0,.24-2.875c-.666-.83-1.892-.877-2.956-.846-16.078.475-30.769,1.764-46.418,5.482" transform="translate(-96.407 -418.283)"/>
          </g>
          <path id="Trazado_161685" data-name="Trazado 161685" d="M126.458,172.126c4.969-5.059,12.812-8.046,19.308-5.2,4.368,1.911,7.331,6.011,11.165,8.845,2.792,2.064,6.242,3.659,7.705,6.808,1.29,2.776.668,6.007.356,9.053s-.093,6.558,2.265,8.509c1.239,1.025,2.867,1.43,4.262,2.229,2.808,1.608,4.476,4.739,5.077,7.919a33.788,33.788,0,0,1-.05,9.671l-13.382,2.55-2.2-3.7-.766,5.813-17.078,1.541Z" transform="translate(-88.795 -165.821)" fill="#263238"/>
          <g id="Grupo_118198" data-name="Grupo 118198" transform="translate(34.373 10.301)">
            <g id="Grupo_118197" data-name="Grupo 118197">
              <g id="Grupo_118196" data-name="Grupo 118196">
                <g id="Grupo_118185" data-name="Grupo 118185">
                  <g id="Grupo_118184" data-name="Grupo 118184">
                    <g id="Grupo_118183" data-name="Grupo 118183">
                      <g id="Grupo_118136" data-name="Grupo 118136">
                        <g id="Grupo_118135" data-name="Grupo 118135">
                          <g id="Grupo_118134" data-name="Grupo 118134">
                            <g id="Grupo_118133" data-name="Grupo 118133">
                              <g id="Grupo_118132" data-name="Grupo 118132">
                                <path id="Trazado_161686" data-name="Trazado 161686" d="M121.835,185.213l-.029,3.724-1.053,55.818c-.092,6.47,6.1,11.979,13.027,12.025h0c7,.046,9.851-5.211,10.051-11.745.21-6.859.558-14.075.558-14.075s8.877-1.223,11.025-12.7c1.068-5.708,1.04-15.116.767-22.814a12.178,12.178,0,0,0-13.115-11.719Z" transform="translate(-120.752 -183.686)" fill="#ffbe9d"/>
                              </g>
                            </g>
                          </g>
                        </g>
                      </g>
                      <g id="Grupo_118148" data-name="Grupo 118148" transform="translate(27.414 14.956)">
                        <g id="Grupo_118141" data-name="Grupo 118141" transform="translate(2.021 2.84)">
                          <g id="Grupo_118140" data-name="Grupo 118140">
                            <g id="Grupo_118139" data-name="Grupo 118139">
                              <g id="Grupo_118138" data-name="Grupo 118138">
                                <g id="Grupo_118137" data-name="Grupo 118137">
                                  <path id="Trazado_161687" data-name="Trazado 161687" d="M174.755,215.925a1.479,1.479,0,0,1-1.467,1.452A1.414,1.414,0,0,1,171.8,216a1.479,1.479,0,0,1,1.465-1.454A1.416,1.416,0,0,1,174.755,215.925Z" transform="translate(-171.801 -214.548)" fill="#263238"/>
                                </g>
                              </g>
                            </g>
                          </g>
                        </g>
                        <g id="Grupo_118147" data-name="Grupo 118147">
                          <g id="Grupo_118146" data-name="Grupo 118146">
                            <g id="Grupo_118145" data-name="Grupo 118145">
                              <g id="Grupo_118144" data-name="Grupo 118144">
                                <g id="Grupo_118143" data-name="Grupo 118143">
                                  <g id="Grupo_118142" data-name="Grupo 118142">
                                    <path id="Trazado_161688" data-name="Trazado 161688" d="M174.138,211.259c-.188.187-1.286-.672-2.877-.712-1.589-.062-2.779.724-2.946.524-.082-.089.114-.431.633-.788a4.063,4.063,0,0,1,2.365-.658,3.9,3.9,0,0,1,2.283.808C174.074,210.822,174.231,211.175,174.138,211.259Z" transform="translate(-168.297 -209.623)" fill="#263238"/>
                                  </g>
                                </g>
                              </g>
                            </g>
                          </g>
                        </g>
                      </g>
                      <g id="Grupo_118160" data-name="Grupo 118160" transform="translate(11.767 14.821)">
                        <g id="Grupo_118153" data-name="Grupo 118153" transform="translate(1.996 2.974)">
                          <g id="Grupo_118152" data-name="Grupo 118152">
                            <g id="Grupo_118151" data-name="Grupo 118151">
                              <g id="Grupo_118150" data-name="Grupo 118150">
                                <g id="Grupo_118149" data-name="Grupo 118149">
                                  <path id="Trazado_161689" data-name="Trazado 161689" d="M147.574,215.925a1.479,1.479,0,0,1-1.467,1.452A1.415,1.415,0,0,1,144.62,216a1.48,1.48,0,0,1,1.466-1.454A1.416,1.416,0,0,1,147.574,215.925Z" transform="translate(-144.62 -214.548)" fill="#263238"/>
                                </g>
                              </g>
                            </g>
                          </g>
                        </g>
                        <g id="Grupo_118159" data-name="Grupo 118159">
                          <g id="Grupo_118158" data-name="Grupo 118158">
                            <g id="Grupo_118157" data-name="Grupo 118157">
                              <g id="Grupo_118156" data-name="Grupo 118156">
                                <g id="Grupo_118155" data-name="Grupo 118155">
                                  <g id="Grupo_118154" data-name="Grupo 118154">
                                    <path id="Trazado_161690" data-name="Trazado 161690" d="M147,211.026c-.189.187-1.288-.672-2.877-.712-1.589-.063-2.779.724-2.947.524-.081-.088.113-.431.633-.787a4.058,4.058,0,0,1,2.365-.658,3.9,3.9,0,0,1,2.284.807C146.936,210.589,147.093,210.942,147,211.026Z" transform="translate(-141.159 -209.39)" fill="#263238"/>
                                  </g>
                                </g>
                              </g>
                            </g>
                          </g>
                        </g>
                      </g>
                      <g id="Grupo_118166" data-name="Grupo 118166" transform="translate(22.676 15.139)">
                        <g id="Grupo_118165" data-name="Grupo 118165">
                          <g id="Grupo_118164" data-name="Grupo 118164">
                            <g id="Grupo_118163" data-name="Grupo 118163">
                              <g id="Grupo_118162" data-name="Grupo 118162">
                                <g id="Grupo_118161" data-name="Grupo 118161">
                                  <path id="Trazado_161691" data-name="Trazado 161691" d="M160.46,223.217a10.559,10.559,0,0,1,2.6-.395c.408-.031.794-.1.871-.377a2.073,2.073,0,0,0-.238-1.211q-.533-1.49-1.116-3.126c-1.547-4.451-2.655-8.106-2.475-8.166s1.58,3.5,3.127,7.948c.371,1.1.727,2.143,1.065,3.144a2.351,2.351,0,0,1,.167,1.6,1.02,1.02,0,0,1-.684.575,2.757,2.757,0,0,1-.692.077A10.372,10.372,0,0,1,160.46,223.217Z" transform="translate(-160.079 -209.941)" fill="#263238"/>
                                </g>
                              </g>
                            </g>
                          </g>
                        </g>
                      </g>
                      <g id="Grupo_118171" data-name="Grupo 118171" transform="translate(8.311 42.728)">
                        <g id="Grupo_118170" data-name="Grupo 118170">
                          <g id="Grupo_118169" data-name="Grupo 118169">
                            <g id="Grupo_118168" data-name="Grupo 118168">
                              <g id="Grupo_118167" data-name="Grupo 118167">
                                <path id="Trazado_161692" data-name="Trazado 161692" d="M150.492,262.333a29.336,29.336,0,0,1-15.326-4.544s3.527,8.023,15.1,7.262Z" transform="translate(-135.166 -257.789)" fill="#eb996e"/>
                              </g>
                            </g>
                          </g>
                        </g>
                      </g>
                      <g id="Grupo_118176" data-name="Grupo 118176" transform="translate(17.504 31.086)">
                        <g id="Grupo_118175" data-name="Grupo 118175">
                          <g id="Grupo_118174" data-name="Grupo 118174">
                            <g id="Grupo_118173" data-name="Grupo 118173">
                              <g id="Grupo_118172" data-name="Grupo 118172">
                                <path id="Trazado_161693" data-name="Trazado 161693" d="M155.884,238.743a2.867,2.867,0,0,0-2.541-1.136,2.618,2.618,0,0,0-1.834.92,1.659,1.659,0,0,0-.179,1.893,1.926,1.926,0,0,0,2.071.585,6.032,6.032,0,0,0,2.067-1.158,1.759,1.759,0,0,0,.468-.458.533.533,0,0,0,.014-.593" transform="translate(-151.11 -237.598)" fill="#eb996e"/>
                              </g>
                            </g>
                          </g>
                        </g>
                      </g>
                      <g id="Grupo_118182" data-name="Grupo 118182" transform="translate(18.062 29.386)">
                        <g id="Grupo_118181" data-name="Grupo 118181">
                          <g id="Grupo_118180" data-name="Grupo 118180">
                            <g id="Grupo_118179" data-name="Grupo 118179">
                              <g id="Grupo_118178" data-name="Grupo 118178">
                                <g id="Grupo_118177" data-name="Grupo 118177">
                                  <path id="Trazado_161694" data-name="Trazado 161694" d="M152.359,234.651c.259-.008.215,1.719,1.659,2.986s3.288,1.127,3.295,1.369c.021.109-.419.324-1.2.323a4.3,4.3,0,0,1-2.753-1.045,3.747,3.747,0,0,1-1.281-2.5C152.037,235.06,152.242,234.638,152.359,234.651Z" transform="translate(-152.076 -234.65)" fill="#263238"/>
                                </g>
                              </g>
                            </g>
                          </g>
                        </g>
                      </g>
                    </g>
                  </g>
                </g>
                <g id="Grupo_118190" data-name="Grupo 118190" transform="translate(10.834 10.549)">
                  <g id="Grupo_118189" data-name="Grupo 118189">
                    <g id="Grupo_118188" data-name="Grupo 118188">
                      <g id="Grupo_118187" data-name="Grupo 118187">
                        <g id="Grupo_118186" data-name="Grupo 118186">
                          <path id="Trazado_161695" data-name="Trazado 161695" d="M146.821,203.261c-.169.428-1.752.179-3.624.353-1.877.136-3.4.641-3.634.246-.106-.189.168-.588.788-.99a6.329,6.329,0,0,1,5.53-.457C146.559,202.708,146.895,203.057,146.821,203.261Z" transform="translate(-139.542 -201.981)" fill="#263238"/>
                        </g>
                      </g>
                    </g>
                  </g>
                </g>
                <g id="Grupo_118195" data-name="Grupo 118195" transform="translate(26.729 11.634)">
                  <g id="Grupo_118194" data-name="Grupo 118194">
                    <g id="Grupo_118193" data-name="Grupo 118193">
                      <g id="Grupo_118192" data-name="Grupo 118192">
                        <g id="Grupo_118191" data-name="Grupo 118191">
                          <path id="Trazado_161696" data-name="Trazado 161696" d="M173.694,205.606c-.351.352-1.674-.06-3.278-.122-1.6-.108-2.969.161-3.272-.225-.132-.187.092-.544.695-.87a5.293,5.293,0,0,1,2.682-.518,5.193,5.193,0,0,1,2.6.8C173.673,205.056,173.849,205.434,173.694,205.606Z" transform="translate(-167.108 -203.863)" fill="#263238"/>
                        </g>
                      </g>
                    </g>
                  </g>
                </g>
              </g>
            </g>
          </g>
          <path id="Trazado_161697" data-name="Trazado 161697" d="M84.7,285.767S66.154,290.118,62.558,307.7c-1.653,8.08-3.968,54.475,6.84,61.682,13.95,9.3,31.681.837,31.681.837L98.8,347.78H87.289L85.735,323.2C86.169,325.082,84.7,285.767,84.7,285.767Z" transform="translate(-61.139 -216.606)" fill="#e8505b"/>
          <path id="Trazado_161698" data-name="Trazado 161698" d="M205.272,363.035a14.339,14.339,0,0,0,12.862-14.886l-7.573-32.187s-4.912-27.622-20.443-30.113l5.292,42.111-.5,8.875s.24,5.871.837,16.87Z" transform="translate(-115.749 -216.641)" fill="#e8505b"/>
          <g id="Grupo_118199" data-name="Grupo 118199" transform="translate(79.479 126.176)">
            <path id="Trazado_161699" data-name="Trazado 161699" d="M211.033,384.724a19.824,19.824,0,0,0-2.8.307,11.355,11.355,0,0,0-8.91,9.1,19.647,19.647,0,0,0-.249,2.8,3.1,3.1,0,0,1-.088-.759,10.087,10.087,0,0,1,.129-2.08,11.163,11.163,0,0,1,9.077-9.267,10.076,10.076,0,0,1,2.077-.171A3.1,3.1,0,0,1,211.033,384.724Z" transform="translate(-198.978 -384.648)" fill="#263238"/>
          </g>
          <path id="Trazado_161700" data-name="Trazado 161700" d="M111.9,173.935c2.088,2.8,3.081,4.957,4.333,9.943.613,2.441-1.372,4.166-3.344,5.656a1.59,1.59,0,0,1-2.513-.92h0s.685,7.639-2.078,11.065a6.608,6.608,0,0,0-1.042,5.4,9.162,9.162,0,0,0,2.467,4.672,11.531,11.531,0,0,1,1.883,12.989,34.122,34.122,0,0,0-1.756,3.137,4.727,4.727,0,0,0-.368,2.027,1.606,1.606,0,0,1-1.361,1.706,126.106,126.106,0,0,1-28.658.861,1.572,1.572,0,0,1-1.4-1.188c-.748-3.166.5-6.618,2.1-9.533,1.787-3.255,4.062-6.379,4.677-10.041.578-3.446-.362-7.163,1.022-10.371,1.7-3.938,6.318-5.8,8.631-9.412,2.182-3.408,2.007-7.878,3.961-11.421a10.924,10.924,0,0,1,13.45-4.572" transform="translate(-68.207 -168.916)" fill="#263238"/>
          <path id="Trazado_161701" data-name="Trazado 161701" d="M137.507,178.545c3.626,1.864,5.3,6.3,8.824,8.352,3.208,1.869,7.212,1.376,10.884.825q-.205-1.222-.409-2.444a6.594,6.594,0,0,0,1.361,1.978,2.236,2.236,0,0,0,2.232.528c1.232-.5,1.4-2.191,1.079-3.481a11.951,11.951,0,0,0-3.206-5.43,16.258,16.258,0,0,0-21.21-1.7" transform="translate(-93.284 -169.294)" fill="#263238"/>
          <g id="Grupo_118200" data-name="Grupo 118200" transform="translate(78.179 91.33)">
            <path id="Trazado_161702" data-name="Trazado 161702" d="M196.77,324.214a2.577,2.577,0,0,1,.035.453q.015.488.039,1.3c.022,1.128.08,2.76.165,4.774.165,4.031.542,9.591,1,15.731s.8,11.711.909,15.748c.059,2.018.083,3.652.069,4.781-.007.542-.012.974-.016,1.3a2.582,2.582,0,0,1-.027.453,2.55,2.55,0,0,1-.034-.453q-.016-.488-.04-1.3c-.023-1.127-.079-2.759-.165-4.774-.165-4.03-.542-9.591-1-15.734s-.8-11.709-.909-15.745c-.059-2.018-.084-3.652-.07-4.781.007-.542.012-.974.017-1.3A2.551,2.551,0,0,1,196.77,324.214Z" transform="translate(-196.724 -324.214)" fill="#263238"/>
          </g>
          <g id="Grupo_118201" data-name="Grupo 118201" transform="translate(24.086 99.413)">
            <path id="Trazado_161703" data-name="Trazado 161703" d="M104.975,369.994a1.331,1.331,0,0,1-.042-.322c-.016-.244-.036-.551-.06-.925-.047-.846-.111-2-.19-3.4-.164-2.874-.416-6.844-.716-11.228-.3-4.366-.578-8.316-.781-11.226-.092-1.406-.168-2.558-.224-3.4-.019-.375-.035-.681-.048-.927a1.34,1.34,0,0,1,0-.325,1.312,1.312,0,0,1,.057.32c.028.244.062.549.1.922.079.844.187,1.994.319,3.4.253,2.869.57,6.836.868,11.222s.519,8.359.629,11.238c.051,1.44.089,2.605.095,3.411,0,.375,0,.682,0,.928A1.311,1.311,0,0,1,104.975,369.994Z" transform="translate(-102.911 -338.232)" fill="#263238"/>
          </g>
          <g id="Grupo_118202" data-name="Grupo 118202" transform="translate(19.848 131.151)">
            <path id="Trazado_161704" data-name="Trazado 161704" d="M101.863,393.3c.005.054-.6.08-1.51.387a6.711,6.711,0,0,0-4.549,5.4c-.148.946-.072,1.549-.125,1.553a1.069,1.069,0,0,1-.089-.417,5.505,5.505,0,0,1,0-1.163,6.466,6.466,0,0,1,4.7-5.573,5.472,5.472,0,0,1,1.146-.2A1.079,1.079,0,0,1,101.863,393.3Z" transform="translate(-95.561 -393.276)" fill="#263238"/>
          </g>
          <g id="Grupo_118203" data-name="Grupo 118203" transform="translate(24.801 131.03)">
            <path id="Trazado_161705" data-name="Trazado 161705" d="M119.29,415.651a1.62,1.62,0,0,1-.066-.355c-.034-.266-.078-.605-.132-1.024-.106-.929-.252-2.208-.431-3.771-.338-3.221-.8-7.607-1.308-12.453l-.484-4.823.144.13-9.222-.054-2.677-.042-.716-.024a.922.922,0,0,1-.247-.025.936.936,0,0,1,.247-.025l.716-.024,2.677-.042,9.222-.053h.13l.013.13c.155,1.511.322,3.139.5,4.822.475,4.849.9,9.238,1.22,12.462.14,1.567.253,2.85.336,3.781.031.421.057.762.077,1.029A1.621,1.621,0,0,1,119.29,415.651Z" transform="translate(-104.151 -393.065)" fill="#263238"/>
          </g>
          <g id="Grupo_118204" data-name="Grupo 118204" transform="translate(2.499 141.656)">
            <path id="Trazado_161706" data-name="Trazado 161706" d="M102.914,423.454a2.686,2.686,0,0,1-.435.161l-1.265.4c-1.1.341-2.7.829-4.693,1.361a59.086,59.086,0,0,1-7.1,1.475,24.549,24.549,0,0,1-8.86-.42,37.65,37.65,0,0,1-4.436-1.25c-.7-.25-1.386-.507-2.048-.782-.33-.14-.658-.268-.973-.438l-.473-.239-.439-.283a10.824,10.824,0,0,1-2.781-2.727,18.94,18.94,0,0,1-1.713-2.924,34.466,34.466,0,0,1-1.744-4.57c-.168-.552-.295-.982-.372-1.275a2.709,2.709,0,0,1-.107-.452,2.665,2.665,0,0,1,.164.434l.426,1.257a38.845,38.845,0,0,0,1.824,4.513,19.248,19.248,0,0,0,1.722,2.869,10.664,10.664,0,0,0,2.731,2.643l.427.272.458.228c.3.162.631.289.959.426.657.27,1.338.524,2.035.77a38.244,38.244,0,0,0,4.4,1.235,24.625,24.625,0,0,0,8.76.439,62.5,62.5,0,0,0,7.086-1.406c2-.5,3.6-.961,4.713-1.267l1.281-.349A2.733,2.733,0,0,1,102.914,423.454Z" transform="translate(-65.472 -411.495)" fill="#263238"/>
          </g>
          <path id="Trazado_161707" data-name="Trazado 161707" d="M103.183,190.706a7.372,7.372,0,0,0-1.685-8.064,8.3,8.3,0,0,0-8.165-1.768,6.292,6.292,0,0,0-3.187,2.18,5.821,5.821,0,0,0,.323,6.741,8.5,8.5,0,0,0,6.3,3.063A16.154,16.154,0,0,0,103.8,191.4" transform="translate(-73.028 -172.024)" fill="#263238"/>
          <g id="Grupo_118212" data-name="Grupo 118212" transform="translate(37.845 104.737)">
            <g id="Grupo_118207" data-name="Grupo 118207" transform="translate(8.632)">
              <path id="Trazado_161708" data-name="Trazado 161708" d="M146.121,354.041c4.033,3.328,13.523,11.2,13.523,11.2l5.314-.946-16.1-13.543a2.139,2.139,0,0,0-2.925.162h0A2.137,2.137,0,0,0,146.121,354.041Z" transform="translate(-143.269 -348.646)" fill="#455a64"/>
              <path id="Trazado_161709" data-name="Trazado 161709" d="M144.171,351.131l-2.09-1.887a1.022,1.022,0,0,1-.1-1.416h0a1.021,1.021,0,0,1,1.47-.095l2.011,1.842Z" transform="translate(-141.744 -347.466)" fill="#455a64"/>
              <g id="Grupo_118205" data-name="Grupo 118205" transform="translate(5.834 4.676)">
                <path id="Trazado_161710" data-name="Trazado 161710" d="M154.675,355.578a13.988,13.988,0,0,1-2.808,2.967,13.953,13.953,0,0,1,2.808-2.967Z" transform="translate(-151.862 -355.575)" fill="#263238"/>
              </g>
              <g id="Grupo_118206" data-name="Grupo 118206" transform="translate(1.649 1.909)">
                <path id="Trazado_161711" data-name="Trazado 161711" d="M151.763,360.179a10.381,10.381,0,0,1-1.606-1.05c-.961-.693-2.257-1.7-3.621-2.885a5.988,5.988,0,0,1-1.7-1.951,2.8,2.8,0,0,1-.054-2.119,2.66,2.66,0,0,1,.853-1.146,1.07,1.07,0,0,1,.458-.25,4.812,4.812,0,0,1-.382.339,2.8,2.8,0,0,0-.729,1.13,2.64,2.64,0,0,0,.107,1.932,6.016,6.016,0,0,0,1.64,1.839c1.358,1.183,2.627,2.208,3.553,2.942A14.682,14.682,0,0,1,151.763,360.179Z" transform="translate(-144.604 -350.776)" fill="#263238"/>
              </g>
            </g>
            <g id="Grupo_118211" data-name="Grupo 118211" transform="translate(0 15.457)">
              <path id="Trazado_161712" data-name="Trazado 161712" d="M126.774,387.051c3.823-1.285,7.887-.42,11.71-1.7a10.142,10.142,0,0,0,3.613-1.782c1.214-1.079,1.832-2.664,2.8-3.968,2.895-3.9,8.3-4.705,13.13-5.2a9.771,9.771,0,0,1,3.381.048,3.312,3.312,0,0,1,2.457,2.12,2.035,2.035,0,0,1-1.524,2.565,2.446,2.446,0,0,1,1.993,2.163c.194,1.041.022,2.119.161,3.169.2,1.475,1,2.855.957,4.342-.064,2.035-1.751,3.712-3.631,4.5a24.007,24.007,0,0,1-5.976,1.169c-9.9,1.393-17.432,7.015-26.978,11.262" transform="translate(-126.774 -374.273)" fill="#ffbe9d"/>
              <path id="Trazado_161713" data-name="Trazado 161713" d="M189.072,383.9a1.366,1.366,0,0,0,1.951.4,2.092,2.092,0,0,0,.748-2.015,4.694,4.694,0,0,0-.955-2.028,26.109,26.109,0,0,0-2.771-3.06l-3.068,2.568Z" transform="translate(-151.417 -375.51)" fill="#ffbe9d"/>
              <g id="Grupo_118208" data-name="Grupo 118208" transform="translate(28.328 4.854)">
                <path id="Trazado_161714" data-name="Trazado 161714" d="M184.1,382.871c-.005.095-1.879-.059-4.148.292-2.272.334-4.016,1.034-4.049.946a4.04,4.04,0,0,1,1.119-.516,15.392,15.392,0,0,1,5.855-.885A4.072,4.072,0,0,1,184.1,382.871Z" transform="translate(-175.903 -382.691)" fill="#eb996e"/>
              </g>
              <g id="Grupo_118209" data-name="Grupo 118209" transform="translate(30.849 10.562)">
                <path id="Trazado_161715" data-name="Trazado 161715" d="M187.3,393.07c-.018.091-1.577-.229-3.52-.174s-3.484.438-3.507.348a11.285,11.285,0,0,1,7.026-.174Z" transform="translate(-180.274 -392.591)" fill="#eb996e"/>
              </g>
              <g id="Grupo_118210" data-name="Grupo 118210" transform="translate(36.057 1.864)">
                <path id="Trazado_161716" data-name="Trazado 161716" d="M190.8,384.907c-.048-.006,0-.451-.084-1.155a6.082,6.082,0,0,0-.929-2.561,5.869,5.869,0,0,0-.394-.534l-.086-.108.1-.094a2.778,2.778,0,0,0,.8-2.029c-.014-.573-.173-.9-.129-.92a1.516,1.516,0,0,1,.322.907,2.8,2.8,0,0,1-.784,2.253l.009-.2a5.609,5.609,0,0,1,.42.562,5.518,5.518,0,0,1,.889,2.707A2.59,2.59,0,0,1,190.8,384.907Z" transform="translate(-189.307 -377.506)" fill="#eb996e"/>
              </g>
            </g>
          </g>
          <path id="Trazado_161717" data-name="Trazado 161717" d="M192.068,388.247l5.031,4.72.643,2.8-4.652-1.05A20.145,20.145,0,0,1,192.068,388.247Z" transform="translate(-116.564 -259.996)" fill="#455a64"/>
          <path id="Trazado_161718" data-name="Trazado 161718" d="M160.345,397.725c-.1.185-27.142,13.516-27.142,13.516v2.867L160.8,399.755l34.237-1.292v-2.03Z" transform="translate(-91.651 -263.461)" fill="#f5f5f5"/>
          <path id="Trazado_161719" data-name="Trazado 161719" d="M133.2,416.011c.189-.129,29.854-2.8,29.854-2.8l31.976-13.254L160.8,401.246,133.2,415.6Z" transform="translate(-91.651 -264.952)" fill="#263238"/>
          <g id="Grupo_118216" data-name="Grupo 118216" transform="translate(69.917 137.064)">
            <path id="Trazado_161720" data-name="Trazado 161720" d="M182.444,410.425c-.24-1.554,1.248-2.885,2.764-3.3s3.138-.251,4.671-.6a21.3,21.3,0,0,0,2.85-1.015c4.729-1.815,9.917-1.909,14.981-1.979a3.215,3.215,0,0,1-1.149,3.93,5.293,5.293,0,0,1-.157,3.8,11.854,11.854,0,0,1-2.113,3.245,7.369,7.369,0,0,1-2.5,2.095,8.317,8.317,0,0,1-3.208.493c-3.4.072-7.041.074-9.852-1.836-2.184-1.484-3.7-4.031-6.23-4.784l.6.024" transform="translate(-182.405 -403.531)" fill="#ffbe9d"/>
            <g id="Grupo_118213" data-name="Grupo 118213" transform="translate(8.456 2.242)">
              <path id="Trazado_161721" data-name="Trazado 161721" d="M211.3,410.188a2.744,2.744,0,0,1-.65.062l-1.774.056c-1.5.035-3.567.062-5.853.073H199.8a4.445,4.445,0,0,1-1.425-.219,2.186,2.186,0,0,1-1.03-.751,1.368,1.368,0,0,1-.269-1.021,1.283,1.283,0,0,1,.358-.709.716.716,0,0,1,.608-.253,1.311,1.311,0,0,0-.523.333,1.182,1.182,0,0,0,0,1.523,2.008,2.008,0,0,0,.942.643,4.327,4.327,0,0,0,1.348.176l3.22-.025c2.286-.011,4.356,0,5.854.015l1.775.039A2.749,2.749,0,0,1,211.3,410.188Z" transform="translate(-197.06 -407.42)" fill="#eb996e"/>
            </g>
            <g id="Grupo_118214" data-name="Grupo 118214" transform="translate(0 6.57)">
              <path id="Trazado_161722" data-name="Trazado 161722" d="M203.353,416.213a4.342,4.342,0,0,1-.816.16c-.529.081-1.3.191-2.249.283a21.832,21.832,0,0,1-3.371.081,24.826,24.826,0,0,1-4.07-.684,31.7,31.7,0,0,0-7.365-.9c-.953,0-1.723.033-2.256.063a5.012,5.012,0,0,1-.831.025,3.985,3.985,0,0,1,.82-.141c.532-.065,1.3-.135,2.264-.159a28.69,28.69,0,0,1,7.433.823,26.413,26.413,0,0,0,4.023.7,24.051,24.051,0,0,0,3.336-.016c.95-.064,1.719-.141,2.252-.187A4.5,4.5,0,0,1,203.353,416.213Z" transform="translate(-182.395 -414.925)" fill="#eb996e"/>
            </g>
            <g id="Grupo_118215" data-name="Grupo 118215" transform="translate(2.256 8.179)">
              <path id="Trazado_161723" data-name="Trazado 161723" d="M202.187,420.438a2.662,2.662,0,0,1-.637.119c-.412.054-1.008.128-1.749.191a21.043,21.043,0,0,1-5.813-.188,25.624,25.624,0,0,1-5.4-2.133,13.755,13.755,0,0,0-2.277-.7,2,2,0,0,1,.649.034,8.274,8.274,0,0,1,1.707.468c1.409.5,3.172,1.617,5.384,2.037a23.788,23.788,0,0,0,5.74.27l1.753-.1A2.7,2.7,0,0,1,202.187,420.438Z" transform="translate(-186.307 -417.715)" fill="#eb996e"/>
            </g>
          </g>
          <g id="Grupo_118217" data-name="Grupo 118217" transform="translate(80.383 121.335)" opacity="0.2">
            <path id="Trazado_161724" data-name="Trazado 161724" d="M200.547,387.405a19.444,19.444,0,0,1,1.685-6.095,9.407,9.407,0,0,1,4.354-4.454,6.259,6.259,0,0,1,6.06.371,3.149,3.149,0,0,1,1.208,1.442,1.768,1.768,0,0,1-.291,1.792c-.638.676-1.714.569-2.642.528a11.121,11.121,0,0,0-10.28,6.194" transform="translate(-200.547 -376.252)"/>
          </g>
          <g id="Grupo_118218" data-name="Grupo 118218" transform="translate(24.275 104.083)" opacity="0.2">
            <path id="Trazado_161725" data-name="Trazado 161725" d="M109.276,372.981c2.291-4.132,1.479-9.316-.279-13.7s-4.385-8.419-5.727-12.949a79.954,79.954,0,0,0,3.949,27.08" transform="translate(-103.24 -346.331)"/>
          </g>
          <path id="Trazado_161726" data-name="Trazado 161726" d="M116.07,281.355s2.8,6.591,12.884,6.172,10.415-8.247,10.415-8.247l6.749,7.176-6.411,13.216-8.613,6.429-11.734-4.822-9.667-7.5Z" transform="translate(-81.697 -213.859)" fill="#e8505b"/>
          <g id="Grupo_118219" data-name="Grupo 118219" transform="translate(4.469 95.658)" opacity="0.5">
            <path id="Trazado_161727" data-name="Trazado 161727" d="M75.166,331.731a13.717,13.717,0,0,1-2.948,2.75,13.725,13.725,0,0,1-3.324,2.282,13.693,13.693,0,0,1,2.948-2.75A13.72,13.72,0,0,1,75.166,331.731Z" transform="translate(-68.889 -331.72)" fill="#fafafa"/>
          </g>
          <g id="Grupo_118220" data-name="Grupo 118220" transform="translate(9.355 84.797)">
            <path id="Trazado_161728" data-name="Trazado 161728" d="M83.48,316.646a7.471,7.471,0,0,1-3.369-1.363,7.481,7.481,0,0,1-2.741-2.387,21.68,21.68,0,0,1,3.055,1.875A21.72,21.72,0,0,1,83.48,316.646Z" transform="translate(-77.363 -312.884)" fill="#fafafa"/>
          </g>
          <g id="Grupo_118221" data-name="Grupo 118221" transform="translate(18.832 89.326)">
            <path id="Trazado_161729" data-name="Trazado 161729" d="M99.105,320.743c.136.1-1.138,1.958-2.589,4.31s-2.547,4.315-2.7,4.24a23.943,23.943,0,0,1,5.291-8.55Z" transform="translate(-93.799 -320.739)" fill="#fafafa"/>
          </g>
          <g id="Grupo_118222" data-name="Grupo 118222" transform="translate(12.552 102.206)">
            <path id="Trazado_161730" data-name="Trazado 161730" d="M87.09,350.238a14.135,14.135,0,0,1-4.156-7.159,30.716,30.716,0,0,1,2.061,3.589C86.129,348.633,87.224,350.127,87.09,350.238Z" transform="translate(-82.908 -343.077)" fill="#fafafa"/>
          </g>
          <g id="Grupo_118223" data-name="Grupo 118223" transform="translate(8.003 112.427)">
            <path id="Trazado_161731" data-name="Trazado 161731" d="M76.012,367.439a18.8,18.8,0,0,1-.9-6.636,18.8,18.8,0,0,1,.9,6.636Z" transform="translate(-75.019 -360.803)" fill="#fafafa"/>
          </g>
          <g id="Grupo_118224" data-name="Grupo 118224" transform="translate(16.266 115.1)" opacity="0.5">
            <path id="Trazado_161732" data-name="Trazado 161732" d="M89.366,372.042a24.376,24.376,0,0,1,3.829-6.6,12.383,12.383,0,0,1-1.655,3.452A12.4,12.4,0,0,1,89.366,372.042Z" transform="translate(-89.348 -365.438)" fill="#fafafa"/>
          </g>
          <g id="Grupo_118225" data-name="Grupo 118225" transform="translate(3.323 125.216)">
            <path id="Trazado_161733" data-name="Trazado 161733" d="M71.4,389.511a10.058,10.058,0,0,1-2.654-2.978,10.048,10.048,0,0,1-1.823-3.547,19.9,19.9,0,0,1,2.319,3.208A19.94,19.94,0,0,1,71.4,389.511Z" transform="translate(-66.902 -382.983)" fill="#fafafa"/>
          </g>
          <g id="Grupo_118226" data-name="Grupo 118226" transform="translate(12.974 130.08)">
            <path id="Trazado_161734" data-name="Trazado 161734" d="M89.986,391.426a17.173,17.173,0,0,1-2.956,3.409,17.111,17.111,0,0,1-3.383,2.987,17.177,17.177,0,0,1,2.956-3.41A17.123,17.123,0,0,1,89.986,391.426Z" transform="translate(-83.639 -391.419)" fill="#fafafa"/>
          </g>
          <g id="Grupo_118227" data-name="Grupo 118227" transform="translate(8.618 144.894)" opacity="0.5">
            <path id="Trazado_161735" data-name="Trazado 161735" d="M80.249,423.022a11.419,11.419,0,0,1-4.141-5.91,21.016,21.016,0,0,1,2.083,2.946A20.917,20.917,0,0,1,80.249,423.022Z" transform="translate(-76.086 -417.109)" fill="#fafafa"/>
          </g>
          <g id="Grupo_118228" data-name="Grupo 118228" transform="translate(20.992 146.594)">
            <path id="Trazado_161736" data-name="Trazado 161736" d="M104.178,420.077a12.379,12.379,0,0,1-3.166,2.151,12.374,12.374,0,0,1-3.464,1.629,12.384,12.384,0,0,1,3.166-2.151A12.4,12.4,0,0,1,104.178,420.077Z" transform="translate(-97.545 -420.059)" fill="#fafafa"/>
          </g>
          <g id="Grupo_118229" data-name="Grupo 118229" transform="translate(29.071 135.923)">
            <path id="Trazado_161737" data-name="Trazado 161737" d="M115.9,407.466a10.908,10.908,0,0,1-4.317-5.911,25.28,25.28,0,0,1,2.133,2.975A25.376,25.376,0,0,1,115.9,407.466Z" transform="translate(-111.556 -401.552)" fill="#fafafa"/>
          </g>
          <g id="Grupo_118230" data-name="Grupo 118230" transform="translate(36.428 108.622)">
            <path id="Trazado_161738" data-name="Trazado 161738" d="M131.5,354.214a16.991,16.991,0,0,1-3.409,2.928,17,17,0,0,1-3.77,2.448,17.016,17.016,0,0,1,3.41-2.929A17.017,17.017,0,0,1,131.5,354.214Z" transform="translate(-124.315 -354.203)" fill="#fafafa"/>
          </g>
          <g id="Grupo_118231" data-name="Grupo 118231" transform="translate(32.751 100.943)">
            <path id="Trazado_161739" data-name="Trazado 161739" d="M118.047,347.882a20.7,20.7,0,0,1,.717-7,20.738,20.738,0,0,1-.717,7Z" transform="translate(-117.939 -340.887)" fill="#fafafa"/>
          </g>
          <g id="Grupo_118232" data-name="Grupo 118232" transform="translate(35.709 88.403)" opacity="0.5">
            <path id="Trazado_161740" data-name="Trazado 161740" d="M130.134,325.166a14.128,14.128,0,0,1-3.841-2.645,14.106,14.106,0,0,1-3.217-3.375,25.755,25.755,0,0,1,3.607,2.919A25.782,25.782,0,0,1,130.134,325.166Z" transform="translate(-123.069 -319.137)" fill="#fafafa"/>
          </g>
          <g id="Grupo_118233" data-name="Grupo 118233" transform="translate(29.229 77.578)">
            <path id="Trazado_161741" data-name="Trazado 161741" d="M117.931,300.37a18.73,18.73,0,0,1-2.817,3.785,18.691,18.691,0,0,1-3.275,3.4,18.74,18.74,0,0,1,2.817-3.785A18.724,18.724,0,0,1,117.931,300.37Z" transform="translate(-111.831 -300.365)" fill="#fafafa"/>
          </g>
          <g id="Grupo_118234" data-name="Grupo 118234" transform="translate(20.668 73.609)" opacity="0.5">
            <path id="Trazado_161742" data-name="Trazado 161742" d="M103.115,295.651a20.54,20.54,0,0,1-3.054-1.075,20.451,20.451,0,0,1-3.078-1,8.524,8.524,0,0,1,6.132,2.079Z" transform="translate(-96.983 -293.482)" fill="#fafafa"/>
          </g>
          <g id="Grupo_118235" data-name="Grupo 118235" transform="translate(48.431 77.446)">
            <path id="Trazado_161743" data-name="Trazado 161743" d="M145.179,306.235a16.979,16.979,0,0,1,1.793-6.1,16.969,16.969,0,0,1-1.793,6.1Z" transform="translate(-145.133 -300.135)" fill="#fafafa"/>
          </g>
          <g id="Grupo_118236" data-name="Grupo 118236" transform="translate(53.485 90.718)">
            <path id="Trazado_161744" data-name="Trazado 161744" d="M154.07,329.252a15.7,15.7,0,0,1,.351-6.1,15.7,15.7,0,0,1-.351,6.1Z" transform="translate(-153.898 -323.153)" fill="#fafafa"/>
          </g>
          <g id="Grupo_118237" data-name="Grupo 118237" transform="translate(56.907 102.533)">
            <path id="Trazado_161745" data-name="Trazado 161745" d="M165.1,347.887a19.131,19.131,0,0,1-5.262-4.231,19.13,19.13,0,0,1,5.262,4.231Z" transform="translate(-159.833 -343.643)" fill="#fafafa"/>
          </g>
          <g id="Grupo_118238" data-name="Grupo 118238" transform="translate(65.816 92.859)">
            <path id="Trazado_161746" data-name="Trazado 161746" d="M180.719,326.877a21.952,21.952,0,0,1-5.429,4.789,21.984,21.984,0,0,1,5.429-4.789Z" transform="translate(-175.283 -326.867)" fill="#fafafa"/>
          </g>
          <g id="Grupo_118239" data-name="Grupo 118239" transform="translate(61.568 81.733)" opacity="0.5">
            <path id="Trazado_161747" data-name="Trazado 161747" d="M173.428,312.143a13.92,13.92,0,0,1-5.5-4.564,14.987,14.987,0,0,1,2.837,2.179A14.976,14.976,0,0,1,173.428,312.143Z" transform="translate(-167.915 -307.57)" fill="#fafafa"/>
          </g>
          <g id="Grupo_118240" data-name="Grupo 118240" transform="translate(73.213 74.595)">
            <path id="Trazado_161748" data-name="Trazado 161748" d="M192.465,295.2a8.457,8.457,0,0,1-4.348,4.086c-.093-.144.953-.968,2.135-2.085S192.327,295.1,192.465,295.2Z" transform="translate(-188.111 -295.191)" fill="#fafafa"/>
          </g>
          <g id="Grupo_118241" data-name="Grupo 118241" transform="translate(62.468 71.481)" opacity="0.5">
            <path id="Trazado_161749" data-name="Trazado 161749" d="M177.365,291.815a17.431,17.431,0,0,1-7.886-1.994,19.928,19.928,0,0,1,3.972.882A19.961,19.961,0,0,1,177.365,291.815Z" transform="translate(-169.478 -289.791)" fill="#fafafa"/>
          </g>
          <g id="Grupo_118242" data-name="Grupo 118242" transform="translate(83.712 82.475)" opacity="0.5">
            <path id="Trazado_161750" data-name="Trazado 161750" d="M206.356,318.523a27.283,27.283,0,0,1,2.952-9.664c.159.062-.544,2.21-1.353,4.87S206.522,318.559,206.356,318.523Z" transform="translate(-206.32 -308.857)" fill="#fafafa"/>
          </g>
          <g id="Grupo_118243" data-name="Grupo 118243" transform="translate(80.783 98.577)">
            <path id="Trazado_161751" data-name="Trazado 161751" d="M207.172,343.064a31.151,31.151,0,0,1-5.923-6.275,31.15,31.15,0,0,1,5.923,6.275Z" transform="translate(-201.241 -336.782)" fill="#fafafa"/>
          </g>
          <g id="Grupo_118244" data-name="Grupo 118244" transform="translate(91.073 103.633)" opacity="0.5">
            <path id="Trazado_161752" data-name="Trazado 161752" d="M219.323,353.984a29.764,29.764,0,0,1,.144-8.432,29.764,29.764,0,0,1-.144,8.432Z" transform="translate(-219.086 -345.552)" fill="#fafafa"/>
          </g>
          <g id="Grupo_118245" data-name="Grupo 118245" transform="translate(82.53 116.37)">
            <path id="Trazado_161753" data-name="Trazado 161753" d="M208.385,375.2a17.906,17.906,0,0,1-4.093-7.557,119.341,119.341,0,0,1,4.093,7.557Z" transform="translate(-204.269 -367.641)" fill="#fafafa"/>
          </g>
          <g id="Grupo_118246" data-name="Grupo 118246" transform="translate(94.552 126.083)">
            <path id="Trazado_161754" data-name="Trazado 161754" d="M229.124,384.5c.116.118-.684,1.087-1.786,2.164s-2.09,1.853-2.206,1.734.684-1.088,1.786-2.164S229.008,384.379,229.124,384.5Z" transform="translate(-225.121 -384.486)" fill="#fafafa"/>
          </g>
          <g id="Grupo_118247" data-name="Grupo 118247" transform="translate(69.537 105.639)" opacity="0.5">
            <path id="Trazado_161755" data-name="Trazado 161755" d="M181.76,355.964a11.755,11.755,0,0,1,4.779-6.925c.118.132-1.232,1.457-2.536,3.362S181.926,356.028,181.76,355.964Z" transform="translate(-181.736 -349.03)" fill="#fafafa"/>
          </g>
          <g id="Grupo_118248" data-name="Grupo 118248" transform="translate(35.892 120.873)">
            <path id="Trazado_161756" data-name="Trazado 161756" d="M123.432,382.972a25.109,25.109,0,0,1,1.851-7.52,25.1,25.1,0,0,1-1.851,7.52Z" transform="translate(-123.387 -375.451)" fill="#fafafa"/>
          </g>
          <g id="Grupo_118249" data-name="Grupo 118249" transform="translate(44.011 125.82)">
            <path id="Trazado_161757" data-name="Trazado 161757" d="M143.557,388.013a11.241,11.241,0,0,1-3.207-1.732,11.245,11.245,0,0,1-2.879-2.235,11.246,11.246,0,0,1,3.207,1.732A11.233,11.233,0,0,1,143.557,388.013Z" transform="translate(-137.467 -384.03)" fill="#fafafa"/>
          </g>
          <g id="Grupo_118250" data-name="Grupo 118250" transform="translate(46.85 115.814)">
            <path id="Trazado_161758" data-name="Trazado 161758" d="M144.932,370.449c-.138.092-.813-.676-1.508-1.715s-1.146-1.957-1.008-2.049.812.676,1.507,1.715S145.069,370.356,144.932,370.449Z" transform="translate(-142.391 -366.677)" fill="#fafafa"/>
          </g>
          <g id="Grupo_118251" data-name="Grupo 118251" transform="translate(52.572 121.886)">
            <path id="Trazado_161759" data-name="Trazado 161759" d="M155.378,377.235c.1.135-.511.726-1.354,1.318s-1.6.962-1.7.827.511-.726,1.355-1.318S155.283,377.1,155.378,377.235Z" transform="translate(-152.314 -377.207)" fill="#fafafa"/>
          </g>
          <g id="Grupo_118252" data-name="Grupo 118252" transform="translate(39.279 157.447)" opacity="0.5">
            <path id="Trazado_161760" data-name="Trazado 161760" d="M129.31,444.8a43.955,43.955,0,0,1,.882-5.921,9.234,9.234,0,0,1-.882,5.921Z" transform="translate(-129.259 -438.881)" fill="#fafafa"/>
          </g>
          <g id="Grupo_118253" data-name="Grupo 118253" transform="translate(49.314 151.01)" opacity="0.5">
            <path id="Trazado_161761" data-name="Trazado 161761" d="M151.049,435.4a32.648,32.648,0,0,1-4.368-7.677,32.592,32.592,0,0,1,4.368,7.677Z" transform="translate(-146.665 -427.717)" fill="#fafafa"/>
          </g>
          <g id="Grupo_118254" data-name="Grupo 118254" transform="translate(62.003 152.256)" opacity="0.5">
            <path id="Trazado_161762" data-name="Trazado 161762" d="M175.608,429.882a27.306,27.306,0,0,1-3.226,4.713,27.362,27.362,0,0,1-3.7,4.348,54.294,54.294,0,0,1,6.93-9.061Z" transform="translate(-168.669 -429.879)" fill="#fafafa"/>
          </g>
          <g id="Grupo_118255" data-name="Grupo 118255" transform="translate(64.624 164.435)" opacity="0.5">
            <path id="Trazado_161763" data-name="Trazado 161763" d="M181.827,451.068a16.005,16.005,0,0,1-4.262.92,16,16,0,0,1-4.349.326,16.006,16.006,0,0,1,4.263-.92A16.026,16.026,0,0,1,181.827,451.068Z" transform="translate(-173.216 -451)" fill="#fafafa"/>
          </g>
          <g id="Grupo_118256" data-name="Grupo 118256" transform="translate(73.819 152.782)">
            <path id="Trazado_161764" data-name="Trazado 161764" d="M189.24,436.342a50.718,50.718,0,0,1,.242-5.552,7.621,7.621,0,0,1-.242,5.552Z" transform="translate(-189.164 -430.789)" fill="#fafafa"/>
          </g>
          <g id="Grupo_118257" data-name="Grupo 118257" transform="translate(47.567 161.385)">
            <path id="Trazado_161765" data-name="Trazado 161765" d="M149.383,449.844a10.124,10.124,0,0,1-5.74-4.126,24.219,24.219,0,0,1,2.849,2.092A24.221,24.221,0,0,1,149.383,449.844Z" transform="translate(-143.634 -445.71)" fill="#fafafa"/>
          </g>
          <g id="Grupo_118258" data-name="Grupo 118258" transform="translate(28.806 158.869)">
            <path id="Trazado_161766" data-name="Trazado 161766" d="M111.154,447.086a14.722,14.722,0,0,1,1.444-5.738,14.727,14.727,0,0,1-1.444,5.738Z" transform="translate(-111.098 -441.347)" fill="#fafafa"/>
          </g>
          <g id="Grupo_118259" data-name="Grupo 118259" transform="translate(26.205 18.761)">
            <path id="Trazado_161767" data-name="Trazado 161767" d="M106.587,198.361c.037-.047.692.516,1.9,1.179a13.989,13.989,0,0,0,2.209.964,14.081,14.081,0,0,0,5.824.671,13.947,13.947,0,0,0,2.37-.437c1.326-.371,2.092-.771,2.118-.717a2.343,2.343,0,0,1-.524.3,5.215,5.215,0,0,1-.647.294,8.553,8.553,0,0,1-.886.322,12.572,12.572,0,0,1-2.4.509,13.384,13.384,0,0,1-5.942-.684,12.633,12.633,0,0,1-2.224-1.041,8.594,8.594,0,0,1-.79-.515,5.091,5.091,0,0,1-.563-.434A2.359,2.359,0,0,1,106.587,198.361Z" transform="translate(-106.587 -198.358)" fill="#455a64"/>
          </g>
          <g id="Grupo_118260" data-name="Grupo 118260" transform="translate(26.532 20.939)">
            <path id="Trazado_161768" data-name="Trazado 161768" d="M121.724,206.593a2.715,2.715,0,0,1-.629.194c-.409.1-1.006.239-1.752.369a15.983,15.983,0,0,1-5.906.035,9.194,9.194,0,0,1-5.1-2.91,6.285,6.285,0,0,1-.966-1.521,2.233,2.233,0,0,1-.211-.625,10.291,10.291,0,0,0,1.337,2.005,9.418,9.418,0,0,0,5,2.756,17.291,17.291,0,0,0,5.813.049c.744-.1,1.345-.2,1.761-.273A2.849,2.849,0,0,1,121.724,206.593Z" transform="translate(-107.154 -202.136)" fill="#455a64"/>
          </g>
          <g id="Grupo_118261" data-name="Grupo 118261" transform="translate(19.762 26.406)">
            <path id="Trazado_161769" data-name="Trazado 161769" d="M96.22,245.9s-.029-.024-.076-.08a2.925,2.925,0,0,1-.2-.257,3.334,3.334,0,0,1-.46-1.154,5.291,5.291,0,0,1,1.267-4.284,10.868,10.868,0,0,1,2.412-2.035c.945-.624,2.009-1.2,3.05-1.9A9.3,9.3,0,0,0,105,233.474a4.918,4.918,0,0,0,.691-1.905,5.952,5.952,0,0,0-.111-2.1,26.054,26.054,0,0,0-1.46-3.977,11.015,11.015,0,0,1-.975-3.881,10.351,10.351,0,0,1,1.978-6.391,9.69,9.69,0,0,1,3.4-3l.646-.309.495-.174a2.236,2.236,0,0,1,.413-.123,2.4,2.4,0,0,1-.392.18l-.48.2-.626.33a9.9,9.9,0,0,0-3.284,3.017,10.235,10.235,0,0,0-1.875,6.256,10.845,10.845,0,0,0,.971,3.783,25.683,25.683,0,0,1,1.481,4.024,6.212,6.212,0,0,1,.114,2.2,5.2,5.2,0,0,1-.735,2.017,9.5,9.5,0,0,1-2.874,2.788c-1.064.708-2.129,1.271-3.07,1.88a10.787,10.787,0,0,0-2.386,1.964,5.228,5.228,0,0,0-1.313,4.124A3.981,3.981,0,0,0,96.22,245.9Z" transform="translate(-95.412 -211.617)" fill="#455a64"/>
          </g>
          <g id="Grupo_118262" data-name="Grupo 118262" transform="translate(31.85 27.834)">
            <path id="Trazado_161770" data-name="Trazado 161770" d="M120.454,247.155a1.809,1.809,0,0,1-.334-.189,2.7,2.7,0,0,1-.744-.81,3.866,3.866,0,0,1-.519-1.662,6.286,6.286,0,0,1,.251-2.292c.468-1.693,1.883-3.233,2.945-5.167a6.464,6.464,0,0,0,.867-3.285,8.81,8.81,0,0,0-.926-3.559c-1.095-2.319-2.779-4.161-3.942-6.091a12.557,12.557,0,0,1-1.36-2.9,7.007,7.007,0,0,1-.283-2.78,5.5,5.5,0,0,1,1.679-3.606,3.908,3.908,0,0,1,.925-.593,1.783,1.783,0,0,1,.36-.128,5.913,5.913,0,0,0-1.206.808,5.483,5.483,0,0,0-1.546,3.539,6.859,6.859,0,0,0,.309,2.687,12.522,12.522,0,0,0,1.358,2.827c.589.943,1.288,1.884,2,2.876a20.422,20.422,0,0,1,1.98,3.233,9.048,9.048,0,0,1,.949,3.683,6.711,6.711,0,0,1-.918,3.421c-1.1,1.969-2.515,3.478-2.985,5.1a6.226,6.226,0,0,0-.287,2.217,3.841,3.841,0,0,0,.452,1.616A3.406,3.406,0,0,0,120.454,247.155Z" transform="translate(-116.376 -214.094)" fill="#455a64"/>
          </g>
          <g id="Grupo_118263" data-name="Grupo 118263" transform="translate(42.489 3.319)">
            <path id="Trazado_161771" data-name="Trazado 161771" d="M151.022,185.868c-.005.009-.08-.022-.218-.092a4.343,4.343,0,0,1-.571-.364,6.953,6.953,0,0,1-1.658-1.849,20.626,20.626,0,0,1-1.6-3.311c-.266-.634-.549-1.3-.9-1.951a12.088,12.088,0,0,0-1.273-1.9,13.044,13.044,0,0,0-6.664-4.3,17.931,17.931,0,0,0-3.316-.475,4.8,4.8,0,0,1,.908-.051,11.977,11.977,0,0,1,2.461.321,12.8,12.8,0,0,1,6.845,4.311,12.027,12.027,0,0,1,1.3,1.954c.353.672.634,1.344.893,1.983a22.2,22.2,0,0,0,1.521,3.3,7.505,7.505,0,0,0,1.551,1.871C150.749,185.692,151.036,185.844,151.022,185.868Z" transform="translate(-134.828 -171.578)" fill="#455a64"/>
          </g>
          <g id="Grupo_118264" data-name="Grupo 118264" transform="translate(42.698 2.684)">
            <path id="Trazado_161772" data-name="Trazado 161772" d="M159.216,185.354a1.2,1.2,0,0,1-.31-.032,4.748,4.748,0,0,1-.866-.225,7.5,7.5,0,0,1-2.749-1.786,16.586,16.586,0,0,1-2.853-3.941,30.278,30.278,0,0,0-3.135-4.993,9.848,9.848,0,0,0-4.893-3.053,19.111,19.111,0,0,0-4.76-.635c-1.375-.031-2.491.027-3.261.057l-.889.033a1.241,1.241,0,0,1-.311-.007,1.221,1.221,0,0,1,.307-.053c.2-.024.5-.058.886-.09.769-.066,1.885-.156,3.272-.153a18.5,18.5,0,0,1,4.833.581,10,10,0,0,1,5.045,3.122,29.265,29.265,0,0,1,3.15,5.056,16.977,16.977,0,0,0,2.76,3.925,7.768,7.768,0,0,0,2.64,1.827C158.794,185.269,159.223,185.322,159.216,185.354Z" transform="translate(-135.189 -170.477)" fill="#455a64"/>
          </g>
          <g id="Grupo_118265" data-name="Grupo 118265" transform="translate(70.824 27.349)">
            <path id="Trazado_161773" data-name="Trazado 161773" d="M193.485,240.89c-.033-.013.148-.409.339-1.164a10.92,10.92,0,0,0-2.527-10.25c-.668-.742-1.432-1.446-2.2-2.184A20.027,20.027,0,0,1,186.955,225a14.218,14.218,0,0,1-1.538-2.489,14.609,14.609,0,0,1-1.363-4.739,13.471,13.471,0,0,1,.033-3.324,8.327,8.327,0,0,1,.159-.89,1.273,1.273,0,0,1,.084-.3c.031.006-.058.431-.126,1.207a14.753,14.753,0,0,0,.062,3.285,14.856,14.856,0,0,0,1.4,4.643,14.238,14.238,0,0,0,1.522,2.43,20.2,20.2,0,0,0,2.112,2.257c.77.736,1.538,1.447,2.215,2.2a11.14,11.14,0,0,1,1.676,2.4,10.964,10.964,0,0,1,1.192,4.781,10.374,10.374,0,0,1-.446,3.295,6.925,6.925,0,0,1-.312.849A1.238,1.238,0,0,1,193.485,240.89Z" transform="translate(-183.968 -213.252)" fill="#455a64"/>
          </g>
          <g id="Grupo_118266" data-name="Grupo 118266" transform="translate(17.168 11.849)">
            <path id="Trazado_161774" data-name="Trazado 161774" d="M90.92,191.628a1.71,1.71,0,0,1,.073-.566,5.539,5.539,0,0,1,.566-1.45,6.162,6.162,0,0,1,8.958-2.143,5.531,5.531,0,0,1,1.161,1.037,1.724,1.724,0,0,1,.321.471,10.391,10.391,0,0,0-1.6-1.33,6.132,6.132,0,0,0-8.659,2.071A10.31,10.31,0,0,0,90.92,191.628Z" transform="translate(-90.913 -186.372)" fill="#455a64"/>
          </g>
          <g id="Grupo_118267" data-name="Grupo 118267" transform="translate(22.749 14.422)">
            <path id="Trazado_161775" data-name="Trazado 161775" d="M100.606,195.945a4.723,4.723,0,0,1,.161-1.309,5.773,5.773,0,0,1,1.363-2.891,3.055,3.055,0,0,1,3.057-.774,1.794,1.794,0,0,1,.817.559c.145.185.189.308.176.315a2.692,2.692,0,0,0-1.058-.672,2.964,2.964,0,0,0-2.777.781,6.224,6.224,0,0,0-1.371,2.731A7.34,7.34,0,0,1,100.606,195.945Z" transform="translate(-100.593 -190.834)" fill="#455a64"/>
          </g>
          <g id="Grupo_118268" data-name="Grupo 118268" transform="translate(27.738 11.086)">
            <path id="Trazado_161776" data-name="Trazado 161776" d="M111.592,185.049a25.965,25.965,0,0,0-1.514,3.141,25.977,25.977,0,0,0-.783,3.4,9.07,9.07,0,0,1,2.3-6.539Z" transform="translate(-109.245 -185.047)" fill="#e8505b"/>
          </g>
        </g>
      </g>
      <g id="Speech_Bubble" data-name="Speech Bubble" transform="translate(156.82 165.202)">
        <g id="Grupo_118280" data-name="Grupo 118280">
          <g id="Grupo_118276" data-name="Grupo 118276" transform="translate(12.065 19.174)">
            <g id="Grupo_118271" data-name="Grupo 118271" transform="translate(14.586 0)">
              <g id="Grupo_118270" data-name="Grupo 118270">
                <path id="Trazado_161777" data-name="Trazado 161777" d="M273.3,208.11a1.794,1.794,0,1,0,1.794-1.795A1.794,1.794,0,0,0,273.3,208.11Z" transform="translate(-273.298 -206.315)" fill="#455a64"/>
              </g>
            </g>
            <g id="Grupo_118273" data-name="Grupo 118273" transform="translate(7.404 0)">
              <g id="Grupo_118272" data-name="Grupo 118272">
                <circle id="Elipse_5032" data-name="Elipse 5032" cx="1.795" cy="1.795" r="1.795" fill="#455a64"/>
              </g>
            </g>
            <g id="Grupo_118275" data-name="Grupo 118275">
              <g id="Grupo_118274" data-name="Grupo 118274">
                <path id="Trazado_161778" data-name="Trazado 161778" d="M248.243,207.212a1.795,1.795,0,1,0,2.451-.657A1.794,1.794,0,0,0,248.243,207.212Z" transform="translate(-248.002 -206.315)" fill="#455a64"/>
              </g>
            </g>
          </g>
          <g id="Grupo_118279" data-name="Grupo 118279">
            <g id="Grupo_118278" data-name="Grupo 118278">
              <g id="Grupo_118277" data-name="Grupo 118277">
                <path id="Trazado_161779" data-name="Trazado 161779" d="M248.23,173.07a2.01,2.01,0,0,0-.363-.006l-1.067.03c-.234.011-.5.01-.786.035l-.94.132-1.1.158-1.226.3a19.876,19.876,0,0,0-5.944,2.592,20.98,20.98,0,0,0-9.636,15.767,21.737,21.737,0,0,0-.058,2.874c.034.486.024.98.1,1.47l.223,1.481a21.066,21.066,0,0,0,2,5.849,22.531,22.531,0,0,0,3.821,5.257,22.093,22.093,0,0,0,5.5,3.954,20,20,0,0,0,6.71,2.059,13.289,13.289,0,0,0,1.789.152,16.03,16.03,0,0,0,1.809.033,21.488,21.488,0,0,0,3.624-.457,21.178,21.178,0,0,0,7.213-3.036l-.219.022,7.348,2.949.435.175-.124-.452-2.16-7.855-.037.194a21.08,21.08,0,0,0,3.921-8.976,19.071,19.071,0,0,0,.285-4.6,14.725,14.725,0,0,0-.208-2.208q-.084-.541-.167-1.075c-.066-.353-.173-.7-.257-1.041a21.013,21.013,0,0,0-8.2-11.951,20.092,20.092,0,0,0-4.879-2.574l-1.1-.393-1.043-.265-.954-.237c-.306-.059-.6-.09-.879-.133-.555-.07-1.044-.167-1.471-.187l-1.08-.036-.66-.015a.983.983,0,0,0-.223.008,1.024,1.024,0,0,0,.223.031l.656.052,1.073.073c.424.033.908.14,1.458.221a20.9,20.9,0,0,1,16.708,15.5c.08.339.185.675.247,1.022s.1.7.159,1.056a14.446,14.446,0,0,1,.194,2.169,18.746,18.746,0,0,1-.3,4.508,20.7,20.7,0,0,1-3.867,8.781l-.066.088.029.106,2.144,7.86.311-.277-7.345-2.957-.115-.047-.1.069a20.744,20.744,0,0,1-7.052,2.965,21.05,21.05,0,0,1-3.542.448,15.724,15.724,0,0,1-1.768-.032,12.993,12.993,0,0,1-1.75-.148,19.586,19.586,0,0,1-6.562-2.007,21.687,21.687,0,0,1-5.392-3.859,22.154,22.154,0,0,1-3.753-5.137,20.739,20.739,0,0,1-1.975-5.724q-.112-.73-.224-1.45c-.072-.48-.063-.965-.1-1.442a20.439,20.439,0,0,1,3.419-12.449,21.2,21.2,0,0,1,6.012-5.951A19.993,19.993,0,0,1,242.8,173.9l1.211-.322,1.086-.178.932-.154c.286-.032.547-.039.78-.058l1.06-.077A2.035,2.035,0,0,0,248.23,173.07Z" transform="translate(-227.078 -173.062)" fill="#455a64"/>
              </g>
            </g>
          </g>
        </g>
      </g>
    </g>
  </g>
</svg>
