<svg xmlns="http://www.w3.org/2000/svg" xmlns:xlink="http://www.w3.org/1999/xlink" width="54" height="54" viewBox="0 0 54 54">
  <defs>
    <clipPath id="clip-path">
      <rect id="Rectángulo_37062" data-name="Rectángulo 37062" width="54" height="54" transform="translate(12127 -8894)" fill="#fff"/>
    </clipPath>
  </defs>
  <g id="Enmascarar_grupo_259" data-name="Enmascarar grupo 259" transform="translate(-12127 8894)" clip-path="url(#clip-path)">
    <g id="autoservicio" transform="translate(12127 -8894)">
      <g id="Grupo_115242" data-name="Grupo 115242">
        <g id="Grupo_115240" data-name="Grupo 115240">
          <path id="Trazado_160856" data-name="Trazado 160856" d="M10.752,13.5A1.587,1.587,0,0,0,9.17,15.083v2.373H21.035V15.083A1.587,1.587,0,0,0,19.453,13.5Z" fill="#ff5477" fill-rule="evenodd"/>
          <path id="Trazado_160857" data-name="Trazado 160857" d="M21.035,17.456H9.17l.791,15.029H20.244Z" fill="#fff" fill-rule="evenodd"/>
          <path id="Trazado_160858" data-name="Trazado 160858" d="M9.961,32.485,9.17,17.456V15.083A1.587,1.587,0,0,1,10.752,13.5h8.7a1.587,1.587,0,0,1,1.582,1.582v2.373l-.791,15.029ZM26.249,5.537H3.955V37.285H26.249Z" fill="#53d8f6" fill-rule="evenodd"/>
          <path id="Trazado_160859" data-name="Trazado 160859" d="M3.955,5.537H26.249V37.285H3.955ZM2.373,42.031h27.04V33.823l3.164-2.74V21.357H31a1.587,1.587,0,0,1-1.582-1.582V16.611A1.587,1.587,0,0,1,31,15.029h7.531a1.587,1.587,0,0,1,1.582,1.582v3.164a1.587,1.587,0,0,1-1.582,1.582H36.944v8.117a2.183,2.183,0,1,1,4.367,0v1.092a2.183,2.183,0,0,1,4.367,0v1.092a2.183,2.183,0,1,1,4.367,0V42.031h1.582a1.587,1.587,0,0,0,1.582-1.582V2.373A1.587,1.587,0,0,0,51.627.791H2.373A1.587,1.587,0,0,0,.791,2.373V40.449a1.587,1.587,0,0,0,1.582,1.582ZM31,5.537h7.531a1.587,1.587,0,0,1,1.582,1.582v3.164a1.587,1.587,0,0,1-1.582,1.582H31a1.587,1.587,0,0,1-1.582-1.582V7.119A1.587,1.587,0,0,1,31,5.537Z" fill="#fff08a" fill-rule="evenodd"/>
          <path id="Trazado_160860" data-name="Trazado 160860" d="M27.041,42.031V32.739L30.2,30V21.144a1.568,1.568,0,0,0,.791.213h1.582v9.726l-3.164,2.74v8.208H27.041ZM39.317,21.144v3.778a4.54,4.54,0,0,1,2.951,1.256,4.549,4.549,0,0,1,4.367,1.092,4.557,4.557,0,0,1,5.783,4.389V41.818a1.568,1.568,0,0,1-.791.214H50.045V31.658a2.183,2.183,0,1,0-4.367,0V30.566a2.183,2.183,0,1,0-4.367,0V29.475a2.183,2.183,0,0,0-4.367,0V21.357h1.582a1.568,1.568,0,0,0,.791-.213Z" fill="#ffc472" fill-rule="evenodd"/>
          <path id="Trazado_160861" data-name="Trazado 160861" d="M29.414,7.119v3.164A1.587,1.587,0,0,0,31,11.865h7.531a1.587,1.587,0,0,0,1.582-1.582V7.119a1.587,1.587,0,0,0-1.582-1.582H31A1.587,1.587,0,0,0,29.414,7.119Z" fill="#ffc277" fill-rule="evenodd"/>
          <path id="Trazado_160862" data-name="Trazado 160862" d="M38.526,15.029H31a1.587,1.587,0,0,0-1.582,1.582v3.164A1.587,1.587,0,0,0,31,21.357h1.582v-.981a2.183,2.183,0,1,1,4.367,0v.981h1.582a1.587,1.587,0,0,0,1.582-1.582V16.611A1.587,1.587,0,0,0,38.526,15.029Z" fill="#ffc277" fill-rule="evenodd"/>
          <path id="Trazado_160863" data-name="Trazado 160863" d="M30.2,21.144a1.568,1.568,0,0,0,.791.213h1.582v-.981a2.183,2.183,0,1,1,4.367,0v.981h1.582a1.569,1.569,0,0,0,.791-.213v-.767a4.556,4.556,0,0,0-9.113,0Z" fill="#ff905b" fill-rule="evenodd"/>
          <path id="Trazado_160864" data-name="Trazado 160864" d="M39.128,27.291a2.19,2.19,0,0,0-2.183,2.183v-9.1a2.183,2.183,0,1,0-4.367,0V31.083l-3.164,2.74v8.208l5.29,4.911v6.267H47.862V46.942l2.183-4.911V31.658a2.183,2.183,0,0,0-4.367,0V30.566a2.183,2.183,0,1,0-4.367,0V29.475a2.19,2.19,0,0,0-2.184-2.183Z" fill="#fef2e2" fill-rule="evenodd"/>
          <path id="Trazado_160865" data-name="Trazado 160865" d="M10.752,13.5A1.587,1.587,0,0,0,9.17,15.083v2.373h2.373V15.083A1.587,1.587,0,0,1,13.125,13.5Z" fill="#ff0e42" fill-rule="evenodd"/>
          <path id="Trazado_160866" data-name="Trazado 160866" d="M11.543,17.456H9.17l.791,15.029h2.373Z" fill="#9ee6fa" fill-rule="evenodd"/>
          <path id="Trazado_160867" data-name="Trazado 160867" d="M3.955,5.537H6.328V37.285H3.955Z" fill="#2d93f4" fill-rule="evenodd"/>
          <path id="Trazado_160868" data-name="Trazado 160868" d="M29.414,7.119v3.164A1.587,1.587,0,0,0,31,11.865h2.373a1.587,1.587,0,0,1-1.582-1.582V7.119a1.587,1.587,0,0,1,1.582-1.582H31A1.587,1.587,0,0,0,29.414,7.119Z" fill="#ff905b" fill-rule="evenodd"/>
          <path id="Trazado_160869" data-name="Trazado 160869" d="M2.373,42.031H4.746a1.587,1.587,0,0,1-1.582-1.582V2.373A1.587,1.587,0,0,1,4.746.791H2.373A1.587,1.587,0,0,0,.791,2.373V40.449A1.587,1.587,0,0,0,2.373,42.031Z" fill="#ffc472" fill-rule="evenodd"/>
          <path id="Trazado_160870" data-name="Trazado 160870" d="M34.7,50.836H47.862v2.373H34.7Z" fill="#ffe1ba" fill-rule="evenodd"/>
        </g>
        <g id="Grupo_115241" data-name="Grupo 115241">
          <path id="Trazado_160871" data-name="Trazado 160871" d="M50.836,7.91H49.254V6.328h1.582Zm0-3.164H49.254V3.164h1.582Z" fill="#fff"/>
        </g>
      </g>
      <g id="Grupo_115243" data-name="Grupo 115243">
        <path id="Trazado_160872" data-name="Trazado 160872" d="M40.492,52.418h1.582V54H40.492Z"/>
        <path id="Trazado_160873" data-name="Trazado 160873" d="M51.627,0H2.373A2.376,2.376,0,0,0,0,2.373V40.449a2.376,2.376,0,0,0,2.373,2.373H29.1l4.81,4.465V54h5V52.418H35.495V47.836l2.116.259.192-1.57-2.749-.336-4.85-4.5v-7.5l1.582-1.37v6.591h1.582V20.377a1.392,1.392,0,1,1,2.785,0V33.3h1.582V29.475a1.392,1.392,0,0,1,2.785,0v4.367H42.1V30.566a1.392,1.392,0,1,1,2.785,0v3.821h1.582V31.658a1.392,1.392,0,1,1,2.785,0V41.863l-1.933,4.348-2.558.313.192,1.57,2.116-.259v4.582H43.656V54h5V47.11l1.906-4.288h1.068A2.376,2.376,0,0,0,54,40.449V2.373A2.376,2.376,0,0,0,51.627,0ZM34.761,17.4a2.978,2.978,0,0,0-2.974,2.974v.19H31a.792.792,0,0,1-.791-.791V16.611A.792.792,0,0,1,31,15.82h7.531a.792.792,0,0,1,.791.791v3.164a.792.792,0,0,1-.791.791h-.791v-.19A2.978,2.978,0,0,0,34.761,17.4ZM52.418,40.449a.792.792,0,0,1-.791.791h-.791V31.658a2.973,2.973,0,0,0-4.686-2.431,2.972,2.972,0,0,0-4.367-1.092,2.972,2.972,0,0,0-4.048-1.288v-4.7h.791A2.376,2.376,0,0,0,40.9,19.775V16.611a2.376,2.376,0,0,0-2.373-2.373H31a2.376,2.376,0,0,0-2.373,2.373v3.164A2.376,2.376,0,0,0,31,22.148h.791v8.574l-3.164,2.74V41.24H2.373a.792.792,0,0,1-.791-.791V2.373a.792.792,0,0,1,.791-.791H51.627a.792.792,0,0,1,.791.791Z"/>
        <path id="Trazado_160874" data-name="Trazado 160874" d="M3.164,8.7H4.746V6.328H25.458V36.494H4.746V10.283H3.164V38.076H27.041V4.746H3.164Z"/>
        <path id="Trazado_160875" data-name="Trazado 160875" d="M38.526,4.746H31a2.376,2.376,0,0,0-2.373,2.373v3.164A2.376,2.376,0,0,0,31,12.656h7.531A2.376,2.376,0,0,0,40.9,10.283V7.119A2.376,2.376,0,0,0,38.526,4.746Zm.791,5.537a.792.792,0,0,1-.791.791H31a.792.792,0,0,1-.791-.791V7.119A.792.792,0,0,1,31,6.328h7.531a.792.792,0,0,1,.791.791Z"/>
        <path id="Trazado_160876" data-name="Trazado 160876" d="M14.311,10.337V12.71h-3.56a2.376,2.376,0,0,0-2.373,2.373v1.582H6.8v1.582H8.419L9.21,33.276H20.994l.791-15.029h1.623V16.665H21.826V15.083a2.376,2.376,0,0,0-2.373-2.373h-3.56V10.337Zm5.182,21.358H10.711L10,18.247H20.2Zm.751-16.611v1.582H9.961V15.083a.792.792,0,0,1,.791-.791h8.7A.792.792,0,0,1,20.244,15.083Z"/>
        <path id="Trazado_160877" data-name="Trazado 160877" d="M42.481,18.984h4.746v1.582H42.481Z"/>
        <path id="Trazado_160878" data-name="Trazado 160878" d="M42.481,6.328h4.746V7.91H42.481Z"/>
        <path id="Trazado_160879" data-name="Trazado 160879" d="M42.481,9.492h4.746v1.582H42.481Z"/>
        <path id="Trazado_160880" data-name="Trazado 160880" d="M42.481,15.82h4.746V17.4H42.481Z"/>
      </g>
    </g>
  </g>
</svg>
