<svg xmlns="http://www.w3.org/2000/svg" xmlns:xlink="http://www.w3.org/1999/xlink" width="54" height="54" viewBox="0 0 54 54">
  <defs>
    <clipPath id="clip-path">
      <rect id="Rectángulo_37063" data-name="Rectángulo 37063" width="54" height="54" transform="translate(12127 -8659)" fill="#fff"/>
    </clipPath>
  </defs>
  <g id="Enmascarar_grupo_260" data-name="Enmascarar grupo 260" transform="translate(-12127 8659)" clip-path="url(#clip-path)">
    <g id="autoservicio_1_" data-name="autoservicio (1)" transform="translate(12127 -8659)">
      <path id="Trazado_160881" data-name="Trazado 160881" d="M33.6,51.518V47.7a1.735,1.735,0,0,0-.913-1.542,4.855,4.855,0,0,1-2.605-4.3V41.2H16.494V51.562a.527.527,0,0,0,.527.527H34.172A.571.571,0,0,1,33.6,51.518Z" fill="#00f2a6"/>
      <path id="Trazado_160882" data-name="Trazado 160882" d="M21.24,51.562V41.2H16.494V51.562a.527.527,0,0,0,.527.527h4.746A.527.527,0,0,1,21.24,51.562Z" fill="#05e39c"/>
      <path id="Trazado_160883" data-name="Trazado 160883" d="M50.354,1.911H3.646A2.855,2.855,0,0,0,.791,4.766V38.341A2.855,2.855,0,0,0,3.646,41.2H30.083V27.913a1.906,1.906,0,0,1,1.971-1.9,1.938,1.938,0,0,1,1.84,1.954v6.429a1.906,1.906,0,0,1,3.811,0,1.906,1.906,0,0,1,3.811,0,1.906,1.906,0,0,1,1.971-1.9,1.938,1.938,0,0,1,1.84,1.954V41.2h5.026a2.855,2.855,0,0,0,2.855-2.855V4.766a2.855,2.855,0,0,0-2.855-2.855Z" fill="#6cabca"/>
      <g id="Grupo_115244" data-name="Grupo 115244">
        <path id="Trazado_160884" data-name="Trazado 160884" d="M8.438,38.341V4.766a2.855,2.855,0,0,1,2.855-2.855H3.646A2.855,2.855,0,0,0,.791,4.766V38.341A2.855,2.855,0,0,0,3.646,41.2h7.646A2.855,2.855,0,0,1,8.438,38.341Z" fill="#3692bc"/>
      </g>
      <path id="Trazado_160885" data-name="Trazado 160885" d="M50.045,4.547H3.955a.527.527,0,0,0-.527.527V38.032a.527.527,0,0,0,.527.527H30.083V27.913a1.906,1.906,0,0,1,1.971-1.9,1.938,1.938,0,0,1,1.84,1.954v6.429a1.906,1.906,0,0,1,3.811,0,1.906,1.906,0,0,1,3.811,0,1.906,1.906,0,0,1,1.971-1.9,1.938,1.938,0,0,1,1.84,1.954v4.117h4.717a.527.527,0,0,0,.527-.527V5.075a.527.527,0,0,0-.527-.527Z" fill="#eaf6ff"/>
      <path id="Trazado_160886" data-name="Trazado 160886" d="M8.447,4.547H3.955a.527.527,0,0,0-.527.527V38.032a.527.527,0,0,0,.527.527H8.447c-.005-.072-.009-.145-.009-.218V4.766C8.438,4.692,8.441,4.62,8.447,4.547Z" fill="#d8ecfe"/>
      <g id="Grupo_115247" data-name="Grupo 115247">
        <path id="Trazado_160887" data-name="Trazado 160887" d="M33.961,17.751a.527.527,0,0,1-.527-.527V11.8a10.79,10.79,0,1,0-3.35,19V27.913a1.906,1.906,0,0,1,1.971-1.9,1.938,1.938,0,0,1,1.84,1.954v.8a10.808,10.808,0,0,0,3.547-11.008H33.961Z" fill="#2ed1e2"/>
        <g id="Grupo_115245" data-name="Grupo 115245">
          <path id="Trazado_160888" data-name="Trazado 160888" d="M21.553,20.462A10.8,10.8,0,0,1,29.669,10a10.792,10.792,0,1,0,0,20.915,10.8,10.8,0,0,1-8.116-10.457Z" fill="#03bed7"/>
        </g>
        <g id="Grupo_115246" data-name="Grupo 115246">
          <path id="Trazado_160889" data-name="Trazado 160889" d="M28.489,26.95H25.532V19.215h2.641a.316.316,0,0,1,.316.316Z" fill="#fff"/>
          <path id="Trazado_160890" data-name="Trazado 160890" d="M28.172,16.931H25.848a.316.316,0,0,1-.316-.316V14.29a.316.316,0,0,1,.316-.316h2.324a.316.316,0,0,1,.316.316v2.324A.316.316,0,0,1,28.172,16.931Z" fill="#fff"/>
        </g>
      </g>
      <g id="Grupo_115248" data-name="Grupo 115248">
        <path id="Trazado_160891" data-name="Trazado 160891" d="M43.488,32.487a1.906,1.906,0,0,0-1.971,1.9,1.906,1.906,0,0,0-3.811,0,1.906,1.906,0,0,0-3.811,0V27.963a1.938,1.938,0,0,0-1.84-1.954,1.906,1.906,0,0,0-1.971,1.9V41.857a4.855,4.855,0,0,0,2.605,4.3A1.735,1.735,0,0,1,33.6,47.7v3.816a.571.571,0,0,0,.571.571h7.067a.571.571,0,0,0,.571-.571V47.7a1.735,1.735,0,0,1,.913-1.542,4.855,4.855,0,0,0,2.605-4.3V34.442A1.938,1.938,0,0,0,43.488,32.487Z" fill="#ffcdbe"/>
      </g>
      <g id="Grupo_115250" data-name="Grupo 115250">
        <g id="Grupo_115249" data-name="Grupo 115249">
          <path id="Trazado_160892" data-name="Trazado 160892" d="M35.523,46.829a1.735,1.735,0,0,0-.913-1.542,4.855,4.855,0,0,1-2.605-4.3V27.039a1.893,1.893,0,0,1,.289-1.006,1.854,1.854,0,0,0-.24-.026,1.906,1.906,0,0,0-1.971,1.9V41.856a4.855,4.855,0,0,0,2.605,4.3A1.735,1.735,0,0,1,33.6,47.7v3.816a.571.571,0,0,0,.571.571h1.351Z" fill="#ffaf9d"/>
        </g>
      </g>
      <g id="Grupo_115251" data-name="Grupo 115251">
        <path id="Trazado_160893" data-name="Trazado 160893" d="M46.828,17.751H33.961a.527.527,0,0,1-.527-.527V8.153a.527.527,0,0,1,.527-.527H46.828a.527.527,0,0,1,.527.527v9.07A.527.527,0,0,1,46.828,17.751Z" fill="#00f2a6"/>
      </g>
      <g id="Grupo_115252" data-name="Grupo 115252">
        <path id="Trazado_160894" data-name="Trazado 160894" d="M36.809,17.224V8.153a.527.527,0,0,1,.527-.527H33.961a.527.527,0,0,0-.527.527v9.07a.527.527,0,0,0,.527.527h3.375A.527.527,0,0,1,36.809,17.224Z" fill="#05e39c"/>
      </g>
      <g id="Grupo_115253" data-name="Grupo 115253">
        <path id="Trazado_160895" data-name="Trazado 160895" d="M11.5,35.364H7.066a.527.527,0,0,1-.527-.527v-4.43a.527.527,0,0,1,.527-.527H11.5a.527.527,0,0,1,.527.527v4.43A.527.527,0,0,1,11.5,35.364Z" fill="#00f2a6"/>
      </g>
      <g id="Grupo_115254" data-name="Grupo 115254">
        <path id="Trazado_160896" data-name="Trazado 160896" d="M9.07,34.837v-4.43A.527.527,0,0,1,9.6,29.88H7.066a.527.527,0,0,0-.527.527v4.43a.527.527,0,0,0,.527.527H9.6A.527.527,0,0,1,9.07,34.837Z" fill="#05e39c"/>
      </g>
      <g id="Grupo_115255" data-name="Grupo 115255">
        <path id="Trazado_160897" data-name="Trazado 160897" d="M11.5,27.243H7.066a.527.527,0,0,1-.527-.527v-4.43a.527.527,0,0,1,.527-.527H11.5a.527.527,0,0,1,.527.527v4.43A.527.527,0,0,1,11.5,27.243Z" fill="#2ed1e2"/>
      </g>
      <g id="Grupo_115256" data-name="Grupo 115256">
        <path id="Trazado_160898" data-name="Trazado 160898" d="M9.07,26.716v-4.43a.527.527,0,0,1,.527-.527H7.066a.527.527,0,0,0-.527.527v4.43a.527.527,0,0,0,.527.527H9.6A.527.527,0,0,1,9.07,26.716Z" fill="#03bed7"/>
      </g>
      <g id="Grupo_115257" data-name="Grupo 115257">
        <path id="Trazado_160899" data-name="Trazado 160899" d="M11.5,19.122H7.066a.527.527,0,0,1-.527-.527v-4.43a.527.527,0,0,1,.527-.527H11.5a.527.527,0,0,1,.527.527v4.43A.527.527,0,0,1,11.5,19.122Z" fill="#fe646f"/>
      </g>
      <g id="Grupo_115258" data-name="Grupo 115258">
        <path id="Trazado_160900" data-name="Trazado 160900" d="M9.07,18.595v-4.43a.527.527,0,0,1,.527-.527H7.066a.527.527,0,0,0-.527.527v4.43a.527.527,0,0,0,.527.527H9.6A.527.527,0,0,1,9.07,18.595Z" fill="#fd4755"/>
      </g>
      <g id="Grupo_115259" data-name="Grupo 115259">
        <path id="Trazado_160901" data-name="Trazado 160901" d="M50.354,1.12H3.646A3.65,3.65,0,0,0,0,4.766V38.341a3.65,3.65,0,0,0,3.646,3.646H15.7v9.575a1.32,1.32,0,0,0,1.318,1.318h6.5a.791.791,0,1,0,0-1.582H17.285V41.987h12.01a5.635,5.635,0,0,0,3.027,4.874.951.951,0,0,1,.489.841v3.6h-5.6a.791.791,0,0,0,0,1.582H41.239A1.364,1.364,0,0,0,42.6,51.518V47.7a.951.951,0,0,1,.489-.841,5.634,5.634,0,0,0,3.027-4.874h4.237A3.65,3.65,0,0,0,54,38.341V4.766A3.65,3.65,0,0,0,50.354,1.12ZM29.869,26.246a.787.787,0,0,0-.359-.087H29.28V19.531a1.109,1.109,0,0,0-1.107-1.107h-3.7a.791.791,0,0,0,0,1.582h.265v6.154H24.51a.791.791,0,0,0,0,1.582H29.3c0,.057-.006.114-.006.171v2.282a10,10,0,1,1,3.35-17.978v5.007a1.32,1.32,0,0,0,1.318,1.318h2.846a9.979,9.979,0,0,1-2.284,8.493,2.725,2.725,0,0,0-2.443-1.818,2.673,2.673,0,0,0-1.966.757,2.752,2.752,0,0,0-.245.272ZM27.7,20.006v6.154H26.323V20.006ZM44.537,41.857a4.058,4.058,0,0,1-2.182,3.6A2.515,2.515,0,0,0,41.019,47.7v3.6H34.392V47.7a2.515,2.515,0,0,0-1.336-2.243,4.058,4.058,0,0,1-2.182-3.6V27.913A1.115,1.115,0,0,1,32.028,26.8,1.15,1.15,0,0,1,33.1,27.962v6.429a.791.791,0,1,0,1.582,0,1.115,1.115,0,0,1,2.229,0,.791.791,0,1,0,1.582,0,1.115,1.115,0,0,1,2.229,0,.791.791,0,1,0,1.582,0,1.115,1.115,0,0,1,1.153-1.114,1.15,1.15,0,0,1,1.076,1.164v7.415Zm7.881-3.516A2.066,2.066,0,0,1,50.354,40.4H46.119V39.35h3.926a1.32,1.32,0,0,0,1.318-1.318V5.075a1.32,1.32,0,0,0-1.318-1.318H15.188a.791.791,0,0,0,0,1.582H49.781V37.768H46.119V34.442a2.744,2.744,0,0,0-2.6-2.745,2.677,2.677,0,0,0-1.966.757l-.032.031a2.692,2.692,0,0,0-3.81,0,2.694,2.694,0,0,0-3.02-.549V29.114a11.561,11.561,0,0,0,3.729-10.572h8.413a1.32,1.32,0,0,0,1.318-1.318V14.449a.791.791,0,0,0-1.582,0V16.96H34.225V8.417h12.34v2.341a.791.791,0,1,0,1.582,0v-2.6a1.32,1.32,0,0,0-1.318-1.318H33.961a1.32,1.32,0,0,0-1.318,1.318v2.2a11.581,11.581,0,1,0-3.35,21.46v5.953H4.219V5.338H11.5a.791.791,0,0,0,0-1.582H3.955A1.32,1.32,0,0,0,2.637,5.075V38.032A1.32,1.32,0,0,0,3.955,39.35H29.292V40.4H3.646a2.066,2.066,0,0,1-2.064-2.064V4.766A2.066,2.066,0,0,1,3.646,2.7H50.354a2.066,2.066,0,0,1,2.064,2.064Z"/>
        <path id="Trazado_160902" data-name="Trazado 160902" d="M28.172,13.183H25.848a1.109,1.109,0,0,0-1.107,1.107v2.324a1.109,1.109,0,0,0,1.107,1.107h2.324a1.109,1.109,0,0,0,1.107-1.107V14.29a1.109,1.109,0,0,0-1.107-1.107ZM27.7,16.14H26.323V14.765H27.7Z"/>
        <path id="Trazado_160903" data-name="Trazado 160903" d="M43.77,9.472H37.02a.791.791,0,0,0,0,1.582h6.75a.791.791,0,0,0,0-1.582Z"/>
        <path id="Trazado_160904" data-name="Trazado 160904" d="M43.77,11.9H37.02a.791.791,0,0,0,0,1.582h6.75a.791.791,0,0,0,0-1.582Z"/>
        <path id="Trazado_160905" data-name="Trazado 160905" d="M40.922,14.323h-3.9a.791.791,0,0,0,0,1.582h3.9a.791.791,0,0,0,0-1.582Z"/>
        <path id="Trazado_160906" data-name="Trazado 160906" d="M11.5,29.089H7.066a1.32,1.32,0,0,0-1.318,1.318v4.43a1.32,1.32,0,0,0,1.318,1.318H11.5a1.32,1.32,0,0,0,1.318-1.318v-4.43A1.32,1.32,0,0,0,11.5,29.089Zm-.264,5.484H7.33v-3.9h3.9Z"/>
        <path id="Trazado_160907" data-name="Trazado 160907" d="M11.5,20.968H7.066a1.32,1.32,0,0,0-1.318,1.318v4.43a1.32,1.32,0,0,0,1.318,1.318H11.5a1.32,1.32,0,0,0,1.318-1.318v-4.43A1.32,1.32,0,0,0,11.5,20.968Zm-.264,5.484H7.33v-3.9h3.9Z"/>
        <path id="Trazado_160908" data-name="Trazado 160908" d="M11.5,12.847H7.066a1.32,1.32,0,0,0-1.318,1.318v4.43a1.32,1.32,0,0,0,1.318,1.318H11.5a1.32,1.32,0,0,0,1.318-1.318v-4.43A1.32,1.32,0,0,0,11.5,12.847Zm-.264,5.484H7.33v-3.9h3.9Z"/>
      </g>
    </g>
  </g>
</svg>
