<svg xmlns="http://www.w3.org/2000/svg" xmlns:xlink="http://www.w3.org/1999/xlink" width="54" height="54" viewBox="0 0 54 54">
  <defs>
    <clipPath id="clip-path">
      <rect id="Rectángulo_37064" data-name="Rectángulo 37064" width="54" height="54" transform="translate(12127 -8488)" fill="#fff"/>
    </clipPath>
  </defs>
  <g id="Enmascarar_grupo_261" data-name="Enmascarar grupo 261" transform="translate(-12127 8488)" clip-path="url(#clip-path)">
    <g id="grupo" transform="translate(12127 -8487.792)">
      <path id="Trazado_160909" data-name="Trazado 160909" d="M17.132,13.461a8.273,8.273,0,1,0-14.094-.023,2.673,2.673,0,0,0,2.276,1.277H14.87a2.658,2.658,0,0,0,2.262-1.254Zm0,0" fill="#c47a4a"/>
      <path id="Trazado_160910" data-name="Trazado 160910" d="M17.132,13.461a2.658,2.658,0,0,1-2.263,1.254h-2a2.658,2.658,0,0,0,2.263-1.254A8.275,8.275,0,0,0,9.093.9a8.274,8.274,0,0,1,9.271,8.028,8.24,8.24,0,0,1-1.231,4.529Zm0,0" fill="#b26944"/>
      <path id="Trazado_160911" data-name="Trazado 160911" d="M10.092,19.007A4.813,4.813,0,0,1,5.28,14.195V9.811A2.086,2.086,0,0,1,7.366,7.725h5.454A2.085,2.085,0,0,1,14.9,9.811v4.384a4.812,4.812,0,0,1-4.812,4.813Zm0,0" fill="#fdd1a7"/>
      <path id="Trazado_160912" data-name="Trazado 160912" d="M12.124,6.587c-.749,5.668-7.7,4.585-7.7,4.585V6.587Zm0,0" fill="#c47a4a"/>
      <path id="Trazado_160913" data-name="Trazado 160913" d="M18.2,44.474a8.273,8.273,0,1,0-16.234-.045,2.633,2.633,0,0,1-.532,2.179,2.852,2.852,0,0,0,2.2,4.662h12.9a2.852,2.852,0,0,0,2.2-4.662,2.576,2.576,0,0,1-.541-2.135Zm0,0" fill="#ff5a96"/>
      <path id="Trazado_160914" data-name="Trazado 160914" d="M19.393,48.418a2.853,2.853,0,0,1-2.852,2.853H14.8a2.852,2.852,0,0,0,2.2-4.663,2.573,2.573,0,0,1-.541-2.134,8.276,8.276,0,0,0-7.247-9.852,8.42,8.42,0,0,1,1.309-.034A8.275,8.275,0,0,1,18.2,44.474a2.573,2.573,0,0,0,.541,2.134,2.838,2.838,0,0,1,.648,1.81Zm0,0" fill="#ff3b82"/>
      <path id="Trazado_160915" data-name="Trazado 160915" d="M10.092,52.741A4.813,4.813,0,0,1,5.28,47.928V43.544a2.086,2.086,0,0,1,2.086-2.086h5.454A2.086,2.086,0,0,1,14.9,43.544v4.384a4.812,4.812,0,0,1-4.812,4.813Zm0,0" fill="#fdd1a7"/>
      <path id="Trazado_160916" data-name="Trazado 160916" d="M12.124,40.32c-.749,5.669-7.7,4.585-7.7,4.585V40.32Zm0,0" fill="#ff5a96"/>
      <path id="Trazado_160917" data-name="Trazado 160917" d="M50.948,13.461a8.272,8.272,0,1,0-14.094-.023,2.674,2.674,0,0,0,2.277,1.277h9.555a2.659,2.659,0,0,0,2.262-1.254Zm0,0" fill="#756f6f"/>
      <path id="Trazado_160918" data-name="Trazado 160918" d="M50.948,13.461a2.658,2.658,0,0,1-2.262,1.254h-2a2.655,2.655,0,0,0,2.261-1.254A8.273,8.273,0,0,0,42.908.9a8.274,8.274,0,0,1,9.271,8.028,8.237,8.237,0,0,1-1.231,4.529Zm0,0" fill="#5b5555"/>
      <path id="Trazado_160919" data-name="Trazado 160919" d="M43.908,19.007a4.813,4.813,0,0,1-4.813-4.813V9.811a2.086,2.086,0,0,1,2.086-2.085h5.454A2.086,2.086,0,0,1,48.72,9.811v4.384a4.813,4.813,0,0,1-4.813,4.813Zm0,0" fill="#fdd1a7"/>
      <path id="Trazado_160920" data-name="Trazado 160920" d="M45.939,6.587c-.749,5.668-7.7,4.585-7.7,4.585V6.587Zm0,0" fill="#756f6f"/>
      <path id="Trazado_160921" data-name="Trazado 160921" d="M52.02,44.474a8.273,8.273,0,1,0-16.234-.045,2.633,2.633,0,0,1-.532,2.179,2.851,2.851,0,0,0,2.2,4.662h12.9a2.852,2.852,0,0,0,2.2-4.662,2.576,2.576,0,0,1-.541-2.135Zm0,0" fill="#ffa730"/>
      <path id="Trazado_160922" data-name="Trazado 160922" d="M53.209,48.418a2.853,2.853,0,0,1-2.852,2.853h-1.74a2.852,2.852,0,0,0,2.2-4.663,2.571,2.571,0,0,1-.541-2.134,8.281,8.281,0,0,0-7.247-9.852,8.418,8.418,0,0,1,1.309-.034,8.281,8.281,0,0,1,7.678,9.886,2.571,2.571,0,0,0,.541,2.134,2.838,2.838,0,0,1,.648,1.81Zm0,0" fill="#fa8916"/>
      <path id="Trazado_160923" data-name="Trazado 160923" d="M43.908,52.741a4.813,4.813,0,0,1-4.813-4.813V43.544a2.086,2.086,0,0,1,2.086-2.086h5.454a2.086,2.086,0,0,1,2.086,2.086v4.384a4.813,4.813,0,0,1-4.813,4.813Zm0,0" fill="#fdd1a7"/>
      <path id="Trazado_160924" data-name="Trazado 160924" d="M45.939,40.32c-.749,5.669-7.7,4.585-7.7,4.585V40.32Zm0,0" fill="#ffa730"/>
      <path id="Trazado_160925" data-name="Trazado 160925" d="M35.808,24.574H22.621a1.106,1.106,0,0,0-1.106,1.106v7.145a1.105,1.105,0,0,0,1.106,1.106h7.213v.929a1.106,1.106,0,0,0,1.851.817L33.6,33.931h2.209a1.106,1.106,0,0,0,1.106-1.106V25.68a1.106,1.106,0,0,0-1.106-1.106Zm0,0" fill="#00c2f8"/>
      <path id="Trazado_160926" data-name="Trazado 160926" d="M36.914,25.68v7.145a1.106,1.106,0,0,1-1.1,1.105H33.624a1.105,1.105,0,0,0,1.1-1.105V25.68a1.105,1.105,0,0,0-1.1-1.106h2.184a1.105,1.105,0,0,1,1.1,1.106Zm0,0" fill="#00abef"/>
      <path id="Trazado_160927" data-name="Trazado 160927" d="M18.192,17.616h11.2a1.106,1.106,0,0,1,1.106,1.106v6.15a1.106,1.106,0,0,1-1.106,1.106h-2.6v1.248a1.106,1.106,0,0,1-1.854.814l-2.244-2.062h-4.5a1.106,1.106,0,0,1-1.106-1.106v-6.15a1.106,1.106,0,0,1,1.106-1.106Zm0,0" fill="#ffb54e"/>
      <path id="Trazado_160928" data-name="Trazado 160928" d="M30.5,18.722v6.15a1.106,1.106,0,0,1-1.106,1.105H27.03a1.105,1.105,0,0,0,1.106-1.105v-6.15a1.105,1.105,0,0,0-1.106-1.106H29.39A1.106,1.106,0,0,1,30.5,18.722Zm0,0" fill="#ff9a1b"/>
      <path id="Trazado_160929" data-name="Trazado 160929" d="M53.172,46.105a1.772,1.772,0,0,1-.376-1.477,9.065,9.065,0,0,0-5.317-10.1,21.962,21.962,0,0,0-.165-15.885,5.613,5.613,0,0,0,2.056-3.2,3.427,3.427,0,0,0,2.249-1.56A9.032,9.032,0,0,0,51.2,3.752a.791.791,0,0,0-1.273.94,7.45,7.45,0,0,1,.349,8.353,1.848,1.848,0,0,1-.764.689V9.811a2.879,2.879,0,0,0-2.824-2.875q.02-.121.037-.245a.791.791,0,0,0-1.568-.207,4.056,4.056,0,0,1-2.916,3.575,9.108,9.108,0,0,1-3.623.362.791.791,0,0,0-.312,1.543v1.768a1.881,1.881,0,0,1-.776-.707,7.481,7.481,0,0,1,6.56-11.387,7.34,7.34,0,0,1,3.344.888.791.791,0,1,0,.751-1.392A9.062,9.062,0,0,0,35.224,6.507a21.936,21.936,0,0,0-16.454,0A9.063,9.063,0,1,0,2.364,13.852a3.45,3.45,0,0,0,2.265,1.585,5.616,5.616,0,0,0,2.056,3.2A21.962,21.962,0,0,0,6.52,34.522a9,9,0,0,0-1.978,1.163.791.791,0,1,0,.97,1.25,7.484,7.484,0,0,1,11.918,7.384,3.35,3.35,0,0,0,.705,2.792,2.034,2.034,0,0,1,.468,1.307,2.063,2.063,0,0,1-2.061,2.061H15.079a5.564,5.564,0,0,0,.617-2.551V43.544a2.879,2.879,0,0,0-2.825-2.875c.014-.081.027-.162.037-.245a.791.791,0,0,0-1.568-.207,4.054,4.054,0,0,1-1.57,2.878c-2,1.5-5.194,1.034-5.225,1.03A.791.791,0,0,0,4.3,45.687c.018,0,.083.013.187.025v2.216a5.564,5.564,0,0,0,.617,2.551H3.643a2.063,2.063,0,0,1-2.061-2.061,2.034,2.034,0,0,1,.468-1.307,3.414,3.414,0,0,0,.7-2.833,7.522,7.522,0,0,1-.137-1.428,7.4,7.4,0,0,1,.8-3.36.791.791,0,1,0-1.413-.712,8.972,8.972,0,0,0-.965,4.072,9.1,9.1,0,0,0,.166,1.73,1.84,1.84,0,0,1-.367,1.526,3.643,3.643,0,0,0,2.815,5.955h2.67a5.592,5.592,0,0,0,7.559,0h2.67a3.638,3.638,0,0,0,3.539-4.5,21.981,21.981,0,0,0,13.838,0,3.638,3.638,0,0,0,3.539,4.5h2.67a5.592,5.592,0,0,0,7.559,0h2.67a3.643,3.643,0,0,0,2.815-5.955Zm-47.1,1.822V45.775a8.212,8.212,0,0,0,4.643-1.41A5.317,5.317,0,0,0,12.4,42.249h.414a1.3,1.3,0,0,1,1.295,1.295v4.384a4.022,4.022,0,1,1-8.044,0ZM42.754,11.554a5.629,5.629,0,0,0,3.465-3.038h.415a1.3,1.3,0,0,1,1.295,1.294v4.384a4.022,4.022,0,1,1-8.044,0V12.041a9.793,9.793,0,0,0,2.869-.487ZM3.712,13.024a7.482,7.482,0,1,1,12.748.021,1.849,1.849,0,0,1-.763.69V9.811a2.879,2.879,0,0,0-2.824-2.875q.02-.121.037-.245a.791.791,0,0,0-1.568-.207,4.055,4.055,0,0,1-2.916,3.575A9.108,9.108,0,0,1,4.8,10.42a.791.791,0,0,0-.312,1.543v1.769a1.885,1.885,0,0,1-.777-.708Zm2.359,1.17V12.041a9.8,9.8,0,0,0,2.869-.487A5.629,5.629,0,0,0,12.4,8.516h.415a1.3,1.3,0,0,1,1.294,1.294v4.384a4.022,4.022,0,1,1-8.043,0ZM19.02,45.466a1.754,1.754,0,0,1-.039-.838,9.056,9.056,0,0,0-10.956-10.6,20.379,20.379,0,0,1,.052-14.606,5.6,5.6,0,0,0,7.479-3.985A3.422,3.422,0,0,0,17.8,13.877a9.031,9.031,0,0,0,1.349-4.962c-.006-.279-.026-.555-.057-.829a20.357,20.357,0,0,1,15.807,0,9.18,9.18,0,0,0-.06,1.03,9.039,9.039,0,0,0,1.336,4.736,3.452,3.452,0,0,0,2.265,1.585,5.6,5.6,0,0,0,7.478,3.986,20.377,20.377,0,0,1,.054,14.6,9.062,9.062,0,0,0-11.132,8.823,9.1,9.1,0,0,0,.166,1.73,1.914,1.914,0,0,1-.037.889,20.358,20.358,0,0,1-15.953,0Zm24.888,6.484a4.026,4.026,0,0,1-4.022-4.022V45.775a8.212,8.212,0,0,0,4.643-1.41,5.318,5.318,0,0,0,1.692-2.116h.414a1.3,1.3,0,0,1,1.295,1.295v4.384a4.026,4.026,0,0,1-4.022,4.022Zm6.449-1.471H48.894a5.564,5.564,0,0,0,.617-2.551V43.544a2.879,2.879,0,0,0-2.825-2.875c.014-.081.027-.162.037-.245a.791.791,0,0,0-1.568-.207,4.054,4.054,0,0,1-1.57,2.878c-2,1.5-5.194,1.034-5.225,1.03a.791.791,0,0,0-.243,1.563c.018,0,.083.013.187.025v2.216a5.564,5.564,0,0,0,.617,2.551H37.458A2.063,2.063,0,0,1,35.4,48.418a2.034,2.034,0,0,1,.468-1.308,3.416,3.416,0,0,0,.7-2.832,7.527,7.527,0,0,1-.137-1.429A7.482,7.482,0,0,1,44.3,35.378a7.487,7.487,0,0,1,6.943,8.941,3.35,3.35,0,0,0,.705,2.792,2.036,2.036,0,0,1,.468,1.307,2.063,2.063,0,0,1-2.061,2.061Zm0,0"/>
      <path id="Trazado_160930" data-name="Trazado 160930" d="M37.705,32.825V25.68a1.9,1.9,0,0,0-1.9-1.9H31.286V18.722a1.9,1.9,0,0,0-1.9-1.9h-11.2a1.9,1.9,0,0,0-1.9,1.9v6.15a1.9,1.9,0,0,0,1.9,1.9h2.532v6.056a1.9,1.9,0,0,0,1.9,1.9h1.5a.791.791,0,0,0,0-1.582h-1.5a.315.315,0,0,1-.315-.315V26.769h.078L24.4,28.622a1.877,1.877,0,0,0,1.275.5,1.913,1.913,0,0,0,.771-.164,1.872,1.872,0,0,0,1.134-1.737v-.457h1.808a1.9,1.9,0,0,0,1.83-1.4h4.59a.315.315,0,0,1,.315.315v7.145a.315.315,0,0,1-.315.315H33.6a.792.792,0,0,0-.533.206l-1.915,1.747a.315.315,0,0,1-.527-.233V33.93a.791.791,0,0,0-.791-.791H27.766a.791.791,0,0,0,0,1.582h1.277v.138A1.874,1.874,0,0,0,30.174,36.6a1.91,1.91,0,0,0,.774.165,1.878,1.878,0,0,0,1.27-.5l1.689-1.54h1.9a1.9,1.9,0,0,0,1.9-1.9Zm-8-7.953a.315.315,0,0,1-.315.315h-2.6a.791.791,0,0,0-.791.791v1.248a.314.314,0,0,1-.527.232L23.228,25.4a.791.791,0,0,0-.536-.209h-4.5a.315.315,0,0,1-.315-.315v-6.15a.315.315,0,0,1,.315-.314h11.2a.315.315,0,0,1,.315.314v6.15Zm0,0"/>
      <path id="Trazado_160931" data-name="Trazado 160931" d="M25,21.006H21.06a.791.791,0,0,0,0,1.582H25a.791.791,0,0,0,0-1.582Zm0,0"/>
      <path id="Trazado_160932" data-name="Trazado 160932" d="M33.3,30.043a.791.791,0,1,0,0-1.582H29.587a.791.791,0,1,0,0,1.582Zm0,0"/>
    </g>
  </g>
</svg>
