<svg xmlns="http://www.w3.org/2000/svg" xmlns:xlink="http://www.w3.org/1999/xlink" width="54" height="54" viewBox="0 0 54 54">
  <defs>
    <clipPath id="clip-path">
      <rect id="Rectángulo_37060" data-name="Rectángulo 37060" width="54" height="54" transform="translate(736 2587)" fill="#fff"/>
    </clipPath>
  </defs>
  <g id="Enmascarar_grupo_257" data-name="Enmascarar grupo 257" transform="translate(-736 -2587)" clip-path="url(#clip-path)">
    <g id="comunicaciones" transform="translate(736 2587)">
      <g id="Grupo_115238" data-name="Grupo 115238">
        <g id="Grupo_115232" data-name="Grupo 115232">
          <path id="Trazado_160811" data-name="Trazado 160811" d="M50.862,19.582A1.086,1.086,0,0,1,49.776,18.5V9.626a8.834,8.834,0,1,0-17.669,0V18.5a1.086,1.086,0,0,1-1.086,1.086,2.337,2.337,0,0,0-2.347,2.34,2.3,2.3,0,0,0,2.3,2.251H50.913a2.3,2.3,0,0,0,2.295-2.356,2.36,2.36,0,0,0-2.347-2.235Z" fill="#6c5e69"/>
          <path id="Trazado_160812" data-name="Trazado 160812" d="M43.585,9.189,42.138,7.112a.2.2,0,0,0-.329,0L40.363,9.189a.2.2,0,0,1-.164.086H34.951a.2.2,0,0,0-.2.2V15.2a6.191,6.191,0,0,0,12.381,0V9.475a.2.2,0,0,0-.2-.2H43.75a.2.2,0,0,1-.164-.086Z" fill="#ffe0cf"/>
          <g id="Grupo_115231" data-name="Grupo 115231">
            <path id="Trazado_160813" data-name="Trazado 160813" d="M46.931,9.274H44.991a.2.2,0,0,1,.2.2V15.2a6.192,6.192,0,0,1-5.22,6.114A6.192,6.192,0,0,0,47.132,15.2V9.475a.2.2,0,0,0-.2-.2Z" fill="#ffcfc0"/>
          </g>
        </g>
        <circle id="Elipse_5028" data-name="Elipse 5028" cx="3.359" cy="3.359" r="3.359" transform="translate(7.482 26.474)" fill="#ffb532"/>
        <path id="Trazado_160814" data-name="Trazado 160814" d="M16.132,49.077H5.55A4.759,4.759,0,0,1,.791,44.318V41.585a10.05,10.05,0,1,1,20.1,0v2.733a4.759,4.759,0,0,1-4.759,4.759Z" fill="#ffc25e"/>
        <path id="Trazado_160815" data-name="Trazado 160815" d="M10.841,53.209a6.435,6.435,0,0,1-6.435-6.435V40.339a14.057,14.057,0,0,0,12.87,0v6.435a6.435,6.435,0,0,1-6.435,6.435Z" fill="#ffe0cf"/>
        <g id="Grupo_115233" data-name="Grupo 115233">
          <path id="Trazado_160816" data-name="Trazado 160816" d="M14.92,41.271v5.5A6.436,6.436,0,0,1,9.663,53.1a6.431,6.431,0,0,0,7.613-6.326V40.339a16.523,16.523,0,0,1-2.356.932Z" fill="#ffcfc0"/>
        </g>
        <path id="Trazado_160817" data-name="Trazado 160817" d="M26.14,1.852V12.12a2.089,2.089,0,0,0,.727,1.584l2.278,1.957a.453.453,0,0,1-.35.792l-5.429-.672a5.017,5.017,0,0,0-.616-.038H1.852A1.061,1.061,0,0,1,.791,14.682V1.852A1.061,1.061,0,0,1,1.852.791H25.079A1.061,1.061,0,0,1,26.14,1.852Z" fill="#faf7f8"/>
        <path id="Trazado_160818" data-name="Trazado 160818" d="M29.145,15.661,26.868,13.7a2.088,2.088,0,0,1-.727-1.584V1.852A1.061,1.061,0,0,0,25.079.791H23.353a1.061,1.061,0,0,1,1.061,1.061v10.8a2.088,2.088,0,0,0,.727,1.584l2.278,1.957a.469.469,0,0,1,.091.106l1.284.159A.453.453,0,0,0,29.145,15.661Z" fill="#f0eef0"/>
        <path id="Trazado_160819" data-name="Trazado 160819" d="M27.014,30.771V41.039a2.089,2.089,0,0,1-.727,1.584L24.009,44.58a.453.453,0,0,0,.35.792l5.429-.672a5.018,5.018,0,0,1,.616-.038H48.138A1.061,1.061,0,0,0,49.2,43.6V30.771a1.061,1.061,0,0,0-1.061-1.061H28.075a1.061,1.061,0,0,0-1.061,1.061Z" fill="#faf7f8"/>
        <g id="Grupo_115234" data-name="Grupo 115234">
          <path id="Trazado_160820" data-name="Trazado 160820" d="M48.138,29.709h-2.4A1.061,1.061,0,0,1,46.8,30.77V43.6a1.061,1.061,0,0,1-1.061,1.061h2.4A1.061,1.061,0,0,0,49.2,43.6V30.771A1.061,1.061,0,0,0,48.138,29.709Z" fill="#f0eef0"/>
        </g>
        <g id="Grupo_115236" data-name="Grupo 115236">
          <g id="Grupo_115235" data-name="Grupo 115235">
            <path id="Trazado_160821" data-name="Trazado 160821" d="M10.607,12.621H5.4L3.747,7.065h8.511Z" fill="#ffc25e"/>
          </g>
          <path id="Trazado_160822" data-name="Trazado 160822" d="M17.726,12.347,14.7,9.325a.647.647,0,0,1,0-.915l4.353-4.353a.647.647,0,0,1,.631-.166l2.365.657A.647.647,0,0,1,22.5,5l.657,2.365a.647.647,0,0,1-.166.631l-4.353,4.353a.647.647,0,0,1-.915,0Z" fill="#ff94be"/>
        </g>
        <g id="Grupo_115237" data-name="Grupo 115237">
          <circle id="Elipse_5029" data-name="Elipse 5029" cx="4.889" cy="4.889" r="4.889" transform="translate(33.199 32.358)" fill="#ffe270"/>
        </g>
      </g>
      <g id="Grupo_115239" data-name="Grupo 115239">
        <path id="Trazado_160823" data-name="Trazado 160823" d="M47.923,15.2V9.274a.791.791,0,0,0-.791-.791H44.058L42.623,6.424a.791.791,0,0,0-1.3,0L39.89,8.483H34.751a.791.791,0,0,0-.791.791V15.2a6.982,6.982,0,1,0,13.963,0Zm-12.381,0v-5.13H40.3a.791.791,0,0,0,.649-.339L41.974,8.26,43,9.727a.791.791,0,0,0,.649.339h2.7V15.2a5.4,5.4,0,1,1-10.8,0Z"/>
        <path id="Trazado_160824" data-name="Trazado 160824" d="M39.344,13.349v-.807a.791.791,0,0,0-1.582,0v.807a.791.791,0,1,0,1.582,0Z"/>
        <path id="Trazado_160825" data-name="Trazado 160825" d="M43.33,14.14a.791.791,0,0,0,.791-.791v-.807a.791.791,0,0,0-1.582,0v.807A.791.791,0,0,0,43.33,14.14Z"/>
        <path id="Trazado_160826" data-name="Trazado 160826" d="M43.421,17.114a.791.791,0,0,0-.888-1.309,2.568,2.568,0,0,1-3.183,0,.791.791,0,1,0-.888,1.309,4.137,4.137,0,0,0,4.96,0Z"/>
        <path id="Trazado_160827" data-name="Trazado 160827" d="M54,21.8a3.133,3.133,0,0,0-3.137-3.006.3.3,0,0,1-.295-.295V9.626a9.625,9.625,0,1,0-19.251,0V18.5a.3.3,0,0,1-.295.295,3.18,3.18,0,0,0-2.255.95,3.035,3.035,0,0,0-.883,2.2,3.1,3.1,0,0,0,3.086,3.027h4.517a.791.791,0,0,0,0-1.582H30.969a1.512,1.512,0,0,1-1.5-1.475,1.466,1.466,0,0,1,.43-1.058,1.589,1.589,0,0,1,1.126-.476A1.879,1.879,0,0,0,32.9,18.5V9.626a8.044,8.044,0,0,1,16.087,0V18.5a1.879,1.879,0,0,0,1.877,1.877,1.56,1.56,0,0,1,1.556,1.465,1.5,1.5,0,0,1-1.5,1.545H38.578a.791.791,0,0,0,0,1.582H50.913A3.087,3.087,0,0,0,54,21.8Z"/>
        <path id="Trazado_160828" data-name="Trazado 160828" d="M14.668,31.441a4.15,4.15,0,1,0-7.653,0A10.859,10.859,0,0,0,0,41.585v2.733a5.534,5.534,0,0,0,4.24,5.394A7.236,7.236,0,0,0,10.841,54a7.33,7.33,0,0,0,.79-.044.791.791,0,0,0-.172-1.573,5.722,5.722,0,0,1-.618.034A5.651,5.651,0,0,1,5.2,46.774v-5.22a14.64,14.64,0,0,0,11.288,0v5.22a5.64,5.64,0,0,1-2.5,4.69.791.791,0,0,0,.882,1.314,7.23,7.23,0,0,0,2.58-3.065,5.522,5.522,0,0,0,4.238-5.394V41.585a10.859,10.859,0,0,0-7.014-10.143ZM8.273,29.832a2.568,2.568,0,1,1,5.135,0,2.541,2.541,0,0,1-.274,1.156,10.9,10.9,0,0,0-4.586,0A2.541,2.541,0,0,1,8.273,29.832ZM20.1,44.318a3.95,3.95,0,0,1-2.11,3.511,7.246,7.246,0,0,0,.077-1.056V40.339a.791.791,0,0,0-1.136-.712,13.193,13.193,0,0,1-12.18,0,.791.791,0,0,0-1.136.712v6.435a7.254,7.254,0,0,0,.077,1.054,3.959,3.959,0,0,1-2.109-3.509V41.585a9.259,9.259,0,1,1,18.518,0Z"/>
        <path id="Trazado_160829" data-name="Trazado 160829" d="M9.243,45.277V44.47a.791.791,0,1,0-1.582,0v.807a.791.791,0,1,0,1.582,0Z"/>
        <path id="Trazado_160830" data-name="Trazado 160830" d="M14.021,45.277V44.47a.791.791,0,0,0-1.582,0v.807a.791.791,0,0,0,1.582,0Z"/>
        <path id="Trazado_160831" data-name="Trazado 160831" d="M13.531,47.943a.791.791,0,0,0-1.1-.21,2.567,2.567,0,0,1-3.183,0,.791.791,0,1,0-.888,1.309,4.39,4.39,0,0,0,2.48.826,4.392,4.392,0,0,0,2.48-.826A.791.791,0,0,0,13.531,47.943Z"/>
        <path id="Trazado_160832" data-name="Trazado 160832" d="M48.138,28.918H28.075a1.854,1.854,0,0,0-1.852,1.852V41.039a1.3,1.3,0,0,1-.452.984L23.493,43.98a1.244,1.244,0,0,0,.963,2.177l5.688-.7H48.138A1.854,1.854,0,0,0,49.99,43.6V30.77a1.854,1.854,0,0,0-1.852-1.852Zm.27,14.682a.27.27,0,0,1-.27.27H30.1a.789.789,0,0,0-.1.006l-4.624.573L26.8,43.223a2.876,2.876,0,0,0,1-2.184V30.771a.27.27,0,0,1,.27-.27H48.138a.27.27,0,0,1,.27.27V43.6Z"/>
        <path id="Trazado_160833" data-name="Trazado 160833" d="M8.494,3.182H7.512A2.364,2.364,0,0,0,5.151,5.543v.731h-1.4a.791.791,0,0,0-.758,1.016L4.64,12.846a.791.791,0,0,0,.758.566h5.209a.791.791,0,0,0,.758-.566L13.016,7.29a.791.791,0,0,0-.758-1.016h-1.4V5.543A2.364,2.364,0,0,0,8.494,3.182ZM6.733,5.543a.78.78,0,0,1,.779-.779h.982a.78.78,0,0,1,.779.779v.731H6.733Zm3.285,6.286H5.988L4.807,7.856H11.2Z"/>
        <path id="Trazado_160834" data-name="Trazado 160834" d="M18.184,13.327a1.429,1.429,0,0,0,1.017-.421l4.353-4.353a1.44,1.44,0,0,0,.369-1.4l-.657-2.364a1.445,1.445,0,0,0-1-1L19.9,3.129a1.441,1.441,0,0,0-1.4.369L14.145,7.851a1.44,1.44,0,0,0,0,2.034l3.022,3.022a1.429,1.429,0,0,0,1.017.421Zm1.374-8.652,2.205.613.613,2.205-4.192,4.192L15.366,8.867Z"/>
        <path id="Trazado_160835" data-name="Trazado 160835" d="M38.088,31.567a5.68,5.68,0,1,0,5.68,5.68A5.687,5.687,0,0,0,38.088,31.567Zm0,9.778a4.1,4.1,0,1,1,4.1-4.1A4.1,4.1,0,0,1,38.088,41.345Z"/>
        <path id="Trazado_160836" data-name="Trazado 160836" d="M38.805,36.476a4.626,4.626,0,0,1-.985-.44.2.2,0,0,1,.106-.194,2.254,2.254,0,0,1,1.079-.017.791.791,0,0,0,.418-1.526,3.489,3.489,0,0,0-.605-.1.791.791,0,0,0-1.548.2,1.755,1.755,0,0,0-1,1.289,1.591,1.591,0,0,0,.54,1.565,5.284,5.284,0,0,0,1.468.712.251.251,0,0,1,.2.308.424.424,0,0,1-.424.36.947.947,0,0,1-.722-.183.791.791,0,0,0-.866,1.324,2.526,2.526,0,0,0,.806.372.791.791,0,0,0,1.578-.08v-.014a2.01,2.01,0,0,0,1.188-1.516,1.821,1.821,0,0,0-1.234-2.062Z"/>
        <path id="Trazado_160837" data-name="Trazado 160837" d="M28.854,17.248a1.244,1.244,0,0,0,.807-2.187L27.383,13.1a1.3,1.3,0,0,1-.452-.984V1.852A1.854,1.854,0,0,0,25.079,0H1.852A1.854,1.854,0,0,0,0,1.852V3.665a.791.791,0,1,0,1.582,0V1.852a.271.271,0,0,1,.27-.27H25.079a.27.27,0,0,1,.27.27V12.12a2.876,2.876,0,0,0,1,2.184l1.428,1.227-4.624-.573a.789.789,0,0,0-.1-.006H1.852a.271.271,0,0,1-.27-.27V6.723A.791.791,0,1,0,0,6.723v7.959a1.854,1.854,0,0,0,1.852,1.852H23.01l5.688.7A1.282,1.282,0,0,0,28.854,17.248Z"/>
      </g>
    </g>
  </g>
</svg>
