<svg xmlns="http://www.w3.org/2000/svg" width="206.95" height="221.468" viewBox="0 0 206.95 221.468">
  <g id="Grupo_115135" data-name="Grupo 115135" transform="translate(-29.748 -19.339)">
    <g id="Grupo_115113" data-name="Grupo 115113" transform="translate(43.018 23.801)" opacity="0.4">
      <g id="Grupo_115111" data-name="Grupo 115111" transform="translate(13.596)">
        <path id="Trazado_160655" data-name="Trazado 160655" d="M93.379,42.727,88.057,37.4l1.416-1.416L93.379,39.9l10.872-10.872,1.416,1.416Z" transform="translate(-88.057 -29.023)" fill="#55a3f3"/>
      </g>
      <g id="Grupo_115112" data-name="Grupo 115112">
        <path id="Trazado_160656" data-name="Trazado 160656" d="M63.871,42.727,58.549,37.4l1.416-1.416L63.871,39.9,74.744,29.023l1.416,1.416Z" transform="translate(-58.549 -29.023)" fill="#55a3f3"/>
      </g>
    </g>
    <g id="Grupo_115116" data-name="Grupo 115116" transform="translate(168.132 219.744)" opacity="0.4">
      <g id="Grupo_115114" data-name="Grupo 115114" transform="translate(13.596)">
        <path id="Trazado_160657" data-name="Trazado 160657" d="M364.918,467.989l-5.322-5.322,1.416-1.416,3.906,3.907,10.872-10.873,1.416,1.416Z" transform="translate(-359.596 -454.285)" fill="#55a3f3"/>
      </g>
      <g id="Grupo_115115" data-name="Grupo 115115">
        <path id="Trazado_160658" data-name="Trazado 160658" d="M335.411,467.989l-5.322-5.322,1.416-1.416,3.906,3.907,10.872-10.873L347.7,455.7Z" transform="translate(-330.089 -454.285)" fill="#55a3f3"/>
      </g>
    </g>
    <g id="Grupo_115119" data-name="Grupo 115119" transform="translate(29.748 51.89)">
      <g id="Grupo_115118" data-name="Grupo 115118">
        <g id="Grupo_115117" data-name="Grupo 115117">
          <rect id="Rectángulo_36845" data-name="Rectángulo 36845" width="59.436" height="43.13" rx="11.537" fill="#9ddcf9"/>
          <path id="Trazado_160659" data-name="Trazado 160659" d="M93.294,180.506l-5.588,12.809-5.588-12.809Z" transform="translate(-57.989 -138.798)" fill="#9ddcf9"/>
        </g>
        <path id="Trazado_160660" data-name="Trazado 160660" d="M74.325,136.2l-.78-.518c-.655-.435-16.044-10.758-15.98-19.97.045-6.553,4.725-9.949,9.325-9.917a9.894,9.894,0,0,1,7.618,3.8,9.893,9.893,0,0,1,7.673-3.69c4.6.032,9.232,3.492,9.186,10.045-.064,9.212-15.594,19.321-16.255,19.747Z" transform="translate(-44.748 -98.511)" fill="#ff675d"/>
      </g>
    </g>
    <g id="Grupo_115125" data-name="Grupo 115125" transform="translate(170.752 138.283)">
      <g id="Grupo_115122" data-name="Grupo 115122" transform="translate(0 0)">
        <g id="Grupo_115121" data-name="Grupo 115121">
          <g id="Grupo_115120" data-name="Grupo 115120">
            <path id="Trazado_160661" data-name="Trazado 160661" d="M400.746,281.029a3.541,3.541,0,0,0-3.541-3.541H339.316a3.541,3.541,0,0,0-3.541,3.541v2.043h64.971Z" transform="translate(-335.775 -277.488)" fill="#2c54ac"/>
            <path id="Trazado_160662" data-name="Trazado 160662" d="M335.775,289.607v44.2a3.541,3.541,0,0,0,3.541,3.541H397.2a3.541,3.541,0,0,0,3.541-3.541v-44.2Z" transform="translate(-335.775 -284.023)" fill="#9ddcf9"/>
          </g>
          <path id="Trazado_160663" data-name="Trazado 160663" d="M442.753,282a1.32,1.32,0,1,1-1.32-1.32A1.319,1.319,0,0,1,442.753,282Z" transform="translate(-392.039 -279.211)" fill="#55a3f3"/>
          <path id="Trazado_160664" data-name="Trazado 160664" d="M454.183,282a1.32,1.32,0,1,1-1.32-1.32A1.319,1.319,0,0,1,454.183,282Z" transform="translate(-398.203 -279.211)" fill="#fff"/>
          <path id="Trazado_160665" data-name="Trazado 160665" d="M465.613,282a1.32,1.32,0,1,1-1.32-1.32A1.319,1.319,0,0,1,465.613,282Z" transform="translate(-404.366 -279.211)" fill="#ff4648"/>
        </g>
      </g>
      <g id="Grupo_115124" data-name="Grupo 115124" transform="translate(15.548 11.11)">
        <path id="Trazado_160666" data-name="Trazado 160666" d="M413.69,315.529H403.422a1.187,1.187,0,0,1-.6-2.209c4.474-2.643,6.8-5.727,7.1-9.427a2.552,2.552,0,0,1,2.549-2.293,5.018,5.018,0,0,1,4.939,5.016h0v.4c0,3.239-.959,5.3-2.73,7.982A1.187,1.187,0,0,1,413.69,315.529Z" transform="translate(-387.161 -301.6)" fill="#ff8775"/>
        <path id="Trazado_160667" data-name="Trazado 160667" d="M420.507,330.4a3.724,3.724,0,0,0-3.72-3.72H397.655a1.186,1.186,0,0,0-.6.165c-1.343.794-2.7,1.448-3.789,1.973-.38.183-.739.356-1.065.52a1.187,1.187,0,0,0-.657,1.062v15.2a1.188,1.188,0,0,0,.657,1.062c4.8,2.4,8.784,2.688,13.434,2.688.72,0,1.456-.007,2.214-.014.838-.008,1.7-.016,2.611-.016h3.753a3.718,3.718,0,0,0,3.2-5.61,3.717,3.717,0,0,0,1.266-5.066,3.716,3.716,0,0,0,.81-5.681A3.7,3.7,0,0,0,420.507,330.4Z" transform="translate(-381.394 -315.123)" fill="#ff8775"/>
        <path id="SVGCleanerId_0" data-name="SVGCleanerId 0" d="M382.886,360.878v6.253h-2.374v-6.253a1.187,1.187,0,1,1,2.374,0Z" transform="translate(-375.447 -332.925)" fill="#73c3ff"/>
        <g id="Grupo_115123" data-name="Grupo 115123" transform="translate(5.065 26.766)">
          <path id="SVGCleanerId_0-2" data-name="SVGCleanerId 0" d="M382.886,360.878v6.253h-2.374v-6.253a1.187,1.187,0,1,1,2.374,0Z" transform="translate(-380.512 -359.691)" fill="#73c3ff"/>
        </g>
        <path id="Trazado_160668" data-name="Trazado 160668" d="M380.837,326.679h-10.13a1.188,1.188,0,0,0-1.187,1.187v20.261a1.21,1.21,0,0,0,1.187,1.2h7.6a3.763,3.763,0,0,0,3.328-2.075,3.686,3.686,0,0,0,.392-1.66V327.866A1.188,1.188,0,0,0,380.837,326.679Z" transform="translate(-369.519 -315.123)" fill="#2c54ac"/>
        <path id="Trazado_160669" data-name="Trazado 160669" d="M382.886,360.707v6.332h-2.374v-6.332a1.187,1.187,0,0,1,2.374,0Z" transform="translate(-375.447 -332.833)" fill="#0a2a6b"/>
      </g>
    </g>
    <g id="Grupo_115130" data-name="Grupo 115130" transform="translate(76.625 19.339)">
      <path id="Trazado_160670" data-name="Trazado 160670" d="M281.175,320.712l-10.493,5.86a4.683,4.683,0,0,1-6.106-1.384l-35.828-50.63,22.63-12.64,26.993,48.328a4.685,4.685,0,0,0,2.3,2.046h0A4.683,4.683,0,0,1,281.175,320.712Z" transform="translate(-183.934 -150.148)" fill="#2c54ac"/>
      <path id="Trazado_160671" data-name="Trazado 160671" d="M277.667,322.671l-10.493,5.86a4.683,4.683,0,0,1-6.106-1.383l-35.828-50.631,22.63-12.639,26.993,48.328a4.683,4.683,0,0,0,2.3,2.046h0A4.683,4.683,0,0,1,277.667,322.671Z" transform="translate(-182.042 -151.205)" fill="#0a2a6b"/>
      <ellipse id="Elipse_5014" data-name="Elipse 5014" cx="9.917" cy="27.132" rx="9.917" ry="27.132" transform="translate(0 91.214) rotate(-29.185)" fill="#55a3f3"/>
      <g id="Grupo_115126" data-name="Grupo 115126" transform="translate(8.658 15.768)">
        <path id="Trazado_160672" data-name="Trazado 160672" d="M246.912,55.043a151.317,151.317,0,0,1-55.22,58.159c-2.06,5.124.5,16.144,6.783,27.39s14.321,19.207,19.765,20.14a151.314,151.314,0,0,1,78.478-16.517l1.678.1L247.7,53.561Z" transform="translate(-172.233 -53.561)" fill="#9ddcf9"/>
        <path id="Trazado_160673" data-name="Trazado 160673" d="M176.52,210.391c-6.282-11.246-8.843-22.266-6.783-27.39q-2.185,1.319-4.416,2.568l-15.043,8.4,26.461,47.376,15.043-8.4q2.232-1.247,4.5-2.413C190.84,229.6,182.8,221.637,176.52,210.391Z" transform="translate(-150.278 -123.361)" fill="#55a3f3"/>
      </g>
      <g id="Grupo_115127" data-name="Grupo 115127" transform="translate(58.451 124.696)" opacity="0.3">
        <path id="Trazado_160674" data-name="Trazado 160674" d="M268.592,292.214l-8.465,4.728a1.2,1.2,0,0,1-1.629-.461h0a1.2,1.2,0,0,1,.462-1.629l8.465-4.728a1.2,1.2,0,0,1,1.629.461h0A1.2,1.2,0,0,1,268.592,292.214Z" transform="translate(-258.346 -289.972)" fill="#55a3f3"/>
        <path id="Trazado_160675" data-name="Trazado 160675" d="M273.614,301.2l-8.465,4.728a1.2,1.2,0,0,1-1.629-.461h0a1.2,1.2,0,0,1,.461-1.629l8.465-4.728a1.2,1.2,0,0,1,1.629.461h0A1.2,1.2,0,0,1,273.614,301.2Z" transform="translate(-261.054 -294.82)" fill="#55a3f3"/>
        <path id="Trazado_160676" data-name="Trazado 160676" d="M278.636,310.2l-8.465,4.728a1.2,1.2,0,0,1-1.629-.462h0a1.2,1.2,0,0,1,.461-1.629l8.465-4.728a1.2,1.2,0,0,1,1.629.461h0A1.2,1.2,0,0,1,278.636,310.2Z" transform="translate(-263.762 -299.668)" fill="#55a3f3"/>
        <path id="Trazado_160677" data-name="Trazado 160677" d="M283.657,319.187l-8.465,4.728a1.2,1.2,0,0,1-1.629-.462h0a1.2,1.2,0,0,1,.462-1.629l8.465-4.728a1.2,1.2,0,0,1,1.629.461h0A1.2,1.2,0,0,1,283.657,319.187Z" transform="translate(-266.47 -304.517)" fill="#55a3f3"/>
        <path id="Trazado_160678" data-name="Trazado 160678" d="M288.679,328.178l-8.466,4.728a1.2,1.2,0,0,1-1.629-.461h0a1.2,1.2,0,0,1,.462-1.629l8.465-4.728a1.2,1.2,0,0,1,1.629.462h0A1.2,1.2,0,0,1,288.679,328.178Z" transform="translate(-269.178 -309.365)" fill="#55a3f3"/>
        <path id="Trazado_160679" data-name="Trazado 160679" d="M293.7,337.169l-8.465,4.728a1.2,1.2,0,0,1-1.629-.461h0a1.2,1.2,0,0,1,.461-1.629l8.465-4.728a1.2,1.2,0,0,1,1.629.462h0A1.2,1.2,0,0,1,293.7,337.169Z" transform="translate(-271.886 -314.213)" fill="#55a3f3"/>
        <path id="Trazado_160680" data-name="Trazado 160680" d="M298.723,346.159l-8.465,4.728a1.2,1.2,0,0,1-1.629-.461h0a1.2,1.2,0,0,1,.461-1.629l8.465-4.728a1.2,1.2,0,0,1,1.629.461h0A1.2,1.2,0,0,1,298.723,346.159Z" transform="translate(-274.594 -319.062)" fill="#55a3f3"/>
        <path id="Trazado_160681" data-name="Trazado 160681" d="M303.744,355.15l-8.466,4.728a1.2,1.2,0,0,1-1.629-.461h0a1.2,1.2,0,0,1,.462-1.629l8.465-4.728a1.2,1.2,0,0,1,1.629.461h0A1.2,1.2,0,0,1,303.744,355.15Z" transform="translate(-277.302 -323.91)" fill="#55a3f3"/>
        <path id="Trazado_160682" data-name="Trazado 160682" d="M308.766,364.141l-8.465,4.728a1.2,1.2,0,0,1-1.629-.462h0a1.2,1.2,0,0,1,.461-1.629l8.466-4.728a1.2,1.2,0,0,1,1.629.461h0A1.2,1.2,0,0,1,308.766,364.141Z" transform="translate(-280.009 -328.758)" fill="#55a3f3"/>
      </g>
      <g id="Grupo_115128" data-name="Grupo 115128" transform="translate(19.598 85.709)" opacity="0.3" style="mix-blend-mode: multiply;isolation: isolate">
        <path id="Trazado_160683" data-name="Trazado 160683" d="M239.253,211.781c-23.434,6.717-45.309,18.194-65.232,32.284,5.9,7.335,12.04,11.281,15.521,9.337l10.071-5.625,33.836,47.815a4.683,4.683,0,0,0,6.106,1.383l10.493-5.86h0l1.616-.9a4.683,4.683,0,0,0-.5-8.419,4.685,4.685,0,0,1-2.3-2.046l-24.553-43.96a151.3,151.3,0,0,1,63.26-9.717l1.677.1-.025-.045a10.008,10.008,0,0,0,7.065-.789c4.654-2.6,6.341-9.55,5.354-18.879C280.845,203.843,259.445,205.993,239.253,211.781Z" transform="translate(-174.021 -205.358)" fill="#55a3f3"/>
      </g>
      <ellipse id="Elipse_5015" data-name="Elipse 5015" cx="20.862" cy="54.703" rx="20.862" ry="54.703" transform="translate(70.297 20.345) rotate(-29.185)" fill="#55a3f3"/>
      <ellipse id="Elipse_5016" data-name="Elipse 5016" cx="18.653" cy="50.644" rx="18.653" ry="50.644" transform="matrix(0.873, -0.488, 0.488, 0.873, 74.205, 22.812)" fill="#0a2a6b"/>
      <g id="Grupo_115129" data-name="Grupo 115129" transform="translate(92.954 34.8)">
        <path id="Trazado_160684" data-name="Trazado 160684" d="M412.834,95.483l-8.489,4.035c1.978,2.951,3.907,6.088,5.748,9.385q.7,1.256,1.368,2.51L419,106.527a6.338,6.338,0,0,0,2.087-8.41h0A6.339,6.339,0,0,0,412.834,95.483Z" transform="translate(-371.577 -94.868)" fill="#2c54ac"/>
        <path id="Trazado_160685" data-name="Trazado 160685" d="M366,104.961l-32.768,15.578c1.7,3.929,3.689,7.955,5.947,12q1.31,2.344,2.673,4.578l31.264-20.259q-.667-1.254-1.367-2.51C369.9,111.049,367.974,107.912,366,104.961Z" transform="translate(-333.228 -100.311)" fill="#2c54ac"/>
      </g>
    </g>
    <g id="Grupo_115134" data-name="Grupo 115134" transform="translate(37.501 122.458)">
      <path id="Trazado_160686" data-name="Trazado 160686" d="M127.162,373.666l32.14,10.465,20.27-26.343,7.061,5.455-23.356,37.988-38.923-8.65Z" transform="translate(-88.517 -304.964)" fill="#0a2a6b"/>
      <path id="Trazado_160687" data-name="Trazado 160687" d="M78.028,305.566c.029,4.061.184,8,.416,12.053a17.646,17.646,0,0,0,9.017,6.917,20.168,20.168,0,0,0,8.082.413,13.849,13.849,0,0,0,6.619-2.3,16.25,16.25,0,0,1-2.62-5.531c-.251-1.315-.468-14.762-.468-14.762s6.118-1.692,8.422-3.042a4.212,4.212,0,0,0,1.787-1.6,4.056,4.056,0,0,0,.183-2.321,30.2,30.2,0,0,0-.854-4.248,12.754,12.754,0,0,1-7.01-2.97,30.267,30.267,0,0,0,5.7-.709,16.46,16.46,0,0,1-.84-2.155c1.417-1.622,2.86-3.287,4.156-5.008-2.652-1.355-5.337-2.95-7.849-4.549a33.116,33.116,0,0,0-4.181-7.458,5.531,5.531,0,0,0-3.195-1.719,12.39,12.39,0,0,0-7.435.671,17.3,17.3,0,0,0-6.131,4.361,21.735,21.735,0,0,0-5.58,11.992,38.569,38.569,0,0,0,.294,9.434C77.051,297.25,78,301.32,78.028,305.566Z" transform="translate(-62.474 -255.62)" fill="#ff8775"/>
      <path id="Trazado_160688" data-name="Trazado 160688" d="M82.682,256.179s-8.322,4.526-13.09,4.46a43.088,43.088,0,0,0,1.761,4.679c1.22,2.9,2.254,5.687,3.474,8.584a20.353,20.353,0,0,1-3.339,1.246c-.851-1.97-1.767-4.038-2.618-6.008a3.981,3.981,0,0,0-4.409,2.471,5.45,5.45,0,0,0,.9,5.194,5.274,5.274,0,0,0,2.428,1.822,9.119,9.119,0,0,0,3.423.164A21.4,21.4,0,0,1,68.8,296.763a12.519,12.519,0,0,0-.508-5.1,17.591,17.591,0,0,1-5.853,8.368,18.466,18.466,0,0,0-3.692-9.458c-1.97-2.808-4.369-5.283-6.54-7.939a24.909,24.909,0,0,1-5.06-8.872c-.916-3.305-.868-7.356,1.159-10.123a5.8,5.8,0,0,1-.754-6.484,10.28,10.28,0,0,1,5.09-4.547,51.83,51.83,0,0,1,6.6-2.191,49.665,49.665,0,0,0,9.327-3.959c2.5-1.376,4.992-3.007,7.831-3.273a13.653,13.653,0,0,1,6.186,1.163c2.72,1.069,5.5,2.743,6.476,5.5.8,2.244,0,4.628-1.15,6.713a8.362,8.362,0,0,0-1.047-4.648c.306,2.513-.2,5.4-2.084,7.091A20.011,20.011,0,0,0,82.682,256.179Z" transform="translate(-46.574 -243.143)" fill="#0a2a6b"/>
      <path id="Trazado_160689" data-name="Trazado 160689" d="M133.145,438.077s-.645-24.84-2.966-35.029a54,54,0,0,0-7.949-17.881l-7.131,1.655,7.056,51.256Z" transform="translate(-83.525 -319.728)" fill="#55a3f3"/>
      <path id="Trazado_160690" data-name="Trazado 160690" d="M46.574,428.066,62.437,366.6s12.991,2.186,18.279,8.764a46.708,46.708,0,0,1,7.516,13.79l25.5,11.362,30.614-23.875,7.12,9.987-34.9,27.689-27.191-5.933,2.427,19.681Z" transform="translate(-46.574 -309.717)" fill="#0a2a6b"/>
      <path id="Trazado_160691" data-name="Trazado 160691" d="M165.412,395.141l-6.6,5.263-6.619,5.24q-6.617,5.242-13.275,10.432l-.1.077-.117-.049-11.442-4.846-11.43-4.876-11.412-4.918-11.39-4.969,11.489,4.737,11.467,4.788,11.449,4.83,11.436,4.86-.215.028Q145.319,410.557,152,405.4l6.695-5.143Z" transform="translate(-71.624 -325.107)" fill="#9ddcf9"/>
      <path id="Trazado_160692" data-name="Trazado 160692" d="M117.7,452.009c-1.573-.283-3.135-.616-4.695-.956s-3.114-.7-4.666-1.075-3.1-.763-4.641-1.179l-2.312-.626c-.766-.225-1.537-.435-2.3-.674.787.137,1.568.3,2.353.454l2.342.5c1.561.335,3.113.7,4.666,1.075s3.1.763,4.641,1.18S116.17,451.541,117.7,452.009Z" transform="translate(-74.891 -353.341)" fill="#9ddcf9"/>
      <path id="Trazado_160693" data-name="Trazado 160693" d="M120.126,344.569l-5.028,1.354,5.071,1.054Z" transform="translate(-83.525 -297.836)" fill="#0a2a6b"/>
      <path id="Trazado_160694" data-name="Trazado 160694" d="M124.832,291.974a1.371,1.371,0,1,1-1.371-1.371A1.371,1.371,0,0,1,124.832,291.974Z" transform="translate(-87.296 -268.735)" fill="#0a2a6b"/>
      <path id="Trazado_160695" data-name="Trazado 160695" d="M113.395,285.316a6.808,6.808,0,0,1,.193-2.785,7.11,7.11,0,0,1,1.331-2.6,11.661,11.661,0,0,1,1.007-1.145,3.355,3.355,0,0,1,1.313-.775,3.713,3.713,0,0,1,3.023.256l.018.23c-.809.7-1.444,1.15-2.065,1.6a5.42,5.42,0,0,1-.972.551,4.423,4.423,0,0,0-1,.569,6.278,6.278,0,0,0-.853.81,6.619,6.619,0,0,0-.742.964,7.881,7.881,0,0,0-1.019,2.336Z" transform="translate(-82.57 -261.835)" fill="#0a2a6b"/>
      <g id="Grupo_115131" data-name="Grupo 115131" transform="translate(18.677 27.737)">
        <path id="Trazado_160696" data-name="Trazado 160696" d="M92.211,310.07a3.562,3.562,0,0,1-2.007-1.007.986.986,0,0,1-.247-.738,1.1,1.1,0,0,1,.955-.777,2.666,2.666,0,0,1,1.15.026A10.37,10.37,0,0,0,90.843,305a3.023,3.023,0,0,0-1.259-1.21,1.752,1.752,0,0,0-2.412,1.344s-.511,1.8,1.378,3.85S92.211,310.07,92.211,310.07Z" transform="translate(-87.109 -303.511)" fill="#ff5748"/>
        <path id="Trazado_160697" data-name="Trazado 160697" d="M87.246,304.965a1.777,1.777,0,0,1,1.176-1.52,1.927,1.927,0,0,1,1.039-.059,2.1,2.1,0,0,1,.932.489,6.315,6.315,0,0,1,1.185,1.627,9.67,9.67,0,0,1,.771,1.835l.115.378-.382-.094a2.457,2.457,0,0,0-1.253.008c-.392.118-.726.407-.628.793a1.7,1.7,0,0,0,.817.943,6.688,6.688,0,0,0,1.265.535,5.378,5.378,0,0,1-1.355-.366,2.089,2.089,0,0,1-.607-.4,1.468,1.468,0,0,1-.422-.634.888.888,0,0,1,.147-.807,1.388,1.388,0,0,1,.652-.447,2.714,2.714,0,0,1,1.489-.059l-.266.284a11.463,11.463,0,0,0-.742-1.757,6.721,6.721,0,0,0-1.054-1.551,1.664,1.664,0,0,0-1.633-.482A1.748,1.748,0,0,0,87.246,304.965Z" transform="translate(-87.183 -303.341)" fill="#0a2a6b"/>
      </g>
      <path id="Trazado_160698" data-name="Trazado 160698" d="M123.872,305.415c.189.813-.817,1.742-2.248,2.075s-2.744-.057-2.933-.87.817-1.742,2.248-2.075S123.683,304.6,123.872,305.415Z" transform="translate(-85.45 -276.189)" fill="#ff675d" opacity="0.6" style="mix-blend-mode: multiply;isolation: isolate"/>
      <g id="Grupo_115132" data-name="Grupo 115132" transform="translate(1.286 3.49)" opacity="0.2">
        <path id="Trazado_160699" data-name="Trazado 160699" d="M91.383,256.12A5.9,5.9,0,0,0,89.84,253.8a12.605,12.605,0,0,0-2.226-1.694,7.468,7.468,0,0,0-2.567-1.009,5.072,5.072,0,0,0-2.691.28,12.916,12.916,0,0,0-2.441,1.32c-.782.515-1.575,1.038-2.386,1.522a34.711,34.711,0,0,1-5.075,2.541,26.06,26.06,0,0,1-5.485,1.475c-1.864.3-3.73.525-5.533,1a10.44,10.44,0,0,0-4.845,2.609,6,6,0,0,0-1.786,5.086,5.206,5.206,0,0,1,.175-2.8,6.858,6.858,0,0,1,1.446-2.442,10.689,10.689,0,0,1,4.914-2.795,48.821,48.821,0,0,1,5.559-1.076,25.733,25.733,0,0,0,5.387-1.491,34.279,34.279,0,0,0,5.029-2.472c.809-.475,1.591-.983,2.384-1.5a12.021,12.021,0,0,1,2.537-1.317,5.4,5.4,0,0,1,2.862-.233,7.641,7.641,0,0,1,2.633,1.1,12.714,12.714,0,0,1,2.194,1.8A5.72,5.72,0,0,1,91.383,256.12Z" transform="translate(-52.236 -250.718)" fill="#9ddcf9"/>
        <path id="Trazado_160700" data-name="Trazado 160700" d="M90.942,265.3a4.05,4.05,0,0,0,.938-2.4,5.282,5.282,0,0,0-.487-2.527,5.054,5.054,0,0,0-1.6-1.979,3.027,3.027,0,0,0-2.373-.577,6.106,6.106,0,0,0-2.3,1.085,22.527,22.527,0,0,0-2.045,1.634,26.034,26.034,0,0,1-4.182,3.29,9.218,9.218,0,0,1-2.524.951,14.3,14.3,0,0,1-2.663.292c-1.779.046-3.538-.121-5.284-.089a10.494,10.494,0,0,0-5.03,1.154,12.311,12.311,0,0,0-3.626,3.741,11.973,11.973,0,0,1,3.511-3.935,10.743,10.743,0,0,1,5.133-1.315c1.777-.088,3.539.092,5.283.024a10.388,10.388,0,0,0,4.977-1.227,25.706,25.706,0,0,0,4.131-3.2,22.945,22.945,0,0,1,2.1-1.646,6.117,6.117,0,0,1,2.465-1.1,3.354,3.354,0,0,1,2.6.691,5.262,5.262,0,0,1,1.637,2.122,5.444,5.444,0,0,1,.4,2.627A3.982,3.982,0,0,1,90.942,265.3Z" transform="translate(-54.972 -254.331)" fill="#9ddcf9"/>
        <path id="Trazado_160701" data-name="Trazado 160701" d="M81.509,281.014l-3.8.3c-1.262.115-2.524.22-3.783.349s-2.519.26-3.779.393l-3.781.441c.614-.17,1.235-.3,1.856-.444q.936-.186,1.876-.348c1.254-.217,2.518-.371,3.783-.5s2.536-.212,3.808-.242S80.238,280.926,81.509,281.014Z" transform="translate(-58.535 -267.015)" fill="#9ddcf9"/>
        <path id="Trazado_160702" data-name="Trazado 160702" d="M68.936,288.062a7.281,7.281,0,0,1,2.243,2.338,10.83,10.83,0,0,1,1.226,3.033,13.893,13.893,0,0,1,.389,3.252,16.766,16.766,0,0,1-.267,3.266,17.854,17.854,0,0,1-2.361,6.076,18.649,18.649,0,0,1-1.984,2.591,17.141,17.141,0,0,1-2.457,2.125,18.6,18.6,0,0,0,4.138-4.9,18.315,18.315,0,0,0,2.212-5.976,16.285,16.285,0,0,0,.3-3.179,15.636,15.636,0,0,0-.314-3.176,10.672,10.672,0,0,0-1.076-3A7.6,7.6,0,0,0,68.936,288.062Z" transform="translate(-58.187 -270.856)" fill="#9ddcf9"/>
        <path id="Trazado_160703" data-name="Trazado 160703" d="M58.834,290.845a11.1,11.1,0,0,1,.855,2.01,12.574,12.574,0,0,1,.448,2.151,11.721,11.721,0,0,1-2.217,8.351A12.593,12.593,0,0,1,56.463,305a11.086,11.086,0,0,1-1.74,1.32,13.62,13.62,0,0,0,1.58-1.479,12.606,12.606,0,0,0,1.327-1.689,13,13,0,0,0,2.156-8.116A13.958,13.958,0,0,0,58.834,290.845Z" transform="translate(-52.254 -272.356)" fill="#9ddcf9"/>
        <path id="Trazado_160704" data-name="Trazado 160704" d="M49.365,301.279a11.041,11.041,0,0,0,1.785-2.268,11.268,11.268,0,0,0,1.543-5.443l-.008-.718-.064-.718-.1-.717c-.056-.235-.106-.473-.154-.714.094.224.186.452.272.683l.207.71.131.729.072.74a9.133,9.133,0,0,1-1.6,5.639l-.45.592-.494.552-.549.5C49.761,300.992,49.563,301.137,49.365,301.279Z" transform="translate(-49.365 -272.279)" fill="#9ddcf9"/>
      </g>
      <g id="Grupo_115133" data-name="Grupo 115133" transform="translate(97.775 51.881)">
        <path id="Trazado_160705" data-name="Trazado 160705" d="M258.779,376.679l9.858-10.009,6.124,9.066a23.28,23.28,0,0,1-6.269,4.2,30.156,30.156,0,0,1-5.986,1.976Z" transform="translate(-258.779 -361.635)" fill="#ff8775"/>
        <path id="Trazado_160706" data-name="Trazado 160706" d="M279.858,360.886c2.9-2.283,6.051-4.515,9.7-5.1a1.543,1.543,0,0,1,.815.025.58.58,0,0,1,.384.646.6.6,0,0,1-.182.267,4.338,4.338,0,0,1-.936.623,59.127,59.127,0,0,0-8.788,5.627c3.64-1.672,7.234-3.341,11.223-3.708a3.524,3.524,0,0,1,1.82.185.518.518,0,0,1,.324.329c.041.219-.164.4-.352.521a23.78,23.78,0,0,1-5.49,2.159,31.431,31.431,0,0,0-6.249,2.887,54.9,54.9,0,0,1,12.919-3.119l.219-.016a.751.751,0,0,1,.53,1.319,4.7,4.7,0,0,1-1.3.765,16.043,16.043,0,0,1-2.318.7c-.513.112-1.033.2-1.537.347a13.319,13.319,0,0,0-1.563.6l-5.268,2.3a35.786,35.786,0,0,1,10.763-2.148c.242-.009.379.266.4.507a.739.739,0,0,1-.3.627,1.893,1.893,0,0,1-.627.3,12.12,12.12,0,0,1-3.4.578c-1.318.025-2.556.878-3.717,1.5a3.711,3.711,0,0,1-1.862.643,2.639,2.639,0,0,1-1.558-.187,6.98,6.98,0,0,1-3.69-8.394" transform="translate(-269.958 -355.743)" fill="#ff8775"/>
      </g>
      <path id="Trazado_160707" data-name="Trazado 160707" d="M244.2,348.823l7.521-7.66,6.319,8.908-6.778,4.207Z" transform="translate(-153.14 -295.999)" fill="#ff8775"/>
      <path id="Trazado_160708" data-name="Trazado 160708" d="M244.2,346.588s2.353-5.536,4.256-6.973,6.608-2.876,7.35-2.551.069,2.536-1.509,3.464-3.178,2.059-3.178,2.059Z" transform="translate(-153.14 -293.764)" fill="#ff8775"/>
      <path id="Trazado_160709" data-name="Trazado 160709" d="M260.353,345.971a19.585,19.585,0,0,1-2.621,1.51l.129-.21a8.817,8.817,0,0,1-.085,1.5,5.367,5.367,0,0,1-.16.74,2.184,2.184,0,0,1-.317.69,4.266,4.266,0,0,0,.083-.731c.012-.243.018-.486.02-.729l.006-1.458v-.151l.128-.059A19.606,19.606,0,0,1,260.353,345.971Z" transform="translate(-160.206 -298.592)" fill="#0a2a6b"/>
    </g>
  </g>
</svg>
