<svg xmlns="http://www.w3.org/2000/svg" xmlns:xlink="http://www.w3.org/1999/xlink" width="400" height="367.62" viewBox="0 0 400 367.62">
  <defs>
    <clipPath id="clip-path">
      <path id="Trazado_160724" data-name="Trazado 160724" d="M128.169,231.5c-32.524,62.8,10.509,179.737,95.322,211.924C333.414,485.14,425.5,361.387,435.414,348.1c10.355-13.879,75.091-101.835,37.224-176.093-24.6-48.233-85.821-77.589-132.953-68.35-37.836,7.417-31.193,32.768-89.651,56.622-39.537,16.133-66.636,14.355-97.992,42.788C148.557,206.229,135.39,217.555,128.169,231.5Z" transform="translate(-117.305 -101.964)" fill="none"/>
    </clipPath>
  </defs>
  <g id="Grupo_119016" data-name="Grupo 119016" transform="translate(-180 -1571.38)">
    <path id="Rectángulo_36743" data-name="Rectángulo 36743" d="M0,0H314a0,0,0,0,1,0,0V335a0,0,0,0,1,0,0H93A93,93,0,0,1,0,242V0A0,0,0,0,1,0,0Z" transform="translate(266 1604)" fill="#fff6e6"/>
    <g id="Grupo_115230" data-name="Grupo 115230" transform="translate(100.904 1507.259)">
      <g id="Grupo_115198" data-name="Grupo 115198" transform="translate(79.095 64.121)">
        <g id="Grupo_115166" data-name="Grupo 115166" transform="translate(16.788 16.627)">
          <g id="Grupo_115155" data-name="Grupo 115155" transform="translate(82.07 191.385)">
            <g id="Grupo_115137" data-name="Grupo 115137" transform="translate(157.048 18.124)">
              <rect id="Rectángulo_36846" data-name="Rectángulo 36846" width="24.466" height="40.406" rx="6.75" fill="#c7ebef"/>
              <g id="Grupo_115136" data-name="Grupo 115136" transform="translate(2.545 2.762)">
                <rect id="Rectángulo_36847" data-name="Rectángulo 36847" width="8.851" height="2.221" fill="#67a2c7"/>
                <rect id="Rectángulo_36848" data-name="Rectángulo 36848" width="8.851" height="2.221" transform="translate(10.526)" fill="#67a2c7"/>
                <rect id="Rectángulo_36849" data-name="Rectángulo 36849" width="8.851" height="2.221" transform="translate(0 3.427)" fill="#67a2c7"/>
                <rect id="Rectángulo_36850" data-name="Rectángulo 36850" width="8.851" height="2.221" transform="translate(10.526 3.427)" fill="#67a2c7"/>
                <rect id="Rectángulo_36851" data-name="Rectángulo 36851" width="8.851" height="2.221" transform="translate(0 6.855)" fill="#67a2c7"/>
                <rect id="Rectángulo_36852" data-name="Rectángulo 36852" width="8.851" height="2.221" transform="translate(10.526 6.855)" fill="#67a2c7"/>
                <rect id="Rectángulo_36853" data-name="Rectángulo 36853" width="8.851" height="2.221" transform="translate(0 10.282)" fill="#67a2c7"/>
                <rect id="Rectángulo_36854" data-name="Rectángulo 36854" width="8.851" height="2.221" transform="translate(10.526 10.282)" fill="#67a2c7"/>
                <rect id="Rectángulo_36855" data-name="Rectángulo 36855" width="8.851" height="2.221" transform="translate(0 13.854)" fill="#67a2c7"/>
                <rect id="Rectángulo_36856" data-name="Rectángulo 36856" width="8.851" height="2.221" transform="translate(10.526 13.854)" fill="#67a2c7"/>
                <rect id="Rectángulo_36857" data-name="Rectángulo 36857" width="8.851" height="2.221" transform="translate(0 17.281)" fill="#67a2c7"/>
                <rect id="Rectángulo_36858" data-name="Rectángulo 36858" width="8.851" height="2.221" transform="translate(10.526 17.281)" fill="#67a2c7"/>
                <rect id="Rectángulo_36859" data-name="Rectángulo 36859" width="8.851" height="2.221" transform="translate(0 20.708)" fill="#67a2c7"/>
                <rect id="Rectángulo_36860" data-name="Rectángulo 36860" width="8.851" height="2.221" transform="translate(10.526 20.708)" fill="#67a2c7"/>
                <rect id="Rectángulo_36861" data-name="Rectángulo 36861" width="8.851" height="2.221" transform="translate(0 24.136)" fill="#67a2c7"/>
                <rect id="Rectángulo_36862" data-name="Rectángulo 36862" width="8.851" height="2.221" transform="translate(10.526 24.136)" fill="#67a2c7"/>
                <rect id="Rectángulo_36863" data-name="Rectángulo 36863" width="8.851" height="2.221" transform="translate(0 27.563)" fill="#67a2c7"/>
                <rect id="Rectángulo_36864" data-name="Rectángulo 36864" width="8.851" height="2.221" transform="translate(10.526 27.563)" fill="#67a2c7"/>
                <rect id="Rectángulo_36865" data-name="Rectángulo 36865" width="8.851" height="2.221" transform="translate(0 30.99)" fill="#67a2c7"/>
                <rect id="Rectángulo_36866" data-name="Rectángulo 36866" width="8.851" height="2.221" transform="translate(10.526 30.99)" fill="#67a2c7"/>
              </g>
            </g>
            <g id="Grupo_115139" data-name="Grupo 115139" transform="translate(24.618 4.955)">
              <rect id="Rectángulo_36867" data-name="Rectángulo 36867" width="24.466" height="53.384" rx="6.75" fill="#c7ebef"/>
              <g id="Grupo_115138" data-name="Grupo 115138" transform="translate(2.545 3.649)">
                <rect id="Rectángulo_36868" data-name="Rectángulo 36868" width="8.851" height="2.935" fill="#67a2c7"/>
                <rect id="Rectángulo_36869" data-name="Rectángulo 36869" width="8.851" height="2.935" transform="translate(10.526)" fill="#67a2c7"/>
                <rect id="Rectángulo_36870" data-name="Rectángulo 36870" width="8.851" height="2.935" transform="translate(0 4.528)" fill="#67a2c7"/>
                <rect id="Rectángulo_36871" data-name="Rectángulo 36871" width="8.851" height="2.935" transform="translate(10.526 4.528)" fill="#67a2c7"/>
                <rect id="Rectángulo_36872" data-name="Rectángulo 36872" width="8.851" height="2.935" transform="translate(0 9.056)" fill="#67a2c7"/>
                <rect id="Rectángulo_36873" data-name="Rectángulo 36873" width="8.851" height="2.935" transform="translate(10.526 9.056)" fill="#67a2c7"/>
                <rect id="Rectángulo_36874" data-name="Rectángulo 36874" width="8.851" height="2.935" transform="translate(0 13.584)" fill="#67a2c7"/>
                <rect id="Rectángulo_36875" data-name="Rectángulo 36875" width="8.851" height="2.935" transform="translate(10.526 13.584)" fill="#67a2c7"/>
                <rect id="Rectángulo_36876" data-name="Rectángulo 36876" width="8.851" height="2.935" transform="translate(0 18.303)" fill="#67a2c7"/>
                <rect id="Rectángulo_36877" data-name="Rectángulo 36877" width="8.851" height="2.935" transform="translate(10.526 18.303)" fill="#67a2c7"/>
                <rect id="Rectángulo_36878" data-name="Rectángulo 36878" width="8.851" height="2.935" transform="translate(0 22.831)" fill="#67a2c7"/>
                <rect id="Rectángulo_36879" data-name="Rectángulo 36879" width="8.851" height="2.935" transform="translate(10.526 22.831)" fill="#67a2c7"/>
                <rect id="Rectángulo_36880" data-name="Rectángulo 36880" width="8.851" height="2.935" transform="translate(0 27.359)" fill="#67a2c7"/>
                <rect id="Rectángulo_36881" data-name="Rectángulo 36881" width="8.851" height="2.935" transform="translate(10.526 27.359)" fill="#67a2c7"/>
                <rect id="Rectángulo_36882" data-name="Rectángulo 36882" width="8.851" height="2.935" transform="translate(0 31.888)" fill="#67a2c7"/>
                <rect id="Rectángulo_36883" data-name="Rectángulo 36883" width="8.851" height="2.935" transform="translate(10.526 31.888)" fill="#67a2c7"/>
                <rect id="Rectángulo_36884" data-name="Rectángulo 36884" width="8.851" height="2.935" transform="translate(0 36.416)" fill="#67a2c7"/>
                <rect id="Rectángulo_36885" data-name="Rectángulo 36885" width="8.851" height="2.935" transform="translate(10.526 36.416)" fill="#67a2c7"/>
                <rect id="Rectángulo_36886" data-name="Rectángulo 36886" width="8.851" height="2.935" transform="translate(0 40.944)" fill="#67a2c7"/>
                <rect id="Rectángulo_36887" data-name="Rectángulo 36887" width="8.851" height="2.935" transform="translate(10.526 40.944)" fill="#67a2c7"/>
              </g>
            </g>
            <g id="Grupo_115142" data-name="Grupo 115142" transform="translate(202.382 20.399)">
              <rect id="Rectángulo_36888" data-name="Rectángulo 36888" width="24.466" height="38.132" rx="6.75" fill="#c7ebef"/>
              <g id="Grupo_115140" data-name="Grupo 115140" transform="translate(2.928 3.861)">
                <rect id="Rectángulo_36889" data-name="Rectángulo 36889" width="4.043" height="1.963" fill="#67a2c7"/>
                <rect id="Rectángulo_36890" data-name="Rectángulo 36890" width="4.043" height="1.963" transform="translate(4.808)" fill="#67a2c7"/>
                <rect id="Rectángulo_36891" data-name="Rectángulo 36891" width="4.043" height="1.963" transform="translate(0 3.029)" fill="#67a2c7"/>
                <rect id="Rectángulo_36892" data-name="Rectángulo 36892" width="4.043" height="1.963" transform="translate(4.808 3.029)" fill="#67a2c7"/>
                <rect id="Rectángulo_36893" data-name="Rectángulo 36893" width="4.043" height="1.963" transform="translate(0 6.058)" fill="#67a2c7"/>
                <rect id="Rectángulo_36894" data-name="Rectángulo 36894" width="4.043" height="1.963" transform="translate(4.808 6.058)" fill="#67a2c7"/>
                <rect id="Rectángulo_36895" data-name="Rectángulo 36895" width="4.043" height="1.963" transform="translate(0 9.087)" fill="#67a2c7"/>
                <rect id="Rectángulo_36896" data-name="Rectángulo 36896" width="4.043" height="1.963" transform="translate(4.808 9.087)" fill="#67a2c7"/>
                <rect id="Rectángulo_36897" data-name="Rectángulo 36897" width="4.043" height="1.963" transform="translate(0 12.243)" fill="#67a2c7"/>
                <rect id="Rectángulo_36898" data-name="Rectángulo 36898" width="4.043" height="1.963" transform="translate(4.808 12.243)" fill="#67a2c7"/>
                <rect id="Rectángulo_36899" data-name="Rectángulo 36899" width="4.043" height="1.963" transform="translate(0 15.272)" fill="#67a2c7"/>
                <rect id="Rectángulo_36900" data-name="Rectángulo 36900" width="4.043" height="1.963" transform="translate(4.808 15.272)" fill="#67a2c7"/>
                <rect id="Rectángulo_36901" data-name="Rectángulo 36901" width="4.043" height="1.963" transform="translate(0 18.301)" fill="#67a2c7"/>
                <rect id="Rectángulo_36902" data-name="Rectángulo 36902" width="4.043" height="1.963" transform="translate(4.808 18.301)" fill="#67a2c7"/>
                <rect id="Rectángulo_36903" data-name="Rectángulo 36903" width="4.043" height="1.963" transform="translate(0 21.33)" fill="#67a2c7"/>
                <rect id="Rectángulo_36904" data-name="Rectángulo 36904" width="4.043" height="1.963" transform="translate(4.808 21.33)" fill="#67a2c7"/>
                <rect id="Rectángulo_36905" data-name="Rectángulo 36905" width="4.043" height="1.963" transform="translate(0 24.359)" fill="#67a2c7"/>
                <rect id="Rectángulo_36906" data-name="Rectángulo 36906" width="4.043" height="1.963" transform="translate(4.808 24.359)" fill="#67a2c7"/>
                <rect id="Rectángulo_36907" data-name="Rectángulo 36907" width="4.043" height="1.963" transform="translate(0 27.388)" fill="#67a2c7"/>
                <rect id="Rectángulo_36908" data-name="Rectángulo 36908" width="4.043" height="1.963" transform="translate(4.808 27.388)" fill="#67a2c7"/>
              </g>
              <g id="Grupo_115141" data-name="Grupo 115141" transform="translate(12.545 3.861)">
                <rect id="Rectángulo_36909" data-name="Rectángulo 36909" width="4.043" height="1.963" fill="#67a2c7"/>
                <rect id="Rectángulo_36910" data-name="Rectángulo 36910" width="4.043" height="1.963" transform="translate(4.808)" fill="#67a2c7"/>
                <rect id="Rectángulo_36911" data-name="Rectángulo 36911" width="4.043" height="1.963" transform="translate(0 3.029)" fill="#67a2c7"/>
                <rect id="Rectángulo_36912" data-name="Rectángulo 36912" width="4.043" height="1.963" transform="translate(4.808 3.029)" fill="#67a2c7"/>
                <rect id="Rectángulo_36913" data-name="Rectángulo 36913" width="4.043" height="1.963" transform="translate(0 6.058)" fill="#67a2c7"/>
                <rect id="Rectángulo_36914" data-name="Rectángulo 36914" width="4.043" height="1.963" transform="translate(4.808 6.058)" fill="#67a2c7"/>
                <rect id="Rectángulo_36915" data-name="Rectángulo 36915" width="4.043" height="1.963" transform="translate(0 9.087)" fill="#67a2c7"/>
                <rect id="Rectángulo_36916" data-name="Rectángulo 36916" width="4.043" height="1.963" transform="translate(4.808 9.087)" fill="#67a2c7"/>
                <rect id="Rectángulo_36917" data-name="Rectángulo 36917" width="4.043" height="1.963" transform="translate(0 12.243)" fill="#67a2c7"/>
                <rect id="Rectángulo_36918" data-name="Rectángulo 36918" width="4.043" height="1.963" transform="translate(4.808 12.243)" fill="#67a2c7"/>
                <rect id="Rectángulo_36919" data-name="Rectángulo 36919" width="4.043" height="1.963" transform="translate(0 15.272)" fill="#67a2c7"/>
                <rect id="Rectángulo_36920" data-name="Rectángulo 36920" width="4.043" height="1.963" transform="translate(4.808 15.272)" fill="#67a2c7"/>
                <rect id="Rectángulo_36921" data-name="Rectángulo 36921" width="4.043" height="1.963" transform="translate(0 18.301)" fill="#67a2c7"/>
                <rect id="Rectángulo_36922" data-name="Rectángulo 36922" width="4.043" height="1.963" transform="translate(4.808 18.301)" fill="#67a2c7"/>
                <rect id="Rectángulo_36923" data-name="Rectángulo 36923" width="4.043" height="1.963" transform="translate(0 21.33)" fill="#67a2c7"/>
                <rect id="Rectángulo_36924" data-name="Rectángulo 36924" width="4.043" height="1.963" transform="translate(4.808 21.33)" fill="#67a2c7"/>
                <rect id="Rectángulo_36925" data-name="Rectángulo 36925" width="4.043" height="1.963" transform="translate(0 24.359)" fill="#67a2c7"/>
                <rect id="Rectángulo_36926" data-name="Rectángulo 36926" width="4.043" height="1.963" transform="translate(4.808 24.359)" fill="#67a2c7"/>
                <rect id="Rectángulo_36927" data-name="Rectángulo 36927" width="4.043" height="1.963" transform="translate(0 27.388)" fill="#67a2c7"/>
                <rect id="Rectángulo_36928" data-name="Rectángulo 36928" width="4.043" height="1.963" transform="translate(4.808 27.388)" fill="#67a2c7"/>
              </g>
            </g>
            <g id="Grupo_115145" data-name="Grupo 115145" transform="translate(0 20.213)">
              <rect id="Rectángulo_36929" data-name="Rectángulo 36929" width="24.466" height="38.131" rx="6.75" fill="#c7ebef"/>
              <g id="Grupo_115143" data-name="Grupo 115143" transform="translate(2.928 3.861)">
                <rect id="Rectángulo_36930" data-name="Rectángulo 36930" width="4.043" height="1.963" fill="#67a2c7"/>
                <rect id="Rectángulo_36931" data-name="Rectángulo 36931" width="4.043" height="1.963" transform="translate(4.808)" fill="#67a2c7"/>
                <rect id="Rectángulo_36932" data-name="Rectángulo 36932" width="4.043" height="1.963" transform="translate(0 3.029)" fill="#67a2c7"/>
                <rect id="Rectángulo_36933" data-name="Rectángulo 36933" width="4.043" height="1.963" transform="translate(4.808 3.029)" fill="#67a2c7"/>
                <rect id="Rectángulo_36934" data-name="Rectángulo 36934" width="4.043" height="1.963" transform="translate(0 6.058)" fill="#67a2c7"/>
                <rect id="Rectángulo_36935" data-name="Rectángulo 36935" width="4.043" height="1.963" transform="translate(4.808 6.058)" fill="#67a2c7"/>
                <rect id="Rectángulo_36936" data-name="Rectángulo 36936" width="4.043" height="1.963" transform="translate(0 9.087)" fill="#67a2c7"/>
                <rect id="Rectángulo_36937" data-name="Rectángulo 36937" width="4.043" height="1.963" transform="translate(4.808 9.087)" fill="#67a2c7"/>
                <rect id="Rectángulo_36938" data-name="Rectángulo 36938" width="4.043" height="1.963" transform="translate(0 12.243)" fill="#67a2c7"/>
                <rect id="Rectángulo_36939" data-name="Rectángulo 36939" width="4.043" height="1.963" transform="translate(4.808 12.243)" fill="#67a2c7"/>
                <rect id="Rectángulo_36940" data-name="Rectángulo 36940" width="4.043" height="1.963" transform="translate(0 15.272)" fill="#67a2c7"/>
                <rect id="Rectángulo_36941" data-name="Rectángulo 36941" width="4.043" height="1.963" transform="translate(4.808 15.272)" fill="#67a2c7"/>
                <rect id="Rectángulo_36942" data-name="Rectángulo 36942" width="4.043" height="1.963" transform="translate(0 18.301)" fill="#67a2c7"/>
                <rect id="Rectángulo_36943" data-name="Rectángulo 36943" width="4.043" height="1.963" transform="translate(4.808 18.301)" fill="#67a2c7"/>
                <rect id="Rectángulo_36944" data-name="Rectángulo 36944" width="4.043" height="1.963" transform="translate(0 21.33)" fill="#67a2c7"/>
                <rect id="Rectángulo_36945" data-name="Rectángulo 36945" width="4.043" height="1.963" transform="translate(4.808 21.33)" fill="#67a2c7"/>
                <rect id="Rectángulo_36946" data-name="Rectángulo 36946" width="4.043" height="1.963" transform="translate(0 24.359)" fill="#67a2c7"/>
                <rect id="Rectángulo_36947" data-name="Rectángulo 36947" width="4.043" height="1.963" transform="translate(4.808 24.359)" fill="#67a2c7"/>
                <rect id="Rectángulo_36948" data-name="Rectángulo 36948" width="4.043" height="1.963" transform="translate(0 27.388)" fill="#67a2c7"/>
                <rect id="Rectángulo_36949" data-name="Rectángulo 36949" width="4.043" height="1.963" transform="translate(4.808 27.388)" fill="#67a2c7"/>
              </g>
              <g id="Grupo_115144" data-name="Grupo 115144" transform="translate(12.545 3.861)">
                <rect id="Rectángulo_36950" data-name="Rectángulo 36950" width="4.043" height="1.963" fill="#67a2c7"/>
                <rect id="Rectángulo_36951" data-name="Rectángulo 36951" width="4.043" height="1.963" transform="translate(4.808)" fill="#67a2c7"/>
                <rect id="Rectángulo_36952" data-name="Rectángulo 36952" width="4.043" height="1.963" transform="translate(0 3.029)" fill="#67a2c7"/>
                <rect id="Rectángulo_36953" data-name="Rectángulo 36953" width="4.043" height="1.963" transform="translate(4.808 3.029)" fill="#67a2c7"/>
                <rect id="Rectángulo_36954" data-name="Rectángulo 36954" width="4.043" height="1.963" transform="translate(0 6.058)" fill="#67a2c7"/>
                <rect id="Rectángulo_36955" data-name="Rectángulo 36955" width="4.043" height="1.963" transform="translate(4.808 6.058)" fill="#67a2c7"/>
                <rect id="Rectángulo_36956" data-name="Rectángulo 36956" width="4.043" height="1.963" transform="translate(0 9.087)" fill="#67a2c7"/>
                <rect id="Rectángulo_36957" data-name="Rectángulo 36957" width="4.043" height="1.963" transform="translate(4.808 9.087)" fill="#67a2c7"/>
                <rect id="Rectángulo_36958" data-name="Rectángulo 36958" width="4.043" height="1.963" transform="translate(0 12.243)" fill="#67a2c7"/>
                <rect id="Rectángulo_36959" data-name="Rectángulo 36959" width="4.043" height="1.963" transform="translate(4.808 12.243)" fill="#67a2c7"/>
                <rect id="Rectángulo_36960" data-name="Rectángulo 36960" width="4.043" height="1.963" transform="translate(0 15.272)" fill="#67a2c7"/>
                <rect id="Rectángulo_36961" data-name="Rectángulo 36961" width="4.043" height="1.963" transform="translate(4.808 15.272)" fill="#67a2c7"/>
                <rect id="Rectángulo_36962" data-name="Rectángulo 36962" width="4.043" height="1.963" transform="translate(0 18.301)" fill="#67a2c7"/>
                <rect id="Rectángulo_36963" data-name="Rectángulo 36963" width="4.043" height="1.963" transform="translate(4.808 18.301)" fill="#67a2c7"/>
                <rect id="Rectángulo_36964" data-name="Rectángulo 36964" width="4.043" height="1.963" transform="translate(0 21.33)" fill="#67a2c7"/>
                <rect id="Rectángulo_36965" data-name="Rectángulo 36965" width="4.043" height="1.963" transform="translate(4.808 21.33)" fill="#67a2c7"/>
                <rect id="Rectángulo_36966" data-name="Rectángulo 36966" width="4.043" height="1.963" transform="translate(0 24.359)" fill="#67a2c7"/>
                <rect id="Rectángulo_36967" data-name="Rectángulo 36967" width="4.043" height="1.963" transform="translate(4.808 24.359)" fill="#67a2c7"/>
                <rect id="Rectángulo_36968" data-name="Rectángulo 36968" width="4.043" height="1.963" transform="translate(0 27.388)" fill="#67a2c7"/>
                <rect id="Rectángulo_36969" data-name="Rectángulo 36969" width="4.043" height="1.963" transform="translate(4.808 27.388)" fill="#67a2c7"/>
              </g>
            </g>
            <g id="Grupo_115148" data-name="Grupo 115148" transform="translate(122.905 8.799)">
              <rect id="Rectángulo_36970" data-name="Rectángulo 36970" width="31.789" height="49.545" rx="6.75" fill="#c7ebef"/>
              <g id="Grupo_115146" data-name="Grupo 115146" transform="translate(3.804 5.016)">
                <rect id="Rectángulo_36971" data-name="Rectángulo 36971" width="5.253" height="2.551" fill="#67a2c7"/>
                <rect id="Rectángulo_36972" data-name="Rectángulo 36972" width="5.253" height="2.551" transform="translate(6.247)" fill="#67a2c7"/>
                <rect id="Rectángulo_36973" data-name="Rectángulo 36973" width="5.253" height="2.551" transform="translate(0 3.936)" fill="#67a2c7"/>
                <rect id="Rectángulo_36974" data-name="Rectángulo 36974" width="5.253" height="2.551" transform="translate(6.247 3.936)" fill="#67a2c7"/>
                <rect id="Rectángulo_36975" data-name="Rectángulo 36975" width="5.253" height="2.551" transform="translate(0 7.871)" fill="#67a2c7"/>
                <rect id="Rectángulo_36976" data-name="Rectángulo 36976" width="5.253" height="2.551" transform="translate(6.247 7.871)" fill="#67a2c7"/>
                <rect id="Rectángulo_36977" data-name="Rectángulo 36977" width="5.253" height="2.551" transform="translate(0 11.807)" fill="#67a2c7"/>
                <rect id="Rectángulo_36978" data-name="Rectángulo 36978" width="5.253" height="2.551" transform="translate(6.247 11.807)" fill="#67a2c7"/>
                <rect id="Rectángulo_36979" data-name="Rectángulo 36979" width="5.253" height="2.551" transform="translate(0 15.908)" fill="#67a2c7"/>
                <rect id="Rectángulo_36980" data-name="Rectángulo 36980" width="5.253" height="2.551" transform="translate(6.247 15.908)" fill="#67a2c7"/>
                <rect id="Rectángulo_36981" data-name="Rectángulo 36981" width="5.253" height="2.551" transform="translate(0 19.843)" fill="#67a2c7"/>
                <rect id="Rectángulo_36982" data-name="Rectángulo 36982" width="5.253" height="2.551" transform="translate(6.247 19.843)" fill="#67a2c7"/>
                <rect id="Rectángulo_36983" data-name="Rectángulo 36983" width="5.253" height="2.551" transform="translate(0 23.779)" fill="#67a2c7"/>
                <rect id="Rectángulo_36984" data-name="Rectángulo 36984" width="5.253" height="2.551" transform="translate(6.247 23.779)" fill="#67a2c7"/>
                <rect id="Rectángulo_36985" data-name="Rectángulo 36985" width="5.253" height="2.551" transform="translate(0 27.714)" fill="#67a2c7"/>
                <rect id="Rectángulo_36986" data-name="Rectángulo 36986" width="5.253" height="2.551" transform="translate(6.247 27.714)" fill="#67a2c7"/>
                <rect id="Rectángulo_36987" data-name="Rectángulo 36987" width="5.253" height="2.551" transform="translate(0 31.65)" fill="#67a2c7"/>
                <rect id="Rectángulo_36988" data-name="Rectángulo 36988" width="5.253" height="2.551" transform="translate(6.247 31.65)" fill="#67a2c7"/>
                <rect id="Rectángulo_36989" data-name="Rectángulo 36989" width="5.253" height="2.551" transform="translate(0 35.586)" fill="#67a2c7"/>
                <rect id="Rectángulo_36990" data-name="Rectángulo 36990" width="5.253" height="2.551" transform="translate(6.247 35.586)" fill="#67a2c7"/>
              </g>
              <g id="Grupo_115147" data-name="Grupo 115147" transform="translate(16.3 5.016)">
                <rect id="Rectángulo_36991" data-name="Rectángulo 36991" width="5.253" height="2.551" fill="#67a2c7"/>
                <rect id="Rectángulo_36992" data-name="Rectángulo 36992" width="5.253" height="2.551" transform="translate(6.247)" fill="#67a2c7"/>
                <rect id="Rectángulo_36993" data-name="Rectángulo 36993" width="5.253" height="2.551" transform="translate(0 3.936)" fill="#67a2c7"/>
                <rect id="Rectángulo_36994" data-name="Rectángulo 36994" width="5.253" height="2.551" transform="translate(6.247 3.936)" fill="#67a2c7"/>
                <rect id="Rectángulo_36995" data-name="Rectángulo 36995" width="5.253" height="2.551" transform="translate(0 7.871)" fill="#67a2c7"/>
                <rect id="Rectángulo_36996" data-name="Rectángulo 36996" width="5.253" height="2.551" transform="translate(6.247 7.871)" fill="#67a2c7"/>
                <rect id="Rectángulo_36997" data-name="Rectángulo 36997" width="5.253" height="2.551" transform="translate(0 11.807)" fill="#67a2c7"/>
                <rect id="Rectángulo_36998" data-name="Rectángulo 36998" width="5.253" height="2.551" transform="translate(6.247 11.807)" fill="#67a2c7"/>
                <rect id="Rectángulo_36999" data-name="Rectángulo 36999" width="5.253" height="2.551" transform="translate(0 15.908)" fill="#67a2c7"/>
                <rect id="Rectángulo_37000" data-name="Rectángulo 37000" width="5.253" height="2.551" transform="translate(6.247 15.908)" fill="#67a2c7"/>
                <rect id="Rectángulo_37001" data-name="Rectángulo 37001" width="5.253" height="2.551" transform="translate(0 19.843)" fill="#67a2c7"/>
                <rect id="Rectángulo_37002" data-name="Rectángulo 37002" width="5.253" height="2.551" transform="translate(6.247 19.843)" fill="#67a2c7"/>
                <rect id="Rectángulo_37003" data-name="Rectángulo 37003" width="5.253" height="2.551" transform="translate(0 23.779)" fill="#67a2c7"/>
                <rect id="Rectángulo_37004" data-name="Rectángulo 37004" width="5.253" height="2.551" transform="translate(6.247 23.779)" fill="#67a2c7"/>
                <rect id="Rectángulo_37005" data-name="Rectángulo 37005" width="5.253" height="2.551" transform="translate(0 27.714)" fill="#67a2c7"/>
                <rect id="Rectángulo_37006" data-name="Rectángulo 37006" width="5.253" height="2.551" transform="translate(6.247 27.714)" fill="#67a2c7"/>
                <rect id="Rectángulo_37007" data-name="Rectángulo 37007" width="5.253" height="2.551" transform="translate(0 31.65)" fill="#67a2c7"/>
                <rect id="Rectángulo_37008" data-name="Rectángulo 37008" width="5.253" height="2.551" transform="translate(6.247 31.65)" fill="#67a2c7"/>
                <rect id="Rectángulo_37009" data-name="Rectángulo 37009" width="5.253" height="2.551" transform="translate(0 35.586)" fill="#67a2c7"/>
                <rect id="Rectángulo_37010" data-name="Rectángulo 37010" width="5.253" height="2.551" transform="translate(6.247 35.586)" fill="#67a2c7"/>
              </g>
            </g>
            <g id="Grupo_115151" data-name="Grupo 115151" transform="translate(175.571)">
              <g id="Grupo_115150" data-name="Grupo 115150">
                <rect id="Rectángulo_37011" data-name="Rectángulo 37011" width="24.466" height="58.53" rx="6.75" fill="#c7ebef"/>
                <g id="Grupo_115149" data-name="Grupo 115149" transform="translate(2.545 5.856)">
                  <rect id="Rectángulo_37012" data-name="Rectángulo 37012" width="8.851" height="2.844" fill="#67a2c7"/>
                  <rect id="Rectángulo_37013" data-name="Rectángulo 37013" width="8.851" height="2.844" transform="translate(10.526)" fill="#67a2c7"/>
                  <rect id="Rectángulo_37014" data-name="Rectángulo 37014" width="8.851" height="2.844" transform="translate(0 4.387)" fill="#67a2c7"/>
                  <rect id="Rectángulo_37015" data-name="Rectángulo 37015" width="8.851" height="2.844" transform="translate(10.526 4.387)" fill="#67a2c7"/>
                  <rect id="Rectángulo_37016" data-name="Rectángulo 37016" width="8.851" height="2.844" transform="translate(0 8.774)" fill="#67a2c7"/>
                  <rect id="Rectángulo_37017" data-name="Rectángulo 37017" width="8.851" height="2.844" transform="translate(10.526 8.774)" fill="#67a2c7"/>
                  <rect id="Rectángulo_37018" data-name="Rectángulo 37018" width="8.851" height="2.844" transform="translate(0 13.161)" fill="#67a2c7"/>
                  <rect id="Rectángulo_37019" data-name="Rectángulo 37019" width="8.851" height="2.844" transform="translate(10.526 13.161)" fill="#67a2c7"/>
                  <rect id="Rectángulo_37020" data-name="Rectángulo 37020" width="8.851" height="2.844" transform="translate(0 17.733)" fill="#67a2c7"/>
                  <rect id="Rectángulo_37021" data-name="Rectángulo 37021" width="8.851" height="2.844" transform="translate(10.526 17.733)" fill="#67a2c7"/>
                  <rect id="Rectángulo_37022" data-name="Rectángulo 37022" width="8.851" height="2.844" transform="translate(0 22.12)" fill="#67a2c7"/>
                  <rect id="Rectángulo_37023" data-name="Rectángulo 37023" width="8.851" height="2.844" transform="translate(10.526 22.12)" fill="#67a2c7"/>
                  <rect id="Rectángulo_37024" data-name="Rectángulo 37024" width="8.851" height="2.844" transform="translate(0 26.508)" fill="#67a2c7"/>
                  <rect id="Rectángulo_37025" data-name="Rectángulo 37025" width="8.851" height="2.844" transform="translate(10.526 26.508)" fill="#67a2c7"/>
                  <rect id="Rectángulo_37026" data-name="Rectángulo 37026" width="8.851" height="2.844" transform="translate(0 30.895)" fill="#67a2c7"/>
                  <rect id="Rectángulo_37027" data-name="Rectángulo 37027" width="8.851" height="2.844" transform="translate(10.526 30.895)" fill="#67a2c7"/>
                  <rect id="Rectángulo_37028" data-name="Rectángulo 37028" width="8.851" height="2.844" transform="translate(0 35.282)" fill="#67a2c7"/>
                  <rect id="Rectángulo_37029" data-name="Rectángulo 37029" width="8.851" height="2.844" transform="translate(10.526 35.282)" fill="#67a2c7"/>
                  <rect id="Rectángulo_37030" data-name="Rectángulo 37030" width="8.851" height="2.844" transform="translate(0 39.669)" fill="#67a2c7"/>
                  <rect id="Rectángulo_37031" data-name="Rectángulo 37031" width="8.851" height="2.844" transform="translate(10.526 39.669)" fill="#67a2c7"/>
                </g>
              </g>
            </g>
            <g id="Grupo_115154" data-name="Grupo 115154" transform="translate(59.709 17.608)">
              <g id="Grupo_115153" data-name="Grupo 115153">
                <rect id="Rectángulo_37032" data-name="Rectángulo 37032" width="50.217" height="41.056" rx="6.75" fill="#c7ebef"/>
                <g id="Grupo_115152" data-name="Grupo 115152" transform="translate(5.223 4.108)">
                  <rect id="Rectángulo_37033" data-name="Rectángulo 37033" width="18.167" height="1.995" fill="#67a2c7"/>
                  <rect id="Rectángulo_37034" data-name="Rectángulo 37034" width="18.167" height="1.995" transform="translate(21.605)" fill="#67a2c7"/>
                  <rect id="Rectángulo_37035" data-name="Rectángulo 37035" width="18.167" height="1.995" transform="translate(0 3.077)" fill="#67a2c7"/>
                  <rect id="Rectángulo_37036" data-name="Rectángulo 37036" width="18.167" height="1.995" transform="translate(21.605 3.077)" fill="#67a2c7"/>
                  <rect id="Rectángulo_37037" data-name="Rectángulo 37037" width="18.167" height="1.995" transform="translate(0 6.155)" fill="#67a2c7"/>
                  <rect id="Rectángulo_37038" data-name="Rectángulo 37038" width="18.167" height="1.995" transform="translate(21.605 6.155)" fill="#67a2c7"/>
                  <rect id="Rectángulo_37039" data-name="Rectángulo 37039" width="18.167" height="1.995" transform="translate(0 9.232)" fill="#67a2c7"/>
                  <rect id="Rectángulo_37040" data-name="Rectángulo 37040" width="18.167" height="1.995" transform="translate(21.605 9.232)" fill="#67a2c7"/>
                  <rect id="Rectángulo_37041" data-name="Rectángulo 37041" width="18.167" height="1.995" transform="translate(0 12.439)" fill="#67a2c7"/>
                  <rect id="Rectángulo_37042" data-name="Rectángulo 37042" width="18.167" height="1.995" transform="translate(21.605 12.439)" fill="#67a2c7"/>
                  <rect id="Rectángulo_37043" data-name="Rectángulo 37043" width="18.167" height="1.995" transform="translate(0 15.516)" fill="#67a2c7"/>
                  <rect id="Rectángulo_37044" data-name="Rectángulo 37044" width="18.167" height="1.995" transform="translate(21.605 15.516)" fill="#67a2c7"/>
                  <rect id="Rectángulo_37045" data-name="Rectángulo 37045" width="18.167" height="1.995" transform="translate(0 18.594)" fill="#67a2c7"/>
                  <rect id="Rectángulo_37046" data-name="Rectángulo 37046" width="18.167" height="1.995" transform="translate(21.605 18.594)" fill="#67a2c7"/>
                  <rect id="Rectángulo_37047" data-name="Rectángulo 37047" width="18.167" height="1.995" transform="translate(0 21.671)" fill="#67a2c7"/>
                  <rect id="Rectángulo_37048" data-name="Rectángulo 37048" width="18.167" height="1.995" transform="translate(21.605 21.671)" fill="#67a2c7"/>
                  <rect id="Rectángulo_37049" data-name="Rectángulo 37049" width="18.167" height="1.995" transform="translate(0 24.749)" fill="#67a2c7"/>
                  <rect id="Rectángulo_37050" data-name="Rectángulo 37050" width="18.167" height="1.995" transform="translate(21.605 24.749)" fill="#67a2c7"/>
                  <rect id="Rectángulo_37051" data-name="Rectángulo 37051" width="18.167" height="1.995" transform="translate(0 27.826)" fill="#67a2c7"/>
                  <rect id="Rectángulo_37052" data-name="Rectángulo 37052" width="18.167" height="1.995" transform="translate(21.605 27.826)" fill="#67a2c7"/>
                </g>
              </g>
            </g>
          </g>
          <g id="Grupo_115165" data-name="Grupo 115165">
            <g id="Grupo_115164" data-name="Grupo 115164" clip-path="url(#clip-path)">
              <g id="Grupo_115157" data-name="Grupo 115157" transform="translate(-7.933 249.74)">
                <rect id="Rectángulo_37053" data-name="Rectángulo 37053" width="411.021" height="133.151" fill="#c7ebef"/>
                <path id="Trazado_160710" data-name="Trazado 160710" d="M674.249,803.53H533.519L424.171,670.379H674.249Z" transform="translate(-281.413 -670.379)" fill="#65c8d0"/>
                <path id="Trazado_160711" data-name="Trazado 160711" d="M691.029,803.53H550.3L440.951,670.379H691.029Z" transform="translate(-290.82 -670.379)" fill="#a3dee3"/>
                <g id="Grupo_115156" data-name="Grupo 115156" transform="translate(198.675 28.408)">
                  <path id="Trazado_160712" data-name="Trazado 160712" d="M703.574,735.037H674.185a2.862,2.862,0,0,0-2.192,4.7l57.769,68.788a10.662,10.662,0,0,0,8.174,3.805l29.4-.025a2.9,2.9,0,0,0,2.216-4.76l-57.628-68.619A10.906,10.906,0,0,0,703.574,735.037Z" transform="translate(-618.648 -735.037)" fill="#fff"/>
                  <path id="Trazado_160713" data-name="Trazado 160713" d="M583.7,735.037H554.309a2.863,2.863,0,0,0-2.192,4.7l57.77,68.788a10.662,10.662,0,0,0,8.174,3.805l29.4-.025a2.9,2.9,0,0,0,2.216-4.76l-57.628-68.619A10.907,10.907,0,0,0,583.7,735.037Z" transform="translate(-551.441 -735.037)" fill="#fff"/>
                </g>
              </g>
              <g id="Grupo_115163" data-name="Grupo 115163" transform="translate(-5.792 201.197)">
                <g id="Grupo_115158" data-name="Grupo 115158" transform="translate(49.676 52.236)">
                  <path id="Trazado_160714" data-name="Trazado 160714" d="M250.89,678.879c-15.948,1.609-35.391,19.088-32.48,26.838,2.465,6.563,21.345,7.182,35.2,1.621,15.1-6.059,26.948-21,24.32-25.505-.571-.978-1.744-1.189-6.577-1.646C259.848,679.1,254.092,678.556,250.89,678.879Z" transform="translate(-217.709 -678.787)" fill="#67a2c7"/>
                  <path id="Trazado_160715" data-name="Trazado 160715" d="M217.626,715.7a.439.439,0,0,1-.327-.733,16.625,16.625,0,0,1,7.807-5.148,14.8,14.8,0,0,1,5.239-.428,11.221,11.221,0,0,0,5.517-.737,7.772,7.772,0,0,0,3-2.091,7.886,7.886,0,0,1,3.123-2.155c2.656-1.057,4.749-.719,6.967-.363a22.4,22.4,0,0,0,4.854.395,20.851,20.851,0,0,0,11.462-4.522.439.439,0,0,1,.525.7,21.707,21.707,0,0,1-11.947,4.7,23.55,23.55,0,0,1-5.034-.405c-2.185-.351-4.072-.655-6.5.311a7.049,7.049,0,0,0-2.816,1.95,8.618,8.618,0,0,1-3.293,2.29,12.1,12.1,0,0,1-5.9.8,14.077,14.077,0,0,0-4.956.4,15.767,15.767,0,0,0-7.391,4.889A.439.439,0,0,1,217.626,715.7Z" transform="translate(-217.186 -690.584)" fill="#8bd6dd"/>
                </g>
                <g id="Grupo_115159" data-name="Grupo 115159" transform="translate(40.693 85.656)">
                  <path id="Trazado_160716" data-name="Trazado 160716" d="M236.54,755.645c-15.59-3.724-39.7,6.389-39.5,14.666.169,7.009,17.8,13.8,32.714,13.107,16.252-.757,32.356-10.975,31.354-16.089-.218-1.111-1.256-1.7-5.67-3.717C244.927,758.8,239.67,756.393,236.54,755.645Z" transform="translate(-196.909 -754.85)" fill="#67a2c7"/>
                  <path id="Trazado_160717" data-name="Trazado 160717" d="M197.181,782.2a.439.439,0,0,1-.244-.8,16.617,16.617,0,0,1,8.84-3.051,14.784,14.784,0,0,1,5.181.885,11.236,11.236,0,0,0,5.528.653,7.774,7.774,0,0,0,3.425-1.282,7.886,7.886,0,0,1,3.559-1.313c2.837-.362,4.78.481,6.84,1.376a22.418,22.418,0,0,0,4.6,1.587,20.858,20.858,0,0,0,12.225-1.539.439.439,0,1,1,.333.812,21.7,21.7,0,0,1-12.738,1.587,23.439,23.439,0,0,1-4.776-1.641c-2.029-.882-3.782-1.644-6.377-1.31a7.054,7.054,0,0,0-3.211,1.191,8.6,8.6,0,0,1-3.758,1.4,12.1,12.1,0,0,1-5.916-.684,13.832,13.832,0,0,0-4.9-.845,15.75,15.75,0,0,0-8.372,2.9A.441.441,0,0,1,197.181,782.2Z" transform="translate(-196.741 -767.381)" fill="#8bd6dd"/>
                </g>
                <g id="Grupo_115160" data-name="Grupo 115160" transform="translate(28.628 13.771)">
                  <path id="Trazado_160718" data-name="Trazado 160718" d="M195.582,612.658c7.044,14.4,2.449,40.135-5.671,41.75-6.876,1.368-17.36-14.346-19.945-29.054-2.817-16.024,3.632-33.974,8.841-34.115,1.132-.031,1.93.854,4.867,4.72C190.67,605.164,194.167,609.767,195.582,612.658Z" transform="translate(-169.281 -591.238)" fill="#67a2c7"/>
                  <path id="Trazado_160719" data-name="Trazado 160719" d="M199.9,673.327a.449.449,0,0,1-.112-.015.439.439,0,0,1-.312-.537,15.764,15.764,0,0,0,.031-8.862,14.06,14.06,0,0,0-2.389-4.361,12.1,12.1,0,0,1-2.566-5.373,8.615,8.615,0,0,1,.107-4.01,7.056,7.056,0,0,0,.085-3.424c-.526-2.562-1.815-3.973-3.308-5.607a23.464,23.464,0,0,1-3.1-3.986,21.714,21.714,0,0,1-2.631-12.564.433.433,0,0,1,.464-.413.439.439,0,0,1,.413.464,20.858,20.858,0,0,0,2.51,12.064,22.49,22.49,0,0,0,2.994,3.842c1.515,1.657,2.945,3.223,3.52,6.022a7.884,7.884,0,0,1-.088,3.793,7.775,7.775,0,0,0-.1,3.656,11.225,11.225,0,0,0,2.411,5.017,14.786,14.786,0,0,1,2.518,4.614,16.619,16.619,0,0,1-.019,9.352A.439.439,0,0,1,199.9,673.327Z" transform="translate(-178.46 -609.704)" fill="#8bd6dd"/>
                </g>
                <g id="Grupo_115161" data-name="Grupo 115161" transform="translate(0 49.204)">
                  <path id="Trazado_160720" data-name="Trazado 160720" d="M130.919,684.133c12.579,9.934,19.569,35.127,12.947,40.095-5.608,4.208-21.858-5.425-30.551-17.568-9.471-13.229-11.421-32.2-6.785-34.582,1.007-.517,2.11-.065,6.43,2.15C123.249,679.5,128.394,682.138,130.919,684.133Z" transform="translate(-104.122 -671.884)" fill="#67a2c7"/>
                  <path id="Trazado_160721" data-name="Trazado 160721" d="M158.417,736.141a.439.439,0,0,1-.436-.393,15.762,15.762,0,0,0-3.133-8.289,14.054,14.054,0,0,0-3.787-3.221,12.1,12.1,0,0,1-4.315-4.1,8.617,8.617,0,0,1-1.33-3.785,7.05,7.05,0,0,0-1.143-3.229c-1.406-2.206-3.113-3.065-5.09-4.058a23.468,23.468,0,0,1-4.319-2.617,21.715,21.715,0,0,1-6.941-10.8.439.439,0,0,1,.838-.264,20.859,20.859,0,0,0,6.648,10.374,22.4,22.4,0,0,0,4.168,2.521c2.006,1.008,3.9,1.96,5.437,4.371a7.889,7.889,0,0,1,1.271,3.575,7.771,7.771,0,0,0,1.21,3.451,11.22,11.22,0,0,0,4.042,3.826,14.8,14.8,0,0,1,4,3.412,16.621,16.621,0,0,1,3.318,8.744.439.439,0,0,1-.39.483Z" transform="translate(-117.454 -684.885)" fill="#8bd6dd"/>
                </g>
                <g id="Grupo_115162" data-name="Grupo 115162" transform="translate(27.762)">
                  <path id="Trazado_160722" data-name="Trazado 160722" d="M253.236,573.655c-11.907,10.73-17.246,36.323-10.315,40.851,5.869,3.834,21.459-6.834,29.345-19.516,8.592-13.817,9.305-32.875,4.525-34.95-1.039-.451-2.11.073-6.277,2.563C260.589,568.535,255.627,571.5,253.236,573.655Z" transform="translate(-207.973 -559.895)" fill="#67a2c7"/>
                  <path id="Trazado_160723" data-name="Trazado 160723" d="M167.749,727.127a.492.492,0,0,1-.057,0,.439.439,0,0,1-.379-.492,250.562,250.562,0,0,1,7.03-34.772c4.785-17.224,13.151-40.137,21.056-52.5.319-.5.668-1.017,1.038-1.566a42.316,42.316,0,0,0,5.26-9.926,45.378,45.378,0,0,0,1.7-6.062c.6-2.7,1.038-4.647,3.085-6.78a12.965,12.965,0,0,1,3.829-2.692,8.308,8.308,0,0,0,3.8-3.176,7.3,7.3,0,0,0,1.22-3.78,6.634,6.634,0,0,1,1.215-3.662c1.521-2.168,3.531-2.826,5.474-3.462a10.5,10.5,0,0,0,5.165-2.956,11.644,11.644,0,0,0,2.52-7.569.451.451,0,0,1,.451-.428.439.439,0,0,1,.428.451,12.48,12.48,0,0,1-2.738,8.125,11.205,11.205,0,0,1-5.552,3.213c-1.89.618-3.675,1.2-5.028,3.132a5.749,5.749,0,0,0-1.06,3.238,8.147,8.147,0,0,1-1.355,4.174,9.143,9.143,0,0,1-4.136,3.483,12.045,12.045,0,0,0-3.6,2.518c-1.877,1.956-2.269,3.709-2.862,6.363a46.651,46.651,0,0,1-1.731,6.17,43.089,43.089,0,0,1-5.358,10.117c-.366.543-.711,1.055-1.027,1.549-7.855,12.284-16.182,35.1-20.949,52.26a249.768,249.768,0,0,0-7.005,34.65A.439.439,0,0,1,167.749,727.127Z" transform="translate(-167.309 -575.26)" fill="#8bd6dd"/>
                </g>
              </g>
            </g>
          </g>
        </g>
        <path id="Trazado_160725" data-name="Trazado 160725" d="M620.372,765.927a.439.439,0,0,1-.21-.826,279.562,279.562,0,0,0,85.543-71.544.439.439,0,1,1,.686.549,280.439,280.439,0,0,1-85.811,71.767A.44.44,0,0,1,620.372,765.927Z" transform="translate(-382.309 -416.915)" fill="#22367d"/>
        <g id="Grupo_115197" data-name="Grupo 115197" transform="translate(0)">
          <g id="Grupo_115168" data-name="Grupo 115168" transform="translate(16.788 16.627)">
            <g id="Grupo_115167" data-name="Grupo 115167" clip-path="url(#clip-path)">
              <path id="Trazado_160726" data-name="Trazado 160726" d="M274.02,575.363a1.758,1.758,0,0,1-1.757-1.758V322.944a1.757,1.757,0,0,1,3.515,0V573.605A1.758,1.758,0,0,1,274.02,575.363Z" transform="translate(-204.18 -224.869)" fill="#65c8d0"/>
            </g>
          </g>
          <g id="Grupo_115170" data-name="Grupo 115170" transform="translate(0 51.018)">
            <circle id="Elipse_5017" data-name="Elipse 5017" cx="20.825" cy="20.825" r="20.825" transform="matrix(0.923, -0.386, 0.386, 0.923, 0, 16.071)" fill="#c7ebef"/>
            <g id="Grupo_115169" data-name="Grupo 115169" transform="translate(23.664 18.462)">
              <path id="Trazado_160728" data-name="Trazado 160728" d="M132.955,222.259h6.731l-1.122,10.77h-4.487Zm1,16.828a2.808,2.808,0,0,1-.922-2.119,2.719,2.719,0,0,1,.922-2.107,3.775,3.775,0,0,1,4.737,0,2.72,2.72,0,0,1,.922,2.107,2.809,2.809,0,0,1-.922,2.119,3.652,3.652,0,0,1-4.737,0Z" transform="translate(-132.955 -222.259)" fill="#a3dee3"/>
            </g>
            <path id="Trazado_160729" data-name="Trazado 160729" d="M106.565,234.782a27.074,27.074,0,1,1,27.073-27.074A27.1,27.1,0,0,1,106.565,234.782Zm0-51.951a24.877,24.877,0,1,0,24.877,24.877A24.9,24.9,0,0,0,106.565,182.832Z" transform="translate(-79.318 -180.461)" fill="#a3dee3"/>
          </g>
          <g id="Grupo_115172" data-name="Grupo 115172" transform="translate(125.371)">
            <circle id="Elipse_5018" data-name="Elipse 5018" cx="16.096" cy="16.096" r="16.096" transform="translate(5.079 5.079)" fill="#c7ebef"/>
            <g id="Grupo_115171" data-name="Grupo 115171" transform="translate(18.405 14.385)">
              <path id="Trazado_160730" data-name="Trazado 160730" d="M406.333,96.861h5.2l-.867,8.324H407.2Zm.771,13.006a2.17,2.17,0,0,1-.713-1.638,2.1,2.1,0,0,1,.713-1.628,2.919,2.919,0,0,1,3.661,0,2.1,2.1,0,0,1,.713,1.628,2.171,2.171,0,0,1-.713,1.638,2.822,2.822,0,0,1-3.661,0Z" transform="translate(-406.333 -96.861)" fill="#a3dee3"/>
            </g>
            <path id="Trazado_160731" data-name="Trazado 160731" d="M385.618,106.471A21.175,21.175,0,1,1,406.793,85.3,21.2,21.2,0,0,1,385.618,106.471Zm0-40.153A18.978,18.978,0,1,0,404.6,85.3,19,19,0,0,0,385.618,66.318Z" transform="translate(-364.443 -64.121)" fill="#a3dee3"/>
          </g>
          <g id="Grupo_115173" data-name="Grupo 115173" transform="translate(62.867 31.379)">
            <path id="Trazado_160732" data-name="Trazado 160732" d="M493.4,165.443a13.248,13.248,0,0,0-3.914-3.932,12.911,12.911,0,0,0-2.637-1.277,6.931,6.931,0,0,1-1.825-.907,7.8,7.8,0,0,1-2.689-4.606,1.229,1.229,0,0,0-2.422.293v22.218a9.146,9.146,0,0,0-4.763-1.262c-4,0-7.239,2.277-7.239,5.086s3.241,5.087,7.239,5.087c3.721,0,6.782-1.973,7.189-4.511,0-.011.005-.022.007-.033.006-.038.007-.076.011-.114a1.183,1.183,0,0,0,.012-.119v-.048c.006-.087.019-.174.019-.262s-.013-.174-.019-.261V160.218a7.933,7.933,0,0,0,1.2,1.089,9.246,9.246,0,0,0,2.409,1.224,10.522,10.522,0,0,1,2.181,1.047,10.815,10.815,0,0,1,3.187,3.211,1.229,1.229,0,1,0,2.055-1.347Z" transform="translate(-359.946 -145.769)" fill="#67a2c7"/>
            <path id="Trazado_160733" data-name="Trazado 160733" d="M610.866,141.213a6.447,6.447,0,0,0-1.9-1.913,6.272,6.272,0,0,0-1.283-.621,3.379,3.379,0,0,1-.888-.441A3.8,3.8,0,0,1,605.483,136a.6.6,0,0,0-1.178.143v10.808a4.455,4.455,0,0,0-2.317-.614c-1.945,0-3.521,1.108-3.521,2.474s1.577,2.474,3.521,2.474c1.81,0,3.3-.96,3.5-2.195l0-.016c0-.018,0-.037.005-.055a.5.5,0,0,0,.006-.058v-.023c0-.043.009-.084.009-.127s-.006-.085-.009-.127v-10.01a3.831,3.831,0,0,0,.583.529,4.5,4.5,0,0,0,1.172.6,5.12,5.12,0,0,1,1.061.51,5.251,5.251,0,0,1,1.551,1.562.6.6,0,0,0,1-.655Z" transform="translate(-433.142 -135.542)" fill="#67a2c7"/>
            <path id="Trazado_160734" data-name="Trazado 160734" d="M896.515,382.938a8.5,8.5,0,0,0-2.509-2.521,8.262,8.262,0,0,0-1.69-.819,4.454,4.454,0,0,1-1.17-.582,5,5,0,0,1-1.724-2.953.788.788,0,0,0-1.553.188v14.243a5.861,5.861,0,0,0-3.053-.809c-2.563,0-4.64,1.46-4.64,3.261s2.078,3.261,4.64,3.261c2.385,0,4.348-1.265,4.609-2.891l0-.022c0-.024,0-.048.008-.072s.007-.051.007-.076v-.031c0-.056.012-.111.012-.167s-.008-.112-.012-.168v-13.19a5.093,5.093,0,0,0,.768.7,5.936,5.936,0,0,0,1.544.785,6.736,6.736,0,0,1,1.4.671A6.926,6.926,0,0,1,895.2,383.8a.788.788,0,1,0,1.318-.863Z" transform="translate(-591.079 -270.051)" fill="#67a2c7"/>
            <path id="Trazado_160735" data-name="Trazado 160735" d="M230.078,378.1a4.1,4.1,0,0,0-1.213-1.218,3.982,3.982,0,0,0-.816-.4,2.16,2.16,0,0,1-.565-.281,2.415,2.415,0,0,1-.833-1.427.38.38,0,0,0-.75.091v6.882a2.832,2.832,0,0,0-1.475-.391c-1.239,0-2.243.705-2.243,1.576s1,1.576,2.243,1.576a2.1,2.1,0,0,0,2.227-1.4l0-.01c0-.012,0-.024,0-.035s0-.025,0-.037v-.014c0-.027.006-.054.006-.081s0-.054-.006-.081v-6.373a2.438,2.438,0,0,0,.371.337,2.861,2.861,0,0,0,.746.379,3.285,3.285,0,0,1,.675.325,3.347,3.347,0,0,1,.987.995.381.381,0,0,0,.637-.417Z" transform="translate(-222.183 -269.503)" fill="#67a2c7"/>
          </g>
          <g id="Grupo_115177" data-name="Grupo 115177" transform="translate(319.718 107.48)">
            <g id="Grupo_115174" data-name="Grupo 115174" transform="translate(0 62.125)">
              <path id="Trazado_160736" data-name="Trazado 160736" d="M809.511,459.179h-2.288a.439.439,0,0,1,0-.879h2.288a.439.439,0,1,1,0,.879Z" transform="translate(-806.783 -454.718)" fill="#65c8d0"/>
              <path id="Trazado_160737" data-name="Trazado 160737" d="M820.609,459.179H818.32a.439.439,0,1,1,0-.879h2.289a.439.439,0,1,1,0,.879Z" transform="translate(-813.005 -454.718)" fill="#65c8d0"/>
              <path id="Trazado_160738" data-name="Trazado 160738" d="M815.376,453.314a.439.439,0,0,1-.439-.439v-2.288a.439.439,0,0,1,.879,0v2.288A.44.44,0,0,1,815.376,453.314Z" transform="translate(-811.354 -450.147)" fill="#65c8d0"/>
              <path id="Trazado_160739" data-name="Trazado 160739" d="M815.376,464.412a.439.439,0,0,1-.439-.439v-2.288a.439.439,0,0,1,.879,0v2.288A.439.439,0,0,1,815.376,464.412Z" transform="translate(-811.354 -456.369)" fill="#65c8d0"/>
            </g>
            <g id="Grupo_115175" data-name="Grupo 115175" transform="translate(24.642 77.364)">
              <path id="Trazado_160740" data-name="Trazado 160740" d="M866.8,498.156h-3.493a.439.439,0,0,1,0-.879H866.8a.439.439,0,1,1,0,.879Z" transform="translate(-862.87 -491.809)" fill="#65c8d0"/>
              <path id="Trazado_160741" data-name="Trazado 160741" d="M883.744,498.156h-3.493a.439.439,0,0,1,0-.879h3.493a.439.439,0,1,1,0,.879Z" transform="translate(-872.368 -491.809)" fill="#65c8d0"/>
              <path id="Trazado_160742" data-name="Trazado 160742" d="M875.755,489.2a.439.439,0,0,1-.439-.439V485.27a.439.439,0,1,1,.879,0v3.493A.439.439,0,0,1,875.755,489.2Z" transform="translate(-869.848 -484.831)" fill="#65c8d0"/>
              <path id="Trazado_160743" data-name="Trazado 160743" d="M875.755,506.145a.44.44,0,0,1-.439-.439v-3.493a.439.439,0,1,1,.879,0v3.493A.44.44,0,0,1,875.755,506.145Z" transform="translate(-869.848 -494.329)" fill="#65c8d0"/>
            </g>
            <g id="Grupo_115176" data-name="Grupo 115176" transform="translate(72.399)">
              <path id="Trazado_160744" data-name="Trazado 160744" d="M974.242,317.6H972a.439.439,0,0,1,0-.879h2.237a.439.439,0,1,1,0,.879Z" transform="translate(-971.565 -313.218)" fill="#65c8d0"/>
              <path id="Trazado_160745" data-name="Trazado 160745" d="M985.093,317.6h-2.237a.439.439,0,0,1,0-.879h2.237a.439.439,0,0,1,0,.879Z" transform="translate(-977.649 -313.218)" fill="#65c8d0"/>
              <path id="Trazado_160746" data-name="Trazado 160746" d="M979.976,311.865a.439.439,0,0,1-.439-.439v-2.238a.439.439,0,0,1,.879,0v2.238A.439.439,0,0,1,979.976,311.865Z" transform="translate(-976.034 -308.749)" fill="#65c8d0"/>
              <path id="Trazado_160747" data-name="Trazado 160747" d="M979.976,322.717a.439.439,0,0,1-.439-.439V320.04a.439.439,0,0,1,.879,0v2.237A.439.439,0,0,1,979.976,322.717Z" transform="translate(-976.034 -314.833)" fill="#65c8d0"/>
            </g>
          </g>
          <g id="Grupo_115190" data-name="Grupo 115190" transform="translate(23.809 38.908)">
            <g id="Grupo_115179" data-name="Grupo 115179" transform="translate(0 53.575)">
              <path id="Trazado_160748" data-name="Trazado 160748" d="M248.849,422.526q-1.177,0-2.357-.019a.439.439,0,0,1-.432-.447.446.446,0,0,1,.446-.432q1.173.019,2.343.019l.725,0h0a.439.439,0,0,1,0,.879Zm5.121-.094a.439.439,0,0,1-.016-.878c1.013-.037,2.043-.087,3.062-.147a.439.439,0,1,1,.052.877c-1.025.061-2.062.111-3.082.148Zm-11.868-.064h-.021c-1.032-.048-2.071-.108-3.09-.176a.439.439,0,0,1,.059-.877c1.013.068,2.047.127,3.072.175a.439.439,0,0,1-.02.878Zm19.324-.419a.439.439,0,0,1-.041-.877c1.017-.095,2.043-.2,3.048-.322a.439.439,0,1,1,.1.873c-1.013.119-2.046.229-3.069.324Zm-26.795-.115-.043,0c-1.027-.1-2.062-.209-3.075-.327a.439.439,0,0,1,.1-.873c1.007.117,2.036.227,3.058.325a.44.44,0,0,1-.042.877Zm34.209-.8a.439.439,0,0,1-.067-.873c1.008-.156,2.025-.327,3.021-.509a.439.439,0,1,1,.157.864c-1,.183-2.029.355-3.044.513A.5.5,0,0,1,268.84,421.033Zm-41.638-.095a.389.389,0,0,1-.064,0c-1.008-.146-2.035-.305-3.052-.473a.439.439,0,1,1,.143-.867c1.011.167,2.033.325,3.035.471a.439.439,0,0,1-.062.874Zm-7.371-1.248a.429.429,0,0,1-.084-.008q-1.514-.293-3.023-.616a.439.439,0,1,1,.184-.859q1.5.32,3.007.612a.439.439,0,0,1-.083.871Zm56.351-.041a.439.439,0,0,1-.1-.868c1-.222,2-.461,2.98-.71a.44.44,0,0,1,.216.852c-.989.25-2,.491-3,.716A.457.457,0,0,1,276.182,419.649Zm-63.649-1.55a.429.429,0,0,1-.1-.013c-1-.242-2-.5-2.987-.756a.439.439,0,0,1,.224-.85c.981.258,1.98.511,2.971.752a.439.439,0,0,1-.1.866Zm70.877-.336a.439.439,0,0,1-.126-.86c.982-.3,1.964-.607,2.918-.927a.439.439,0,1,1,.279.833c-.962.322-1.953.638-2.944.935A.453.453,0,0,1,283.41,417.763Zm-78.084-1.6a.451.451,0,0,1-.124-.018c-.977-.287-1.967-.589-2.945-.9a.439.439,0,1,1,.264-.838c.972.306,1.957.607,2.928.892a.439.439,0,0,1-.124.861Zm85.149-.83a.439.439,0,0,1-.159-.848c.949-.369,1.9-.76,2.832-1.16a.44.44,0,0,1,.348.808c-.94.4-1.9.8-2.861,1.171A.432.432,0,0,1,290.475,415.336Zm-92.248-1.442a.433.433,0,0,1-.144-.024c-.971-.337-1.948-.688-2.9-1.042a.439.439,0,1,1,.305-.824c.95.352,1.922.7,2.887,1.036a.439.439,0,0,1-.144.854Zm99.083-1.566a.439.439,0,0,1-.2-.833l.064-.032c.628-.312,1.55-.768,2.68-1.361a.439.439,0,1,1,.408.779c-1.138.6-2.065,1.057-2.679,1.361l-.08.039A.435.435,0,0,1,297.31,412.329Zm-106.077-1.06a.437.437,0,0,1-.165-.032c-.954-.386-1.912-.786-2.848-1.188a.439.439,0,0,1,.347-.808c.93.4,1.883.8,2.83,1.181a.439.439,0,0,1-.165.847Zm112.684-2.463a.439.439,0,0,1-.221-.819c.879-.509,1.764-1.039,2.63-1.577a.439.439,0,1,1,.463.746c-.874.542-1.767,1.077-2.653,1.59A.435.435,0,0,1,303.917,408.806Zm-119.532-.52a.444.444,0,0,1-.186-.041c-.932-.436-1.867-.887-2.781-1.339a.44.44,0,1,1,.391-.788c.907.45,1.837.9,2.763,1.33a.44.44,0,0,1-.187.838Zm-6.676-3.352a.438.438,0,0,1-.208-.052c-.9-.487-1.811-.99-2.7-1.5a.439.439,0,1,1,.435-.763c.882.5,1.784,1,2.681,1.486a.44.44,0,0,1-.209.826Zm132.536-.112a.44.44,0,0,1-.249-.8c.848-.581,1.689-1.177,2.5-1.773a.439.439,0,1,1,.521.708c-.818.6-1.667,1.2-2.524,1.79A.439.439,0,0,1,310.244,404.822Zm-139-3.626a.441.441,0,0,1-.231-.066c-.876-.543-1.751-1.1-2.6-1.662a.439.439,0,0,1,.482-.735c.845.555,1.714,1.111,2.583,1.649a.439.439,0,0,1-.232.813Zm144.99-.849a.44.44,0,0,1-.279-.779c.794-.649,1.578-1.316,2.332-1.984a.439.439,0,0,1,.583.658c-.762.674-1.555,1.35-2.358,2.006A.44.44,0,0,1,316.231,400.347Zm-151.206-3.292a.436.436,0,0,1-.256-.082c-.842-.6-1.677-1.221-2.484-1.835a.44.44,0,0,1,.533-.7c.8.61,1.629,1.222,2.464,1.821a.439.439,0,0,1-.256.8Zm156.75-1.717a.439.439,0,0,1-.311-.75c.725-.727,1.434-1.472,2.106-2.215a.439.439,0,1,1,.651.59c-.681.753-1.4,1.508-2.135,2.246A.437.437,0,0,1,321.776,395.338Zm-162.66-2.849a.438.438,0,0,1-.281-.1c-.794-.663-1.582-1.342-2.34-2.019a.439.439,0,1,1,.585-.655c.751.67,1.53,1.343,2.317,2a.44.44,0,0,1-.282.777Zm167.606-2.745a.439.439,0,0,1-.347-.709c.628-.809,1.232-1.636,1.8-2.459a.439.439,0,1,1,.724.5c-.574.837-1.188,1.678-1.827,2.5A.438.438,0,0,1,326.722,389.743Zm-173.14-2.268a.436.436,0,0,1-.308-.127c-.738-.728-1.465-1.471-2.162-2.21a.439.439,0,0,1,.64-.6c.689.731,1.408,1.467,2.139,2.187a.439.439,0,0,1-.308.752Zm177.267-3.942a.439.439,0,0,1-.383-.653c.5-.893.964-1.8,1.386-2.708a.439.439,0,1,1,.8.372c-.431.923-.907,1.853-1.414,2.764A.439.439,0,0,1,330.85,383.532ZM148.511,382a.438.438,0,0,1-.336-.157c-.667-.793-1.321-1.6-1.942-2.407a.439.439,0,0,1,.7-.537c.614.795,1.26,1.6,1.919,2.379a.439.439,0,0,1-.336.722Zm185.379-5.273a.439.439,0,0,1-.416-.581c.326-.96.615-1.94.859-2.912a.439.439,0,0,1,.852.214c-.25.995-.545,2-.879,2.981A.439.439,0,0,1,333.89,376.724Zm-189.883-.677a.439.439,0,0,1-.364-.194c-.58-.857-1.142-1.733-1.673-2.6a.439.439,0,0,1,.75-.457c.523.858,1.079,1.723,1.651,2.569a.439.439,0,0,1-.364.685ZM320.3,372.3h-.014a27.34,27.34,0,0,1-3.114-.264.439.439,0,1,1,.127-.87,26.3,26.3,0,0,0,3.014.254.439.439,0,0,1-.013.879Zm4.389-.13a.439.439,0,0,1-.033-.877l.86-.068c.721-.059,1.448-.145,2.16-.257a.44.44,0,0,1,.136.869c-.733.114-1.482.2-2.225.264l-.865.068Zm-11.7-1.225a.438.438,0,0,1-.16-.03,14.96,14.96,0,0,1-2.809-1.453.439.439,0,1,1,.486-.732,14.067,14.067,0,0,0,2.644,1.368.439.439,0,0,1-.161.848Zm19.03-.091a.439.439,0,0,1-.129-.859c.955-.293,1.914-.639,2.852-1.029a.441.441,0,0,1,.4.03.251.251,0,0,1,0-.031c.131-.987.234-2.007.305-3.033a.439.439,0,1,1,.877.061c-.073,1.044-.178,2.083-.311,3.088a.438.438,0,0,1-.493.377.433.433,0,0,1-.17-.059.439.439,0,0,1-.27.379c-.964.4-1.949.756-2.931,1.057A.442.442,0,0,1,332.015,370.856Zm-191.823-1.221a.44.44,0,0,1-.391-.238c-.474-.919-.928-1.856-1.349-2.786a.439.439,0,0,1,.8-.362c.414.917.862,1.84,1.329,2.745a.439.439,0,0,1-.39.641Zm198.656-1.757a.439.439,0,0,1-.218-.821c.864-.492,1.732-1.033,2.579-1.609a.439.439,0,0,1,.494.727c-.867.589-1.754,1.142-2.639,1.646A.435.435,0,0,1,338.849,367.878Zm-31.77-1.337a.439.439,0,0,1-.352-.175,14.578,14.578,0,0,1-1.612-2.724.439.439,0,1,1,.8-.364,13.65,13.65,0,0,0,1.514,2.559.44.44,0,0,1-.351.7Zm37.881-2.944a.439.439,0,0,1-.283-.776c.766-.642,1.529-1.326,2.271-2.034a.44.44,0,0,1,.607.636c-.754.72-1.532,1.417-2.312,2.071A.435.435,0,0,1,344.959,363.6ZM137.2,362.813a.44.44,0,0,1-.413-.29c-.351-.971-.678-1.96-.971-2.936a.439.439,0,0,1,.842-.252c.288.961.61,1.933.956,2.89a.44.44,0,0,1-.413.589Zm198.785-.8a.439.439,0,0,1-.439-.429c-.025-1.042-.087-2.063-.186-3.036a.44.44,0,0,1,.392-.482.444.444,0,0,1,.482.392c.1,1,.165,2.041.19,3.105a.439.439,0,0,1-.429.449Zm-31.7-2.316a.44.44,0,0,1-.434-.375,16.729,16.729,0,0,1-.179-2.44q0-.355.015-.71a.427.427,0,0,1,.457-.42.44.44,0,0,1,.42.458c-.01.224-.014.449-.014.672a15.826,15.826,0,0,0,.17,2.311.44.44,0,0,1-.371.5A.459.459,0,0,1,304.285,359.7Zm46.014-1.318a.439.439,0,0,1-.328-.731c.67-.755,1.331-1.543,1.963-2.339a.44.44,0,0,1,.688.547c-.643.809-1.314,1.608-1.994,2.376A.438.438,0,0,1,350.3,358.377Zm-215.151-2.731a.439.439,0,0,1-.429-.347c-.213-.992-.4-2.016-.57-3.045a.439.439,0,0,1,.868-.14c.163,1.014.352,2.023.561,3a.439.439,0,0,1-.337.522A.444.444,0,0,1,135.149,355.646Zm199.91-1.034a.439.439,0,0,1-.426-.333,22.124,22.124,0,0,0-.923-2.87.439.439,0,0,1,.815-.328,23.07,23.07,0,0,1,.96,2.984.439.439,0,0,1-.319.533A.434.434,0,0,1,335.059,354.612Zm19.82-2.141a.44.44,0,0,1-.364-.685q.237-.35.433-.652a.439.439,0,0,1,.736.481q-.2.306-.44.663A.439.439,0,0,1,354.879,352.472Zm-49.959-.149a.44.44,0,0,1-.416-.58,14.732,14.732,0,0,1,1.326-2.873.439.439,0,0,1,.753.453,13.869,13.869,0,0,0-1.247,2.7A.439.439,0,0,1,304.92,352.323Zm-170.89-4.058a.439.439,0,0,1-.437-.4c-.095-1.012-.169-2.051-.221-3.087a.439.439,0,1,1,.877-.044c.051,1.024.124,2.05.218,3.049a.439.439,0,0,1-.4.479Zm197.955-.4a.437.437,0,0,1-.35-.173,12.618,12.618,0,0,0-2.053-2.138.439.439,0,1,1,.556-.681,13.53,13.53,0,0,1,2.2,2.286.439.439,0,0,1-.35.705ZM309.033,346.2a.439.439,0,0,1-.286-.773,14.972,14.972,0,0,1,2.609-1.785.439.439,0,0,1,.418.773,14.143,14.143,0,0,0-2.456,1.68A.437.437,0,0,1,309.033,346.2Zm17.019-2.693a.438.438,0,0,1-.152-.027,16.413,16.413,0,0,0-2.891-.769.439.439,0,0,1,.149-.866,17.318,17.318,0,0,1,3.045.81.439.439,0,0,1-.152.852Zm-10.386-.579a.439.439,0,0,1-.1-.867,18.988,18.988,0,0,1,3.112-.455.439.439,0,0,1,.055.877,18.1,18.1,0,0,0-2.968.434A.461.461,0,0,1,315.666,342.925ZM133.724,340.8h0a.44.44,0,0,1-.435-.444c.011-1.028.042-2.068.093-3.092a.439.439,0,1,1,.877.044c-.051,1.012-.081,2.04-.092,3.057A.439.439,0,0,1,133.724,340.8Zm.437-7.455-.047,0a.439.439,0,0,1-.39-.483c.11-1.025.241-2.057.391-3.068a.439.439,0,1,1,.869.128c-.147,1-.277,2.022-.386,3.034A.439.439,0,0,1,134.161,333.349Zm1.152-7.378a.472.472,0,0,1-.089-.009.44.44,0,0,1-.342-.519c.208-1.009.438-2.025.685-3.018a.44.44,0,1,1,.853.212c-.244.982-.472,1.986-.678,2.984A.44.44,0,0,1,135.313,325.971Zm1.866-7.234a.439.439,0,0,1-.42-.57c.307-.984.638-1.971.985-2.935a.439.439,0,1,1,.826.3c-.342.952-.669,1.928-.972,2.9A.439.439,0,0,1,137.179,318.736Zm2.592-7a.447.447,0,0,1-.174-.036.44.44,0,0,1-.229-.578c.409-.948.844-1.895,1.291-2.815a.439.439,0,1,1,.79.384c-.442.908-.871,1.843-1.275,2.779A.439.439,0,0,1,139.771,311.731Zm3.336-6.681a.439.439,0,0,1-.381-.658c.514-.9,1.054-1.79,1.6-2.651a.439.439,0,1,1,.74.473c-.543.849-1.075,1.729-1.582,2.614A.44.44,0,0,1,143.107,305.05Zm4.09-6.248a.439.439,0,0,1-.352-.7c.616-.827,1.261-1.648,1.916-2.437a.439.439,0,1,1,.676.561c-.645.778-1.281,1.585-1.888,2.4A.439.439,0,0,1,147.2,298.8Zm4.833-5.692a.439.439,0,0,1-.316-.745c.716-.74,1.46-1.47,2.213-2.169a.439.439,0,1,1,.6.644c-.741.688-1.474,1.407-2.179,2.136A.436.436,0,0,1,152.03,293.11Zm5.529-5.014a.439.439,0,0,1-.273-.783c.807-.64,1.641-1.265,2.48-1.859a.439.439,0,0,1,.507.717c-.825.584-1.647,1.2-2.442,1.829A.432.432,0,0,1,157.558,288.1Zm6.14-4.242a.439.439,0,0,1-.226-.816c.877-.525,1.785-1.038,2.7-1.523a.44.44,0,0,1,.412.777c-.9.477-1.795.982-2.659,1.5A.435.435,0,0,1,163.7,283.855Zm6.631-3.427a.439.439,0,0,1-.178-.841c.939-.414,1.9-.811,2.864-1.179a.439.439,0,1,1,.315.82c-.948.364-1.9.755-2.825,1.163A.443.443,0,0,1,170.33,280.428Zm7-2.6a.439.439,0,0,1-.129-.859c.979-.3,1.981-.586,2.978-.844a.439.439,0,1,1,.221.851c-.985.256-1.974.536-2.94.834A.441.441,0,0,1,177.326,277.823Zm7.245-1.808a.439.439,0,0,1-.083-.871c1-.194,2.029-.37,3.051-.524a.44.44,0,0,1,.13.87c-1.009.151-2.023.326-3.014.517A.422.422,0,0,1,184.571,276.015Z" transform="translate(-133.285 -274.616)" fill="#65c8d0"/>
              <g id="Grupo_115178" data-name="Grupo 115178" transform="translate(219.815 75.915)">
                <path id="Trazado_160749" data-name="Trazado 160749" d="M636.081,450.52l-.428-2.063-2.063.429.694-1.058,2.063-.429.429,2.063Z" transform="translate(-633.59 -447.4)" fill="#65c8d0"/>
              </g>
            </g>
            <g id="Grupo_115189" data-name="Grupo 115189" transform="translate(168.78)">
              <g id="Grupo_115186" data-name="Grupo 115186" transform="translate(5.427)">
                <g id="Grupo_115180" data-name="Grupo 115180">
                  <circle id="Elipse_5019" data-name="Elipse 5019" cx="50.682" cy="50.682" r="50.682" transform="translate(0 71.675) rotate(-45)" fill="#a3dee3"/>
                  <path id="Trazado_160750" data-name="Trazado 160750" d="M620.848,299.506a58.742,58.742,0,0,1-41.36-16.895,1.1,1.1,0,0,1,1.538-1.569,56.875,56.875,0,1,0,5.775-86.179,57.358,57.358,0,0,0-20.287,28.692,1.1,1.1,0,1,1-2.1-.651,59.575,59.575,0,0,1,21.069-29.8,59.076,59.076,0,1,1,35.362,106.4Z" transform="translate(-549.173 -168.755)" fill="#a3dee3"/>
                </g>
                <g id="Grupo_115185" data-name="Grupo 115185" transform="translate(44.58 44.436)">
                  <g id="Grupo_115181" data-name="Grupo 115181">
                    <rect id="Rectángulo_37054" data-name="Rectángulo 37054" width="54.19" height="54.19" rx="6" fill="#67a2c7"/>
                    <rect id="Rectángulo_37055" data-name="Rectángulo 37055" width="50.495" height="50.495" rx="7" transform="translate(1.848 1.848)" fill="#e0f4f6"/>
                    <rect id="Rectángulo_37056" data-name="Rectángulo 37056" width="47.047" height="47.047" rx="5" transform="translate(3.571 3.571)" fill="#22367d"/>
                  </g>
                  <g id="Grupo_115184" data-name="Grupo 115184" transform="translate(7.807 10.395)">
                    <g id="Grupo_115182" data-name="Grupo 115182" transform="translate(10.83)">
                      <path id="Trazado_160751" data-name="Trazado 160751" d="M691.791,311.553a.659.659,0,0,1-.616-.424l-2.988-7.8-4.876-4.466a.659.659,0,0,1-.214-.486v-7.742l-4.435,2.825v5.227a.659.659,0,0,1-1.318,0V293.1a.658.658,0,0,1,.3-.556l5.753-3.664a.659.659,0,0,1,1.013.556v8.653l4.777,4.374a.665.665,0,0,1,.171.25l3.043,7.947a.659.659,0,0,1-.616.895Z" transform="translate(-675.73 -283.81)" fill="#fff"/>
                      <path id="Trazado_160752" data-name="Trazado 160752" d="M674.328,325.106a.652.652,0,0,1-.34-.095.66.66,0,0,1-.224-.905l6.4-10.591a.659.659,0,1,1,1.129.681l-6.4,10.591A.658.658,0,0,1,674.328,325.106Z" transform="translate(-673.67 -297.501)" fill="#fff"/>
                      <path id="Trazado_160753" data-name="Trazado 160753" d="M700.908,305.907a.655.655,0,0,1-.417-.148l-3.54-2.893a.659.659,0,0,1,.834-1.021l3.54,2.893a.659.659,0,0,1-.417,1.169Z" transform="translate(-686.587 -291.053)" fill="#fff"/>
                      <circle id="Elipse_5020" data-name="Elipse 5020" cx="2.092" cy="2.092" r="2.092" transform="translate(7.056)" fill="#fff"/>
                    </g>
                    <g id="Grupo_115183" data-name="Grupo 115183" transform="translate(0 30.301)">
                      <path id="Trazado_160754" data-name="Trazado 160754" d="M656.172,351.334l4.111-4.9H656.26l-7.24,4.9Z" transform="translate(-649.02 -346.439)" fill="#fff"/>
                      <path id="Trazado_160755" data-name="Trazado 160755" d="M721.462,351.334l-7.24-4.9H710.2l4.111,4.9Z" transform="translate(-683.319 -346.439)" fill="#fff"/>
                      <path id="Trazado_160756" data-name="Trazado 160756" d="M691.287,351.334l-1.848-4.9h-4.023l-1.863,4.9Z" transform="translate(-668.381 -346.439)" fill="#fff"/>
                    </g>
                  </g>
                </g>
              </g>
              <g id="Grupo_115188" data-name="Grupo 115188" transform="translate(0 61.277)">
                <circle id="Elipse_5021" data-name="Elipse 5021" cx="16.946" cy="16.946" r="16.946" transform="translate(3.459 35.804) rotate(-74.927)" fill="#c7ebef"/>
                <g id="Grupo_115187" data-name="Grupo 115187" transform="translate(21.038 16.024)">
                  <path id="Trazado_160757" data-name="Trazado 160757" d="M565.317,328.616h5.994l-1,9.59h-4ZM566.2,343.6a2.5,2.5,0,0,1-.821-1.887,2.421,2.421,0,0,1,.821-1.876,3.362,3.362,0,0,1,4.218,0,2.424,2.424,0,0,1,.821,1.876,2.5,2.5,0,0,1-.821,1.887,3.252,3.252,0,0,1-4.218,0Z" transform="translate(-565.317 -328.616)" fill="#a3dee3"/>
                </g>
                <path id="Trazado_160758" data-name="Trazado 160758" d="M541.664,340.222a24.232,24.232,0,0,1-4.41-48.058,1.1,1.1,0,1,1,.4,2.161,22.036,22.036,0,1,0,10.831,42.626,1.1,1.1,0,0,1,.679,2.09A24.227,24.227,0,0,1,541.664,340.222Z" transform="translate(-517.434 -292.145)" fill="#8bd6dd"/>
              </g>
            </g>
          </g>
          <g id="Grupo_115196" data-name="Grupo 115196" transform="translate(57.92 13.375)">
            <rect id="Rectángulo_37057" data-name="Rectángulo 37057" width="57.416" height="109.733" rx="16.46" fill="#67a2c7"/>
            <rect id="Rectángulo_37058" data-name="Rectángulo 37058" width="44.511" height="109.733" rx="16.46" transform="translate(12.905)" fill="#c7ebef"/>
            <g id="Grupo_115193" data-name="Grupo 115193" transform="translate(19.306 16.153)">
              <g id="Grupo_115191" data-name="Grupo 115191" transform="translate(0 0.525)">
                <circle id="Elipse_5022" data-name="Elipse 5022" cx="15.854" cy="15.854" r="15.854" fill="#a3dee3"/>
              </g>
              <g id="Grupo_115192" data-name="Grupo 115192" transform="translate(0.086)">
                <path id="Trazado_160759" data-name="Trazado 160759" d="M304.494,133.62l1.095-.7,4.807.178,5.417,1.735,4.861,4.318,1.928,3.4.588,2.2h-9.347l-1.042-3.53-2.885-4.109-3.235-2.492Z" transform="translate(-282.774 -132.218)" fill="#65c8d0"/>
                <path id="Trazado_160760" data-name="Trazado 160760" d="M295.978,143.206a16.442,16.442,0,0,0-15.748-11.88c-.153,0-.3.015-.455.019l.044-.014-8.334,0-.058.016c-.2-.007-.4-.025-.6-.025a16.447,16.447,0,0,0-15.2,10.312l-.115.2,0,.073q-.24.633-.428,1.292a.525.525,0,0,0,.36.648h0v.018h9.526l0-.009a.518.518,0,0,0,.523-.37,15.388,15.388,0,0,1,10.038-10.365,15.389,15.389,0,0,1,10.039,10.365.524.524,0,0,0,.5.38.547.547,0,0,0,.144-.02.524.524,0,0,0,.36-.648,16.431,16.431,0,0,0-9.274-10.535,15.156,15.156,0,0,1,2.928-.3,15.389,15.389,0,0,1,14.739,11.119.524.524,0,0,0,.5.38.548.548,0,0,0,.145-.02A.525.525,0,0,0,295.978,143.206Z" transform="translate(-255.06 -131.326)" fill="#65c8d0"/>
              </g>
            </g>
            <g id="Grupo_115195" data-name="Grupo 115195" transform="translate(12.739 51.853)">
              <circle id="Elipse_5023" data-name="Elipse 5023" cx="15.854" cy="15.854" r="15.854" transform="translate(0 22.421) rotate(-45)" fill="#8bd6dd"/>
              <g id="Grupo_115194" data-name="Grupo 115194" transform="translate(6.653 6.419)">
                <path id="Trazado_160761" data-name="Trazado 160761" d="M304.494,229.486l1.095-.7,4.807.178,5.417,1.735,4.861,4.318,1.928,3.4.588,2.2h-9.347l-1.042-3.53-2.885-4.109-3.235-2.492Z" transform="translate(-282.774 -228.084)" fill="#65c8d0"/>
                <path id="Trazado_160762" data-name="Trazado 160762" d="M295.978,239.071a16.442,16.442,0,0,0-15.748-11.88c-.153,0-.3.015-.455.019l.044-.014-8.334,0-.058.016c-.2-.007-.4-.025-.6-.025a16.447,16.447,0,0,0-15.2,10.312l-.115.2,0,.073q-.24.633-.428,1.292a.525.525,0,0,0,.36.648h0v.018h9.526l0-.009a.519.519,0,0,0,.523-.371,15.388,15.388,0,0,1,10.038-10.365,15.39,15.39,0,0,1,10.039,10.365.524.524,0,0,0,.5.381.53.53,0,0,0,.144-.02.524.524,0,0,0,.36-.648,16.431,16.431,0,0,0-9.274-10.535,15.156,15.156,0,0,1,2.928-.3,15.389,15.389,0,0,1,14.739,11.119.524.524,0,0,0,.5.381.531.531,0,0,0,.145-.02A.525.525,0,0,0,295.978,239.071Z" transform="translate(-255.06 -227.191)" fill="#65c8d0"/>
              </g>
            </g>
          </g>
        </g>
      </g>
      <g id="Grupo_115229" data-name="Grupo 115229" transform="translate(188.383 150.478)">
        <g id="Grupo_115228" data-name="Grupo 115228">
          <g id="Grupo_115201" data-name="Grupo 115201" transform="translate(48.119 38.441)">
            <g id="Grupo_115199" data-name="Grupo 115199" transform="translate(27.521 84.119)">
              <path id="Trazado_160763" data-name="Trazado 160763" d="M552.769,696.916a1.1,1.1,0,0,1-1.042-.752l-51.675-155.1a1.1,1.1,0,1,1,2.084-.694l51.674,155.1a1.1,1.1,0,0,1-1.042,1.446Z" transform="translate(-499.996 -539.624)" fill="#fff"/>
              <path id="Trazado_160764" data-name="Trazado 160764" d="M566.619,738.486a1.1,1.1,0,0,1-1.042-.752l-14.264-42.811a1.1,1.1,0,0,1,2.084-.694l14.263,42.811a1.1,1.1,0,0,1-1.042,1.446Z" transform="translate(-528.735 -625.88)" fill="#67a2c7"/>
              <path id="Trazado_160765" data-name="Trazado 160765" d="M602.217,845.326a1.1,1.1,0,0,1-1.042-.752l-12.923-38.789a1.1,1.1,0,1,1,2.084-.694l12.923,38.789a1.1,1.1,0,0,1-1.042,1.446Z" transform="translate(-549.444 -688.034)" fill="#67a2c7"/>
              <path id="Trazado_160766" data-name="Trazado 160766" d="M615.151,884.15a1.1,1.1,0,0,1-1.042-.752l-2.787-8.364a1.1,1.1,0,0,1,2.085-.694l2.786,8.364a1.1,1.1,0,0,1-1.042,1.446Z" transform="translate(-562.379 -726.857)" fill="#22367d"/>
            </g>
            <path id="Trazado_160767" data-name="Trazado 160767" d="M496.443,545.653c3.357,6.381,4.332,8.873,4.485,9.85a1.941,1.941,0,0,0,.737,1.413,1.546,1.546,0,0,0,1.146.085,2.807,2.807,0,0,1,.41-1.723c.2-.307.391-.612.638-.635.367-.034.931.545,1.8,3.216a12.921,12.921,0,0,0,1.331-2.325,8.729,8.729,0,0,0,.888-3.035c.041-1.574-.964-2.759-2.936-4.8-2.19-2.266-4.14-4.2-5.754-5.775Z" transform="translate(-470.484 -456.795)" fill="#ffba93"/>
            <g id="Grupo_115200" data-name="Grupo 115200">
              <path id="Trazado_160768" data-name="Trazado 160768" d="M465.659,430.05a4.178,4.178,0,0,0-.819-2.1c-1.255-1.773-5.08-12.182-6.235-21.828a55.809,55.809,0,0,1-.388-6.931q.037-1.259.065-2.493c0-.031,0-.06,0-.091h0c.478-21.177-1.043-36.266-3.37-40.612-1.46-2.724-6.564-7.45-8.205-7.718a7.165,7.165,0,0,0-3.635.3c-1.019.407-6.777,6.47-5.543,29.279a132.957,132.957,0,0,0,5.554,31.327h0c1.373,6.421,4.926,14.781,13.076,24.588a5.946,5.946,0,0,0,2.786,1.922,4.528,4.528,0,0,0,1.4.131l3.112,2.283,3.733-3.817-1.647-2.982A3.784,3.784,0,0,0,465.659,430.05Z" transform="translate(-437.359 -348.165)" fill="#fcee21"/>
            </g>
          </g>
          <g id="Grupo_115211" data-name="Grupo 115211" transform="translate(18.454 99.345)">
            <g id="Grupo_115204" data-name="Grupo 115204" transform="translate(5.228 154.744)">
              <g id="Grupo_115202" data-name="Grupo 115202">
                <path id="Trazado_160769" data-name="Trazado 160769" d="M381.738,841.124q1.67,7.584,3.485,15.734l8.508-1.462c-.4-5.424-.763-10.9-1.116-16.41Z" transform="translate(-381.738 -838.986)" fill="#ffba93"/>
              </g>
              <g id="Grupo_115203" data-name="Grupo 115203" transform="translate(0.439 14.471)">
                <path id="Trazado_160770" data-name="Trazado 160770" d="M383.169,881.73a9.809,9.809,0,0,0,.78,1.84h9.576q-.024-1.11-.048-2.22l2.693,2.22h18.248a2.422,2.422,0,0,0,1.838-.688,2.338,2.338,0,0,0,.537-1.577c-.111-2.02-5.3-3.445-6.814-3.872a134.582,134.582,0,0,1-15.6-5.51,4.256,4.256,0,0,1-1.119,1,4.735,4.735,0,0,1-3.409.513l-5.213-1.289C383.83,873.578,381.875,877.513,383.169,881.73Z" transform="translate(-382.738 -871.923)" fill="#fcee21"/>
                <path id="Trazado_160771" data-name="Trazado 160771" d="M393.394,895h-4.885a.439.439,0,0,1,0-.879h4.885a.439.439,0,0,1,0,.879Z" transform="translate(-385.727 -884.37)" fill="#22367d"/>
                <path id="Trazado_160772" data-name="Trazado 160772" d="M429.063,895.008H414a.439.439,0,1,1,0-.879h15.06a.439.439,0,1,1,0,.879Z" transform="translate(-400.02 -884.372)" fill="#22367d"/>
                <path id="Trazado_160773" data-name="Trazado 160773" d="M393.621,874.145a8.478,8.478,0,0,1-4.166-1.112.439.439,0,1,1,.433-.765,7.548,7.548,0,0,0,4.207.982,7.428,7.428,0,0,0,3.038-.868.439.439,0,1,1,.413.775,8.308,8.308,0,0,1-3.395.97C393.971,874.139,393.794,874.145,393.621,874.145Z" transform="translate(-386.379 -872.085)" fill="#22367d"/>
              </g>
            </g>
            <g id="Grupo_115207" data-name="Grupo 115207" transform="translate(20.286 142.635)">
              <g id="Grupo_115205" data-name="Grupo 115205" transform="translate(6.104)">
                <path id="Trazado_160774" data-name="Trazado 160774" d="M438.073,811.425q-3.945,6.689-8.17,13.891l7.224,4.727q5.108-6.361,10.364-12.771Z" transform="translate(-429.903 -811.425)" fill="#ffba93"/>
              </g>
              <g id="Grupo_115206" data-name="Grupo 115206" transform="translate(0 11.432)">
                <path id="Trazado_160775" data-name="Trazado 160775" d="M416.373,844.638a9.83,9.83,0,0,0-.362,1.965l7.995,5.272L425.188,850l1.026,3.336,15.234,10.046a2.421,2.421,0,0,0,1.913.438,2.336,2.336,0,0,0,1.317-1.021c1.02-1.747-2.525-5.791-3.557-6.984a134.545,134.545,0,0,1-9.99-13.188,4.253,4.253,0,0,1-1.483.217,4.738,4.738,0,0,1-3.129-1.449l-3.642-3.946C421.413,838.2,417.614,840.4,416.373,844.638Z" transform="translate(-416.011 -837.444)" fill="#fcee21"/>
                <path id="Trazado_160776" data-name="Trazado 160776" d="M424.334,860.066a.437.437,0,0,1-.242-.073l-4.078-2.689a.439.439,0,1,1,.484-.734l4.078,2.689a.439.439,0,0,1-.242.806Z" transform="translate(-418.145 -848.126)" fill="#22367d"/>
                <path id="Trazado_160777" data-name="Trazado 160777" d="M454.108,879.705a.436.436,0,0,1-.241-.072l-12.573-8.291a.439.439,0,0,1,.484-.734l12.573,8.291a.439.439,0,0,1-.243.806Z" transform="translate(-430.075 -855.997)" fill="#22367d"/>
                <path id="Trazado_160778" data-name="Trazado 160778" d="M439.627,844.043l-.041,0a8.307,8.307,0,0,1-3.368-1.06,8.437,8.437,0,0,1-3.318-3.5.439.439,0,1,1,.783-.4,7.565,7.565,0,0,0,2.971,3.137,7.43,7.43,0,0,0,3.014.948.439.439,0,0,1-.041.877Z" transform="translate(-425.452 -838.228)" fill="#22367d"/>
              </g>
            </g>
            <g id="Grupo_115210" data-name="Grupo 115210">
              <g id="Grupo_115208" data-name="Grupo 115208">
                <path id="Trazado_160779" data-name="Trazado 160779" d="M375.844,652.151h12.615q4.1-43.148,7.618-86.339,1.619-19.9,3.113-39.811c2.775,7.789,6.768,19.668,10.813,34.568,1.386,5.1,2.6,9.906,2.989,11.607,1.933,8.426,3.642,27.837-13.966,64.738l8.847,6.226c26.809-30.986,28.931-57.044,28.85-68.014-.1-13.617-3.771-27.421-9.354-48.425-4.21-15.837-8.622-28.78-11.961-37.853l-37.843-2.065a88.286,88.286,0,0,0-7.1,25.117c-.959,7.738-.677,15.211-.113,30.156.286,7.583.656,13.152.674,13.422C371.812,567.293,373.212,593.653,375.844,652.151Z" transform="translate(-369.839 -486.784)" fill="#22367d"/>
                <path id="Trazado_160780" data-name="Trazado 160780" d="M504.187,698.946a.435.435,0,0,1-.282-.1l-3.691-3.09a.439.439,0,1,1,.564-.674l3.691,3.09a.439.439,0,0,1-.282.776Z" transform="translate(-442.844 -603.505)" fill="#fff"/>
                <path id="Trazado_160781" data-name="Trazado 160781" d="M411,698.946a.439.439,0,0,1-.394-.244l-1.538-3.09a.439.439,0,1,1,.787-.391l1.538,3.09a.439.439,0,0,1-.2.589A.432.432,0,0,1,411,698.946Z" transform="translate(-391.807 -603.505)" fill="#fff"/>
              </g>
              <path id="Trazado_160782" data-name="Trazado 160782" d="M381.654,535.958a.439.439,0,0,1-.171-.844,12.833,12.833,0,0,0,4.119-2.772,13.041,13.041,0,0,0,3.362-5.951.439.439,0,1,1,.851.218,13.919,13.919,0,0,1-3.591,6.353,13.691,13.691,0,0,1-4.4,2.962A.435.435,0,0,1,381.654,535.958Z" transform="translate(-376.216 -508.804)" fill="#fff"/>
              <path id="Trazado_160783" data-name="Trazado 160783" d="M473.532,531.281a.437.437,0,0,1-.266-.09A14.812,14.812,0,0,1,468.938,526a14.628,14.628,0,0,1-1.213-3.464.439.439,0,1,1,.859-.185,13.781,13.781,0,0,0,1.14,3.256,13.94,13.94,0,0,0,4.074,4.887.439.439,0,0,1-.267.789Z" transform="translate(-424.712 -506.528)" fill="#fff"/>
              <g id="Grupo_115209" data-name="Grupo 115209" transform="translate(7.613 7.138)">
                <path id="Trazado_160784" data-name="Trazado 160784" d="M437.864,509.681h-4.33a1.44,1.44,0,0,1-1.34-1.52v-2.2a1.44,1.44,0,0,1,1.34-1.52h4.33a1.44,1.44,0,0,1,1.34,1.52v2.2A1.44,1.44,0,0,1,437.864,509.681Zm-4.33-4.366c-.25,0-.461.294-.461.641v2.2c0,.348.211.642.461.642h4.33c.25,0,.461-.294.461-.642v-2.2c0-.348-.211-.641-.461-.641Z" transform="translate(-412.411 -503.819)" fill="#fff"/>
                <path id="Trazado_160785" data-name="Trazado 160785" d="M433,510.284h-2.889a.439.439,0,1,1,0-.879H433a.439.439,0,1,1,0,.879Z" transform="translate(-410.996 -506.605)" fill="#fff"/>
                <path id="Trazado_160786" data-name="Trazado 160786" d="M404.661,507.842h0a39.534,39.534,0,0,1-17.245-3.976.439.439,0,0,1,.382-.791,38.658,38.658,0,0,0,16.864,3.888.439.439,0,0,1,0,.879Z" transform="translate(-387.167 -503.031)" fill="#fff"/>
                <path id="Trazado_160787" data-name="Trazado 160787" d="M446.829,508.932a.439.439,0,0,1-.036-.877,34.437,34.437,0,0,0,10.746-2.675.439.439,0,1,1,.347.808,35.339,35.339,0,0,1-11.019,2.743Z" transform="translate(-420.37 -504.328)" fill="#fff"/>
              </g>
            </g>
          </g>
          <g id="Grupo_115215" data-name="Grupo 115215" transform="translate(14.707 37.184)">
            <g id="Grupo_115212" data-name="Grupo 115212">
              <path id="Trazado_160788" data-name="Trazado 160788" d="M372.74,408.631c-.743-.366-1.128-.52-1.348-.653-6.539-3.972-1.971-13.929-5-28.957-2.344-11.642-7.64-18.349-3.619-26.133a7.969,7.969,0,0,1,.908-1.521c5.333-6.681,21.126-6.149,26.24-5.977.92.031,1.688.077,2.23.115,0,0,.259.019.512.04,9.8.8,14.468,4.633,14.468,4.633.108.1.252.229.42.394,0,0,.29.283.566.588,4.036,4.45,6.522,14.182,6.522,14.182,1.436,5.621,2.155,8.431,2.048,11.059-.178,4.388-1.426,4.708-2.621,11.468a54.937,54.937,0,0,0-1.194,11.5c.073,4.164.719,8.416-1.53,9.84a2.842,2.842,0,0,1-.718.323,44.843,44.843,0,0,1-37.888-.9Z" transform="translate(-361.313 -345.304)" fill="#fcee21"/>
            </g>
            <g id="Grupo_115213" data-name="Grupo 115213" transform="translate(5.462 20.692)">
              <path id="Trazado_160789" data-name="Trazado 160789" d="M381.925,400.836c.174-4-.222-8.392-.829-8.438-.076-.006-.205.166-.505.468a9.413,9.413,0,0,0-1.186,1.517,25.811,25.811,0,0,0-1.652,3.065,67.917,67.917,0,0,0-4.008,10.1c1.361,8.452.464,15.176.972,19.992,1.7-4.64,2.985-8.587,3.89-11.53C381.373,407.023,381.8,403.62,381.925,400.836Z" transform="translate(-373.745 -392.399)" fill="#22367d"/>
            </g>
            <path id="Trazado_160790" data-name="Trazado 160790" d="M437.953,422.515h-.012a.44.44,0,0,1-.427-.452,126.791,126.791,0,0,1,2.381-22.382l.076-.362a28.564,28.564,0,0,0,.357-12.444,25.562,25.562,0,0,0-1.364-4.3c-.184-.482-.388-1.015-.616-1.632a124.239,124.239,0,0,1-4.4-14.683.44.44,0,0,1,.856-.2,123.226,123.226,0,0,0,4.364,14.579c.227.613.43,1.145.613,1.624a26.553,26.553,0,0,1,1.4,4.431,29.352,29.352,0,0,1-.357,12.809l-.076.36a125.9,125.9,0,0,0-2.363,22.225A.439.439,0,0,1,437.953,422.515Z" transform="translate(-402.031 -356.751)" fill="#22367d"/>
            <g id="Grupo_115214" data-name="Grupo 115214" transform="translate(30.337 14.919)">
              <circle id="Elipse_5024" data-name="Elipse 5024" cx="0.932" cy="0.932" r="0.932" fill="#fff"/>
              <circle id="Elipse_5025" data-name="Elipse 5025" cx="0.932" cy="0.932" r="0.932" transform="translate(1.531 6.348)" fill="#fff"/>
              <path id="Trazado_160791" data-name="Trazado 160791" d="M439.585,406.713a.932.932,0,1,1-.932-.932A.932.932,0,0,1,439.585,406.713Z" transform="translate(-434.487 -394.129)" fill="#fff"/>
              <path id="Trazado_160792" data-name="Trazado 160792" d="M441.707,418.787a.932.932,0,1,1-.932-.932A.932.932,0,0,1,441.707,418.787Z" transform="translate(-435.677 -400.898)" fill="#fff"/>
              <path id="Trazado_160793" data-name="Trazado 160793" d="M440.871,431.286a.932.932,0,1,1-.932-.932A.932.932,0,0,1,440.871,431.286Z" transform="translate(-435.208 -407.905)" fill="#fff"/>
              <path id="Trazado_160794" data-name="Trazado 160794" d="M438.75,443.258a.932.932,0,1,1-.932-.932A.932.932,0,0,1,438.75,443.258Z" transform="translate(-434.019 -414.617)" fill="#fff"/>
              <path id="Trazado_160795" data-name="Trazado 160795" d="M437.11,455.988a.932.932,0,1,1-.932-.932A.932.932,0,0,1,437.11,455.988Z" transform="translate(-433.1 -421.754)" fill="#fff"/>
              <path id="Trazado_160796" data-name="Trazado 160796" d="M435.794,466.814a.932.932,0,1,1-.932-.932A.932.932,0,0,1,435.794,466.814Z" transform="translate(-432.362 -427.823)" fill="#fff"/>
              <path id="Trazado_160797" data-name="Trazado 160797" d="M434.988,478.592a.932.932,0,1,1-.932-.932A.932.932,0,0,1,434.988,478.592Z" transform="translate(-431.91 -434.427)" fill="#fff"/>
            </g>
          </g>
          <g id="Grupo_115219" data-name="Grupo 115219" transform="translate(0 40.911)">
            <g id="Grupo_115217" data-name="Grupo 115217" transform="translate(29.835 6.286)">
              <g id="Grupo_115216" data-name="Grupo 115216">
                <path id="Trazado_160798" data-name="Trazado 160798" d="M397.941,377.381a.43.43,0,0,1-.058,0,.439.439,0,0,1-.378-.493,12.54,12.54,0,0,0-1.7-8.124.439.439,0,1,1,.752-.454A13.419,13.419,0,0,1,398.376,377,.439.439,0,0,1,397.941,377.381Z" transform="translate(-395.744 -368.094)" fill="#22367d"/>
              </g>
            </g>
            <g id="Grupo_115218" data-name="Grupo 115218">
              <path id="Trazado_160799" data-name="Trazado 160799" d="M349.406,555.727c-.069,1.314-.185,2.382-.277,3.1,0,0-.7,9.62-.658,11.024a.286.286,0,0,0,.262.276.277.277,0,0,0,.3-.229l.833-4.228,1.045,7.671a.332.332,0,0,0,.657,0l.931-6.741.9,7.715a.311.311,0,0,0,.619-.009l.685-7.816,1.233,6.684a.191.191,0,0,0,.38-.036q-.019-4.7-.039-9.4l4.023,3.88a.328.328,0,0,0,.505-.409l-7.671-13.736Z" transform="translate(-339.405 -465.743)" fill="#ffba93"/>
              <path id="Trazado_160800" data-name="Trazado 160800" d="M342.406,438.108a4.181,4.181,0,0,0-.062-2.256c-.584-2.092-.674-13.182,1.492-22.651a55.84,55.84,0,0,1,1.972-6.656q.46-1.173.9-2.325c.012-.029.022-.056.034-.084h0c7.592-19.775,11.249-34.493,10.524-39.369-.455-3.057-3.667-9.228-5.121-10.033a7.166,7.166,0,0,0-3.525-.941c-1.1.039-8.562,3.806-15.093,25.694a132.95,132.95,0,0,0-5.337,31.365h0c-.873,6.508-.348,15.577,4.018,27.558a5.951,5.951,0,0,0,1.974,2.749,4.556,4.556,0,0,0,1.272.595l2.159,3.2,4.8-2.334q-.272-1.681-.545-3.362A3.783,3.783,0,0,0,342.406,438.108Z" transform="translate(-327.838 -353.788)" fill="#fcee21"/>
            </g>
          </g>
          <g id="Grupo_115227" data-name="Grupo 115227" transform="translate(17.944)">
            <g id="Grupo_115225" data-name="Grupo 115225">
              <g id="Grupo_115220" data-name="Grupo 115220" transform="translate(0 29.281)">
                <path id="Trazado_160801" data-name="Trazado 160801" d="M378.279,341.264a.432.432,0,0,1-.074-.007c-5.248-.9-9.061-3.948-9.487-7.592a6.027,6.027,0,0,1,1.685-4.988c1.932-1.75,5.217-1.82,7.988-.172a.439.439,0,1,1-.449.755c-2.443-1.452-5.3-1.425-6.949.069a5.233,5.233,0,0,0-1.4,4.234c.375,3.2,3.978,6.01,8.763,6.828a.439.439,0,0,1-.074.873Z" transform="translate(-368.68 -327.317)" fill="#22367d"/>
              </g>
              <g id="Grupo_115221" data-name="Grupo 115221" transform="translate(23.891 27.963)">
                <path id="Rectángulo_37059" data-name="Rectángulo 37059" d="M.415,0H7.776a.415.415,0,0,1,.415.415V11.543a4.1,4.1,0,0,1-4.1,4.1h0a4.1,4.1,0,0,1-4.1-4.1V.415A.415.415,0,0,1,.415,0Z" fill="#ffba93"/>
              </g>
              <g id="Grupo_115224" data-name="Grupo 115224" transform="translate(1.969)">
                <g id="Grupo_115222" data-name="Grupo 115222" transform="translate(17.345 7.026)">
                  <path id="Trazado_160802" data-name="Trazado 160802" d="M433.856,286.23c-1.089,8.117.964,11.162-1.724,13.974-2.866,3-7.828,2.288-8.314,2.211-6.377-1-10-7.784-10.879-12.794-.274-1.567-1.321-8.945,3.184-12.014,1.705-1.161,3.714-1.015,7.695-.78,2.691.159,6,.4,8.189,2.72a7.514,7.514,0,0,1,1.319,1.952A8.322,8.322,0,0,1,433.856,286.23Z" transform="translate(-412.638 -276.664)" fill="#ffba93"/>
                  <path id="Trazado_160803" data-name="Trazado 160803" d="M434.439,333.9h-.031a11.041,11.041,0,0,1-4.412-1.26.439.439,0,1,1,.412-.776,10.135,10.135,0,0,0,4.06,1.159.44.44,0,0,1-.029.878Z" transform="translate(-422.239 -307.581)" fill="#22367d"/>
                  <path id="Trazado_160804" data-name="Trazado 160804" d="M456.052,315.458a.439.439,0,0,1-.177-.842.475.475,0,0,0,.3-.361.527.527,0,0,0-.51-.478.439.439,0,1,1,.092-.874,1.394,1.394,0,0,1,1.294,1.41,1.331,1.331,0,0,1-.828,1.107A.445.445,0,0,1,456.052,315.458Z" transform="translate(-436.543 -296.979)" fill="#22367d"/>
                </g>
                <path id="Trazado_160805" data-name="Trazado 160805" d="M411.929,270.469a11.134,11.134,0,0,1-.1,4.571c-2.891,3.586-5.2,4.337-6.815,4.314-1.361-.018-2.037-.583-3.517-.214-2.471.616-3.523,3.062-4.391,2.553-.138-.081-.847-.541-.768-2.46-.25-.007-.437-.023-.579-.04-.316-.037-.429-.044-.468-.044-.627-.012-2.456,3.879-1.323,8.108a10.588,10.588,0,0,0,.75,1.978c.217.385,3.168,5.844.367,10.944-2.709,4.931-8.72,5.747-12.377,5.2-1.039-.156-5.456-.957-7.886-4.732-1.044-1.623-2.525-5.043-1.014-7.1a5.28,5.28,0,0,1,2.817-1.69,7.856,7.856,0,0,1,2.7,0c3.58-.248,1.068-19.671,9.741-27.421,4.209-3.761,11.225-4.936,16.069-2.46C405.881,262.358,410.886,265.012,411.929,270.469Z" transform="translate(-373.162 -260.673)" fill="#22367d"/>
                <g id="Grupo_115223" data-name="Grupo 115223" transform="translate(17.344 17.828)">
                  <circle id="Elipse_5026" data-name="Elipse 5026" cx="3.547" cy="3.547" r="3.547" fill="#ffba93"/>
                  <path id="Trazado_160806" data-name="Trazado 160806" d="M419.878,309.588a.44.44,0,0,1-.247-.076l-2.432-1.658a.439.439,0,1,1,.495-.726l2.432,1.657a.439.439,0,0,1-.248.8Z" transform="translate(-415.087 -304.503)" fill="#22367d"/>
                  <path id="Trazado_160807" data-name="Trazado 160807" d="M421.625,309.293a.439.439,0,0,1-.429-.346l-.3-1.364a.439.439,0,1,1,.859-.186l.3,1.364a.439.439,0,0,1-.337.523A.424.424,0,0,1,421.625,309.293Z" transform="translate(-417.264 -304.502)" fill="#22367d"/>
                </g>
              </g>
            </g>
            <g id="Grupo_115226" data-name="Grupo 115226" transform="translate(33.622 19.089)">
              <circle id="Elipse_5027" data-name="Elipse 5027" cx="2.006" cy="2.006" r="2.006" fill="#22367d"/>
              <path id="Trazado_160808" data-name="Trazado 160808" d="M460.339,306.126c0,1.108-.449,2.005-1,2.005s-1-.9-1-2.005.449-2.006,1-2.006S460.339,305.018,460.339,306.126Z" transform="translate(-452.565 -304.12)" fill="#22367d"/>
              <path id="Trazado_160809" data-name="Trazado 160809" d="M455.086,308.5a.441.441,0,0,1-.358-.185,1.763,1.763,0,0,0-1.113-.721,1.8,1.8,0,0,0-1.707.731.439.439,0,1,1-.7-.53,2.577,2.577,0,0,1,4.237.011.44.44,0,0,1-.358.694Z" transform="translate(-448.519 -305.563)" fill="#22367d"/>
            </g>
          </g>
        </g>
        <path id="Trazado_160810" data-name="Trazado 160810" d="M486.267,899.714H347.633a.439.439,0,0,1,0-.879H486.267a.439.439,0,1,1,0,.879Z" transform="translate(-338.69 -618.451)" fill="#22367d"/>
      </g>
    </g>
  </g>
</svg>
