<svg xmlns="http://www.w3.org/2000/svg" width="253" height="167.215" viewBox="0 0 253 167.215">
  <g id="Grupo_119019" data-name="Grupo 119019" transform="translate(-915.325 -3710.941)">
    <rect id="Rectángulo_37069" data-name="Rectángulo 37069" width="253" height="89" rx="10" transform="translate(915.325 3789.156)" fill="#ffedcc"/>
    <g id="Grupo_116581" data-name="Grupo 116581" transform="translate(924.28 3624.82)">
      <g id="Character_1" data-name="Character 1" transform="translate(21.791 86.121)">
        <g id="Grupo_116485" data-name="Grupo 116485">
          <g id="Grupo_116456" data-name="Grupo 116456" transform="translate(16.557)">
            <g id="Grupo_116441" data-name="Grupo 116441">
              <g id="Grupo_116440" data-name="Grupo 116440">
                <g id="Grupo_116439" data-name="Grupo 116439">
                  <g id="Grupo_116409" data-name="Grupo 116409" transform="translate(13.185 7.282)">
                    <g id="Grupo_116265" data-name="Grupo 116265">
                      <g id="Grupo_116264" data-name="Grupo 116264">
                        <g id="Grupo_116263" data-name="Grupo 116263">
                          <g id="Grupo_116262" data-name="Grupo 116262">
                            <g id="Grupo_116261" data-name="Grupo 116261">
                              <g id="Grupo_116260" data-name="Grupo 116260">
                                <g id="Grupo_116259" data-name="Grupo 116259">
                                  <g id="Grupo_116258" data-name="Grupo 116258">
                                    <g id="Grupo_116257" data-name="Grupo 116257">
                                      <g id="Grupo_116256" data-name="Grupo 116256">
                                        <path id="Trazado_161238" data-name="Trazado 161238" d="M125,163.614l.5-41.268c.459-10.261-5.13-19.082-15.4-19.257l-.95.039a18.363,18.363,0,0,0-17.594,17.625c-.349,8.9-.62,18.731-.365,23.485.529,9.843,10.442,10.968,10.442,10.968.022,0,.061,5.991.056,8.884l.548,6.8,5.242-2.014Z" transform="translate(-91.097 -103.089)" fill="#ae7461"/>
                                      </g>
                                    </g>
                                  </g>
                                </g>
                              </g>
                            </g>
                          </g>
                        </g>
                      </g>
                    </g>
                    <g id="Grupo_116276" data-name="Grupo 116276" transform="translate(10.594 47.853)">
                      <g id="Grupo_116275" data-name="Grupo 116275">
                        <g id="Grupo_116274" data-name="Grupo 116274">
                          <g id="Grupo_116273" data-name="Grupo 116273">
                            <g id="Grupo_116272" data-name="Grupo 116272">
                              <g id="Grupo_116271" data-name="Grupo 116271">
                                <g id="Grupo_116270" data-name="Grupo 116270">
                                  <g id="Grupo_116269" data-name="Grupo 116269">
                                    <g id="Grupo_116268" data-name="Grupo 116268">
                                      <g id="Grupo_116267" data-name="Grupo 116267">
                                        <g id="Grupo_116266" data-name="Grupo 116266">
                                          <path id="Trazado_161239" data-name="Trazado 161239" d="M115.783,218.918a23.81,23.81,0,0,0,12.666-4.321s-2.779,7.532-12.642,7.05Z" transform="translate(-115.783 -214.597)" fill="#6f4439"/>
                                        </g>
                                      </g>
                                    </g>
                                  </g>
                                </g>
                              </g>
                            </g>
                          </g>
                        </g>
                      </g>
                    </g>
                    <g id="Grupo_116293" data-name="Grupo 116293" transform="translate(4.846 24.493)">
                      <g id="Grupo_116292" data-name="Grupo 116292">
                        <g id="Grupo_116291" data-name="Grupo 116291">
                          <g id="Grupo_116290" data-name="Grupo 116290">
                            <g id="Grupo_116289" data-name="Grupo 116289">
                              <g id="Grupo_116288" data-name="Grupo 116288">
                                <g id="Grupo_116287" data-name="Grupo 116287">
                                  <g id="Grupo_116286" data-name="Grupo 116286">
                                    <g id="Grupo_116285" data-name="Grupo 116285">
                                      <g id="Grupo_116284" data-name="Grupo 116284">
                                        <g id="Grupo_116283" data-name="Grupo 116283">
                                          <g id="Grupo_116282" data-name="Grupo 116282">
                                            <g id="Grupo_116281" data-name="Grupo 116281">
                                              <g id="Grupo_116280" data-name="Grupo 116280">
                                                <g id="Grupo_116279" data-name="Grupo 116279">
                                                  <g id="Grupo_116278" data-name="Grupo 116278">
                                                    <g id="Grupo_116277" data-name="Grupo 116277">
                                                      <path id="Trazado_161240" data-name="Trazado 161240" d="M102.389,161.491a1.407,1.407,0,0,0,1.415,1.363,1.346,1.346,0,0,0,1.4-1.328,1.407,1.407,0,0,0-1.413-1.364A1.348,1.348,0,0,0,102.389,161.491Z" transform="translate(-102.389 -160.162)" fill="#263238"/>
                                                    </g>
                                                  </g>
                                                </g>
                                              </g>
                                            </g>
                                          </g>
                                        </g>
                                      </g>
                                    </g>
                                  </g>
                                </g>
                              </g>
                            </g>
                          </g>
                        </g>
                      </g>
                    </g>
                    <g id="Grupo_116311" data-name="Grupo 116311" transform="translate(2.714 19.993)">
                      <g id="Grupo_116310" data-name="Grupo 116310">
                        <g id="Grupo_116309" data-name="Grupo 116309">
                          <g id="Grupo_116308" data-name="Grupo 116308">
                            <g id="Grupo_116307" data-name="Grupo 116307">
                              <g id="Grupo_116306" data-name="Grupo 116306">
                                <g id="Grupo_116305" data-name="Grupo 116305">
                                  <g id="Grupo_116304" data-name="Grupo 116304">
                                    <g id="Grupo_116303" data-name="Grupo 116303">
                                      <g id="Grupo_116302" data-name="Grupo 116302">
                                        <g id="Grupo_116301" data-name="Grupo 116301">
                                          <g id="Grupo_116300" data-name="Grupo 116300">
                                            <g id="Grupo_116299" data-name="Grupo 116299">
                                              <g id="Grupo_116298" data-name="Grupo 116298">
                                                <g id="Grupo_116297" data-name="Grupo 116297">
                                                  <g id="Grupo_116296" data-name="Grupo 116296">
                                                    <g id="Grupo_116295" data-name="Grupo 116295">
                                                      <g id="Grupo_116294" data-name="Grupo 116294">
                                                        <path id="Trazado_161241" data-name="Trazado 161241" d="M97.446,151.272c.182.176,1.214-.656,2.729-.715,1.511-.08,2.654.653,2.81.46.077-.085-.114-.409-.612-.741a3.86,3.86,0,0,0-2.259-.6,3.709,3.709,0,0,0-2.162.8C97.5,150.856,97.356,151.194,97.446,151.272Z" transform="translate(-97.42 -149.677)" fill="#263238"/>
                                                      </g>
                                                    </g>
                                                  </g>
                                                </g>
                                              </g>
                                            </g>
                                          </g>
                                        </g>
                                      </g>
                                    </g>
                                  </g>
                                </g>
                              </g>
                            </g>
                          </g>
                        </g>
                      </g>
                    </g>
                    <g id="Grupo_116328" data-name="Grupo 116328" transform="translate(18.178 24.221)">
                      <g id="Grupo_116327" data-name="Grupo 116327">
                        <g id="Grupo_116326" data-name="Grupo 116326">
                          <g id="Grupo_116325" data-name="Grupo 116325">
                            <g id="Grupo_116324" data-name="Grupo 116324">
                              <g id="Grupo_116323" data-name="Grupo 116323">
                                <g id="Grupo_116322" data-name="Grupo 116322">
                                  <g id="Grupo_116321" data-name="Grupo 116321">
                                    <g id="Grupo_116320" data-name="Grupo 116320">
                                      <g id="Grupo_116319" data-name="Grupo 116319">
                                        <g id="Grupo_116318" data-name="Grupo 116318">
                                          <g id="Grupo_116317" data-name="Grupo 116317">
                                            <g id="Grupo_116316" data-name="Grupo 116316">
                                              <g id="Grupo_116315" data-name="Grupo 116315">
                                                <g id="Grupo_116314" data-name="Grupo 116314">
                                                  <g id="Grupo_116313" data-name="Grupo 116313">
                                                    <g id="Grupo_116312" data-name="Grupo 116312">
                                                      <path id="Trazado_161242" data-name="Trazado 161242" d="M133.455,160.857a1.407,1.407,0,0,0,1.414,1.363,1.345,1.345,0,0,0,1.4-1.328,1.408,1.408,0,0,0-1.413-1.364A1.347,1.347,0,0,0,133.455,160.857Z" transform="translate(-133.455 -159.528)" fill="#263238"/>
                                                    </g>
                                                  </g>
                                                </g>
                                              </g>
                                            </g>
                                          </g>
                                        </g>
                                      </g>
                                    </g>
                                  </g>
                                </g>
                              </g>
                            </g>
                          </g>
                        </g>
                      </g>
                    </g>
                    <g id="Grupo_116346" data-name="Grupo 116346" transform="translate(17.563 19.731)">
                      <g id="Grupo_116345" data-name="Grupo 116345">
                        <g id="Grupo_116344" data-name="Grupo 116344">
                          <g id="Grupo_116343" data-name="Grupo 116343">
                            <g id="Grupo_116342" data-name="Grupo 116342">
                              <g id="Grupo_116341" data-name="Grupo 116341">
                                <g id="Grupo_116340" data-name="Grupo 116340">
                                  <g id="Grupo_116339" data-name="Grupo 116339">
                                    <g id="Grupo_116338" data-name="Grupo 116338">
                                      <g id="Grupo_116337" data-name="Grupo 116337">
                                        <g id="Grupo_116336" data-name="Grupo 116336">
                                          <g id="Grupo_116335" data-name="Grupo 116335">
                                            <g id="Grupo_116334" data-name="Grupo 116334">
                                              <g id="Grupo_116333" data-name="Grupo 116333">
                                                <g id="Grupo_116332" data-name="Grupo 116332">
                                                  <g id="Grupo_116331" data-name="Grupo 116331">
                                                    <g id="Grupo_116330" data-name="Grupo 116330">
                                                      <g id="Grupo_116329" data-name="Grupo 116329">
                                                        <path id="Trazado_161243" data-name="Trazado 161243" d="M132.047,150.662c.182.176,1.217-.656,2.729-.715,1.511-.08,2.654.653,2.811.46.077-.085-.112-.409-.612-.741a3.866,3.866,0,0,0-2.259-.6,3.719,3.719,0,0,0-2.162.8C132.1,150.245,131.959,150.583,132.047,150.662Z" transform="translate(-132.022 -149.067)" fill="#263238"/>
                                                      </g>
                                                    </g>
                                                  </g>
                                                </g>
                                              </g>
                                            </g>
                                          </g>
                                        </g>
                                      </g>
                                    </g>
                                  </g>
                                </g>
                              </g>
                            </g>
                          </g>
                        </g>
                      </g>
                    </g>
                    <g id="Grupo_116363" data-name="Grupo 116363" transform="translate(8.738 20.541)">
                      <g id="Grupo_116362" data-name="Grupo 116362">
                        <g id="Grupo_116361" data-name="Grupo 116361">
                          <g id="Grupo_116360" data-name="Grupo 116360">
                            <g id="Grupo_116359" data-name="Grupo 116359">
                              <g id="Grupo_116358" data-name="Grupo 116358">
                                <g id="Grupo_116357" data-name="Grupo 116357">
                                  <g id="Grupo_116356" data-name="Grupo 116356">
                                    <g id="Grupo_116355" data-name="Grupo 116355">
                                      <g id="Grupo_116354" data-name="Grupo 116354">
                                        <g id="Grupo_116353" data-name="Grupo 116353">
                                          <g id="Grupo_116352" data-name="Grupo 116352">
                                            <g id="Grupo_116351" data-name="Grupo 116351">
                                              <g id="Grupo_116350" data-name="Grupo 116350">
                                                <g id="Grupo_116349" data-name="Grupo 116349">
                                                  <g id="Grupo_116348" data-name="Grupo 116348">
                                                    <g id="Grupo_116347" data-name="Grupo 116347">
                                                      <path id="Trazado_161244" data-name="Trazado 161244" d="M115.359,163.592a10.044,10.044,0,0,0-2.476-.342c-.388-.024-.757-.085-.833-.346a1.971,1.971,0,0,1,.21-1.157l1.021-2.989c1.414-4.255,2.42-7.747,2.249-7.8s-1.457,3.349-2.871,7.6c-.339,1.049-.664,2.049-.972,3.006a2.24,2.24,0,0,0-.138,1.525.97.97,0,0,0,.659.539,2.608,2.608,0,0,0,.66.064A9.845,9.845,0,0,0,115.359,163.592Z" transform="translate(-111.457 -150.953)" fill="#263238"/>
                                                    </g>
                                                  </g>
                                                </g>
                                              </g>
                                            </g>
                                          </g>
                                        </g>
                                      </g>
                                    </g>
                                  </g>
                                </g>
                              </g>
                            </g>
                          </g>
                        </g>
                      </g>
                    </g>
                    <g id="Grupo_116376" data-name="Grupo 116376" transform="translate(16.843 14.749)">
                      <g id="Grupo_116375" data-name="Grupo 116375">
                        <g id="Grupo_116374" data-name="Grupo 116374">
                          <g id="Grupo_116373" data-name="Grupo 116373">
                            <g id="Grupo_116372" data-name="Grupo 116372">
                              <g id="Grupo_116371" data-name="Grupo 116371">
                                <g id="Grupo_116370" data-name="Grupo 116370">
                                  <g id="Grupo_116369" data-name="Grupo 116369">
                                    <g id="Grupo_116368" data-name="Grupo 116368">
                                      <g id="Grupo_116367" data-name="Grupo 116367">
                                        <g id="Grupo_116366" data-name="Grupo 116366">
                                          <g id="Grupo_116365" data-name="Grupo 116365">
                                            <g id="Grupo_116364" data-name="Grupo 116364">
                                              <path id="Trazado_161245" data-name="Trazado 161245" d="M137.231,138.567c-.135-.417-1.654-.273-3.422-.547-1.775-.239-3.189-.807-3.437-.446-.111.173.126.569.691.987a6.022,6.022,0,0,0,5.226.756C136.95,139.077,137.289,138.765,137.231,138.567Z" transform="translate(-130.345 -137.458)" fill="#263238"/>
                                            </g>
                                          </g>
                                        </g>
                                      </g>
                                    </g>
                                  </g>
                                </g>
                              </g>
                            </g>
                          </g>
                        </g>
                      </g>
                    </g>
                    <g id="Grupo_116389" data-name="Grupo 116389" transform="translate(2.447 14.601)">
                      <g id="Grupo_116388" data-name="Grupo 116388">
                        <g id="Grupo_116387" data-name="Grupo 116387">
                          <g id="Grupo_116386" data-name="Grupo 116386">
                            <g id="Grupo_116385" data-name="Grupo 116385">
                              <g id="Grupo_116384" data-name="Grupo 116384">
                                <g id="Grupo_116383" data-name="Grupo 116383">
                                  <g id="Grupo_116382" data-name="Grupo 116382">
                                    <g id="Grupo_116381" data-name="Grupo 116381">
                                      <g id="Grupo_116380" data-name="Grupo 116380">
                                        <g id="Grupo_116379" data-name="Grupo 116379">
                                          <g id="Grupo_116378" data-name="Grupo 116378">
                                            <g id="Grupo_116377" data-name="Grupo 116377">
                                              <path id="Trazado_161246" data-name="Trazado 161246" d="M102.433,137.149c-.415-.213-1.448.549-2.833,1.078-1.369.57-2.649.733-2.8,1.17-.058.207.247.462.874.578a4.771,4.771,0,0,0,2.507-.325,4.7,4.7,0,0,0,2.029-1.486C102.583,137.651,102.622,137.259,102.433,137.149Z" transform="translate(-96.798 -137.112)" fill="#263238"/>
                                            </g>
                                          </g>
                                        </g>
                                      </g>
                                    </g>
                                  </g>
                                </g>
                              </g>
                            </g>
                          </g>
                        </g>
                      </g>
                    </g>
                    <g id="Grupo_116398" data-name="Grupo 116398" transform="translate(33.907 25.839)">
                      <g id="Grupo_116397" data-name="Grupo 116397">
                        <g id="Grupo_116396" data-name="Grupo 116396">
                          <g id="Grupo_116395" data-name="Grupo 116395">
                            <g id="Grupo_116394" data-name="Grupo 116394">
                              <g id="Grupo_116393" data-name="Grupo 116393">
                                <g id="Grupo_116392" data-name="Grupo 116392">
                                  <g id="Grupo_116391" data-name="Grupo 116391">
                                    <g id="Grupo_116390" data-name="Grupo 116390">
                                      <path id="Trazado_161247" data-name="Trazado 161247" d="M170.107,163.7c.165-.08,6.684-2.281,6.747,4.461s-6.718,5.414-6.732,5.221S170.107,163.7,170.107,163.7Z" transform="translate(-170.107 -163.298)" fill="#ae7461"/>
                                    </g>
                                  </g>
                                </g>
                              </g>
                            </g>
                          </g>
                        </g>
                      </g>
                    </g>
                    <g id="Grupo_116408" data-name="Grupo 116408" transform="translate(35.951 28.007)">
                      <g id="Grupo_116407" data-name="Grupo 116407">
                        <g id="Grupo_116406" data-name="Grupo 116406">
                          <g id="Grupo_116405" data-name="Grupo 116405">
                            <g id="Grupo_116404" data-name="Grupo 116404">
                              <g id="Grupo_116403" data-name="Grupo 116403">
                                <g id="Grupo_116402" data-name="Grupo 116402">
                                  <g id="Grupo_116401" data-name="Grupo 116401">
                                    <g id="Grupo_116400" data-name="Grupo 116400">
                                      <g id="Grupo_116399" data-name="Grupo 116399">
                                        <path id="Trazado_161248" data-name="Trazado 161248" d="M174.877,173.7c.029-.022.118.081.318.17a1.175,1.175,0,0,0,.878.009,2.905,2.905,0,0,0,1.32-2.62,3.882,3.882,0,0,0-.344-1.678,1.357,1.357,0,0,0-.892-.893.6.6,0,0,0-.69.329c-.088.189-.044.323-.08.336-.019.017-.146-.112-.094-.391a.748.748,0,0,1,.261-.425.886.886,0,0,1,.648-.178,1.65,1.65,0,0,1,1.236,1.034,3.981,3.981,0,0,1,.425,1.875,3.049,3.049,0,0,1-1.686,2.928,1.256,1.256,0,0,1-1.076-.169C174.89,173.86,174.854,173.71,174.877,173.7Z" transform="translate(-174.871 -168.351)" fill="#6f4439"/>
                                      </g>
                                    </g>
                                  </g>
                                </g>
                              </g>
                            </g>
                          </g>
                        </g>
                      </g>
                    </g>
                  </g>
                  <g id="Grupo_116438" data-name="Grupo 116438">
                    <g id="Grupo_116416" data-name="Grupo 116416">
                      <g id="Grupo_116415" data-name="Grupo 116415">
                        <g id="Grupo_116414" data-name="Grupo 116414">
                          <g id="Grupo_116413" data-name="Grupo 116413">
                            <g id="Grupo_116412" data-name="Grupo 116412">
                              <g id="Grupo_116411" data-name="Grupo 116411">
                                <g id="Grupo_116410" data-name="Grupo 116410">
                                  <path id="Trazado_161249" data-name="Trazado 161249" d="M60.416,101.859a1.6,1.6,0,0,1,.74-.942,4.913,4.913,0,0,1,2.517-.438,14.2,14.2,0,0,0,6.151-1.619A7.04,7.04,0,0,1,68,97.608a4.231,4.231,0,0,1-1.265-4.194.938.938,0,0,1,.521-.651c.436-.139.824.286,1.133.624A3.644,3.644,0,0,0,71.831,94.8a5.984,5.984,0,0,0,2.554-.787c.029-.031.055-.065.084-.1.346-.366.684-.715,1.018-1.053l0,0v0c2.508-2.544,4.669-4.312,6.9-5.242a22.91,22.91,0,0,1,12.217-1.1c3.442.862,6.556,3.611,7.073,7.121,1.906-1.649,4.8-1.668,7.15-.753l.058-.026c2.621.9,4.135,3.642,4.936,6.3.044.145.082.292.123.438a10.349,10.349,0,0,0,3.552,3.391c.254.144.545.321.579.611s-.206.529-.44.7a5.2,5.2,0,0,1-2.1.9,11.692,11.692,0,0,0,.887,1.824c.3.5.657,1.09.406,1.611a1.1,1.1,0,0,1-1.147.515,3.233,3.233,0,0,1-1.222-.536l.9,2.081a6.171,6.171,0,0,1-2.841-.157c-.527,2.5-.891,7.111-1.513,8.806-1.789.051-2.226-.138-3.125.172-1.163.4-.694,2.462-2.22,1.892-.777-.29-2-3.208-2.265-3.992a38.49,38.49,0,0,1-1.852-16.275,12.365,12.365,0,0,0-3.852-2.714l.118.1c-2.767-.926-5.9-1.832-8.5-.509-2.017,1.027-3.186,3.146-4.684,4.842a14.111,14.111,0,0,1-10.356,5.186c-.353,2.98-.412,7.849-.526,10.628l-2.435-5.532,0,.022c-.2-.324-.357-.65-.514-.977l-.054-.1v-.013a17.288,17.288,0,0,0-.8-1.571l-.027.024a1.735,1.735,0,0,1-2.562-2.292,3.889,3.889,0,0,1,.83-.853,2.746,2.746,0,0,1-2.608.708,2.153,2.153,0,0,1-1.547-2.113,1.832,1.832,0,0,1,1.075-1.481,6.186,6.186,0,0,1-3.527-.736C60.88,103.38,60.191,102.735,60.416,101.859Z" transform="translate(-60.373 -86.121)" fill="#263238"/>
                                </g>
                              </g>
                            </g>
                          </g>
                        </g>
                      </g>
                    </g>
                    <g id="Grupo_116423" data-name="Grupo 116423" transform="translate(38.216 8.69)">
                      <g id="Grupo_116422" data-name="Grupo 116422">
                        <g id="Grupo_116421" data-name="Grupo 116421">
                          <g id="Grupo_116420" data-name="Grupo 116420">
                            <g id="Grupo_116419" data-name="Grupo 116419">
                              <g id="Grupo_116418" data-name="Grupo 116418">
                                <g id="Grupo_116417" data-name="Grupo 116417">
                                  <path id="Trazado_161250" data-name="Trazado 161250" d="M149.425,106.37a8.531,8.531,0,0,1,1,.894,7.078,7.078,0,0,1,1.551,3.259,12.462,12.462,0,0,1,.281,2.5c.014.909-.048,1.883-.106,2.909a26.031,26.031,0,0,0-.037,3.236,11.405,11.405,0,0,0,.242,1.7,3.554,3.554,0,0,0,.715,1.647,1.489,1.489,0,0,0,1.4.452,2.214,2.214,0,0,0,1.245-.722,5.116,5.116,0,0,0,.922-2.519l-.207.027a8.268,8.268,0,0,0,1.224,2.053,2.938,2.938,0,0,0,1.931,1.023,1.887,1.887,0,0,0,1.015-.19,1.638,1.638,0,0,0,.684-.688,1.693,1.693,0,0,0,.2-.877,1.226,1.226,0,0,0-.325-.763l-.1.094a6.363,6.363,0,0,0,2.138,1.566,5.759,5.759,0,0,0,.66.248,1.109,1.109,0,0,0,.236.055,1.194,1.194,0,0,0-.224-.093c-.148-.058-.367-.144-.64-.279a6.554,6.554,0,0,1-2.064-1.59l-.1.094a1.266,1.266,0,0,1,.082,1.466,1.476,1.476,0,0,1-.618.61,1.722,1.722,0,0,1-.921.16,2.754,2.754,0,0,1-1.793-.973,8.154,8.154,0,0,1-1.179-2.009l-.145-.315-.062.342a4.938,4.938,0,0,1-.878,2.407,1.992,1.992,0,0,1-1.114.645,1.255,1.255,0,0,1-1.188-.383,3.372,3.372,0,0,1-.66-1.542,11.354,11.354,0,0,1-.24-1.669,26.38,26.38,0,0,1,.024-3.209c.052-1.026.107-2,.085-2.924a12.362,12.362,0,0,0-.313-2.537,6.976,6.976,0,0,0-1.644-3.283A4.006,4.006,0,0,0,149.425,106.37Z" transform="translate(-149.425 -106.37)" fill="#455a64"/>
                                </g>
                              </g>
                            </g>
                          </g>
                        </g>
                      </g>
                    </g>
                    <g id="Grupo_116430" data-name="Grupo 116430" transform="translate(7.804 3.215)">
                      <g id="Grupo_116429" data-name="Grupo 116429">
                        <g id="Grupo_116428" data-name="Grupo 116428">
                          <g id="Grupo_116427" data-name="Grupo 116427">
                            <g id="Grupo_116426" data-name="Grupo 116426">
                              <g id="Grupo_116425" data-name="Grupo 116425">
                                <g id="Grupo_116424" data-name="Grupo 116424">
                                  <path id="Trazado_161251" data-name="Trazado 161251" d="M78.558,109.035a.362.362,0,0,0,.08.067l.248.177a3.272,3.272,0,0,0,.421.263,5.269,5.269,0,0,0,.6.309,8.753,8.753,0,0,0,4.232.712,11.18,11.18,0,0,0,5.93-2.267,19.365,19.365,0,0,0,5.049-5.954c.7-1.2,1.275-2.434,1.907-3.573A13.073,13.073,0,0,1,99.2,95.74a6.738,6.738,0,0,1,2.823-1.758,4.839,4.839,0,0,1,1.5-.19,5.308,5.308,0,0,1,1.375.248,5.715,5.715,0,0,1,3.2,2.647,6.824,6.824,0,0,1,.526,1.474.313.313,0,0,0-.009-.1c-.013-.082-.03-.181-.05-.3a4.959,4.959,0,0,0-.388-1.11,5.616,5.616,0,0,0-1.122-1.485,5.78,5.78,0,0,0-2.108-1.275,5.437,5.437,0,0,0-1.419-.271,4.988,4.988,0,0,0-1.558.184,6.9,6.9,0,0,0-2.92,1.791,13.16,13.16,0,0,0-2.219,3.07c-.639,1.146-1.211,2.375-1.909,3.566a19.364,19.364,0,0,1-4.976,5.9,11.113,11.113,0,0,1-5.815,2.274,8.877,8.877,0,0,1-4.183-.631A13.859,13.859,0,0,1,78.558,109.035Z" transform="translate(-78.558 -93.613)" fill="#455a64"/>
                                </g>
                              </g>
                            </g>
                          </g>
                        </g>
                      </g>
                    </g>
                    <g id="Grupo_116437" data-name="Grupo 116437" transform="translate(6.857 14.309)">
                      <g id="Grupo_116436" data-name="Grupo 116436">
                        <g id="Grupo_116435" data-name="Grupo 116435">
                          <g id="Grupo_116434" data-name="Grupo 116434">
                            <g id="Grupo_116433" data-name="Grupo 116433">
                              <g id="Grupo_116432" data-name="Grupo 116432">
                                <g id="Grupo_116431" data-name="Grupo 116431">
                                  <path id="Trazado_161252" data-name="Trazado 161252" d="M76.351,119.466a1.511,1.511,0,0,0,.357.242,7.576,7.576,0,0,0,1.054.52,10.156,10.156,0,0,0,1.665.526,10.747,10.747,0,0,0,4.258.088,10.251,10.251,0,0,0,1.685-.457,7.653,7.653,0,0,0,1.074-.477,1.54,1.54,0,0,0,.366-.227c-.02-.039-.561.248-1.493.549a11.6,11.6,0,0,1-1.669.4,11.511,11.511,0,0,1-4.178-.086,11.679,11.679,0,0,1-1.651-.469C76.9,119.737,76.372,119.428,76.351,119.466Z" transform="translate(-76.35 -119.463)" fill="#455a64"/>
                                </g>
                              </g>
                            </g>
                          </g>
                        </g>
                      </g>
                    </g>
                  </g>
                </g>
              </g>
            </g>
            <g id="Grupo_116455" data-name="Grupo 116455" transform="translate(25.961 41.903)">
              <g id="Grupo_116454" data-name="Grupo 116454">
                <g id="Grupo_116453" data-name="Grupo 116453">
                  <g id="Grupo_116452" data-name="Grupo 116452">
                    <g id="Grupo_116451" data-name="Grupo 116451">
                      <g id="Grupo_116450" data-name="Grupo 116450">
                        <g id="Grupo_116449" data-name="Grupo 116449">
                          <g id="Grupo_116448" data-name="Grupo 116448">
                            <g id="Grupo_116447" data-name="Grupo 116447">
                              <g id="Grupo_116446" data-name="Grupo 116446">
                                <g id="Grupo_116445" data-name="Grupo 116445">
                                  <g id="Grupo_116444" data-name="Grupo 116444">
                                    <g id="Grupo_116443" data-name="Grupo 116443">
                                      <g id="Grupo_116442" data-name="Grupo 116442">
                                        <path id="Trazado_161253" data-name="Trazado 161253" d="M120.873,186.928c.079-.243,1.67.371,3.327-.552s2.14-2.684,2.367-2.61c.109.016.163.5-.1,1.221a4.25,4.25,0,0,1-1.886,2.214,3.7,3.7,0,0,1-2.75.361C121.146,187.364,120.821,187.034,120.873,186.928Z" transform="translate(-120.867 -183.764)" fill="#263238"/>
                                      </g>
                                    </g>
                                  </g>
                                </g>
                              </g>
                            </g>
                          </g>
                        </g>
                      </g>
                    </g>
                  </g>
                </g>
              </g>
            </g>
          </g>
          <g id="Grupo_116470" data-name="Grupo 116470" transform="translate(4.138 61.702)">
            <g id="Grupo_116457" data-name="Grupo 116457" transform="translate(12.375)">
              <path id="Trazado_161254" data-name="Trazado 161254" d="M84.092,234.925s-16.435,6.864-20.847,10.088-1.307,25.264-1.647,29.845.318,38.629.318,38.629S59.574,331.6,60.474,334.8c0,0,26.592.975,36.942.466s31.323.147,31.323.147l-.63-24.074-.848-37.667,6.448-32.747-25.468-9.4-.54-1.621s-9.311,8.4-15.079,8.061S84.092,234.925,84.092,234.925Z" transform="translate(-60.268 -229.899)" fill="#455a64"/>
            </g>
            <g id="Grupo_116459" data-name="Grupo 116459" transform="translate(13.327 49.444)" opacity="0.3">
              <g id="Grupo_116458" data-name="Grupo 116458">
                <path id="Trazado_161255" data-name="Trazado 161255" d="M130.411,370.637a11.388,11.388,0,0,0-2.87-3.834A85.543,85.543,0,0,0,98.79,348.179a38.988,38.988,0,0,0-12.932-3.056,18.822,18.822,0,0,0-12.493,3.836c-4.546,3.734-6.453,9.8-7.279,15.625s-.818,11.815-2.571,17.431l-1.027,5.178a5.064,5.064,0,0,0,5.179-1.116,13.255,13.255,0,0,0,3.051-4.635,79.653,79.653,0,0,0,5.564-16.982c.691-3.34,1.341-7.035,3.986-9.189,2.908-2.368,7.174-1.968,10.759-.865,11.85,3.646,20.823,13.129,31.221,19.882,2.283,1.483,5.536,2.761,7.48.855A4.252,4.252,0,0,0,130.411,370.637Z" transform="translate(-62.487 -345.114)"/>
              </g>
            </g>
            <g id="Grupo_116460" data-name="Grupo 116460" transform="translate(74.135 11.025)">
              <path id="Trazado_161256" data-name="Trazado 161256" d="M215.863,255.59s4.349,2.4,6.118,5.208,8.847,24.043,8.847,24.043l-23.56,6.989-3.085-18.388Z" transform="translate(-204.183 -255.59)" fill="#455a64"/>
            </g>
            <g id="Grupo_116461" data-name="Grupo 116461" transform="translate(0 14.576)">
              <path id="Trazado_161257" data-name="Trazado 161257" d="M47.572,263.865a11.8,11.8,0,0,0-5.971,4.707c-1.88,2.825-10.168,24.7-10.168,24.7l15.957,8.447Z" transform="translate(-31.433 -263.865)" fill="#455a64"/>
            </g>
            <g id="Grupo_116465" data-name="Grupo 116465" transform="translate(13.912 28.68)">
              <g id="Grupo_116462" data-name="Grupo 116462" transform="translate(0.112)">
                <path id="Trazado_161258" data-name="Trazado 161258" d="M64.11,339.008V296.73" transform="translate(-64.11 -296.73)" fill="#ff725e"/>
              </g>
              <g id="Grupo_116464" data-name="Grupo 116464">
                <g id="Grupo_116463" data-name="Grupo 116463">
                  <path id="Trazado_161259" data-name="Trazado 161259" d="M63.962,296.73c.062,0,.112,9.465.112,21.138s-.05,21.14-.112,21.14-.112-9.463-.112-21.14S63.9,296.73,63.962,296.73Z" transform="translate(-63.85 -296.73)" fill="#263238"/>
                </g>
              </g>
            </g>
            <g id="Grupo_116467" data-name="Grupo 116467" transform="translate(75.517 12.499)">
              <g id="Grupo_116466" data-name="Grupo 116466">
                <path id="Trazado_161260" data-name="Trazado 161260" d="M216.143,259.024a3.91,3.91,0,0,1-.448.508c-.3.314-.724.779-1.233,1.365a34.556,34.556,0,0,0-6.2,10.348c-.277.725-.488,1.318-.622,1.731a4,4,0,0,1-.236.634,3.894,3.894,0,0,1,.153-.66c.109-.422.3-1.025.557-1.76a30.977,30.977,0,0,1,6.229-10.4c.526-.576.969-1.026,1.29-1.322A3.945,3.945,0,0,1,216.143,259.024Z" transform="translate(-207.403 -259.024)" fill="#263238"/>
              </g>
            </g>
            <g id="Grupo_116469" data-name="Grupo 116469" transform="translate(76.887 30.588)">
              <g id="Grupo_116468" data-name="Grupo 116468">
                <path id="Trazado_161261" data-name="Trazado 161261" d="M212.481,318.757c-.061.006-.532-3.924-1.05-8.779s-.89-8.8-.828-8.8.532,3.923,1.051,8.779S212.542,318.751,212.481,318.757Z" transform="translate(-210.596 -301.176)" fill="#263238"/>
              </g>
            </g>
          </g>
          <g id="Grupo_116484" data-name="Grupo 116484" transform="translate(0 88.241)">
            <g id="Grupo_116471" data-name="Grupo 116471" transform="translate(51.08 14.382)">
              <path id="Trazado_161262" data-name="Trazado 161262" d="M149.763,328.918l23.769,12.01.237-.58-1.033-9.237,19.748-5.858s1.918,22.037,2.992,26.669c1.678,7.241-4.216,16.014-14.94,16-5.731-.008-39.718-26.862-39.718-26.862Z" transform="translate(-140.817 -325.253)" fill="#ae7461"/>
            </g>
            <g id="Grupo_116472" data-name="Grupo 116472" transform="translate(0 17.178)">
              <path id="Trazado_161263" data-name="Trazado 161263" d="M45.321,331.768l6.5,12.565L47.7,356.717l-1.762,4.972s-4.7,18.286-9.773,18.729-8.936-.339-12.884-8.056c-4.294-8.394,1.846-31.352,3.787-39.724l12.472,6.2,5.778-7.07" transform="translate(-21.791 -331.768)" fill="#ae7461"/>
            </g>
            <g id="Grupo_116473" data-name="Grupo 116473" transform="translate(17.752)">
              <path id="Trazado_161264" data-name="Trazado 161264" d="M94.659,303.975c-.963-.327-3.353,1.526-4.774,2.74a24.1,24.1,0,0,1-4,2.487s10.306-9.045,10.282-10.427-.663-2.351-2.435-1.557c0,0,2.035-1.629.276-3.407S81.131,302.2,81.131,302.2l-.48-.485s9.66-8.4,9.085-9.179-2.179-1.427-4.182.3-9.776,7.951-11.306,9.586c-2.672,2.854-3.734,2.465-4.667,2.439l-6.426,11.131,11.788,6.531s5.67-1.963,11.688-8.748c0,0,6.263-4.725,7.558-6.326S95.622,304.3,94.659,303.975Z" transform="translate(-63.156 -291.74)" fill="#ae7461"/>
            </g>
            <g id="Grupo_116477" data-name="Grupo 116477" transform="translate(22.895 0.176)">
              <g id="Grupo_116474" data-name="Grupo 116474" transform="translate(0.107 0.088)">
                <path id="Trazado_161265" data-name="Trazado 161265" d="M103.96,322.606s-6.383-.444-14.464-5.755c0,0-7.762-3.123-9.54-4.411S77.607,309.6,78.508,309s3.875.638,5.676,1.493a25.7,25.7,0,0,0,4.81,1.448s-13.125-6.445-13.484-7.875.028-2.6,2.074-2.28c0,0-2.547-1.111-1.231-3.431,1.2-2.117,13.2,3.842,15.279,4.9a.362.362,0,0,0,.479-.145h0a.364.364,0,0,0-.15-.5c-1.517-.776-7.74-3.991-10.32-5.8-1.634-1.144.661-3.279,3.2-2.059s12.2,5.944,14.577,6.177,5.535.671,5.786.033-1.134-3.208-1.727-4.325-1.551-3.556,1.311-4.274c0,0,4.075,5.1,5.386,7.015s3.528,11.369,3.528,11.369" transform="translate(-75.391 -292.356)" fill="#ae7461"/>
              </g>
              <g id="Grupo_116476" data-name="Grupo 116476">
                <g id="Grupo_116475" data-name="Grupo 116475">
                  <path id="Trazado_161266" data-name="Trazado 161266" d="M113.562,310.624s-.035-.118-.095-.349-.148-.581-.263-1.031c-.233-.907-.577-2.247-1.065-3.967-.242-.86-.526-1.814-.863-2.85-.169-.518-.354-1.056-.567-1.607a8.128,8.128,0,0,0-.8-1.643c-1.485-2.073-3.3-4.357-5.317-6.89l.078.027a3.433,3.433,0,0,0-1.161.524,1.8,1.8,0,0,0-.683,1.062,2.828,2.828,0,0,0,.081,1.329,6.249,6.249,0,0,0,.53,1.289c.448.843.909,1.708,1.305,2.629a4.9,4.9,0,0,1,.439,1.475.636.636,0,0,1-.024.217.341.341,0,0,1-.139.2,1.04,1.04,0,0,1-.391.154,4.3,4.3,0,0,1-.788.072,30.078,30.078,0,0,1-3.175-.216c-.537-.064-1.073-.094-1.624-.184a10.681,10.681,0,0,1-1.61-.451c-2.108-.745-4.212-1.684-6.366-2.66s-4.344-2.045-6.584-3.1a3.258,3.258,0,0,0-1.774-.239,2.113,2.113,0,0,0-1.5.884.841.841,0,0,0-.064.815,1.592,1.592,0,0,0,.628.625c.526.361,1.077.7,1.629,1.031,2.224,1.324,4.551,2.573,6.926,3.817l.894.464.449.231.23.12a.469.469,0,0,1,.206.251.475.475,0,0,1-.536.624,1.12,1.12,0,0,1-.261-.112l-.912-.454q-1.83-.9-3.715-1.751a50.112,50.112,0,0,0-7.275-2.748,9.3,9.3,0,0,0-1.863-.313,2.215,2.215,0,0,0-.891.114.688.688,0,0,0-.319.245c-.072.12-.134.27-.2.4a1.949,1.949,0,0,0,.045,1.723,2.943,2.943,0,0,0,1.313,1.181l.617.306-.678-.1a2.842,2.842,0,0,0-1.239.032,1.081,1.081,0,0,0-.773.812,2.66,2.66,0,0,0,.042,1.218.612.612,0,0,0,.114.248,1.468,1.468,0,0,0,.2.222,5,5,0,0,0,.475.4,41.085,41.085,0,0,0,4.233,2.624c2.864,1.595,5.688,3.044,8.418,4.4l.694.345-.757-.158a29.97,29.97,0,0,1-3.647-.981,15.527,15.527,0,0,1-1.695-.715c-.548-.251-1.1-.486-1.648-.7a14.694,14.694,0,0,0-1.661-.542,3.093,3.093,0,0,0-1.64-.087.815.815,0,0,0-.477.557,1.347,1.347,0,0,0,.07.77,3.794,3.794,0,0,0,.893,1.32,6.694,6.694,0,0,0,1.241.978q.679.4,1.371.739c.918.459,1.827.877,2.713,1.272,1.773.79,3.455,1.5,5.025,2.139l.007,0,.005,0A39.345,39.345,0,0,0,99.8,321.616a27.4,27.4,0,0,0,2.979.715c.342.06.6.1.778.122s.265.036.265.036-.091,0-.267-.017-.439-.051-.783-.1a25.572,25.572,0,0,1-2.992-.681,38.884,38.884,0,0,1-10.459-4.9l.012.006c-1.575-.635-3.259-1.339-5.037-2.123-.889-.394-1.8-.81-2.723-1.268-.463-.228-.924-.473-1.384-.741a6.877,6.877,0,0,1-1.276-1,3.956,3.956,0,0,1-.937-1.382,1.516,1.516,0,0,1-.077-.872.991.991,0,0,1,.581-.68,3.213,3.213,0,0,1,1.751.075,14.814,14.814,0,0,1,1.684.545c.556.213,1.108.448,1.66.7a15.287,15.287,0,0,0,1.679.705,29.776,29.776,0,0,0,3.622.969l-.063.187c-2.735-1.354-5.562-2.8-8.433-4.395a41.208,41.208,0,0,1-4.261-2.637,5.193,5.193,0,0,1-.495-.418,1.665,1.665,0,0,1-.225-.249.755.755,0,0,1-.15-.326,2.866,2.866,0,0,1-.041-1.32,1.314,1.314,0,0,1,.324-.611,1.38,1.38,0,0,1,.6-.356,3.054,3.054,0,0,1,1.338-.04l-.061.209a3.15,3.15,0,0,1-1.419-1.277,2.171,2.171,0,0,1-.056-1.911c.075-.148.132-.292.222-.442a.908.908,0,0,1,.418-.327,2.411,2.411,0,0,1,.983-.132,9.518,9.518,0,0,1,1.91.319,50.141,50.141,0,0,1,7.311,2.759q1.889.849,3.722,1.754l.913.455a1.014,1.014,0,0,0,.2.092.252.252,0,0,0,.284-.331.246.246,0,0,0-.109-.133l-.219-.113-.449-.232-.9-.465c-2.377-1.246-4.706-2.5-6.936-3.826-.555-.338-1.107-.674-1.639-1.039a1.8,1.8,0,0,1-.7-.715,1.061,1.061,0,0,1,.075-1.012,2.318,2.318,0,0,1,1.655-.988,3.475,3.475,0,0,1,1.89.256c2.259,1.062,4.433,2.127,6.587,3.106s4.252,1.919,6.345,2.662a10.477,10.477,0,0,0,1.576.445c.53.088,1.082.121,1.614.185a30.125,30.125,0,0,0,3.153.221,4.131,4.131,0,0,0,.753-.067.888.888,0,0,0,.321-.122c.085-.052.093-.147.093-.268a4.82,4.82,0,0,0-.422-1.408c-.391-.912-.847-1.775-1.293-2.619a6.411,6.411,0,0,1-.541-1.325,2.98,2.98,0,0,1-.079-1.4,1.959,1.959,0,0,1,.745-1.153,3.571,3.571,0,0,1,1.218-.548l.046-.014.032.04c2.006,2.541,3.815,4.829,5.3,6.916a8.24,8.24,0,0,1,.809,1.671c.212.555.394,1.1.56,1.616.332,1.04.609,2,.846,2.859.476,1.724.806,3.068,1.027,3.979l.242,1.036C113.541,310.5,113.562,310.624,113.562,310.624Z" transform="translate(-75.141 -292.151)" fill="#6f4439"/>
                </g>
              </g>
            </g>
            <g id="Grupo_116479" data-name="Grupo 116479" transform="translate(3.25 21.535)">
              <g id="Grupo_116478" data-name="Grupo 116478">
                <path id="Trazado_161267" data-name="Trazado 161267" d="M45.494,341.921a2.265,2.265,0,0,1-.173.327c-.123.209-.295.523-.54.912-.478.788-1.208,1.9-2.147,3.256-1.863,2.715-4.653,6.309-7.489,10.445a56.922,56.922,0,0,0-3.69,6.018,17.907,17.907,0,0,0-1.812,5.431,12.058,12.058,0,0,0,.016,3.86c.077.451.164.8.227,1.03a2.254,2.254,0,0,1,.088.359,2.273,2.273,0,0,1-.131-.346,8.291,8.291,0,0,1-.27-1.027,11.641,11.641,0,0,1-.087-3.9,17.719,17.719,0,0,1,1.784-5.5,54.842,54.842,0,0,1,3.689-6.051c2.843-4.146,5.652-7.722,7.545-10.411.954-1.339,1.7-2.439,2.2-3.211.256-.382.44-.688.575-.889A2.291,2.291,0,0,1,45.494,341.921Z" transform="translate(-29.365 -341.921)" fill="#6f4439"/>
              </g>
            </g>
            <g id="Grupo_116481" data-name="Grupo 116481" transform="translate(25.693 9.793)">
              <g id="Grupo_116480" data-name="Grupo 116480">
                <path id="Trazado_161268" data-name="Trazado 161268" d="M94.478,320.651a2.694,2.694,0,0,1-.517-.214c-.327-.15-.795-.377-1.371-.663l-4.479-2.265c-1.753-.875-3.366-1.61-4.546-2.115l-1.4-.594a2.738,2.738,0,0,1-.506-.24,2.646,2.646,0,0,1,.537.159c.341.114.829.3,1.429.529,1.2.469,2.828,1.184,4.585,2.061s3.319,1.719,4.452,2.324L94,320.36A2.65,2.65,0,0,1,94.478,320.651Z" transform="translate(-81.661 -314.559)" fill="#6f4439"/>
              </g>
            </g>
            <g id="Grupo_116483" data-name="Grupo 116483" transform="translate(80.749 28.517)">
              <g id="Grupo_116482" data-name="Grupo 116482">
                <path id="Trazado_161269" data-name="Trazado 161269" d="M222.92,365.977a3.13,3.13,0,0,1-.474-.364c-.3-.239-.736-.58-1.294-.976-1.111-.8-2.714-1.811-4.521-2.862s-3.485-1.937-4.706-2.562l-1.449-.734a3.029,3.029,0,0,1-.524-.287,3.137,3.137,0,0,1,.56.208c.354.149.863.375,1.483.672,1.242.589,2.93,1.462,4.748,2.51a45.3,45.3,0,0,1,4.5,2.928c.55.415.975.777,1.258,1.038A3.036,3.036,0,0,1,222.92,365.977Z" transform="translate(-209.952 -358.19)" fill="#6f4439"/>
              </g>
            </g>
          </g>
        </g>
      </g>
      <g id="Character_2" data-name="Character 2" transform="translate(114.612 96.419)">
        <g id="Grupo_116580" data-name="Grupo 116580">
          <g id="Grupo_116523" data-name="Grupo 116523" transform="translate(2.471)">
            <g id="Grupo_116486" data-name="Grupo 116486" transform="translate(10.943)">
              <path id="Trazado_161270" data-name="Trazado 161270" d="M269.484,115.023a6.086,6.086,0,0,1,2.264-4.033c1.6-1.1,3.72-.96,5.635-.652,2.742.44,5.692,1.3,7.254,3.592a7.323,7.323,0,0,1,1.109,4.584,15.213,15.213,0,0,1-1.19,4.633l-7.231,3.042c-1.717-2.73-5.561-3.56-7.186-6.347A7.129,7.129,0,0,1,269.484,115.023Z" transform="translate(-269.339 -110.117)" fill="#263238"/>
            </g>
            <g id="Grupo_116487" data-name="Grupo 116487" transform="translate(25.499 0.843)">
              <path id="Trazado_161271" data-name="Trazado 161271" d="M358.922,177.09c.26-.7,1.048-1.025,1.711-1.376a7.377,7.377,0,0,0-.125-13.107,5.608,5.608,0,0,1-1.7-1.019c-1.121-1.214-.413-3.159-.665-4.792-.533-3.458-5.154-4.8-6.395-8.075-.757-2-.076-4.205.329-6.3s.375-4.613-1.3-5.937c-.9-.712-2.125-.93-3-1.677-1.8-1.542-1.291-4.372-1.693-6.707a8.089,8.089,0,0,0-7.95-6.49s1.919-2.965-1.669-5.154c-4.33-2.642-5.119.634-6.94-1.748a7.047,7.047,0,0,0-8.589-1.9,20.573,20.573,0,0,1-2.6,1.445,13.738,13.738,0,0,1-3.6.364c-4.609.33-12.982,4.644-11.254,10.815l23.729,55.1a53.858,53.858,0,0,1,9.478,4.586c.879.573,1.173,8.239,2.17,8.568a6.733,6.733,0,0,0,3.874-.058,11.093,11.093,0,0,0,6.577-5.1,7.092,7.092,0,0,0,10.193-9.079C359.145,178.7,358.631,177.875,358.922,177.09Z" transform="translate(-303.258 -112.081)" fill="#263238"/>
            </g>
            <g id="Grupo_116488" data-name="Grupo 116488" transform="translate(23.609 13.1)">
              <path id="Trazado_161272" data-name="Trazado 161272" d="M299.137,149.638l-.283-3.54,21.044-5.33c6.522-1.089,14.016,5.062,14.827,11.624.9,7.291,1.714,16.228,1.175,21.741-1.083,11.085-9.415,12.989-9.415,12.989l.609,10.9L302.83,199.79Z" transform="translate(-298.854 -140.642)" fill="#ffbf9d"/>
            </g>
            <g id="Grupo_116489" data-name="Grupo 116489" transform="translate(52.695 33.882)">
              <path id="Trazado_161273" data-name="Trazado 161273" d="M369.436,190.262a1.41,1.41,0,0,1-1.272,1.5,1.349,1.349,0,0,1-1.528-1.182,1.411,1.411,0,0,1,1.27-1.5A1.35,1.35,0,0,1,369.436,190.262Z" transform="translate(-366.63 -189.069)" fill="#263238"/>
            </g>
            <g id="Grupo_116490" data-name="Grupo 116490" transform="translate(51.867 28.332)">
              <path id="Trazado_161274" data-name="Trazado 161274" d="M370.273,177.458c-.164.194-1.278-.531-2.793-.436-1.515.074-2.58.92-2.756.744-.086-.077.072-.419.535-.8a3.874,3.874,0,0,1,2.193-.823,3.714,3.714,0,0,1,2.237.577C370.176,177.048,370.354,177.371,370.273,177.458Z" transform="translate(-364.702 -176.136)" fill="#263238"/>
            </g>
            <g id="Grupo_116491" data-name="Grupo 116491" transform="translate(39.035 34.284)">
              <path id="Trazado_161275" data-name="Trazado 161275" d="M337.606,191.2a1.412,1.412,0,0,1-1.272,1.5,1.35,1.35,0,0,1-1.528-1.182,1.412,1.412,0,0,1,1.271-1.5A1.35,1.35,0,0,1,337.606,191.2Z" transform="translate(-334.799 -190.005)" fill="#263238"/>
            </g>
            <g id="Grupo_116492" data-name="Grupo 116492" transform="translate(36.989 29.511)">
              <path id="Trazado_161276" data-name="Trazado 161276" d="M335.6,180.206c-.164.194-1.279-.531-2.793-.436-1.514.073-2.58.92-2.756.744-.085-.077.071-.419.536-.8a3.865,3.865,0,0,1,2.192-.823,3.718,3.718,0,0,1,2.237.576C335.5,179.8,335.683,180.118,335.6,180.206Z" transform="translate(-330.031 -178.884)" fill="#263238"/>
            </g>
            <g id="Grupo_116493" data-name="Grupo 116493" transform="translate(47.269 29.155)">
              <path id="Trazado_161277" data-name="Trazado 161277" d="M355.453,190.639a10.058,10.058,0,0,1,2.435-.592c.385-.064.746-.162.8-.43a1.974,1.974,0,0,0-.327-1.131l-1.322-2.878c-1.841-4.1-3.2-7.48-3.034-7.552s1.793,3.191,3.634,7.291q.667,1.517,1.275,2.9a2.246,2.246,0,0,1,.292,1.507.975.975,0,0,1-.6.6,2.642,2.642,0,0,1-.651.13A9.879,9.879,0,0,1,355.453,190.639Z" transform="translate(-353.987 -178.054)" fill="#263238"/>
            </g>
            <g id="Grupo_116494" data-name="Grupo 116494" transform="translate(35.92 56.571)">
              <path id="Trazado_161278" data-name="Trazado 161278" d="M342.859,244.976a29.124,29.124,0,0,1-15.318-3.038s4.171,7.465,15.475,5.776Z" transform="translate(-327.541 -241.938)" fill="#ff9a6c"/>
            </g>
            <g id="Grupo_116495" data-name="Grupo 116495" transform="translate(34.733 25.602)">
              <path id="Trazado_161279" data-name="Trazado 161279" d="M324.775,172.523c.026-.438,1.535-.681,3.182-1.393,1.661-.679,2.889-1.587,3.221-1.3.151.14.022.583-.421,1.131a6.037,6.037,0,0,1-4.878,2.052C325.177,172.947,324.769,172.729,324.775,172.523Z" transform="translate(-324.775 -169.775)" fill="#263238"/>
            </g>
            <g id="Grupo_116515" data-name="Grupo 116515" transform="translate(52.284 23.637)">
              <g id="Grupo_116514" data-name="Grupo 116514">
                <g id="Grupo_116513" data-name="Grupo 116513">
                  <g id="Grupo_116512" data-name="Grupo 116512">
                    <g id="Grupo_116511" data-name="Grupo 116511">
                      <g id="Grupo_116510" data-name="Grupo 116510">
                        <g id="Grupo_116509" data-name="Grupo 116509">
                          <g id="Grupo_116508" data-name="Grupo 116508">
                            <g id="Grupo_116507" data-name="Grupo 116507">
                              <g id="Grupo_116506" data-name="Grupo 116506">
                                <g id="Grupo_116505" data-name="Grupo 116505">
                                  <g id="Grupo_116504" data-name="Grupo 116504">
                                    <g id="Grupo_116503" data-name="Grupo 116503">
                                      <g id="Grupo_116502" data-name="Grupo 116502">
                                        <g id="Grupo_116501" data-name="Grupo 116501">
                                          <g id="Grupo_116500" data-name="Grupo 116500">
                                            <g id="Grupo_116499" data-name="Grupo 116499">
                                              <g id="Grupo_116498" data-name="Grupo 116498">
                                                <g id="Grupo_116497" data-name="Grupo 116497">
                                                  <g id="Grupo_116496" data-name="Grupo 116496">
                                                    <path id="Trazado_161280" data-name="Trazado 161280" d="M365.8,165.229c.385-.205,1.193.548,2.335,1.076,1.123.569,2.215.736,2.292,1.166.026.2-.268.451-.826.559a3.723,3.723,0,0,1-3.727-1.806C365.614,165.719,365.625,165.335,365.8,165.229Z" transform="translate(-365.673 -165.194)" fill="#263238"/>
                                                  </g>
                                                </g>
                                              </g>
                                            </g>
                                          </g>
                                        </g>
                                      </g>
                                    </g>
                                  </g>
                                </g>
                              </g>
                            </g>
                          </g>
                        </g>
                      </g>
                    </g>
                  </g>
                </g>
              </g>
            </g>
            <g id="Grupo_116516" data-name="Grupo 116516" transform="translate(0 10.335)">
              <path id="Trazado_161281" data-name="Trazado 161281" d="M303.278,140.818a18.432,18.432,0,0,0-10.024-6.619l-17.778,2.235-4.858,2.923a3.261,3.261,0,0,1,.568-2.394c-1.671-1.281-7.376-3.34-11.409.875-1.455,1.521-2.671,5.568-2.7,7.673-.012.8.064,1.767-.6,2.2a2.3,2.3,0,0,1-.788.262,9.177,9.177,0,0,0-6.735,10.53,2.41,2.41,0,0,1,.1.9,2.471,2.471,0,0,1-.793,1.178,7.847,7.847,0,0,0-1.245,8.733,9.294,9.294,0,0,1,1.209,2.621c.274,1.71-.975,3.234-1.942,4.67-2.9,4.307-3.524,10.563-.119,14.484.828.953,1.895,1.8,2.2,3.027a7.26,7.26,0,0,1,.1,1.843c-.022,3.129,1.628,6.629,4.686,7.289,1.7.366,3.759-.113,4.967,1.135a7.364,7.364,0,0,1,1.084,1.981,6.345,6.345,0,0,0,7.311,3.147c2.759-.851,3.673-12.042,3.273-14.9,3.341-1.214,5.814-1.43,5.658-4.982,0,0-.517-6.112.473-9.09s-1-9.315-2.127-12.392.217-10.242.52-13.091a10.328,10.328,0,0,0-.236-2.437l0,0,0-.008c-.124-.693-.286-1.472-.477-2.308a22.066,22.066,0,0,1-.064-2.3,4.057,4.057,0,0,1,5.3-3.764,6.582,6.582,0,0,0,1.915.344,6.819,6.819,0,0,0,5.491-2.6,9.813,9.813,0,0,0,9.688,2.65,26.732,26.732,0,0,0,4.6,5.346,9.007,9.007,0,0,0,6.511,2.238A18.429,18.429,0,0,0,303.278,140.818Z" transform="translate(-243.84 -134.199)" fill="#263238"/>
            </g>
            <g id="Grupo_116517" data-name="Grupo 116517" transform="translate(30.2 9.455)">
              <path id="Trazado_161282" data-name="Trazado 161282" d="M341.6,142.828c-.032,0,.019-.4-.04-1.118a7.106,7.106,0,0,0-.91-2.9,6.52,6.52,0,0,0-3.4-2.922,6.859,6.859,0,0,0-5.528.341l-.129.069-.093-.113a10.164,10.164,0,0,0-2.422-2.12,10.3,10.3,0,0,0-6.607-1.5,10.084,10.084,0,0,0-5.119,2.212,10.791,10.791,0,0,0-2.479,2.892c-.45.788-.622,1.265-.657,1.252a1.411,1.411,0,0,1,.107-.353,7.875,7.875,0,0,1,.427-.967,10.332,10.332,0,0,1,7.68-5.366,10.517,10.517,0,0,1,6.84,1.525,10.4,10.4,0,0,1,2.507,2.2l-.221-.045a7.125,7.125,0,0,1,5.805-.319,6.69,6.69,0,0,1,3.5,3.1,6.856,6.856,0,0,1,.832,3,4.894,4.894,0,0,1-.032.84A.975.975,0,0,1,341.6,142.828Z" transform="translate(-314.213 -132.148)" fill="#455a64"/>
            </g>
            <g id="Grupo_116518" data-name="Grupo 116518" transform="translate(17.032 15.535)">
              <path id="Trazado_161283" data-name="Trazado 161283" d="M283.533,150.775c.066.036.393-.687,1.24-1.6a7.542,7.542,0,0,1,8.814-1.737c1.129.518,1.7,1.063,1.753,1.005.017-.019-.107-.173-.373-.413a6.3,6.3,0,0,0-1.251-.855,7.382,7.382,0,0,0-9.163,1.806,6.316,6.316,0,0,0-.833,1.266C283.567,150.574,283.51,150.764,283.533,150.775Z" transform="translate(-283.528 -146.316)" fill="#455a64"/>
            </g>
            <g id="Grupo_116519" data-name="Grupo 116519" transform="translate(17.719 19.299)">
              <path id="Trazado_161284" data-name="Trazado 161284" d="M285.13,188.635a4.243,4.243,0,0,0,1.406-.928,6.6,6.6,0,0,0,1.981-4.107,6.412,6.412,0,0,0-.434-3.176,6.556,6.556,0,0,0-.947-1.533,4.1,4.1,0,0,1-.9-1.521,1.882,1.882,0,0,1,.518-1.636c.415-.488.956-.91,1.452-1.421a3.641,3.641,0,0,0,1.053-1.935,5.33,5.33,0,0,0-.105-2.252,32.9,32.9,0,0,0-1.662-3.994,7.956,7.956,0,0,1,2.732-9.4,8.327,8.327,0,0,1,4.2-1.482c1.07-.072,1.663.063,1.668.017a1.739,1.739,0,0,0-.425-.1,6.974,6.974,0,0,0-1.251-.078,8.2,8.2,0,0,0-4.361,1.4,8.049,8.049,0,0,0-3.462,5.76,8.172,8.172,0,0,0,.518,4.029,34.362,34.362,0,0,1,1.637,3.944,4.946,4.946,0,0,1,.1,2.077,3.233,3.233,0,0,1-.941,1.731c-.469.489-1.011.915-1.463,1.448a2.271,2.271,0,0,0-.587,1.975,4.385,4.385,0,0,0,.985,1.665,5.784,5.784,0,0,1,1.374,4.452,6.6,6.6,0,0,1-1.8,4.021A11.25,11.25,0,0,1,285.13,188.635Z" transform="translate(-285.129 -155.087)" fill="#455a64"/>
            </g>
            <g id="Grupo_116520" data-name="Grupo 116520" transform="translate(14.828 5.151)">
              <path id="Trazado_161285" data-name="Trazado 161285" d="M278.4,132.633a8.358,8.358,0,0,1,2.068-2.331,7.605,7.605,0,0,1,3.071-1.317,10.334,10.334,0,0,1,4.107.134,6.573,6.573,0,0,1,.8.257l.242.093.076-.242a11.362,11.362,0,0,1,3.972-5.6,26.8,26.8,0,0,1,2.448-1.506,2.282,2.282,0,0,0-.751.22,9.539,9.539,0,0,0-1.888,1.023,11.065,11.065,0,0,0-4.236,5.718l.318-.15a6.785,6.785,0,0,0-.869-.28,10.324,10.324,0,0,0-4.3-.1,7.584,7.584,0,0,0-3.194,1.48,5.875,5.875,0,0,0-1.546,1.794A2.1,2.1,0,0,0,278.4,132.633Z" transform="translate(-278.393 -122.12)" fill="#455a64"/>
            </g>
            <g id="Grupo_116521" data-name="Grupo 116521" transform="translate(43.157 44.296)">
              <path id="Trazado_161286" data-name="Trazado 161286" d="M348.886,214.455a2.682,2.682,0,0,0-2.351-1.115,2.449,2.449,0,0,0-1.734.821,1.551,1.551,0,0,0-.206,1.765,1.8,1.8,0,0,0,1.923.59,5.64,5.64,0,0,0,1.957-1.038,1.647,1.647,0,0,0,.446-.418.5.5,0,0,0,.026-.553" transform="translate(-344.405 -213.335)" fill="#ff9a6c"/>
            </g>
            <g id="Grupo_116522" data-name="Grupo 116522" transform="translate(43.737 42.674)">
              <path id="Trazado_161287" data-name="Trazado 161287" d="M346.041,209.555c.242,0,.164,1.611,1.488,2.825s3.049,1.123,3.05,1.349c.018.1-.4.294-1.125.277a4.018,4.018,0,0,1-2.55-1.035,3.5,3.5,0,0,1-1.145-2.364C345.731,209.931,345.931,209.541,346.041,209.555Z" transform="translate(-345.756 -209.555)" fill="#263238"/>
            </g>
          </g>
          <g id="Grupo_116579" data-name="Grupo 116579" transform="translate(0 44.9)">
            <g id="Grupo_116524" data-name="Grupo 116524" transform="translate(14.29 22.026)">
              <path id="Trazado_161288" data-name="Trazado 161288" d="M271.768,270.853l11.941-4.784s13.069,4.985,19.671,4.581,12.665-4.581,12.665-4.581l17.9,5.345,1.1,20.735-1.357,35.388s3.031,11.971,2.661,16.142a8.367,8.367,0,0,1-4.126,6.171l.887,5.368H276.089l1.167-5.476s-7.474-.628-5.562-11.866c.573-3.372,5.791-9.859,3.549-23.529C272.868,299.861,271.768,270.853,271.768,270.853Z" transform="translate(-271.381 -266.069)" fill="#ff725e"/>
            </g>
            <g id="Grupo_116526" data-name="Grupo 116526" transform="translate(14.091 60.234)" opacity="0.3">
              <g id="Grupo_116525" data-name="Grupo 116525">
                <path id="Trazado_161289" data-name="Trazado 161289" d="M328.024,363.805c-1.343-2.437-2.85-4.9-5.141-6.476a15.136,15.136,0,0,0-8.335-2.223,23.419,23.419,0,0,0-12.484,2.967c-5.142,3.069-8.441,8.41-11.352,13.643s-5.764,10.723-10.428,14.479l-9.365,6.879a27.671,27.671,0,0,0,25.706-9.973c5.1-6.479,7.312-15.322,13.931-20.24a13.9,13.9,0,0,1,4.216-2.184,8.068,8.068,0,0,1,6.789.691c2.474,1.667,3.352,4.842,3.985,7.756,1.862,8.577,3.36,17.711,8.978,24.453.379.455,1.049.924,1.493.531a1.14,1.14,0,0,0,.268-.83C336.729,382.957,333.011,372.856,328.024,363.805Z" transform="translate(-270.918 -355.1)"/>
              </g>
            </g>
            <g id="Grupo_116530" data-name="Grupo 116530" transform="translate(66.958 27.348)">
              <g id="Grupo_116527" data-name="Grupo 116527" transform="translate(0.078 0)">
                <path id="Trazado_161290" data-name="Trazado 161290" d="M403.9,278.469s8.119.312,12.477,19.116c1.941,8.373,10.737,37.087,6.442,45.481-3.949,7.717-7.809,8.5-12.884,8.056s-11.272-18.6-11.272-18.6v-4.49l-4.378-10.222,6.5-15.34" transform="translate(-394.289 -278.469)" fill="#ff725e"/>
              </g>
              <g id="Grupo_116529" data-name="Grupo 116529">
                <g id="Grupo_116528" data-name="Grupo 116528">
                  <path id="Trazado_161291" data-name="Trazado 161291" d="M400.682,302.473s-.032.092-.1.27l-.322.785-1.263,3.031-4.743,11.282v-.056L398.644,328l.007.016v.018c0,1.4,0,2.924.005,4.49l-.005-.03c.915,2.6,1.983,5.288,3.228,8.027.624,1.369,1.3,2.747,2.053,4.114a28.207,28.207,0,0,0,2.585,3.979,9.813,9.813,0,0,0,1.709,1.695,3.238,3.238,0,0,0,.505.326,2.914,2.914,0,0,0,.544.247,3.386,3.386,0,0,0,.578.132l.619.044a16.437,16.437,0,0,0,2.492,0,12.072,12.072,0,0,0,1.245-.16,9.426,9.426,0,0,0,1.215-.33,9.732,9.732,0,0,0,4.145-2.9,21.454,21.454,0,0,0,2.892-4.37,10.443,10.443,0,0,0,1.067-3.421,24.512,24.512,0,0,0,.244-3.564,56.827,56.827,0,0,0-.506-6.988c-.591-4.563-1.484-8.918-2.409-13.045s-1.928-8.022-2.874-11.665l-1.363-5.273c-.408-1.7-.828-3.321-1.228-4.869a45.363,45.363,0,0,0-3.1-8.033,20.574,20.574,0,0,0-3.761-5.276,10.633,10.633,0,0,0-3.359-2.32c-.218-.086-.416-.148-.584-.209l-.434-.114c-.236-.046-.359-.062-.359-.062s.031,0,.092,0l.271.037.439.1c.169.058.37.117.591.2a10.506,10.506,0,0,1,3.4,2.3,20.5,20.5,0,0,1,3.811,5.28,45.112,45.112,0,0,1,3.137,8.047c.406,1.55.832,3.175,1.243,4.87l1.375,5.269c.954,3.641,1.958,7.537,2.9,11.666s1.83,8.489,2.426,13.062a56.993,56.993,0,0,1,.512,7.016,24.75,24.75,0,0,1-.246,3.6,10.669,10.669,0,0,1-1.09,3.491,21.636,21.636,0,0,1-2.923,4.414,9.946,9.946,0,0,1-4.24,2.957,9.63,9.63,0,0,1-1.245.338,12.272,12.272,0,0,1-1.269.162,16.634,16.634,0,0,1-2.524-.006l-.624-.045a3.587,3.587,0,0,1-.628-.143,3.1,3.1,0,0,1-.579-.263,3.462,3.462,0,0,1-.528-.341,10.013,10.013,0,0,1-1.748-1.735,28.441,28.441,0,0,1-2.6-4.013c-.754-1.374-1.431-2.757-2.054-4.131-1.245-2.749-2.308-5.445-3.221-8.051l-.005-.014v-.016c0-1.566,0-3.089.005-4.49l.007.035-4.362-10.228-.012-.029.012-.028,4.8-11.257,1.3-3.016.34-.778C400.638,302.56,400.682,302.473,400.682,302.473Z" transform="translate(-394.107 -278.469)" fill="#263238"/>
                </g>
              </g>
            </g>
            <g id="Grupo_116532" data-name="Grupo 116532" transform="translate(75.246 38.089)">
              <g id="Grupo_116531" data-name="Grupo 116531">
                <path id="Trazado_161292" data-name="Trazado 161292" d="M414.824,303.5a3.678,3.678,0,0,1-.1.647c-.088.453-.2,1.041-.338,1.748a43.021,43.021,0,0,0-.714,5.815,29.458,29.458,0,0,0,.327,5.839c.12.74.23,1.339.32,1.749a3.658,3.658,0,0,1,.11.645,3.669,3.669,0,0,1-.194-.625c-.116-.406-.251-1-.391-1.742a26.337,26.337,0,0,1-.394-5.876,36.468,36.468,0,0,1,.782-5.836c.158-.736.3-1.33.408-1.736A3.639,3.639,0,0,1,414.824,303.5Z" transform="translate(-413.42 -303.497)" fill="#263238"/>
              </g>
            </g>
            <g id="Grupo_116533" data-name="Grupo 116533" transform="translate(16.668 14.683)">
              <path id="Trazado_161293" data-name="Trazado 161293" d="M278.489,261.681c-1.521-1.013-1.935-3.368-1.239-5.145a7.117,7.117,0,0,1,3.913-3.739,15.934,15.934,0,0,1,8.756-.77,33.785,33.785,0,0,1,16.273,7.344,65.8,65.8,0,0,1,15.245-9.614c1.254-.566,2.661-1.1,3.943-.606a4.137,4.137,0,0,1,2.238,2.692,13.5,13.5,0,0,1,.461,3.695c.057,1.8.021,3.854-1.223,5.055a5.507,5.507,0,0,1-2.987,1.186c-7.63,1.369-15.454,2.737-23.05,1.165-3.732-.772-7.32-2.241-11.063-2.949s-7.46,1.06-11.269,1.688" transform="translate(-276.922 -248.957)" fill="#ff725e"/>
            </g>
            <g id="Grupo_116535" data-name="Grupo 116535" transform="translate(76.155 42.866)">
              <g id="Grupo_116534" data-name="Grupo 116534">
                <path id="Trazado_161294" data-name="Trazado 161294" d="M425.721,314.633c.014.038-.685.285-1.758.8a21.088,21.088,0,0,0-7.237,5.722c-.751.925-1.153,1.548-1.186,1.526a2.28,2.28,0,0,1,.252-.456,13.7,13.7,0,0,1,.81-1.168,18.905,18.905,0,0,1,7.294-5.768,13.651,13.651,0,0,1,1.323-.518A2.326,2.326,0,0,1,425.721,314.633Z" transform="translate(-415.539 -314.63)" fill="#263238"/>
              </g>
            </g>
            <g id="Grupo_116542" data-name="Grupo 116542" transform="translate(39.626 23.966)">
              <g id="Grupo_116537" data-name="Grupo 116537">
                <g id="Grupo_116536" data-name="Grupo 116536">
                  <path id="Trazado_161295" data-name="Trazado 161295" d="M337.211,274.022a1.331,1.331,0,0,1,.154-.235c.109-.148.273-.365.5-.631a9.355,9.355,0,0,1,2.226-1.953,6.094,6.094,0,0,1,.883-.448,1.973,1.973,0,0,1,.518-.159.691.691,0,0,1,.575.169.945.945,0,0,1,.086,1.169,3.183,3.183,0,0,1-.9.846,8.8,8.8,0,0,1-10.188-.018,2.939,2.939,0,0,1-.49-.4.617.617,0,0,1-.151-.318.457.457,0,0,1,.1-.35.852.852,0,0,1,.59-.242,2.309,2.309,0,0,1,.579.048,9.94,9.94,0,0,1,1.962.611,22.087,22.087,0,0,1,2.645,1.329c.3.178.53.322.684.423a1.286,1.286,0,0,1,.227.166,1.375,1.375,0,0,1-.25-.127l-.7-.386a26,26,0,0,0-2.661-1.258,10.071,10.071,0,0,0-1.933-.575,2.141,2.141,0,0,0-.533-.039.679.679,0,0,0-.454.178.308.308,0,0,0,.049.412,2.851,2.851,0,0,0,.455.366,8.676,8.676,0,0,0,9.952.018,3.038,3.038,0,0,0,.853-.779.757.757,0,0,0-.046-.932c-.23-.228-.6-.111-.9.015a6.187,6.187,0,0,0-.867.424,9.883,9.883,0,0,0-2.241,1.875c-.235.256-.409.463-.529.6A1.371,1.371,0,0,1,337.211,274.022Z" transform="translate(-330.418 -270.588)" fill="#263238"/>
                </g>
              </g>
              <g id="Grupo_116539" data-name="Grupo 116539" transform="translate(4.853 3.434)">
                <g id="Grupo_116538" data-name="Grupo 116538">
                  <path id="Trazado_161296" data-name="Trazado 161296" d="M341.806,294.566a3.441,3.441,0,0,1-.051-.633c-.02-.408-.031-1-.027-1.731a52.553,52.553,0,0,1,1.32-11.329c.165-.712.311-1.285.425-1.678a3.448,3.448,0,0,1,.2-.6,3.442,3.442,0,0,1-.111.626c-.092.44-.211,1.008-.354,1.69-.291,1.429-.642,3.413-.9,5.622s-.37,4.22-.416,5.677c-.018.7-.032,1.278-.043,1.727A3.482,3.482,0,0,1,341.806,294.566Z" transform="translate(-341.727 -278.59)" fill="#263238"/>
                </g>
              </g>
              <g id="Grupo_116541" data-name="Grupo 116541" transform="translate(7.688 4.444)">
                <g id="Grupo_116540" data-name="Grupo 116540">
                  <path id="Trazado_161297" data-name="Trazado 161297" d="M351.909,289.044a7.97,7.97,0,0,1-.553-1.175L350.108,285l-1.276-2.857a8,8,0,0,1-.5-1.2,7.033,7.033,0,0,1,.638,1.133c.364.715.844,1.714,1.339,2.835s.908,2.148,1.19,2.9A7.065,7.065,0,0,1,351.909,289.044Z" transform="translate(-348.334 -280.942)" fill="#263238"/>
                </g>
              </g>
            </g>
            <g id="Grupo_116544" data-name="Grupo 116544" transform="translate(18.088 24.66)">
              <g id="Grupo_116543" data-name="Grupo 116543">
                <path id="Trazado_161298" data-name="Trazado 161298" d="M305.385,275.953a1.166,1.166,0,0,1-.248-.088l-.692-.292c-.3-.132-.664-.289-1.1-.45s-.918-.37-1.473-.548-1.153-.4-1.812-.583c-.653-.207-1.365-.375-2.111-.563a37.987,37.987,0,0,0-9.933-.993c-.768.037-1.5.06-2.18.134-.683.05-1.315.133-1.892.212s-1.1.171-1.552.245-.848.154-1.166.224l-.736.149a1.184,1.184,0,0,1-.26.037,1.163,1.163,0,0,1,.25-.081l.728-.191c.316-.084.7-.178,1.161-.262s.973-.2,1.553-.279,1.212-.183,1.9-.241c.684-.082,1.418-.113,2.191-.156a36.305,36.305,0,0,1,9.988,1c.748.2,1.463.37,2.116.587.661.193,1.263.41,1.812.612s1.037.406,1.467.581.794.342,1.087.487l.676.331A1.171,1.171,0,0,1,305.385,275.953Z" transform="translate(-280.231 -272.206)" fill="#263238"/>
              </g>
            </g>
            <g id="Grupo_116546" data-name="Grupo 116546" transform="translate(47.705 23.741)">
              <g id="Grupo_116545" data-name="Grupo 116545">
                <path id="Trazado_161299" data-name="Trazado 161299" d="M367.952,270.066a4.932,4.932,0,0,1-.706.271c-.458.162-1.126.381-1.957.637-1.66.513-3.976,1.155-6.566,1.731s-4.961.973-6.683,1.21c-.861.119-1.559.2-2.043.251a4.863,4.863,0,0,1-.754.053,4.876,4.876,0,0,1,.742-.139l2.03-.321c1.713-.277,4.073-.7,6.658-1.272s4.9-1.19,6.57-1.665l1.975-.568A4.9,4.9,0,0,1,367.952,270.066Z" transform="translate(-349.244 -270.064)" fill="#263238"/>
              </g>
            </g>
            <g id="Grupo_116559" data-name="Grupo 116559" transform="translate(44.545 35.905)">
              <g id="Grupo_116547" data-name="Grupo 116547" transform="translate(4.122 5.199)">
                <path id="Trazado_161300" data-name="Trazado 161300" d="M382.13,327.841s-6.443-8.546-8.445-9.5-15.845-7.132-16.977-7.654-2.745.3-2.417.933,1.285,2.114,1.285,2.114l-2.276-1.045-1.816,5.652s6.674,8.474,8.605,10.824,9.764,4.167,9.764,4.167l1.532,3.072C379.07,336.093,382.13,327.841,382.13,327.841Z" transform="translate(-351.485 -310.525)" fill="#ffbf9d"/>
              </g>
              <g id="Grupo_116558" data-name="Grupo 116558">
                <g id="Grupo_116551" data-name="Grupo 116551">
                  <g id="Grupo_116548" data-name="Grupo 116548" transform="translate(0.001 0.086)">
                    <path id="Trazado_161301" data-name="Trazado 161301" d="M341.882,317.629s1.884-7.688,2.755-9.168,4.353-5.572,4.788-7.052.324-2.612.945-2.786,2.189,1.306,2.189,2.873-2.189,6.268-2.189,6.268,7.5-2.786,9.763-3.57,8.706-1.045,8.706-1.045a1.926,1.926,0,0,1-.348,2.612l3.482-.349s.348,1.916-.783,2.438l1.915-.522s1.306,2.089-1.393,3.308l-.784.348a1.969,1.969,0,0,1-.261,2.525c-1.219,1.045-6.355,3.483-7.226,4.44s-6.094,5.92-8.532,6.7a61.386,61.386,0,0,0-6.075,2.535Z" transform="translate(-341.882 -298.609)" fill="#ffbf9d"/>
                  </g>
                  <g id="Grupo_116550" data-name="Grupo 116550">
                    <g id="Grupo_116549" data-name="Grupo 116549">
                      <path id="Trazado_161302" data-name="Trazado 161302" d="M341.881,317.515s.047.054.129.163l.363.483,1.384,1.873,5.133,7-.087-.022c1.622-.769,3.417-1.592,5.424-2.326a8.7,8.7,0,0,0,1.495-.6,14.15,14.15,0,0,0,1.417-.887c.928-.657,1.844-1.4,2.763-2.184s1.841-1.626,2.754-2.518c.228-.223.457-.449.674-.683a4.509,4.509,0,0,1,.779-.623c.55-.366,1.124-.7,1.706-1.033,1.164-.665,2.373-1.309,3.567-2.021.3-.179.594-.364.879-.562a2.292,2.292,0,0,0,.714-.707,1.942,1.942,0,0,0-.137-1.933l-.063-.106.11-.052a5,5,0,0,0,2.008-1.24,1.844,1.844,0,0,0,.415-1.094,2.308,2.308,0,0,0-.3-1.165l.122.048-1.915.523-1.032.282.956-.489a1.234,1.234,0,0,0,.451-.386,1.843,1.843,0,0,0,.243-.587,3.7,3.7,0,0,0,.027-1.344l.121.091-3.482.348-.349.035.271-.235.013-.012a1.584,1.584,0,0,0,.659-1.144,2.278,2.278,0,0,0-.35-1.305l.1.05c-1.7.079-3.383.2-5.03.378-.823.091-1.638.2-2.434.355a10.226,10.226,0,0,0-1.169.291l-1.135.412-8.671,3.163-.23.084.1-.222c.488-1.061.938-2.118,1.339-3.165.2-.523.384-1.047.544-1.569a5.371,5.371,0,0,0,.3-1.565,2.987,2.987,0,0,0-.468-1.453,3.409,3.409,0,0,0-1.026-1.089c-.2-.122-.447-.238-.63-.148a.781.781,0,0,0-.357.543c-.126.466-.185.959-.292,1.431-.049.237-.11.471-.176.7-.038.115-.085.229-.127.342l-.159.319c-.227.413-.472.805-.729,1.178-.508.75-1.03,1.449-1.533,2.12l-1.448,1.93a7.8,7.8,0,0,0-1.132,1.864c-.5,1.3-.844,2.506-1.153,3.55s-.546,1.945-.743,2.675l-.446,1.67-.116.429a1.145,1.145,0,0,1-.044.144.98.98,0,0,1,.028-.148l.1-.433.415-1.678c.187-.732.421-1.633.715-2.684s.631-2.257,1.13-3.57a7.912,7.912,0,0,1,1.136-1.9l1.44-1.938c.5-.672,1.017-1.373,1.519-2.12a6.139,6.139,0,0,0,1.157-2.488c.1-.468.159-.951.29-1.444a.943.943,0,0,1,.453-.657.6.6,0,0,1,.43-.014,1.607,1.607,0,0,1,.366.172,3.579,3.579,0,0,1,1.088,1.145,3.165,3.165,0,0,1,.5,1.543,5.493,5.493,0,0,1-.3,1.626c-.161.529-.344,1.057-.545,1.584q-.6,1.581-1.338,3.181l-.128-.139,8.67-3.177,1.137-.413a10.4,10.4,0,0,1,1.2-.3c.807-.157,1.626-.268,2.452-.36,1.654-.181,3.337-.3,5.045-.381l.066,0,.032.053a2.492,2.492,0,0,1,.387,1.446,1.813,1.813,0,0,1-.747,1.3l-.015.012-.078-.2,3.482-.348.106-.011.015.1a3.9,3.9,0,0,1-.03,1.434,2.056,2.056,0,0,1-.276.662,1.449,1.449,0,0,1-.541.462l-.076-.208,1.915-.522.083-.022.039.07a2.513,2.513,0,0,1,.329,1.289,2.062,2.062,0,0,1-.463,1.224,3.048,3.048,0,0,1-.46.454,4.244,4.244,0,0,1-.534.337c-.369.2-.738.344-1.1.51l.047-.157a2.641,2.641,0,0,1,.361,1.062,1.784,1.784,0,0,1-.221,1.1,2.494,2.494,0,0,1-.776.775c-.293.2-.592.39-.893.569-1.2.716-2.412,1.357-3.575,2.018-.58.331-1.154.662-1.7,1.021a4.32,4.32,0,0,0-.745.591c-.224.24-.453.465-.683.689-.919.893-1.847,1.729-2.769,2.52s-1.845,1.528-2.783,2.187a14.3,14.3,0,0,1-1.438.895,8.863,8.863,0,0,1-1.519.608c-2,.722-3.8,1.538-5.419,2.3l-.053.025-.034-.047-5.092-7.059-1.35-1.887-.344-.488C341.915,317.572,341.881,317.515,341.881,317.515Z" transform="translate(-341.881 -298.409)" fill="#ff9a6c"/>
                    </g>
                  </g>
                </g>
                <g id="Grupo_116553" data-name="Grupo 116553" transform="translate(14.432 7.222)">
                  <g id="Grupo_116552" data-name="Grupo 116552">
                    <path id="Trazado_161303" data-name="Trazado 161303" d="M387.688,315.254a2.212,2.212,0,0,1-.5.071c-.322.03-.788.079-1.361.154a32.34,32.34,0,0,0-4.423.881c-.848.237-1.645.5-2.361.765s-1.347.538-1.864.8c-1.041.5-1.647.885-1.668.851a2.221,2.221,0,0,1,.407-.3c.134-.093.3-.2.5-.312s.427-.25.687-.38a19.415,19.415,0,0,1,1.86-.846c.718-.277,1.52-.549,2.376-.788a26.364,26.364,0,0,1,4.464-.823c.578-.055,1.048-.08,1.373-.083A2.188,2.188,0,0,1,387.688,315.254Z" transform="translate(-375.51 -315.237)" fill="#ff9a6c"/>
                  </g>
                </g>
                <g id="Grupo_116555" data-name="Grupo 116555" transform="translate(18.134 9.437)">
                  <g id="Grupo_116554" data-name="Grupo 116554">
                    <path id="Trazado_161304" data-name="Trazado 161304" d="M384.136,324.184a1.812,1.812,0,0,1,.352-.29,12.414,12.414,0,0,1,1.037-.685,18.387,18.387,0,0,1,3.74-1.676,26.7,26.7,0,0,1,3.988-.935c.518-.082.938-.137,1.23-.167a1.783,1.783,0,0,1,.456-.024,1.828,1.828,0,0,1-.443.11l-1.215.236a34.891,34.891,0,0,0-3.947.992,21.781,21.781,0,0,0-3.731,1.6C384.693,323.849,384.159,324.216,384.136,324.184Z" transform="translate(-384.136 -320.4)" fill="#ff9a6c"/>
                  </g>
                </g>
                <g id="Grupo_116557" data-name="Grupo 116557" transform="translate(19.283 12.151)">
                  <g id="Grupo_116556" data-name="Grupo 116556">
                    <path id="Trazado_161305" data-name="Trazado 161305" d="M396.2,326.73c.006.036-.57.136-1.481.369a20.654,20.654,0,0,0-6.649,3.019c-.775.533-1.229.9-1.252.873-.01-.012.094-.115.29-.294s.491-.423.87-.708a17.409,17.409,0,0,1,6.7-3.045c.464-.1.843-.161,1.106-.189A1.455,1.455,0,0,1,396.2,326.73Z" transform="translate(-386.815 -326.723)" fill="#ff9a6c"/>
                  </g>
                </g>
              </g>
            </g>
            <g id="Grupo_116563" data-name="Grupo 116563" transform="translate(0 27.126)">
              <g id="Grupo_116560" data-name="Grupo 116560" transform="translate(0.101)">
                <path id="Trazado_161306" data-name="Trazado 161306" d="M253.1,277.951c-.455.151-1.687.446-5.609,3.941-3.293,2.935-5.4,8.472-6.712,13.5a64.706,64.706,0,0,0-2.022,14.924c-.147,6.838-.418,19.537-.432,21.082-.028,3.148-.316,15.058,13.983,16.613,10.1,1.1,27.018-14.625,27.776-17.2s1.57-6.412,1.57-6.412l9.187-8.249-8.489-11.672L258.4,318.949l2.955-18.715" transform="translate(-238.318 -277.951)" fill="#ff725e"/>
              </g>
              <g id="Grupo_116562" data-name="Grupo 116562">
                <g id="Grupo_116561" data-name="Grupo 116561">
                  <path id="Trazado_161307" data-name="Trazado 161307" d="M261.223,300.234s-.011.109-.042.321l-.14.945c-.128.837-.317,2.069-.562,3.668l-2.147,13.79-.1-.067,23.933-14.5.075-.045.051.07,8.495,11.667.055.076-.07.062-9.184,8.253.034-.058c-.412,1.9-.854,3.831-1.386,5.772-.071.243-.127.482-.218.729a3.3,3.3,0,0,1-.38.684,13.413,13.413,0,0,1-.949,1.2c-.671.772-1.39,1.505-2.129,2.226a68.192,68.192,0,0,1-9.87,7.883,37.755,37.755,0,0,1-9,4.488,14.365,14.365,0,0,1-4.879.752,20.7,20.7,0,0,1-4.78-.883,14.911,14.911,0,0,1-4.289-2.094,12.328,12.328,0,0,1-3.224-3.393,16.926,16.926,0,0,1-2.419-8.653c-.047-1.478.023-2.927.043-4.361s.06-2.848.089-4.241q.088-4.182.172-8.11c.064-2.617.091-5.142.18-7.573a67.274,67.274,0,0,1,.661-6.96,57.894,57.894,0,0,1,2.947-11.638,22.9,22.9,0,0,1,4.531-7.811c.891-.878,1.753-1.569,2.494-2.178a23.529,23.529,0,0,1,1.955-1.436,8.156,8.156,0,0,1,1.31-.713,3.554,3.554,0,0,1,.482-.162s-.04.017-.12.045-.2.071-.353.138a8.585,8.585,0,0,0-1.294.73c-.546.36-1.2.845-1.938,1.449s-1.6,1.313-2.473,2.187a22.9,22.9,0,0,0-4.476,7.8,58.02,58.02,0,0,0-2.908,11.617,67.316,67.316,0,0,0-.645,6.944c-.084,2.424-.107,4.954-.167,7.569s-.106,5.322-.16,8.109q-.042,2.091-.085,4.241c-.018,1.432-.087,2.889-.039,4.353a16.728,16.728,0,0,0,2.392,8.545,12.089,12.089,0,0,0,3.171,3.333,14.691,14.691,0,0,0,4.228,2.061,20.507,20.507,0,0,0,4.724.871,14.145,14.145,0,0,0,4.8-.743,37.587,37.587,0,0,0,8.947-4.463,68.1,68.1,0,0,0,9.837-7.854c.736-.718,1.452-1.448,2.117-2.212a13.229,13.229,0,0,0,.934-1.183,3.165,3.165,0,0,0,.355-.633c.083-.225.144-.477.213-.715.531-1.932.974-3.86,1.386-5.758l.008-.035.026-.023,9.191-8.246-.015.138-8.482-11.677.126.025L258.3,319l-.121.073.022-.139c.945-5.9,1.694-10.575,2.207-13.78.26-1.6.46-2.827.6-3.663l.158-.942C261.2,300.341,261.223,300.234,261.223,300.234Z" transform="translate(-238.082 -277.951)" fill="#263238"/>
                </g>
              </g>
            </g>
            <g id="Grupo_116565" data-name="Grupo 116565" transform="translate(7.006 35.99)">
              <g id="Grupo_116564" data-name="Grupo 116564">
                <path id="Trazado_161308" data-name="Trazado 161308" d="M254.408,298.607a.817.817,0,0,1,.206.068l.577.236c.251.1.554.233.9.409s.743.354,1.16.6.886.5,1.362.809c.488.295.98.654,1.5,1.024a26.895,26.895,0,0,1,5.853,5.9c.366.526.722,1.021,1.013,1.511.31.478.568.942.8,1.368s.422.82.592,1.164.3.648.4.9l.232.578a.828.828,0,0,1,.067.207.806.806,0,0,1-.108-.19l-.27-.56c-.112-.245-.252-.543-.435-.88s-.367-.731-.618-1.143-.5-.875-.817-1.345c-.3-.483-.655-.969-1.023-1.488a28.192,28.192,0,0,0-5.81-5.852c-.516-.372-1-.735-1.481-1.034-.468-.318-.923-.585-1.339-.827s-.8-.444-1.139-.626-.633-.328-.877-.442l-.558-.274A.8.8,0,0,1,254.408,298.607Z" transform="translate(-254.408 -298.606)" fill="#263238"/>
              </g>
            </g>
            <g id="Grupo_116567" data-name="Grupo 116567" transform="translate(32.663 60.276)">
              <g id="Grupo_116566" data-name="Grupo 116566">
                <path id="Trazado_161309" data-name="Trazado 161309" d="M314.2,355.2a4.645,4.645,0,0,1,.208.639,17.656,17.656,0,0,0,.623,1.712,21.961,21.961,0,0,0,3.119,5.115,49.243,49.243,0,0,0,4.1,4.408l1.311,1.277a3.948,3.948,0,0,1,.463.488,3.806,3.806,0,0,1-.522-.424c-.326-.284-.793-.7-1.36-1.227a41.075,41.075,0,0,1-4.168-4.383,20.343,20.343,0,0,1-3.09-5.2,13.58,13.58,0,0,1-.561-1.749c-.055-.209-.082-.376-.1-.488A.5.5,0,0,1,314.2,355.2Z" transform="translate(-314.194 -355.198)" fill="#263238"/>
              </g>
            </g>
            <g id="Grupo_116569" data-name="Grupo 116569" transform="translate(77.641 56.158)">
              <g id="Grupo_116568" data-name="Grupo 116568">
                <path id="Trazado_161310" data-name="Trazado 161310" d="M436.741,370.451c-.026,0-.031-.444-.134-1.236a10.513,10.513,0,0,0-.94-3.225,18.047,18.047,0,0,0-2.83-4.112l-1.96-2.232c-.336-.391-.688-.782-1.015-1.209s-.633-.873-.936-1.33c-1.193-1.841-2.193-3.67-3.175-5.288A29.647,29.647,0,0,0,422.9,347.7a5.782,5.782,0,0,0-2.673-1.951A3.192,3.192,0,0,0,419,345.71a1.674,1.674,0,0,1,.314-.079,2.521,2.521,0,0,1,.928.035,5.721,5.721,0,0,1,2.771,1.931,28.482,28.482,0,0,1,2.913,4.116c.994,1.615,2,3.443,3.186,5.272.3.454.6.9.926,1.317s.669.809,1,1.2c.677.776,1.339,1.519,1.952,2.243a17.727,17.727,0,0,1,2.816,4.179,10.08,10.08,0,0,1,.882,3.281,8.019,8.019,0,0,1,.053.923A1.76,1.76,0,0,1,436.741,370.451Z" transform="translate(-419.002 -345.603)" fill="#263238"/>
              </g>
            </g>
            <g id="Grupo_116571" data-name="Grupo 116571" transform="translate(67.886 57.433)">
              <g id="Grupo_116570" data-name="Grupo 116570">
                <path id="Trazado_161311" data-name="Trazado 161311" d="M407.768,348.574a2.963,2.963,0,0,1-.127.621,11.123,11.123,0,0,1-.576,1.629,12.472,12.472,0,0,1-8.458,7.108,11.161,11.161,0,0,1-1.7.287,2.922,2.922,0,0,1-.633.018,4.128,4.128,0,0,1,.623-.1,14.239,14.239,0,0,0,1.674-.354,12.909,12.909,0,0,0,8.354-7.02,14.25,14.25,0,0,0,.636-1.588A4.07,4.07,0,0,1,407.768,348.574Z" transform="translate(-396.271 -348.574)" fill="#263238"/>
              </g>
            </g>
            <g id="Grupo_116573" data-name="Grupo 116573" transform="translate(71.986 68.123)">
              <g id="Grupo_116572" data-name="Grupo 116572">
                <path id="Trazado_161312" data-name="Trazado 161312" d="M420.421,373.484a.631.631,0,0,1-.024.194c-.027.124-.053.312-.12.545a10.652,10.652,0,0,1-.706,1.929,11.6,11.6,0,0,1-10.99,6.668,10.741,10.741,0,0,1-2.037-.265c-.237-.048-.416-.112-.539-.145a.618.618,0,0,1-.183-.068,6.543,6.543,0,0,1,.739.128,12.5,12.5,0,0,0,2.023.192,11.782,11.782,0,0,0,10.844-6.58,12.421,12.421,0,0,0,.764-1.884A6.45,6.45,0,0,1,420.421,373.484Z" transform="translate(-405.823 -373.484)" fill="#263238"/>
              </g>
            </g>
            <g id="Grupo_116575" data-name="Grupo 116575" transform="translate(21.332 106.061)">
              <g id="Grupo_116574" data-name="Grupo 116574">
                <path id="Trazado_161313" data-name="Trazado 161313" d="M340.995,462c0,.062-11.911.112-26.6.112s-26.6-.05-26.6-.112,11.909-.112,26.6-.112S340.995,461.937,340.995,462Z" transform="translate(-287.789 -461.887)" fill="#263238"/>
              </g>
            </g>
            <g id="Grupo_116576" data-name="Grupo 116576" transform="translate(9.079)">
              <path id="Trazado_161314" data-name="Trazado 161314" d="M259.237,243.386a6.907,6.907,0,0,0,12.283-.706,7.426,7.426,0,0,0,11.056-8.486c2.343-.054,3.87-2.526,4.405-4.807a15.572,15.572,0,0,0-4.455-14.644" transform="translate(-259.237 -214.743)" fill="#263238"/>
            </g>
            <g id="Grupo_116578" data-name="Grupo 116578" transform="translate(13.52 68.14)">
              <g id="Grupo_116577" data-name="Grupo 116577">
                <path id="Trazado_161315" data-name="Trazado 161315" d="M269.591,380.224a1.29,1.29,0,0,1,.1-.374,7.44,7.44,0,0,1,.4-.972,10.585,10.585,0,0,1,4.812-4.848,7.5,7.5,0,0,1,.969-.405,1.284,1.284,0,0,1,.372-.1c.014.037-.5.226-1.269.644a11.749,11.749,0,0,0-4.744,4.779C269.813,379.723,269.628,380.238,269.591,380.224Z" transform="translate(-269.587 -373.524)" fill="#263238"/>
              </g>
            </g>
          </g>
        </g>
      </g>
    </g>
  </g>
</svg>
