<svg id="Grupo_94411" data-name="Grupo 94411" xmlns="http://www.w3.org/2000/svg" xmlns:xlink="http://www.w3.org/1999/xlink" width="65" height="54.164" viewBox="0 0 65 54.164">
  <defs>
    <clipPath id="clip-path">
      <rect id="Rectángulo_40806" data-name="Rectángulo 40806" width="65" height="54.164" fill="none"/>
    </clipPath>
  </defs>
  <g id="Grupo_94410" data-name="Grupo 94410" clip-path="url(#clip-path)">
    <path id="Trazado_136796" data-name="Trazado 136796" d="M47.413,12.927v3.75a1.041,1.041,0,0,1-1.045,1.045H27.715a1.041,1.041,0,0,1-1.045-1.045v-3.75A6.112,6.112,0,0,1,32.777,6.82h8.529a6.112,6.112,0,0,1,6.107,6.107m-2.091,2.7v-2.7a4,4,0,0,0-4.016-4H32.777a4,4,0,0,0-4,4v2.7H30.6V14.2a1.045,1.045,0,1,1,2.091,0v1.427h8.7V14.2a1.054,1.054,0,0,1,2.107,0v1.427Z" transform="translate(17.587 4.497)"/>
    <path id="Trazado_136797" data-name="Trazado 136797" d="M44.485,12.089v2.7H42.659V13.367a1.054,1.054,0,0,0-2.107,0v1.427h-8.7V13.367a1.045,1.045,0,1,0-2.091,0v1.427H27.94v-2.7a4,4,0,0,1,4-4h8.529a4,4,0,0,1,4.016,4" transform="translate(18.425 5.335)" fill="#ff7863"/>
    <path id="Trazado_136798" data-name="Trazado 136798" d="M35.03,0a5.327,5.327,0,1,1-5.31,5.327A5.333,5.333,0,0,1,35.03,0m3.236,5.327A3.228,3.228,0,1,0,35.03,8.546a3.237,3.237,0,0,0,3.236-3.219" transform="translate(19.598)"/>
    <path id="Trazado_136799" data-name="Trazado 136799" d="M34.2,1.27A3.219,3.219,0,1,1,30.98,4.489,3.237,3.237,0,0,1,34.2,1.27" transform="translate(20.429 0.837)" fill="#ffeb92"/>
    <path id="Trazado_136800" data-name="Trazado 136800" d="M36.077,15.182v1.792a1.05,1.05,0,0,1-.5.9l-4.265,2.605a1.135,1.135,0,0,1-.548.149,1.047,1.047,0,0,1-.548-1.942l3.767-2.307V15.182a1.046,1.046,0,1,1,2.091,0" transform="translate(19.597 9.311)"/>
    <path id="Trazado_136801" data-name="Trazado 136801" d="M43.1,22.28a.894.894,0,0,1,.083.465.748.748,0,0,1-.05.183,1.055,1.055,0,0,1-.1.3c0,.017-.033.017-.033.033a.061.061,0,0,0-.017.05L27.133,43.571c-.017,0-.033.017-.05.033a1.266,1.266,0,0,1-.282.216c-.033.017-.05.033-.083.05a.914.914,0,0,1-.83,0l-.1-.05a1.159,1.159,0,0,1-.266-.216c-.017-.017-.033-.033-.05-.033L9.626,23.309a.061.061,0,0,1-.017-.05c-.017-.017-.033-.017-.05-.033a1.007,1.007,0,0,1-.083-.3c-.017-.066-.05-.116-.066-.183a1.44,1.44,0,0,1,.083-.465v-.05A.051.051,0,0,1,9.51,22.2l3.053-6.156c0-.017.033-.033.05-.066.033-.05.066-.116.1-.166a1.007,1.007,0,0,1,.166-.116.3.3,0,0,1,.116-.083,1.252,1.252,0,0,1,.481-.149H39.13a1.252,1.252,0,0,1,.481.149.44.44,0,0,1,.1.083.6.6,0,0,1,.166.116.879.879,0,0,1,.1.166c.017.033.05.05.066.066L43.08,22.2H43.1Zm-2.638-.664-1.676-3.4-3.75,3.4Zm-11.583,16.3,11.118-14.2H33.107ZM32.36,21.2l4.032-3.634h-7.6ZM26.3,39.24l4.613-15.532H21.69Zm3.518-17.623-3.518-3.6-3.535,3.6ZM20.23,21.2l3.584-3.634h-7.6Zm3.485,16.71L19.5,23.707H12.613Zm-11.566-16.3h5.41l-3.734-3.4Z" transform="translate(6.205 10.195)"/>
    <path id="Trazado_136802" data-name="Trazado 136802" d="M28.6,17.12l1.676,3.4H24.85Z" transform="translate(16.387 11.289)" fill="#97d0dc"/>
    <path id="Trazado_136803" data-name="Trazado 136803" d="M32.258,20.43,21.14,34.635l4.232-14.2Z" transform="translate(13.94 13.472)" fill="#43aac2"/>
    <path id="Trazado_136804" data-name="Trazado 136804" d="M28.69,16.73l-4.032,3.634L21.09,16.73Z" transform="translate(13.907 11.032)" fill="#43aac2"/>
    <path id="Trazado_136805" data-name="Trazado 136805" d="M32.916,9.757a2.96,2.96,0,0,1-1.1,3.352l-1.809,1.328a.9.9,0,0,0-.332,1l.7,2.141a2.96,2.96,0,0,1-1.1,3.352,2.954,2.954,0,0,1-3.518,0L23.955,19.6a.9.9,0,0,0-1.062,0l-1.825,1.328a2.988,2.988,0,0,1-4.6-3.352l.7-2.141a.9.9,0,0,0-.332-1l-1.825-1.328A2.993,2.993,0,0,1,16.77,7.7h2.257a.886.886,0,0,0,.846-.631l.7-2.124a2.989,2.989,0,0,1,5.692,0l.7,2.124a.906.906,0,0,0,.863.631h2.24a2.963,2.963,0,0,1,2.854,2.058m-2.323,1.659a.908.908,0,0,0,.332-1,.88.88,0,0,0-.863-.631h-2.24a2.978,2.978,0,0,1-2.854-2.074l-.7-2.124a.869.869,0,0,0-.846-.631.9.9,0,0,0-.863.631l-.68,2.141A3.015,3.015,0,0,1,19.026,9.79H16.77a.882.882,0,0,0-.846.614.873.873,0,0,0,.332,1.012l1.809,1.328a2.968,2.968,0,0,1,1.1,3.335l-.7,2.141a.9.9,0,0,0,1.377,1.012L21.665,17.9a2.979,2.979,0,0,1,1.759-.581,3.017,3.017,0,0,1,1.759.581l1.809,1.328a.906.906,0,0,0,1.394-1.012l-.7-2.141a2.985,2.985,0,0,1,1.079-3.335Z" transform="translate(9.084 1.893)"/>
    <path id="Trazado_136806" data-name="Trazado 136806" d="M30.09,9.59a.908.908,0,0,1-.332,1l-1.825,1.328a2.985,2.985,0,0,0-1.079,3.335l.7,2.141A.906.906,0,0,1,26.158,18.4l-1.809-1.328a3.017,3.017,0,0,0-1.759-.581,2.979,2.979,0,0,0-1.759.581L19.005,18.4a.9.9,0,0,1-1.377-1.012l.7-2.141a2.968,2.968,0,0,0-1.1-3.335l-1.809-1.328a.873.873,0,0,1-.332-1.012.882.882,0,0,1,.846-.614h2.257A3.015,3.015,0,0,0,21.047,6.9l.68-2.141a.9.9,0,0,1,.863-.631.869.869,0,0,1,.846.631l.7,2.124a2.978,2.978,0,0,0,2.854,2.074h2.24a.88.88,0,0,1,.863.631" transform="translate(9.919 2.723)" fill="#ffeb92"/>
    <path id="Trazado_136807" data-name="Trazado 136807" d="M26.036,20.43,21.423,35.962,16.81,20.43Z" transform="translate(11.085 13.472)" fill="#97d0dc"/>
    <path id="Trazado_136808" data-name="Trazado 136808" d="M20.995,17l3.518,3.6H17.46Z" transform="translate(11.514 11.21)" fill="#97d0dc"/>
    <path id="Trazado_136809" data-name="Trazado 136809" d="M21.11,16.73l-3.584,3.634L13.51,16.73Z" transform="translate(8.909 11.032)" fill="#43aac2"/>
    <path id="Trazado_136810" data-name="Trazado 136810" d="M18.227,20.43l4.215,14.2-11.1-14.2Z" transform="translate(7.478 13.472)" fill="#43aac2"/>
    <path id="Trazado_136811" data-name="Trazado 136811" d="M16.47,20.522H11.06l1.676-3.4Z" transform="translate(7.293 11.289)" fill="#97d0dc"/>
    <path id="Trazado_136812" data-name="Trazado 136812" d="M20.743,12.927v3.75A1.041,1.041,0,0,1,19.7,17.722H1.062A1.055,1.055,0,0,1,0,16.677v-3.75A6.112,6.112,0,0,1,6.107,6.82h8.546a6.108,6.108,0,0,1,6.09,6.107m-2.091,2.7v-2.7a4,4,0,0,0-4-4H6.107a4,4,0,0,0-4,4v2.7H3.933V14.2a1.045,1.045,0,0,1,2.091,0v1.427h8.7V14.2a1.055,1.055,0,0,1,1.062-1.045A1.041,1.041,0,0,1,16.827,14.2v1.427Z" transform="translate(0 4.497)"/>
    <path id="Trazado_136813" data-name="Trazado 136813" d="M17.815,12.089v2.7H15.989V13.367a1.041,1.041,0,0,0-1.045-1.045,1.055,1.055,0,0,0-1.062,1.045v1.427h-8.7V13.367a1.045,1.045,0,0,0-2.091,0v1.427H1.27v-2.7a4,4,0,0,1,4-4h8.546a4,4,0,0,1,4,4" transform="translate(0.837 5.335)" fill="#ff9b90"/>
    <path id="Trazado_136814" data-name="Trazado 136814" d="M11.494,18.683a1.049,1.049,0,0,1,.348,1.444,1.071,1.071,0,0,1-.9.5,1.088,1.088,0,0,1-.548-.149L6.118,17.87a1.089,1.089,0,0,1-.5-.9V15.182A1.055,1.055,0,0,1,6.665,14.12a1.069,1.069,0,0,1,1.062,1.062v1.195Z" transform="translate(3.706 9.311)"/>
    <path id="Trazado_136815" data-name="Trazado 136815" d="M8.36,0A5.327,5.327,0,1,1,3.05,5.327,5.333,5.333,0,0,1,8.36,0M11.6,5.327A3.228,3.228,0,1,0,8.36,8.546,3.226,3.226,0,0,0,11.6,5.327" transform="translate(2.011)"/>
    <path id="Trazado_136816" data-name="Trazado 136816" d="M7.529,1.27A3.219,3.219,0,1,1,4.31,4.489,3.226,3.226,0,0,1,7.529,1.27" transform="translate(2.842 0.837)" fill="#ffeb92"/>
  </g>
</svg>
