<svg id="Grupo_94428" data-name="Grupo 94428" xmlns="http://www.w3.org/2000/svg" xmlns:xlink="http://www.w3.org/1999/xlink" width="100" height="129.333" viewBox="0 0 100 129.333">
  <defs>
    <clipPath id="clip-path">
      <rect id="Rect치ngulo_40830" data-name="Rect치ngulo 40830" width="100" height="129.333" fill="none"/>
    </clipPath>
  </defs>
  <g id="Grupo_94427" data-name="Grupo 94427" transform="translate(0 0)" clip-path="url(#clip-path)">
    <path id="Trazado_136920" data-name="Trazado 136920" d="M31.234,7.624H75.9L73.788,90.617,11.195,107.187A15.62,15.62,0,0,1,.577,90.617c1-13.181,1.24-82.993,1.24-82.993Z" transform="translate(1.492 20.136)" fill="#f8e995"/>
    <path id="Trazado_136921" data-name="Trazado 136921" d="M41.572,24.97a2.209,2.209,0,1,1,0,4.406H21.743V27.155A2.269,2.269,0,0,0,19.41,24.97Z" transform="translate(56.057 65.949)"/>
    <path id="Trazado_136922" data-name="Trazado 136922" d="M34.47,10.428a2.111,2.111,0,0,1-.389,3.095l-8.709,6.445a2.341,2.341,0,0,1-1.439.473,2.46,2.46,0,0,1-1.866-.837,2.111,2.111,0,0,1,.389-3.095l8.709-6.445a2.421,2.421,0,0,1,3.3.364" transform="translate(62.264 25.292)"/>
    <path id="Trazado_136923" data-name="Trazado 136923" d="M86.906,30.855v9.139c0,7.5-6.532,13.618-14.541,13.618H3.43a13.58,13.58,0,0,0,10.148-4.406H72.365c5.4,0,9.837-4.114,9.837-9.212V33.076H65.561a2.275,2.275,0,0,0,2.333-2.221V28.67H84.534a2.28,2.28,0,0,1,2.372,2.185" transform="translate(9.906 75.722)"/>
    <path id="Trazado_136924" data-name="Trazado 136924" d="M74.664,29.88V36.8c0,5.1-4.432,9.212-9.837,9.212H6.04a9.56,9.56,0,0,0,1.322-1.748,3.354,3.354,0,0,0,.544-.947,4.9,4.9,0,0,0,.467-1.02,3.717,3.717,0,0,0,.35-.91,13.185,13.185,0,0,0,.428-2.148c.039-.4.078-.837.078-1.274V29.88H74.664Z" transform="translate(17.444 78.917)" fill="#edc16c"/>
    <path id="Trazado_136925" data-name="Trazado 136925" d="M54.968,18.572v24.25A2.285,2.285,0,0,1,52.6,45.043H46.375v30H41.632V42.822a2.377,2.377,0,0,0,4.743,0V40.637h3.888V18.572c0-4.515-3.927-8.156-8.748-8.156H22.853c-4.821,0-8.748,3.641-8.748,8.156V40.637h3.888v2.185a2.285,2.285,0,0,0,2.372,2.221,2.31,2.31,0,0,0,2.372-2.221V75.046H17.993v-30H11.772A2.285,2.285,0,0,1,9.4,42.822V18.572C9.4,11.654,15.426,6.01,22.853,6.01H41.515c7.426,0,13.453,5.644,13.453,12.562" transform="translate(27.147 15.873)"/>
    <path id="Trazado_136926" data-name="Trazado 136926" d="M69.655,28.67v2.185a2.275,2.275,0,0,1-2.333,2.221H18.528v8.083c0,.437-.039.874-.078,1.274a13.186,13.186,0,0,1-.428,2.148c-.117.328-.233.619-.35.91a4.9,4.9,0,0,1-.467,1.02c-.156.328-.35.619-.544.947a9.56,9.56,0,0,1-1.322,1.748A13.58,13.58,0,0,1,5.192,53.612a2.017,2.017,0,0,1-.467-.036A2.262,2.262,0,0,1,2.82,51.427a2.31,2.31,0,0,1,2.372-2.221c4.743,0,8.631-3.6,8.631-8.047v-10.3a2.269,2.269,0,0,1,2.333-2.185h53.5Z" transform="translate(8.144 75.722)"/>
    <rect id="Rect치ngulo_40829" data-name="Rect치ngulo 40829" width="4.705" height="9.066" transform="translate(73.095 95.325)"/>
    <path id="Trazado_136927" data-name="Trazado 136927" d="M23.5,27.155v2.221H18.8v-.983a1.932,1.932,0,0,0,.428-1.238V25.917a2.374,2.374,0,0,1,1.944-.947A2.269,2.269,0,0,1,23.5,27.155" transform="translate(54.295 65.949)"/>
    <path id="Trazado_136928" data-name="Trazado 136928" d="M46.769,15.376V37.442H42.881V18a2.38,2.38,0,0,0-4.743,0V71.85H31.061V45.088a2.377,2.377,0,0,0-4.743,0V71.85H19.241V18a2.3,2.3,0,0,0-2.372-2.185A2.28,2.28,0,0,0,14.5,18V37.442H10.61V15.376c0-4.515,3.927-8.156,8.748-8.156H38.021c4.821,0,8.748,3.641,8.748,8.156" transform="translate(30.642 19.069)" fill="#6da7bf"/>
    <path id="Trazado_136929" data-name="Trazado 136929" d="M18.91,24.97h1.944a2.374,2.374,0,0,0-1.944.947Z" transform="translate(54.613 65.949)"/>
    <path id="Trazado_136930" data-name="Trazado 136930" d="M19.228,25.23v1.238a1.932,1.932,0,0,1-.428,1.238V26.468a2.007,2.007,0,0,1,.428-1.238" transform="translate(54.295 66.636)"/>
    <path id="Trazado_136931" data-name="Trazado 136931" d="M29.451,24.97v.947a2.007,2.007,0,0,0-.428,1.238v1.238a2.4,2.4,0,0,1-1.944.983H15.26a2.31,2.31,0,0,0,2.372-2.221V24.97h11.82Z" transform="translate(44.071 65.949)"/>
    <path id="Trazado_136932" data-name="Trazado 136932" d="M22.433,15.52V17.7a2.377,2.377,0,0,1-4.743,0,2.3,2.3,0,0,1,2.372-2.185Z" transform="translate(51.089 40.991)"/>
    <path id="Trazado_136933" data-name="Trazado 136933" d="M22.433,11.765V31.208H20.062a2.3,2.3,0,0,0-2.372,2.185V11.765a2.38,2.38,0,0,1,4.743,0" transform="translate(51.089 25.302)"/>
    <path id="Trazado_136934" data-name="Trazado 136934" d="M20.244,25.91v.983H18.3a2.4,2.4,0,0,0,1.944-.983" transform="translate(52.851 68.432)"/>
    <path id="Trazado_136935" data-name="Trazado 136935" d="M33.453,5.644V7.828a15.617,15.617,0,0,1-1.983,7.828c-2.6,4.588-6.065,5.5-8.437,5.425H22.8c-2.294,0-5.56-.983-8.087-5.425A16.029,16.029,0,0,1,12.73,7.828v-2.4A1.951,1.951,0,0,1,13.08,4.3C14.052,2.767,18.251,0,23.072,0c5.054,0,10.381,2.913,10.381,5.644m-4.7,2.185v-1.6a9.914,9.914,0,0,0-5.677-1.784,10.1,10.1,0,0,0-5.638,1.893V7.828a11.774,11.774,0,0,0,1.439,5.753c1.166,2.112,2.6,3.2,4.16,3.095,1.633.109,3.11-.983,4.277-3.095a11.774,11.774,0,0,0,1.439-5.753" transform="translate(36.765 0)"/>
    <path id="Trazado_136936" data-name="Trazado 136936" d="M25.254,3v1.6a11.774,11.774,0,0,1-1.439,5.753c-1.166,2.112-2.644,3.2-4.277,3.095-1.555.109-2.994-.983-4.16-3.095A11.774,11.774,0,0,1,13.94,4.606V3.113A10.1,10.1,0,0,1,19.578,1.22,9.914,9.914,0,0,1,25.254,3" transform="translate(40.259 3.222)" fill="#f8e995"/>
    <path id="Trazado_136937" data-name="Trazado 136937" d="M19.393,24.97v2.185a2.377,2.377,0,0,1-4.743,0V24.97Z" transform="translate(42.31 65.949)"/>
    <path id="Trazado_136938" data-name="Trazado 136938" d="M19.393,19.231V45.994H14.65V19.231a2.377,2.377,0,0,1,4.743,0" transform="translate(42.31 44.926)"/>
    <path id="Trazado_136939" data-name="Trazado 136939" d="M25.8,29.376H13.982a2.285,2.285,0,0,1-2.372-2.221V24.97H23.43v2.185A2.31,2.31,0,0,0,25.8,29.376" transform="translate(33.53 65.949)"/>
    <path id="Trazado_136940" data-name="Trazado 136940" d="M16.353,11.765V33.393a2.3,2.3,0,0,0-2.372-2.185H11.61V11.765A2.28,2.28,0,0,1,13.982,9.58a2.3,2.3,0,0,1,2.372,2.185" transform="translate(33.53 25.302)"/>
    <path id="Trazado_136941" data-name="Trazado 136941" d="M13.982,15.52A2.3,2.3,0,0,1,16.353,17.7a2.31,2.31,0,0,1-2.372,2.221A2.285,2.285,0,0,1,11.61,17.7V15.52Z" transform="translate(33.53 40.991)"/>
    <path id="Trazado_136942" data-name="Trazado 136942" d="M38.1,29.376H5.632a2.209,2.209,0,1,1,0-4.406H35.725v2.185A2.285,2.285,0,0,0,38.1,29.376" transform="translate(9.415 65.949)"/>
    <path id="Trazado_136943" data-name="Trazado 136943" d="M25.849,18.19a2.3,2.3,0,0,1,2.333,2.221,2.275,2.275,0,0,1-2.333,2.221H5.632A2.285,2.285,0,0,1,3.26,20.411,2.309,2.309,0,0,1,5.632,18.19Z" transform="translate(9.415 48.042)"/>
    <path id="Trazado_136944" data-name="Trazado 136944" d="M25.849,21.49a2.224,2.224,0,1,1,0,4.442H5.632a2.226,2.226,0,1,1,0-4.442Z" transform="translate(9.415 56.758)"/>
    <path id="Trazado_136945" data-name="Trazado 136945" d="M18.935,18.246a2.019,2.019,0,0,1-.505,1.347,2.46,2.46,0,0,1-1.866.837,2.341,2.341,0,0,1-1.439-.473L6.415,13.512a2.082,2.082,0,0,1-.389-3.095A2.323,2.323,0,0,1,7.854,9.58a2.452,2.452,0,0,1,1.477.473L18.04,16.5a2.191,2.191,0,0,1,.894,1.748" transform="translate(15.902 25.302)"/>
    <path id="Trazado_136946" data-name="Trazado 136946" d="M30.365,7.02A2.28,2.28,0,0,1,32.737,9.2a2.285,2.285,0,0,1-2.372,2.221H4.7V98.34c0,4.442,3.888,8.047,8.631,8.047a2.31,2.31,0,0,0-2.372,2.221,2.262,2.262,0,0,0,1.905,2.148C5.715,110.538,0,105.076,0,98.34V9.2A2.28,2.28,0,0,1,2.372,7.02Z" transform="translate(0 18.541)"/>
    <path id="Trazado_136947" data-name="Trazado 136947" d="M6.84,33.374c.039-.4.078-.837.078-1.274,0,.437-.039.874-.078,1.274" transform="translate(19.754 84.781)"/>
    <path id="Trazado_136948" data-name="Trazado 136948" d="M6.64,33.95c.117-.291.233-.583.35-.91a3.717,3.717,0,0,1-.35.91" transform="translate(19.176 87.263)"/>
    <path id="Trazado_136949" data-name="Trazado 136949" d="M6.52,34.31a4.9,4.9,0,0,0,.467-1.02,4.9,4.9,0,0,1-.467,1.02" transform="translate(18.83 87.924)"/>
    <path id="Trazado_136950" data-name="Trazado 136950" d="M6.38,34.517c.194-.328.389-.619.544-.947a3.354,3.354,0,0,1-.544.947" transform="translate(18.426 88.663)"/>
  </g>
</svg>
