<svg id="Grupo_94409" data-name="Grupo 94409" xmlns="http://www.w3.org/2000/svg" xmlns:xlink="http://www.w3.org/1999/xlink" width="25" height="18" viewBox="0 0 25 18">
  <defs>
    <clipPath id="clip-path">
      <rect id="Rectángulo_40805" data-name="Rectángulo 40805" width="25" height="18" fill="none"/>
    </clipPath>
  </defs>
  <g id="Grupo_94408" data-name="Grupo 94408" transform="translate(0 0)" clip-path="url(#clip-path)">
    <path id="Trazado_136762" data-name="Trazado 136762" d="M33.609.61V17.669a.48.48,0,0,0-.14-.332l-.759-.779V1.544L33.425.98a.475.475,0,0,0,.184-.37" transform="translate(-8.609 -0.139)"/>
    <path id="Trazado_136763" data-name="Trazado 136763" d="M33.922.571A.376.376,0,0,0,33.9.44a.376.376,0,0,1,.022.131" transform="translate(-8.922 -0.101)"/>
    <path id="Trazado_136764" data-name="Trazado 136764" d="M33.271.339a.376.376,0,0,1,.022.131.475.475,0,0,1-.184.37l-.715.563V.934H31.51L32.578.093A.428.428,0,0,1,32.844,0,.433.433,0,0,1,33.2.185a.436.436,0,0,1,.066.131.029.029,0,0,1,.007.023" transform="translate(-8.293 0)"/>
    <path id="Trazado_136765" data-name="Trazado 136765" d="M33.38,22.391a.476.476,0,0,1-.037.177.454.454,0,0,1-.1.147l-.007.008a.414.414,0,0,1-.619,0l-.781-.8h.641v-.64l.759.779a.48.48,0,0,1,.14.332" transform="translate(-8.38 -4.862)"/>
    <path id="Trazado_136766" data-name="Trazado 136766" d="M33.866.371A.436.436,0,0,0,33.8.24a.314.314,0,0,1,.066.131" transform="translate(-8.896 -0.055)"/>
    <path id="Trazado_136767" data-name="Trazado 136767" d="M33.75,23.1a.454.454,0,0,0,.1-.147.384.384,0,0,1-.1.147" transform="translate(-8.883 -5.243)"/>
    <path id="Trazado_136768" data-name="Trazado 136768" d="M33.74,23.148l.007-.008c.007.008,0,.008-.007.008" transform="translate(-8.88 -5.287)"/>
    <path id="Trazado_136769" data-name="Trazado 136769" d="M.61,0h24.1a.428.428,0,0,0-.265.093L23.377.934H1.944L.875.093A.444.444,0,0,0,.61,0" transform="translate(-0.161 0)"/>
    <path id="Trazado_136770" data-name="Trazado 136770" d="M31.167,23.051H25.14a.471.471,0,0,0,0-.941h4.937l.781.8a.415.415,0,0,0,.309.139" transform="translate(-6.617 -5.051)"/>
    <path id="Trazado_136771" data-name="Trazado 136771" d="M29.489,18.765v.64h-.641L20.47,10.833l.722-.563Z" transform="translate(-5.387 -2.346)"/>
    <path id="Trazado_136772" data-name="Trazado 136772" d="M29.746,1.82V16.834L21.45,8.34Z" transform="translate(-5.645 -0.416)" fill="#f8e995"/>
    <path id="Trazado_136773" data-name="Trazado 136773" d="M29.415,1.21v.471l-8.3,6.52-.376-.386a.421.421,0,0,0-.553-.054l8.341-6.55Z" transform="translate(-5.314 -0.276)"/>
    <path id="Trazado_136774" data-name="Trazado 136774" d="M24.01,19.572H17.961a.462.462,0,0,0-.449.471H16.082a.461.461,0,0,0-.442-.471H13.319a.462.462,0,0,0-.449.471H11.44A.461.461,0,0,0,11,19.572H8.677a.462.462,0,0,0-.449.471H6.8a.461.461,0,0,0-.442-.471H2.09L10.468,11l2.314,1.821a.444.444,0,0,0,.265.093.449.449,0,0,0,.273-.093L15.633,11Z" transform="translate(-0.55 -2.513)" fill="#f8e995"/>
    <path id="Trazado_136775" data-name="Trazado 136775" d="M23.854,1.21,15.513,7.76a.291.291,0,0,0-.074.062L13.133,9.627l-2.3-1.805a.791.791,0,0,0-.081-.069L2.42,1.21Z" transform="translate(-0.637 -0.276)" fill="#edc16c"/>
    <path id="Trazado_136776" data-name="Trazado 136776" d="M24.982,22.11a.472.472,0,1,1-.442.471.462.462,0,0,1,.442-.471" transform="translate(-6.459 -5.051)"/>
    <path id="Trazado_136777" data-name="Trazado 136777" d="M23.469,22.11h1.113a.472.472,0,0,0,0,.941H23.469a.471.471,0,0,1,0-.941" transform="translate(-6.059 -5.051)"/>
    <path id="Trazado_136778" data-name="Trazado 136778" d="M20.67,9.731l.376.386-.722.563-.273-.278a.481.481,0,0,1-.007-.664.291.291,0,0,1,.074-.062.421.421,0,0,1,.553.054" transform="translate(-5.241 -2.193)"/>
    <path id="Trazado_136779" data-name="Trazado 136779" d="M19.49,22.11a.472.472,0,0,1,0,.941H17.169a.471.471,0,0,1,0-.941Z" transform="translate(-4.401 -5.051)"/>
    <path id="Trazado_136780" data-name="Trazado 136780" d="M18.625,10.721l-2.314,1.821a.449.449,0,0,1-.273.093.444.444,0,0,1-.265-.093L13.46,10.721l.273-.278a.489.489,0,0,0,.007-.664l2.3,1.805L18.345,9.78a.481.481,0,0,0,.007.664Z" transform="translate(-3.543 -2.234)"/>
    <path id="Trazado_136781" data-name="Trazado 136781" d="M13.19,22.11a.472.472,0,0,1,0,.941H10.869a.471.471,0,0,1,0-.941Z" transform="translate(-2.742 -5.051)"/>
    <path id="Trazado_136782" data-name="Trazado 136782" d="M13.479,9.739a.489.489,0,0,1-.007.664l-.273.278-.729-.563.376-.386a.442.442,0,0,1,.553-.062.792.792,0,0,1,.081.069" transform="translate(-3.282 -2.193)"/>
    <path id="Trazado_136783" data-name="Trazado 136783" d="M2.1,1.21l8.333,6.543a.442.442,0,0,0-.553.062L9.506,8.2l-8.3-6.52V1.21Z" transform="translate(-0.318 -0.276)"/>
    <path id="Trazado_136784" data-name="Trazado 136784" d="M10.236,10.833,1.858,19.405H1.21v-.64l8.3-8.495Z" transform="translate(-0.318 -2.346)"/>
    <path id="Trazado_136785" data-name="Trazado 136785" d="M1.21,1.82l8.3,6.52-8.3,8.495Z" transform="translate(-0.318 -0.416)" fill="#f8e995"/>
    <path id="Trazado_136786" data-name="Trazado 136786" d="M7.48,22.11a.472.472,0,0,1,0,.941H6.36a.471.471,0,0,0,0-.941Z" transform="translate(-1.674 -5.051)"/>
    <path id="Trazado_136787" data-name="Trazado 136787" d="M6.2,22.11a.472.472,0,1,1-.442.471A.462.462,0,0,1,6.2,22.11" transform="translate(-1.516 -5.051)"/>
    <path id="Trazado_136788" data-name="Trazado 136788" d="M1.7,22.11H4.847a.472.472,0,0,0,0,.941H.61a.427.427,0,0,0,.309-.139Z" transform="translate(-0.161 -5.051)"/>
    <path id="Trazado_136789" data-name="Trazado 136789" d="M.715.093,1.783.934H.892V1.4L.177.841A.468.468,0,0,1,0,.471.376.376,0,0,1,.022.339.318.318,0,0,1,.088.185.256.256,0,0,1,.133.139C.147.116.177.1.2.077A.227.227,0,0,1,.273.039.4.4,0,0,1,.361.008.343.343,0,0,1,.449,0,.444.444,0,0,1,.715.093" transform="translate(0 0)"/>
    <path id="Trazado_136790" data-name="Trazado 136790" d="M1.54,21.92l-.781.8a.423.423,0,0,1-.634-.008v-.008a.322.322,0,0,1-.081-.116.48.48,0,0,1,.088-.532l.759-.779v.64Z" transform="translate(0 -4.862)"/>
    <path id="Trazado_136791" data-name="Trazado 136791" d="M.892,1.544V16.558l-.759.779A.472.472,0,0,0,0,17.669V.61A.468.468,0,0,0,.177.98Z" transform="translate(0 -0.139)"/>
    <path id="Trazado_136792" data-name="Trazado 136792" d="M.458.01A.4.4,0,0,0,.37.041.4.4,0,0,1,.458.01" transform="translate(-0.097 -0.002)"/>
    <path id="Trazado_136793" data-name="Trazado 136793" d="M.246.1C.224.123.195.139.18.162A.177.177,0,0,1,.246.1" transform="translate(-0.047 -0.023)"/>
    <path id="Trazado_136794" data-name="Trazado 136794" d="M.06,22.98a.322.322,0,0,0,.081.116A.322.322,0,0,1,.06,22.98" transform="translate(-0.016 -5.25)"/>
    <path id="Trazado_136795" data-name="Trazado 136795" d="M.022.44A.376.376,0,0,0,0,.571.376.376,0,0,1,.022.44" transform="translate(0 -0.101)"/>
  </g>
</svg>
