<svg xmlns="http://www.w3.org/2000/svg" xmlns:xlink="http://www.w3.org/1999/xlink" width="360" height="201" viewBox="0 0 360 201">
  <defs>
    <clipPath id="clip-path">
      <rect id="Rectángulo_36839" data-name="Rectángulo 36839" width="360" height="200" transform="translate(1987 -5413)" fill="#ffb6b0"/>
    </clipPath>
  </defs>
  <g id="Grupo_119019" data-name="Grupo 119019" transform="translate(-1987 5413)">
    <rect id="Rectángulo_36711" data-name="Rectángulo 36711" width="360" height="200" transform="translate(1987 -5413)" fill="#ffb6b0"/>
    <g id="Enmascarar_grupo_247" data-name="Enmascarar grupo 247" transform="translate(0 1)" clip-path="url(#clip-path)">
      <g id="Grupo_114879" data-name="Grupo 114879" transform="translate(1808.576 -5936.054)">
        <g id="Grupo_114870" data-name="Grupo 114870" transform="translate(225.113 554.054)">
          <g id="Grupo_114799" data-name="Grupo 114799" transform="translate(0 35.762)">
            <g id="Grupo_114797" data-name="Grupo 114797" transform="translate(2.622 78.537)">
              <path id="Trazado_160165" data-name="Trazado 160165" d="M245.967,1440.86c1.739,1.026,1.26-5.079,1.26-5.079s.329,5.679,1.707,6.737c1.1.843,1.542-4.5,1.617-6.337l.05,0c.082,1.8.294,7.414,1.6,7.878,1.477.526,1.385-6.824,1.347-7.919l.018,0c1.617,11.835,3.246,3.1,2.965-2.028.876.674,2.86,1.855,3.333,1.371.545-.556-.92-2.734-1.4-3.349-1.1-1.418-2.708-4.676-3.837-6.073-.489-.606-8.09.723-8.09.723a26.417,26.417,0,0,0-1.232,5.937,2.928,2.928,0,0,0-.1.679c-.009.3-.027.7-.045,1.162v0h0C245.076,1436.759,244.987,1440.282,245.967,1440.86Z" transform="translate(-245.114 -1425.903)" fill="#ea9a81"/>
            </g>
            <g id="Grupo_114798" data-name="Grupo 114798">
              <path id="Trazado_160166" data-name="Trazado 160166" d="M253.8,826.842s-20.358,3.016-26.5,21.751c-4.443,13.555-.906,55.488,0,58.138s11.022,2.559,13.324,0S253.8,826.842,253.8,826.842Z" transform="translate(-225.113 -826.842)" fill="#ed6b6c"/>
            </g>
          </g>
          <g id="Grupo_114812" data-name="Grupo 114812" transform="translate(4.27 7.803)">
            <g id="Grupo_114800" data-name="Grupo 114800" transform="translate(28.466 98.622)">
              <path id="Trazado_160167" data-name="Trazado 160167" d="M505.807,1372.273c-.521,8.687-1.507,19.961-3.33,33.748-1.551,11.733-3.251,33.879-4.842,44.45l-1.871.03c-6.927.112-13.943.246-20.948.392l1.122-36.862h0l.007-.154v0l1.2-28.357.346-13.63h0c.067-.031,1.156-.547,2.875-1.263h0c1.3-.544,2.966-1.2,4.819-1.859,6.282-2.221,14.727-4.369,18.573-1.648h0a4.745,4.745,0,0,1,1.935,3.137h0c.02.095.036.192.049.29A8.6,8.6,0,0,1,505.807,1372.273Z" transform="translate(-474.816 -1365.836)" fill="#f7f0f7"/>
            </g>
            <g id="Grupo_114801" data-name="Grupo 114801" transform="translate(2.901 84.241)">
              <path id="Trazado_160168" data-name="Trazado 160168" d="M311.28,1266.625q-.074,3.012-.252,6.88c-.03.586-.059,1.188-.092,1.8h0c-.021.395-.044.795-.066,1.2-.5,8.837-1.494,20.506-3.4,34.924q-.472,3.565-.96,7.127v0c0,.034-.01.069-.013.1v0c-1.261,9.2-2.58,28.642-3.833,36.973q-2.349.049-4.691.1-1.745.037-3.479.077c-4.935.109-9.84.226-14.677.341l1.751-51.7v0l.573-13.53.295-11.671.01-.357.044-1.785.007-.223.046-1.861v0l.01-.388.018-.7.283-11.2.522-.121,5.846-1.358s0,0,0,0l10.808-2.508h0l3.464-.8,7.763-1.8s.038.694.066,2.075C311.358,1259.952,311.376,1262.759,311.28,1266.625Z" transform="translate(-279.817 -1256.145)" fill="#f7f0f7"/>
            </g>
            <g id="Grupo_114802" data-name="Grupo 114802" transform="translate(17.628 115.214)">
              <path id="Trazado_160169" data-name="Trazado 160169" d="M403.944,1524.123c-.02-.155-1.988-15.6-3.468-21.137-1.466-5.482-8.26-10.245-8.329-10.292l.2-.294c.069.048,6.971,4.887,8.47,10.494,1.486,5.556,3.457,21.029,3.477,21.184Z" transform="translate(-392.148 -1492.4)" fill="#30262a"/>
            </g>
            <g id="Grupo_114803" data-name="Grupo 114803" transform="translate(24.869 9.241)">
              <path id="Trazado_160170" data-name="Trazado 160170" d="M451.834,701.022l1.8-5.649.523-1.645,3.074-9.67.4,9.619.242,5.773.077,1.828c.052,1.24.828,1.5,1.773,2.579.383.437,2.831,3.085.052,4.281-3.462,1.491-9.935-.766-12.4-3.723C447.4,704.413,451.254,702.848,451.834,701.022Z" transform="translate(-447.381 -684.059)" fill="#ea9a81"/>
            </g>
            <g id="Grupo_114804" data-name="Grupo 114804" transform="translate(23.969 1.272)">
              <ellipse id="Elipse_5004" data-name="Elipse 5004" cx="8.815" cy="10.367" rx="8.815" ry="10.367" transform="matrix(0.989, -0.151, 0.151, 0.989, 0, 2.66)" fill="#ea9a81"/>
            </g>
            <g id="Grupo_114805" data-name="Grupo 114805" transform="translate(22.164 3.469)">
              <path id="Trazado_160171" data-name="Trazado 160171" d="M448.291,642.41s-5.388,5.054-4.677,7.9.531,3.958-2.616,5.475-.368,3.981-4.562,4.158-11.359-3.877-9.33-12.588a33.068,33.068,0,0,1,2.609-7.321Z" transform="translate(-426.752 -640.033)" fill="#30262a"/>
            </g>
            <g id="Grupo_114806" data-name="Grupo 114806" transform="translate(5.262 94.599)">
              <path id="Trazado_160172" data-name="Trazado 160172" d="M352.02,1345.607s-36.578-2.1-53.936,2.293l-.258-5.192,24.339-7.561,19.651.507,6.037,1.351,4.26,6.9Z" transform="translate(-297.825 -1335.147)" fill="#30262a"/>
            </g>
            <g id="Grupo_114807" data-name="Grupo 114807" transform="translate(0 27.293)">
              <path id="Trazado_160173" data-name="Trazado 160173" d="M262.2,836.277s3.22-14.525,22.913-14.524c34.32,0,24.693,29.372,27.869,76.066,0,0-22.126-5.031-54.145,1.665,0,0-3.117-25.288.91-46.666C260.81,847.173,260.618,841.185,262.2,836.277Z" transform="translate(-257.686 -821.753)" fill="#ed6b6c"/>
            </g>
            <g id="Grupo_114808" data-name="Grupo 114808" transform="translate(21.888)">
              <path id="Trazado_160174" data-name="Trazado 160174" d="M425.035,625.675s-1.569-6.227,1.6-9.393,13.322-4.04,18.018,0,4.477,4.423,2.921,5.16-.164,2.678-2.785,3.112-.76,5.151-5.294,4.214S425.035,625.675,425.035,625.675Z" transform="translate(-424.646 -613.57)" fill="#30262a"/>
            </g>
            <g id="Grupo_114809" data-name="Grupo 114809" transform="translate(37.337 13.019)">
              <path id="Trazado_160175" data-name="Trazado 160175" d="M545.67,713.722a1.854,1.854,0,0,0-2.507-.566,1.748,1.748,0,0,0-.3,2.491,1.854,1.854,0,0,0,2.507.566A1.748,1.748,0,0,0,545.67,713.722Z" transform="translate(-542.483 -712.879)" fill="#ea9a81"/>
            </g>
            <g id="Grupo_114810" data-name="Grupo 114810" transform="translate(37.456 15.38)">
              <path id="Trazado_160176" data-name="Trazado 160176" d="M545.113,732.226a1.934,1.934,0,0,1-1.712-1.252.062.062,0,1,1,.11-.057c.773,1.5,1.865,1.162,1.911,1.147a.062.062,0,0,1,.039.117A1.237,1.237,0,0,1,545.113,732.226Z" transform="translate(-543.393 -730.884)" fill="#30262a"/>
            </g>
            <g id="Grupo_114811" data-name="Grupo 114811" transform="translate(5.697 47.156)">
              <path id="Trazado_160177" data-name="Trazado 160177" d="M301.967,1024.872c-2.461-25.509,1.348-51.349,1.387-51.607l.225.034c-.039.258-3.844,26.072-1.386,51.552Z" transform="translate(-301.14 -973.265)" fill="#30262a"/>
            </g>
          </g>
          <g id="Grupo_114828" data-name="Grupo 114828" transform="translate(143.563 0)">
            <g id="Grupo_114813" data-name="Grupo 114813" transform="translate(0.074 102.101)">
              <path id="Trazado_160178" data-name="Trazado 160178" d="M1352.039,1424.621c-6.994-.308-14.367-.652-22.177-1.03-1.843-12.03-3.912-36.506-5.769-50.549-1.823-13.787-2.809-25.06-3.33-33.748a8.593,8.593,0,0,1,.059-1.731c.013-.1.03-.193.048-.288v0a4.743,4.743,0,0,1,1.936-3.138h0c3.846-2.722,12.3-.573,18.578,1.648,1.851.654,3.512,1.314,4.814,1.859,1.774.739,2.878,1.265,2.878,1.265h0l.346,13.628,1.2,28.362v.005l.007.149v0Z" transform="translate(-1320.744 -1332.858)" fill="#f7f0f7"/>
            </g>
            <g id="Grupo_114814" data-name="Grupo 114814" transform="translate(25.113 87.721)">
              <path id="Trazado_160179" data-name="Trazado 160179" d="M1543.57,1330.319c-6.937-.229-14.285-.518-22.118-.854-1.543-10.07-3.253-32-4.865-43.77v0c0-.033-.008-.064-.013-.1v0q-.487-3.558-.96-7.132c-1.906-14.418-2.9-26.085-3.4-34.922-.021-.408-.044-.807-.066-1.2q-.049-.924-.092-1.8-.184-3.867-.252-6.88-.025-.953-.039-1.82c-.1-5.746.059-8.66.059-8.66l10.544,2.447.006,0,17.856,4.142.283,11.2.074,2.95.061,2.365.295,11.671Z" transform="translate(-1511.732 -1223.173)" fill="#f7f0f7"/>
            </g>
            <g id="Grupo_114815" data-name="Grupo 114815" transform="translate(29.77 118.693)">
              <path id="Trazado_160180" data-name="Trazado 160180" d="M1547.615,1491.144l-.354-.045c.02-.156,1.991-15.628,3.477-21.184,1.5-5.607,8.4-10.446,8.47-10.494l.2.294c-.069.048-6.864,4.813-8.329,10.293C1549.6,1475.54,1547.634,1490.989,1547.615,1491.144Z" transform="translate(-1547.26 -1459.421)" fill="#30262a"/>
            </g>
            <g id="Grupo_114816" data-name="Grupo 114816" transform="translate(20.975 12.72)">
              <path id="Trazado_160181" data-name="Trazado 160181" d="M1489.426,668.044l-1.8-5.649-.523-1.645-3.074-9.67-.4,9.619-.242,5.773-.077,1.828c-.052,1.24-.828,1.5-1.772,2.579-.383.437-2.832,3.085-.052,4.281,3.462,1.491,9.934-.766,12.4-3.723C1493.861,671.435,1490.007,669.87,1489.426,668.044Z" transform="translate(-1480.175 -651.081)" fill="#ea9a81"/>
            </g>
            <g id="Grupo_114817" data-name="Grupo 114817" transform="translate(15.023 4.751)">
              <ellipse id="Elipse_5005" data-name="Elipse 5005" cx="10.367" cy="8.815" rx="10.367" ry="8.815" transform="translate(0 20.497) rotate(-81.322)" fill="#ea9a81"/>
            </g>
            <g id="Grupo_114818" data-name="Grupo 114818" transform="translate(12.787 0.128)">
              <path id="Trazado_160182" data-name="Trazado 160182" d="M1425.266,567.623c-5.043.184-7.488-2.651-7.547-5.275-.074-3.366,2.1-6.347,4.634-5.1s1.446-1.817,3.881-2.143c4.551-.609,5.406,2.545,9.13,2.7,4.913.2,10.515,8.179,6.4,14C1441.763,571.808,1429.249,567.477,1425.266,567.623Z" transform="translate(-1417.718 -555.031)" fill="#30262a"/>
            </g>
            <g id="Grupo_114819" data-name="Grupo 114819" transform="translate(15.846 6.948)">
              <path id="Trazado_160183" data-name="Trazado 160183" d="M1441.047,609.432s5.388,5.054,4.677,7.9-.531,3.958,2.616,5.475.368,3.981,4.562,4.158,9.331-4.651,9.33-12.588a11.746,11.746,0,0,0-2.609-7.321Z" transform="translate(-1441.047 -607.055)" fill="#30262a"/>
            </g>
            <g id="Grupo_114820" data-name="Grupo 114820" transform="translate(17.419 16.255)">
              <path id="Trazado_160184" data-name="Trazado 160184" d="M1453.434,678.885a1.854,1.854,0,0,1,2.507-.566,1.748,1.748,0,0,1,.3,2.491,1.854,1.854,0,0,1-2.507.566A1.748,1.748,0,0,1,1453.434,678.885Z" transform="translate(-1453.05 -678.042)" fill="#ea9a81"/>
            </g>
            <g id="Grupo_114821" data-name="Grupo 114821" transform="translate(37.361 17.062)">
              <path id="Trazado_160185" data-name="Trazado 160185" d="M1606.653,686.23a.128.128,0,0,1-.125-.1,2.975,2.975,0,0,0-1.3-1.689.128.128,0,0,1,.128-.223,3.194,3.194,0,0,1,1.425,1.855.128.128,0,0,1-.1.154A.125.125,0,0,1,1606.653,686.23Z" transform="translate(-1605.161 -684.201)" fill="#30262a"/>
            </g>
            <g id="Grupo_114822" data-name="Grupo 114822" transform="translate(37.361 15.219)">
              <path id="Trazado_160186" data-name="Trazado 160186" d="M1605.289,671.623a.128.128,0,0,1-.008-.256c.014,0,1.376-.1,1.571-1.124a.128.128,0,1,1,.252.048c-.233,1.223-1.743,1.328-1.807,1.332Z" transform="translate(-1605.161 -670.139)" fill="#30262a"/>
            </g>
            <g id="Grupo_114823" data-name="Grupo 114823" transform="translate(14.617)">
              <path id="Trazado_160187" data-name="Trazado 160187" d="M1435.244,556.2a.986.986,0,0,1-.273-.041,3.56,3.56,0,0,1-1.034-.536,2.046,2.046,0,0,0-2.1-.375.128.128,0,1,1-.077-.245,2.3,2.3,0,0,1,2.316.407,3.357,3.357,0,0,0,.962.5.59.59,0,0,0,.524-.071c.563-.382.7-1.662.7-1.675a.128.128,0,1,1,.255.025c-.006.057-.146,1.412-.809,1.862A.817.817,0,0,1,1435.244,556.2Z" transform="translate(-1431.674 -554.053)" fill="#30262a"/>
            </g>
            <g id="Grupo_114824" data-name="Grupo 114824" transform="translate(26.773 0.946)">
              <path id="Trazado_160188" data-name="Trazado 160188" d="M1527.672,562.812a5.291,5.291,0,0,1-3.236-1.319.128.128,0,0,1,.174-.189,4.88,4.88,0,0,0,3.6,1.21.128.128,0,1,1,.04.253A3.694,3.694,0,0,1,1527.672,562.812Z" transform="translate(-1524.395 -561.27)" fill="#30262a"/>
            </g>
            <g id="Grupo_114825" data-name="Grupo 114825" transform="translate(18.761 18.615)">
              <path id="Trazado_160189" data-name="Trazado 160189" d="M1463.676,697.39a1.235,1.235,0,0,1-.348-.044.062.062,0,0,1,.039-.117c.046.015,1.139.354,1.911-1.147a.062.062,0,0,1,.11.057A1.934,1.934,0,0,1,1463.676,697.39Z" transform="translate(-1463.286 -696.048)" fill="#30262a"/>
            </g>
            <g id="Grupo_114826" data-name="Grupo 114826" transform="translate(0 98.078)">
              <path id="Trazado_160190" data-name="Trazado 160190" d="M1320.271,1312.629s36.578-2.1,53.936,2.293l.258-5.192-24.339-7.561-19.651.507-6.037,1.351-4.26,6.9Z" transform="translate(-1320.179 -1302.169)" fill="#30262a"/>
            </g>
            <g id="Grupo_114827" data-name="Grupo 114827" transform="translate(0 30.772)">
              <path id="Trazado_160191" data-name="Trazado 160191" d="M1370.961,803.3s-3.219-14.525-22.913-14.524c-34.32,0-24.693,29.372-27.869,76.066,0,0,22.126-5.031,54.144,1.665,0,0,3.117-25.288-.91-46.666C1372.35,814.195,1372.542,808.207,1370.961,803.3Z" transform="translate(-1320.179 -788.775)" fill="#ed6b6c"/>
            </g>
          </g>
          <g id="Grupo_114829" data-name="Grupo 114829" transform="translate(144.34 63.798)">
            <path id="Trazado_160192" data-name="Trazado 160192" d="M1326.235,1055.561l-.13-.21c6.469-4,14.888-14.552,14.972-14.658l.194.154C1341.186,1040.952,1332.741,1051.534,1326.235,1055.561Z" transform="translate(-1326.105 -1040.692)" fill="#30262a"/>
          </g>
          <g id="Grupo_114830" data-name="Grupo 114830" transform="translate(196.08 52.533)">
            <path id="Trazado_160193" data-name="Trazado 160193" d="M1723.2,980.241c-.145-3.55-2.4-25.236-2.427-25.454l.246-.026c.023.219,2.283,21.913,2.428,25.47Z" transform="translate(-1720.77 -954.761)" fill="#30262a"/>
          </g>
          <g id="Grupo_114849" data-name="Grupo 114849" transform="translate(11.365 9.385)">
            <g id="Grupo_114831" data-name="Grupo 114831" transform="translate(152.616 72.717)">
              <path id="Trazado_160194" data-name="Trazado 160194" d="M1490.516,1196.656c1.565-1.532-4.966-2.752-4.966-2.752s6.042,1.256,7.539.112c1.193-.912-4.278-2.885-6.182-3.481l.018-.052c1.91.422,7.849,1.782,8.7.547.968-1.4-6.757-3.376-7.916-3.644,0-.007,0-.013,0-.02,12.855,1.644,4.165-2.526-1.288-3.678.953-.727,2.75-2.473,2.376-3.105-.429-.728-3.124.192-3.9.519-1.8.754-5.662,1.518-7.444,2.307-.772.342-1.525,8.679-1.525,8.679a28.659,28.659,0,0,0,5.872,2.965,3.174,3.174,0,0,0,.685.292c.313.094.731.227,1.2.375h.005C1485.968,1196.432,1489.633,1197.52,1490.516,1196.656Z" transform="translate(-1475.931 -1180.31)" fill="#ea9a81"/>
            </g>
            <g id="Grupo_114832" data-name="Grupo 114832" transform="translate(0 71.413)">
              <path id="Trazado_160195" data-name="Trazado 160195" d="M317,1186.709c-1.565-1.532,4.966-2.752,4.966-2.752s-6.042,1.256-7.539.112c-1.193-.912,4.278-2.885,6.182-3.481l-.018-.052c-1.91.422-7.849,1.783-8.7.547-.968-1.4,6.757-3.375,7.916-3.644l0-.02c-12.855,1.644-4.165-2.526,1.288-3.678-.953-.727-2.75-2.473-2.376-3.105.429-.728,3.124.192,3.9.519,1.8.754,5.662,1.518,7.444,2.307.772.342,1.525,8.679,1.525,8.679a28.66,28.66,0,0,1-5.871,2.965,3.171,3.171,0,0,1-.685.292c-.314.094-.731.227-1.2.375h0C321.548,1186.485,317.883,1187.573,317,1186.709Z" transform="translate(-311.805 -1170.363)" fill="#ea9a81"/>
            </g>
            <g id="Grupo_114833" data-name="Grupo 114833" transform="translate(92.226 102.296)">
              <path id="Trazado_160196" data-name="Trazado 160196" d="M1046.026,1412.37c-.523,8.686-1.509,19.959-3.332,33.748-1.322,10-2.752,30.391-4.128,39.681l-.867-.044c-3.821-.195-7.969-.344-12.387-.457l-2.686-.064q-3.567-.076-7.343-.123l.873-30.983v0l.007-.151v0c0-.005,0-.008,0-.013l1.2-28.349.344-13.628s0,0,0,0c.051-.025,1.145-.544,2.876-1.266,1.3-.544,2.965-1.2,4.814-1.859,6.283-2.22,14.734-4.369,18.58-1.648a4.736,4.736,0,0,1,1.936,3.137v0q.029.142.049.29A8.6,8.6,0,0,1,1046.026,1412.37Z" transform="translate(-1015.284 -1405.934)" fill="#44393d"/>
            </g>
            <g id="Grupo_114834" data-name="Grupo 114834" transform="translate(66.686 87.915)">
              <path id="Trazado_160197" data-name="Trazado 160197" d="M851.662,1306.72q-.074,3.012-.252,6.88c-.03.586-.059,1.188-.093,1.8-.02.395-.043.8-.066,1.2-.5,8.835-1.492,20.5-3.4,34.922q-.472,3.563-.958,7.119c0,.005,0,.008,0,.013-.005.031-.008.064-.015.095,0,0,0,0,0,0-.965,7.05-1.964,24.395-2.943,31.016-6.239-.066-12.847-.077-19.71-.048q-1.862.007-3.751.02l2.049-58.722.3-11.671v-.01l.059-2.355.075-2.948v0l.284-11.2,23.49-5.451h0l4.914-1.142s.025.452.049,1.35C851.733,1299.2,851.772,1302.255,851.662,1306.72Z" transform="translate(-820.473 -1296.24)" fill="#44393d"/>
            </g>
            <g id="Grupo_114835" data-name="Grupo 114835" transform="translate(81.138 118.888)">
              <path id="Trazado_160198" data-name="Trazado 160198" d="M942.507,1564.216c-.02-.156-1.988-15.6-3.468-21.137-1.465-5.479-8.26-10.245-8.329-10.293l.2-.294c.069.048,6.971,4.887,8.471,10.494,1.486,5.556,3.457,21.029,3.477,21.184Z" transform="translate(-930.711 -1532.492)" fill="#30262a"/>
            </g>
            <g id="Grupo_114836" data-name="Grupo 114836" transform="translate(88.379 12.914)">
              <path id="Trazado_160199" data-name="Trazado 160199" d="M990.4,741.115l1.8-5.649.523-1.645,3.074-9.67.4,9.619.242,5.773.077,1.828c.052,1.24.828,1.5,1.773,2.579.383.437,2.831,3.085.052,4.281-3.462,1.491-9.934-.766-12.4-3.723C985.963,744.506,989.817,742.941,990.4,741.115Z" transform="translate(-985.944 -724.152)" fill="#ea9a81"/>
            </g>
            <g id="Grupo_114837" data-name="Grupo 114837" transform="translate(87.479 4.945)">
              <ellipse id="Elipse_5006" data-name="Elipse 5006" cx="8.815" cy="10.367" rx="8.815" ry="10.367" transform="translate(0 2.66) rotate(-8.678)" fill="#ea9a81"/>
            </g>
            <g id="Grupo_114838" data-name="Grupo 114838" transform="translate(68.773 98.272)">
              <path id="Trazado_160200" data-name="Trazado 160200" d="M890.583,1385.7s-36.578-2.1-53.936,2.294l-.258-5.192,24.34-7.561,19.651.507,6.037,1.351,4.26,6.9Z" transform="translate(-836.388 -1375.24)" fill="#30262a"/>
            </g>
            <g id="Grupo_114839" data-name="Grupo 114839" transform="translate(67.765 30.966)">
              <path id="Trazado_160201" data-name="Trazado 160201" d="M833.213,876.37s3.22-14.525,22.913-14.524c34.32,0,24.693,29.372,27.869,76.066,0,0-22.126-5.031-54.145,1.665,0,0-3.117-25.288.91-46.666C831.824,887.266,831.632,881.278,833.213,876.37Z" transform="translate(-828.7 -861.846)" fill="#a74c3b"/>
            </g>
            <g id="Grupo_114840" data-name="Grupo 114840" transform="translate(99.052 31.102)">
              <path id="Trazado_160202" data-name="Trazado 160202" d="M1067.351,862.891s11.684-.523,19.288,8.132c4.72,5.372,11.647,25.788,17.215,27.731l19.919,7.371s3.925,7.224-2.443,12.341c0,0-18.125,5.412-36.131-1.941-1.762-.72-8.19-10.072-8.19-10.072Z" transform="translate(-1067.351 -862.885)" fill="#a74c3b"/>
            </g>
            <g id="Grupo_114841" data-name="Grupo 114841" transform="translate(15.951 31.579)">
              <path id="Trazado_160203" data-name="Trazado 160203" d="M506.39,866.524s-11.011.168-19.2,8.276c-3,2.969-7.515,7.993-11.136,12.1a34.3,34.3,0,0,1-14.44,9.713l-27.089,11.4a9.058,9.058,0,0,0,2.7,11.563s29.326,1.387,47.332-5.966a6.846,6.846,0,0,0,2.636-1.829Z" transform="translate(-433.474 -866.524)" fill="#a74c3b"/>
            </g>
            <g id="Grupo_114842" data-name="Grupo 114842" transform="translate(67.868 52.727)">
              <path id="Trazado_160204" data-name="Trazado 160204" d="M829.734,1053.312l-.247-.01c.145-3.557,2.406-25.251,2.428-25.47l.246.026C832.138,1028.076,829.879,1049.762,829.734,1053.312Z" transform="translate(-829.487 -1027.832)" fill="#30262a"/>
            </g>
            <g id="Grupo_114843" data-name="Grupo 114843" transform="translate(67.091 0.475)">
              <path id="Trazado_160205" data-name="Trazado 160205" d="M859.714,631.529c-3.436-1.545-10.833-4.645-16.238.925-7.14,7.357-2.32,18.7-9.965,20.994s-13.16,8.736-7.836,13.759-5.237,18.28,15.466,19.745,17.237-13.411,17.58-18.435,11.481-1.092,11.263-6.989-13.994-9.417-10.764-16.011S865.045,633.925,859.714,631.529Z" transform="translate(-823.561 -629.265)" fill="#30262a"/>
            </g>
            <g id="Grupo_114844" data-name="Grupo 114844" transform="translate(102.07 16.449)">
              <path id="Trazado_160206" data-name="Trazado 160206" d="M1093.56,751.957a1.854,1.854,0,0,0-2.507-.566,1.748,1.748,0,0,0-.3,2.491,1.854,1.854,0,0,0,2.507.566A1.748,1.748,0,0,0,1093.56,751.957Z" transform="translate(-1090.373 -751.113)" fill="#ea9a81"/>
            </g>
            <g id="Grupo_114845" data-name="Grupo 114845" transform="translate(102.189 18.81)">
              <path id="Trazado_160207" data-name="Trazado 160207" d="M1093,770.46a1.934,1.934,0,0,1-1.712-1.252.062.062,0,1,1,.11-.057c.775,1.506,1.9,1.151,1.911,1.147a.062.062,0,0,1,.039.117A1.232,1.232,0,0,1,1093,770.46Z" transform="translate(-1091.284 -769.118)" fill="#30262a"/>
            </g>
            <g id="Grupo_114846" data-name="Grupo 114846" transform="translate(100.771 2.739)">
              <path id="Trazado_160208" data-name="Trazado 160208" d="M1082.938,646.534a7.328,7.328,0,0,1,5.029,4.741c1.529,4.073.535,7.321-5.029,7.444S1082.938,646.534,1082.938,646.534Z" transform="translate(-1080.465 -646.534)" fill="#30262a"/>
            </g>
            <g id="Grupo_114847" data-name="Grupo 114847" transform="translate(80.311)">
              <path id="Trazado_160209" data-name="Trazado 160209" d="M924.591,647.949l-.194-.264c1.307-.964,1.364-3.789,1.43-7.06.1-4.776.216-10.719,4.5-13.289,7.1-4.26,16.006.852,16.095.9l-.165.283c-.087-.051-8.83-5.064-15.761-.905-4.128,2.477-4.245,8.32-4.34,13.015C926.087,643.99,926.028,646.89,924.591,647.949Z" transform="translate(-924.397 -625.643)" fill="#30262a"/>
            </g>
            <g id="Grupo_114848" data-name="Grupo 114848" transform="translate(98.142 24.24)">
              <path id="Trazado_160210" data-name="Trazado 160210" d="M1060.582,841.173l-.167-.282c.062-.037,6.234-3.781,5.55-10.042-.41-3.752,1.432-4.037,3.982-4.431a12.229,12.229,0,0,0,6.933-2.858,3.139,3.139,0,0,0,1.176-2.8c-.527-4.54-10.288-9.883-10.386-9.936l.156-.288a45.309,45.309,0,0,1,5.053,3.29c3.421,2.59,5.272,4.911,5.5,6.9a3.451,3.451,0,0,1-1.283,3.078,12.5,12.5,0,0,1-7.1,2.938c-2.546.394-4.082.631-3.706,4.072C1067,837.287,1060.646,841.135,1060.582,841.173Z" transform="translate(-1060.415 -810.541)" fill="#30262a"/>
            </g>
          </g>
          <g id="Grupo_114852" data-name="Grupo 114852" transform="translate(89.599 30.914)">
            <g id="Grupo_114850" data-name="Grupo 114850" transform="translate(0 29.42)">
              <path id="Trazado_160211" data-name="Trazado 160211" d="M909.448,1026.394c-.384-2.156,5.641.643,5.641.643s-5.648-2.486-6.2-4.287c-.442-1.435,5.158.136,7.055.757l.016-.052c-1.8-.766-7.425-3.108-7.4-4.609.025-1.7,7.462,1.177,8.561,1.631l.009-.018c-11.419-6.127-1.923-4.474,3.184-2.246-.354-1.146-.8-3.61-.131-3.908.772-.343,2.432,1.971,2.876,2.69,1.024,1.657,3.728,4.524,4.72,6.2.43.727.031,7.951.031,7.951a53.139,53.139,0,0,1-10.332-1,3.181,3.181,0,0,1-.727-.16c-.31-.106-.727-.24-1.2-.394h0C913.28,1028.853,909.665,1027.609,909.448,1026.394Z" transform="translate(-908.554 -1014.269)" fill="#ea9a81"/>
            </g>
            <g id="Grupo_114851" data-name="Grupo 114851" transform="translate(16.858)">
              <path id="Trazado_160212" data-name="Trazado 160212" d="M1098.253,789.86s-12.8,1.277-17.682,8.321c-2.4,3.467-7.546,11.4-11.167,15.506-3.9,4.425-8.818,5.81-14.386,7.753l-17.155,4.532s-1.838,8.371.338,11.536c0,0,20.524,5.748,38.384-1.953,4.242-1.829,25.935-20.994,25.935-20.994Z" transform="translate(-1037.139 -789.86)" fill="#ed6b6c"/>
            </g>
          </g>
          <g id="Grupo_114853" data-name="Grupo 114853" transform="translate(126.189 92.175)">
            <path id="Trazado_160213" data-name="Trazado 160213" d="M1195.192,1261.071a17.818,17.818,0,0,1-7.541-3.806l.111-.12a17.645,17.645,0,0,0,7.463,3.767Z" transform="translate(-1187.652 -1257.144)" fill="#30262a"/>
          </g>
          <g id="Grupo_114854" data-name="Grupo 114854" transform="translate(94.338 82.525)">
            <path id="Trazado_160214" data-name="Trazado 160214" d="M963.563,1198.739c1.112-1.886-5.511-1.366-5.511-1.366s6.16-.359,7.308-1.853c.915-1.191-4.881-1.672-6.875-1.753,0-.018,0-.036,0-.055,1.954-.09,8.043-.321,8.546-1.736.57-1.6-7.4-1.5-8.592-1.459,0-.006,0-.013,0-.02,12.84-1.757,3.364-3.522-2.2-3.216.732-.95,2.012-3.1,1.487-3.617-.6-.591-2.967,1-3.634,1.517-1.538,1.2-5.072,2.939-6.587,4.164-.657.531-2.8,7.44-2.8,7.44a53.132,53.132,0,0,0,10.03,2.672,3.171,3.171,0,0,0,.737.1c.327.009.764.029,1.26.049h.005C959.114,1199.706,962.935,1199.8,963.563,1198.739Z" transform="translate(-944.703 -1183.536)" fill="#ea9a81"/>
          </g>
          <g id="Grupo_114855" data-name="Grupo 114855" transform="translate(41.006 35.337)">
            <path id="Trazado_160215" data-name="Trazado 160215" d="M537.894,823.6s13.893.621,21.538,11.432c2.436,3.445,9.11,20.335,13.65,24.1l23.261,15.946s-1.2,8.486-4.342,10.692c0,0-23.706-3.434-37.755-16.883-3.337-3.195-14.512-27.067-14.512-27.067Z" transform="translate(-537.894 -823.599)" fill="#ed6b6c"/>
          </g>
          <g id="Grupo_114864" data-name="Grupo 114864" transform="translate(200.158 43.46)">
            <g id="Grupo_114856" data-name="Grupo 114856" transform="translate(43.326 73.207)">
              <path id="Trazado_160216" data-name="Trazado 160216" d="M2096.374,1458.922c-1.738,1.025-1.26-5.079-1.26-5.079s-.329,5.678-1.707,6.737c-1.1.843-1.542-4.5-1.617-6.337l-.051,0c-.082,1.8-.294,7.414-1.6,7.878-1.478.526-1.385-6.824-1.347-7.919l-.019,0c-1.617,11.835-3.246,3.1-2.964-2.028-.876.674-2.86,1.855-3.333,1.371-.544-.556.92-2.734,1.4-3.349,1.1-1.418,2.708-4.676,3.837-6.073.489-.606,8.09.723,8.09.723a26.415,26.415,0,0,1,1.232,5.937,2.926,2.926,0,0,1,.1.68c.008.3.027.7.045,1.161v0h0C2097.264,1454.821,2097.354,1458.344,2096.374,1458.922Z" transform="translate(-2082.358 -1443.965)" fill="#ea9a81"/>
            </g>
            <g id="Grupo_114857" data-name="Grupo 114857" transform="translate(33.524 0.991)">
              <path id="Trazado_160217" data-name="Trazado 160217" d="M2007.594,893.124s20.594-1.09,24.67,20.817c2.61,14.024,1.336,50.094.43,52.743s-11.022,2.559-13.324,0S2007.594,893.124,2007.594,893.124Z" transform="translate(-2007.594 -893.115)" fill="#44393d"/>
            </g>
            <g id="Grupo_114858" data-name="Grupo 114858" transform="translate(0.068 59.562)">
              <path id="Trazado_160218" data-name="Trazado 160218" d="M1781.968,1432.378c-4.311-.033-8.78-.1-13.438-.2h0q-3.209-.072-6.535-.162c-1.953-12.48-4.379-39.014-6.5-55.086-1.682-12.709-2.592-23.1-3.071-31.109a7.975,7.975,0,0,1,.054-1.6c.013-.092.028-.178.044-.265v0a4.359,4.359,0,0,1,1.784-2.889v0c3.545-2.511,11.333-.529,17.125,1.518,1.707.6,3.238,1.212,4.439,1.713,1.633.683,2.652,1.166,2.652,1.166l.318,12.564,1.107,26.131v0l.007.149v0Z" transform="translate(-1752.399 -1339.885)" fill="#a74c3b"/>
            </g>
            <g id="Grupo_114859" data-name="Grupo 114859" transform="translate(23.149 46.308)">
              <path id="Trazado_160219" data-name="Trazado 160219" d="M1958.888,1344.3c-.231.008-.462.015-.695.021q-3.415.1-6.942.151c-3.759.061-7.626.083-11.625.077l-.956,0c-1.648-10.506-4.074-35.962-5.741-48.146,0,0,0,0,0,0,0-.033-.01-.064-.015-.1v0q-.447-3.275-.883-6.562c-1.757-13.289-2.671-24.046-3.133-32.19q-.032-.562-.061-1.109-.047-.85-.083-1.661c-.115-2.377-.188-4.493-.234-6.344-.159-6.406.018-9.659.018-9.659l17.358,4.028,8.825,2.049.26,10.326.069,2.719v0l.056,2.179.141,5.6.08,3.137.051,2.018.544,12.844Z" transform="translate(-1928.453 -1238.779)" fill="#a74c3b"/>
            </g>
            <g id="Grupo_114860" data-name="Grupo 114860" transform="translate(27.441 74.857)">
              <path id="Trazado_160220" data-name="Trazado 160220" d="M1961.522,1485.787l-.327-.041c.018-.144,1.835-14.406,3.2-19.527,1.382-5.169,7.744-9.629,7.808-9.673l.188.271c-.063.044-6.326,4.437-7.677,9.488C1963.354,1471.4,1961.54,1485.644,1961.522,1485.787Z" transform="translate(-1961.195 -1456.546)" fill="#30262a"/>
            </g>
            <g id="Grupo_114861" data-name="Grupo 114861" transform="translate(0 55.854)">
              <path id="Trazado_160221" data-name="Trazado 160221" d="M1751.963,1321.238s33.716-1.932,49.717,2.114l.238-4.786-22.435-6.97-18.114.467-5.564,1.245-3.927,6.363Z" transform="translate(-1751.878 -1311.596)" fill="#30262a"/>
            </g>
            <g id="Grupo_114862" data-name="Grupo 114862">
              <path id="Trazado_160222" data-name="Trazado 160222" d="M1798.688,892.756s-1.669-7.2-19.823-7.2c-31.635,0-24.06,20.887-26.987,63.929,0,0,20.4-4.638,49.909,1.535,0,0,2.873-23.31-.839-43.015C1799.968,902.8,1800.145,897.28,1798.688,892.756Z" transform="translate(-1751.878 -885.555)" fill="#44393d"/>
            </g>
            <g id="Grupo_114863" data-name="Grupo 114863" transform="translate(48.958 22.427)">
              <path id="Trazado_160223" data-name="Trazado 160223" d="M2126.383,1099.668l-.227-.022c2.458-25.479-.8-42.81-.838-42.983l.224-.043C2125.575,1056.792,2128.844,1074.156,2126.383,1099.668Z" transform="translate(-2125.318 -1056.62)" fill="#30262a"/>
            </g>
          </g>
          <g id="Grupo_114867" data-name="Grupo 114867" transform="translate(177.756 31.385)">
            <g id="Grupo_114865" data-name="Grupo 114865" transform="translate(69.086 39.833)">
              <path id="Trazado_160224" data-name="Trazado 160224" d="M2122.558,1113.638c1.565-1.532-4.966-2.752-4.966-2.752s6.041,1.257,7.539.112c1.193-.912-4.278-2.885-6.182-3.481l.018-.052c1.91.422,7.849,1.782,8.7.547.968-1.4-6.757-3.376-7.916-3.644l0-.02c12.854,1.644,4.165-2.526-1.288-3.677.953-.727,2.75-2.473,2.376-3.105-.429-.727-3.124.193-3.9.519-1.8.754-5.662,1.518-7.444,2.307-.772.342-1.525,8.679-1.525,8.679a28.652,28.652,0,0,0,5.872,2.965,3.159,3.159,0,0,0,.685.292c.314.094.731.227,1.2.375h.005C2118.011,1113.414,2121.676,1114.5,2122.558,1113.638Z" transform="translate(-2107.974 -1097.292)" fill="#ea9a81"/>
            </g>
            <g id="Grupo_114866" data-name="Grupo 114866">
              <path id="Trazado_160225" data-name="Trazado 160225" d="M1581,793.453s11.01.169,19.2,8.276c3,2.969,7.515,7.993,11.136,12.1a34.3,34.3,0,0,0,14.44,9.713l27.089,11.405a9.057,9.057,0,0,1-2.7,11.563s-29.326,1.387-47.332-5.966a6.846,6.846,0,0,1-2.636-1.829Z" transform="translate(-1580.999 -793.453)" fill="#ed6b6c"/>
            </g>
          </g>
          <g id="Grupo_114868" data-name="Grupo 114868" transform="translate(49.088 62.267)">
            <rect id="Rectángulo_36838" data-name="Rectángulo 36838" width="0.164" height="10.578" transform="translate(0 0.047) rotate(-16.853)" fill="#30262a"/>
          </g>
          <g id="Grupo_114869" data-name="Grupo 114869" transform="translate(196.122 57.689)">
            <path id="Trazado_160226" data-name="Trazado 160226" d="M1723.518,1014.414c-.187-5.241-2.4-20.147-2.427-20.3l.162-.024c.022.15,2.241,15.065,2.428,20.316Z" transform="translate(-1721.091 -994.093)" fill="#30262a"/>
          </g>
        </g>
        <g id="Grupo_114871" data-name="Grupo 114871" transform="translate(374.678 584.459)">
          <path id="Trazado_160227" data-name="Trazado 160227" d="M1366,794.31c.378-1.983,3.1.961,3.1.961s-2.258-2.449-2.143-4.182c.092-1.381,2.609.264,4.038,1.422l.031-.04c-1.3-1.252-3.021-2.915-2.509-4.2.581-1.457,3.688,1.264,4.485,2.017l.014-.012c-2.724-3.471-.185-4.486,3.481-.887.072-1.1.5-3.372,1.172-3.408.777-.041,1.445,2.5,1.592,3.262.337,1.764,1.722,5.122,2.025,6.892.131.768-5.886,5.6-5.886,5.6a26.412,26.412,0,0,1-5.271-3,2.926,2.926,0,0,1-.573-.377c-.232-.193-.547-.445-.9-.733l0,0h0C1366.939,796.239,1365.782,795.428,1366,794.31Z" transform="translate(-1365.97 -785.979)" fill="#ea9a81"/>
        </g>
        <g id="Grupo_114872" data-name="Grupo 114872" transform="translate(382.023 591.674)">
          <path id="Trazado_160228" data-name="Trazado 160228" d="M1498.344,841.673s-4.676-2.793-16.142,3.1c-7.216,3.711-22.686,11.944-29.77,8.725-6.933-3.151-22.882-11.167-22.882-11.167s-7.85,1.6-7.548,7.845c0,0,9.109,15.824,25.749,22.5,9.472,3.8,40.142-11.521,38.8-12.285Z" transform="translate(-1421.994 -841.012)" fill="#44393d"/>
        </g>
        <g id="Grupo_114878" data-name="Grupo 114878" transform="translate(438.476 565.739)">
          <g id="Grupo_114873" data-name="Grupo 114873" transform="translate(0.813 6.484)">
            <ellipse id="Elipse_5007" data-name="Elipse 5007" cx="9.556" cy="8.126" rx="9.556" ry="8.126" transform="translate(0 18.894) rotate(-81.322)" fill="#ea9a81"/>
          </g>
          <g id="Grupo_114874" data-name="Grupo 114874" transform="translate(3.022 17.088)">
            <path id="Trazado_160229" data-name="Trazado 160229" d="M1876,774.313a1.709,1.709,0,0,1,2.311-.521,1.611,1.611,0,0,1,.273,2.3,1.709,1.709,0,0,1-2.311.521A1.611,1.611,0,0,1,1876,774.313Z" transform="translate(-1875.651 -773.535)" fill="#ea9a81"/>
          </g>
          <g id="Grupo_114875" data-name="Grupo 114875" transform="translate(4.259 19.264)">
            <path id="Trazado_160230" data-name="Trazado 160230" d="M1885.446,791.371a1.128,1.128,0,0,1-.32-.041.057.057,0,1,1,.036-.108c.043.014,1.049.327,1.762-1.057a.057.057,0,1,1,.1.052A1.782,1.782,0,0,1,1885.446,791.371Z" transform="translate(-1885.086 -790.134)" fill="#30262a"/>
          </g>
          <g id="Grupo_114876" data-name="Grupo 114876" transform="translate(0 4.45)">
            <path id="Trazado_160231" data-name="Trazado 160231" d="M1857.831,677.137a6.755,6.755,0,0,0-4.635,4.37c-1.409,3.754-.493,6.748,4.635,6.862S1857.831,677.137,1857.831,677.137Z" transform="translate(-1852.6 -677.137)" fill="#30262a"/>
          </g>
          <g id="Grupo_114877" data-name="Grupo 114877" transform="translate(1.2)">
            <path id="Trazado_160232" data-name="Trazado 160232" d="M1865.786,647.64a11.915,11.915,0,0,1,13.7-3.585c8.659,3.221,8.123,15.37,12.568,18.456s5.922,9.427,0,9.427-4.783,3.05-11.181,4.026-9.951-2.315-14.174-.6-6.94-2.919-3.115-6.14,5.005-8.055,1.285-12.632S1865.786,647.64,1865.786,647.64Z" transform="translate(-1861.755 -643.19)" fill="#30262a"/>
          </g>
        </g>
      </g>
      <g id="Grupo_114880" data-name="Grupo 114880" transform="translate(2205.287 -5409)">
        <path id="Trazado_160022" data-name="Trazado 160022" d="M1449.966,480.981a11.5,11.5,0,0,0-11.4-5.434c-8.174.778-7.2,7.006-11.093,6.422s-9.341,0-10.509,3.892-6.422,1.751-6.617,5.06,6.033,5.644,13.234,2.725,10.7,2.268,20.823,1.329,11.374-2.107,17.364-1.523,5.848-3.517,3.123-6.242S1451.133,484.743,1449.966,480.981Z" transform="translate(-1410.339 -475.479)" fill="#ff9e95"/>
      </g>
      <g id="Grupo_114881" data-name="Grupo 114881" transform="translate(2250.199 -5389.103)">
        <path id="Trazado_160023" data-name="Trazado 160023" d="M1701.861,596.724a7.543,7.543,0,0,0-7.479-3.564c-5.361.51-4.723,4.595-7.276,4.212s-6.126,0-6.892,2.553-4.212,1.149-4.34,3.318,3.957,3.7,8.679,1.787,7.02,1.487,13.657.871,7.459-1.382,11.388-1,3.835-2.307,2.048-4.094S1702.627,599.191,1701.861,596.724Z" transform="translate(-1675.872 -593.115)" fill="#ff9e95"/>
      </g>
      <g id="Grupo_114882" data-name="Grupo 114882" transform="translate(2025.397 -5388.306)">
        <path id="Trazado_160024" data-name="Trazado 160024" d="M656.062,620.634a7.4,7.4,0,0,0-7.334-3.495c-5.257.5-4.631,4.506-7.134,4.13s-6.008,0-6.759,2.5-4.13,1.126-4.256,3.254,3.88,3.63,8.511,1.752,6.884,1.458,13.392.854,7.315-1.355,11.167-.98,3.761-2.262,2.009-4.015S656.813,623.055,656.062,620.634Z" transform="translate(-630.576 -617.096)" fill="#ff9e95"/>
      </g>
    </g>
  </g>
</svg>
