<svg xmlns="http://www.w3.org/2000/svg" width="360" height="200" viewBox="0 0 360 200">
  <g id="Grupo_114568" data-name="Grupo 114568" transform="translate(-1987 6176)">
    <rect id="Rectángulo_36707" data-name="Rectángulo 36707" width="360" height="200" transform="translate(1987 -6176)" fill="#ffdb9a"/>
    <g id="Grupo_114567" data-name="Grupo 114567" transform="translate(1831.894 -6447)">
      <g id="Grupo_114368" data-name="Grupo 114368" transform="translate(182.606 283)">
        <path id="Trazado_159930" data-name="Trazado 159930" d="M479.6,470.376s10.449-11.9,10.762-37.315-7.677-50.629-28.225-61.452-38.586-18.038-46.9-28.7-27.45-27.763-40.939-27.763-24,3.608-32.155-2.51-50.488-31.414-76.055-29.532-53.845,6.374-71.883,35.236-13.186,77.743,1.872,106.448,27.763,45.182,27.763,45.182Z" transform="translate(-182.606 -283)" fill="#ffd280"/>
      </g>
      <g id="Grupo_114392" data-name="Grupo 114392" transform="translate(240.428 392.395)">
        <g id="Grupo_114378" data-name="Grupo 114378">
          <g id="Grupo_114371" data-name="Grupo 114371">
            <g id="Grupo_114370" data-name="Grupo 114370">
              <g id="Grupo_114369" data-name="Grupo 114369">
                <path id="Trazado_159931" data-name="Trazado 159931" d="M771.244,1248.969c-1.114-.891-19.38-36.225-31.409-19.518,0,0-18.044-61.26-42.77-58.364s-3.787,48.339-3.787,48.339-21.162-8.688-16.262,14.257c0,0-26.882-4.095-24.878,15.286Z" transform="translate(-651.96 -1170.988)" fill="#3f9896"/>
              </g>
            </g>
          </g>
          <g id="Grupo_114374" data-name="Grupo 114374" transform="translate(4.337 12.302)">
            <g id="Grupo_114373" data-name="Grupo 114373" transform="translate(0 0)">
              <g id="Grupo_114372" data-name="Grupo 114372">
                <ellipse id="Elipse_4980" data-name="Elipse 4980" cx="5.012" cy="9.356" rx="5.012" ry="9.356" transform="matrix(0.77, -0.638, 0.638, 0.77, 0, 6.397)" fill="#3f9896"/>
              </g>
            </g>
          </g>
          <g id="Grupo_114377" data-name="Grupo 114377" transform="translate(4.891 30.896)">
            <g id="Grupo_114376" data-name="Grupo 114376" transform="translate(0 0)">
              <g id="Grupo_114375" data-name="Grupo 114375">
                <ellipse id="Elipse_4981" data-name="Elipse 4981" cx="2.967" cy="5.539" rx="2.967" ry="5.539" transform="translate(0 3.787) rotate(-39.655)" fill="#3f9896"/>
              </g>
            </g>
          </g>
        </g>
        <g id="Grupo_114385" data-name="Grupo 114385" transform="translate(32.021 49.724)">
          <g id="Grupo_114381" data-name="Grupo 114381" transform="translate(0.312)">
            <g id="Grupo_114380" data-name="Grupo 114380">
              <g id="Grupo_114379" data-name="Grupo 114379">
                <path id="Trazado_159932" data-name="Trazado 159932" d="M924.373,1577.8a.259.259,0,0,0,.089-.468c-.216-.145-5.345-3.527-9.847-2.55h0a.259.259,0,0,0,.11.506h0c4.286-.93,9.4,2.441,9.45,2.475A.26.26,0,0,0,924.373,1577.8Z" transform="translate(-914.409 -1574.61)"/>
              </g>
            </g>
          </g>
          <g id="Grupo_114384" data-name="Grupo 114384" transform="translate(0 1.746)">
            <g id="Grupo_114383" data-name="Grupo 114383">
              <g id="Grupo_114382" data-name="Grupo 114382">
                <path id="Trazado_159933" data-name="Trazado 159933" d="M918.709,1590.615a.259.259,0,0,0,.088-.469,11.394,11.394,0,0,0-6.674-1.337.259.259,0,0,0,.032.516,11.059,11.059,0,0,1,6.356,1.252A.257.257,0,0,0,918.709,1590.615Z" transform="translate(-911.88 -1588.779)"/>
              </g>
            </g>
          </g>
        </g>
        <g id="Grupo_114388" data-name="Grupo 114388" transform="translate(93.929 58.292)">
          <g id="Grupo_114387" data-name="Grupo 114387">
            <g id="Grupo_114386" data-name="Grupo 114386">
              <path id="Trazado_159934" data-name="Trazado 159934" d="M1423.562,1649.18a.259.259,0,0,0,.186-.438c-.181-.187-4.476-4.58-9.083-4.58a.259.259,0,1,0,0,.518h0c4.389,0,8.667,4.378,8.71,4.422A.258.258,0,0,0,1423.562,1649.18Z" transform="translate(-1414.404 -1644.162)"/>
            </g>
          </g>
        </g>
        <g id="Grupo_114391" data-name="Grupo 114391" transform="translate(93.284 59.793)">
          <g id="Grupo_114390" data-name="Grupo 114390">
            <g id="Grupo_114389" data-name="Grupo 114389">
              <path id="Trazado_159935" data-name="Trazado 159935" d="M1415.525,1659.511a.259.259,0,0,0,.185-.439,11.393,11.393,0,0,0-6.239-2.722.259.259,0,0,0-.078.512,11.112,11.112,0,0,1,5.946,2.572A.259.259,0,0,0,1415.525,1659.511Z" transform="translate(-1409.174 -1656.347)"/>
            </g>
          </g>
        </g>
      </g>
      <g id="Grupo_114394" data-name="Grupo 114394" transform="translate(305.279 363.28)" opacity="0.3">
        <g id="Grupo_114393" data-name="Grupo 114393" transform="translate(0 0)">
          <path id="Trazado_159936" data-name="Trazado 159936" d="M1181.127,953.806a1.372,1.372,0,0,1-.228-.721c-.005-.165-.068-4.071,4.274-7.762,2.174-1.848,3.121-3.792,2.667-5.473a3.384,3.384,0,0,0-2.5-2.4c-3.045-.544-4.228,3.451-4.276,3.621a1.369,1.369,0,0,1-2.636-.741c.635-2.272,3-6.362,7.394-5.575a6.162,6.162,0,0,1,4.66,4.384c.432,1.6.547,4.8-3.536,8.273-3.282,2.79-3.311,5.5-3.31,5.614a1.367,1.367,0,0,1-2.508.784Z" transform="translate(-1178.378 -934.652)" fill="#f9bb78"/>
        </g>
        <path id="Trazado_159937" data-name="Trazado 159937" d="M1192.286,1107.158a1.622,1.622,0,1,1,.456-2.249A1.623,1.623,0,0,1,1192.286,1107.158Z" transform="translate(-1188.364 -1083.298)" fill="#f9bb78"/>
      </g>
      <g id="Grupo_114396" data-name="Grupo 114396" transform="translate(413.126 406.163)" opacity="0.3">
        <g id="Grupo_114395" data-name="Grupo 114395" transform="translate(1.645 0)">
          <path id="Trazado_159938" data-name="Trazado 159938" d="M2067.227,1297.491a1.12,1.12,0,0,1-.051-.617c.026-.132.687-3.26,4.822-5.417,2.071-1.08,3.18-2.458,3.123-3.882a2.77,2.77,0,0,0-1.557-2.372c-2.331-.988-4,1.985-4.071,2.112a1.12,1.12,0,0,1-1.968-1.071c.919-1.7,3.548-4.531,6.914-3.1a5.045,5.045,0,0,1,2.921,4.346c.054,1.355-.437,3.931-4.326,5.958-3.126,1.63-3.642,3.786-3.662,3.877a1.118,1.118,0,0,1-2.144.169Z" transform="translate(-2067.154 -1282.751)" fill="#f9bb78"/>
        </g>
        <path id="Trazado_159939" data-name="Trazado 159939" d="M2055.6,1416.32a1.328,1.328,0,1,1,.773-1.711A1.328,1.328,0,0,1,2055.6,1416.32Z" transform="translate(-2053.803 -1397.611)" fill="#f9bb78"/>
      </g>
      <g id="Grupo_114398" data-name="Grupo 114398" transform="translate(367.814 320.844)" opacity="0.3">
        <g id="Grupo_114397" data-name="Grupo 114397" transform="translate(1.109 0)">
          <path id="Trazado_159940" data-name="Trazado 159940" d="M1695.046,600.129a.756.756,0,0,1-.034-.416,5.853,5.853,0,0,1,3.251-3.652c1.4-.728,2.144-1.658,2.106-2.618a1.867,1.867,0,0,0-1.05-1.6c-1.572-.666-2.7,1.339-2.745,1.424a.755.755,0,0,1-1.327-.722c.62-1.145,2.392-3.055,4.661-2.093a3.4,3.4,0,0,1,1.97,2.93c.036.914-.294,2.65-2.917,4.018a4.438,4.438,0,0,0-2.469,2.615.754.754,0,0,1-1.446.114Z" transform="translate(-1694.997 -590.191)" fill="#f9bb78"/>
        </g>
        <path id="Trazado_159941" data-name="Trazado 159941" d="M1687.206,680.253a.9.9,0,1,1,.521-1.154A.9.9,0,0,1,1687.206,680.253Z" transform="translate(-1685.994 -667.638)" fill="#f9bb78"/>
      </g>
      <g id="Grupo_114400" data-name="Grupo 114400" transform="translate(206.157 382.185)" opacity="0.3">
        <g id="Grupo_114399" data-name="Grupo 114399" transform="translate(0 0)">
          <path id="Trazado_159942" data-name="Trazado 159942" d="M382.124,1110.919a1.6,1.6,0,0,1-.537-.7c-.071-.178-1.695-4.428,1.586-10.2,1.643-2.888,1.905-5.393.739-7.052a3.941,3.941,0,0,0-3.691-1.635c-3.55.617-3.252,5.46-3.238,5.666a1.594,1.594,0,0,1-3.18.239c-.21-2.739.747-8.156,5.871-9.046a7.177,7.177,0,0,1,6.846,2.943c1.11,1.578,2.511,5.036-.575,10.462-2.48,4.361-1.433,7.337-1.387,7.462a1.591,1.591,0,0,1-2.433,1.856Z" transform="translate(-373.777 -1088.108)" fill="#f9bb78"/>
        </g>
        <path id="Trazado_159943" data-name="Trazado 159943" d="M442.905,1289.851a1.889,1.889,0,1,1-.4-2.643A1.889,1.889,0,0,1,442.905,1289.851Z" transform="translate(-431.4 -1262.356)" fill="#f9bb78"/>
      </g>
      <g id="Grupo_114402" data-name="Grupo 114402" transform="translate(458.448 378.97)" opacity="0.3">
        <g id="Grupo_114401" data-name="Grupo 114401" transform="translate(0)">
          <path id="Trazado_159944" data-name="Trazado 159944" d="M2424.728,1076.794a1.041,1.041,0,0,1-.225-.529c-.016-.124-.346-3.077,2.673-6.186,1.512-1.557,2.088-3.1,1.623-4.337a2.574,2.574,0,0,0-2.066-1.638c-2.345-.192-2.951,2.919-2.976,3.052a1.041,1.041,0,0,1-2.049-.37c.316-1.766,1.808-5.034,5.194-4.757a4.687,4.687,0,0,1,3.846,2.982c.443,1.18.762,3.6-2.078,6.52-2.283,2.351-2.108,4.4-2.1,4.49a1.04,1.04,0,0,1-1.843.775Z" transform="translate(-2421.692 -1062.011)" fill="#f9bb78"/>
        </g>
        <path id="Trazado_159945" data-name="Trazado 159945" d="M2442,1194.64a1.234,1.234,0,1,1,.183-1.736A1.234,1.234,0,0,1,2442,1194.64Z" transform="translate(-2437.737 -1176.378)" fill="#f9bb78"/>
      </g>
      <g id="Grupo_114404" data-name="Grupo 114404" transform="translate(400.37 348.5)" opacity="0.3">
        <g id="Grupo_114403" data-name="Grupo 114403">
          <path id="Trazado_159946" data-name="Trazado 159946" d="M1955.962,826.6a.852.852,0,0,1-.342-.321c-.053-.088-1.272-2.183-.042-5.5.616-1.66.539-3-.217-3.772a2.1,2.1,0,0,0-2.081-.543c-1.814.629-1.242,3.151-1.216,3.258a.85.85,0,0,1-1.652.4c-.346-1.423-.308-4.353,2.311-5.262a3.824,3.824,0,0,1,3.853.959c.719.735,1.753,2.433.6,5.552a4.992,4.992,0,0,0-.089,4.043.848.848,0,0,1-1.12,1.185Z" transform="translate(-1950.258 -814.681)" fill="#f9bb78"/>
        </g>
        <path id="Trazado_159947" data-name="Trazado 159947" d="M1999.762,918.8a1.007,1.007,0,1,1-.435-1.356A1.007,1.007,0,0,1,1999.762,918.8Z" transform="translate(-1991.995 -904.685)" fill="#f9bb78"/>
      </g>
      <g id="Grupo_114406" data-name="Grupo 114406" transform="translate(217.31 304.024)" opacity="0.3">
        <g id="Grupo_114405" data-name="Grupo 114405" transform="translate(0 0)">
          <path id="Trazado_159948" data-name="Trazado 159948" d="M471.528,468.205a1.045,1.045,0,0,1-.429-.383c-.067-.106-1.622-2.638-.213-6.736.706-2.052.572-3.691-.377-4.615a2.573,2.573,0,0,0-2.567-.6c-2.2.824-1.428,3.9-1.394,4.027a1.041,1.041,0,0,1-2.012.537c-.466-1.733-.505-5.325,2.677-6.515a4.687,4.687,0,0,1,4.749,1.062c.9.879,2.219,2.929.894,6.785-1.065,3.1-.034,4.882.01,4.957a1.039,1.039,0,0,1-1.338,1.485Z" transform="translate(-464.307 -453.661)" fill="#f9bb78"/>
        </g>
        <path id="Trazado_159949" data-name="Trazado 159949" d="M527.276,580.421a1.234,1.234,0,1,1-.573-1.648A1.234,1.234,0,0,1,527.276,580.421Z" transform="translate(-517.462 -563.251)" fill="#f9bb78"/>
      </g>
      <g id="Grupo_114407" data-name="Grupo 114407" transform="translate(235.574 292.351)">
        <ellipse id="Elipse_4982" data-name="Elipse 4982" cx="34.054" cy="40.633" rx="34.054" ry="40.633" transform="translate(0 68.024) rotate(-87.168)" fill="#e9f9ff"/>
      </g>
      <g id="Grupo_114408" data-name="Grupo 114408" transform="translate(318.421 340.251)">
        <ellipse id="Elipse_4983" data-name="Elipse 4983" cx="3.704" cy="3.104" rx="3.704" ry="3.104" transform="translate(0 1.456) rotate(-11.334)" fill="#e9f9ff"/>
      </g>
      <g id="Grupo_114445" data-name="Grupo 114445" transform="translate(248.373 299.16)">
        <g id="Grupo_114421" data-name="Grupo 114421" transform="translate(13.978 0.218)">
          <g id="Grupo_114409" data-name="Grupo 114409" transform="translate(0 2.562)">
            <rect id="Rectángulo_36822" data-name="Rectángulo 36822" width="19.892" height="41.971" transform="translate(0 10.228) rotate(-30.943)" fill="#53a07c"/>
          </g>
          <g id="Grupo_114410" data-name="Grupo 114410" transform="translate(9.04 15.114)">
            <circle id="Elipse_4984" data-name="Elipse 4984" cx="7.287" cy="7.287" r="7.287" transform="translate(0 12.852) rotate(-61.865)" fill="#b9edd6"/>
          </g>
          <g id="Grupo_114411" data-name="Grupo 114411" transform="translate(0.785 0)">
            <rect id="Rectángulo_36823" data-name="Rectángulo 36823" width="19.892" height="41.971" transform="matrix(0.858, -0.514, 0.514, 0.858, 0, 10.228)" fill="#7fc6a6"/>
          </g>
          <g id="Grupo_114412" data-name="Grupo 114412" transform="translate(10.476 13.819)">
            <circle id="Elipse_4985" data-name="Elipse 4985" cx="7.287" cy="7.287" r="7.287" transform="matrix(0.567, -0.824, 0.824, 0.567, 0, 12.007)" fill="#b9edd6"/>
          </g>
          <g id="Grupo_114415" data-name="Grupo 114415" transform="translate(3.705 3.132)">
            <g id="Grupo_114413" data-name="Grupo 114413">
              <path id="Trazado_159950" data-name="Trazado 159950" d="M872.182,454.322a9.174,9.174,0,0,1,9.356-.049l-7.734-12.9L860,449.651l7.734,12.9A9.174,9.174,0,0,1,872.182,454.322Z" transform="translate(-859.996 -441.373)" fill="#b9edd6"/>
            </g>
            <g id="Grupo_114414" data-name="Grupo 114414" transform="translate(12.267 20.462)">
              <path id="Trazado_159951" data-name="Trazado 159951" d="M968.928,615.7a9.174,9.174,0,0,1-9.356.049l6.727,11.221,13.808-8.278-6.727-11.221A9.174,9.174,0,0,1,968.928,615.7Z" transform="translate(-959.572 -607.466)" fill="#b9edd6"/>
            </g>
          </g>
          <g id="Grupo_114416" data-name="Grupo 114416" transform="translate(0 10.228)">
            <path id="Trazado_159952" data-name="Trazado 159952" d="M829.922,501.537l.785-2.562,2,3.333Z" transform="translate(-829.922 -498.975)" fill="#53a07c"/>
          </g>
          <g id="Grupo_114417" data-name="Grupo 114417" transform="translate(35.94 35.997)">
            <path id="Trazado_159953" data-name="Trazado 159953" d="M1125.142,708.147l-.785,2.562-2.7-.471Z" transform="translate(-1121.654 -708.147)" fill="#53a07c"/>
          </g>
          <g id="Grupo_114418" data-name="Grupo 114418" transform="translate(21.581 35.997)">
            <path id="Trazado_159954" data-name="Trazado 159954" d="M1005.1,720.938l.785-2.562,17.061-10.229-.785,2.562Z" transform="translate(-1005.101 -708.147)" fill="#4b8c6b"/>
          </g>
          <g id="Grupo_114419" data-name="Grupo 114419" transform="translate(11.156 17.298)">
            <rect id="Rectángulo_36824" data-name="Rectángulo 36824" width="19.892" height="2.611" transform="translate(0 10.228) rotate(-30.944)" fill="#217f7a"/>
          </g>
          <g id="Grupo_114420" data-name="Grupo 114420" transform="translate(9.868 27.526)">
            <path id="Trazado_159955" data-name="Trazado 159955" d="M911.313,639.386l-1.287,1.724,1.271,2.12,1.359-1.6Z" transform="translate(-910.025 -639.386)" fill="#e23e3d"/>
          </g>
        </g>
        <g id="Grupo_114434" data-name="Grupo 114434" transform="translate(0.159 14.263)">
          <g id="Grupo_114422" data-name="Grupo 114422" transform="translate(0.464 2.71)">
            <rect id="Rectángulo_36825" data-name="Rectángulo 36825" width="20.41" height="43.062" transform="translate(0 17.253) rotate(-57.708)" fill="#53a07c"/>
          </g>
          <g id="Grupo_114423" data-name="Grupo 114423" transform="translate(13.844 12.826)">
            <circle id="Elipse_4986" data-name="Elipse 4986" cx="7.476" cy="7.476" r="7.476" transform="translate(0 14.069) rotate(-70.205)" fill="#b9edd6"/>
          </g>
          <g id="Grupo_114424" data-name="Grupo 114424" transform="translate(0 0)">
            <rect id="Rectángulo_36826" data-name="Rectángulo 36826" width="20.41" height="43.062" transform="translate(0 17.253) rotate(-57.708)" fill="#7fc6a6"/>
          </g>
          <g id="Grupo_114425" data-name="Grupo 114425" transform="translate(15.4 11.564)">
            <circle id="Elipse_4987" data-name="Elipse 4987" cx="7.476" cy="7.476" r="7.476" transform="translate(0 14.482) rotate(-75.589)" fill="#b9edd6"/>
          </g>
          <g id="Grupo_114428" data-name="Grupo 114428" transform="translate(3.221 3.023)">
            <g id="Grupo_114426" data-name="Grupo 114426">
              <path id="Trazado_159956" data-name="Trazado 159956" d="M757.217,567.1a9.413,9.413,0,0,1,8.548-4.368l-13.045-8.244L743.9,568.455l13.045,8.244A9.413,9.413,0,0,1,757.217,567.1Z" transform="translate(-743.896 -554.492)" fill="#b9edd6"/>
            </g>
            <g id="Grupo_114427" data-name="Grupo 114427" transform="translate(20.692 13.077)">
              <path id="Trazado_159957" data-name="Trazado 159957" d="M920.4,670.236a9.413,9.413,0,0,1-8.548,4.368l11.347,7.171,8.825-13.963-11.347-7.171A9.413,9.413,0,0,1,920.4,670.236Z" transform="translate(-911.856 -660.64)" fill="#b9edd6"/>
            </g>
          </g>
          <g id="Grupo_114429" data-name="Grupo 114429" transform="translate(0 17.253)">
            <path id="Trazado_159958" data-name="Trazado 159958" d="M718.215,672.707l-.464-2.71,3.371,2.13Z" transform="translate(-717.751 -669.997)" fill="#53a07c"/>
          </g>
          <g id="Grupo_114430" data-name="Grupo 114430" transform="translate(45.076 23.005)">
            <path id="Trazado_159959" data-name="Trazado 159959" d="M1085.877,716.691l.464,2.71-2.693.817Z" transform="translate(-1083.648 -716.691)" fill="#53a07c"/>
          </g>
          <g id="Grupo_114431" data-name="Grupo 114431" transform="translate(36.402 23.005)">
            <path id="Trazado_159960" data-name="Trazado 159960" d="M1013.7,736.654l-.464-2.71,10.9-17.253.464,2.71Z" transform="translate(-1013.235 -716.691)" fill="#4b8c6b"/>
          </g>
          <g id="Grupo_114432" data-name="Grupo 114432" transform="translate(17.492 11.055)">
            <rect id="Rectángulo_36827" data-name="Rectángulo 36827" width="20.41" height="2.679" transform="matrix(0.534, -0.845, 0.845, 0.534, 0, 17.253)" fill="#3f9896"/>
          </g>
          <g id="Grupo_114433" data-name="Grupo 114433" transform="translate(17.11 28.308)">
            <path id="Trazado_159961" data-name="Trazado 159961" d="M857.017,759.732l-.383,2.175,2.143,1.354.5-2.1Z" transform="translate(-856.635 -759.732)" fill="#3f9896"/>
          </g>
        </g>
        <g id="Grupo_114435" data-name="Grupo 114435" transform="translate(13.911 12.65)" opacity="0.3" style="mix-blend-mode: multiply;isolation: isolate">
          <path id="Trazado_159962" data-name="Trazado 159962" d="M832.436,522.2l30.5,19.274.464,2.71-1.64,2.6,6.332-3.8-38.709-26.128Z" transform="translate(-829.381 -516.857)" fill="#4b8c6b"/>
        </g>
        <g id="Grupo_114436" data-name="Grupo 114436" transform="translate(0 14.043)">
          <path id="Trazado_159963" data-name="Trazado 159963" d="M756.694,566.4a.159.159,0,0,1-.112-.243l7.637-12.085-.442-2.58L727.57,528.606l-10.818,17.118a.159.159,0,1,1-.269-.17l10.989-17.387,36.6,23.128.487,2.84-7.7,12.188A.159.159,0,0,1,756.694,566.4Z" transform="translate(-716.458 -528.167)"/>
        </g>
        <g id="Grupo_114437" data-name="Grupo 114437" transform="translate(42.195 37.109)">
          <path id="Trazado_159964" data-name="Trazado 159964" d="M1059.1,723.8a.158.158,0,0,1-.062-.023.159.159,0,0,1-.049-.22l5.11-8.086a.159.159,0,1,1,.269.17l-5.11,8.086A.16.16,0,0,1,1059.1,723.8Z" transform="translate(-1058.967 -715.399)"/>
        </g>
        <g id="Grupo_114440" data-name="Grupo 114440" transform="translate(10.817 19.495)">
          <g id="Grupo_114438" data-name="Grupo 114438">
            <path id="Trazado_159965" data-name="Trazado 159965" d="M804.4,572.738a.159.159,0,0,1,.037-.316l2.886.25a.162.162,0,0,1,.145.172.159.159,0,0,1-.172.145l-2.886-.25Z" transform="translate(-804.262 -572.421)"/>
          </g>
          <g id="Grupo_114439" data-name="Grupo 114439" transform="translate(0.325 0.888)">
            <path id="Trazado_159966" data-name="Trazado 159966" d="M807.036,579.944a.159.159,0,0,1,.037-.316l2.886.25a.163.163,0,0,1,.145.172.159.159,0,0,1-.172.145l-2.886-.25Z" transform="translate(-806.9 -579.627)"/>
          </g>
        </g>
        <g id="Grupo_114443" data-name="Grupo 114443" transform="translate(31.788 10.599)">
          <g id="Grupo_114441" data-name="Grupo 114441">
            <path id="Trazado_159967" data-name="Trazado 159967" d="M974.627,500.53a.159.159,0,0,1,.037-.316l2.886.25a.161.161,0,0,1,.145.172.159.159,0,0,1-.172.145l-2.886-.25Z" transform="translate(-974.491 -500.213)"/>
          </g>
          <g id="Grupo_114442" data-name="Grupo 114442" transform="translate(0.325 0.888)">
            <path id="Trazado_159968" data-name="Trazado 159968" d="M977.264,507.737a.159.159,0,0,1,.037-.316l2.886.25a.159.159,0,1,1-.028.317l-2.886-.25Z" transform="translate(-977.128 -507.42)"/>
          </g>
        </g>
        <g id="Grupo_114444" data-name="Grupo 114444" transform="translate(13.805)">
          <path id="Trazado_159969" data-name="Trazado 159969" d="M868.095,450.547a.16.16,0,0,1-.114-.076l-21.5-35.861L829.61,424.726l-.747,2.436,2.952,4.924a.159.159,0,0,1-.273.164l-3.025-5.046.824-2.688.052-.031,17.2-10.31,21.663,36.134a.159.159,0,0,1-.159.239Z" transform="translate(-828.517 -414.174)"/>
        </g>
      </g>
      <g id="Grupo_114447" data-name="Grupo 114447" transform="translate(346.709 346.455)">
        <g id="Grupo_114446" data-name="Grupo 114446">
          <path id="Trazado_159970" data-name="Trazado 159970" d="M1520.4,798.925s4.676-2.592,15.773,1.293,19.11,16.214,22.193,24.352,6.658,31.686,4.685,34.152-45.494-21.13-45.494-21.13l-2.877-30.559Z" transform="translate(-1514.679 -798.078)" fill="#4cb7d8"/>
        </g>
      </g>
      <g id="Grupo_114448" data-name="Grupo 114448" transform="translate(309.755 455.244)">
        <path id="Trazado_159971" data-name="Trazado 159971" d="M1218.176,1681.154l-3.467,6.848,10.449,6.005,2.441-4.818-.778-4.152Z" transform="translate(-1214.708 -1681.154)" fill="#fe9f73"/>
      </g>
      <g id="Grupo_114451" data-name="Grupo 114451" transform="translate(299.94 462.092)">
        <g id="Grupo_114450" data-name="Grupo 114450" transform="translate(0 0)">
          <g id="Grupo_114449" data-name="Grupo 114449">
            <path id="Trazado_159972" data-name="Trazado 159972" d="M1153.828,1744.92H1136.57a2.679,2.679,0,0,1-.376-.083c-1.245-.4-1.206-1.186-1.121-1.526a.407.407,0,0,1,.172-.242l9.607-6.329,3.151,1.417a10.041,10.041,0,0,0,3.167.849c2.237.218,5.859.334,6.572-1.079l-.147,5.425S1158.1,1744.961,1153.828,1744.92Z" transform="translate(-1135.036 -1736.741)" fill="#ef3a4c"/>
          </g>
        </g>
      </g>
      <g id="Grupo_114452" data-name="Grupo 114452" transform="translate(308.282 399.207)">
        <path id="Trazado_159973" data-name="Trazado 159973" d="M1221.614,1226.287s-14.672,40.44-18.864,58.071c0,0,7.151,7.028,16.151,6.288l12.576-27.988Z" transform="translate(-1202.75 -1226.287)" fill="#ef3a4c"/>
      </g>
      <g id="Grupo_114454" data-name="Grupo 114454" transform="translate(337.315 421.154)">
        <g id="Grupo_114453" data-name="Grupo 114453" transform="translate(0 0)">
          <path id="Trazado_159974" data-name="Trazado 159974" d="M1456.27,1407.2l6.711,27.352.662,12-2.442,4.817-9.74-3.652-13.041-43.292Z" transform="translate(-1438.421 -1404.431)" fill="#fe9f73"/>
        </g>
      </g>
      <g id="Grupo_114455" data-name="Grupo 114455" transform="translate(325.565 388.108)">
        <path id="Trazado_159975" data-name="Trazado 159975" d="M1355.842,1136.225s-10.463-1.08-12.658,8.694c-1.238,5.513,5.837,28.282,11.549,44.829,3.546,10.271,7.551,20.236,7.551,20.236s12.984.308,19.373-4.254l-8.63-38.645s23.255,7.575,31.639.671,7.891-12.576,7.891-12.576l-16.768-13.439Z" transform="translate(-1343.042 -1136.19)" fill="#ff424d"/>
      </g>
      <g id="Grupo_114456" data-name="Grupo 114456" transform="translate(339.037 377.44)">
        <path id="Trazado_159976" data-name="Trazado 159976" d="M1494.2,1053.8l-16.892-4.2-.208,9.439s-10.78-2.294-18.348-3.487l-6.356,9.214c1.516.405,9.256,2.566,11.442,3.518,0,0,21.114,8.877,26.046,6.781S1494.2,1053.8,1494.2,1053.8Z" transform="translate(-1452.402 -1049.598)" fill="#fe9f73"/>
      </g>
      <g id="Grupo_114458" data-name="Grupo 114458" transform="translate(363.663 386.719)">
        <g id="Grupo_114457" data-name="Grupo 114457" transform="translate(0 0)">
          <path id="Trazado_159977" data-name="Trazado 159977" d="M1655.98,1128.125a.154.154,0,0,0,.1-.273l-3.528-2.9a.154.154,0,0,0-.2.238l3.528,2.9A.153.153,0,0,0,1655.98,1128.125Z" transform="translate(-1652.299 -1124.913)" fill="#f07162"/>
        </g>
      </g>
      <g id="Grupo_114459" data-name="Grupo 114459" transform="translate(337.315 345.522)">
        <path id="Trazado_159978" data-name="Trazado 159978" d="M1439.132,790.512a1.267,1.267,0,0,0-.123,1.363c.339.909,2.511,5.394,2.511,5.394s-3.1,26.733-3.1,31.144,14.243,2.311,14.243,2.311-2.774-33.047-4.439-34.569S1439.132,790.512,1439.132,790.512Z" transform="translate(-1438.421 -790.512)" fill="#f9956e"/>
      </g>
      <g id="Grupo_114464" data-name="Grupo 114464" transform="translate(336.602 335.323)">
        <g id="Grupo_114463" data-name="Grupo 114463" transform="translate(0 0)">
          <g id="Grupo_114462" data-name="Grupo 114462">
            <g id="Grupo_114461" data-name="Grupo 114461">
              <g id="Grupo_114460" data-name="Grupo 114460">
                <path id="Trazado_159979" data-name="Trazado 159979" d="M1432.635,716.2l5.719,7.7s1.735,2.552,4.131,1.252l2.049,3.6a3.21,3.21,0,0,0,3.824,1.466,8.42,8.42,0,0,0,2.279-1.2,5.15,5.15,0,0,0,1.953-5.772c-.483-1.081-4.4-5.056-4.4-5.056l-1.543-2.235-6.553-8.233Z" transform="translate(-1432.635 -707.718)" fill="#fe9f73"/>
              </g>
            </g>
          </g>
        </g>
      </g>
      <g id="Grupo_114469" data-name="Grupo 114469" transform="translate(346.451 346.921)">
        <g id="Grupo_114468" data-name="Grupo 114468" transform="translate(0 0)">
          <g id="Grupo_114467" data-name="Grupo 114467">
            <g id="Grupo_114466" data-name="Grupo 114466">
              <g id="Grupo_114465" data-name="Grupo 114465">
                <path id="Trazado_159980" data-name="Trazado 159980" d="M1516.044,801.863s2.932,4.25-1.948,8.489l-1.511-2.657S1516.441,805.876,1516.044,801.863Z" transform="translate(-1512.585 -801.863)" fill="#f07162"/>
              </g>
            </g>
          </g>
        </g>
      </g>
      <g id="Grupo_114474" data-name="Grupo 114474" transform="translate(342.476 343.137)">
        <g id="Grupo_114473" data-name="Grupo 114473" transform="translate(0 0)">
          <g id="Grupo_114472" data-name="Grupo 114472">
            <g id="Grupo_114471" data-name="Grupo 114471">
              <g id="Grupo_114470" data-name="Grupo 114470">
                <path id="Trazado_159981" data-name="Trazado 159981" d="M1483.414,771.411a.129.129,0,0,0-.055-.23c-.025,0-2.521-.4-3.042,1.606a.128.128,0,0,0,.249.064c.461-1.778,2.657-1.432,2.75-1.417A.129.129,0,0,0,1483.414,771.411Z" transform="translate(-1480.313 -771.146)"/>
              </g>
            </g>
          </g>
        </g>
      </g>
      <g id="Grupo_114477" data-name="Grupo 114477" transform="translate(343.646 337.379)">
        <g id="Grupo_114476" data-name="Grupo 114476" transform="translate(0 0)">
          <g id="Grupo_114475" data-name="Grupo 114475">
            <path id="Trazado_159982" data-name="Trazado 159982" d="M1494.491,726.708l-1.882,2.117-.092.715s-2.579-3.874-2.7-4.919S1494.491,726.708,1494.491,726.708Z" transform="translate(-1489.81 -724.408)"/>
          </g>
        </g>
      </g>
      <g id="Grupo_114482" data-name="Grupo 114482" transform="translate(338.894 345.703)">
        <g id="Grupo_114481" data-name="Grupo 114481" transform="translate(0 0)">
          <g id="Grupo_114480" data-name="Grupo 114480">
            <g id="Grupo_114479" data-name="Grupo 114479">
              <g id="Grupo_114478" data-name="Grupo 114478">
                <path id="Trazado_159983" data-name="Trazado 159983" d="M1453.208,792.213a.129.129,0,0,0-.067-.231c-.068-.005-1.677-.116-1.9.88a.128.128,0,0,0,.251.057c.177-.78,1.618-.681,1.633-.68A.127.127,0,0,0,1453.208,792.213Z" transform="translate(-1451.236 -791.976)"/>
              </g>
            </g>
          </g>
        </g>
      </g>
      <g id="Grupo_114487" data-name="Grupo 114487" transform="translate(343.725 344.752)">
        <g id="Grupo_114486" data-name="Grupo 114486">
          <g id="Grupo_114485" data-name="Grupo 114485">
            <g id="Grupo_114484" data-name="Grupo 114484">
              <g id="Grupo_114483" data-name="Grupo 114483">
                <path id="Trazado_159984" data-name="Trazado 159984" d="M1490.529,784.871a.385.385,0,1,0,.08-.539A.385.385,0,0,0,1490.529,784.871Z" transform="translate(-1490.453 -784.256)"/>
              </g>
            </g>
          </g>
        </g>
      </g>
      <g id="Grupo_114492" data-name="Grupo 114492" transform="translate(340.207 346.885)">
        <g id="Grupo_114491" data-name="Grupo 114491">
          <g id="Grupo_114490" data-name="Grupo 114490">
            <g id="Grupo_114489" data-name="Grupo 114489">
              <g id="Grupo_114488" data-name="Grupo 114488">
                <path id="Trazado_159985" data-name="Trazado 159985" d="M1461.972,802.188a.385.385,0,1,0,.08-.539A.385.385,0,0,0,1461.972,802.188Z" transform="translate(-1461.896 -801.573)"/>
              </g>
            </g>
          </g>
        </g>
      </g>
      <g id="Grupo_114497" data-name="Grupo 114497" transform="translate(345.82 339.67)">
        <g id="Grupo_114496" data-name="Grupo 114496" transform="translate(0 0)">
          <g id="Grupo_114495" data-name="Grupo 114495">
            <g id="Grupo_114494" data-name="Grupo 114494">
              <g id="Grupo_114493" data-name="Grupo 114493">
                <path id="Trazado_159986" data-name="Trazado 159986" d="M1507.916,746.7a2.312,2.312,0,1,0,.477-3.235A2.312,2.312,0,0,0,1507.916,746.7Z" transform="translate(-1507.46 -743.009)" fill="#fe9f73"/>
              </g>
            </g>
          </g>
        </g>
      </g>
      <g id="Grupo_114502" data-name="Grupo 114502" transform="translate(347.47 340.253)">
        <g id="Grupo_114501" data-name="Grupo 114501">
          <g id="Grupo_114500" data-name="Grupo 114500">
            <g id="Grupo_114499" data-name="Grupo 114499">
              <g id="Grupo_114498" data-name="Grupo 114498">
                <path id="Trazado_159987" data-name="Trazado 159987" d="M1522.6,750.259a.964.964,0,0,0,.3-1.12.905.905,0,0,0-.923-.631,1.087,1.087,0,0,0-.949.758,1.044,1.044,0,0,1,.035-.735,1.45,1.45,0,0,1,.784-.665.064.064,0,1,0-.04-.122,1.557,1.557,0,0,0-.861.733,1.249,1.249,0,0,0,.029,1.028l.089.213.034-.228a1.006,1.006,0,0,1,.89-.853.785.785,0,0,1,.792.547.828.828,0,0,1-.253.972l-.011.008a.064.064,0,0,0,.076.1Z" transform="translate(-1520.849 -747.741)" fill="#f07162"/>
              </g>
            </g>
          </g>
        </g>
      </g>
      <g id="Grupo_114507" data-name="Grupo 114507" transform="translate(341.313 345.87)">
        <g id="Grupo_114506" data-name="Grupo 114506">
          <g id="Grupo_114505" data-name="Grupo 114505">
            <g id="Grupo_114504" data-name="Grupo 114504">
              <g id="Grupo_114503" data-name="Grupo 114503">
                <path id="Trazado_159988" data-name="Trazado 159988" d="M1473.821,795.725a.064.064,0,0,0-.059-.112l-1.287.426-1.48-2.675a.064.064,0,0,0-.087-.025.063.063,0,0,0-.025.087l1.532,2.768,1.389-.459A.063.063,0,0,0,1473.821,795.725Z" transform="translate(-1470.874 -793.33)" fill="#f07162"/>
              </g>
            </g>
          </g>
        </g>
      </g>
      <g id="Grupo_114508" data-name="Grupo 114508" transform="translate(344.692 347.97)">
        <path id="Trazado_159989" data-name="Trazado 159989" d="M1498.411,811.63a.1.1,0,0,1-.075-.176,6.5,6.5,0,0,1,1.458-1.06.1.1,0,1,1,.1.183,6.393,6.393,0,0,0-1.407,1.021A.1.1,0,0,1,1498.411,811.63Z" transform="translate(-1498.306 -810.382)" fill="#f07162"/>
      </g>
      <g id="Grupo_114513" data-name="Grupo 114513" transform="translate(336.498 343.698)">
        <g id="Grupo_114512" data-name="Grupo 114512" transform="translate(0 0)">
          <g id="Grupo_114511" data-name="Grupo 114511">
            <g id="Grupo_114510" data-name="Grupo 114510">
              <g id="Grupo_114509" data-name="Grupo 114509">
                <path id="Trazado_159990" data-name="Trazado 159990" d="M1446.419,790.106a3.023,3.023,0,0,1-2.722-1.708l-1.788-3.493c-2.4,1.211-4.358-1.313-4.378-1.339l-5.719-7.7a.1.1,0,1,1,.167-.124l5.719,7.7c.077.1,1.918,2.473,4.207,1.232l.094-.051,1.888,3.688a2.771,2.771,0,0,0,2.728,1.582.1.1,0,0,1,.11.1.1.1,0,0,1-.1.11C1446.555,790.1,1446.486,790.106,1446.419,790.106Z" transform="translate(-1431.791 -775.7)" fill="#f07162"/>
              </g>
            </g>
          </g>
        </g>
      </g>
      <g id="Grupo_114516" data-name="Grupo 114516" transform="translate(332.501 334.999)">
        <g id="Grupo_114515" data-name="Grupo 114515" transform="translate(0 0)">
          <g id="Grupo_114514" data-name="Grupo 114514">
            <path id="Trazado_159991" data-name="Trazado 159991" d="M1415.175,709.773s-2.058-4.08-4.166-4.6S1400.8,707,1400.53,708.249s1.108,1.492,1.108,1.492-3.158,1.076-2.055,3.766,7.3-.422,9.788-3.911A9.1,9.1,0,0,1,1415.175,709.773Z" transform="translate(-1399.35 -705.093)"/>
          </g>
        </g>
      </g>
      <g id="Grupo_114517" data-name="Grupo 114517" transform="translate(354.209 350.018)">
        <path id="Trazado_159992" data-name="Trazado 159992" d="M1575.766,835.189a.208.208,0,0,1-.064-.406c4.331-1.4,2.656-7.451,2.638-7.512a.208.208,0,1,1,.4-.115c.019.065,1.8,6.5-2.91,8.023A.207.207,0,0,1,1575.766,835.189Z" transform="translate(-1575.557 -827.006)" fill="#21111d"/>
      </g>
      <g id="Grupo_114518" data-name="Grupo 114518" transform="translate(358.837 349.482)">
        <path id="Trazado_159993" data-name="Trazado 159993" d="M1636.3,855.307l-20.557-5.1-.027-.128c-.027-.128-2.685-12.9-2.594-19.594.093-6.817,2.621-7.784,2.728-7.822a.208.208,0,0,1,.14.392c-.038.015-2.363.979-2.452,7.436-.086,6.291,2.28,18.02,2.558,19.375l19.76,4.9c-.1-2.048-.732-14.765-1.28-19.356a.208.208,0,0,1,.413-.049c.595,4.989,1.289,19.518,1.3,19.665Z" transform="translate(-1613.124 -822.65)" fill="#21111d"/>
      </g>
      <g id="Grupo_114519" data-name="Grupo 114519" transform="translate(380.845 364.934)">
        <path id="Trazado_159994" data-name="Trazado 159994" d="M1791.979,951.369a.208.208,0,0,1-.161-.339,17.244,17.244,0,0,0,1.453-2.819.208.208,0,0,1,.385.16,17.2,17.2,0,0,1-1.514,2.921A.209.209,0,0,1,1791.979,951.369Z" transform="translate(-1791.771 -948.083)" fill="#21111d"/>
      </g>
      <g id="Grupo_114520" data-name="Grupo 114520" transform="translate(360.266 370.419)">
        <path id="Trazado_159995" data-name="Trazado 159995" d="M1646.015,999.645a.208.208,0,0,1-.109-.031c-3.726-2.311-20.852-6.553-21.025-6.6a.208.208,0,1,1,.1-.4c.707.174,17.363,4.3,21.145,6.646a.208.208,0,0,1-.11.385Z" transform="translate(-1624.722 -992.608)" fill="#21111d"/>
      </g>
      <g id="Grupo_114521" data-name="Grupo 114521" transform="translate(325.444 388.702)">
        <path id="Trazado_159996" data-name="Trazado 159996" d="M1361.469,1214.421h-.187l-.052-.128c-5.429-13.238-21.215-58.931-18.951-65.909a11.418,11.418,0,0,1,7-7.362.208.208,0,0,1,.114.4,10.994,10.994,0,0,0-6.721,7.09c-2.227,6.863,13.423,52.125,18.887,65.494,1.088,0,8.342-.094,13.573-1.691a.208.208,0,0,1,.121.4C1369.786,1214.382,1362.15,1214.421,1361.469,1214.421Z" transform="translate(-1342.058 -1141.013)" fill="#21111d"/>
      </g>
      <g id="Grupo_114522" data-name="Grupo 114522" transform="translate(354.689 415.208)">
        <path id="Trazado_159997" data-name="Trazado 159997" d="M1582.872,1370.819a.208.208,0,0,1-.2-.162l-3.212-14.232a.208.208,0,1,1,.406-.092l3.212,14.232a.207.207,0,0,1-.2.254Z" transform="translate(-1579.452 -1356.171)" fill="#21111d"/>
      </g>
      <g id="Grupo_114532" data-name="Grupo 114532" transform="translate(355.524 418.891)">
        <path id="Trazado_160003" data-name="Trazado 160003" d="M1598.984,1389.2a103.24,103.24,0,0,1-12.6-2.722.208.208,0,1,1,.115-.4c.1.028,10.052,2.874,15.853,2.983a.208.208,0,1,1-.008.416A30.957,30.957,0,0,1,1598.984,1389.2Z" transform="translate(-1586.23 -1386.066)" fill="#21111d"/>
      </g>
      <g id="Grupo_114549" data-name="Grupo 114549" transform="translate(331.632 382.699)">
        <g id="Grupo_114533" data-name="Grupo 114533" transform="translate(0 0)">
          <path id="Trazado_160004" data-name="Trazado 160004" d="M1398.458,1102.216h0a34.525,34.525,0,0,1,6.531.588l.009-.01,7.9,1.634.189-10.224s-9.314-1.772-10.689-1.911-6.144.927-7.665,1.986c-2.759,1.921-1.186,2.2-1.186,2.2-2.679,2.264-.072,2.414-.072,2.414-2.578,1.818-.15,2.434-.15,2.434-1.284,1.118-1.08,1.726-.687,2.039a1.165,1.165,0,0,0,1.029.2c.829-.222,2.905-.787,4.788-1.353Z" transform="translate(-1392.292 -1092.281)" fill="#fe9f73"/>
        </g>
        <g id="Grupo_114538" data-name="Grupo 114538" transform="translate(0.869 7.548)">
          <g id="Grupo_114537" data-name="Grupo 114537">
            <g id="Grupo_114536" data-name="Grupo 114536">
              <g id="Grupo_114535" data-name="Grupo 114535">
                <g id="Grupo_114534" data-name="Grupo 114534">
                  <path id="Trazado_160005" data-name="Trazado 160005" d="M1402.595,1153.547a.166.166,0,0,1,.042.325,20.421,20.421,0,0,0-3.042,1.325.166.166,0,0,1-.157-.293,20.393,20.393,0,0,1,3.106-1.351A.166.166,0,0,1,1402.595,1153.547Z" transform="translate(-1399.349 -1153.547)" fill="#f07162"/>
                </g>
              </g>
            </g>
          </g>
        </g>
        <g id="Grupo_114543" data-name="Grupo 114543" transform="translate(1.02 5.445)">
          <g id="Grupo_114542" data-name="Grupo 114542">
            <g id="Grupo_114541" data-name="Grupo 114541">
              <g id="Grupo_114540" data-name="Grupo 114540">
                <g id="Grupo_114539" data-name="Grupo 114539">
                  <path id="Trazado_160006" data-name="Trazado 160006" d="M1403.729,1136.477a.166.166,0,0,1,.02.33,10.32,10.32,0,0,0-2.932.988.166.166,0,1,1-.159-.292,10.464,10.464,0,0,1,3.04-1.025Z" transform="translate(-1400.572 -1136.477)" fill="#f07162"/>
                </g>
              </g>
            </g>
          </g>
        </g>
        <g id="Grupo_114548" data-name="Grupo 114548" transform="translate(1.092 3.036)">
          <g id="Grupo_114547" data-name="Grupo 114547">
            <g id="Grupo_114546" data-name="Grupo 114546">
              <g id="Grupo_114545" data-name="Grupo 114545">
                <g id="Grupo_114544" data-name="Grupo 114544">
                  <path id="Trazado_160007" data-name="Trazado 160007" d="M1403.943,1116.921a.166.166,0,0,1,.025.329,8.872,8.872,0,0,0-2.562.981.166.166,0,1,1-.171-.285,9.065,9.065,0,0,1,2.672-1.022A.159.159,0,0,1,1403.943,1116.921Z" transform="translate(-1401.154 -1116.921)" fill="#f07162"/>
                </g>
              </g>
            </g>
          </g>
        </g>
      </g>
      <g id="Grupo_114550" data-name="Grupo 114550" transform="translate(329.641 399.473)">
        <path id="Trazado_160008" data-name="Trazado 160008" d="M1376.343,1233.949a.208.208,0,0,1-.208-.2,12.185,12.185,0,0,1,1.085-5.182.208.208,0,0,1,.372.186,11.992,11.992,0,0,0-1.042,4.99.208.208,0,0,1-.2.211Z" transform="translate(-1376.133 -1228.447)" fill="#21111d"/>
      </g>
      <g id="Grupo_114551" data-name="Grupo 114551" transform="translate(330.694 401.415)">
        <path id="Trazado_160009" data-name="Trazado 160009" d="M1384.9,1249.2a.208.208,0,0,1-.207-.192,13.7,13.7,0,0,1,.938-4.668.208.208,0,0,1,.389.149,13.575,13.575,0,0,0-.911,4.487.208.208,0,0,1-.191.224Z" transform="translate(-1384.675 -1244.209)" fill="#21111d"/>
      </g>
      <g id="Grupo_114552" data-name="Grupo 114552" transform="translate(308.056 402.301)">
        <path id="Trazado_160010" data-name="Trazado 160010" d="M1216.46,1312.886a21.21,21.21,0,0,1-15.478-6.377l-.067-.079.023-.1c3.416-14.882,17.542-54.4,17.684-54.793a.208.208,0,1,1,.392.14c-.142.4-14.195,39.7-17.646,54.641a20.972,20.972,0,0,0,15.917,6.138.2.2,0,0,1,.215.2.208.208,0,0,1-.2.215C1217.017,1312.881,1216.736,1312.886,1216.46,1312.886Z" transform="translate(-1200.915 -1251.398)" fill="#21111d"/>
      </g>
      <g id="Grupo_114555" data-name="Grupo 114555" transform="translate(339.832 462.092)">
        <g id="Grupo_114554" data-name="Grupo 114554" transform="translate(0 0)">
          <g id="Grupo_114553" data-name="Grupo 114553">
            <path id="Trazado_160011" data-name="Trazado 160011" d="M1477.661,1744.92h-17.269a2.669,2.669,0,0,1-.376-.083c-1.108-.359-1.2-1.018-1.148-1.4a.591.591,0,0,1,.262-.413l9.541-6.285,3.151,1.417a10.043,10.043,0,0,0,3.167.849c2.236.218,5.859.334,6.572-1.079l-.147,5.425S1481.936,1744.961,1477.661,1744.92Z" transform="translate(-1458.857 -1736.741)" fill="#ef3a4c"/>
          </g>
        </g>
      </g>
      <g id="Grupo_114556" data-name="Grupo 114556" transform="translate(362.981 421.525)">
        <path id="Trazado_160012" data-name="Trazado 160012" d="M1886.7,1469.887h-1.385l-3.246-46.473h1.385Z" transform="translate(-1853.078 -1421.447)" fill="#f9bb78"/>
        <path id="Trazado_160013" data-name="Trazado 160013" d="M1662.076,1469.887h1.385l3.246-46.473h-1.385Z" transform="translate(-1660.188 -1421.447)" fill="#f9bb78"/>
        <path id="Trazado_160014" data-name="Trazado 160014" d="M1680.991,1409.991h-32.959a1.274,1.274,0,0,1-1.274-1.274h0a1.274,1.274,0,0,1,1.274-1.274h32.959a1.274,1.274,0,0,1,1.274,1.274h0A1.274,1.274,0,0,1,1680.991,1409.991Z" transform="translate(-1646.758 -1407.443)" fill="#4c222e"/>
        <rect id="Rectángulo_36830" data-name="Rectángulo 36830" width="25.853" height="1.319" transform="translate(4.713 18.368)" fill="#f9bb78"/>
      </g>
      <g id="Grupo_114560" data-name="Grupo 114560" transform="translate(402.904 435.919)">
        <g id="Grupo_114557" data-name="Grupo 114557">
          <path id="Trazado_160015" data-name="Trazado 160015" d="M1970.827,1555.4c1.4-1.4,12.306-20.976,19.857-10.907,0,0,12.341-28.387,27.968-22.829,0,0,9.963,5.768,2.727,20.137,0,0,24.122-1.538,23.808,13.6Z" transform="translate(-1970.827 -1520.945)" fill="#258d8c"/>
        </g>
        <g id="Grupo_114558" data-name="Grupo 114558" transform="translate(35.928 2.257)">
          <path id="Trazado_160016" data-name="Trazado 160016" d="M2262.63,1543.09a.162.162,0,0,1-.1-.29c.162-.127,3.992-3.114,7.493-3.534a.163.163,0,0,1,.039.323c-3.409.409-7.291,3.436-7.33,3.467A.162.162,0,0,1,2262.63,1543.09Z" transform="translate(-2262.467 -1539.264)"/>
        </g>
        <g id="Grupo_114559" data-name="Grupo 114559" transform="translate(35.928 4.564)">
          <path id="Trazado_160017" data-name="Trazado 160017" d="M2262.63,1561.4a.162.162,0,0,1-.1-.289,19.4,19.4,0,0,1,6-3.106.162.162,0,1,1,.091.312,19.056,19.056,0,0,0-5.886,3.047A.162.162,0,0,1,2262.63,1561.4Z" transform="translate(-2262.467 -1557.994)"/>
        </g>
      </g>
      <g id="Grupo_114562" data-name="Grupo 114562" transform="translate(457.304 424.273)">
        <ellipse id="Elipse_4988" data-name="Elipse 4988" cx="7.905" cy="4.235" rx="7.905" ry="4.235" transform="translate(0 12.171) rotate(-50.345)" fill="#258d8c"/>
      </g>
      <g id="Grupo_114563" data-name="Grupo 114563" transform="translate(463.613 439.983)">
        <ellipse id="Elipse_4989" data-name="Elipse 4989" cx="4.679" cy="2.507" rx="4.679" ry="2.507" transform="matrix(0.638, -0.77, 0.77, 0.638, 0, 7.205)" fill="#258d8c"/>
      </g>
      <g id="Grupo_114564" data-name="Grupo 114564" transform="translate(191.264 336.164)">
        <path id="Trazado_160019" data-name="Trazado 160019" d="M253.79,728.688c4.6-.313,20.385-1.219,31.208.218a1.5,1.5,0,0,0,1.286-2.524,4.58,4.58,0,0,0-3.178-1.162s.407-10.089-7.218-10.642c-8.745-.633-8.7,9.272-8.7,9.272s-4.027-3.708-6.817,1.113c0,0-4.991-2.785-7.407,2.535A.843.843,0,0,0,253.79,728.688Z" transform="translate(-252.888 -714.551)" fill="#fff"/>
      </g>
      <g id="Grupo_114565" data-name="Grupo 114565" transform="translate(239.131 368.647)">
        <path id="Trazado_160020" data-name="Trazado 160020" d="M665.714,990.157a146.428,146.428,0,0,0-18.846.051,5.006,5.006,0,0,1-5.435-5.071,7.654,7.654,0,0,1,1.587-4.221c4.333-6.153,11.864-.277,11.792,2.847,0,0,1.523-4.7,6.147-3.88s2.989,7.664,2.989,7.664a3.719,3.719,0,0,1,2.527.391A1.218,1.218,0,0,1,665.714,990.157Z" transform="translate(-641.432 -978.22)" fill="#fff"/>
      </g>
      <g id="Grupo_114566" data-name="Grupo 114566" transform="translate(416.325 369.346)">
        <path id="Trazado_160021" data-name="Trazado 160021" d="M2081.775,995.721c6.233-.067,21.425-.012,30.47,1.879a1.452,1.452,0,0,0,1.466-2.287,4.863,4.863,0,0,0-3.6-1.648s2.3-8.362-5.844-9.64c-8.369-1.313-9.006,7.586-9.006,7.586s-4.647-4.959-7.371.683c0,0-5.064-2.579-7.587.106A1.976,1.976,0,0,0,2081.775,995.721Z" transform="translate(-2079.769 -983.893)" fill="#fff"/>
      </g>
    </g>
  </g>
</svg>
