<svg xmlns="http://www.w3.org/2000/svg" width="59" height="58.106" viewBox="0 0 59 58.106">
  <g id="objetivo" transform="translate(0 -0.058)">
    <path id="Trazado_156114" data-name="Trazado 156114" d="M43.725,35.752,51.5,28.057c2.9-2.9,8.49.76,5.472,4.31L47.557,43.445A6.605,6.605,0,0,1,46.3,44.588a9.393,9.393,0,0,1-5.107,1.293H27.218a26.219,26.219,0,0,0-3.024.175l-4.019.451-8.336-8.089s4.729-8.93,14-6.363a19.974,19.974,0,0,0,5.33.709h9.183c4.323,0,4.357,6.869-.036,6.869H32.326" fill="#ffcdac"/>
    <path id="Trazado_156115" data-name="Trazado 156115" d="M14.7,57.034l7.93-8.136a.006.006,0,0,0,0-.008L9.173,35.832a.006.006,0,0,0-.008,0l-8,8.31Zm0,0" fill="#6bd5e1"/>
    <path id="Trazado_156116" data-name="Trazado 156116" d="M10.676,11.56A4.954,4.954,0,0,0,6.2,16.491v5.274a1.649,1.649,0,0,0,1.649,1.649H19.154A1.649,1.649,0,0,0,20.8,21.765V16.491a4.953,4.953,0,0,0-4.486-4.931" fill="#ffb677"/>
    <path id="Trazado_156117" data-name="Trazado 156117" d="M19.034,6.783A5.534,5.534,0,1,1,13.5,1.248a5.534,5.534,0,0,1,5.534,5.534Zm0,0" fill="#ffcdac"/>
    <path id="Trazado_156118" data-name="Trazado 156118" d="M25.284,11.56A4.954,4.954,0,0,0,20.8,16.491v5.274a1.65,1.65,0,0,0,1.65,1.649H33.762a1.649,1.649,0,0,0,1.649-1.649V16.491a4.954,4.954,0,0,0-4.486-4.931" fill="#ff8364"/>
    <path id="Trazado_156119" data-name="Trazado 156119" d="M33.642,6.783a5.534,5.534,0,1,1-5.534-5.534,5.534,5.534,0,0,1,5.534,5.534Zm0,0" fill="#ffcdac"/>
    <path id="Trazado_156120" data-name="Trazado 156120" d="M39.892,11.56a4.954,4.954,0,0,0-4.481,4.931v5.274a1.65,1.65,0,0,0,1.649,1.649H48.37a1.65,1.65,0,0,0,1.65-1.649V16.491a4.954,4.954,0,0,0-4.487-4.931" fill="#ffd98e"/>
    <path id="Trazado_156121" data-name="Trazado 156121" d="M48.25,6.783a5.534,5.534,0,1,1-5.534-5.534A5.534,5.534,0,0,1,48.25,6.783Zm0,0" fill="#ffcdac"/>
    <path id="Trazado_156122" data-name="Trazado 156122" d="M57.606,27.2a5.344,5.344,0,0,0-3.3-1.381,4.719,4.719,0,0,0-3.625,1.38l-6.56,6.491a4.354,4.354,0,0,0-.444-.633,4.253,4.253,0,0,0-3.323-1.486H31.174a18.836,18.836,0,0,1-5.021-.667,12.354,12.354,0,0,0-11.524,2.438,16.761,16.761,0,0,0-3,3.221l-1.647-1.6a1.171,1.171,0,0,0-.812-.33H9.162A1.173,1.173,0,0,0,8.329,35l-8,8.31A1.161,1.161,0,0,0,.36,44.952L13.9,57.844a1.16,1.16,0,0,0,1.632-.03l7.93-8.136a1.167,1.167,0,0,0-.023-1.652l-.691-.67,1.58-.178a25.118,25.118,0,0,1,2.891-.167H41.191a10.49,10.49,0,0,0,5.732-1.476l.038-.025a7.735,7.735,0,0,0,1.48-1.344l9.416-11.077a4.054,4.054,0,0,0-.251-5.886ZM14.669,55.372,2.806,44.076,9.2,37.442,20.99,48.887Zm41.42-23.787L46.673,42.663a5.425,5.425,0,0,1-1.019.929,8.254,8.254,0,0,1-4.463,1.1H27.218a27.406,27.406,0,0,0-3.154.183l-3.474.39L13.316,38.2a14.476,14.476,0,0,1,2.781-3.06,9.991,9.991,0,0,1,9.437-2,21.154,21.154,0,0,0,5.64.751h9.184a2.1,2.1,0,0,1,2.09,2.273,2.514,2.514,0,0,1-.543,1.611,1.972,1.972,0,0,1-1.583.664H32.327a1.161,1.161,0,0,0,0,2.321h7.994a4.3,4.3,0,0,0,3.352-1.483,4.767,4.767,0,0,0,1.093-2.957l7.556-7.476a2.717,2.717,0,0,1,3.711.062,1.748,1.748,0,0,1,.056,2.676Zm0,0"/>
    <path id="Trazado_156123" data-name="Trazado 156123" d="M28.707,39.295a1.16,1.16,0,1,0-2.26.53l.011.047a1.161,1.161,0,0,0,1.129.9,1.174,1.174,0,0,0,.266-.031,1.161,1.161,0,0,0,.865-1.395Zm0,0"/>
    <path id="Trazado_156124" data-name="Trazado 156124" d="M7.845,24.545H19.154a2.793,2.793,0,0,0,1.649-.537,2.793,2.793,0,0,0,1.649.537h11.31a2.793,2.793,0,0,0,1.649-.537,2.793,2.793,0,0,0,1.649.537H48.37a2.813,2.813,0,0,0,2.81-2.81V16.461a6.086,6.086,0,0,0-3.31-5.441,6.695,6.695,0,1,0-10.309,0,6.08,6.08,0,0,0-2.149,1.843,6.068,6.068,0,0,0-2.15-1.843,6.695,6.695,0,1,0-10.309,0,6.068,6.068,0,0,0-2.15,1.843,6.074,6.074,0,0,0-2.15-1.843,6.694,6.694,0,1,0-10.309,0,6.086,6.086,0,0,0-3.31,5.441v5.273a2.814,2.814,0,0,0,2.81,2.81ZM42.716,2.379a4.374,4.374,0,1,1-4.374,4.374A4.378,4.378,0,0,1,42.716,2.379ZM39.7,12.727a6.671,6.671,0,0,0,6.03,0,3.771,3.771,0,0,1,3.128,3.734v5.274a.489.489,0,0,1-.489.489H37.061a.489.489,0,0,1-.488-.489V16.461A3.771,3.771,0,0,1,39.7,12.727ZM28.108,2.379a4.374,4.374,0,1,1-4.374,4.374A4.378,4.378,0,0,1,28.108,2.379ZM25.093,12.727a6.671,6.671,0,0,0,6.03,0,3.771,3.771,0,0,1,3.128,3.734v5.274a.489.489,0,0,1-.489.489H22.453a.489.489,0,0,1-.489-.489V16.461a3.772,3.772,0,0,1,3.128-3.734ZM13.5,2.379A4.374,4.374,0,1,1,9.126,6.753,4.378,4.378,0,0,1,13.5,2.379ZM7.356,16.461a3.772,3.772,0,0,1,3.128-3.734,6.671,6.671,0,0,0,6.03,0,3.771,3.771,0,0,1,3.128,3.734v5.274a.489.489,0,0,1-.489.489H7.845a.489.489,0,0,1-.489-.489Zm0,0"/>
  </g>
</svg>
