<svg xmlns="http://www.w3.org/2000/svg" width="360" height="200.062" viewBox="0 0 360 200.062">
  <g id="Grupo_114367" data-name="Grupo 114367" transform="translate(-220 -5523)">
    <rect id="Rectángulo_36705" data-name="Rectángulo 36705" width="360" height="200" transform="translate(220 5523)" fill="#ffb6b0"/>
    <g id="Grupo_114366" data-name="Grupo 114366" transform="translate(-15.577 4943.363)">
      <g id="Grupo_114271" data-name="Grupo 114271" transform="translate(278.516 601.091)">
        <g id="Grupo_114269" data-name="Grupo 114269" transform="translate(0)">
          <path id="Trazado_159866" data-name="Trazado 159866" d="M413.949,654.082c0-8.852-7.869-14.954-16.635-14.954-12.7,0-17.055,7.176-17.055,16.027s10.061,15.12,18.827,15.12S413.949,662.933,413.949,654.082Z" transform="translate(-380.259 -639.128)" fill="#f7f0f7"/>
        </g>
        <g id="Grupo_114270" data-name="Grupo 114270" transform="translate(26.159 22.726)">
          <path id="Trazado_159867" data-name="Trazado 159867" d="M550.207,784.253s-5.549-.865-5.945-6.436l-4.36,3.218S541.983,786.154,550.207,784.253Z" transform="translate(-539.902 -777.817)" fill="#f7f0f7"/>
        </g>
      </g>
      <g id="Grupo_114274" data-name="Grupo 114274" transform="translate(350.802 593.637)">
        <g id="Grupo_114272" data-name="Grupo 114272" transform="translate(0 0)">
          <path id="Trazado_159868" data-name="Trazado 159868" d="M849.992,606.325c0-7.51-6.677-12.688-14.114-12.688-10.772,0-14.471,6.088-14.471,13.6s8.536,12.829,15.974,12.829S849.992,613.836,849.992,606.325Z" transform="translate(-821.407 -593.637)" fill="#f28686"/>
        </g>
        <g id="Grupo_114273" data-name="Grupo 114273" transform="translate(22.196 19.283)">
          <path id="Trazado_159869" data-name="Trazado 159869" d="M965.606,716.775s-4.708-.734-5.044-5.46l-3.7,2.73S958.628,718.388,965.606,716.775Z" transform="translate(-956.862 -711.314)" fill="#f28686"/>
        </g>
      </g>
      <g id="Grupo_114281" data-name="Grupo 114281" transform="translate(494.133 608.313)">
        <g id="Grupo_114277" data-name="Grupo 114277" transform="translate(0 0)">
          <g id="Grupo_114275" data-name="Grupo 114275">
            <path id="Trazado_159870" data-name="Trazado 159870" d="M1763.49,713.1c0-17.7-15.734-29.9-33.263-29.9-25.385,0-34.1,14.348-34.1,32.048s20.117,30.235,37.646,30.235S1763.49,730.8,1763.49,713.1Z" transform="translate(-1696.124 -683.199)" fill="#f28686"/>
          </g>
          <g id="Grupo_114276" data-name="Grupo 114276" transform="translate(52.308 45.442)">
            <path id="Trazado_159871" data-name="Trazado 159871" d="M2035.954,973.392s-11.1-1.73-11.888-12.869l-8.718,6.434S2019.509,977.193,2035.954,973.392Z" transform="translate(-2015.348 -960.523)" fill="#f28686"/>
          </g>
        </g>
        <g id="Grupo_114278" data-name="Grupo 114278" transform="translate(0.351 3.415)">
          <path id="Trazado_159872" data-name="Trazado 159872" d="M1736.066,766.629a44.4,44.4,0,0,1-25.487-8.51c-7.939-5.878-12.311-13.648-12.311-21.877,0-9.661,2.548-17.32,7.572-22.764,5.779-6.261,14.756-9.436,26.683-9.436a37.168,37.168,0,0,1,12.644,2.192,33.914,33.914,0,0,1,10.66,6.158,28.286,28.286,0,0,1,10.111,21.7,35.063,35.063,0,0,1-5.576,19.339c2.631,7.528,10.912,8.907,11,8.92l.775.121-.764.177c-5.006,1.157-12.05,1.692-17.257-2.294A28.408,28.408,0,0,1,1736.066,766.629Zm-3.542-62.283c-11.839,0-20.741,3.141-26.46,9.338-4.971,5.386-7.492,12.976-7.492,22.558,0,8.131,4.328,15.813,12.188,21.633a44.085,44.085,0,0,0,25.306,8.45,28.1,28.1,0,0,0,17.948-6.277l.094-.076.1.074c4.891,3.814,11.5,3.5,16.415,2.462a17.34,17.34,0,0,1-3.926-1.5,13.555,13.555,0,0,1-6.642-7.544l-.024-.071.041-.062a34.75,34.75,0,0,0,5.567-19.234,27.987,27.987,0,0,0-10.005-21.473,33.607,33.607,0,0,0-10.565-6.1A36.866,36.866,0,0,0,1732.523,704.346Z" transform="translate(-1698.268 -704.042)" fill="#30262a"/>
        </g>
        <g id="Grupo_114279" data-name="Grupo 114279" transform="translate(21.664 32.198)">
          <path id="Trazado_159873" data-name="Trazado 159873" d="M1854.762,882.247h-24.945a1.7,1.7,0,0,1-1.467-1.116c-.149-1.116.916-1.435,1.465-1.435l24.947.555a1,1,0,0,1,1,1h0A1,1,0,0,1,1854.762,882.247Z" transform="translate(-1828.336 -879.696)" fill="#f7f0f7"/>
        </g>
        <g id="Grupo_114280" data-name="Grupo 114280" transform="translate(25.026 28.012)">
          <path id="Trazado_159874" data-name="Trazado 159874" d="M1868.8,856.2h-18.829a1.3,1.3,0,0,1-1.107-.9,1.028,1.028,0,0,1,1.106-1.153l18.83.446a.781.781,0,0,1,.753.8h0A.781.781,0,0,1,1868.8,856.2Z" transform="translate(-1848.854 -854.153)" fill="#f7f0f7"/>
        </g>
      </g>
      <g id="Grupo_114288" data-name="Grupo 114288" transform="translate(490.147 680.294)">
        <g id="Grupo_114284" data-name="Grupo 114284">
          <g id="Grupo_114282" data-name="Grupo 114282">
            <path id="Trazado_159875" data-name="Trazado 159875" d="M1719.192,1143.521c0-12.453-11.07-21.038-23.4-21.038-17.86,0-23.994,10.1-23.994,22.548s14.154,21.272,26.486,21.272S1719.192,1155.974,1719.192,1143.521Z" transform="translate(-1671.795 -1122.483)" fill="#f7f0f7"/>
          </g>
          <g id="Grupo_114283" data-name="Grupo 114283" transform="translate(36.802 31.972)">
            <path id="Trazado_159876" data-name="Trazado 159876" d="M1910.888,1326.654s-7.807-1.217-8.364-9.054l-6.134,4.527S1899.318,1329.328,1910.888,1326.654Z" transform="translate(-1896.39 -1317.6)" fill="#f7f0f7"/>
          </g>
        </g>
        <g id="Grupo_114285" data-name="Grupo 114285" transform="translate(0.186 2.341)">
          <path id="Trazado_159877" data-name="Trazado 159877" d="M1699.583,1180.929a31.3,31.3,0,0,1-17.968-6c-5.6-4.148-8.687-9.632-8.687-15.441,0-6.813,1.8-12.216,5.344-16.058,4.078-4.418,10.409-6.658,18.818-6.658a25.148,25.148,0,0,1,16.436,5.89,19.961,19.961,0,0,1,7.135,15.316,24.738,24.738,0,0,1-3.917,13.615c1.851,5.241,7.619,6.2,7.678,6.207l.86.134-.848.2c-3.523.814-8.476,1.192-12.154-1.6A20.051,20.051,0,0,1,1699.583,1180.929Zm-2.493-43.82c-8.311,0-14.56,2.2-18.571,6.55-3.487,3.778-5.255,9.1-5.255,15.83,0,5.7,3.036,11.088,8.55,15.171a30.953,30.953,0,0,0,17.768,5.933,19.712,19.712,0,0,0,12.589-4.4l.1-.084.106.082c3.34,2.6,7.829,2.457,11.245,1.773-1.681-.462-5.74-2-7.227-6.335l-.027-.078.046-.069a24.387,24.387,0,0,0,3.907-13.5,19.63,19.63,0,0,0-7.018-15.061A24.812,24.812,0,0,0,1697.09,1137.109Z" transform="translate(-1672.928 -1136.772)" fill="#30262a"/>
        </g>
        <g id="Grupo_114286" data-name="Grupo 114286" transform="translate(15.242 22.653)">
          <path id="Trazado_159878" data-name="Trazado 159878" d="M1783.407,1262.527h-17.55a1.2,1.2,0,0,1-1.032-.785c-.105-.785.645-1.01,1.031-1.01l17.552.391a.7.7,0,0,1,.7.7h0A.7.7,0,0,1,1783.407,1262.527Z" transform="translate(-1764.815 -1260.732)" fill="#f28686"/>
        </g>
        <g id="Grupo_114287" data-name="Grupo 114287" transform="translate(17.608 19.709)">
          <path id="Trazado_159879" data-name="Trazado 159879" d="M1793.285,1244.2h-13.247a.916.916,0,0,1-.779-.631.723.723,0,0,1,.778-.811l13.248.314a.55.55,0,0,1,.53.564h0A.55.55,0,0,1,1793.285,1244.2Z" transform="translate(-1779.251 -1242.761)" fill="#f28686"/>
        </g>
      </g>
      <g id="Grupo_114294" data-name="Grupo 114294" transform="translate(260.13 644.092)">
        <g id="Grupo_114289" data-name="Grupo 114289" transform="translate(3.478 0)">
          <path id="Trazado_159880" data-name="Trazado 159880" d="M289.4,930.3c-1.487-15.211,11.01-27.02,26.075-28.492,21.816-2.133,30.514,9.466,32,24.677s-14.749,27.674-29.813,29.147S290.888,945.509,289.4,930.3Z" transform="translate(-289.281 -901.552)" fill="#a74c3b"/>
        </g>
        <g id="Grupo_114290" data-name="Grupo 114290" transform="translate(1.217 41.569)">
          <path id="Trazado_159881" data-name="Trazado 159881" d="M275.482,1167.294s9.39-2.418,9.136-12.058l8.033,4.8S289.935,1169.18,275.482,1167.294Z" transform="translate(-275.482 -1155.236)" fill="#a74c3b"/>
        </g>
        <g id="Grupo_114291" data-name="Grupo 114291" transform="translate(0 2.902)">
          <path id="Trazado_159882" data-name="Trazado 159882" d="M297.23,973.879a24.408,24.408,0,0,1-13.461-3.978c-1.932,1.783-5.3,3.656-10.9,3.656a29.033,29.033,0,0,1-3.757-.256l-1.057-.138,1.032-.267c.07-.018,7-1.882,8.637-8.5a30.363,30.363,0,0,1-6.41-16.163,24.5,24.5,0,0,1,6.887-19.561,30.866,30.866,0,0,1,19.373-9.157c10.272-1,18.273.977,23.782,5.886,4.79,4.27,7.631,10.655,8.445,18.977.694,7.1-2.42,14.163-8.767,19.9a38.419,38.419,0,0,1-21.232,9.474Q298.508,973.879,297.23,973.879Zm-13.506-4.5.137.091a24.2,24.2,0,0,0,15.9,3.875,37.989,37.989,0,0,0,21-9.369c6.248-5.645,9.313-12.589,8.633-19.552-.8-8.216-3.6-14.51-8.309-18.708-5.419-4.83-13.314-6.776-23.467-5.783l-.02-.206.02.206a30.454,30.454,0,0,0-19.115,9.031,24.093,24.093,0,0,0-6.774,19.235,29.934,29.934,0,0,0,6.384,16.023l.064.079-.023.1c-1.3,5.473-6.073,7.837-8.072,8.6,4.256.427,9.756.071,13.524-3.508Z" transform="translate(-268.056 -919.263)" fill="#30262a"/>
        </g>
        <g id="Grupo_114292" data-name="Grupo 114292" transform="translate(19.626 26.997)">
          <path id="Trazado_159883" data-name="Trazado 159883" d="M388.773,1070.607l21.438-2.1a1.471,1.471,0,0,0,1.167-1.082c.035-.972-.908-1.156-1.38-1.11l-21.393,2.573a.865.865,0,0,0-.774.942h0A.865.865,0,0,0,388.773,1070.607Z" transform="translate(-387.827 -1066.312)" fill="#f7f0f7"/>
        </g>
        <g id="Grupo_114293" data-name="Grupo 114293" transform="translate(22.139 23.654)">
          <path id="Trazado_159884" data-name="Trazado 159884" d="M403.881,1049.258l16.181-1.582a1.125,1.125,0,0,0,.876-.864.888.888,0,0,0-1.047-.9l-16.145,1.965a.674.674,0,0,0-.58.752h0A.675.675,0,0,0,403.881,1049.258Z" transform="translate(-403.163 -1045.91)" fill="#f7f0f7"/>
        </g>
      </g>
      <g id="Grupo_114327" data-name="Grupo 114327" transform="translate(338.661 643.319)">
        <g id="Grupo_114297" data-name="Grupo 114297" transform="translate(84.99 4.146)">
          <g id="Grupo_114296" data-name="Grupo 114296">
            <g id="Grupo_114295" data-name="Grupo 114295">
              <path id="Trazado_159885" data-name="Trazado 159885" d="M1294.721,943.154s-.77-12.272-6.434-16.713-16.257-5.831-13.331-2.333a47.456,47.456,0,0,0,7.9,6.935s-10.973-6.843-11.462-3.584,9.111,9.119,9.111,9.119-13.706-7.1-13.171-3.874,10.984,8.551,10.984,8.551-13.016-6.1-12.306-2.364,10.789,4.97,10.3,8.23-1.329,16.37,7.564,18.836Z" transform="translate(-1265.986 -922.137)" fill="#ea9a81"/>
            </g>
          </g>
        </g>
        <g id="Grupo_114301" data-name="Grupo 114301" transform="translate(74.774 25.164)">
          <g id="Grupo_114299" data-name="Grupo 114299">
            <g id="Grupo_114298" data-name="Grupo 114298">
              <path id="Trazado_159886" data-name="Trazado 159886" d="M1265.857,1157.148a25.462,25.462,0,0,1-10.873-.36c-11.858-2.943-22.606-13.71-34.85-34.909-5.64-9.764-16.384-20.272-16.492-20.377l7.169-7.382c6.4-6.591,9.732-3.9,20.3,2.66,4.444,2.759,6.257,7.206,14.451,12.681,0,0-9.807-25.809-13.817-36.257l10.843-22.8c3.735,5.876,18.605,24.644,27.437,43.833,5.348,11.62,9.128,21.346,11.235,28.908a50.905,50.905,0,0,1,2.194,13.581c-.027,10.036-5.242,14.8-8.348,16.754A26.535,26.535,0,0,1,1265.857,1157.148Z" transform="translate(-1203.642 -1050.401)" fill="#ea9a81"/>
            </g>
          </g>
          <g id="Grupo_114300" data-name="Grupo 114300" transform="translate(41.578 58.714)">
            <path id="Trazado_159887" data-name="Trazado 159887" d="M1465.341,1430.99a.345.345,0,0,1-.245-.1,22.522,22.522,0,0,1-3.582-5.362,40.911,40.911,0,0,1-4.127-16.443.346.346,0,1,1,.691-.036,40.244,40.244,0,0,0,4.037,16.133,22.364,22.364,0,0,0,3.472,5.219.346.346,0,0,1-.245.59Z" transform="translate(-1457.386 -1408.719)" fill="#e47e6a"/>
          </g>
        </g>
        <path id="Trazado_159888" data-name="Trazado 159888" d="M863.8,1261.473c-.038-.52-.089-1.036-.154-1.543-1.067-8.478-5.7-15.194-9.227-20.971-1.045-1.715-1.664-2.556-1.664-2.581-3.307-4.839-6.7-8.385-11.866-10.81a58.607,58.607,0,0,0-7.833-2.779c-1.815-.533-17.5-5.113-19.393-4.955-19.215,1.587-46.832,24.994-47.933,31.621-4.8,28.855-1.1,22.866,0,52.156,22.579-.7,98.07,0,98.07,0S865.782,1289.072,863.8,1261.473Z" transform="translate(-755.99 -1165.231)" fill="#ed6b6c"/>
        <g id="Grupo_114302" data-name="Grupo 114302" transform="translate(9.736 50.543)">
          <path id="Trazado_159889" data-name="Trazado 159889" d="M806.728,1215.585l15.606,23.1s56.824,14.7,72.576,14.292,18.781-14.015,18.781-14.015-12.71-18.323-39.56-26.644c-2.56-.793-13.6-5.23-18.232-5.98C825.15,1201.362,806.728,1215.585,806.728,1215.585Z" transform="translate(-806.728 -1205.284)" fill="#ed6b6c"/>
        </g>
        <g id="Grupo_114303" data-name="Grupo 114303" transform="translate(90.147 31.072)">
          <path id="Trazado_159890" data-name="Trazado 159890" d="M1304.322,1111.316a12.472,12.472,0,0,1-3.364-.526,19.683,19.683,0,0,1-3.5-1.368l.35-.66c.058.031,5.841,3.05,9.109,1.21,1.352-.761,2.1-2.288,2.236-4.537a16.9,16.9,0,0,0-1.1-7.094c-.96-2.882-1.866-5.6.479-11.881l.7.261c-2.253,6.029-1.427,8.511-.47,11.384a17.755,17.755,0,0,1,1.141,7.373c-.147,2.52-1.028,4.251-2.616,5.145A5.957,5.957,0,0,1,1304.322,1111.316Z" transform="translate(-1297.459 -1086.46)" fill="#30262a"/>
        </g>
        <g id="Grupo_114304" data-name="Grupo 114304" transform="translate(72.435 15.518)">
          <path id="Trazado_159891" data-name="Trazado 159891" d="M1221.5,993.367c.552,17.529-8.064,16.655-4.492,28.659,2.272,7.637-6.557,11.676-11.422,7.631s-11.374.179-15.606-4.346C1184.223,1019.157,1221.176,983.079,1221.5,993.367Z" transform="translate(-1189.371 -991.533)" fill="#30262a"/>
        </g>
        <g id="Grupo_114305" data-name="Grupo 114305" transform="translate(57.222 24.754)">
          <path id="Trazado_159892" data-name="Trazado 159892" d="M1096.617,1074.5a8.869,8.869,0,0,0,8.383-3.152l6.309-7.823,1.831-2.271,10.766-13.351-5.52,15.409-3.314,9.248-.945,2.636a4.458,4.458,0,0,0,2.28,5.515l.036.017c.635,2.215,1.168,6.506-4.055,6.693-6.138.222-14.057-6.756-15.862-12.928C1096.543,1074.495,1096.6,1074.494,1096.617,1074.5Z" transform="translate(-1096.526 -1047.901)" fill="#ea9a81"/>
        </g>
        <g id="Grupo_114306" data-name="Grupo 114306" transform="translate(71.857 38.062)">
          <path id="Trazado_159893" data-name="Trazado 159893" d="M1186.043,1131.164q-.032.131-.056.265c-1.039,5.173,3.722,9.054,3.722,9.054l.041-.019,3.314-9.248c-1.488-1.07-3.675-2.353-5.246-2.058A2.3,2.3,0,0,0,1186.043,1131.164Z" transform="translate(-1185.838 -1129.115)" fill="#e7925c"/>
        </g>
        <g id="Grupo_114307" data-name="Grupo 114307" transform="translate(64.755 5.119)">
          <ellipse id="Elipse_4979" data-name="Elipse 4979" cx="18.923" cy="15.338" rx="18.923" ry="15.338" transform="matrix(0.269, -0.963, 0.963, 0.269, 0, 36.454)" fill="#ea9a81"/>
        </g>
        <g id="Grupo_114309" data-name="Grupo 114309" transform="translate(79.959 25.951)">
          <g id="Grupo_114308" data-name="Grupo 114308">
            <path id="Trazado_159894" data-name="Trazado 159894" d="M1239.86,1056.752a.349.349,0,0,0,.215-.625,3.777,3.777,0,0,0-4.621-.244.352.352,0,0,0-.121.479.383.383,0,0,0,.479.121,5.973,5.973,0,0,1,3.839.2A.347.347,0,0,0,1239.86,1056.752Z" transform="translate(-1235.285 -1055.208)" fill="#080435"/>
          </g>
        </g>
        <g id="Grupo_114311" data-name="Grupo 114311" transform="translate(93.594 30.184)">
          <g id="Grupo_114310" data-name="Grupo 114310">
            <path id="Trazado_159895" data-name="Trazado 159895" d="M1322.372,1083.808a.349.349,0,0,0,.472-.463,3.778,3.778,0,0,0-4.025-2.283.352.352,0,0,0-.322.374c.015.192.183.294.374.322a5.973,5.973,0,0,1,3.345,1.894A.347.347,0,0,0,1322.372,1083.808Z" transform="translate(-1318.497 -1081.037)" fill="#080435"/>
          </g>
        </g>
        <g id="Grupo_114312" data-name="Grupo 114312" transform="translate(43.725 0.587)">
          <path id="Trazado_159896" data-name="Trazado 159896" d="M1065.482,914.123s-1.786,8.74-9.984,7.615-11.07,2.288-11.6,8.273,6.589,20.943-4.042,22.9-7.746-9.708-18.44-10.561-8.745-14.909.432-20.821,12.152-27.5,38.085-19.273,10.508,26.448,10.508,26.448S1063.518,921.1,1065.482,914.123Z" transform="translate(-1014.156 -900.415)" fill="#30262a"/>
        </g>
        <g id="Grupo_114313" data-name="Grupo 114313" transform="translate(81.295 29.871)">
          <path id="Trazado_159897" data-name="Trazado 159897" d="M1245.381,1080.6c-.109.731-.627,1.261-1.158,1.182s-.873-.736-.764-1.468.627-1.261,1.158-1.182S1245.49,1079.87,1245.381,1080.6Z" transform="translate(-1243.438 -1079.126)" fill="#080435"/>
        </g>
        <g id="Grupo_114314" data-name="Grupo 114314" transform="translate(91.78 33.633)">
          <path id="Trazado_159898" data-name="Trazado 159898" d="M1309.336,1103.852a1.022,1.022,0,1,1-.113-1.651A1.2,1.2,0,0,1,1309.336,1103.852Z" transform="translate(-1307.425 -1102.089)" fill="#080435"/>
        </g>
        <g id="Grupo_114315" data-name="Grupo 114315" transform="translate(79.692 38.576)">
          <path id="Trazado_159899" data-name="Trazado 159899" d="M1241.391,1135.27a.327.327,0,0,1-.109-.019c-3.017-1.065-7.345-2.342-7.389-2.354a.327.327,0,1,1,.185-.628c.043.013,4.388,1.294,7.422,2.365a.327.327,0,0,1-.109.636Z" transform="translate(-1233.659 -1132.256)" fill="#30262a"/>
        </g>
        <g id="Grupo_114316" data-name="Grupo 114316" transform="translate(9.407 60.356)">
          <path id="Trazado_159900" data-name="Trazado 159900" d="M830.564,1287.943c-1.6,1.835-8.613-1.665-15.658-7.817s-11.457-12.628-9.855-14.463,8.613,1.665,15.658,7.817S832.166,1286.108,830.564,1287.943Z" transform="translate(-804.722 -1265.175)" fill="#080435"/>
        </g>
        <g id="Grupo_114322" data-name="Grupo 114322" transform="translate(53.028 0)">
          <g id="Grupo_114318" data-name="Grupo 114318">
            <g id="Grupo_114317" data-name="Grupo 114317">
              <path id="Trazado_159901" data-name="Trazado 159901" d="M1070.931,917.85s.77-12.272,6.434-16.713,16.257-5.831,13.331-2.333a47.446,47.446,0,0,1-7.9,6.935s10.973-6.843,11.462-3.584-9.111,9.119-9.111,9.119,13.705-7.1,13.171-3.874-10.985,8.551-10.985,8.551,13.016-6.1,12.307-2.364-10.789,4.97-10.3,8.23,1.329,16.371-7.564,18.836Z" transform="translate(-1070.931 -896.833)" fill="#ea9a81"/>
            </g>
          </g>
          <g id="Grupo_114319" data-name="Grupo 114319" transform="translate(7.521 8.396)">
            <path id="Trazado_159902" data-name="Trazado 159902" d="M1117.341,952.787a.511.511,0,0,1-.5-.606c.464-2.452,3.981-4,4.13-4.065a.511.511,0,1,1,.406.937c-.042.018-3.17,1.4-3.533,3.319A.511.511,0,0,1,1117.341,952.787Z" transform="translate(-1116.83 -948.073)" fill="#ec865c"/>
          </g>
          <g id="Grupo_114320" data-name="Grupo 114320" transform="translate(9.128 13.931)">
            <path id="Trazado_159903" data-name="Trazado 159903" d="M1127.149,987.281a.511.511,0,0,1-.473-.7,9.607,9.607,0,0,1,4.854-4.689.511.511,0,0,1,.389.945,8.714,8.714,0,0,0-4.3,4.128A.511.511,0,0,1,1127.149,987.281Z" transform="translate(-1126.639 -981.85)" fill="#ec865c"/>
          </g>
          <g id="Grupo_114321" data-name="Grupo 114321" transform="translate(11.592 18.607)">
            <path id="Trazado_159904" data-name="Trazado 159904" d="M1142.188,1015.55a.483.483,0,0,1-.053,0,.51.51,0,0,1-.455-.56c.274-2.661,4.426-4.481,4.6-4.557a.511.511,0,0,1,.4.938c-1.05.454-3.814,2.009-3.991,3.724A.511.511,0,0,1,1142.188,1015.55Z" transform="translate(-1141.677 -1010.388)" fill="#ec865c"/>
          </g>
        </g>
        <g id="Grupo_114326" data-name="Grupo 114326" transform="translate(0 21.017)">
          <g id="Grupo_114324" data-name="Grupo 114324">
            <g id="Grupo_114323" data-name="Grupo 114323">
              <path id="Trazado_159905" data-name="Trazado 159905" d="M758.336,1066.83s11.047,1.528,21.861,17.227c0,0,16.992-48.221,20.145-58.959l13.97,11.615c-.6,6.937-.168,30.878-4.795,51.489-2.8,12.481-5.7,22.505-8.614,29.795a50.9,50.9,0,0,1-6.5,12.125c-6.112,7.96-13.143,8.489-16.8,8.25C747.631,1136.414,737.409,1101.079,758.336,1066.83Z" transform="translate(-747.313 -1025.097)" fill="#ea9a81"/>
            </g>
          </g>
          <g id="Grupo_114325" data-name="Grupo 114325" transform="translate(20.342 58.613)">
            <path id="Trazado_159906" data-name="Trazado 159906" d="M871.8,1406.82a.346.346,0,0,1-.338-.421c.032-.144,3.3-14.528,12.288-23.5a.346.346,0,1,1,.489.49c-8.846,8.822-12.069,23.013-12.1,23.155A.346.346,0,0,1,871.8,1406.82Z" transform="translate(-871.457 -1382.802)" fill="#e47e6a"/>
          </g>
        </g>
      </g>
      <g id="Grupo_114337" data-name="Grupo 114337" transform="translate(467.22 596.312)">
        <g id="Grupo_114332" data-name="Grupo 114332" transform="translate(0 0)">
          <g id="Grupo_114330" data-name="Grupo 114330">
            <g id="Grupo_114328" data-name="Grupo 114328">
              <path id="Trazado_159907" data-name="Trazado 159907" d="M1576.615,629.818c0-11.753-10.448-19.857-22.089-19.857-16.857,0-22.646,9.528-22.646,21.282s13.359,20.078,25,20.078S1576.615,641.571,1576.615,629.818Z" transform="translate(-1531.88 -609.961)" fill="#a74c3b"/>
            </g>
            <g id="Grupo_114329" data-name="Grupo 114329" transform="translate(34.735 30.176)">
              <path id="Trazado_159908" data-name="Trazado 159908" d="M1757.547,802.666s-7.368-1.149-7.894-8.546l-5.789,4.273S1746.626,805.19,1757.547,802.666Z" transform="translate(-1743.863 -794.12)" fill="#a74c3b"/>
            </g>
          </g>
          <g id="Grupo_114331" data-name="Grupo 114331" transform="translate(0.182 2.217)">
            <path id="Trazado_159909" data-name="Trazado 159909" d="M1558.144,665.153a29.537,29.537,0,0,1-16.955-5.661c-5.285-3.913-8.2-9.087-8.2-14.568,0-6.429,1.7-11.527,5.042-15.151,3.847-4.168,9.821-6.282,17.756-6.282a23.729,23.729,0,0,1,15.508,5.557,18.834,18.834,0,0,1,6.732,14.451,23.342,23.342,0,0,1-3.7,12.849c1.747,4.953,7.2,5.858,7.253,5.866l.776.121-.765.177c-3.325.768-8,1.124-11.47-1.508A18.917,18.917,0,0,1,1558.144,665.153Zm-2.353-41.359c-7.847,0-13.746,2.081-17.533,6.184-3.292,3.567-4.961,8.6-4.961,14.945,0,5.382,2.867,10.47,8.073,14.324a29.224,29.224,0,0,0,16.774,5.6,18.612,18.612,0,0,0,11.886-4.157l.094-.076.1.074c3.164,2.467,7.418,2.32,10.648,1.669-1.568-.426-5.434-1.87-6.845-5.983l-.024-.071.041-.062a23.026,23.026,0,0,0,3.689-12.745,18.534,18.534,0,0,0-6.626-14.221A23.426,23.426,0,0,0,1555.792,623.794Z" transform="translate(-1532.993 -623.49)" fill="#30262a"/>
          </g>
        </g>
        <g id="Grupo_114336" data-name="Grupo 114336" transform="translate(12.562 20.68)">
          <g id="Grupo_114333" data-name="Grupo 114333">
            <path id="Trazado_159910" data-name="Trazado 159910" d="M1613.027,738.153a2.093,2.093,0,0,0-2.213-1.989,1.971,1.971,0,0,0-2.269,2.132c0,1.177,1.338,2.011,2.5,2.011A2.031,2.031,0,0,0,1613.027,738.153Z" transform="translate(-1608.546 -736.164)" fill="#f7f0f7"/>
          </g>
          <g id="Grupo_114334" data-name="Grupo 114334" transform="translate(7.564)">
            <path id="Trazado_159911" data-name="Trazado 159911" d="M1659.191,738.153a2.093,2.093,0,0,0-2.213-1.989,1.971,1.971,0,0,0-2.269,2.132c0,1.177,1.338,2.011,2.5,2.011A2.031,2.031,0,0,0,1659.191,738.153Z" transform="translate(-1654.71 -736.164)" fill="#f7f0f7"/>
          </g>
          <g id="Grupo_114335" data-name="Grupo 114335" transform="translate(14.638)">
            <path id="Trazado_159912" data-name="Trazado 159912" d="M1702.362,738.153a2.093,2.093,0,0,0-2.213-1.989,1.971,1.971,0,0,0-2.269,2.132c0,1.177,1.338,2.011,2.5,2.011A2.031,2.031,0,0,0,1702.362,738.153Z" transform="translate(-1697.881 -736.164)" fill="#f7f0f7"/>
          </g>
        </g>
      </g>
      <g id="Grupo_114339" data-name="Grupo 114339" transform="translate(327.644 594.826)">
        <g id="Grupo_114338" data-name="Grupo 114338" transform="translate(0)">
          <path id="Trazado_159913" data-name="Trazado 159913" d="M683.929,621.255h0a2.218,2.218,0,0,1-1.9-2.293l.649-14.773a2.219,2.219,0,0,1,1.468-1.991l3.269-1.171a2.218,2.218,0,0,1,2.9,2.618L686.4,619.589A2.218,2.218,0,0,1,683.929,621.255Zm-3.83,4.431a3.231,3.231,0,0,1,3.264-2.725,3.076,3.076,0,0,1,3.074,3.605c-.271,1.892-1.928,2.329-3.489,2.1S679.875,627.248,680.1,625.687Z" transform="translate(-680.077 -600.893)" fill="#30262a"/>
        </g>
      </g>
      <g id="Grupo_114341" data-name="Grupo 114341" transform="translate(465.215 644.862)">
        <g id="Grupo_114340" data-name="Grupo 114340" transform="translate(0 0)">
          <path id="Trazado_159914" data-name="Trazado 159914" d="M1528.141,934.946h0a3.059,3.059,0,0,1-3.418-2.276l-4.988-19.767a3.058,3.058,0,0,1,1.151-3.211l3.854-2.84a3.058,3.058,0,0,1,4.869,2.309l1.133,22.607A3.058,3.058,0,0,1,1528.141,934.946Zm-3.305,7.368a4.454,4.454,0,0,1,3.232-4.89,4.241,4.241,0,0,1,5.486,3.545c.39,2.606-1.625,3.838-3.776,4.16S1525.158,944.464,1524.836,942.313Z" transform="translate(-1519.642 -906.251)" fill="#f28686"/>
        </g>
      </g>
      <g id="Grupo_114343" data-name="Grupo 114343" transform="translate(333.506 661.395)">
        <g id="Grupo_114342" data-name="Grupo 114342">
          <path id="Trazado_159915" data-name="Trazado 159915" d="M721.029,1031.238h0a2.685,2.685,0,0,1-2.039-2.974l2.414-17.738a2.685,2.685,0,0,1,1.99-2.238l4.071-1.05a2.686,2.686,0,0,1,3.21,3.476L724.19,1029.5A2.685,2.685,0,0,1,721.029,1031.238Zm-5.107,4.919a3.911,3.911,0,0,1,4.235-2.924,3.724,3.724,0,0,1,3.308,4.686c-.536,2.251-2.582,2.594-4.439,2.152S715.48,1038.014,715.923,1036.157Z" transform="translate(-715.852 -1007.148)" fill="#f7f0f7"/>
        </g>
      </g>
      <g id="Grupo_114345" data-name="Grupo 114345" transform="translate(553.737 703.193)">
        <g id="Grupo_114344" data-name="Grupo 114344">
          <path id="Trazado_159916" data-name="Trazado 159916" d="M2066.857,1285.8h0a2.512,2.512,0,0,1-2.808-1.87l-4.1-16.237a2.513,2.513,0,0,1,.946-2.637l3.166-2.333a2.512,2.512,0,0,1,4,1.9l.931,18.569A2.512,2.512,0,0,1,2066.857,1285.8Zm-2.715,6.052a3.659,3.659,0,0,1,2.655-4.016,3.483,3.483,0,0,1,4.506,2.912c.32,2.141-1.335,3.153-3.1,3.417S2064.406,1293.618,2064.142,1291.852Z" transform="translate(-2059.875 -1262.231)" fill="#30262a"/>
        </g>
      </g>
      <g id="Grupo_114347" data-name="Grupo 114347" transform="translate(304.433 677.812)">
        <g id="Grupo_114346" data-name="Grupo 114346" transform="translate(0 0)">
          <path id="Trazado_159917" data-name="Trazado 159917" d="M549.287,1136.212h0a3.107,3.107,0,0,1-3.682-1.964l-7-19.5a3.108,3.108,0,0,1,.847-3.361l3.617-3.253a3.108,3.108,0,0,1,5.152,1.854l3.381,22.75A3.107,3.107,0,0,1,549.287,1136.212Zm-2.614,7.777a4.526,4.526,0,0,1,2.785-5.264,4.309,4.309,0,0,1,5.9,3.043c.652,2.6-1.264,4.042-3.407,4.581S547.211,1146.133,546.673,1143.99Z" transform="translate(-538.424 -1107.337)" fill="#30262a"/>
        </g>
      </g>
      <g id="Grupo_114349" data-name="Grupo 114349" transform="translate(526.824 597.712)">
        <g id="Grupo_114348" data-name="Grupo 114348" transform="translate(0 0)">
          <path id="Trazado_159918" data-name="Trazado 159918" d="M1903.109,643.752h0a2.691,2.691,0,0,1-3.008-2l-4.389-17.392a2.691,2.691,0,0,1,1.013-2.825l3.391-2.5a2.691,2.691,0,0,1,4.284,2.032l1,19.891A2.691,2.691,0,0,1,1903.109,643.752Zm-2.908,6.482a3.919,3.919,0,0,1,2.844-4.3,3.731,3.731,0,0,1,4.827,3.119c.344,2.293-1.43,3.377-3.322,3.66S1900.484,652.127,1900.2,650.234Z" transform="translate(-1895.631 -618.505)" fill="#30262a"/>
        </g>
      </g>
      <g id="Grupo_114352" data-name="Grupo 114352" transform="translate(258.577 707.511)">
        <g id="Grupo_114350" data-name="Grupo 114350" transform="translate(4.342 16.614)">
          <path id="Trazado_159919" data-name="Trazado 159919" d="M285.074,1400.758s6.408-3.741,4.208-10.784l6.915,1.855S296.108,1399.129,285.074,1400.758Z" transform="translate(-285.074 -1389.974)" fill="#f28686"/>
        </g>
        <g id="Grupo_114351" data-name="Grupo 114351" transform="translate(0)">
          <path id="Trazado_159920" data-name="Trazado 159920" d="M302.5,1304.917l-37.843,4.724a4.584,4.584,0,0,1-5.1-3.863l-.927-6.129a4.584,4.584,0,0,1,3.847-5.219l38.292-5.795a4.585,4.585,0,0,1,5.26,4.229l.478,7.2A4.585,4.585,0,0,1,302.5,1304.917Z" transform="translate(-258.577 -1288.583)" fill="#f28686"/>
        </g>
      </g>
      <g id="Grupo_114355" data-name="Grupo 114355" transform="translate(397.229 598.611)">
        <g id="Grupo_114353" data-name="Grupo 114353" transform="translate(2.232 14.08)">
          <path id="Trazado_159921" data-name="Trazado 159921" d="M1118.359,722.38s8.561-3.4,7.169-12.456l8.144,3.561S1132.206,722.43,1118.359,722.38Z" transform="translate(-1118.359 -709.924)" fill="#f7f0f7"/>
        </g>
        <g id="Grupo_114354" data-name="Grupo 114354" transform="translate(0 0)">
          <path id="Trazado_159922" data-name="Trazado 159922" d="M1157.614,644.3l-47.33-1.23a5.692,5.692,0,0,1-5.544-5.69v-7.7a5.692,5.692,0,0,1,5.692-5.692h48.081a5.692,5.692,0,0,1,5.672,6.169l-.75,8.925A5.692,5.692,0,0,1,1157.614,644.3Z" transform="translate(-1104.74 -623.994)" fill="#f7f0f7"/>
        </g>
      </g>
      <g id="Grupo_114358" data-name="Grupo 114358" transform="translate(509.086 742.532)">
        <g id="Grupo_114356" data-name="Grupo 114356" transform="translate(42.756 22.2)">
          <path id="Trazado_159923" data-name="Trazado 159923" d="M2062.9,1652.044s-8.416-4.987-5.455-14.254l-9.133,2.386S2048.366,1649.8,2062.9,1652.044Z" transform="translate(-2048.31 -1637.79)" fill="#a74c3b"/>
        </g>
        <g id="Grupo_114357" data-name="Grupo 114357" transform="translate(0 0)">
          <path id="Trazado_159924" data-name="Trazado 159924" d="M1792.634,1523.835l49.851,6.555a6.044,6.044,0,0,0,6.758-5.049l1.276-8.072a6.044,6.044,0,0,0-5.027-6.914l-50.434-7.97a6.044,6.044,0,0,0-6.972,5.53l-.692,9.487A6.045,6.045,0,0,0,1792.634,1523.835Z" transform="translate(-1787.378 -1502.31)" fill="#a74c3b"/>
        </g>
      </g>
      <g id="Grupo_114361" data-name="Grupo 114361" transform="translate(283.222 738.192)">
        <g id="Grupo_114359" data-name="Grupo 114359" transform="translate(0.858 11.583)">
          <path id="Trazado_159925" data-name="Trazado 159925" d="M414.212,1555.986s7.114-2.109,6.653-9.474l6.276,3.446S425.316,1557.028,414.212,1555.986Z" transform="translate(-414.212 -1546.512)" fill="#f7f0f7"/>
        </g>
        <g id="Grupo_114360" data-name="Grupo 114360" transform="translate(0 0)">
          <path id="Trazado_159926" data-name="Trazado 159926" d="M450.913,1495.548l-37.881-4.411a4.585,4.585,0,0,1-4.036-4.966l.557-6.173a4.584,4.584,0,0,1,4.978-4.154l38.572,3.478a4.585,4.585,0,0,1,4.1,5.359l-1.248,7.106A4.585,4.585,0,0,1,450.913,1495.548Z" transform="translate(-408.978 -1475.825)" fill="#f7f0f7"/>
        </g>
      </g>
      <g id="Grupo_114364" data-name="Grupo 114364" transform="translate(328.748 631.501)">
        <g id="Grupo_114362" data-name="Grupo 114362" transform="translate(37.358 12.548)">
          <path id="Trazado_159927" data-name="Trazado 159927" d="M928.448,912.394s-7.63-3.032-6.389-11.1l-7.258,3.174S916.108,912.438,928.448,912.394Z" transform="translate(-914.801 -901.293)" fill="#f28686"/>
        </g>
        <g id="Grupo_114363" data-name="Grupo 114363" transform="translate(0)">
          <path id="Trazado_159928" data-name="Trazado 159928" d="M692.686,842.81l42.18-1.1a5.073,5.073,0,0,0,4.941-5.071v-6.858a5.072,5.072,0,0,0-5.072-5.072H691.885a5.072,5.072,0,0,0-5.054,5.5l.669,7.954A5.073,5.073,0,0,0,692.686,842.81Z" transform="translate(-686.813 -824.713)" fill="#f28686"/>
        </g>
      </g>
      <g id="Grupo_114365" data-name="Grupo 114365" transform="translate(403.818 695.571)">
        <path id="Trazado_159929" data-name="Trazado 159929" d="M1145.295,1225.5h-.028a.346.346,0,0,1-.317-.373c0-.06.487-6.017.645-9.076a.346.346,0,1,1,.691.036c-.158,3.07-.641,9.036-.646,9.1A.346.346,0,0,1,1145.295,1225.5Z" transform="translate(-1144.948 -1215.717)" fill="#e47e6a"/>
      </g>
    </g>
  </g>
</svg>
