<svg xmlns="http://www.w3.org/2000/svg" width="360" height="200.218" viewBox="0 0 360 200.218">
  <g id="Grupo_119018" data-name="Grupo 119018" transform="translate(-1987 5785)">
    <rect id="Rectángulo_36709" data-name="Rectángulo 36709" width="360" height="200" transform="translate(1987 -5785)" fill="#ffceca"/>
    <g id="Grupo_114796" data-name="Grupo 114796" transform="translate(1734.206 -6248.479)">
      <g id="Grupo_114570" data-name="Grupo 114570" transform="translate(471.081 475.479)">
        <path id="Trazado_160022" data-name="Trazado 160022" d="M1449.966,480.981a11.5,11.5,0,0,0-11.4-5.434c-8.174.778-7.2,7.006-11.093,6.422s-9.341,0-10.509,3.892-6.422,1.751-6.617,5.06,6.033,5.644,13.234,2.725,10.7,2.268,20.823,1.329,11.374-2.107,17.364-1.523,5.848-3.517,3.123-6.242S1451.133,484.743,1449.966,480.981Z" transform="translate(-1410.339 -475.479)" fill="#ff9e95"/>
      </g>
      <g id="Grupo_114571" data-name="Grupo 114571" transform="translate(515.994 495.376)">
        <path id="Trazado_160023" data-name="Trazado 160023" d="M1701.861,596.724a7.543,7.543,0,0,0-7.479-3.564c-5.361.51-4.723,4.595-7.276,4.212s-6.126,0-6.892,2.553-4.212,1.149-4.34,3.318,3.957,3.7,8.679,1.787,7.02,1.487,13.657.871,7.459-1.382,11.388-1,3.835-2.307,2.048-4.094S1702.627,599.191,1701.861,596.724Z" transform="translate(-1675.872 -593.115)" fill="#ff9e95"/>
      </g>
      <g id="Grupo_114572" data-name="Grupo 114572" transform="translate(339.191 499.432)">
        <path id="Trazado_160024" data-name="Trazado 160024" d="M656.062,620.634a7.4,7.4,0,0,0-7.334-3.495c-5.257.5-4.631,4.506-7.134,4.13s-6.008,0-6.759,2.5-4.13,1.126-4.256,3.254,3.88,3.63,8.511,1.752,6.884,1.458,13.392.854,7.315-1.355,11.167-.98,3.761-2.262,2.009-4.015S656.813,623.055,656.062,620.634Z" transform="translate(-630.576 -617.096)" fill="#ff9e95"/>
      </g>
      <g id="Grupo_114611" data-name="Grupo 114611" transform="translate(279.873 506.596)">
        <g id="Grupo_114590" data-name="Grupo 114590" transform="translate(16.181 0)">
          <g id="Grupo_114589" data-name="Grupo 114589">
            <g id="Grupo_114573" data-name="Grupo 114573" transform="translate(33.801 20.913)">
              <path id="Trazado_160025" data-name="Trazado 160025" d="M579.766,788.691c-2.377,1.44-3.549,1.112-4.123.18s-.332-2.115,2.045-3.555c4.33-2.622,7.462-2.2,7.462-2.2S584.159,786.03,579.766,788.691Z" transform="translate(-575.382 -783.089)" fill="#eabcb5"/>
            </g>
            <g id="Grupo_114588" data-name="Grupo 114588">
              <g id="Grupo_114575" data-name="Grupo 114575" transform="translate(11.417 27.235)">
                <g id="Grupo_114574" data-name="Grupo 114574">
                  <path id="Trazado_160026" data-name="Trazado 160026" d="M469.945,884.637l-.527-.039c.005-.081.5-8.226-2.5-20.106a102.769,102.769,0,0,0-23.879-43.676l.391-.351a103.292,103.292,0,0,1,24.006,43.926C470.449,876.346,469.951,884.556,469.945,884.637Z" transform="translate(-443.039 -820.465)" fill="#eabcb5"/>
                </g>
              </g>
              <g id="Grupo_114577" data-name="Grupo 114577" transform="translate(25.952 11.476)">
                <g id="Grupo_114576" data-name="Grupo 114576">
                  <path id="Trazado_160027" data-name="Trazado 160027" d="M529.428,763.61l-.451-.278c10.006-16.226,3.359-35.672,3.291-35.867l.5-.17C532.835,727.492,539.566,747.169,529.428,763.61Z" transform="translate(-528.977 -727.295)" fill="#eabcb5"/>
                </g>
              </g>
              <g id="Grupo_114579" data-name="Grupo 114579" transform="translate(8.745 36.346)">
                <g id="Grupo_114578" data-name="Grupo 114578">
                  <path id="Trazado_160028" data-name="Trazado 160028" d="M436.767,877.352a18.879,18.879,0,0,1-9.523-2.578l.286-.44a17.882,17.882,0,0,0,11.642,2.266l.1.518A15.554,15.554,0,0,1,436.767,877.352Z" transform="translate(-427.244 -874.334)" fill="#eabcb5"/>
                </g>
              </g>
              <g id="Grupo_114581" data-name="Grupo 114581" transform="translate(2.012 19.459)">
                <g id="Grupo_114580" data-name="Grupo 114580">
                  <path id="Trazado_160029" data-name="Trazado 160029" d="M396.424,779.694c2.848,2.473,3.115,3.872,2.4,4.69s-2.143.747-4.99-1.725c-5.188-4.5-6.4-8.163-6.4-8.163S391.161,775.125,396.424,779.694Z" transform="translate(-387.434 -774.496)" fill="#eabcb5"/>
                </g>
              </g>
              <g id="Grupo_114583" data-name="Grupo 114583" transform="translate(0 32.76)">
                <g id="Grupo_114582" data-name="Grupo 114582">
                  <path id="Trazado_160030" data-name="Trazado 160030" d="M385.666,855.436c3.458,1.508,4.135,2.765,3.7,3.762s-1.812,1.357-5.27-.151c-6.3-2.747-8.559-5.881-8.559-5.881S379.276,852.649,385.666,855.436Z" transform="translate(-375.54 -853.129)" fill="#eabcb5"/>
                </g>
              </g>
              <g id="Grupo_114585" data-name="Grupo 114585" transform="translate(19.106 24.1)">
                <g id="Grupo_114584" data-name="Grupo 114584">
                  <path id="Trazado_160031" data-name="Trazado 160031" d="M492.888,808.746c.694,2.7.041,3.713-1.019,3.975s-2.125-.326-2.819-3.024c-1.264-4.914.044-7.764.044-7.764S491.605,803.761,492.888,808.746Z" transform="translate(-488.499 -801.934)" fill="#eabcb5"/>
                </g>
              </g>
              <g id="Grupo_114587" data-name="Grupo 114587" transform="translate(25.986)">
                <g id="Grupo_114586" data-name="Grupo 114586">
                  <path id="Trazado_160032" data-name="Trazado 160032" d="M534,668.777c.954,3.633.38,4.931-.679,5.2s-2.2-.595-3.154-4.228c-1.738-6.618-.662-10.3-.662-10.3S532.237,662.063,534,668.777Z" transform="translate(-529.177 -659.447)" fill="#eabcb5"/>
                </g>
              </g>
            </g>
          </g>
        </g>
        <g id="Grupo_114591" data-name="Grupo 114591" transform="translate(50.271 45.703)">
          <path id="Trazado_160033" data-name="Trazado 160033" d="M637.317,993.331s-36.366-73.167-56.021-62.638S616.622,974.369,626.527,996Z" transform="translate(-577.085 -929.657)" fill="#eabcb5"/>
        </g>
        <g id="Grupo_114595" data-name="Grupo 114595" transform="translate(16.181 47.103)">
          <g id="Grupo_114592" data-name="Grupo 114592">
            <path id="Trazado_160034" data-name="Trazado 160034" d="M451.174,989.032s-50.907-63.916-71.656-48.787,45.749,34.908,59.846,54.006Z" transform="translate(-375.54 -937.928)" fill="#f9c7bb"/>
          </g>
          <g id="Grupo_114594" data-name="Grupo 114594" transform="translate(12.502 9.78)">
            <g id="Grupo_114593" data-name="Grupo 114593">
              <path id="Trazado_160035" data-name="Trazado 160035" d="M506,1040.052c-9.493-13.365-24.363-24.538-35.165-31.557a198.088,198.088,0,0,0-21.387-12.154l.281-.591a198.765,198.765,0,0,1,21.467,12.2c10.85,7.05,25.789,18.277,35.342,31.727Z" transform="translate(-449.452 -995.751)" fill="#fff"/>
            </g>
          </g>
        </g>
        <g id="Grupo_114609" data-name="Grupo 114609" transform="translate(0 77.676)">
          <g id="Grupo_114597" data-name="Grupo 114597">
            <g id="Grupo_114596" data-name="Grupo 114596">
              <path id="Trazado_160036" data-name="Trazado 160036" d="M370.157,1180.891c-8.278-.157.414,8.165-9.489,8.432-12.372-1.078-17.447-6.8-19.21-9.6a20.441,20.441,0,0,0-3.243-3.976c-3.792-3.575-4.841-2.579-16.628-.5-10,1.755-11.173-6.976-15.417-13.3-.076-.116-.156-.23-.235-.344a12.456,12.456,0,0,0-6.937-5.217,41.038,41.038,0,0,1-9.891-4.28q-.378-.227-.748-.466c-6.015-3.859-10.07-9.17-7.885-14.664.051-.13.106-.261.165-.389a11.635,11.635,0,0,1,1.768-2.735c8.076-9.5,16.263-6.119,25.712-4.656,5.224.808,12.678-5.783,20-8.916.1-.045.21-.089.315-.133,5.813-2.408,11.521-2.535,15.939,5.061,0,0,0,0,0,0,.09.154.18.307.268.457,9.873,16.729,14.759,10.707,28.661,13.806,2.586.578,4.914,1.217,6.451,2.581C394.086,1154.762,384.464,1172.341,370.157,1180.891Z" transform="translate(-279.873 -1118.688)" fill="#eabcb5"/>
            </g>
          </g>
          <g id="Grupo_114608" data-name="Grupo 114608" transform="translate(0.563 1.425)">
            <g id="Grupo_114599" data-name="Grupo 114599" transform="translate(0 16.463)">
              <g id="Grupo_114598" data-name="Grupo 114598">
                <path id="Trazado_160037" data-name="Trazado 160037" d="M374.118,1252.433l.5-.636c-.283-.217-29.027-21.79-91.343-27.347l-.073.8C345.281,1230.788,373.837,1252.218,374.118,1252.433Z" transform="translate(-283.199 -1224.45)" fill="#fff"/>
              </g>
            </g>
            <g id="Grupo_114601" data-name="Grupo 114601" transform="translate(53.186 4.98)">
              <g id="Grupo_114600" data-name="Grupo 114600">
                <path id="Trazado_160038" data-name="Trazado 160038" d="M598.147,1169.57c8.725-6.8,10.564-12.539,10.638-12.78l-.776-.235c-.018.057-1.862,5.753-10.364,12.382Z" transform="translate(-597.645 -1156.555)" fill="#fff"/>
              </g>
            </g>
            <g id="Grupo_114603" data-name="Grupo 114603" transform="translate(47.274)">
              <g id="Grupo_114602" data-name="Grupo 114602">
                <path id="Trazado_160039" data-name="Trazado 160039" d="M567.1,1153.677c2.583-3.889,2.754-9.727.5-16.883a53.535,53.535,0,0,0-4.2-9.68l-.7.4c.1.167,9.67,16.775,3.73,25.718Z" transform="translate(-562.693 -1127.114)" fill="#fff"/>
              </g>
            </g>
            <g id="Grupo_114605" data-name="Grupo 114605" transform="translate(7.882 22.222)">
              <g id="Grupo_114604" data-name="Grupo 114604">
                <path id="Trazado_160040" data-name="Trazado 160040" d="M357.269,1260.357c1.034-.749,1.6-1.242,1.625-1.265l-.541-.6c-.118.1-12.027,10.484-28.472,8.907l-.078.8C343.053,1269.472,353.416,1263.145,357.269,1260.357Z" transform="translate(-329.802 -1258.493)" fill="#fff"/>
              </g>
            </g>
            <g id="Grupo_114607" data-name="Grupo 114607" transform="translate(25.444 26.283)">
              <g id="Grupo_114606" data-name="Grupo 114606">
                <path id="Trazado_160041" data-name="Trazado 160041" d="M434.2,1298.34a18.927,18.927,0,0,0,5.813-10.736,13.939,13.939,0,0,0-.06-5.1l-.788.195c.019.078,1.863,7.905-5.533,15.067Z" transform="translate(-433.629 -1282.503)" fill="#fff"/>
              </g>
            </g>
          </g>
        </g>
        <g id="Grupo_114610" data-name="Grupo 114610" transform="translate(22.122 76.619)">
          <path id="Trazado_160042" data-name="Trazado 160042" d="M413.806,1116.509c-2.726-.611-3.339-1.653-3.094-2.713s1.254-1.739,3.98-1.127c4.966,1.114,6.923,3.572,6.923,3.572S418.845,1117.638,413.806,1116.509Z" transform="translate(-410.663 -1112.437)" fill="#eabcb5"/>
        </g>
      </g>
      <g id="Grupo_114612" data-name="Grupo 114612" transform="translate(418.214 537.988)" opacity="0.6">
        <path id="Trazado_160043" data-name="Trazado 160043" d="M1107.015,946.964c-4.724,1-9.273-3.395-9.241-8.919.159-26.94,2.568-94.571,22.8-92.967,24.372,1.931-9.587,65.708-10.563,97.88a4.04,4.04,0,0,1-3,4.006Z" transform="translate(-1097.774 -845.049)" fill="#eabcb5"/>
      </g>
      <g id="Grupo_114616" data-name="Grupo 114616" transform="translate(417.994 519.866)">
        <g id="Grupo_114613" data-name="Grupo 114613" transform="translate(0)">
          <path id="Trazado_160044" data-name="Trazado 160044" d="M1096.476,846.934s42.371-120.052,80.718-108.2-49.611,74.632-60.627,109.941Z" transform="translate(-1096.476 -737.907)" fill="#f9c7bb"/>
        </g>
        <g id="Grupo_114615" data-name="Grupo 114615" transform="translate(10.243 16.286)">
          <g id="Grupo_114614" data-name="Grupo 114614">
            <path id="Trazado_160045" data-name="Trazado 160045" d="M1158.023,928.005c7.161-24.522,23.374-48.523,35.714-64.339a307.163,307.163,0,0,1,25.323-28.741l-.717-.73a308.218,308.218,0,0,0-25.419,28.847c-12.395,15.887-28.682,40-35.889,64.68Z" transform="translate(-1157.036 -834.195)" fill="#fff"/>
          </g>
        </g>
      </g>
      <g id="Grupo_114630" data-name="Grupo 114630" transform="translate(442.475 603.643)">
        <g id="Grupo_114618" data-name="Grupo 114618" transform="translate(0)">
          <g id="Grupo_114617" data-name="Grupo 114617">
            <path id="Trazado_160046" data-name="Trazado 160046" d="M1310,1277.282c-10.363-2.193-15.094,12.769-24.707,5.3-8.128-6.32-8.525-7.5-12.838-6.3a16.153,16.153,0,0,0-4.181,1.864A9.576,9.576,0,0,1,1261,1279.6c-18.226-4.61-30.348-39.866-6.627-45.7,1.713-.421,3.737.027,5.933.625,11.908,3.252,13.129,9.9,27.686.749s18.188,14.925,25.952,17.607,15.336,3.4,17.674,13.883S1320.364,1279.482,1310,1277.282Z" transform="translate(-1241.212 -1233.213)" fill="#eabcb5"/>
          </g>
        </g>
        <g id="Grupo_114629" data-name="Grupo 114629" transform="translate(10.421 1.996)" opacity="0.5">
          <g id="Grupo_114620" data-name="Grupo 114620" transform="translate(0 18.006)">
            <g id="Grupo_114619" data-name="Grupo 114619">
              <path id="Trazado_160047" data-name="Trazado 160047" d="M1302.944,1352.69l-.123-.685c.3-.052,30.77-4.951,80.341,15.853l-.265.64C1333.512,1347.772,1303.244,1352.638,1302.944,1352.69Z" transform="translate(-1302.821 -1351.467)" fill="#fff"/>
            </g>
          </g>
          <g id="Grupo_114622" data-name="Grupo 114622" transform="translate(35.905)">
            <g id="Grupo_114621" data-name="Grupo 114621">
              <path id="Trazado_160048" data-name="Trazado 160048" d="M1518.184,1259.032c-3.908-8.694-3.011-13.806-2.971-14.02l.684.133c-.009.05-.886,5.135,2.922,13.606Z" transform="translate(-1515.097 -1245.012)" fill="#fff"/>
            </g>
          </g>
          <g id="Grupo_114624" data-name="Grupo 114624" transform="translate(37.041 2.594)">
            <g id="Grupo_114623" data-name="Grupo 114623">
              <path id="Trazado_160049" data-name="Trazado 160049" d="M1521.864,1279.113c-.407-4,1.8-8.524,6.377-13.073a45.954,45.954,0,0,1,7.064-5.693l.372.59c-.141.088-14.057,8.906-13.12,18.111Z" transform="translate(-1521.816 -1260.347)" fill="#fff"/>
            </g>
          </g>
          <g id="Grupo_114626" data-name="Grupo 114626" transform="translate(49.761 24.176)">
            <g id="Grupo_114625" data-name="Grupo 114625">
              <path id="Trazado_160050" data-name="Trazado 160050" d="M1597.747,1389.806c-.486-.986-.718-1.59-.729-1.617l.651-.239c.048.128,4.945,12.828,18.07,18.233l-.261.642C1604.9,1402.468,1599.559,1393.48,1597.747,1389.806Z" transform="translate(-1597.018 -1387.949)" fill="#fff"/>
            </g>
          </g>
          <g id="Grupo_114628" data-name="Grupo 114628" transform="translate(49.446 29.149)">
            <g id="Grupo_114627" data-name="Grupo 114627">
              <path id="Trazado_160051" data-name="Trazado 160051" d="M1596.081,1431.736a16.373,16.373,0,0,1-.122-10.522,12.023,12.023,0,0,1,2.086-3.866l.521.465c-.046.052-4.577,5.279-1.823,13.712Z" transform="translate(-1595.156 -1417.348)" fill="#fff"/>
            </g>
          </g>
        </g>
      </g>
      <g id="Grupo_114634" data-name="Grupo 114634" transform="translate(326.542 608.681)">
        <g id="Grupo_114631" data-name="Grupo 114631" transform="translate(0 31.469)">
          <ellipse id="Elipse_4991" data-name="Elipse 4991" cx="70.443" cy="9.599" rx="70.443" ry="9.599" fill="#ddd7dd"/>
        </g>
        <g id="Grupo_114632" data-name="Grupo 114632" transform="translate(0 9.599)">
          <rect id="Rectángulo_36831" data-name="Rectángulo 36831" width="140.885" height="31.469" fill="#ddd7dd"/>
        </g>
        <g id="Grupo_114633" data-name="Grupo 114633">
          <ellipse id="Elipse_4992" data-name="Elipse 4992" cx="70.443" cy="9.599" rx="70.443" ry="9.599" fill="#f7f0f7"/>
        </g>
      </g>
      <g id="Grupo_114689" data-name="Grupo 114689" transform="translate(370.977 478.467)">
        <g id="Grupo_114649" data-name="Grupo 114649" transform="translate(38.047 0)">
          <g id="Grupo_114635" data-name="Grupo 114635" transform="translate(0 43.1)">
            <path id="Trazado_160052" data-name="Trazado 160052" d="M1047.629,747.961s4.4,11.34,6.586,10.211c3.329-1.722,4.183-9.357,4.183-9.357l5.971,1.073s.451,15.054-7.2,18.981c-6.176,3.169-12.613-8.36-12.613-8.36l-1.114-10.49Z" transform="translate(-1043.442 -747.961)" fill="#ea9a81"/>
          </g>
          <g id="Grupo_114645" data-name="Grupo 114645" transform="translate(7.557)">
            <g id="Grupo_114636" data-name="Grupo 114636" transform="translate(5.022 34.637)">
              <path id="Trazado_160053" data-name="Trazado 160053" d="M1122.281,711.654h0a1.985,1.985,0,0,1-2.353-1.531l-2.074-9.8a1.986,1.986,0,0,1,1.532-2.354h0a1.985,1.985,0,0,1,2.353,1.531l2.074,9.8A1.985,1.985,0,0,1,1122.281,711.654Z" transform="translate(-1117.809 -697.927)" fill="#f46562"/>
            </g>
            <g id="Grupo_114644" data-name="Grupo 114644">
              <g id="Grupo_114637" data-name="Grupo 114637" transform="translate(6.332 2.952)">
                <path id="Trazado_160054" data-name="Trazado 160054" d="M1126.941,534.411s14.813-11.042,20.765-23.815l11.682,46.71s-19.383-12.252-30.093-13.485c0,0-3.093-1.321-3.627-4.345A5.818,5.818,0,0,1,1126.941,534.411Z" transform="translate(-1125.556 -510.596)" fill="#f46562"/>
              </g>
              <g id="Grupo_114638" data-name="Grupo 114638" transform="translate(21.535)">
                <ellipse id="Elipse_4993" data-name="Elipse 4993" cx="9.394" cy="24.38" rx="9.394" ry="24.38" transform="matrix(0.97, -0.243, 0.243, 0.97, 0, 4.56)" fill="#44393d"/>
              </g>
              <g id="Grupo_114639" data-name="Grupo 114639" transform="translate(30.135 21.95)">
                <path id="Trazado_160055" data-name="Trazado 160055" d="M1266.991,622.92l8.058.265a2.28,2.28,0,0,1,2.183,1.726l.42,1.677a2.688,2.688,0,0,1-1.331,3.017l-7.326,3.957S1264.613,628.923,1266.991,622.92Z" transform="translate(-1266.284 -622.92)" fill="#f46562"/>
              </g>
              <g id="Grupo_114640" data-name="Grupo 114640" transform="translate(37.845 22.142)">
                <path id="Trazado_160056" data-name="Trazado 160056" d="M1314.151,630.623a5.228,5.228,0,0,1-2.177-3.313,3.557,3.557,0,0,1,.259-2.5,2.163,2.163,0,0,1,.643-.752l.094.146c-.053.034-1.292.867-.826,3.074a5.038,5.038,0,0,0,2.094,3.2Z" transform="translate(-1311.868 -624.054)" fill="#30262a"/>
              </g>
              <g id="Grupo_114641" data-name="Grupo 114641" transform="translate(0 26.766)">
                <path id="Trazado_160057" data-name="Trazado 160057" d="M1095.838,651.395l-6.042,2.6a2.765,2.765,0,0,0-1.592,3.211l.594,2.376a2.768,2.768,0,0,0,3.051,2.071l6.342-.844s-1.935-.737-2.761-4.347A8.555,8.555,0,0,1,1095.838,651.395Z" transform="translate(-1088.121 -651.395)" fill="#44393d"/>
              </g>
              <g id="Grupo_114642" data-name="Grupo 114642" transform="translate(7.054 26.733)">
                <path id="Trazado_160058" data-name="Trazado 160058" d="M1132.787,660.709c-4.7-3.755-2.4-9.455-2.38-9.512l.161.067c-.023.056-2.271,5.637,2.328,9.309Z" transform="translate(-1129.825 -651.197)" fill="#30262a"/>
              </g>
              <g id="Grupo_114643" data-name="Grupo 114643" transform="translate(11.811 22.616)">
                <path id="Trazado_160059" data-name="Trazado 160059" d="M1162.509,642.045a16.219,16.219,0,0,1-4.553-10.542,11.729,11.729,0,0,1,.764-4.644l.159.072a11.557,11.557,0,0,0-.749,4.577,16.052,16.052,0,0,0,4.508,10.421Z" transform="translate(-1157.952 -626.859)" fill="#30262a"/>
              </g>
            </g>
          </g>
          <g id="Grupo_114647" data-name="Grupo 114647" transform="translate(12.895 38.942)">
            <g id="Grupo_114646" data-name="Grupo 114646">
              <path id="Trazado_160060" data-name="Trazado 160060" d="M1127.488,728.59s.963,2.093-.957,2.958c-2.445,1.1-4.871.342-3.982-.473.176-.161,2.5-1.194,2.5-1.194s-5.5,1.046-5.325-.168,4.912-2.05,4.912-2.05-5.448.514-4.913-.581,4.834-1.88,4.834-1.88-5.3.789-4.646-.468,3.474-1.11,4.683-1.321c1.143-.2,1.642.472,1.755,1.588a3.229,3.229,0,0,1,.649,1.792c-.042.286.262.511.321.706A7.25,7.25,0,0,1,1127.488,728.59Z" transform="translate(-1119.682 -723.379)" fill="#ea9a81"/>
            </g>
          </g>
          <g id="Grupo_114648" data-name="Grupo 114648" transform="translate(18.231 45.381)">
            <path id="Trazado_160061" data-name="Trazado 160061" d="M1151.252,763.726l-.025-.172c2.795-.412,2.623-2.017,2.614-2.085l.173-.023C1154.016,761.465,1154.225,763.289,1151.252,763.726Z" transform="translate(-1151.227 -761.447)" fill="#e28e57"/>
          </g>
        </g>
        <g id="Grupo_114650" data-name="Grupo 114650" transform="translate(27.836 134.015)">
          <path id="Trazado_160062" data-name="Trazado 160062" d="M988.024,1285.475s.06,2.405,1.688,3.083,6.343,1.291,4.581,2.837c-1.011.887-5.776.314-7.121.314s-2.608.586-3.608-.314c-1.1-.99,0-5.92,0-5.92a5.375,5.375,0,0,0,2.2.578A4.281,4.281,0,0,0,988.024,1285.475Z" transform="translate(-983.076 -1285.475)" fill="#30262a"/>
        </g>
        <g id="Grupo_114651" data-name="Grupo 114651" transform="translate(9.148 134.015)">
          <path id="Trazado_160063" data-name="Trazado 160063" d="M877.531,1285.472s.06,2.405,1.688,3.084,6.343,1.291,4.581,2.837c-1.011.887-5.775.314-7.121.314s-2.608.586-3.608-.314c-1.1-.99,0-5.92,0-5.92a5.372,5.372,0,0,0,2.2.578A4.282,4.282,0,0,0,877.531,1285.472Z" transform="translate(-872.582 -1285.472)" fill="#30262a"/>
        </g>
        <g id="Grupo_114652" data-name="Grupo 114652" transform="translate(24.842 68.085)">
          <path id="Trazado_160064" data-name="Trazado 160064" d="M985.41,895.683s.3,10.067-2.912,29.379c-2.32,13.942-5.058,27.991-6.4,34.726a5.255,5.255,0,0,1-4.908,4.267l-1.291.052a4.41,4.41,0,0,1-4.514-4.778l3.26-45.567.8-15Z" transform="translate(-965.371 -895.683)" fill="#44393d"/>
        </g>
        <g id="Grupo_114653" data-name="Grupo 114653" transform="translate(15.486 71.79)">
          <path id="Trazado_160065" data-name="Trazado 160065" d="M910.061,922.741c.148,1.225,7.076,1.077,15.559,0s15.085-2.911,14.937-4.137-6.991-1.374-15.474-.3S909.913,921.516,910.061,922.741Z" transform="translate(-910.059 -917.586)" fill="#30262a"/>
        </g>
        <g id="Grupo_114654" data-name="Grupo 114654" transform="translate(6.36 74.332)">
          <path id="Trazado_160066" data-name="Trazado 160066" d="M884.883,933.558l-18.11,58.175a5.837,5.837,0,0,1-5.448,4.146l-1.088.019a4.132,4.132,0,0,1-4.066-4.918l9.907-54.663a1.8,1.8,0,0,1,1.25-1.347C870.725,933.99,885.217,931.153,884.883,933.558Z" transform="translate(-856.102 -932.615)" fill="#44393d"/>
        </g>
        <g id="Grupo_114655" data-name="Grupo 114655" transform="translate(15.366 36.97)">
          <path id="Trazado_160067" data-name="Trazado 160067" d="M912.3,718.2s2.41-6.779,10.993-6.471,15.065,11.588,16.671,35.831c0,0-14.056-3.082-30.521,4.108C909.447,751.668,908.534,728.081,912.3,718.2Z" transform="translate(-909.35 -711.719)" fill="#f46562"/>
        </g>
        <g id="Grupo_114656" data-name="Grupo 114656" transform="translate(11.626 36.931)">
          <path id="Trazado_160068" data-name="Trazado 160068" d="M887.234,716.581l6.748,4.915s15.631,1.564,19.781.811a6.829,6.829,0,0,0,5.288-4.109,22.309,22.309,0,0,0-11.931-6.382,20.689,20.689,0,0,0-2.2-.275,21.366,21.366,0,0,0-3.8.083A36.435,36.435,0,0,0,887.234,716.581Z" transform="translate(-887.234 -711.492)" fill="#f46562"/>
        </g>
        <g id="Grupo_114657" data-name="Grupo 114657" transform="translate(11.27 41.771)">
          <path id="Trazado_160069" data-name="Trazado 160069" d="M885.3,740.55c-.662.944.707,3.087,3.059,4.786s4.795,2.312,5.457,1.368-.707-3.087-3.058-4.786S885.962,739.606,885.3,740.55Z" transform="translate(-885.133 -740.106)" fill="#30262a"/>
        </g>
        <g id="Grupo_114658" data-name="Grupo 114658" transform="translate(26.758 82.917)">
          <path id="Trazado_160070" data-name="Trazado 160070" d="M976.991,1001.733l-.289-.1L980.6,989.8a11.529,11.529,0,0,1,5.21-6.426l.151.264a11.225,11.225,0,0,0-5.072,6.257Z" transform="translate(-976.702 -983.372)" fill="#020202"/>
        </g>
        <g id="Grupo_114659" data-name="Grupo 114659" transform="translate(17.908 73.628)">
          <path id="Trazado_160071" data-name="Trazado 160071" d="M951.2,928.733a51.468,51.468,0,0,0-9.863-.111,100.41,100.41,0,0,0-16.957,2.8l2.911.489,18.226.722,3.669-3.009Z" transform="translate(-924.376 -928.453)" fill="#44393d"/>
        </g>
        <g id="Grupo_114660" data-name="Grupo 114660" transform="translate(38.667 43.193)">
          <rect id="Rectángulo_36832" data-name="Rectángulo 36832" width="0.21" height="4.291" transform="translate(0 0.099) rotate(-28.149)" fill="#30262a"/>
        </g>
        <g id="Grupo_114684" data-name="Grupo 114684" transform="translate(20.009 21.253)">
          <g id="Grupo_114661" data-name="Grupo 114661" transform="translate(13.714 6.924)">
            <path id="Trazado_160072" data-name="Trazado 160072" d="M1018.869,665.907l-.036-.1c.011,0,1.089-.418,1.307-1.217a1.5,1.5,0,0,0-.406-1.34c-.18-.223-.345-.424-.5-.609-1.044-1.272-1.435-1.748-1.342-2.91l.1.008c-.09,1.121.265,1.553,1.319,2.836.152.185.317.386.5.61a1.6,1.6,0,0,1,.425,1.431C1020.007,665.471,1018.915,665.89,1018.869,665.907Z" transform="translate(-1017.882 -659.736)" fill="#30262a"/>
          </g>
          <g id="Grupo_114662" data-name="Grupo 114662" transform="translate(9.054 6.929)">
            <path id="Trazado_160073" data-name="Trazado 160073" d="M995.054,659.761a5.2,5.2,0,0,0,1.232,3.486c1.4,1.685.3,3.187-1.359,2.683s-2.006,1.577-4.157.726S995.054,659.761,995.054,659.761Z" transform="translate(-990.33 -659.761)" fill="#30262a"/>
          </g>
          <g id="Grupo_114663" data-name="Grupo 114663" transform="translate(5.429 6.222)">
            <path id="Trazado_160074" data-name="Trazado 160074" d="M970.737,663.513l.756-2.634.221-.77,1.3-4.526.248,4.487.149,2.693.042.759a2.239,2.239,0,0,0,1.462,1.832s.7.85-.6,1.455c-1.529.711-4.3-.262-5.419-1.631A2.174,2.174,0,0,0,970.737,663.513Z" transform="translate(-968.897 -655.583)" fill="#ea9a81"/>
          </g>
          <g id="Grupo_114664" data-name="Grupo 114664" transform="translate(7.994 10.595)">
            <path id="Trazado_160075" data-name="Trazado 160075" d="M984.079,682.288c0,.024.009.049.014.073A2.842,2.842,0,0,0,986,684.254l.008-.009-.149-2.693a2.3,2.3,0,0,0-1.547.039A.631.631,0,0,0,984.079,682.288Z" transform="translate(-984.062 -681.438)" fill="#30262a"/>
          </g>
          <g id="Grupo_114665" data-name="Grupo 114665" transform="translate(5.001 1.22)">
            <ellipse id="Elipse_4994" data-name="Elipse 4994" cx="4.211" cy="5.195" rx="4.211" ry="5.195" transform="translate(0 1.068) rotate(-7.287)" fill="#ea9a81"/>
          </g>
          <g id="Grupo_114666" data-name="Grupo 114666" transform="translate(5.75 6.289)">
            <path id="Trazado_160076" data-name="Trazado 160076" d="M971.361,657.837a1.035,1.035,0,0,0,1.491-.086,1.158,1.158,0,0,0-.432-1.5,1.035,1.035,0,0,0-1.491.085A1.158,1.158,0,0,0,971.361,657.837Z" transform="translate(-970.792 -655.979)" fill="#ea9a81"/>
          </g>
          <g id="Grupo_114668" data-name="Grupo 114668" transform="translate(9.022 6.674)">
            <g id="Grupo_114667" data-name="Grupo 114667">
              <path id="Trazado_160077" data-name="Trazado 160077" d="M991.364,658.489a.1.1,0,0,0-.012-.181,1.037,1.037,0,0,0-1.2.432.1.1,0,0,0,.021.134.1.1,0,0,0,.134-.021,1.64,1.64,0,0,1,.992-.359A.1.1,0,0,0,991.364,658.489Z" transform="translate(-990.138 -658.258)" fill="#080435"/>
            </g>
          </g>
          <g id="Grupo_114669" data-name="Grupo 114669" transform="translate(9.626 7.604)">
            <path id="Trazado_160078" data-name="Trazado 160078" d="M993.715,664.2c.022.228.173.4.338.383s.281-.213.26-.441-.173-.4-.338-.383S993.693,663.968,993.715,664.2Z" transform="translate(-993.712 -663.754)" fill="#080435"/>
          </g>
          <g id="Grupo_114671" data-name="Grupo 114671" transform="translate(12.445 6.548)">
            <g id="Grupo_114670" data-name="Grupo 114670">
              <path id="Trazado_160079" data-name="Trazado 160079" d="M1011.632,657.93a.1.1,0,0,0,.058-.172,1.037,1.037,0,0,0-1.269-.056.1.1,0,0,0-.032.132.105.105,0,0,0,.132.032,1.64,1.64,0,0,1,1.054.046A.1.1,0,0,0,1011.632,657.93Z" transform="translate(-1010.375 -657.511)" fill="#080435"/>
            </g>
          </g>
          <g id="Grupo_114672" data-name="Grupo 114672" transform="translate(12.672 7.468)">
            <path id="Trazado_160080" data-name="Trazado 160080" d="M1011.742,663.265a.371.371,0,0,0,.167.483c.159.048.341-.09.408-.309a.371.371,0,0,0-.167-.483C1011.991,662.909,1011.808,663.047,1011.742,663.265Z" transform="translate(-1011.718 -662.947)" fill="#080435"/>
          </g>
          <g id="Grupo_114673" data-name="Grupo 114673">
            <path id="Trazado_160081" data-name="Trazado 160081" d="M947.87,621.258a2.418,2.418,0,0,1-2.055,2.39c-2.194.591-3.613,1.732-3.108,3.3s4.532,4.447,2.052,6.078-2.225-.851-5.022.074-3.8-2.838-2.113-5.313.139-8.254,7.577-8.94,5.481,5.569,5.481,5.569S948.118,623.233,947.87,621.258Z" transform="translate(-936.799 -618.797)" fill="#30262a"/>
          </g>
          <g id="Grupo_114674" data-name="Grupo 114674" transform="translate(3.262 1.721)">
            <path id="Trazado_160082" data-name="Trazado 160082" d="M960.064,641.909l-.03-.053a1.489,1.489,0,0,0,.86-1.081c.168-1.211-1.45-2.832-2.877-4.263-.378-.38-.736-.738-1.057-1.083a2.871,2.871,0,0,1-.6-3.271,3.3,3.3,0,0,1,3.429-1.653,4.217,4.217,0,0,0,2.963-.659,2.744,2.744,0,0,0,.816-.876l.054.027c-.009.019-.965,1.859-3.839,1.568a3.236,3.236,0,0,0-3.368,1.619,2.778,2.778,0,0,0,.586,3.2c.32.344.677.7,1.056,1.082,1.437,1.441,3.066,3.073,2.894,4.314A1.566,1.566,0,0,1,960.064,641.909Z" transform="translate(-956.086 -628.97)" fill="#fff"/>
          </g>
          <g id="Grupo_114676" data-name="Grupo 114676" transform="translate(11.869 4.425)">
            <g id="Grupo_114675" data-name="Grupo 114675">
              <path id="Trazado_160083" data-name="Trazado 160083" d="M1007.226,649.126l.058-.061a4.411,4.411,0,0,1-.124-1.3.846.846,0,0,0-.16-.071A4.5,4.5,0,0,0,1007.226,649.126Zm-.2-.384a4.353,4.353,0,0,0,.107.481,2.4,2.4,0,0,0,1.142,1.584l.011,0a1.21,1.21,0,0,0,.653.1,1.305,1.305,0,0,0,.436-.139,1.671,1.671,0,0,0,.392-.286,2.187,2.187,0,0,0,.287-.337,3.586,3.586,0,0,0,.559-1.417c.289-1.577-.265-3.218-1.235-3.66a1.213,1.213,0,0,0-.823-.075,1.466,1.466,0,0,0-.275.107,1.655,1.655,0,0,0-.295.2q-.076.065-.15.142a3.308,3.308,0,0,0-.795,1.7c-.011.057-.02.115-.028.171,0,0,0,.01,0,.017h0c-.016.118-.027.237-.034.356A4.681,4.681,0,0,0,1007.029,648.743Zm3.457-.438c-.011.132-.031.264-.055.4a3.468,3.468,0,0,1-.5,1.3,2.138,2.138,0,0,1-.267.33,1.512,1.512,0,0,1-.376.282,1.054,1.054,0,0,1-.9.041.212.212,0,0,1-.031-.012,2.277,2.277,0,0,1-1.075-1.574,4.411,4.411,0,0,1-.124-1.3c.007-.122.017-.246.036-.37.009-.072.02-.141.033-.213a3.071,3.071,0,0,1,.761-1.625,1.608,1.608,0,0,1,.38-.285,1.069,1.069,0,0,1,.266-.1.727.727,0,0,1,.146-.026h0a.98.98,0,0,1,.386.044,1.246,1.246,0,0,1,.132.05c.817.373,1.308,1.69,1.183,3.051A.018.018,0,0,1,1010.486,648.3Z" transform="translate(-1006.969 -644.957)" fill="#764678"/>
            </g>
          </g>
          <g id="Grupo_114677" data-name="Grupo 114677" transform="translate(6.675 3.859)" opacity="0.3">
            <ellipse id="Elipse_4995" data-name="Elipse 4995" cx="1.918" cy="2.824" rx="1.918" ry="2.824" transform="translate(0 0.434) rotate(-6.501)" fill="#fff"/>
          </g>
          <g id="Grupo_114678" data-name="Grupo 114678" transform="translate(11.9 4.598)" opacity="0.3">
            <path id="Trazado_160084" data-name="Trazado 160084" d="M1007.174,648.126c-.147,1.521.505,3.067,1.457,3.453s1.843-.535,1.989-2.056-.505-3.067-1.457-3.453S1007.321,646.6,1007.174,648.126Z" transform="translate(-1007.154 -645.982)" fill="#fff"/>
          </g>
          <g id="Grupo_114680" data-name="Grupo 114680" transform="translate(6.845 3.667)">
            <g id="Grupo_114679" data-name="Grupo 114679">
              <path id="Trazado_160085" data-name="Trazado 160085" d="M977.323,643.956a4.105,4.105,0,0,0,.414,1.25,2.547,2.547,0,0,0,1.257,1.215.872.872,0,0,0,.1.039,1.536,1.536,0,0,0,.687.071,1.439,1.439,0,0,0,.371-.1,1.758,1.758,0,0,0,.294-.151,2.783,2.783,0,0,0,1.1-2.1c.009-.086.015-.173.017-.26.005-.12,0-.24,0-.358a3.812,3.812,0,0,0-.971-2.439,2.078,2.078,0,0,0-.855-.558,1.546,1.546,0,0,0-1.355.185,2.652,2.652,0,0,0-1.057,1.832c-.015.087-.027.177-.037.267s-.016.192-.017.285A4.239,4.239,0,0,0,977.323,643.956Zm3.482,1.728a1.847,1.847,0,0,1-.459.439,1.483,1.483,0,0,1-.2.107,1.375,1.375,0,0,1-.99.053c-.037-.013-.074-.025-.109-.04a2.343,2.343,0,0,1-1.129-1.1,3.969,3.969,0,0,1-.463-1.964c0-.105.009-.211.018-.316a3.635,3.635,0,0,1,.07-.429,2.3,2.3,0,0,1,.079-.287.008.008,0,0,1,0-.006,2.8,2.8,0,0,1,.185-.452,2.046,2.046,0,0,1,.678-.79,1.37,1.37,0,0,1,.592-.222,1.384,1.384,0,0,1,.6.058,1.9,1.9,0,0,1,.762.491,3.618,3.618,0,0,1,.938,2.362,3.538,3.538,0,0,1,0,.361c0,.068-.006.137-.014.206a3.073,3.073,0,0,1-.544,1.509A.066.066,0,0,1,980.805,645.684Z" transform="translate(-977.268 -640.48)" fill="#764678"/>
            </g>
          </g>
          <g id="Grupo_114682" data-name="Grupo 114682" transform="translate(10.568 6.728)">
            <g id="Grupo_114681" data-name="Grupo 114681">
              <path id="Trazado_160086" data-name="Trazado 160086" d="M1000.9,659.115a.173.173,0,0,1-.115-.026h0a1.579,1.579,0,0,0-1.273-.061.181.181,0,0,1-.222-.111.172.172,0,0,1,.111-.219,1.887,1.887,0,0,1,1.571.094.176.176,0,0,1,.053.242A.169.169,0,0,1,1000.9,659.115Z" transform="translate(-999.282 -658.575)" fill="#764678"/>
            </g>
          </g>
          <g id="Grupo_114683" data-name="Grupo 114683" transform="translate(10.701 9.729)">
            <path id="Trazado_160087" data-name="Trazado 160087" d="M1000.952,676.874a.454.454,0,1,1-.443-.554A.508.508,0,0,1,1000.952,676.874Z" transform="translate(-1000.066 -676.32)" fill="#fff"/>
          </g>
        </g>
        <g id="Grupo_114688" data-name="Grupo 114688" transform="translate(0 43.849)">
          <g id="Grupo_114686" data-name="Grupo 114686" transform="translate(1.603)">
            <g id="Grupo_114685" data-name="Grupo 114685">
              <path id="Trazado_160088" data-name="Trazado 160088" d="M833.867,788.5a98.839,98.839,0,0,1,9.054-27.005,28.4,28.4,0,0,1,2.3-3.947c.635-.892-.163-3.063-1.628-4.2-1.375-1.069-3.659-1.135-4.059-.71a25.007,25.007,0,0,0-2.7,4.442c-4.267,7.93-6.762,16.343-8.854,30.031Z" transform="translate(-827.98 -752.394)" fill="#ea9a81"/>
            </g>
          </g>
          <g id="Grupo_114687" data-name="Grupo 114687" transform="translate(0 33.463)">
            <path id="Trazado_160089" data-name="Trazado 160089" d="M819.146,953.652a16.483,16.483,0,0,1,1.468-3.418s4.6.19,4.806.619c.482.988,1.008,3.16,1.471,4.158.2.432.78,1.935.392,2.2-.337.23-1.343-.739-1.769-1.259-.483,3.126-2.538,7.463-1.985.834h-.01c-.116.665-.761,4.867-1.555,4.358-.7-.449-.345-3.621-.166-4.717l-.029-.009c-.275,1.1-1.1,4.27-1.632,3.619-.67-.817.01-4.147.01-4.147s-.5,3.007-1.386,2.162c-.6-.576,0-2.958.246-4.005A1.848,1.848,0,0,1,819.146,953.652Z" transform="translate(-818.5 -950.234)" fill="#ea9a81"/>
          </g>
        </g>
      </g>
      <g id="Grupo_114773" data-name="Grupo 114773" transform="translate(434.189 538.817)">
        <g id="Grupo_114716" data-name="Grupo 114716" transform="translate(97.759 1.544)">
          <g id="Grupo_114690" data-name="Grupo 114690" transform="translate(7.904 115.445)">
            <path id="Trazado_160090" data-name="Trazado 160090" d="M1823.2,1541.611s-.057,2.266-1.59,2.9-5.975,1.215-4.315,2.672c.952.836,5.441.3,6.708.3s2.457.552,3.4-.3c1.036-.933,0-5.577,0-5.577a5.066,5.066,0,0,1-2.077.544A4.033,4.033,0,0,1,1823.2,1541.611Z" transform="translate(-1816.925 -1541.611)" fill="#30262a"/>
          </g>
          <g id="Grupo_114691" data-name="Grupo 114691" transform="translate(0.94 47.071)">
            <path id="Trazado_160091" data-name="Trazado 160091" d="M1775.763,1137.366s-.306,10.225,2.957,29.839c2.356,14.16,5.136,28.43,6.5,35.271a5.337,5.337,0,0,0,4.985,4.334l1.311.053a4.48,4.48,0,0,0,4.585-4.853l-3.31-46.281-.816-15.233Z" transform="translate(-1775.755 -1137.366)" fill="#93372b"/>
          </g>
          <g id="Grupo_114692" data-name="Grupo 114692" transform="translate(22.423 115.445)">
            <path id="Trazado_160092" data-name="Trazado 160092" d="M1909.039,1541.611s-.057,2.266-1.59,2.9-5.975,1.215-4.315,2.672c.952.836,5.441.3,6.708.3s2.457.552,3.4-.3c1.036-.933,0-5.577,0-5.577a5.066,5.066,0,0,1-2.077.544A4.033,4.033,0,0,1,1909.039,1541.611Z" transform="translate(-1902.768 -1541.611)" fill="#30262a"/>
          </g>
          <g id="Grupo_114693" data-name="Grupo 114693" transform="translate(15.46 47.071)">
            <path id="Trazado_160093" data-name="Trazado 160093" d="M1861.606,1137.366s-.306,10.225,2.957,29.839c2.356,14.16,5.137,28.43,6.5,35.271a5.337,5.337,0,0,0,4.985,4.334l1.311.053a4.48,4.48,0,0,0,4.585-4.853l-3.31-46.281-.816-15.233Z" transform="translate(-1861.598 -1137.366)" fill="#93372b"/>
          </g>
          <g id="Grupo_114694" data-name="Grupo 114694" transform="translate(0 55.182)">
            <path id="Trazado_160094" data-name="Trazado 160094" d="M1803.48,1188.416c-.032,1.234-7.491,1.723-16.717,1.436s-16.6-1.564-16.567-2.8,7.455-1.958,16.681-1.67S1803.511,1187.182,1803.48,1188.416Z" transform="translate(-1770.195 -1185.321)" fill="#30262a"/>
          </g>
          <g id="Grupo_114695" data-name="Grupo 114695" transform="translate(0 16.819)">
            <path id="Trazado_160095" data-name="Trazado 160095" d="M1801.222,965.047s-1.631-6.466-13.668-6.532c-17.359-.095-15.751,15.855-17.357,40.095,0,0,17.1-2.418,33.293,1.058C1803.489,999.668,1804.991,974.927,1801.222,965.047Z" transform="translate(-1770.196 -958.515)" fill="#44393d"/>
          </g>
          <g id="Grupo_114696" data-name="Grupo 114696" transform="translate(0 16.766)">
            <path id="Trazado_160096" data-name="Trazado 160096" d="M1805.665,963.857l-7.862,4.35s-17.214,1.563-21.784.81a7.319,7.319,0,0,1-5.823-4.109,25.186,25.186,0,0,1,13.14-6.38c.777-.127,1.583-.221,2.419-.275a23.768,23.768,0,0,1,4.182.083C1800.421,959.518,1805.665,963.857,1805.665,963.857Z" transform="translate(-1770.196 -958.199)" fill="#44393d"/>
          </g>
          <g id="Grupo_114697" data-name="Grupo 114697" transform="translate(14.923 6.534)">
            <path id="Trazado_160097" data-name="Trazado 160097" d="M1862.512,906.511l-.908-2.933-.264-.854-1.555-5.02-.2,4.993-.122,3-.039.949a2.868,2.868,0,0,1-.625,1.846,1.35,1.35,0,0,0,.47,2.174c1.136.49,4.256-.857,5.5-2.391C1864.755,908.271,1862.806,907.459,1862.512,906.511Z" transform="translate(-1858.423 -897.705)" fill="#ea9a81"/>
          </g>
          <g id="Grupo_114698" data-name="Grupo 114698" transform="translate(1.453 56.878)">
            <path id="Trazado_160098" data-name="Trazado 160098" d="M1778.785,1196.386s10-2.941,30.7,1.1l.159,2.978-30.35,1.073Z" transform="translate(-1778.785 -1195.351)" fill="#93372b"/>
          </g>
          <g id="Grupo_114699" data-name="Grupo 114699" transform="translate(25.337 20.903)">
            <ellipse id="Elipse_4996" data-name="Elipse 4996" cx="5.599" cy="2.091" rx="5.599" ry="2.091" transform="matrix(0.809, -0.588, 0.588, 0.809, 0, 6.582)" fill="#30262a"/>
          </g>
          <g id="Grupo_114700" data-name="Grupo 114700" transform="translate(2.906 22.797)">
            <path id="Trazado_160099" data-name="Trazado 160099" d="M1787.567,998.057l-.191-.053a16.026,16.026,0,0,1,2.222-4.147l.159.118A15.827,15.827,0,0,0,1787.567,998.057Z" transform="translate(-1787.376 -993.857)" fill="#30262a"/>
          </g>
          <g id="Grupo_114701" data-name="Grupo 114701" transform="translate(15.821 13.194)">
            <path id="Trazado_160100" data-name="Trazado 160100" d="M1863.869,938.413a4.224,4.224,0,0,0,2.39-1.33l-2.526.547Z" transform="translate(-1863.733 -937.083)" fill="#30262a"/>
          </g>
          <g id="Grupo_114702" data-name="Grupo 114702" transform="translate(12.142 4.649)">
            <path id="Trazado_160101" data-name="Trazado 160101" d="M1842.12,886.561a6.594,6.594,0,0,0,0,2.738c.317,1.524,1.867-2.221,1.867-2.221Z" transform="translate(-1841.979 -886.561)" fill="#30262a"/>
          </g>
          <g id="Grupo_114703" data-name="Grupo 114703" transform="translate(11.398 2.494)">
            <ellipse id="Elipse_4997" data-name="Elipse 4997" cx="5.379" cy="4.461" rx="5.379" ry="4.461" transform="matrix(0.13, -0.991, 0.991, 0.13, 0, 10.667)" fill="#ea9a81"/>
          </g>
          <g id="Grupo_114704" data-name="Grupo 114704" transform="translate(10.192)">
            <path id="Trazado_160102" data-name="Trazado 160102" d="M1841.319,866.523l-2.16-.224a1.572,1.572,0,0,1-1.166-.706c-.442-.693-.975-1.048-2.989-.973-2.551.1-4.235-1.425-4.51-2.759a1.523,1.523,0,0,1,2.3-1.636c1.281.649.731-.943,1.963-1.112,2.3-.316,2.733,1.459,4.618,1.4,2.471-.076,6.9,1.8,4.8,6.153Z" transform="translate(-1830.455 -859.074)" fill="#30262a"/>
          </g>
          <g id="Grupo_114705" data-name="Grupo 114705" transform="translate(16.244 8.007)">
            <path id="Trazado_160103" data-name="Trazado 160103" d="M1866.278,906.587a.091.091,0,0,1,.041-.167.979.979,0,0,1,1.042.593.091.091,0,0,1-.041.121.1.1,0,0,1-.121-.041,1.549,1.549,0,0,0-.865-.494A.089.089,0,0,1,1866.278,906.587Z" transform="translate(-1866.236 -906.412)" fill="#080435"/>
          </g>
          <g id="Grupo_114706" data-name="Grupo 114706" transform="translate(16.113 8.883)">
            <path id="Trazado_160104" data-name="Trazado 160104" d="M1866.024,912.054c-.057.208-.225.344-.376.3a.35.35,0,0,1-.17-.452c.057-.208.225-.343.376-.3A.35.35,0,0,1,1866.024,912.054Z" transform="translate(-1865.458 -911.595)" fill="#080435"/>
          </g>
          <g id="Grupo_114707" data-name="Grupo 114707" transform="translate(12.886 7.591)">
            <path id="Trazado_160105" data-name="Trazado 160105" d="M1846.436,904.278a.066.066,0,0,1-.049-.045.109.109,0,0,1,.035-.122.634.634,0,0,1,.922.1.108.108,0,0,1,0,.126.067.067,0,0,1-.1.014.948.948,0,0,0-.766-.088A.06.06,0,0,1,1846.436,904.278Z" transform="translate(-1846.38 -903.955)" fill="#080435"/>
          </g>
          <g id="Grupo_114708" data-name="Grupo 114708" transform="translate(13.199 8.487)">
            <path id="Trazado_160106" data-name="Trazado 160106" d="M1848.8,909.6c.027.214-.077.4-.233.423s-.3-.138-.33-.352.078-.4.233-.423S1848.77,909.388,1848.8,909.6Z" transform="translate(-1848.23 -909.248)" fill="#080435"/>
          </g>
          <g id="Grupo_114709" data-name="Grupo 114709" transform="translate(18.416 6.965)">
            <path id="Trazado_160107" data-name="Trazado 160107" d="M1884.576,900.878s-1.491,3.218-3.606,3.454a2.907,2.907,0,0,0-1.894-3.947S1882.385,899.864,1884.576,900.878Z" transform="translate(-1879.076 -900.251)" fill="#30262a"/>
          </g>
          <g id="Grupo_114710" data-name="Grupo 114710" transform="translate(19.172 7.921)">
            <path id="Trazado_160108" data-name="Trazado 160108" d="M1885.238,907.456a.9.9,0,1,1-.1-1.447A1.048,1.048,0,0,1,1885.238,907.456Z" transform="translate(-1883.546 -905.902)" fill="#ea9a81"/>
          </g>
          <g id="Grupo_114711" data-name="Grupo 114711" transform="translate(13.378 10.892)">
            <path id="Trazado_160109" data-name="Trazado 160109" d="M1849.291,923.47a9.157,9.157,0,0,0,2.91.229,1.4,1.4,0,0,1-1.76,1.127C1849.547,924.663,1849.291,923.47,1849.291,923.47Z" transform="translate(-1849.291 -923.47)" fill="#fff"/>
          </g>
          <g id="Grupo_114712" data-name="Grupo 114712" transform="translate(12.773 0.343)">
            <path id="Trazado_160110" data-name="Trazado 160110" d="M1845.749,861.7h-.037l0-.122a.553.553,0,0,0,.642-.472l.121.011A.678.678,0,0,1,1845.749,861.7Z" transform="translate(-1845.712 -861.104)" fill="#30262a"/>
          </g>
          <g id="Grupo_114713" data-name="Grupo 114713" transform="translate(11.113 1.564)">
            <path id="Trazado_160111" data-name="Trazado 160111" d="M1838.805,871.589a8.146,8.146,0,0,1-1.4-.583c-.931-.5-1.449-1.083-1.5-1.68a.97.97,0,0,1,.223-.853c.293-.252.8-.134,1.245-.03l.193.044-.013.059-.194-.044c-.432-.1-.922-.215-1.191.017a.918.918,0,0,0-.2.8c.112,1.4,2.826,2.2,2.853,2.21Z" transform="translate(-1835.901 -868.323)" fill="#fff"/>
          </g>
          <g id="Grupo_114714" data-name="Grupo 114714" transform="translate(16.185 0.735)">
            <path id="Trazado_160112" data-name="Trazado 160112" d="M1869.061,864.682a4.791,4.791,0,0,1-2.2-.5,3.294,3.294,0,0,1-.98-.723l.047-.039a4.413,4.413,0,0,0,3.938,1.145l.008.06A6.049,6.049,0,0,1,1869.061,864.682Z" transform="translate(-1865.883 -863.42)" fill="#fff"/>
          </g>
          <g id="Grupo_114715" data-name="Grupo 114715" transform="translate(11.479 62.645)">
            <path id="Trazado_160113" data-name="Trazado 160113" d="M1845.58,1247.562c-.026-.122-2.6-12.271-3.984-15.046-1.372-2.744-3.511-2.914-3.533-2.915l.01-.156a4.921,4.921,0,0,1,3.663,3c1.4,2.793,3.971,14.961,4,15.084Z" transform="translate(-1838.063 -1229.445)" fill="#30262a"/>
          </g>
        </g>
        <g id="Grupo_114717" data-name="Grupo 114717" transform="translate(10.861 54.681)">
          <path id="Trazado_160114" data-name="Trazado 160114" d="M1256.436,1178.524c.152,1.257,7.261,1.1,15.965,0s15.479-2.987,15.327-4.244-7.173-1.41-15.877-.308S1256.284,1177.267,1256.436,1178.524Z" transform="translate(-1256.433 -1173.235)" fill="#30262a"/>
        </g>
        <g id="Grupo_114720" data-name="Grupo 114720" transform="translate(0 20.16)">
          <g id="Grupo_114719" data-name="Grupo 114719">
            <g id="Grupo_114718" data-name="Grupo 114718">
              <path id="Trazado_160115" data-name="Trazado 160115" d="M1201.9,1004.729l4.213-4.894c-.075-.047-8.345-5.268-7.553-12.7.413-3.875,2.736-6.993,6.905-9.267a23.95,23.95,0,0,1,6.606-2.382l-.991-6.349a29.86,29.86,0,0,0-8.571,3.057c-6.028,3.287-9.554,8.213-10.2,14.244-.519,4.871,1.185,9.715,4.926,14.008C1199.924,1003.524,1199.8,1003.709,1201.9,1004.729Z" transform="translate(-1192.223 -969.135)" fill="#ea9a81"/>
            </g>
          </g>
        </g>
        <g id="Grupo_114721" data-name="Grupo 114721" transform="translate(10.738 18.953)">
          <path id="Trazado_160116" data-name="Trazado 160116" d="M1258.738,968.649s2.472-6.956,11.28-6.64,15.458,11.89,17.105,36.765c0,0-14.422-3.162-31.317,4.215C1255.806,1002.99,1254.87,978.788,1258.738,968.649Z" transform="translate(-1255.706 -961.999)" fill="#44393d"/>
        </g>
        <g id="Grupo_114722" data-name="Grupo 114722" transform="translate(6.853 18.914)">
          <path id="Trazado_160117" data-name="Trazado 160117" d="M1232.737,966.986l6.971,5.046s16.039,1.6,20.3.832a7.007,7.007,0,0,0,5.426-4.216,22.892,22.892,0,0,0-12.242-6.548,21.169,21.169,0,0,0-2.254-.282,21.927,21.927,0,0,0-3.9.085A37.815,37.815,0,0,0,1232.737,966.986Z" transform="translate(-1232.737 -961.767)" fill="#44393d"/>
        </g>
        <g id="Grupo_114723" data-name="Grupo 114723" transform="translate(6.786 23.944)">
          <path id="Trazado_160118" data-name="Trazado 160118" d="M1232.408,991.7c-.378.547.876,2.119,2.8,3.512s3.792,2.08,4.17,1.534-.876-2.119-2.8-3.512S1232.786,991.152,1232.408,991.7Z" transform="translate(-1232.341 -991.51)" fill="#30262a"/>
        </g>
        <g id="Grupo_114724" data-name="Grupo 114724" transform="translate(0.95 36.602)">
          <path id="Trazado_160119" data-name="Trazado 160119" d="M1199,1069.6c-.638,0-1.157-.731-1.157-1.629h0c0-.9.519-1.628,1.157-1.628s1.157.731,1.157,1.629S1199.634,1069.6,1199,1069.6Zm-.852-1.629c0,.717.39,1.323.852,1.323s.851-.606.851-1.323-.39-1.323-.851-1.323-.852.606-.852,1.323Z" transform="translate(-1197.839 -1066.346)" fill="#ec865c"/>
        </g>
        <g id="Grupo_114725" data-name="Grupo 114725" transform="translate(21.153 9.315)">
          <path id="Trazado_160120" data-name="Trazado 160120" d="M1317.3,914.75a2.62,2.62,0,0,0,2.135-1.562l1.174-2.726.341-.791,2-4.653-.347,4.822-.209,2.894-.06.825a1.317,1.317,0,0,0,1.086,1.388l.012,0c.356.58.849,1.758-.622,2.226-1.729.55-4.525-.81-5.528-2.423Z" transform="translate(-1317.287 -905.017)" fill="#ea9a81"/>
        </g>
        <g id="Grupo_114726" data-name="Grupo 114726" transform="translate(9.601 46.51)">
          <path id="Trazado_160121" data-name="Trazado 160121" d="M1249.881,1127.112s2.61-2.389,4.67-2.178,4.533,2.038,3.228,2.178a13.653,13.653,0,0,1-3.022-.141s3.64.773,3.091,1.546-3.708.07-3.708.07,4.258,1.265,3.5,1.827-3.983-.422-3.983-.422,3.915,1.335,3.022,1.968-3.228-1.124-3.777-.351-1.58,3.794-3.915,2.529Z" transform="translate(-1248.988 -1124.921)" fill="#ea9a81"/>
        </g>
        <g id="Grupo_114727" data-name="Grupo 114727" transform="translate(6.692 25.24)">
          <path id="Trazado_160122" data-name="Trazado 160122" d="M1237.632,1003.2s.386-1.159-1.365-2.451a9.758,9.758,0,0,0-4.022-1.581l-.459,2.213,2.472,1.08Z" transform="translate(-1231.786 -999.171)" fill="#ea9a81"/>
        </g>
        <g id="Grupo_114728" data-name="Grupo 114728" transform="translate(20.999 8.521)">
          <path id="Trazado_160123" data-name="Trazado 160123" d="M1316.747,900.324a5.387,5.387,0,0,1-.268,2.413c-.666,2.373,2.046,3.364,2.74,2.686.086-.084-.028-4.12-.028-4.12l-.867-.515Z" transform="translate(-1316.374 -900.324)" fill="#30262a"/>
        </g>
        <g id="Grupo_114729" data-name="Grupo 114729" transform="translate(24.471 13.877)">
          <path id="Trazado_160124" data-name="Trazado 160124" d="M1336.9,932.791c0,.026,0,.053.005.08a3.059,3.059,0,0,0,1.777,2.281l.01-.009.209-2.894a2.47,2.47,0,0,0-1.656-.169A.68.68,0,0,0,1336.9,932.791Z" transform="translate(-1336.904 -931.989)" fill="#30262a"/>
        </g>
        <g id="Grupo_114730" data-name="Grupo 114730" transform="translate(22.51 4.497)">
          <ellipse id="Elipse_4998" data-name="Elipse 4998" cx="4.53" cy="5.589" rx="4.53" ry="5.589" fill="#ea9a81"/>
        </g>
        <g id="Grupo_114731" data-name="Grupo 114731" transform="translate(21.289 3.599)">
          <path id="Trazado_160125" data-name="Trazado 160125" d="M1325.633,873.419c-.126.172.587,3.047-4.74,3.733s-2.127-5.776,1.8-5.922c5.675-.211,6.5,3.605,5.956,4.978S1325.633,873.419,1325.633,873.419Z" transform="translate(-1318.086 -871.221)" fill="#30262a"/>
        </g>
        <g id="Grupo_114732" data-name="Grupo 114732" transform="translate(3.276 1.544)">
          <path id="Trazado_160126" data-name="Trazado 160126" d="M1228.941,859.791s2.393,1.6.552,3.107-6.9,2.165-5.522,4.708,2.577,6.309.092,6.78-4.049.283-5.062,2.26-5.522.753-5.153-1.6-3.5-4.426-1.841-6.591,5.706-4.049,6.719-6.874S1227.009,858.567,1228.941,859.791Z" transform="translate(-1211.593 -859.074)" fill="#30262a"/>
        </g>
        <g id="Grupo_114733" data-name="Grupo 114733" transform="translate(21.968 8.614)">
          <path id="Trazado_160127" data-name="Trazado 160127" d="M1324.819,900.872s-2.177,2.295-1.422,4.641c0,0-1.263-1.379-1.291-1.894a19.882,19.882,0,0,1,.308-2.375Z" transform="translate(-1322.105 -900.872)" fill="#30262a"/>
        </g>
        <g id="Grupo_114734" data-name="Grupo 114734" transform="translate(22.642 8.976)">
          <path id="Trazado_160128" data-name="Trazado 160128" d="M1326.561,904.965a1.113,1.113,0,0,0,1.6.112,1.246,1.246,0,0,0-.255-1.662,1.114,1.114,0,0,0-1.6-.112A1.246,1.246,0,0,0,1326.561,904.965Z" transform="translate(-1326.086 -903.012)" fill="#ea9a81"/>
        </g>
        <g id="Grupo_114735" data-name="Grupo 114735" transform="translate(6.453 2.471)">
          <path id="Trazado_160129" data-name="Trazado 160129" d="M1230.555,881.965a.108.108,0,0,1-.039-.208,1.616,1.616,0,0,0,1.04-.828c.183-.51-.164-1.128-.531-1.782a3.306,3.306,0,0,1-.638-1.95c.124-.824,1.123-1,2.089-1.173.74-.132,1.505-.268,1.776-.69a.889.889,0,0,0,.064-.73c-.1-.387-.225-.737-.345-1.076-.547-1.542-.979-2.759,1.417-5.523,3.035-3.5,5.557-3.669,7.832-3.329.284.042,1.1.415,1.095.893s-.765.8-2.322.994a6.116,6.116,0,0,0-3.854,3.413c-.645,1.445.265,2.98,1.067,4.335.554.935,1.032,1.742.865,2.348a.965.965,0,0,1-.507.588,8.039,8.039,0,0,1-1.769.631c-1.491.4-2.9.784-3.083,3.331a.107.107,0,0,1-.115.1.108.108,0,0,1-.1-.115c.194-2.7,1.744-3.118,3.243-3.524a7.869,7.869,0,0,0,1.722-.612.749.749,0,0,0,.4-.456c.143-.517-.314-1.288-.843-2.18-.788-1.33-1.769-2.985-1.079-4.532a6.334,6.334,0,0,1,4.014-3.537c1.93-.243,2.141-.629,2.143-.784,0-.3-.652-.638-.911-.677-2.213-.331-4.671-.167-7.638,3.256-2.313,2.669-1.9,3.834-1.376,5.31.122.343.248.7.35,1.095a1.105,1.105,0,0,1-.091.9c-.322.5-1.135.646-1.92.786-.932.166-1.813.322-1.914.993a3.172,3.172,0,0,0,.613,1.813c.392.7.762,1.359.546,1.961a1.806,1.806,0,0,1-1.166.956A.108.108,0,0,1,1230.555,881.965Z" transform="translate(-1230.372 -864.553)" fill="#fff"/>
        </g>
        <g id="Grupo_114736" data-name="Grupo 114736" transform="translate(23.945 5.945)">
          <path id="Trazado_160130" data-name="Trazado 160130" d="M1333.9,886.985a.108.108,0,0,1,0-.216,3.746,3.746,0,0,0,2.931-1.622.108.108,0,0,1,.184.114,3.906,3.906,0,0,1-3.109,1.725Z" transform="translate(-1333.794 -885.096)" fill="#fff"/>
        </g>
        <g id="Grupo_114737" data-name="Grupo 114737" transform="translate(13.795 48.317)">
          <path id="Trazado_160131" data-name="Trazado 160131" d="M1275.331,1135.922c-.01,0-.97-.356-1.46-.009l-.089-.125c.556-.393,1.56-.025,1.6-.009Z" transform="translate(-1273.783 -1135.607)" fill="#e9845c"/>
        </g>
        <g id="Grupo_114738" data-name="Grupo 114738" transform="translate(12.893 49.929)">
          <path id="Trazado_160132" data-name="Trazado 160132" d="M1270.28,1145.456a2.584,2.584,0,0,0-1.769,0l-.062-.14a2.686,2.686,0,0,1,1.887,0Z" transform="translate(-1268.449 -1145.137)" fill="#e9845c"/>
        </g>
        <g id="Grupo_114739" data-name="Grupo 114739" transform="translate(12.505 51.307)">
          <path id="Trazado_160133" data-name="Trazado 160133" d="M1267.9,1153.63c-.012,0-1.153-.425-1.641-.013l-.1-.117c.557-.47,1.743-.032,1.793-.013Z" transform="translate(-1266.156 -1153.283)" fill="#e9845c"/>
        </g>
        <g id="Grupo_114740" data-name="Grupo 114740" transform="translate(26.445 13.195)">
          <path id="Trazado_160134" data-name="Trazado 160134" d="M1351.667,928.465a9.833,9.833,0,0,1-3.095-.508,1.508,1.508,0,0,0,1.547,1.627C1351.094,929.644,1351.667,928.465,1351.667,928.465Z" transform="translate(-1348.57 -927.957)" fill="#e9633e"/>
        </g>
        <g id="Grupo_114741" data-name="Grupo 114741" transform="translate(26.447 13.195)">
          <path id="Trazado_160135" data-name="Trazado 160135" d="M1351.678,928.465a2.023,2.023,0,0,1-1.248.307,3.623,3.623,0,0,1-1.847-.815A14.8,14.8,0,0,0,1351.678,928.465Z" transform="translate(-1348.583 -927.957)" fill="#fff"/>
        </g>
        <g id="Grupo_114743" data-name="Grupo 114743" transform="translate(26.128 9.838)">
          <g id="Grupo_114742" data-name="Grupo 114742">
            <path id="Trazado_160136" data-name="Trazado 160136" d="M1348.049,908.414a.1.1,0,0,0,.012-.2,1.116,1.116,0,0,0-1.334.3.1.1,0,0,0,0,.146.113.113,0,0,0,.146,0,1.764,1.764,0,0,1,1.108-.248A.1.1,0,0,0,1348.049,908.414Z" transform="translate(-1346.698 -908.113)" fill="#080435"/>
          </g>
        </g>
        <g id="Grupo_114744" data-name="Grupo 114744" transform="translate(26.663 10.837)">
          <path id="Trazado_160137" data-name="Trazado 160137" d="M1349.86,914.454c-.008.246.131.45.309.455s.329-.189.337-.435-.13-.45-.309-.455S1349.868,914.208,1349.86,914.454Z" transform="translate(-1349.86 -914.019)" fill="#080435"/>
        </g>
        <g id="Grupo_114746" data-name="Grupo 114746" transform="translate(29.834 10.139)">
          <g id="Grupo_114745" data-name="Grupo 114745">
            <path id="Trazado_160138" data-name="Trazado 160138" d="M1369.932,910.428a.1.1,0,0,0,.085-.176,1.115,1.115,0,0,0-1.347-.233.1.1,0,0,0-.052.136.113.113,0,0,0,.136.052,1.764,1.764,0,0,1,1.119.193A.1.1,0,0,0,1369.932,910.428Z" transform="translate(-1368.609 -909.89)" fill="#080435"/>
          </g>
        </g>
        <g id="Grupo_114747" data-name="Grupo 114747" transform="translate(29.92 11.119)">
          <path id="Trazado_160139" data-name="Trazado 160139" d="M1369.167,915.978a.4.4,0,0,0,.112.539c.163.073.376-.049.477-.273a.4.4,0,0,0-.112-.539C1369.481,915.631,1369.267,915.754,1369.167,915.978Z" transform="translate(-1369.115 -915.683)" fill="#080435"/>
        </g>
        <g id="Grupo_114748" data-name="Grupo 114748" transform="translate(34.646 25.339)">
          <rect id="Rectángulo_36833" data-name="Rectángulo 36833" width="0.216" height="4.403" transform="translate(0 0.102) rotate(-28.149)" fill="#30262a"/>
        </g>
        <g id="Grupo_114749" data-name="Grupo 114749" transform="translate(25.013 118.265)">
          <path id="Trazado_160140" data-name="Trazado 160140" d="M1345.242,1549.154s.063,2.478,1.752,3.177,6.584,1.329,4.755,2.922c-1.049.914-6,.324-7.392.324s-2.708.6-3.745-.324c-1.142-1.021,0-6.1,0-6.1a5.609,5.609,0,0,0,2.289.6A4.473,4.473,0,0,0,1345.242,1549.154Z" transform="translate(-1340.104 -1549.154)" fill="#30262a"/>
        </g>
        <g id="Grupo_114750" data-name="Grupo 114750" transform="translate(11.635 118.264)">
          <path id="Trazado_160141" data-name="Trazado 160141" d="M1266.152,1549.151s.063,2.478,1.752,3.177,6.584,1.33,4.755,2.922c-1.049.914-6,.324-7.392.324s-2.708.6-3.745-.324c-1.142-1.02,0-6.1,0-6.1a5.611,5.611,0,0,0,2.289.595A4.469,4.469,0,0,0,1266.152,1549.151Z" transform="translate(-1261.014 -1549.151)" fill="#30262a"/>
        </g>
        <g id="Grupo_114751" data-name="Grupo 114751" transform="translate(21.904 55.112)">
          <path id="Trazado_160142" data-name="Trazado 160142" d="M1341.113,1175.78s1.727,5.6-1.609,25.5c-2.408,14.363-5.251,28.836-6.646,35.775a5.441,5.441,0,0,1-5.1,4.4l-1.34.053a4.559,4.559,0,0,1-4.686-4.922l3.384-46.943L1324,1177.8Z" transform="translate(-1321.725 -1175.78)" fill="#93372b"/>
        </g>
        <g id="Grupo_114752" data-name="Grupo 114752" transform="translate(9.158 56.66)">
          <path id="Trazado_160143" data-name="Trazado 160143" d="M1268.431,1185.8l-11.043,58.323a6.028,6.028,0,0,1-5.087,4.807l-1.119.161a4.164,4.164,0,0,1-4.807-4.317l3.313-55.227a1.823,1.823,0,0,1,1.118-1.493C1254.179,1186.641,1268.471,1183.382,1268.431,1185.8Z" transform="translate(-1246.368 -1184.933)" fill="#93372b"/>
        </g>
        <g id="Grupo_114753" data-name="Grupo 114753" transform="translate(22.701 65.622)">
          <path id="Trazado_160144" data-name="Trazado 160144" d="M1326.747,1274.033l-.31-.055,5.233-29.427,0-.011a11.9,11.9,0,0,1,5.409-6.62l.156.274a11.582,11.582,0,0,0-5.262,6.435Z" transform="translate(-1326.437 -1237.92)" fill="#020202"/>
        </g>
        <g id="Grupo_114754" data-name="Grupo 114754" transform="translate(31.273 5.127)">
          <circle id="Elipse_4999" data-name="Elipse 4999" cx="37.674" cy="37.674" r="37.674" fill="#ea4747"/>
        </g>
        <g id="Grupo_114755" data-name="Grupo 114755" transform="translate(26.146 0)">
          <circle id="Elipse_5000" data-name="Elipse 5000" cx="30.265" cy="30.265" r="30.265" transform="translate(0 42.801) rotate(-45)" fill="#f46562"/>
        </g>
        <g id="Grupo_114756" data-name="Grupo 114756" transform="translate(37.933 11.787)">
          <circle id="Elipse_5001" data-name="Elipse 5001" cx="21.93" cy="21.93" r="21.93" transform="translate(0 31.013) rotate(-45)" fill="#ea4747"/>
        </g>
        <g id="Grupo_114757" data-name="Grupo 114757" transform="translate(52.532 26.385)">
          <circle id="Elipse_5002" data-name="Elipse 5002" cx="14.726" cy="14.726" r="14.726" transform="matrix(0.122, -0.993, 0.993, 0.122, 0, 29.232)" fill="#f46562"/>
        </g>
        <g id="Grupo_114758" data-name="Grupo 114758" transform="translate(61.756 35.61)">
          <circle id="Elipse_5003" data-name="Elipse 5003" cx="7.191" cy="7.191" r="7.191" fill="#93372b"/>
        </g>
        <g id="Grupo_114768" data-name="Grupo 114768" transform="translate(100.76 26.123)">
          <g id="Grupo_114764" data-name="Grupo 114764" transform="translate(0 12.042)">
            <g id="Grupo_114760" data-name="Grupo 114760">
              <g id="Grupo_114759" data-name="Grupo 114759">
                <path id="Trazado_160145" data-name="Trazado 160145" d="M1796.758,1078.9s-2.165-3.05-4.341-3.291-5.138,1.1-3.821,1.532a14.424,14.424,0,0,0,3.154.527s-3.934-.011-3.538.91,3.817.9,3.817.9-4.682.359-4.026,1.108,4.21.451,4.21.451-4.343.508-3.561,1.361,3.586-.443,3.982.478,2.279,4.446,4.974,3.659Z" transform="translate(-1787.94 -1075.584)" fill="#ea9a81"/>
              </g>
            </g>
            <g id="Grupo_114761" data-name="Grupo 114761" transform="translate(3.799 1.982)">
              <path id="Trazado_160146" data-name="Trazado 160146" d="M1811.932,1087.8c-.429-.469-1.5-.317-1.511-.316l-.024-.16c.047-.007,1.167-.165,1.654.366Z" transform="translate(-1810.398 -1087.3)" fill="#e9845c"/>
            </g>
            <g id="Grupo_114762" data-name="Grupo 114762" transform="translate(4.076 3.789)">
              <path id="Trazado_160147" data-name="Trazado 160147" d="M1813.894,1098.563a2.729,2.729,0,0,0-1.828-.393l-.026-.159a2.842,2.842,0,0,1,1.95.422Z" transform="translate(-1812.039 -1097.983)" fill="#e9845c"/>
            </g>
            <g id="Grupo_114763" data-name="Grupo 114763" transform="translate(4.261 5.342)">
              <path id="Trazado_160148" data-name="Trazado 160148" d="M1814.856,1107.713c-.414-.536-1.686-.354-1.7-.352l-.024-.16c.056-.008,1.38-.2,1.85.413Z" transform="translate(-1813.134 -1107.168)" fill="#e9845c"/>
            </g>
          </g>
          <g id="Grupo_114766" data-name="Grupo 114766" transform="translate(8.082)">
            <g id="Grupo_114765" data-name="Grupo 114765">
              <path id="Trazado_160149" data-name="Trazado 160149" d="M1836.564,1027.5c-1.494-.1-.543-7.857-.543-7.857,8.668,1.525,12.573-.342,14.322-2.176,3.53-3.7,2.178-9.755,2.163-9.823,0,0-.19-1.119,2.619-2.457a7.4,7.4,0,0,1,3.182-.8,1.3,1.3,0,0,1,1.275,1.063c.519,2.845,1.565,11.534-3.751,17.159C1852.194,1026.458,1843.827,1028,1836.564,1027.5Z" transform="translate(-1835.722 -1004.389)" fill="#ea9a81"/>
            </g>
          </g>
          <g id="Grupo_114767" data-name="Grupo 114767" transform="translate(22.601 15.979)" opacity="0.5">
            <path id="Trazado_160150" data-name="Trazado 160150" d="M1922.95,1102.179a1.841,1.841,0,0,1-.57-.085,1.155,1.155,0,0,1-.706-.578c-.365-.738.185-1.755,1.253-2.315a2.5,2.5,0,0,1,1.862-.254,1.155,1.155,0,0,1,.706.578c.365.739-.185,1.755-1.253,2.314A2.833,2.833,0,0,1,1922.95,1102.179Zm1.265-2.921a2.432,2.432,0,0,0-1.1.295c-.846.443-1.341,1.262-1.081,1.787a.779.779,0,0,0,.473.377,2.1,2.1,0,0,0,1.556-.228c.846-.443,1.341-1.262,1.081-1.787a.779.779,0,0,0-.473-.376A1.457,1.457,0,0,0,1924.215,1099.259Z" transform="translate(-1921.561 -1098.863)" fill="#ec865c"/>
          </g>
        </g>
        <g id="Grupo_114770" data-name="Grupo 114770" transform="translate(88.979 11.839)">
          <g id="Grupo_114769" data-name="Grupo 114769">
            <path id="Trazado_160151" data-name="Trazado 160151" d="M1723.087,920.889a1.816,1.816,0,0,0-2.5-.643c-1.859,1.228-3,4.54-1.81,3.778a16.293,16.293,0,0,0,2.321-1.993s-3.175,3.4-2.245,3.814,3.621-2.538,3.621-2.538-2.78,3.6-1.772,3.708,3.467-2.559,3.467-2.559-2.906,3.369-1.733,3.47,2.322-1.946,3.007-2.7c.647-.714.4-1.363-.337-1.938,0,0-.4-1-.972-1.252-.22-.1-.242-.411-.354-.539A6.034,6.034,0,0,0,1723.087,920.889Z" transform="translate(-1718.288 -919.938)" fill="#ea9a81"/>
          </g>
        </g>
        <g id="Grupo_114772" data-name="Grupo 114772" transform="translate(38.377 14.01)">
          <g id="Grupo_114771" data-name="Grupo 114771">
            <path id="Trazado_160152" data-name="Trazado 160152" d="M1420.1,934.833a1.6,1.6,0,0,0-.8,2.133c.9,1.747,3.694,3.06,3.139,1.946a14.346,14.346,0,0,0-1.526-2.224s2.674,3.106,3.129,2.33-1.881-3.415-1.881-3.415,2.889,2.778,3.081,1.906-1.913-3.282-1.913-3.282,2.677,2.867,2.877,1.849-1.485-2.22-2.082-2.893c-.565-.635-1.157-.477-1.731.111a2.368,2.368,0,0,0-1.19.733c-.107.184-.383.173-.506.259A5.31,5.31,0,0,0,1420.1,934.833Z" transform="translate(-1419.116 -932.775)" fill="#ea9a81"/>
          </g>
        </g>
      </g>
      <g id="Grupo_114779" data-name="Grupo 114779" transform="translate(479.547 651.711)">
        <g id="Grupo_114777" data-name="Grupo 114777" transform="translate(0.13 1.304)">
          <path id="Trazado_160155" data-name="Trazado 160155" d="M1463.681,1563.694s-3.465-3.506-2.273-5.5,3.2,4.289,3.2,4.289-1.043-7.432,1.118-7.561,0,7.561,0,7.561.8-1.793,1.583-1.9.559,1.52-.838,3.117Z" transform="translate(-1461.159 -1554.918)" fill="#f9c7bb"/>
        </g>
        <g id="Grupo_114778" data-name="Grupo 114778" transform="translate(0 0)">
          <path id="Trazado_160156" data-name="Trazado 160156" d="M1463.294,1557.375a15.713,15.713,0,0,1-1.812-2.292c-1.107-1.739-1.371-3.119-.784-4.1a.818.818,0,0,1,.782-.5c1.016.117,2.128,2.741,2.7,4.3-.191-1.948-.408-5.8.664-7.111a1.17,1.17,0,0,1,.853-.463.892.892,0,0,1,.786.343c.966,1.2.089,5.4-.392,7.373.359-.579.87-1.224,1.392-1.3a.507.507,0,0,1,.554.26c.311.575-.124,2.035-1.392,3.484l-.19-.166c1.246-1.424,1.59-2.772,1.36-3.2a.257.257,0,0,0-.3-.131c-.671.1-1.453,1.538-1.7,2.086l-.237-.086c0-.017.478-1.708.8-3.561.416-2.423.384-4.015-.092-4.605a.64.64,0,0,0-.575-.25.915.915,0,0,0-.673.37c-1.357,1.658-.486,8-.477,8.063l-.245.056c-.452-1.412-1.848-5.1-2.869-5.219-.194-.021-.371.1-.537.38-1.287,2.155,2.521,6.048,2.559,6.087Z" transform="translate(-1460.393 -1547.206)" fill="#30262a"/>
        </g>
      </g>
      <g id="Grupo_114782" data-name="Grupo 114782" transform="translate(303.155 647.001)">
        <g id="Grupo_114780" data-name="Grupo 114780" transform="translate(0.13 1.304)">
          <path id="Trazado_160157" data-name="Trazado 160157" d="M420.806,1506.043s-3.465-3.506-2.273-5.5,3.2,4.289,3.2,4.289-1.043-7.432,1.118-7.561,0,7.561,0,7.561.8-1.793,1.583-1.9.559,1.521-.838,3.117Z" transform="translate(-418.284 -1497.267)" fill="#f9c7bb"/>
        </g>
        <g id="Grupo_114781" data-name="Grupo 114781" transform="translate(0 0)">
          <path id="Trazado_160158" data-name="Trazado 160158" d="M420.418,1499.725a15.707,15.707,0,0,1-1.813-2.292c-1.107-1.739-1.371-3.119-.784-4.1a.817.817,0,0,1,.782-.5c1.016.116,2.128,2.741,2.7,4.3-.19-1.948-.408-5.8.664-7.111a1.17,1.17,0,0,1,.853-.463.891.891,0,0,1,.786.343c.965,1.2.089,5.405-.392,7.373.359-.579.87-1.224,1.392-1.3a.506.506,0,0,1,.554.26c.311.575-.124,2.035-1.392,3.484l-.19-.166c1.246-1.424,1.59-2.772,1.36-3.2a.258.258,0,0,0-.3-.131c-.671.1-1.454,1.538-1.7,2.086l-.237-.086c0-.017.477-1.708.8-3.561.416-2.423.384-4.015-.091-4.605a.643.643,0,0,0-.575-.25.915.915,0,0,0-.673.37c-1.357,1.658-.486,8-.477,8.062l-.245.056c-.452-1.412-1.849-5.1-2.869-5.219-.2-.023-.371.1-.537.38-1.287,2.155,2.521,6.048,2.559,6.087Z" transform="translate(-417.518 -1489.555)" fill="#30262a"/>
        </g>
      </g>
      <g id="Grupo_114785" data-name="Grupo 114785" transform="translate(577.972 646.627)">
        <g id="Grupo_114783" data-name="Grupo 114783" transform="translate(0.13 1.304)">
          <path id="Trazado_160159" data-name="Trazado 160159" d="M2045.592,1503.835s-3.465-3.506-2.273-5.5,3.2,4.289,3.2,4.289-1.043-7.432,1.118-7.561,0,7.561,0,7.561.8-1.793,1.583-1.9.559,1.521-.838,3.117Z" transform="translate(-2043.07 -1495.059)" fill="#f9c7bb"/>
        </g>
        <g id="Grupo_114784" data-name="Grupo 114784" transform="translate(0 0)">
          <path id="Trazado_160160" data-name="Trazado 160160" d="M2045.2,1497.517a15.67,15.67,0,0,1-1.813-2.292c-1.107-1.738-1.371-3.118-.784-4.1a.818.818,0,0,1,.782-.5c1.015.116,2.128,2.741,2.7,4.3-.19-1.948-.408-5.8.664-7.111a1.17,1.17,0,0,1,.853-.463.893.893,0,0,1,.786.343c.966,1.2.089,5.4-.392,7.373.36-.579.87-1.224,1.392-1.3a.507.507,0,0,1,.554.26c.311.575-.124,2.035-1.392,3.484l-.19-.166c1.246-1.424,1.591-2.772,1.36-3.2a.258.258,0,0,0-.3-.131c-.671.1-1.453,1.538-1.7,2.086l-.237-.086c0-.017.477-1.708.8-3.561.416-2.423.384-4.016-.092-4.605a.639.639,0,0,0-.575-.25.915.915,0,0,0-.673.37c-1.358,1.659-.486,8-.477,8.062l-.245.056c-.452-1.412-1.849-5.1-2.869-5.219-.194-.023-.37.1-.537.38-1.287,2.155,2.521,6.048,2.559,6.087Z" transform="translate(-2042.304 -1487.348)" fill="#30262a"/>
        </g>
      </g>
      <g id="Grupo_114788" data-name="Grupo 114788" transform="translate(382.054 651.978)">
        <g id="Grupo_114786" data-name="Grupo 114786" transform="translate(0.13 1.304)">
          <path id="Trazado_160161" data-name="Trazado 160161" d="M887.275,1535.469s-3.465-3.505-2.273-5.5,3.2,4.289,3.2,4.289-1.043-7.432,1.118-7.562,0,7.562,0,7.562.8-1.793,1.583-1.9.559,1.521-.838,3.117Z" transform="translate(-884.753 -1526.693)" fill="#f9c7bb"/>
        </g>
        <g id="Grupo_114787" data-name="Grupo 114787">
          <path id="Trazado_160162" data-name="Trazado 160162" d="M886.888,1529.151a15.7,15.7,0,0,1-1.813-2.292c-1.107-1.738-1.371-3.119-.784-4.1a.817.817,0,0,1,.782-.5c1.016.117,2.128,2.741,2.7,4.3-.19-1.948-.408-5.8.664-7.111a1.17,1.17,0,0,1,.853-.463.893.893,0,0,1,.787.343c.965,1.2.089,5.4-.392,7.373.359-.579.87-1.224,1.392-1.3a.507.507,0,0,1,.554.26c.311.575-.124,2.035-1.392,3.484l-.19-.166c1.246-1.424,1.59-2.772,1.36-3.2a.258.258,0,0,0-.3-.131c-.671.1-1.454,1.538-1.7,2.086l-.237-.086c0-.017.478-1.708.8-3.561.415-2.423.384-4.015-.092-4.605a.641.641,0,0,0-.575-.25.914.914,0,0,0-.673.37c-1.357,1.658-.486,8-.477,8.062l-.245.056c-.452-1.412-1.849-5.1-2.869-5.219-.195-.022-.371.1-.537.38-1.287,2.156,2.521,6.048,2.559,6.087Z" transform="translate(-883.987 -1518.981)" fill="#30262a"/>
        </g>
      </g>
      <g id="Grupo_114790" data-name="Grupo 114790" transform="translate(457.386 570.075)">
        <g id="Grupo_114789" data-name="Grupo 114789" transform="translate(0 0)">
          <rect id="Rectángulo_36834" data-name="Rectángulo 36834" width="1.095" height="46.931" transform="translate(0 1.065) rotate(-76.432)" fill="#30262a"/>
        </g>
      </g>
      <g id="Grupo_114791" data-name="Grupo 114791" transform="translate(500.582 578.592)">
        <path id="Trazado_160163" data-name="Trazado 160163" d="M1586.579,1085.107l3.7,4.067-5.527.4,2.554-1.65Z" transform="translate(-1584.754 -1085.107)" fill="#30262a"/>
      </g>
      <g id="Grupo_114792" data-name="Grupo 114792" transform="translate(454.039 567.237)">
        <path id="Trazado_160164" data-name="Trazado 160164" d="M1316.43,1018.629l2.273,4.077-3.5,1.564-2.088-.313,1.031-.919-2.009.606-2.557-.587,3.183-2.034.164-3.051,1.44.274.7,1.408.156-1.447Z" transform="translate(-1309.579 -1017.974)" fill="#f7f0f7"/>
      </g>
      <g id="Grupo_114793" data-name="Grupo 114793" transform="translate(458.278 567.403)">
        <rect id="Rectángulo_36835" data-name="Rectángulo 36835" width="0.156" height="3.512" transform="translate(0 0.036) rotate(-13.353)" fill="#30262a"/>
      </g>
      <g id="Grupo_114794" data-name="Grupo 114794" transform="translate(458.549 571.304)">
        <rect id="Rectángulo_36836" data-name="Rectángulo 36836" width="3.128" height="0.156" transform="translate(0 2.01) rotate(-39.99)" fill="#30262a"/>
      </g>
      <g id="Grupo_114795" data-name="Grupo 114795" transform="translate(457.201 570.212)">
        <rect id="Rectángulo_36837" data-name="Rectángulo 36837" width="0.157" height="6.174" transform="translate(0 0.151) rotate(-74.193)" fill="#30262a"/>
      </g>
    </g>
  </g>
</svg>
