<svg xmlns="http://www.w3.org/2000/svg" width="360" height="200" viewBox="0 0 360 200">
  <g id="Grupo_114987" data-name="Grupo 114987" transform="translate(-1987 5042)">
    <rect id="Rectángulo_36713" data-name="Rectángulo 36713" width="360" height="200" transform="translate(1987 -5042)" fill="#ffb6b0"/>
    <g id="Grupo_114986" data-name="Grupo 114986" transform="translate(1686.341 -5505.895)">
      <g id="Grupo_114883" data-name="Grupo 114883" transform="translate(508.384 476.393)">
        <path id="Trazado_160233" data-name="Trazado 160233" d="M1469.029,542.56l-5.275-7.385a7.224,7.224,0,0,0-5.544-3.033c-1.923-.1-4.049-.212-5.875-.313-4.622-.254-12.307-.055-19.088.121-3.186.083-6.194.161-8.434.177h-.082a10.016,10.016,0,0,1-7.058-2.724,6.65,6.65,0,0,1-2.068-4.7V499.536a6.845,6.845,0,0,1,2.245-4.938,9.453,9.453,0,0,1,6.968-2.489c1.189.056,2.536.156,3.962.262a97.929,97.929,0,0,0,14.65.3c8.438-.632,24.57-1.178,32.912-.559,5.33.4,9.2,3.519,9.2,7.427V524.7a6.273,6.273,0,0,1-2.727,5.057,13.217,13.217,0,0,1-6.467,2.37c-1.133.125-2.264.215-3.455.275a4.07,4.07,0,0,0-3.863,4.072Zm-22.348-11.093c2.142,0,4.083.034,5.667.121,1.826.1,3.951.216,5.874.313a7.465,7.465,0,0,1,5.729,3.134l4.835,6.769v-5.33a4.312,4.312,0,0,1,4.093-4.314c1.187-.06,2.313-.149,3.441-.274,4.469-.494,8.978-2.907,8.978-7.186V499.536c0-3.777-3.774-6.8-8.974-7.185-8.33-.619-24.446-.073-32.876.559a98.181,98.181,0,0,1-14.687-.3c-1.424-.106-2.77-.206-3.956-.262a9.205,9.205,0,0,0-6.789,2.422,6.6,6.6,0,0,0-2.17,4.763V524.7a6.409,6.409,0,0,0,2,4.531,9.772,9.772,0,0,0,6.887,2.654h.08c2.237-.016,5.245-.094,8.429-.176C1437.7,531.593,1442.562,531.467,1446.681,531.467Z" transform="translate(-1415.605 -491.837)" fill="#30262a"/>
      </g>
      <path id="Trazado_160234" data-name="Trazado 160234" d="M1491.331,516.561c-8.309-.617-24.411-.077-32.894.559-7.133.534-13.975-.338-18.627-.559-5.009-.237-9.086,3.271-9.086,7.306v25.164c0,4.035,4.068,7.342,9.086,7.306,6.883-.049,20.672-.674,27.53-.3,2.138.118,4.085.223,5.874.313a7.383,7.383,0,0,1,5.637,3.083l5.055,7.077v-5.708a4.2,4.2,0,0,1,3.978-4.193c1.186-.06,2.32-.15,3.448-.275,4.972-.549,9.086-3.271,9.086-7.306V523.867C1500.417,519.832,1496.327,516.932,1491.331,516.561Z" transform="translate(-920.235 -36.492)" fill="#d3a09f"/>
      <path id="Trazado_160235" data-name="Trazado 160235" d="M1012.718,474.018a131.282,131.282,0,0,0-14.936.254,62.874,62.874,0,0,1-8.458-.254c-2.274-.108-4.125,1.485-4.125,3.317v11.426c0,1.832,1.847,3.334,4.125,3.317,3.125-.023,9.386-.306,12.5-.135.971.053,1.855.1,2.667.142a3.352,3.352,0,0,1,2.559,1.4l2.3,3.213v-2.592a1.905,1.905,0,0,1,1.806-1.9c.539-.027,1.054-.068,1.566-.125,2.257-.249,4.125-1.485,4.125-3.317V477.336C1016.844,475.5,1014.987,474.187,1012.718,474.018Z" transform="translate(-536.734 0)" fill="#f28686"/>
      <g id="Grupo_114884" data-name="Grupo 114884" transform="translate(522.042 495.334)">
        <path id="Trazado_160236" data-name="Trazado 160236" d="M1513.717,628.993a.477.477,0,0,1,.423-.475,15.9,15.9,0,0,1,1.668-.09,4.019,4.019,0,0,1,2.123.4,1.553,1.553,0,0,1,.849,1.412,1.624,1.624,0,0,1-1.178,1.518v.021a1.779,1.779,0,0,1,1.423,1.752,1.911,1.911,0,0,1-.743,1.529,4.515,4.515,0,0,1-2.813.648c-.533,0-.977-.024-1.319-.056a.477.477,0,0,1-.432-.476Zm1.6,1.845a.478.478,0,0,0,.478.478h.053c.86,0,1.306-.35,1.306-.881s-.414-.828-1.147-.828c-.083,0-.158,0-.225,0a.478.478,0,0,0-.465.478Zm0,3.2a.477.477,0,0,0,.476.478h.15c.732,0,1.38-.287,1.38-1.04,0-.711-.648-1-1.455-1h-.074a.478.478,0,0,0-.478.478Z" transform="translate(-1513.717 -628.354)" fill="#f7f0f7"/>
        <path id="Trazado_160237" data-name="Trazado 160237" d="M1564.286,631.524c0,2.357-1.412,3.769-3.514,3.769a3.346,3.346,0,0,1-3.365-3.652,3.469,3.469,0,0,1,3.482-3.747A3.338,3.338,0,0,1,1564.286,631.524Zm-5.17.085c0,1.412.658,2.4,1.741,2.4s1.72-1.04,1.72-2.431c0-1.3-.6-2.4-1.72-2.4S1559.116,630.219,1559.116,631.61Z" transform="translate(-1551.325 -627.894)" fill="#f7f0f7"/>
        <path id="Trazado_160238" data-name="Trazado 160238" d="M1614.441,635.486v-6.2a.478.478,0,0,1,.477-.478h1.134a.477.477,0,0,1,.416.242l1.349,2.38a22.619,22.619,0,0,1,1.168,2.452h.021a29.512,29.512,0,0,1-.127-2.994v-1.6a.478.478,0,0,1,.478-.478h.531a.478.478,0,0,1,.478.478v6.2a.478.478,0,0,1-.478.478h-.939a.477.477,0,0,1-.418-.246l-1.393-2.514a24.257,24.257,0,0,1-1.242-2.526h-.043c.053.955.074,1.964.074,3.131v1.677a.478.478,0,0,1-.478.478h-.531A.478.478,0,0,1,1614.441,635.486Z" transform="translate(-1600.419 -628.682)" fill="#f7f0f7"/>
        <path id="Trazado_160239" data-name="Trazado 160239" d="M1664.872,628.809h.658a.478.478,0,0,1,.478.478v4.045c0,2.038-.977,2.75-2.537,2.75a4.665,4.665,0,0,1-.739-.064.476.476,0,0,1-.391-.536l.05-.364a.48.48,0,0,1,.54-.407,2.84,2.84,0,0,0,.359.023c.679,0,1.1-.308,1.1-1.412v-4.034A.478.478,0,0,1,1664.872,628.809Z" transform="translate(-1641.647 -628.682)" fill="#f7f0f7"/>
        <path id="Trazado_160240" data-name="Trazado 160240" d="M1702.906,631.524c0,2.357-1.412,3.769-3.514,3.769a3.346,3.346,0,0,1-3.365-3.652,3.47,3.47,0,0,1,3.482-3.747A3.338,3.338,0,0,1,1702.906,631.524Zm-5.17.085c0,1.412.658,2.4,1.741,2.4s1.72-1.04,1.72-2.431c0-1.3-.6-2.4-1.72-2.4S1697.736,630.219,1697.736,631.61Z" transform="translate(-1670.647 -627.894)" fill="#f7f0f7"/>
        <path id="Trazado_160241" data-name="Trazado 160241" d="M1754.2,628.809a.478.478,0,0,1,.478.478v3.631c0,1.242.477,1.868,1.295,1.868.849,0,1.316-.595,1.316-1.868v-3.631a.478.478,0,0,1,.478-.478h.658a.478.478,0,0,1,.478.478v3.535c0,2.208-1.115,3.259-2.983,3.259-1.8,0-2.856-1.009-2.856-3.28v-3.514a.478.478,0,0,1,.478-.478Z" transform="translate(-1719.741 -628.682)" fill="#f7f0f7"/>
        <path id="Trazado_160242" data-name="Trazado 160242" d="M1805.063,628.994a.477.477,0,0,1,.423-.475,15.622,15.622,0,0,1,1.732-.091,3.651,3.651,0,0,1,2.314.563,1.815,1.815,0,0,1,.669,1.507,1.9,1.9,0,0,1-1.264,1.752v.032a1.784,1.784,0,0,1,.956,1.327c.133.488.263,1.018.374,1.424a.477.477,0,0,1-.461.6h-.671a.476.476,0,0,1-.452-.323c-.1-.3-.226-.751-.362-1.344-.2-.9-.509-1.136-1.178-1.146h0a.478.478,0,0,0-.478.478v1.858a.478.478,0,0,1-.478.478h-.648a.478.478,0,0,1-.477-.478Zm1.6,2.184a.478.478,0,0,0,.478.478h.159c.807,0,1.284-.4,1.284-1.03,0-.647-.446-.987-1.189-.987-.1,0-.193,0-.273,0a.477.477,0,0,0-.459.477Z" transform="translate(-1764.503 -628.354)" fill="#f7f0f7"/>
      </g>
      <path id="Trazado_160243" data-name="Trazado 160243" d="M1331.751,1442.015c-3.276.2-8.095.983-13.118.5-5.974-.571-17.314-1.057-23.166-.5a6.72,6.72,0,0,0-6.4,6.568v22.623c0,3.627,2.9,6.074,6.4,6.568a37.35,37.35,0,0,0,5.638.327,2.781,2.781,0,0,1,2.808,2.778v6.043l5.587-7.822a3.823,3.823,0,0,1,2.844-1.592h.019c4.83-.339,14.541.222,19.388.267a6.465,6.465,0,0,0,6.4-6.568v-22.623C1338.15,1444.956,1335.279,1441.8,1331.751,1442.015Z" transform="translate(-798.301 -833.133)" fill="#d3a09f"/>
      <g id="Grupo_114885" data-name="Grupo 114885" transform="translate(500.13 622.331)">
        <path id="Trazado_160244" data-name="Trazado 160244" d="M1358.083,1541.789v1.7a.652.652,0,0,0,.652.652h1.612a.653.653,0,0,0,.652-.652v-1.7a.652.652,0,0,1,.652-.652h.462a.652.652,0,0,1,.652.652v6.527a.652.652,0,0,1-.652.652h-.462a.652.652,0,0,1-.652-.652v-1.972a.652.652,0,0,0-.652-.652h-1.612a.652.652,0,0,0-.652.652v1.972a.652.652,0,0,1-.652.652h-.462a.652.652,0,0,1-.652-.652v-6.527a.652.652,0,0,1,.652-.652h.462A.652.652,0,0,1,1358.083,1541.789Z" transform="translate(-1356.317 -1540.997)" fill="#f7f0f7"/>
        <path id="Trazado_160245" data-name="Trazado 160245" d="M1418.679,1544.108c0,2.58-1.545,4.125-3.846,4.125s-3.684-1.755-3.684-4a3.8,3.8,0,0,1,3.811-4.1A3.654,3.654,0,0,1,1418.679,1544.108Zm-5.659.093c0,1.546.72,2.626,1.906,2.626s1.882-1.139,1.882-2.661c0-1.417-.662-2.626-1.882-2.626S1413.021,1542.679,1413.021,1544.2Z" transform="translate(-1403.516 -1540.134)" fill="#f7f0f7"/>
        <path id="Trazado_160246" data-name="Trazado 160246" d="M1474.313,1541.136h.462a.652.652,0,0,1,.652.652v5.04a.652.652,0,0,0,.652.652h1.81a.652.652,0,0,1,.652.652v.183a.652.652,0,0,1-.652.652h-3.576a.652.652,0,0,1-.652-.652v-6.527A.652.652,0,0,1,1474.313,1541.136Z" transform="translate(-1457.325 -1540.997)" fill="#f7f0f7"/>
        <path id="Trazado_160247" data-name="Trazado 160247" d="M1516.375,1547.435l-.292,1.055a.652.652,0,0,1-.629.478h-.448a.653.653,0,0,1-.624-.842l1.985-6.527a.652.652,0,0,1,.624-.462h1.36a.652.652,0,0,1,.623.458l2.034,6.527a.652.652,0,0,1-.623.846h-.546a.652.652,0,0,1-.625-.464l-.325-1.081a.652.652,0,0,0-.625-.465H1517A.652.652,0,0,0,1516.375,1547.435Zm1.248-1.8a.652.652,0,0,0,.626-.836l-.243-.825c-.139-.465-.279-1.046-.4-1.511h-.023c-.116.465-.232,1.057-.36,1.511l-.233.834a.652.652,0,0,0,.628.828Z" transform="translate(-1492.352 -1540.997)" fill="#f7f0f7"/>
      </g>
      <path id="Trazado_160248" data-name="Trazado 160248" d="M404.342,1138.518c-5.851-.511-17.191-.064-23.166.463-5.023.442-9.842-.28-13.118-.463a6.111,6.111,0,0,0-6.4,6.049V1165.4a6.212,6.212,0,0,0,6.4,6.049c4.847-.041,14.558-.558,19.388-.246h.019a4,4,0,0,1,2.9,1.539l5.531,7.131v-4.9a3.22,3.22,0,0,1,3.217-3.223,39.568,39.568,0,0,0,5.229-.3c3.5-.455,6.4-2.708,6.4-6.049v-20.835C410.74,1141.227,407.861,1138.825,404.342,1138.518Z" transform="translate(0 -571.904)" fill="#d3a09f"/>
      <g id="Grupo_114886" data-name="Grupo 114886" transform="translate(368.99 575.553)">
        <path id="Trazado_160249" data-name="Trazado 160249" d="M531.155,1216.3a21.712,21.712,0,0,1,2.244-5.392.116.116,0,0,1,.14-.051l.741.264a.115.115,0,0,1,.063.165,22.836,22.836,0,0,0-2.139,5.371.116.116,0,0,1-.155.084l-.821-.308A.116.116,0,0,1,531.155,1216.3Zm.764-5.463a30.815,30.815,0,0,1-.694-3.357.116.116,0,0,1,.113-.13l.448-.012h7.039a.116.116,0,0,0,.109-.154,25.277,25.277,0,0,1-.706-2.428.115.115,0,0,0-.107-.088h-.005a.117.117,0,0,1-.023-.23l.991-.262a.116.116,0,0,1,.143.087,17.933,17.933,0,0,0,2.586,6.413.115.115,0,0,1-.029.166,5.2,5.2,0,0,0-.631.512.116.116,0,0,1-.174-.015,14.158,14.158,0,0,1-1.57-2.9.116.116,0,0,0-.107-.072h-2.43a.117.117,0,0,0-.117.117v9.284a.394.394,0,0,0,.394.394h.535c.26,0,.577,0,.912-.01a.116.116,0,0,1,.109.166,4.7,4.7,0,0,0-.3.863.117.117,0,0,1-.114.089c-2.2-.006-2.61-.228-2.61-1.385v-9.4a.117.117,0,0,0-.117-.117h-2.989a.117.117,0,0,0-.115.136c.131.782.274,1.576.393,2.144a.116.116,0,0,1-.092.138l-.707.136A.116.116,0,0,1,531.919,1210.838Zm7.521.217a15.113,15.113,0,0,0,2.233,5.2.115.115,0,0,1-.036.173,5.635,5.635,0,0,0-.652.418.116.116,0,0,1-.163-.021,16.145,16.145,0,0,1-2.351-5.268.115.115,0,0,0-.1-.085.511.511,0,0,1-.058-.009.117.117,0,0,1,0-.227l.985-.267A.116.116,0,0,1,539.44,1211.055Zm4.483,8.18h-.859a.117.117,0,0,1-.116-.117v-10.147a.118.118,0,0,0-.095-.114l-.043-.011a.117.117,0,0,1,0-.224l.148-.041a.116.116,0,0,0,.074-.161,36.117,36.117,0,0,1-1.462-3.656.116.116,0,0,0-.11-.078.468.468,0,0,1-.125-.016.117.117,0,0,1,0-.223l1.057-.318a.116.116,0,0,1,.144.076,24.684,24.684,0,0,0,3.83,7.75.115.115,0,0,1,0,.15c-.172.193-.4.471-.547.679a.116.116,0,0,1-.186,0,19.306,19.306,0,0,1-1.38-2.045.116.116,0,0,0-.217.059v8.317A.117.117,0,0,1,543.923,1219.235Z" transform="translate(-514.887 -1204.123)" fill="#f7f0f7"/>
        <path id="Trazado_160250" data-name="Trazado 160250" d="M418.244,1211.267v-1.85a.115.115,0,0,0-.042-.089,21.077,21.077,0,0,1-3.425-3.7.115.115,0,0,0-.056-.042c-.026-.009-.052-.02-.077-.032a.117.117,0,0,1-.012-.2l.681-.424a.116.116,0,0,1,.1-.012l.144.044a.118.118,0,0,0,.034.005h6.971a.117.117,0,0,1,.117.116v.794a.117.117,0,0,1-.117.117h-5.925a.116.116,0,0,0-.094.186,16.161,16.161,0,0,0,2.238,2.44.117.117,0,0,0,.083.028l.367-.022a.117.117,0,0,1,.124.116v2.53a.117.117,0,0,0,.117.117h3.759a.116.116,0,0,1,.117.116v.826a.117.117,0,0,1-.117.117h-3.759a.116.116,0,0,0-.117.117v5.294c0,.342.163.342.717.342.419,0,1.059-.014,1.767-.029a.116.116,0,0,1,.109.164,5.861,5.861,0,0,0-.307.839.117.117,0,0,1-.112.085c-2.8.028-3.282-.177-3.282-1.418v-5.278a.116.116,0,0,0-.117-.117h-3.694a.117.117,0,0,1-.117-.117v-.826a.116.116,0,0,1,.117-.116h3.694A.117.117,0,0,0,418.244,1211.267Zm5.783-3.713h2.35a.117.117,0,0,0,.114-.142c-.225-1.009-.435-1.987-.6-2.855a.114.114,0,0,0-.093-.091c-.159-.025-.234-.087-.249-.187l1.228-.15a.116.116,0,0,1,.129.093c.186.99.4,2.092.645,3.239a.117.117,0,0,0,.114.093h1.647a.117.117,0,0,1,.117.116v.794a.117.117,0,0,1-.117.117h-1.367a.117.117,0,0,0-.114.142c.454,2.01.934,3.977,1.328,5.374a.115.115,0,0,1-.058.134l-.717.377a.116.116,0,0,1-.167-.072l-.117-.427a.117.117,0,0,0-.173-.069c-.549.337-1.108.711-1.643,1.112a.118.118,0,0,0-.032.153,7.726,7.726,0,0,0,2.881,3.015.116.116,0,0,1,.029.18,4.8,4.8,0,0,0-.524.687.116.116,0,0,1-.161.039,8.792,8.792,0,0,1-3.056-3.221.117.117,0,0,0-.176-.033,11.9,11.9,0,0,0-1.542,1.489.117.117,0,0,1-.184,0l-.524-.7a.116.116,0,0,1,0-.143,11.823,11.823,0,0,1,1.794-1.65.115.115,0,0,0,.035-.138,21.4,21.4,0,0,1-1.526-6.906.112.112,0,0,0-.009-.036l-.037-.087a.116.116,0,0,1,.078-.158l.46-.121a.11.11,0,0,1,.058,0l.153.038A.122.122,0,0,0,424.027,1207.554Zm.374,1.156a19.392,19.392,0,0,0,1.284,5.412.117.117,0,0,0,.172.051c.621-.413,1.254-.822,1.874-1.166a.114.114,0,0,0,.056-.129c-.329-1.289-.687-2.754-1.017-4.207a.116.116,0,0,0-.113-.09h-2.14A.118.118,0,0,0,424.4,1208.71Z" transform="translate(-414.316 -1204.127)" fill="#f7f0f7"/>
      </g>
      <path id="Trazado_160251" data-name="Trazado 160251" d="M1567.828,971.979c17.848-10.717,42.063-22.562,48.672-12.685,7.964,11.9-20.235,16.885-42.258,23.781C1566.342,985.548,1556.453,978.81,1567.828,971.979Z" transform="translate(-1033.819 -414.638)" fill="#eabcb5"/>
      <path id="Trazado_160252" data-name="Trazado 160252" d="M728.655,1252.089c-11.534,13.883-27.953,30.511-36.19,24.323-9.926-7.457,11.719-19.612,27.764-31.564C725.984,1240.561,736.005,1243.242,728.655,1252.089Z" transform="translate(-282.592 -661.901)" fill="#eabcb5"/>
      <g id="Grupo_114888" data-name="Grupo 114888" transform="translate(518.465 556.605)">
        <path id="Trazado_160253" data-name="Trazado 160253" d="M1488.02,1080.684s71.467-25.842,80.333-3.725-53.139,5.359-73.617,13.624Z" transform="translate(-1488.02 -1068.01)" fill="#ffe5de"/>
        <g id="Grupo_114887" data-name="Grupo 114887" transform="translate(3.47 9.712)">
          <path id="Trazado_160254" data-name="Trazado 160254" d="M1513.181,1146.305c14.039-5.966,31.225-7.57,43.17-7.865a182.839,182.839,0,0,1,22.792.8l.07-.605a183.389,183.389,0,0,0-22.876-.8c-12,.3-29.266,1.911-43.393,7.914Z" transform="translate(-1512.943 -1137.772)" fill="#fff"/>
        </g>
      </g>
      <g id="Grupo_114890" data-name="Grupo 114890" transform="translate(418.674 568.106)">
        <path id="Trazado_160255" data-name="Trazado 160255" d="M804.243,1150.63s-5.365,67.113-26.453,66.153,15.164-44.821,16.007-64.367Z" transform="translate(-771.208 -1150.63)" fill="#ffe5de"/>
        <g id="Grupo_114889" data-name="Grupo 114889" transform="translate(8.696 0.947)">
          <path id="Trazado_160256" data-name="Trazado 160256" d="M852.161,1157.436c-.337,13.51-5.345,27.958-9.486,37.7a161.874,161.874,0,0,1-9,18.089l.463.279a162.507,162.507,0,0,0,9.035-18.156c4.16-9.785,9.19-24.3,9.529-37.9Z" transform="translate(-833.674 -1157.436)" fill="#fff"/>
        </g>
      </g>
      <g id="Grupo_114898" data-name="Grupo 114898" transform="translate(525.907 572.928)">
        <g id="Grupo_114891" data-name="Grupo 114891" transform="translate(0 0)">
          <path id="Trazado_160257" data-name="Trazado 160257" d="M1576.115,1230.933c-5.415-4.9-13.5,2.365-16.609-5.408-2.63-6.576-2.452-7.416-5.449-8.194a11.228,11.228,0,0,0-3.15-.34,6.634,6.634,0,0,1-4.85-1.657c-9.258-9.059-4.1-34.23,12.1-29.481a8.551,8.551,0,0,1,3.321,2.428c5.964,6.061,4.358,10.437,16.261,10.04s5.61,15.181,9.3,19.467,7.96,7.334,5.67,14.382S1581.526,1235.831,1576.115,1230.933Z" transform="translate(-1541.477 -1185.262)" fill="#eabcb5"/>
        </g>
        <g id="Grupo_114897" data-name="Grupo 114897" transform="translate(7.902 11.447)" opacity="0.5">
          <g id="Grupo_114892" data-name="Grupo 114892">
            <path id="Trazado_160258" data-name="Trazado 160258" d="M1598.238,1267.937l.167-.45c.2.074,20.1,7.718,42.379,37.271l-.384.289C1618.21,1275.6,1598.435,1268.011,1598.238,1267.937Z" transform="translate(-1598.238 -1267.487)" fill="#fff"/>
          </g>
          <g id="Grupo_114893" data-name="Grupo 114893" transform="translate(25.029 1.452)">
            <path id="Trazado_160259" data-name="Trazado 160259" d="M1778.023,1287.284c.723-6.525,3.055-9.256,3.154-9.369l.362.316c-.023.027-2.333,2.747-3.038,9.106Z" transform="translate(-1778.023 -1277.915)" fill="#fff"/>
          </g>
          <g id="Grupo_114894" data-name="Grupo 114894" transform="translate(21.314 8.022)">
            <path id="Trazado_160260" data-name="Trazado 160260" d="M1751.337,1331.617c1.164-2.523,4.068-4.447,8.4-5.566a32.076,32.076,0,0,1,6.217-.938l.015.479c-.115,0-11.52.426-14.2,6.227Z" transform="translate(-1751.337 -1325.112)" fill="#fff"/>
          </g>
          <g id="Grupo_114895" data-name="Grupo 114895" transform="translate(27.605 20.737)">
            <path id="Trazado_160261" data-name="Trazado 160261" d="M1796.594,1417.656c.056-.755.13-1.194.133-1.214l.473.083c-.016.092-1.556,9.344,4.378,17.108l-.381.291A24.373,24.373,0,0,1,1796.594,1417.656Z" transform="translate(-1796.531 -1416.441)" fill="#fff"/>
          </g>
          <g id="Grupo_114896" data-name="Grupo 114896" transform="translate(21.447 24.444)">
            <path id="Trazado_160262" data-name="Trazado 160262" d="M1752.3,1450.949a11.326,11.326,0,0,1,3.625-6.3,8.387,8.387,0,0,1,2.6-1.577l.147.457c-.046.015-4.587,1.554-5.906,7.525Z" transform="translate(-1752.297 -1443.071)" fill="#fff"/>
          </g>
        </g>
      </g>
      <path id="Trazado_160263" data-name="Trazado 160263" d="M1742.694,917.911c1.858-1.244,2.953-.8,3.622.195s.659,2.179-1.2,3.424a8.345,8.345,0,0,1-6.232,1.554S1739.26,920.212,1742.694,917.911Z" transform="translate(-1185.497 -381.548)" fill="#eabcb5"/>
      <path id="Trazado_160264" data-name="Trazado 160264" d="M1862.418,1238.45c2.686.593,3.226,1.941,2.907,3.386s-1.377,2.439-4.063,1.846c-4.893-1.081-6.68-4.219-6.68-4.219S1857.453,1237.354,1862.418,1238.45Z" transform="translate(-1285.087 -657.846)" fill="#eabcb5"/>
      <g id="Grupo_114908" data-name="Grupo 114908" transform="translate(439.187 498.496)">
        <g id="Grupo_114907" data-name="Grupo 114907" transform="translate(0 0)">
          <path id="Trazado_160265" data-name="Trazado 160265" d="M1066.459,761.35c-1.67.206-2.233-.264-2.313-.918s.351-1.247,2.021-1.452a7.574,7.574,0,0,1,4.66.63A7.414,7.414,0,0,1,1066.459,761.35Z" transform="translate(-1043.87 -743.82)" fill="#eabcb5"/>
          <g id="Grupo_114906" data-name="Grupo 114906">
            <g id="Grupo_114899" data-name="Grupo 114899" transform="translate(7.594 11.415)">
              <path id="Trazado_160266" data-name="Trazado 160266" d="M976.129,758.726l-.284-.324a61.342,61.342,0,0,0-.613-17.07c-.02-.115-.041-.232-.062-.347a65.172,65.172,0,0,0-1.6-6.77q-.22-.756-.464-1.521l.3-.1q.239.753.457,1.5a64.6,64.6,0,0,1,2.427,13.016c.011.122.021.245.03.367A60.525,60.525,0,0,1,976.129,758.726Z" transform="translate(-973.104 -732.598)" fill="#eabcb5"/>
            </g>
            <g id="Grupo_114900" data-name="Grupo 114900" transform="translate(10.567 7.136)">
              <path id="Trazado_160267" data-name="Trazado 160267" d="M994.637,721.063l-.178-.264c9.594-6.464,10.84-18.813,10.852-18.937l.317.029C1005.616,702.016,1004.359,714.513,994.637,721.063Z" transform="translate(-994.459 -701.861)" fill="#eabcb5"/>
            </g>
            <g id="Grupo_114901" data-name="Grupo 114901" transform="translate(3.805 15.746)">
              <path id="Trazado_160268" data-name="Trazado 160268" d="M950.478,767.654a11.283,11.283,0,0,1-4.589-3.771l.268-.172a10.7,10.7,0,0,0,5.833,4.122l-.078.309A9.344,9.344,0,0,1,950.478,767.654Z" transform="translate(-945.889 -763.712)" fill="#eabcb5"/>
            </g>
            <g id="Grupo_114902" data-name="Grupo 114902" transform="translate(4.455 4.715)">
              <path id="Trazado_160269" data-name="Trazado 160269" d="M954.208,689.553c.943,2.065.737,2.9.137,3.175s-1.367-.118-2.31-2.182c-1.718-3.761-1.462-6.075-1.462-6.075S952.465,685.737,954.208,689.553Z" transform="translate(-950.559 -684.471)" fill="#eabcb5"/>
            </g>
            <g id="Grupo_114903" data-name="Grupo 114903" transform="translate(0 11.562)">
              <path id="Trazado_160270" data-name="Trazado 160270" d="M923.553,737.408c1.522,1.684,1.578,2.544,1.088,2.986s-1.339.3-2.861-1.384c-2.772-3.068-3.226-5.351-3.226-5.351S920.741,734.3,923.553,737.408Z" transform="translate(-918.555 -733.659)" fill="#eabcb5"/>
            </g>
            <g id="Grupo_114904" data-name="Grupo 114904" transform="translate(10.953 11.637)">
              <path id="Trazado_160271" data-name="Trazado 160271" d="M999.676,738.886c-.3,1.656-.913,2.054-1.563,1.937s-1.087-.7-.789-2.361a7.573,7.573,0,0,1,1.982-4.264A7.414,7.414,0,0,1,999.676,738.886Z" transform="translate(-997.229 -734.198)" fill="#eabcb5"/>
            </g>
            <g id="Grupo_114905" data-name="Grupo 114905" transform="translate(20.359)">
              <path id="Trazado_160272" data-name="Trazado 160272" d="M1067.3,656.852c-.391,2.236-1.034,2.809-1.684,2.7s-1.06-.871-.669-3.107c.712-4.073,2.233-5.836,2.233-5.836S1068.023,652.72,1067.3,656.852Z" transform="translate(-1064.795 -650.605)" fill="#eabcb5"/>
            </g>
          </g>
        </g>
      </g>
      <path id="Trazado_160273" data-name="Trazado 160273" d="M759.059,673.794s-19.991-42.185-31.234-36.331,19.659,25.3,25.089,37.764Z" transform="translate(-313.087 -140.318)" fill="#eabcb5"/>
      <g id="Grupo_114910" data-name="Grupo 114910" transform="translate(390.671 498.961)">
        <path id="Trazado_160274" data-name="Trazado 160274" d="M624.01,690.719s-36.317-45.992-51.119-35.106,32.637,25.119,42.694,38.861Z" transform="translate(-570.054 -653.946)" fill="#f9c7bb"/>
        <g id="Grupo_114909" data-name="Grupo 114909" transform="translate(8.919 7.038)">
          <path id="Trazado_160275" data-name="Trazado 160275" d="M674.46,736.376c-6.772-9.617-17.38-17.656-25.086-22.707a140.947,140.947,0,0,0-15.257-8.745l.2-.425a141.474,141.474,0,0,1,15.314,8.777c7.74,5.073,18.4,13.152,25.213,22.83Z" transform="translate(-634.117 -704.498)" fill="#fff"/>
        </g>
      </g>
      <g id="Grupo_114914" data-name="Grupo 114914" transform="translate(370.275 518.635)">
        <g id="Grupo_114911" data-name="Grupo 114911" transform="translate(0 0)">
          <path id="Trazado_160276" data-name="Trazado 160276" d="M484.72,843.208c-3.108,4.723-13.359,4.325-17.356,1.129-1.141-.912-6.047-7.579-16.914-7.563-7.795.007-7.509-6.806-9.868-12.191-.042-.1-.087-.2-.131-.294a9.568,9.568,0,0,0-4.543-4.9,31.352,31.352,0,0,1-6.9-4.58q-.255-.224-.5-.455c-4.029-3.743-6.38-8.332-3.991-12.231.056-.092.115-.184.177-.275a9.011,9.011,0,0,1,1.7-1.85c7.38-6.165,13.115-2.5,20.061-.127,3.841,1.312,10.36-2.721,16.315-4.135l.256-.059c4.717-1.062,9.049-.4,11.368,5.981,0,0,0,0,0,0,.047.129.095.258.141.384C479.75,816.113,507.158,797.9,484.72,843.208Z" transform="translate(-423.552 -795.265)" fill="#ffe5de"/>
        </g>
        <g id="Grupo_114913" data-name="Grupo 114913" transform="translate(0.878 6.556)">
          <g id="Grupo_114912" data-name="Grupo 114912">
            <path id="Trazado_160277" data-name="Trazado 160277" d="M494.933,875.791l.461-.419c-.185-.2-19.015-20.478-65.373-33.012l-.163.6C476.042,855.448,494.749,875.589,494.933,875.791Z" transform="translate(-429.858 -842.36)" fill="#fff"/>
          </g>
        </g>
      </g>
      <path id="Trazado_160278" data-name="Trazado 160278" d="M527.284,754.785c-1.815-.83-2-1.855-1.56-2.816s1.335-1.492,3.15-.662a7.508,7.508,0,0,1,4.109,3.981A7.361,7.361,0,0,1,527.284,754.785Z" transform="translate(-141.053 -238.438)" fill="#eabcb5"/>
      <g id="Grupo_114915" data-name="Grupo 114915" transform="translate(416.805 528.102)">
        <path id="Trazado_160279" data-name="Trazado 160279" d="M788.274,956.741V946.355a5.346,5.346,0,0,0-5.077-5.461c-3-.1-5.788-.305-8.531-.62a23.776,23.776,0,0,1-11.894-4.522,12.046,12.046,0,0,1-4.994-9.6V877.917c0-7.43,7.1-13.371,16.892-14.125,15.4-1.187,45.188-.141,60.77,1.071,9.8.762,19.378.024,27.072-.569,2.633-.2,5.12-.395,7.315-.5a17.055,17.055,0,0,1,12.58,4.533,13.256,13.256,0,0,1,4.328,9.593V926.15a12.893,12.893,0,0,1-3.986,9.136,18.13,18.13,0,0,1-12.916,4.99c-4.135-.031-9.69-.18-15.571-.338-12.526-.337-26.723-.718-35.264-.231-4.473.255-9.188.52-13.371.728a8.125,8.125,0,0,0-6.312,3.574Zm4.036-93.228c-6.689,0-12.847.153-17.621.521-9.659.744-16.669,6.583-16.669,13.883V926.15a11.812,11.812,0,0,0,4.9,9.412,23.532,23.532,0,0,0,11.772,4.472c2.736.314,5.52.516,8.511.618a5.588,5.588,0,0,1,5.311,5.7v9.736l10.606-12.231a8.356,8.356,0,0,1,6.492-3.668c4.182-.208,8.9-.473,13.369-.728,8.552-.488,22.754-.106,35.285.231,5.88.158,11.434.307,15.567.338h.148a17.89,17.89,0,0,0,12.6-4.92,12.651,12.651,0,0,0,3.915-8.964V877.917a13.017,13.017,0,0,0-4.253-9.417,16.806,16.806,0,0,0-12.4-4.466l-.006-.121.006.121c-2.191.108-4.676.3-7.307.5-7.7.594-17.29,1.332-27.11.569C824.68,864.269,807.182,863.513,792.31,863.513Z" transform="translate(-757.778 -863.27)" fill="#30262a"/>
      </g>
      <path id="Trazado_160280" data-name="Trazado 160280" d="M897.485,853.984c-8.754.415-21.63,2.057-35.052,1.051-15.964-1.2-46.264-2.212-61.9-1.051-9.4.7-17.1,6.155-17.1,13.748v47.353c0,7.593,7.743,12.715,17.1,13.748,2.807.31,5.637.507,8.682.608a5.48,5.48,0,0,1,5.293,5.48v13.061l11.023-15.432a8.523,8.523,0,0,1,6.527-3.56c4.051-.195,8.551-.436,13.623-.715,12.905-.709,38.853.466,51.8.559,9.442.068,17.1-6.155,17.1-13.748V867.733C914.582,860.14,906.911,853.538,897.485,853.984Z" transform="translate(-363.059 -326.735)" fill="#f28686"/>
      <g id="Grupo_114916" data-name="Grupo 114916" transform="translate(443.445 557.39)">
        <path id="Trazado_160281" data-name="Trazado 160281" d="M953.551,1077.955v3.918a1.8,1.8,0,0,0,1.8,1.8h3.686a1.8,1.8,0,0,0,1.8-1.8v-3.918a1.8,1.8,0,0,1,1.8-1.8h.812a1.8,1.8,0,0,1,1.8,1.8v15.961a1.8,1.8,0,0,1-1.8,1.8h-.812a1.8,1.8,0,0,1-1.8-1.8v-4.585a1.8,1.8,0,0,0-1.8-1.8H955.35a1.8,1.8,0,0,0-1.8,1.8v4.585a1.8,1.8,0,0,1-1.8,1.8h-.813a1.8,1.8,0,0,1-1.8-1.8v-15.961a1.8,1.8,0,0,1,1.8-1.8h.813A1.8,1.8,0,0,1,953.551,1077.955Z" transform="translate(-949.14 -1075.808)" fill="#f7f0f7"/>
        <path id="Trazado_160282" data-name="Trazado 160282" d="M1102.571,1087.445h-3.6a1.8,1.8,0,0,0-1.8,1.8v1.045a1.8,1.8,0,0,0,1.8,1.8h4.44a1.8,1.8,0,0,1,1.8,1.8v.029a1.8,1.8,0,0,1-1.8,1.8h-8.851a1.8,1.8,0,0,1-1.8-1.8v-15.961a1.8,1.8,0,0,1,1.8-1.8h8.445a1.8,1.8,0,0,1,1.8,1.8v.029a1.8,1.8,0,0,1-1.8,1.8h-4.034a1.8,1.8,0,0,0-1.8,1.8v.464a1.8,1.8,0,0,0,1.8,1.8h3.6a1.8,1.8,0,0,1,1.8,1.8h0A1.8,1.8,0,0,1,1102.571,1087.445Z" transform="translate(-1072.768 -1075.808)" fill="#f7f0f7"/>
        <path id="Trazado_160283" data-name="Trazado 160283" d="M1205.873,1076.156h.813a1.8,1.8,0,0,1,1.8,1.8V1090.2a1.8,1.8,0,0,0,1.8,1.8h4.179a1.8,1.8,0,0,1,1.8,1.8v.116a1.8,1.8,0,0,1-1.8,1.8h-8.59a1.8,1.8,0,0,1-1.8-1.8v-15.961A1.8,1.8,0,0,1,1205.873,1076.156Z" transform="translate(-1168.583 -1075.808)" fill="#f7f0f7"/>
        <path id="Trazado_160284" data-name="Trazado 160284" d="M1312.389,1076.156h.813a1.8,1.8,0,0,1,1.8,1.8V1090.2a1.8,1.8,0,0,0,1.8,1.8h4.179a1.8,1.8,0,0,1,1.8,1.8v.116a1.8,1.8,0,0,1-1.8,1.8h-8.59a1.8,1.8,0,0,1-1.8-1.8v-15.961A1.8,1.8,0,0,1,1312.389,1076.156Z" transform="translate(-1260.271 -1075.808)" fill="#f7f0f7"/>
        <path id="Trazado_160285" data-name="Trazado 160285" d="M1421.321,1083.579c0,6.443-3.86,10.3-9.605,10.3-5.775,0-9.2-4.382-9.2-9.983,0-5.862,3.772-10.244,9.518-10.244C1418.042,1073.654,1421.321,1078.152,1421.321,1083.579Zm-14.132.232c0,3.859,1.8,6.558,4.759,6.558,2.989,0,4.7-2.844,4.7-6.646,0-3.54-1.654-6.558-4.7-6.558C1408.929,1077.166,1407.188,1080.01,1407.188,1083.811Z" transform="translate(-1339.4 -1073.654)" fill="#f7f0f7"/>
      </g>
      <g id="Grupo_114934" data-name="Grupo 114934" transform="translate(522.232 577.593)">
        <path id="Trazado_160286" data-name="Trazado 160286" d="M1666.616,1588.225a9.284,9.284,0,0,0,1.33,3.579c.638.8,2.4,2.375,1.146,2.9-1,.42-2.922-1.449-3.547-1.915s-1.566-1.345-1.357-2.1a12.143,12.143,0,0,0,.29-3.507Z" transform="translate(-1643.405 -1535.9)" fill="#30262a"/>
        <path id="Trazado_160287" data-name="Trazado 160287" d="M1611.126,1570.822a9.286,9.286,0,0,0,0,3.819c.321.969,1.421,3.059.066,3.118-1.082.047-2.236-2.375-2.659-3.028s-1-1.806-.544-2.436a12.135,12.135,0,0,0,1.491-3.187Z" transform="translate(-1594.912 -1520.335)" fill="#30262a"/>
        <g id="Grupo_114917" data-name="Grupo 114917" transform="translate(10.403 24.952)">
          <path id="Trazado_160288" data-name="Trazado 160288" d="M1596.292,1425.207c12.965-8.648,12.325-16.225,10.528-19.187a16.029,16.029,0,0,0-10.454-7.376,28.053,28.053,0,0,0-3.709-.618,2.593,2.593,0,0,0-2.853,2.648l.116,4.412h-.01c2.163-.045,8.726.614,10.446,4.112.357.727-8.37,10.977-8.044,12.816C1592.68,1424.095,1595.024,1426.052,1596.292,1425.207Z" transform="translate(-1589.803 -1398.012)" fill="#44393d"/>
        </g>
        <g id="Grupo_114918" data-name="Grupo 114918" transform="translate(1.308 25.57)">
          <path id="Trazado_160289" data-name="Trazado 160289" d="M1545.083,1430.318a2.582,2.582,0,0,0,2.592-2.733c-.2-3.309-.81-8.941-2.737-13.2a18.2,18.2,0,0,0-5.164-6.522,28.893,28.893,0,0,0-6.26-3.834,14.85,14.85,0,0,0-6.85-1.576l-2.176,3.209c.029.006-.61,3.237,3.99,6.118,2.538,1.59,7.641,2.561,9.74,6.669a26.384,26.384,0,0,1,2.262,9.539,2.491,2.491,0,0,0,2.474,2.315Z" transform="translate(-1524.472 -1402.446)" fill="#44393d"/>
        </g>
        <path id="Trazado_160290" data-name="Trazado 160290" d="M1630.2,1320.833a28.58,28.58,0,0,1,3.632,10.213c.634,4.036-6.711-.663-6.711-.663l-.327-8.431Z" transform="translate(-1611.241 -1306.625)" fill="#ea9a81"/>
        <path id="Trazado_160291" data-name="Trazado 160291" d="M1525.095,1287.949a6.069,6.069,0,0,1,6.732-2.413c4.7,1.068,6.609,5.864,6.945,17.381,0,0-2.82,4.99-15.647,4.017-1.421-.108-3.458-.3-2.763-2.6C1521.653,1300.05,1522.9,1291.505,1525.095,1287.949Z" transform="translate(-1519.505 -1276.067)" fill="#a74c3b"/>
        <path id="Trazado_160292" data-name="Trazado 160292" d="M1518.127,1288.042l4.83.908s8.445,2.5,10.81,2.517a3.829,3.829,0,0,0,3.343-1.71,12.507,12.507,0,0,0-5.9-4.764,11.6,11.6,0,0,0-1.181-.382,8.7,8.7,0,0,0-2.1-.352C1519.953,1284.17,1518.127,1288.042,1518.127,1288.042Z" transform="translate(-1517.703 -1275.143)" fill="#a74c3b"/>
        <path id="Trazado_160293" data-name="Trazado 160293" d="M1518.081,1309.738c-.1.381.908,1.016,2.261,1.419s2.535.421,2.639.04-.908-1.016-2.261-1.419S1518.186,1309.357,1518.081,1309.738Z" transform="translate(-1517.657 -1296.838)" fill="#30262a"/>
        <g id="Grupo_114919" data-name="Grupo 114919" transform="translate(0 13.082)">
          <path id="Trazado_160294" data-name="Trazado 160294" d="M1516.337,1323.29a12.027,12.027,0,0,0,10.443,5.16l-.458-3.445c-3.329-.607-5.882-2.773-6.357-4.6a14.83,14.83,0,0,1-.107-6.211.434.434,0,0,0-.164-.418,5.875,5.875,0,0,0-3.5-1.028.382.382,0,0,0-.376.284C1514.994,1316.138,1514.5,1320.406,1516.337,1323.29Z" transform="translate(-1515.078 -1312.749)" fill="#ea9a81"/>
        </g>
        <g id="Grupo_114920" data-name="Grupo 114920" transform="translate(2.561 22.871)">
          <path id="Trazado_160295" data-name="Trazado 160295" d="M1534.345,1384.838a.625.625,0,0,1-.234-.048,1.057,1.057,0,0,1-.541-.575.83.83,0,0,1,.263-1.111.56.56,0,0,1,.437.007,1.057,1.057,0,0,1,.541.575.83.83,0,0,1-.263,1.111A.514.514,0,0,1,1534.345,1384.838Zm-.309-1.692a.434.434,0,0,0-.171.034.751.751,0,0,0-.219,1,.976.976,0,0,0,.5.53.478.478,0,0,0,.373.007.75.75,0,0,0,.219-1,.973.973,0,0,0-.5-.53A.543.543,0,0,0,1534.036,1383.146Z" transform="translate(-1533.474 -1383.063)" fill="#e9845c"/>
        </g>
        <g id="Grupo_114924" data-name="Grupo 114924" transform="translate(10.954 24.698)">
          <path id="Trazado_160296" data-name="Trazado 160296" d="M1594.055,1396.826s3.084-.981,4.064-.517,1.882,1.8,1.213,1.639a7.144,7.144,0,0,1-1.467-.6s1.662,1.017,1.256,1.3-1.843-.613-1.843-.613,1.881,1.368,1.41,1.514-1.892-.9-1.892-.9,1.7,1.343,1.148,1.5-1.4-1.119-1.8-.833-1.442,1.6-2.374.565Z" transform="translate(-1593.765 -1396.184)" fill="#ea9a81"/>
          <g id="Grupo_114921" data-name="Grupo 114921" transform="translate(3.333 0.844)">
            <path id="Trazado_160297" data-name="Trazado 160297" d="M1618.445,1402.6s-.416-.344-.719-.26l-.022-.077c.344-.1.774.26.792.275Z" transform="translate(-1617.704 -1402.245)" fill="#e9845c"/>
          </g>
          <g id="Grupo_114922" data-name="Grupo 114922" transform="translate(2.607 1.494)">
            <path id="Trazado_160298" data-name="Trazado 160298" d="M1613.367,1407.311a1.354,1.354,0,0,0-.873-.31l-.006-.08a1.416,1.416,0,0,1,.932.329Z" transform="translate(-1612.488 -1406.918)" fill="#e9845c"/>
          </g>
          <g id="Grupo_114923" data-name="Grupo 114923" transform="translate(2.168 2.102)">
            <path id="Trazado_160299" data-name="Trazado 160299" d="M1610.171,1411.681c-.005,0-.495-.412-.808-.293l-.028-.075c.358-.134.866.289.888.307Z" transform="translate(-1609.335 -1411.287)" fill="#e9845c"/>
          </g>
        </g>
        <g id="Grupo_114927" data-name="Grupo 114927" transform="translate(11.438 23.007)">
          <path id="Trazado_160300" data-name="Trazado 160300" d="M1620.077,1391.359h9.9a.481.481,0,0,0,.457-.327l2.057-6.144a.478.478,0,0,0-.457-.629h-9.52a1.006,1.006,0,0,0-.956.685l-1.938,5.786A.478.478,0,0,0,1620.077,1391.359Z" transform="translate(-1616.483 -1384.228)" fill="#30262a"/>
          <path id="Trazado_160301" data-name="Trazado 160301" d="M1624.54,1391.359h9.9a.481.481,0,0,0,.457-.327l2.057-6.144a.478.478,0,0,0-.457-.629h-9.52a1.007,1.007,0,0,0-.956.685l-1.938,5.786A.479.479,0,0,0,1624.54,1391.359Z" transform="translate(-1620.324 -1384.228)" fill="#30262a"/>
          <path id="Trazado_160302" data-name="Trazado 160302" d="M1670.418,1406.283c0-.233-.269-.328-.5-.328a.673.673,0,0,0-.616.583c0,.353.278.4.513.4A.776.776,0,0,0,1670.418,1406.283Z" transform="translate(-1659.266 -1402.904)" fill="#daebe8"/>
          <path id="Trazado_160303" data-name="Trazado 160303" d="M1597.816,1429.021h13.544v.868h-13.827a.292.292,0,0,1-.292-.292h0A.576.576,0,0,1,1597.816,1429.021Z" transform="translate(-1597.24 -1422.758)" fill="#30262a"/>
          <g id="Grupo_114925" data-name="Grupo 114925" transform="translate(4.857)">
            <path id="Trazado_160304" data-name="Trazado 160304" d="M1632.19,1387.173l-.062-.016a16.912,16.912,0,0,1,.811-2.421,1.373,1.373,0,0,1,.735-.7l.017.062a1.34,1.34,0,0,0-.7.669A17.325,17.325,0,0,0,1632.19,1387.173Z" transform="translate(-1632.128 -1384.036)" fill="#366f90"/>
          </g>
          <g id="Grupo_114926" data-name="Grupo 114926" transform="translate(3.456 3.796)">
            <path id="Trazado_160305" data-name="Trazado 160305" d="M1622.064,1413.8v-.064c.324,0,.4-.134.405-.136l.769-2.3.061.021-.772,2.3C1622.522,1413.638,1622.431,1413.8,1622.064,1413.8Z" transform="translate(-1622.064 -1411.301)" fill="#366f90"/>
          </g>
        </g>
        <g id="Grupo_114928" data-name="Grupo 114928" transform="translate(17.43 30.833)">
          <path id="Trazado_160306" data-name="Trazado 160306" d="M1646.868,1455.564a36.268,36.268,0,0,0-1.122-6.326c-.842-3.08-2.474-7.127-5.467-8.918l.041-.069c3.016,1.805,4.658,5.873,5.5,8.967a36.393,36.393,0,0,1,1.124,6.34Z" transform="translate(-1640.279 -1440.252)" fill="#020202"/>
        </g>
        <g id="Grupo_114929" data-name="Grupo 114929" transform="translate(15.862 43.569)">
          <path id="Trazado_160307" data-name="Trazado 160307" d="M1630.564,1539.937a23.417,23.417,0,0,0-1.549-8.169l.073-.031a23.488,23.488,0,0,1,1.555,8.2Z" transform="translate(-1629.015 -1531.736)" fill="#020202"/>
        </g>
        <path id="Trazado_160308" data-name="Trazado 160308" d="M1605.1,1261.33s-1.1-.564-1.216-1.217-.561-.5-.79-.683.619-1.848.619-1.848l2.444-.64-.531,3.007Z" transform="translate(-1590.804 -1251.629)" fill="#30262a"/>
        <path id="Trazado_160309" data-name="Trazado 160309" d="M1582.229,1253.814a1.412,1.412,0,0,0,1.224-.729l.768-1.4.223-.407,1.311-2.394-.431,2.569-.259,1.542-.074.439a.709.709,0,0,0,.512.8l.006,0c.162.329.366.986-.447,1.162a3.108,3.108,0,0,1-2.842-1.581Z" transform="translate(-1572.874 -1244.689)" fill="#ea9a81"/>
        <path id="Trazado_160310" data-name="Trazado 160310" d="M1596.593,1266.262c0,.014,0,.029,0,.043a1.647,1.647,0,0,0,.838,1.313l.006,0,.259-1.542a1.33,1.33,0,0,0-.88-.175A.366.366,0,0,0,1596.593,1266.262Z" transform="translate(-1585.244 -1259.313)" fill="#e1986c"/>
        <path id="Trazado_160311" data-name="Trazado 160311" d="M1595.474,1233.569a2.495,2.495,0,1,0-2.714,2.768A2.771,2.771,0,0,0,1595.474,1233.569Z" transform="translate(-1580.084 -1228.724)" fill="#ea9a81"/>
        <path id="Trazado_160312" data-name="Trazado 160312" d="M1606.092,1264.1a5.3,5.3,0,0,1-1.634-.43.813.813,0,0,0,.747.952C1605.725,1264.7,1606.092,1264.1,1606.092,1264.1Z" transform="translate(-1592.007 -1257.421)" fill="#fff"/>
        <g id="Grupo_114930" data-name="Grupo 114930" transform="translate(12.459 4.479)">
          <path id="Trazado_160313" data-name="Trazado 160313" d="M1605.305,1251.135a.056.056,0,0,0,.016-.1.6.6,0,0,0-.731.092.056.056,0,0,0-.005.078.061.061,0,0,0,.078.006.949.949,0,0,1,.607-.077A.055.055,0,0,0,1605.305,1251.135Z" transform="translate(-1604.572 -1250.947)" fill="#080435"/>
        </g>
        <path id="Trazado_160314" data-name="Trazado 160314" d="M1605.449,1254.741c-.017.132.047.248.143.26s.186-.085.2-.216-.047-.248-.142-.26S1605.465,1254.609,1605.449,1254.741Z" transform="translate(-1592.865 -1249.547)" fill="#080435"/>
        <path id="Trazado_160315" data-name="Trazado 160315" d="M1616.656,1256.633a.215.215,0,0,0,.126.269c.094.018.191-.073.216-.2a.215.215,0,0,0-.126-.269C1616.777,1256.412,1616.681,1256.5,1616.656,1256.633Z" transform="translate(-1602.51 -1251.186)" fill="#080435"/>
        <path id="Trazado_160316" data-name="Trazado 160316" d="M1592.709,1221.36a4.278,4.278,0,0,1,2.856,4.326q-.011.167-.027.343a1.724,1.724,0,0,0-1.467,1.386c-.057.384,1,1.148,1.077,1.121.61-.205,2.272-1.485,2.194-4.345s-.978-5.041-3.567-5.374-2.406,1.432-2.406,1.432A2.445,2.445,0,0,0,1592.709,1221.36Z" transform="translate(-1580.746 -1218.775)" fill="#30262a"/>
        <path id="Trazado_160317" data-name="Trazado 160317" d="M1580.307,1229.392s-.047.024-.123.073a2.794,2.794,0,0,0-1.239,1.632c-.26,1.133.776,1.951.389,2.809s-1.094-.213-1.757-.123-1.111-.258-1.031-1.56.669-4.3,2.206-4.158Z" transform="translate(-1567.981 -1226.769)" fill="#30262a"/>
        <path id="Trazado_160318" data-name="Trazado 160318" d="M1589.473,1247.2a.6.6,0,0,0,.854.142.671.671,0,0,0-.053-.9.6.6,0,0,0-.854-.141A.671.671,0,0,0,1589.473,1247.2Z" transform="translate(-1578.941 -1242.353)" fill="#ea9a81"/>
        <g id="Grupo_114931" data-name="Grupo 114931" transform="translate(12.189 2.061)">
          <path id="Trazado_160319" data-name="Trazado 160319" d="M1605.752,1239.929h-.005a.03.03,0,0,1-.023-.034,6.992,6.992,0,0,0-.795-4.739,2.71,2.71,0,0,0-2.261-1.518.031.031,0,0,1-.032-.027.03.03,0,0,1,.027-.032,2.762,2.762,0,0,1,2.315,1.545,7.056,7.056,0,0,1,.8,4.782A.03.03,0,0,1,1605.752,1239.929Z" transform="translate(-1602.636 -1233.577)" fill="#fff"/>
        </g>
        <g id="Grupo_114932" data-name="Grupo 114932" transform="translate(9.459 1.708)">
          <path id="Trazado_160320" data-name="Trazado 160320" d="M1583.24,1235.347a.03.03,0,0,1-.028-.019,5,5,0,0,1,.582-3.964,1.129,1.129,0,0,1,1.333-.174.029.029,0,0,1,.011.04.03.03,0,0,1-.04.011,1.05,1.05,0,0,0-1.261.163,4.918,4.918,0,0,0-.57,3.9.03.03,0,0,1-.017.038Z" transform="translate(-1583.027 -1231.043)" fill="#fff"/>
        </g>
        <g id="Grupo_114933" data-name="Grupo 114933" transform="translate(11.965 1.436)">
          <path id="Trazado_160321" data-name="Trazado 160321" d="M1604.748,1233.768h0a.03.03,0,0,1-.028-.031c0-.035.115-3.529-1.21-4.252a2.55,2.55,0,0,0-2.44-.06.029.029,0,0,1-.031-.05,2.61,2.61,0,0,1,2.5.058c1.357.74,1.246,4.16,1.24,4.305A.03.03,0,0,1,1604.748,1233.768Z" transform="translate(-1601.025 -1229.088)" fill="#fff"/>
        </g>
      </g>
      <g id="Grupo_114953" data-name="Grupo 114953" transform="translate(368.63 534.844)">
        <path id="Trazado_160322" data-name="Trazado 160322" d="M569.946,1005.85c.311.555,3.44,5.4,2.785,10.141l-3.405-1.231-1.556-6.389Z" transform="translate(-546.047 -992.743)" fill="#ea9a81"/>
        <path id="Trazado_160323" data-name="Trazado 160323" d="M455.213,973.675s2.092-3.752,7.185-2.715,7.872,8.327,6.491,22.764a33.122,33.122,0,0,0-18.611-.624S452.01,979.118,455.213,973.675Z" transform="translate(-444.912 -962.554)" fill="#ea4747"/>
        <path id="Trazado_160324" data-name="Trazado 160324" d="M457.825,971.075l3.58,3.574s9.177,2.479,11.726,2.45a4.1,4.1,0,0,0,3.552-1.893,13.591,13.591,0,0,0-6.5-4.948,12.706,12.706,0,0,0-1.284-.381,13.109,13.109,0,0,0-2.274-.33A22.413,22.413,0,0,0,457.825,971.075Z" transform="translate(-451.408 -961.471)" fill="#ea4747"/>
        <path id="Trazado_160325" data-name="Trazado 160325" d="M456.708,980.244c-.572.622.31,1.3,1.3,2.288s2.01,1.562,2.281,1.285-.31-1.3-1.3-2.288S456.971,979.958,456.708,980.244Z" transform="translate(-450.291 -970.64)" fill="#30262a"/>
        <path id="Trazado_160326" data-name="Trazado 160326" d="M458.419,989.313a2.341,2.341,0,0,0-.844-1.625,5.447,5.447,0,0,0-1.683-1.106.523.523,0,0,0-.7.294l-.287.74,1.336.86Z" transform="translate(-448.898 -976.121)" fill="#ea9a81"/>
        <path id="Trazado_160327" data-name="Trazado 160327" d="M427.576,1086.053s-11.044-5.985-15,.544c-2.93,4.833,1.474,9.333,17.812,8.876,0,0,1.615-.756,1.222-4.679C431.452,1089.24,427.576,1086.053,427.576,1086.053Z" transform="translate(-411.73 -1059.625)" fill="#a74c3b"/>
        <path id="Trazado_160328" data-name="Trazado 160328" d="M525.556,1079.924s14.708-6.025,17.619-2.258c3.345,4.329.137,11.678-15.367,9.051l-1.889-2.052Z" transform="translate(-509.71 -1053.495)" fill="#a74c3b"/>
        <g id="Grupo_114935" data-name="Grupo 114935" transform="translate(8.702 27.077)">
          <path id="Trazado_160329" data-name="Trazado 160329" d="M484.212,1115l-.036-.05c1.715-1.224,1.254-4.367,1.212-4.631l-11.148-4.057.021-.058,11.182,4.07,0,.018C485.452,1110.324,486.026,1113.706,484.212,1115Z" transform="translate(-474.24 -1106.203)" fill="#020202"/>
        </g>
        <path id="Trazado_160330" data-name="Trazado 160330" d="M552.715,1143.354a13.438,13.438,0,0,1,3.984.735c1.273.625.593,2.149-1.992,2.108s-2.389-.426-2.389-.426A6.765,6.765,0,0,0,552.715,1143.354Z" transform="translate(-532.743 -1111.105)" fill="#30262a"/>
        <g id="Grupo_114936" data-name="Grupo 114936" transform="translate(5.047 10.916)">
          <path id="Trazado_160331" data-name="Trazado 160331" d="M459.436,1005.916a3.59,3.59,0,0,0,2.233-.678,3.215,3.215,0,0,0,1.175-3.114l-1.08-.628c-.054-.3-2.139.805-2.135.8s-1,.288-4.412-1.458c-2.379-1.216-3.577-2.941-3.665-5.274a5.674,5.674,0,0,1,.9-3.175c.025-.057-1.15-1.234-1.116-1.354l-.88-.447c.028-.1-.846-.446-.834-.475l-.679.579a11.33,11.33,0,0,0-.956,5.009,9.439,9.439,0,0,0,5.618,8.35A13.778,13.778,0,0,0,459.436,1005.916Z" transform="translate(-447.981 -990.116)" fill="#ea9a81"/>
        </g>
        <g id="Grupo_114939" data-name="Grupo 114939" transform="translate(13.767 19.994)">
          <path id="Trazado_160332" data-name="Trazado 160332" d="M532.609,1062.374h9.531a.463.463,0,0,0,.44-.315l1.981-5.915a.461.461,0,0,0-.44-.605h-9.165a.969.969,0,0,0-.92.659l-1.865,5.571A.461.461,0,0,0,532.609,1062.374Z" transform="translate(-529.149 -1055.509)" fill="#30262a"/>
          <path id="Trazado_160333" data-name="Trazado 160333" d="M536.906,1062.374h9.531a.463.463,0,0,0,.44-.315l1.981-5.915a.461.461,0,0,0-.44-.605h-9.165a.969.969,0,0,0-.92.659l-1.865,5.571A.461.461,0,0,0,536.906,1062.374Z" transform="translate(-532.848 -1055.509)" fill="#30262a"/>
          <path id="Trazado_160334" data-name="Trazado 160334" d="M581.075,1076.743c0-.225-.259-.316-.485-.316a.648.648,0,0,0-.593.561c0,.34.268.384.494.384A.748.748,0,0,0,581.075,1076.743Z" transform="translate(-570.339 -1073.489)" fill="#daebe8"/>
          <path id="Trazado_160335" data-name="Trazado 160335" d="M511.177,1098.633h13.039v.836H510.9a.282.282,0,0,1-.282-.282h0A.554.554,0,0,1,511.177,1098.633Z" transform="translate(-510.623 -1092.604)" fill="#30262a"/>
          <g id="Grupo_114937" data-name="Grupo 114937" transform="translate(4.676)">
            <path id="Trazado_160336" data-name="Trazado 160336" d="M544.271,1058.344l-.06-.016a16.35,16.35,0,0,1,.781-2.33,1.325,1.325,0,0,1,.708-.674l.016.06a1.29,1.29,0,0,0-.67.644A16.7,16.7,0,0,0,544.271,1058.344Z" transform="translate(-544.211 -1055.324)" fill="#30262a"/>
          </g>
          <g id="Grupo_114938" data-name="Grupo 114938" transform="translate(3.327 3.654)">
            <path id="Trazado_160337" data-name="Trazado 160337" d="M534.523,1083.98v-.062c.312,0,.39-.129.391-.131l.74-2.213.059.02-.743,2.218C534.964,1083.823,534.876,1083.98,534.523,1083.98Z" transform="translate(-534.523 -1081.574)" fill="#30262a"/>
          </g>
        </g>
        <g id="Grupo_114940" data-name="Grupo 114940" transform="translate(7.054 20.002)">
          <path id="Trazado_160338" data-name="Trazado 160338" d="M463.281,1056.965a.411.411,0,0,1-.106-.015,1.107,1.107,0,0,1-.588-.536h0c-.242-.422-.248-.86-.015-1a.333.333,0,0,1,.26-.025,1.106,1.106,0,0,1,.588.536c.242.423.248.86.015,1A.3.3,0,0,1,463.281,1056.965Zm-.587-.612a1,1,0,0,0,.513.478.214.214,0,0,0,.165-.012c.168-.1.14-.477-.06-.828a1,1,0,0,0-.513-.478.213.213,0,0,0-.165.012c-.168.1-.141.477.06.827Z" transform="translate(-462.401 -1055.379)" fill="#ec865c"/>
        </g>
        <path id="Trazado_160339" data-name="Trazado 160339" d="M520.337,942.174a1.78,1.78,0,0,0,1.461-.507l1.115-1.311.324-.382,1.908-2.245-1,2.625-.6,1.575-.19.5c-.129.338.042.5.162.892.049.161.378,1.148-.479,1.154a3.443,3.443,0,0,1-2.714-2.3A.089.089,0,0,0,520.337,942.174Z" transform="translate(-505.204 -934.107)" fill="#ea9a81"/>
        <path id="Trazado_160340" data-name="Trazado 160340" d="M528.892,925.113s-2.1-2.019-.889-3.723,1.515,2.735,1.515,2.735l-.339,1.026Z" transform="translate(-511.492 -919.706)" fill="#30262a"/>
        <path id="Trazado_160341" data-name="Trazado 160341" d="M538.768,954.157c0,.015-.008.03-.01.045a1.8,1.8,0,0,0,.622,1.577l.007,0,.6-1.575a1.48,1.48,0,0,0-.906-.38A.391.391,0,0,0,538.768,954.157Z" transform="translate(-521.048 -947.953)" fill="#30262a"/>
        <path id="Trazado_160342" data-name="Trazado 160342" d="M541,925.729a2.775,2.775,0,0,0-1.489-3.575,2.74,2.74,0,0,0-3.2,2.139,2.775,2.775,0,0,0,1.489,3.575A2.74,2.74,0,0,0,541,925.729Z" transform="translate(-518.837 -920.622)" fill="#ea9a81"/>
        <path id="Trazado_160343" data-name="Trazado 160343" d="M531.739,915.146a1.119,1.119,0,0,0,1.23.076,1.659,1.659,0,0,1,2.213-.169c1.256.632,2.63.348,2.884-.364s-.344-1.256-1.133-1.221.167-.4-.382-1.145-1.94.023-2.63-.348-3.147-.693-3.589,1.413Z" transform="translate(-513.82 -911.704)" fill="#30262a"/>
        <path id="Trazado_160344" data-name="Trazado 160344" d="M536.082,934.6a.5.5,0,0,0,.691.187.516.516,0,0,0,.107-.714.5.5,0,0,0-.691-.187A.516.516,0,0,0,536.082,934.6Z" transform="translate(-518.688 -930.739)" fill="#ea9a81"/>
        <g id="Grupo_114941" data-name="Grupo 114941" transform="translate(21.582 1.998)">
          <path id="Trazado_160345" data-name="Trazado 160345" d="M568.035,926.794a2.621,2.621,0,0,1-1.276-.673l.062-.068c.008.008.844.759,1.327.637.186-.047.29-.135.274-.229s-.148-.175-.335-.156a1.04,1.04,0,0,1-.64-.1l.049-.077a.975.975,0,0,0,.581.089c.251-.026.411.1.434.232.02.115-.059.263-.342.334A.542.542,0,0,1,568.035,926.794Z" transform="translate(-566.759 -926.052)" fill="#fff"/>
        </g>
        <g id="Grupo_114942" data-name="Grupo 114942" transform="translate(18.556 0.208)">
          <path id="Trazado_160346" data-name="Trazado 160346" d="M547.153,913.965a1.442,1.442,0,0,1-.526-.093,5.678,5.678,0,0,1-.592-.283,1.551,1.551,0,0,0-1-.286l-.018-.09a1.613,1.613,0,0,1,1.059.295,5.566,5.566,0,0,0,.583.279,1.887,1.887,0,0,0,1.432-.151l.067.063A2.011,2.011,0,0,1,547.153,913.965Z" transform="translate(-545.019 -913.197)" fill="#fff"/>
        </g>
        <g id="Grupo_114943" data-name="Grupo 114943" transform="translate(17.053 1.051)">
          <path id="Trazado_160347" data-name="Trazado 160347" d="M534.32,919.779a.1.1,0,0,1-.037-.006c-.031-.012-.078-.048-.048-.16l.007-.015c.052-.074.318-.435.5-.32.023.015.073.06.024.158A.752.752,0,0,1,534.32,919.779Zm0-.135a.082.082,0,0,0,0,.045.564.564,0,0,0,.284-.185c.089-.092.1-.14.094-.147C534.614,919.305,534.426,919.5,534.321,919.643Z" transform="translate(-534.225 -919.255)" fill="#fff"/>
        </g>
        <g id="Grupo_114944" data-name="Grupo 114944" transform="translate(19.635 4.288)">
          <path id="Trazado_160348" data-name="Trazado 160348" d="M553.429,942.684a.05.05,0,0,0,.037-.025.05.05,0,0,0-.019-.068.534.534,0,0,0-.656.062.051.051,0,0,0-.007.071.054.054,0,0,0,.07.007.843.843,0,0,1,.545-.052A.049.049,0,0,0,553.429,942.684Z" transform="translate(-552.772 -942.505)" fill="#080435"/>
        </g>
        <path id="Trazado_160349" data-name="Trazado 160349" d="M554.171,946.179c-.019.118.035.225.12.239s.169-.071.188-.189-.035-.225-.12-.239S554.189,946.061,554.171,946.179Z" transform="translate(-534.338 -941.216)" fill="#080435"/>
        <g id="Grupo_114945" data-name="Grupo 114945" transform="translate(21.557 4.812)">
          <path id="Trazado_160350" data-name="Trazado 160350" d="M567.05,946.555a.036.036,0,0,0,.035-.012.061.061,0,0,0,.01-.07.348.348,0,0,0-.486-.158.06.06,0,0,0-.029.064.037.037,0,0,0,.047.03.519.519,0,0,1,.4.131A.032.032,0,0,0,567.05,946.555Z" transform="translate(-566.579 -946.271)" fill="#080435"/>
        </g>
        <path id="Trazado_160351" data-name="Trazado 160351" d="M565.236,949.58a.2.2,0,0,0,.021.267c.073.045.183,0,.245-.1a.2.2,0,0,0-.021-.267C565.407,949.432,565.3,949.478,565.236,949.58Z" transform="translate(-543.83 -944.203)" fill="#080435"/>
        <g id="Grupo_114948" data-name="Grupo 114948" transform="translate(18.86 5.906)">
          <g id="Grupo_114946" data-name="Grupo 114946" transform="translate(0.101 0.114)">
            <path id="Trazado_160352" data-name="Trazado 160352" d="M548.952,955.562a1.114,1.114,0,0,1-1.018-.561.035.035,0,1,1,.061-.034,1.126,1.126,0,0,0,1.241.5.035.035,0,1,1,.017.067A1.354,1.354,0,0,1,548.952,955.562Z" transform="translate(-547.929 -954.949)" fill="#020202"/>
          </g>
          <g id="Grupo_114947" data-name="Grupo 114947">
            <path id="Trazado_160353" data-name="Trazado 160353" d="M547.237,954.417l-.011,0a.035.035,0,0,1-.022-.044.467.467,0,0,1,.229-.238.039.039,0,0,1,.051.009.031.031,0,0,1-.006.045l-.01.006a.393.393,0,0,0-.2.2A.035.035,0,0,1,547.237,954.417Z" transform="translate(-547.202 -954.128)" fill="#020202"/>
          </g>
        </g>
        <g id="Grupo_114949" data-name="Grupo 114949" transform="translate(22.689 13.596)">
          <rect id="Rectángulo_36840" data-name="Rectángulo 36840" width="0.153" height="1.8" transform="translate(0 0.048) rotate(-18.209)" fill="#30262a"/>
        </g>
        <g id="Grupo_114950" data-name="Grupo 114950" transform="translate(20.911 3.885)">
          <path id="Trazado_160354" data-name="Trazado 160354" d="M562.71,942.791a.656.656,0,0,1-.472-.2,1.93,1.93,0,0,1,.044-2.146,1.553,1.553,0,0,1,1.025-.834.663.663,0,0,1,.573.19,1.931,1.931,0,0,1-.044,2.146,1.554,1.554,0,0,1-1.025.833A.759.759,0,0,1,562.71,942.791Zm.7-3.079a.632.632,0,0,0-.086.006,1.453,1.453,0,0,0-.949.783,1.828,1.828,0,0,0-.061,2.02.561.561,0,0,0,.486.161,1.453,1.453,0,0,0,.949-.783,1.828,1.828,0,0,0,.061-2.02A.556.556,0,0,0,563.406,939.712Z" transform="translate(-561.935 -939.609)" fill="#fff"/>
        </g>
        <path id="Trazado_160355" data-name="Trazado 160355" d="M545.149,932.258a1.806,1.806,0,0,0,.222,2.075c.482.382,1.163.073,1.522-.69a1.806,1.806,0,0,0-.222-2.075C546.19,931.185,545.508,931.495,545.149,932.258Z" transform="translate(-526.389 -928.661)" fill="#fff" opacity="0.3"/>
        <path id="Trazado_160356" data-name="Trazado 160356" d="M562.672,940.759a1.932,1.932,0,0,0,.109,2.079c.42.381,1.054.068,1.414-.7a1.933,1.933,0,0,0-.109-2.079C563.665,939.678,563.032,939.991,562.672,940.759Z" transform="translate(-541.45 -935.972)" fill="#fff" opacity="0.3"/>
        <g id="Grupo_114951" data-name="Grupo 114951" transform="translate(18.507 2.544)">
          <path id="Trazado_160357" data-name="Trazado 160357" d="M545.685,933.311a.839.839,0,0,1-.523-.185,1.92,1.92,0,0,1-.261-2.232,1.535,1.535,0,0,1,.963-.892.84.84,0,0,1,.732.16,1.92,1.92,0,0,1,.262,2.232,1.535,1.535,0,0,1-.964.891A.907.907,0,0,1,545.685,933.311Zm.387-3.229a.8.8,0,0,0-.184.022,1.453,1.453,0,0,0-.894.835,1.814,1.814,0,0,0,.232,2.105.739.739,0,0,0,.645.141,1.454,1.454,0,0,0,.894-.835,1.815,1.815,0,0,0-.232-2.105A.738.738,0,0,0,546.072,930.082Z" transform="translate(-544.672 -929.978)" fill="#fff"/>
        </g>
        <g id="Grupo_114952" data-name="Grupo 114952" transform="translate(20.465 4.611)">
          <path id="Trazado_160358" data-name="Trazado 160358" d="M559.549,945.325a.1.1,0,0,1-.077-.037h0a.856.856,0,0,0-.647-.272.1.1,0,0,1-.094-.1.1.1,0,0,1,.1-.094,1.045,1.045,0,0,1,.8.347.1.1,0,0,1-.018.136A.1.1,0,0,1,559.549,945.325Z" transform="translate(-558.731 -944.823)" fill="#fff"/>
        </g>
      </g>
      <g id="Grupo_114969" data-name="Grupo 114969" transform="translate(471.137 489.811)">
        <path id="Trazado_160359" data-name="Trazado 160359" d="M1187.256,1005.222a10.345,10.345,0,0,1-1.5,4.007c-.719.892-2.7,2.658-1.292,3.247,1.127.47,3.3-1.623,4-2.143s1.767-1.506,1.531-2.346a13.485,13.485,0,0,1-.327-3.927Z" transform="translate(-1178.969 -946.17)" fill="#30262a"/>
        <path id="Trazado_160360" data-name="Trazado 160360" d="M1241.64,985.737a10.319,10.319,0,0,1,0,4.275c-.362,1.084-1.6,3.425-.074,3.49,1.221.052,2.523-2.659,3-3.39s1.129-2.022.614-2.728a13.539,13.539,0,0,1-1.682-3.569Z" transform="translate(-1227.904 -928.743)" fill="#30262a"/>
        <g id="Grupo_114954" data-name="Grupo 114954" transform="translate(0 28.405)">
          <path id="Trazado_160361" data-name="Trazado 160361" d="M1161.031,822.7c-14.627-9.683-13.9-18.165-11.878-21.483a18.079,18.079,0,0,1,11.795-8.258,31.844,31.844,0,0,1,4.184-.692,2.916,2.916,0,0,1,3.219,2.965l-.131,4.94h.011c-2.441-.051-9.845.688-11.785,4.6-.4.814,9.443,12.29,9.075,14.35C1165.105,821.458,1162.461,823.65,1161.031,822.7Z" transform="translate(-1148.06 -792.256)" fill="#44393d"/>
        </g>
        <g id="Grupo_114955" data-name="Grupo 114955" transform="translate(4.37 29.096)">
          <path id="Trazado_160362" data-name="Trazado 160362" d="M1182.377,828.427a2.9,2.9,0,0,1-2.925-3.06c.221-3.7.914-10.01,3.088-14.775a20.406,20.406,0,0,1,5.826-7.3,32.639,32.639,0,0,1,7.063-4.293,16.863,16.863,0,0,1,7.728-1.764l2.115,1.269c-.033.007,3.06,7.1-2.647,10.262-5.843,3.234-10.135,1.779-12.5,6.379a29.346,29.346,0,0,0-2.552,10.68,2.8,2.8,0,0,1-2.791,2.591Z" transform="translate(-1179.447 -797.22)" fill="#44393d"/>
        </g>
        <g id="Grupo_114956" data-name="Grupo 114956" transform="translate(4.84 34.988)">
          <path id="Trazado_160363" data-name="Trazado 160363" d="M1182.918,856.691l-.09-.006a40.427,40.427,0,0,1,1.268-7.1c.954-3.464,2.806-8.018,6.209-10.039l.046.077c-3.377,2.006-5.218,6.537-6.168,9.985A40.331,40.331,0,0,0,1182.918,856.691Z" transform="translate(-1182.828 -839.547)" fill="#020202"/>
        </g>
        <g id="Grupo_114957" data-name="Grupo 114957" transform="translate(12.295 49.248)">
          <path id="Trazado_160364" data-name="Trazado 160364" d="M1236.469,951.156h-.09a26.128,26.128,0,0,1,1.755-9.181l.082.036A26.034,26.034,0,0,0,1236.469,951.156Z" transform="translate(-1236.379 -941.974)" fill="#020202"/>
        </g>
        <path id="Trazado_160365" data-name="Trazado 160365" d="M1205.355,689.011c-.466.6-5.015,5.781-5.072,11.5l4.241-.858,2.96-7.28Z" transform="translate(-1193.013 -674.979)" fill="#ea9a81"/>
        <path id="Trazado_160366" data-name="Trazado 160366" d="M1234.254,661.542s-1.815-4.8-8.017-4.47-10.559,2.78-11.459,20.089c0,0,8.56-.487,18.346,5.274,1.648.97,4.22.774,4.325-1.135C1237.658,677.5,1236.876,670.237,1234.254,661.542Z" transform="translate(-1205.489 -647.472)" fill="#a74c3b"/>
        <path id="Trazado_160367" data-name="Trazado 160367" d="M1247.845,661.708l-5.449,1.727s-11.284,1.321-14.292.838a4.894,4.894,0,0,1-3.867-2.861,16.242,16.242,0,0,1,8.557-4.708,15.186,15.186,0,0,1,1.585-.225,13.98,13.98,0,0,1,2.708-.071C1245.911,657.333,1247.845,661.708,1247.845,661.708Z" transform="translate(-1213.632 -646.879)" fill="#a74c3b"/>
        <path id="Trazado_160368" data-name="Trazado 160368" d="M1358.686,693.14c.292.65-.985,1.26-2.55,1.84s-2.961.7-3.118.261.985-1.26,2.55-1.84S1358.5,692.717,1358.686,693.14Z" transform="translate(-1324.473 -678.311)" fill="#30262a"/>
        <g id="Grupo_114958" data-name="Grupo 114958" transform="translate(15.133 15.098)">
          <path id="Trazado_160369" data-name="Trazado 160369" d="M1260.326,712.99a4.288,4.288,0,0,1-2.521-1.193,3.841,3.841,0,0,1-.843-3.887l1.387-.553c.116-.341,2.387,1.327,2.383,1.325s1.126.515,5.472-.949c3.025-1.02,4.745-2.849,5.258-5.592a6.044,6.044,0,0,0-.429-3.668c-.019-.072.373-.974,1.988-1.508,1.744-.577,2.377-.127,2.377-.127a13.542,13.542,0,0,1,.252,6.089c-.56,3-2.421,6.969-8.106,8.885C1264.443,712.857,1262.074,713.25,1260.326,712.99Z" transform="translate(-1256.76 -696.671)" fill="#ea9a81"/>
        </g>
        <g id="Grupo_114961" data-name="Grupo 114961" transform="translate(2.933 23.343)">
          <path id="Trazado_160370" data-name="Trazado 160370" d="M1188.359,764.578l-11.386-.311a.553.553,0,0,1-.515-.39l-2.173-7.131a.551.551,0,0,1,.545-.709l10.949.3a1.159,1.159,0,0,1,1.078.817l2.047,6.716A.551.551,0,0,1,1188.359,764.578Z" transform="translate(-1173.547 -756.017)" fill="#30262a"/>
          <path id="Trazado_160371" data-name="Trazado 160371" d="M1183.226,764.438l-11.386-.311a.553.553,0,0,1-.515-.391l-2.173-7.131a.55.55,0,0,1,.545-.709l10.949.3a1.158,1.158,0,0,1,1.078.817l2.047,6.716A.55.55,0,0,1,1183.226,764.438Z" transform="translate(-1169.129 -755.896)" fill="#30262a"/>
          <path id="Trazado_160372" data-name="Trazado 160372" d="M1213.936,782.457c.007-.268.32-.369.59-.362a.774.774,0,0,1,.69.69c-.014.406-.333.45-.6.442A.894.894,0,0,1,1213.936,782.457Z" transform="translate(-1207.698 -778.447)" fill="#daebe8"/>
          <path id="Trazado_160373" data-name="Trazado 160373" d="M1204.177,808.268l-15.58-.426-.027,1,15.9.435a.335.335,0,0,0,.344-.326v0A.659.659,0,0,0,1204.177,808.268Z" transform="translate(-1185.863 -800.61)" fill="#30262a"/>
          <g id="Grupo_114959" data-name="Grupo 114959" transform="translate(11.784 0.271)">
            <path id="Trazado_160374" data-name="Trazado 160374" d="M1255.406,761.5a19.927,19.927,0,0,0-.85-2.792,1.542,1.542,0,0,0-.779-.792l.022-.071a1.583,1.583,0,0,1,.823.828,19.487,19.487,0,0,1,.857,2.809Z" transform="translate(-1253.777 -757.846)" fill="#44393d"/>
          </g>
          <g id="Grupo_114960" data-name="Grupo 114960" transform="translate(13.654 4.693)">
            <path id="Trazado_160375" data-name="Trazado 160375" d="M1268.55,792.516c-.422-.012-.522-.2-.526-.209l-.817-2.68.071-.021.815,2.674h0s.092.152.46.163Z" transform="translate(-1267.207 -789.605)" fill="#44393d"/>
          </g>
        </g>
        <g id="Grupo_114962" data-name="Grupo 114962" transform="translate(29.407 25.076)" opacity="0.3">
          <path id="Trazado_160376" data-name="Trazado 160376" d="M1359.684,770.134a.378.378,0,0,1-.242-.079c-.252-.2-.167-.717.192-1.174a1.324,1.324,0,0,1,.789-.531.4.4,0,0,1,.3.075c.252.2.167.717-.192,1.174h0a1.323,1.323,0,0,1-.79.531A.552.552,0,0,1,1359.684,770.134Zm.8-1.64-.045,0a1.194,1.194,0,0,0-.69.475c-.3.379-.4.822-.216.967a.253.253,0,0,0,.193.044,1.194,1.194,0,0,0,.69-.475h0c.3-.379.4-.822.216-.967A.23.23,0,0,0,1360.485,768.494Z" transform="translate(-1359.297 -768.346)" fill="#ec865c"/>
        </g>
        <path id="Trazado_160377" data-name="Trazado 160377" d="M1287.782,620.586l-.934-1.647-.272-.48-1.6-2.82.535,3.036.321,1.822.1.577c.069.391-.15.525-.364.925-.087.162-.652,1.154.277,1.343a4.027,4.027,0,0,0,3.523-1.991C1289.365,621.351,1288.083,621.118,1287.782,620.586Z" transform="translate(-1265.916 -611.822)" fill="#ea9a81"/>
        <g id="Grupo_114968" data-name="Grupo 114968" transform="translate(14.825 0)">
          <path id="Trazado_160378" data-name="Trazado 160378" d="M1265.867,611.268a4.068,4.068,0,0,0,.361,1.65c.392.876.832-1.585.832-1.585Z" transform="translate(-1264.291 -608.059)" fill="#30262a"/>
          <ellipse id="Elipse_5008" data-name="Elipse 5008" cx="2.752" cy="3.318" rx="2.752" ry="3.318" transform="translate(1.603 1.842) rotate(-4.858)" fill="#ea9a81"/>
          <path id="Trazado_160379" data-name="Trazado 160379" d="M1261.779,591.959l-1.331.15a.969.969,0,0,1-.8-.272c-.358-.359-.726-.5-1.929-.192a2.612,2.612,0,0,1-3.081-1.068.94.94,0,0,1,1.173-1.29c.858.222.316-.665,1.036-.929,1.346-.494,1.839.519,2.967.235,1.479-.371,4.394.177,3.7,3.075Z" transform="translate(-1254.547 -588.219)" fill="#30262a"/>
          <g id="Grupo_114963" data-name="Grupo 114963" transform="translate(4.418 4.667)">
            <path id="Trazado_160380" data-name="Trazado 160380" d="M1286.32,621.883a.056.056,0,0,1,0-.106.6.6,0,0,1,.706.22.056.056,0,0,1-.009.078.061.061,0,0,1-.078-.008.956.956,0,0,0-.587-.183A.055.055,0,0,1,1286.32,621.883Z" transform="translate(-1286.283 -621.74)" fill="#080435"/>
          </g>
          <path id="Trazado_160381" data-name="Trazado 160381" d="M1287.18,625.877c-.007.133-.09.237-.187.232s-.169-.117-.162-.25.09-.237.187-.232S1287.187,625.744,1287.18,625.877Z" transform="translate(-1282.336 -620.419)" fill="#080435"/>
          <g id="Grupo_114964" data-name="Grupo 114964" transform="translate(2.358 4.833)">
            <path id="Trazado_160382" data-name="Trazado 160382" d="M1271.531,623.191a.041.041,0,0,1-.035-.021.067.067,0,0,1,.005-.078.391.391,0,0,1,.569-.059.066.066,0,0,1,.018.076.041.041,0,0,1-.058.021.585.585,0,0,0-.473.048A.037.037,0,0,1,1271.531,623.191Z" transform="translate(-1271.485 -622.935)" fill="#080435"/>
          </g>
          <path id="Trazado_160383" data-name="Trazado 160383" d="M1274.106,626.916a.216.216,0,0,1-.085.286c-.091.032-.2-.043-.245-.169a.216.216,0,0,1,.084-.285C1273.952,626.715,1274.062,626.791,1274.106,626.916Z" transform="translate(-1271.083 -621.377)" fill="#080435"/>
          <path id="Trazado_160384" data-name="Trazado 160384" d="M1298.118,612.494s-.474,2.136-1.718,2.556c0,0,.707-1.7-1.661-2.129A7.083,7.083,0,0,1,1298.118,612.494Z" transform="translate(-1289.144 -609.045)" fill="#30262a"/>
          <path id="Trazado_160385" data-name="Trazado 160385" d="M1301.945,617.643a.538.538,0,1,1,.048-.8A.569.569,0,0,1,1301.945,617.643Z" transform="translate(-1294.533 -612.731)" fill="#ea9a81"/>
          <path id="Trazado_160386" data-name="Trazado 160386" d="M1274.564,616.023s.53,1.589.266,1.969a6.03,6.03,0,0,1-3.529.82h0a2.176,2.176,0,0,0,2.219,1.758,3.161,3.161,0,0,0,1.043-.232h0a2.177,2.177,0,0,0,1.467-1.456,6.343,6.343,0,0,0-.486-1.4,1.437,1.437,0,0,1,.083-1.178A2.123,2.123,0,0,0,1274.564,616.023Z" transform="translate(-1268.969 -612.147)" fill="#30262a"/>
          <path id="Trazado_160387" data-name="Trazado 160387" d="M1276.093,637.948a5.643,5.643,0,0,0,1.784-.245.866.866,0,0,1-.912.911C1276.4,638.634,1276.093,637.948,1276.093,637.948Z" transform="translate(-1273.094 -630.814)" fill="#fff"/>
          <g id="Grupo_114965" data-name="Grupo 114965" transform="translate(1.369 0.455)">
            <path id="Trazado_160388" data-name="Trazado 160388" d="M1264.395,591.94l-.014-.074a.344.344,0,0,0,.325-.369l.074-.009A.421.421,0,0,1,1264.395,591.94Z" transform="translate(-1264.381 -591.488)" fill="#30262a"/>
          </g>
          <g id="Grupo_114966" data-name="Grupo 114966" transform="translate(0.551 1.381)">
            <path id="Trazado_160389" data-name="Trazado 160389" d="M1260.6,599.848c-.073,0-1.785-.13-2.044-.982a.6.6,0,0,1,.022-.543c.143-.19.463-.186.746-.182h.122v.037h-.123c-.274,0-.584-.008-.715.167a.566.566,0,0,0-.016.51c.252.827,1.993.954,2.01.955Z" transform="translate(-1258.506 -598.14)" fill="#fff"/>
          </g>
          <g id="Grupo_114967" data-name="Grupo 114967" transform="translate(3.417 0.33)">
            <path id="Trazado_160390" data-name="Trazado 160390" d="M1280.489,591.011a2.433,2.433,0,0,1-1.4-.394l.023-.03a2.722,2.722,0,0,0,2.524.171l.013.035A3.387,3.387,0,0,1,1280.489,591.011Z" transform="translate(-1279.093 -590.588)" fill="#fff"/>
          </g>
        </g>
      </g>
      <g id="Grupo_114973" data-name="Grupo 114973" transform="translate(567.865 521.305)">
        <g id="Grupo_114970" data-name="Grupo 114970" transform="translate(1.822 2.036)">
          <path id="Trazado_160391" data-name="Trazado 160391" d="M1856.149,843.414l-.188-.312c3.5-2.105,9.123-6.717,7.51-13.948l.355-.079a11.152,11.152,0,0,1-1.99,9.29A19.489,19.489,0,0,1,1856.149,843.414Z" transform="translate(-1855.961 -829.075)" fill="#30262a"/>
        </g>
        <g id="Grupo_114971" data-name="Grupo 114971" transform="translate(0 14.529)">
          <path id="Trazado_160392" data-name="Trazado 160392" d="M1846.32,921.181l-1.146-.909-.142-1.456-2.159,2.709Z" transform="translate(-1842.873 -918.817)" fill="#30262a"/>
        </g>
        <g id="Grupo_114972" data-name="Grupo 114972" transform="translate(8.469)">
          <path id="Trazado_160393" data-name="Trazado 160393" d="M1906.289,817.138l-1.453-.172-1.132.926.4-3.441Z" transform="translate(-1903.704 -814.451)" fill="#30262a"/>
        </g>
      </g>
      <g id="Grupo_114977" data-name="Grupo 114977" transform="translate(465.235 613.852)">
        <g id="Grupo_114974" data-name="Grupo 114974" transform="translate(0.895 1.803)">
          <path id="Trazado_160394" data-name="Trazado 160394" d="M1123.81,1500.162a11.337,11.337,0,0,1-6.583-2.177,19.482,19.482,0,0,1-5.137-5.608l.309-.192c2.16,3.464,6.858,9.018,14.063,7.292l.085.354A11.741,11.741,0,0,1,1123.81,1500.162Z" transform="translate(-1112.09 -1492.184)" fill="#30262a"/>
        </g>
        <g id="Grupo_114975" data-name="Grupo 114975" transform="translate(0 0)">
          <path id="Trazado_160395" data-name="Trazado 160395" d="M1106.059,1482.671l.891-1.16,1.454-.164-2.743-2.116Z" transform="translate(-1105.661 -1479.23)" fill="#30262a"/>
        </g>
        <g id="Grupo_114976" data-name="Grupo 114976" transform="translate(13.928 8.253)">
          <path id="Trazado_160396" data-name="Trazado 160396" d="M1206.5,1541.084l.15-1.455-.944-1.118,3.447.346Z" transform="translate(-1205.705 -1538.51)" fill="#30262a"/>
        </g>
      </g>
      <g id="Grupo_114981" data-name="Grupo 114981" transform="translate(390.034 614.031)">
        <g id="Grupo_114978" data-name="Grupo 114978" transform="translate(1.43 1.383)">
          <path id="Trazado_160397" data-name="Trazado 160397" d="M586.134,1495.266a12.251,12.251,0,0,1-3.854-.649,19.479,19.479,0,0,1-6.529-3.9l.24-.273c3.062,2.7,9.155,6.673,15.563,2.954l.183.315A11.025,11.025,0,0,1,586.134,1495.266Z" transform="translate(-575.751 -1490.443)" fill="#30262a"/>
        </g>
        <g id="Grupo_114979" data-name="Grupo 114979" transform="translate(0)">
          <path id="Trazado_160398" data-name="Trazado 160398" d="M566.849,1483.693l.521-1.367,1.346-.574-3.234-1.241Z" transform="translate(-565.481 -1480.51)" fill="#30262a"/>
        </g>
        <g id="Grupo_114980" data-name="Grupo 114980" transform="translate(15.709 3.257)">
          <path id="Trazado_160399" data-name="Trazado 160399" d="M679.818,1506.8l-.274-1.437-1.224-.8,3.4-.657Z" transform="translate(-678.32 -1503.909)" fill="#30262a"/>
        </g>
      </g>
      <g id="Grupo_114982" data-name="Grupo 114982" transform="translate(453.187 480.311)">
        <path id="Trazado_160400" data-name="Trazado 160400" d="M1022.573,520.232v3.781a.247.247,0,0,1-.247.247h-.469a.247.247,0,0,1-.247-.247v-2.988a.248.248,0,0,0-.248-.248h-1.028a.247.247,0,0,0-.247.248v2.988a.247.247,0,0,1-.247.247h-.469a.247.247,0,0,1-.247-.247v-3.781a.247.247,0,0,1,.247-.247h2.956A.247.247,0,0,1,1022.573,520.232Z" transform="translate(-1019.122 -519.985)" fill="#f7f0f7"/>
        <path id="Trazado_160401" data-name="Trazado 160401" d="M1049.6,529.023c0-.293-.007-.552-.015-.784a.248.248,0,0,1,.247-.257h.356a.247.247,0,0,1,.246.222l.022.209h.013a1.206,1.206,0,0,1,1.034-.5,1.405,1.405,0,0,1,1.288,1.58,1.476,1.476,0,0,1-1.408,1.662.963.963,0,0,1-.805-.355h-.013v1.294a.248.248,0,0,1-.248.247h-.469a.247.247,0,0,1-.247-.247Zm.964.729a1.024,1.024,0,0,0,.019.2.584.584,0,0,0,.565.457c.418,0,.666-.349.666-.875,0-.495-.222-.869-.653-.869a.606.606,0,0,0-.578.488.76.76,0,0,0-.019.171Z" transform="translate(-1045.344 -526.809)" fill="#f7f0f7"/>
        <path id="Trazado_160402" data-name="Trazado 160402" d="M1077.561,528.414a.247.247,0,0,1,.247.247v.7c0,.495-.025.844-.051,1.262l.025.006c.146-.355.228-.6.355-.888l.537-1.187a.247.247,0,0,1,.225-.145h.773a.248.248,0,0,1,.247.247v2.607a.248.248,0,0,1-.247.247h-.419a.247.247,0,0,1-.247-.247v-.7c0-.482.025-.685.057-1.338h-.025c-.121.336-.2.539-.324.831-.177.388-.385.864-.582,1.306a.247.247,0,0,1-.226.146h-.766a.247.247,0,0,1-.247-.247v-2.607a.247.247,0,0,1,.247-.247Z" transform="translate(-1068.852 -527.241)" fill="#f7f0f7"/>
        <path id="Trazado_160403" data-name="Trazado 160403" d="M1104.1,528.393a.247.247,0,0,1,.223-.246c.271-.026.663-.051,1.026-.051.526,0,1.535.057,1.535.793a.7.7,0,0,1-.634.666v.019c.463.076.767.33.767.755,0,.882-1.2.958-1.833.958-.307,0-.626-.016-.856-.034a.248.248,0,0,1-.229-.247Zm.945,2.062a.247.247,0,0,0,.245.247h.078c.33,0,.66-.1.66-.4,0-.273-.254-.393-.71-.393h-.025a.248.248,0,0,0-.248.247Zm.006-1.351a.247.247,0,0,0,.247.247h0c.387,0,.634-.1.634-.336,0-.2-.171-.324-.558-.324l-.09,0a.246.246,0,0,0-.234.247Z" transform="translate(-1092.266 -526.966)" fill="#f7f0f7"/>
        <path id="Trazado_160404" data-name="Trazado 160404" d="M1129.368,529.841a.248.248,0,0,0-.119.466,1.2,1.2,0,0,0,.561.124,2.71,2.71,0,0,0,.614-.064.245.245,0,0,1,.293.195l.035.18a.247.247,0,0,1-.168.284,3.183,3.183,0,0,1-.914.122,1.488,1.488,0,0,1-1.656-1.579,1.554,1.554,0,0,1,1.567-1.656,1.376,1.376,0,0,1,1.383,1.548c0,.053,0,.1-.005.151a.247.247,0,0,1-.247.229Zm.4-.66a.245.245,0,0,0,.228-.345.487.487,0,0,0-.471-.283.536.536,0,0,0-.458.242.248.248,0,0,0,.206.386Z" transform="translate(-1112.856 -526.809)" fill="#f7f0f7"/>
        <path id="Trazado_160405" data-name="Trazado 160405" d="M1153.472,528.661v.247a.247.247,0,0,1-.247.247h-.406a.247.247,0,0,0-.247.247v1.865a.247.247,0,0,1-.247.247h-.469a.247.247,0,0,1-.247-.247V529.4a.247.247,0,0,0-.247-.247h-.406a.247.247,0,0,1-.247-.247v-.247a.247.247,0,0,1,.247-.247h2.271A.247.247,0,0,1,1153.472,528.661Z" transform="translate(-1132.388 -527.241)" fill="#f7f0f7"/>
      </g>
      <g id="Grupo_114985" data-name="Grupo 114985" transform="translate(440.22 622.755)">
        <g id="Grupo_114983" data-name="Grupo 114983">
          <path id="Trazado_160406" data-name="Trazado 160406" d="M949.035,1568.5c-3.623,0-7.883-.2-10.5-.412a39.917,39.917,0,0,0-6.569.147c-.641.052-1.247.1-1.782.13h0a4.12,4.12,0,0,1-3.041-1.11,3.662,3.662,0,0,1-1.168-2.628v-12.458a3.524,3.524,0,0,1,1.078-2.506,4.4,4.4,0,0,1,3.089-1.232h.037c1.007.008,2.358.047,3.789.087,3.044.087,6.5.185,8.568.06a2.43,2.43,0,0,0,1.74-.834l3.778-4.567v3.664a1.292,1.292,0,0,0,.4.916,1.787,1.787,0,0,0,1.258.493h.013a27.382,27.382,0,0,1,3.612.181c2.5.305,4.188,1.807,4.188,3.737v12.458c0,1.967-1.763,3.539-4.193,3.738C952.168,1568.465,950.665,1568.5,949.035,1568.5Zm-12.645-.738c.709,0,1.435.024,2.167.085a117.8,117.8,0,0,0,14.756.277c2.3-.188,3.97-1.659,3.97-3.5v-12.458c0-2.081-2-3.256-3.975-3.5a27.5,27.5,0,0,0-3.581-.179h-.015a2.03,2.03,0,0,1-1.429-.564,1.532,1.532,0,0,1-.469-1.088v-2.991l-3.349,4.048a2.666,2.666,0,0,1-1.9.92c-2.1.127-5.552.028-8.6-.059-1.43-.041-2.78-.079-3.784-.087h-.035a4.153,4.153,0,0,0-2.919,1.162,3.284,3.284,0,0,0-1.006,2.334v12.458a3.418,3.418,0,0,0,1.093,2.452,3.877,3.877,0,0,0,2.861,1.044l.006.121-.006-.121c.532-.028,1.135-.077,1.775-.129C933.252,1567.891,934.776,1567.767,936.389,1567.767Z" transform="translate(-925.977 -1543.182)" fill="#30262a"/>
        </g>
        <g id="Grupo_114984" data-name="Grupo 114984" transform="translate(4.27 12.92)">
          <path id="Trazado_160407" data-name="Trazado 160407" d="M956.747,1636.508a.223.223,0,0,1,.118-.269,2.649,2.649,0,0,1,1.147-.247c.925,0,1.473.466,1.473,1.089a1.014,1.014,0,0,1-.849,1v.012a1.055,1.055,0,0,1,.988,1.007c0,.95-.95,1.277-1.743,1.277a2.842,2.842,0,0,1-1.1-.211.22.22,0,0,1-.121-.26l.087-.32a.22.22,0,0,1,.288-.15,2.443,2.443,0,0,0,.8.161c.485,0,.78-.208.78-.56,0-.466-.491-.56-.894-.56h-.181a.222.222,0,0,1-.221-.222v-.268a.222.222,0,0,1,.221-.222h.181c.434,0,.761-.2.761-.535,0-.277-.233-.466-.642-.466a2.047,2.047,0,0,0-.714.155.221.221,0,0,1-.293-.138Z" transform="translate(-956.648 -1635.991)" fill="#30262a"/>
          <path id="Trazado_160408" data-name="Trazado 160408" d="M983.961,1636.756v3.056a.222.222,0,0,0,.208.221h0a.221.221,0,0,1,.208.226l-.034,1.37a.221.221,0,0,1-.221.216h-.3a.221.221,0,0,1-.221-.211l-.03-.648a.222.222,0,0,0-.221-.211H981.29a.221.221,0,0,0-.221.211l-.031.648a.221.221,0,0,1-.221.211h-.3a.221.221,0,0,1-.221-.217l-.029-1.372a.221.221,0,0,1,.206-.225l.028,0a.221.221,0,0,0,.179-.114,4.135,4.135,0,0,0,.344-.839,5.485,5.485,0,0,0,.164-1.41v-.911a.222.222,0,0,1,.221-.222h2.333A.221.221,0,0,1,983.961,1636.756Zm-1.888,1.125a5,5,0,0,1-.189,1.4,4,4,0,0,1-.146.413.221.221,0,0,0,.205.3h.84a.221.221,0,0,0,.221-.221v-2.238a.222.222,0,0,0-.221-.221h-.488a.222.222,0,0,0-.222.221Z" transform="translate(-976.977 -1636.458)" fill="#30262a"/>
          <path id="Trazado_160409" data-name="Trazado 160409" d="M1013.733,1636.587a.221.221,0,0,1,.191-.219,8.777,8.777,0,0,1,1.105-.06,2.036,2.036,0,0,1,1.3.34,1.222,1.222,0,0,1,.453.982,1.323,1.323,0,0,1-.39,1.007,2,2,0,0,1-1.378.447h-.1a.221.221,0,0,0-.229.221v1.057a.222.222,0,0,1-.222.221h-.507a.221.221,0,0,1-.221-.221Zm.95,1.537a.221.221,0,0,0,.214.221l.107,0c.51,0,.825-.258.825-.686,0-.39-.271-.623-.755-.623-.068,0-.129,0-.182,0a.221.221,0,0,0-.208.221Z" transform="translate(-1005.786 -1636.264)" fill="#30262a"/>
          <path id="Trazado_160410" data-name="Trazado 160410" d="M1036.794,1639.849l-.212.764a.221.221,0,0,1-.213.162h-.521a.221.221,0,0,1-.212-.286l1.156-3.8a.222.222,0,0,1,.212-.157h.932a.221.221,0,0,1,.211.156l1.184,3.8a.221.221,0,0,1-.211.287h-.573a.221.221,0,0,1-.212-.158l-.232-.773a.222.222,0,0,0-.212-.158h-.882A.222.222,0,0,0,1036.794,1639.849Zm.825-.88a.221.221,0,0,0,.212-.284l-.181-.616c-.075-.252-.151-.567-.214-.818h-.013c-.063.251-.126.573-.2.818l-.173.619a.222.222,0,0,0,.213.281Z" transform="translate(-1024.631 -1636.458)" fill="#30262a"/>
          <path id="Trazado_160411" data-name="Trazado 160411" d="M1066.9,1636.588a.221.221,0,0,1,.193-.22,9.323,9.323,0,0,1,1.046-.06,2.383,2.383,0,0,1,1.259.239.921.921,0,0,1,.5.837.962.962,0,0,1-.7.9v.012a1.055,1.055,0,0,1,.843,1.039,1.134,1.134,0,0,1-.44.906,2.679,2.679,0,0,1-1.668.384,8.349,8.349,0,0,1-.841-.039.22.22,0,0,1-.2-.22Zm.95,1.211a.221.221,0,0,0,.221.221h.093c.51,0,.774-.208.774-.522s-.245-.491-.68-.491c-.077,0-.142,0-.2,0a.221.221,0,0,0-.212.221Zm0,1.894a.221.221,0,0,0,.217.221h.154c.434,0,.818-.17.818-.617,0-.422-.384-.592-.862-.592h-.106a.221.221,0,0,0-.221.222Z" transform="translate(-1051.551 -1636.264)" fill="#30262a"/>
          <path id="Trazado_160412" data-name="Trazado 160412" d="M1096.7,1638.143a2.016,2.016,0,0,1-2.083,2.234,1.983,1.983,0,0,1-1.995-2.165,2.057,2.057,0,0,1,2.064-2.222A1.979,1.979,0,0,1,1096.7,1638.143Zm-3.065.05c0,.837.39,1.422,1.032,1.422s1.019-.617,1.019-1.441c0-.767-.359-1.422-1.019-1.422S1093.635,1637.369,1093.635,1638.194Z" transform="translate(-1073.693 -1635.991)" fill="#30262a"/>
        </g>
      </g>
    </g>
  </g>
</svg>
