<svg xmlns="http://www.w3.org/2000/svg" xmlns:xlink="http://www.w3.org/1999/xlink" width="85" height="121" viewBox="0 0 85 121">
  <defs>
    <clipPath id="clip-path">
      <rect id="Rect치ngulo_36723" data-name="Rect치ngulo 36723" width="69" height="69" transform="translate(398 6065)" fill="#fff"/>
    </clipPath>
  </defs>
  <g id="Grupo_119024" data-name="Grupo 119024" transform="translate(-390 -6038)">
    <rect id="Rect치ngulo_36722" data-name="Rect치ngulo 36722" width="85" height="121" rx="5" transform="translate(390 6038)" fill="#ffa648"/>
    <g id="Enmascarar_grupo_251" data-name="Enmascarar grupo 251" clip-path="url(#clip-path)">
      <g id="reunion" transform="translate(396.996 6064.018)">
        <g id="Grupo_115035" data-name="Grupo 115035">
          <g id="Grupo_115010" data-name="Grupo 115010">
            <path id="Trazado_160463" data-name="Trazado 160463" d="M56.585,58.8,58.8,68.789H52.147L54.366,58.8l1.11-1.11Z" fill="#ef7385"/>
          </g>
          <g id="Grupo_115011" data-name="Grupo 115011">
            <path id="Trazado_160464" data-name="Trazado 160464" d="M68.512,65.694l.277,3.1H58.8L56.585,58.8l3.329,3.329.91-7.079a12.9,12.9,0,0,1,7.689,10.64Z" fill="#fcd770"/>
          </g>
          <g id="Grupo_115012" data-name="Grupo 115012">
            <path id="Trazado_160465" data-name="Trazado 160465" d="M54.366,58.8l-2.219,9.986H42.161l.277-3.1a12.885,12.885,0,0,1,7.689-10.64l.91,7.079Z" fill="#fcd770"/>
          </g>
          <g id="Grupo_115013" data-name="Grupo 115013">
            <path id="Trazado_160466" data-name="Trazado 160466" d="M60.823,55.054l-.91,7.079L56.585,58.8l-1.11-1.11L58.8,54.366A13.515,13.515,0,0,1,60.823,55.054Z" fill="#ffc729"/>
          </g>
          <g id="Grupo_115014" data-name="Grupo 115014">
            <path id="Trazado_160467" data-name="Trazado 160467" d="M55.475,57.694l-1.11,1.11-3.329,3.329-.91-7.079a13.515,13.515,0,0,1,2.019-.688Z" fill="#ffc729"/>
          </g>
          <g id="Grupo_115015" data-name="Grupo 115015">
            <path id="Trazado_160468" data-name="Trazado 160468" d="M16.643,58.8l2.219,9.986H12.2L14.424,58.8l1.11-1.11Z" fill="#e6e9ed"/>
          </g>
          <g id="Grupo_115016" data-name="Grupo 115016">
            <path id="Trazado_160469" data-name="Trazado 160469" d="M28.57,65.694l.277,3.1H18.862L16.643,58.8l3.329,3.329.91-7.079A12.885,12.885,0,0,1,28.57,65.694Z" fill="#b4dd7f"/>
          </g>
          <g id="Grupo_115017" data-name="Grupo 115017">
            <path id="Trazado_160470" data-name="Trazado 160470" d="M14.424,58.8,12.2,68.789H2.219l.277-3.1a12.9,12.9,0,0,1,7.689-10.64l.91,7.079Z" fill="#b4dd7f"/>
          </g>
          <g id="Grupo_115018" data-name="Grupo 115018">
            <path id="Trazado_160471" data-name="Trazado 160471" d="M20.881,55.054l-.91,7.079L16.643,58.8l-1.11-1.11,3.329-3.329A13.515,13.515,0,0,1,20.881,55.054Z" fill="#a0d468"/>
          </g>
          <g id="Grupo_115019" data-name="Grupo 115019">
            <path id="Trazado_160472" data-name="Trazado 160472" d="M15.533,57.694l-1.11,1.11L11.1,62.132l-.91-7.079a13.515,13.515,0,0,1,2.019-.688Z" fill="#a0d468"/>
          </g>
          <g id="Grupo_115020" data-name="Grupo 115020">
            <path id="Trazado_160473" data-name="Trazado 160473" d="M36.691,29.324l2.141,12.837L35.5,44.38l-3.329-2.219,2.141-12.837,1.187-.477Z" fill="#e6e9ed"/>
          </g>
          <g id="Grupo_115021" data-name="Grupo 115021">
            <path id="Trazado_160474" data-name="Trazado 160474" d="M44.38,29.957a4.466,4.466,0,0,0,1.3,3.14,4.554,4.554,0,0,0,2.064,1.165l-.033.133V37.9a3.038,3.038,0,0,1-.521,1.709l-1.409,2.119A1.7,1.7,0,0,0,47.2,44.38h.51v2.874a3.783,3.783,0,0,0,.344,1.564h-25.1a3.783,3.783,0,0,0,.344-1.564V44.38h.51a1.7,1.7,0,0,0,1.42-2.652l-1.409-2.119A3.038,3.038,0,0,1,23.3,37.9V34.395l-.033-.133A4.554,4.554,0,0,0,25.33,33.1a4.466,4.466,0,0,0,1.3-3.14,2.207,2.207,0,0,0-.732-1.642,14.414,14.414,0,0,1,4.061-2.164v4.915l4.36-1.742L32.176,42.161,35.5,44.38l3.329-2.219L36.691,29.324l4.36,1.742V26.184l.011-.022a19.063,19.063,0,0,1,4.05,2.152A2.207,2.207,0,0,0,44.38,29.957Z" fill="#4fc1e9"/>
          </g>
          <g id="Grupo_115022" data-name="Grupo 115022">
            <path id="Trazado_160475" data-name="Trazado 160475" d="M38.833,25.563l2.23.6-.011.022v4.882l-4.36-1.742L35.5,28.847Z" fill="#3bafda"/>
          </g>
          <g id="Grupo_115023" data-name="Grupo 115023">
            <path id="Trazado_160476" data-name="Trazado 160476" d="M35.5,28.847l-1.187.477-4.36,1.742V26.151a13.313,13.313,0,0,1,2.219-.588Z" fill="#3bafda"/>
          </g>
          <g id="Grupo_115024" data-name="Grupo 115024">
            <path id="Trazado_160477" data-name="Trazado 160477" d="M45.112,28.315a2.146,2.146,0,0,1,1.487-.577h6.579a12.289,12.289,0,0,1,6.812,22.512l-1.187.788V45.49l1.564-1.564a2.226,2.226,0,0,0,.655-1.575v-.189a2.176,2.176,0,0,0-.655-1.575,2.205,2.205,0,0,0-1.564-.644V37.723a3.324,3.324,0,0,0-3.329-3.329H48.818a4.333,4.333,0,0,1-1.076-.133A4.554,4.554,0,0,1,45.678,33.1a4.466,4.466,0,0,1-1.3-3.14,2.207,2.207,0,0,1,.732-1.642Z" fill="#656d78"/>
          </g>
          <g id="Grupo_115025" data-name="Grupo 115025">
            <path id="Trazado_160478" data-name="Trazado 160478" d="M25.9,28.315a2.207,2.207,0,0,1,.732,1.642,4.466,4.466,0,0,1-1.3,3.14,4.554,4.554,0,0,1-2.064,1.165,4.333,4.333,0,0,1-1.076.133H15.533A3.324,3.324,0,0,0,12.2,37.723v2.219a2.205,2.205,0,0,0-1.564.644,2.176,2.176,0,0,0-.655,1.575v.189a2.226,2.226,0,0,0,.655,1.575L12.2,45.49v5.548l-1.187-.788A12.286,12.286,0,0,1,17.83,27.738h6.579a2.146,2.146,0,0,1,1.487.577Z" fill="#656d78"/>
          </g>
          <g id="Grupo_115026" data-name="Grupo 115026">
            <path id="Trazado_160479" data-name="Trazado 160479" d="M45.49,11.051v4.482A3.324,3.324,0,0,0,42.161,12.2h-1.11V12.16h-11.1V12.2h-1.11a3.324,3.324,0,0,0-3.329,3.329V11.184A5.861,5.861,0,0,1,29.957,5.5l.477-.721a5.861,5.861,0,0,1,4.882-2.607h1.3A8.874,8.874,0,0,1,45.49,11.051Z" fill="#b27946"/>
          </g>
          <g id="Grupo_115027" data-name="Grupo 115027">
            <path id="Trazado_160480" data-name="Trazado 160480" d="M68.667,13.791l-1.354,5.4a3.94,3.94,0,0,1-3.828,3H59.913l-1.764,1.764a1.569,1.569,0,0,1-2.674-1.11V22.19H54.122a3.94,3.94,0,0,1-3.828-3l-1.354-5.4a4.109,4.109,0,0,1-.122-.965,3.944,3.944,0,0,1,3.95-3.95H64.839a3.94,3.94,0,0,1,3.95,3.95,4.109,4.109,0,0,1-.122.965Z" fill="#e6e9ed"/>
          </g>
          <g id="Grupo_115028" data-name="Grupo 115028">
            <path id="Trazado_160481" data-name="Trazado 160481" d="M22.068,13.791l-1.354,5.4a3.94,3.94,0,0,1-3.828,3H15.533v.655a1.569,1.569,0,0,1-2.674,1.11L11.1,22.19H7.522a3.94,3.94,0,0,1-3.828-3l-1.354-5.4a4.109,4.109,0,0,1-.122-.965,3.94,3.94,0,0,1,3.95-3.95H18.24a3.944,3.944,0,0,1,3.95,3.95,4.109,4.109,0,0,1-.122.965Z" fill="#e6e9ed"/>
          </g>
          <g id="Grupo_115029" data-name="Grupo 115029">
            <path id="Trazado_160482" data-name="Trazado 160482" d="M22.19,34.395a4.333,4.333,0,0,0,1.076-.133l.033.133V37.9a3.038,3.038,0,0,0,.521,1.709l1.409,2.119a1.7,1.7,0,0,1-1.42,2.652H23.3v2.874a3.788,3.788,0,0,1-3.783,3.783h-.655v3.329l-3.329,3.329L12.2,54.366V45.49L10.64,43.925a2.226,2.226,0,0,1-.655-1.575v-.189a2.176,2.176,0,0,1,.655-1.575,2.205,2.205,0,0,1,1.564-.644V37.723a3.324,3.324,0,0,1,3.329-3.329Z" fill="#f0d0b4"/>
          </g>
          <g id="Grupo_115030" data-name="Grupo 115030">
            <path id="Trazado_160483" data-name="Trazado 160483" d="M58.8,51.037v3.329l-3.329,3.329-3.329-3.329V51.037h-.655a3.8,3.8,0,0,1-3.783-3.783V44.38H47.2a1.7,1.7,0,0,1-1.42-2.652l1.409-2.119a3.038,3.038,0,0,0,.521-1.709V34.395l.033-.133a4.333,4.333,0,0,0,1.076.133h6.657A3.324,3.324,0,0,1,58.8,37.723v2.219a2.205,2.205,0,0,1,1.564.644,2.176,2.176,0,0,1,.655,1.575v.189a2.226,2.226,0,0,1-.655,1.575L58.8,45.49Z" fill="#f0d0b4"/>
          </g>
          <g id="Grupo_115031" data-name="Grupo 115031">
            <path id="Trazado_160484" data-name="Trazado 160484" d="M42.161,12.2a3.329,3.329,0,0,1,0,6.657h-1.11V12.2Z" fill="#f0d0b4"/>
          </g>
          <g id="Grupo_115032" data-name="Grupo 115032">
            <path id="Trazado_160485" data-name="Trazado 160485" d="M38.267,23.3l.566,2.263L35.5,28.847l-3.329-3.284.566-2.263.011-.044a2.876,2.876,0,0,0,.533.044h4.438a2.876,2.876,0,0,0,.533-.044Z" fill="#f0d0b4"/>
          </g>
          <g id="Grupo_115033" data-name="Grupo 115033">
            <path id="Trazado_160486" data-name="Trazado 160486" d="M41.052,12.2v7.767a3.321,3.321,0,0,1-2.8,3.284,2.876,2.876,0,0,1-.533.044H33.285a2.876,2.876,0,0,1-.533-.044,3.321,3.321,0,0,1-2.8-3.284V12.16h11.1Z" fill="#f0d0b4"/>
          </g>
          <g id="Grupo_115034" data-name="Grupo 115034">
            <path id="Trazado_160487" data-name="Trazado 160487" d="M29.957,12.2v6.657h-1.11a3.329,3.329,0,1,1,0-6.657Z" fill="#f0d0b4"/>
          </g>
        </g>
        <g id="Grupo_115036" data-name="Grupo 115036">
          <path id="Trazado_160488" data-name="Trazado 160488" d="M49.212,19.466A5.055,5.055,0,0,0,54.123,23.3h.283a2.678,2.678,0,0,0,4.532,1.435L60.373,23.3h3.112a5.053,5.053,0,0,0,4.91-3.833l1.352-5.411a5.058,5.058,0,0,0-4.91-6.289H52.77a5.062,5.062,0,0,0-4.911,6.289ZM52.77,9.986H64.838a2.841,2.841,0,0,1,2.756,3.533l-1.352,5.411a2.839,2.839,0,0,1-2.757,2.151H59.454L57.37,23.164a.476.476,0,0,1-.786-.324v-1.76H54.123a2.839,2.839,0,0,1-2.757-2.151l-1.352-5.411A2.841,2.841,0,0,1,52.77,9.986Z"/>
          <path id="Trazado_160489" data-name="Trazado 160489" d="M62.132,16.643h2.219v2.219H62.132Z"/>
          <path id="Trazado_160490" data-name="Trazado 160490" d="M53.256,16.643h6.657v2.219H53.256Z"/>
          <path id="Trazado_160491" data-name="Trazado 160491" d="M53.256,12.2h11.1v2.219h-11.1Z"/>
          <path id="Trazado_160492" data-name="Trazado 160492" d="M2.613,19.466A5.055,5.055,0,0,0,7.524,23.3h3.112l1.435,1.436A2.679,2.679,0,0,0,16.6,23.3h.283a5.053,5.053,0,0,0,4.91-3.833l1.352-5.411a5.058,5.058,0,0,0-4.91-6.289H6.171A5.062,5.062,0,0,0,1.26,14.055ZM6.171,9.986H18.239A2.841,2.841,0,0,1,21,13.518l-1.352,5.411a2.839,2.839,0,0,1-2.757,2.151H14.424v1.76a.477.477,0,0,1-.784.325l-2.085-2.085H7.524a2.839,2.839,0,0,1-2.757-2.151L3.414,13.518A2.841,2.841,0,0,1,6.171,9.986Z"/>
          <path id="Trazado_160493" data-name="Trazado 160493" d="M6.657,16.643H8.876v2.219H6.657Z"/>
          <path id="Trazado_160494" data-name="Trazado 160494" d="M11.1,16.643h6.657v2.219H11.1Z"/>
          <path id="Trazado_160495" data-name="Trazado 160495" d="M6.657,12.2h11.1v2.219H6.657Z"/>
          <path id="Trazado_160496" data-name="Trazado 160496" d="M41.337,65.595l-.391,4.3H70l-.392-4.3a14.007,14.007,0,0,0-9.7-12.068v-1.9l.692-.462a13.4,13.4,0,0,0-7.431-24.541H46.6a3.274,3.274,0,0,0-1.469.357,16,16,0,0,0-5.39-2.368l-.158-.63a4.433,4.433,0,0,0,2.578-4.016A4.442,4.442,0,0,0,46.6,15.533V11.051a10,10,0,0,0-9.986-9.986h-1.3a6.955,6.955,0,0,0-5.8,3.1l-.253.379a6.956,6.956,0,0,0-4.851,6.639v4.346a4.442,4.442,0,0,0,4.438,4.438,4.433,4.433,0,0,0,2.578,4.016l-.158.63a16.036,16.036,0,0,0-5.39,2.368,3.285,3.285,0,0,0-1.469-.357H17.833A13.4,13.4,0,0,0,10.4,51.169l.692.462v1.9a14.008,14.008,0,0,0-9.7,12.068L1,69.9H30.062l-.392-4.3a14.007,14.007,0,0,0-9.7-12.068V52.1a4.843,4.843,0,0,0,3-1.39,4.942,4.942,0,0,0,.634-.784H47.4a5,5,0,0,0,.634.784,4.85,4.85,0,0,0,3,1.39v1.426a14.007,14.007,0,0,0-9.7,12.067Zm10.489-9.981,2.08,2.08-2.057,2.057-.511-3.978C51.5,55.716,51.662,55.664,51.826,55.614Zm7.3,0c.164.05.327.1.487.159L59.1,59.75l-2.056-2.056ZM55.572,59.36l1.85,8.32H53.53l1.848-8.32.1-.1ZM43.548,65.8a11.781,11.781,0,0,1,5.682-9.03l1,7.748,2.232-2.232-1.2,5.4H43.376Zm23.854,0,.172,1.883H59.693l-1.2-5.4,2.232,2.232,1-7.748A11.78,11.78,0,0,1,67.4,65.8ZM53.174,28.847A11.176,11.176,0,0,1,59.913,48.94V45.948L61.157,44.7a3.3,3.3,0,0,0,.975-2.353V42.16a3.335,3.335,0,0,0-2.219-3.139v-1.3a4.442,4.442,0,0,0-4.438-4.438H48.818a3.333,3.333,0,0,1-3.329-3.329,1.11,1.11,0,0,1,1.11-1.108Zm-13.232-1.87v2.45l-2.452-.982,1.681-1.659C39.43,26.846,39.688,26.905,39.942,26.978ZM37.62,41.635,35.5,43.047l-2.116-1.41,1.919-11.514.2-.08.2.079ZM37.4,24.409l.2.809-2.1,2.07-2.1-2.07.2-.809Zm4.761-6.657V13.314a2.219,2.219,0,0,1,0,4.438ZM26.628,15.533a2.221,2.221,0,0,1,2.219-2.219v4.438A2.221,2.221,0,0,1,26.628,15.533Zm2.219-4.482V11.1a4.392,4.392,0,0,0-2.219.617v-.525a4.739,4.739,0,0,1,3.6-4.607l.416-.1L31.358,5.4A4.74,4.74,0,0,1,35.31,3.284h1.3a7.776,7.776,0,0,1,7.767,7.767v.661a4.392,4.392,0,0,0-2.219-.617v-.044Zm2.219,2.219h8.876v6.7a2.221,2.221,0,0,1-2.219,2.219H33.285a2.221,2.221,0,0,1-2.219-2.219Zm.771,13.517,1.681,1.659-2.452.982v-2.45C31.32,26.905,31.579,26.846,31.837,26.787ZM6.657,40.023A11.189,11.189,0,0,1,17.834,28.847h6.575a1.11,1.11,0,0,1,1.11,1.108,3.333,3.333,0,0,1-3.329,3.329H15.533A4.442,4.442,0,0,0,11.1,37.722v1.3A3.335,3.335,0,0,0,8.876,42.16v.191A3.3,3.3,0,0,0,9.851,44.7L11.1,45.948V48.94a11.153,11.153,0,0,1-4.438-8.917Zm5.227,15.591,2.08,2.08-2.057,2.057L11.4,55.774c.161-.058.324-.11.488-.16Zm7.3,0c.164.05.327.1.487.159l-.511,3.978L17.1,57.694ZM15.63,59.36l1.85,8.32H13.588l1.848-8.32.1-.1ZM3.606,65.8a11.781,11.781,0,0,1,5.682-9.03l1,7.748,2.232-2.232-1.2,5.4H3.434Zm23.854,0,.172,1.883H19.751l-1.2-5.4,2.232,2.232,1-7.748A11.78,11.78,0,0,1,27.46,65.8ZM19.512,49.928H15.533v2.219h2.22v1.76l-2.219,2.219-2.219-2.219V45.029L11.42,43.135a1.12,1.12,0,0,1-.325-.784V42.16a1.111,1.111,0,0,1,1.11-1.11h1.11V37.722A2.221,2.221,0,0,1,15.533,35.5H22.19v2.4a4.166,4.166,0,0,0,.7,2.322l1.416,2.125a.588.588,0,0,1,.1.33.594.594,0,0,1-.594.594H22.19v3.979a2.68,2.68,0,0,1-2.678,2.678Zm4.853-2.219c.014-.153.044-.3.044-.459V45.426a2.813,2.813,0,0,0,1.746-4.31l-1.417-2.125a1.96,1.96,0,0,1-.33-1.091V35.033a5.551,5.551,0,0,0,3.329-5.077,3.293,3.293,0,0,0-.3-1.355,13.864,13.864,0,0,1,1.4-.779V32.7l4.05-1.62-1.934,11.6L35.5,45.714l4.541-3.028-1.934-11.6,4.05,1.62V27.822a13.535,13.535,0,0,1,1.4.779,3.293,3.293,0,0,0-.3,1.355A5.551,5.551,0,0,0,46.6,35.033V37.9a1.955,1.955,0,0,1-.331,1.091l-1.416,2.125A2.814,2.814,0,0,0,46.6,45.427V47.25c0,.156.031.306.044.459H24.365Zm24.453-.459V43.271H47.193a.594.594,0,0,1-.494-.923l1.416-2.125a4.166,4.166,0,0,0,.7-2.322V35.5h6.657a2.221,2.221,0,0,1,2.219,2.219v3.329H58.8a1.111,1.111,0,0,1,1.11,1.11v.191a1.118,1.118,0,0,1-.325.784l-1.894,1.894v8.877l-2.219,2.219-2.219-2.219v-1.76h2.219V49.927H51.5a2.678,2.678,0,0,1-2.678-2.678Z"/>
        </g>
      </g>
    </g>
  </g>
</svg>
