<svg xmlns="http://www.w3.org/2000/svg" xmlns:xlink="http://www.w3.org/1999/xlink" width="85" height="121" viewBox="0 0 85 121">
  <defs>
    <clipPath id="clip-path">
      <rect id="Rect치ngulo_36714" data-name="Rect치ngulo 36714" width="69" height="69" transform="translate(608 5922)" fill="#fff"/>
    </clipPath>
  </defs>
  <g id="Grupo_119021" data-name="Grupo 119021" transform="translate(-600 -5895)">
    <rect id="Rect치ngulo_36005" data-name="Rect치ngulo 36005" width="85" height="121" rx="5" transform="translate(600 5895)" fill="#ffa648"/>
    <g id="Enmascarar_grupo_249" data-name="Enmascarar grupo 249" clip-path="url(#clip-path)">
      <g id="expresion" transform="translate(606.887 5920.887)">
        <path id="Trazado_160423" data-name="Trazado 160423" d="M28.935,2.226H6.677A4.45,4.45,0,0,0,2.226,6.677V20.032a4.45,4.45,0,0,0,4.452,4.452H8.9l7.79,4.452V24.484H28.935a4.45,4.45,0,0,0,4.452-4.452V6.677A4.45,4.45,0,0,0,28.935,2.226Z" fill="#ff826e"/>
        <path id="Trazado_160424" data-name="Trazado 160424" d="M69,13.355V26.71a4.45,4.45,0,0,1-4.452,4.452H62.323l-7.79,4.452V31.161H42.29a4.45,4.45,0,0,1-4.452-4.452V13.355A4.45,4.45,0,0,1,42.29,8.9H64.548A4.45,4.45,0,0,1,69,13.355Z" fill="#b4dd7f"/>
        <path id="Trazado_160425" data-name="Trazado 160425" d="M69,55.645v8.9A4.45,4.45,0,0,1,64.548,69H42.29a4.45,4.45,0,0,1-4.452-4.452v-8.9a4.45,4.45,0,0,1,4.452-4.452h7.79V46.742l7.79,4.452h6.677A4.45,4.45,0,0,1,69,55.645Z" fill="#e6e9ed"/>
        <path id="Trazado_160426" data-name="Trazado 160426" d="M42.29,55.645h8.9v8.9h-8.9Z" fill="#fcd770"/>
        <path id="Trazado_160427" data-name="Trazado 160427" d="M18.919,66.218a2.783,2.783,0,0,0-2.782-2.782H2.226V62.323A11.133,11.133,0,0,1,13.355,51.194h4.452l2.649-.378a15.6,15.6,0,0,0,8.814-4.407l9.871-9.871a3.148,3.148,0,1,1,4.452,4.452L26.409,58.171a2.769,2.769,0,0,0-.812,1.97V69h-9.46a2.774,2.774,0,0,0,2.782-2.782Z" fill="#fcd770"/>
        <path id="Trazado_160428" data-name="Trazado 160428" d="M16.137,63.435a2.782,2.782,0,1,1,0,5.565H5.008a2.783,2.783,0,0,1-2.782-2.782V63.435Z" fill="#f0d0b4"/>
        <circle id="Elipse_5009" data-name="Elipse 5009" cx="7.79" cy="7.79" r="7.79" transform="translate(8.903 35.613)" fill="#f0d0b4"/>
        <path id="Trazado_160429" data-name="Trazado 160429" d="M45.629,38.761a4.261,4.261,0,0,0-7.274-3.013l-9.874,9.874A14.522,14.522,0,0,1,23.8,48.743,8.9,8.9,0,1,0,11.075,50.3a12.256,12.256,0,0,0-9.962,12.02v3.9a3.9,3.9,0,0,0,3.9,3.9h21.7V60.137a1.661,1.661,0,0,1,.489-1.181L44.38,41.774a4.232,4.232,0,0,0,1.249-3.013ZM10.016,43.4a6.677,6.677,0,1,1,6.677,6.677A6.684,6.684,0,0,1,10.016,43.4Zm32.791-3.2L25.625,57.382a3.87,3.87,0,0,0-1.141,2.754v7.75H19.642a3.856,3.856,0,0,0,.391-1.669,3.9,3.9,0,0,0-3.9-3.9H6.677v2.226h9.46a1.669,1.669,0,0,1,0,3.339H5.008a1.671,1.671,0,0,1-1.669-1.669v-3.9A10.028,10.028,0,0,1,13.355,52.306h4.452l2.807-.39a16.8,16.8,0,0,0,9.443-4.722l9.874-9.874A2.035,2.035,0,0,1,42.807,40.2Z"/>
        <path id="Trazado_160430" data-name="Trazado 160430" d="M64.548,7.79H42.29a5.571,5.571,0,0,0-5.565,5.565V26.71a5.571,5.571,0,0,0,5.565,5.565H53.419V37.53l9.2-5.256h1.93a5.571,5.571,0,0,0,5.565-5.565V13.355A5.571,5.571,0,0,0,64.548,7.79ZM67.887,26.71a3.343,3.343,0,0,1-3.339,3.339H62.027L55.645,33.7V30.048H42.29a3.343,3.343,0,0,1-3.339-3.339V13.355a3.343,3.343,0,0,1,3.339-3.339H64.548a3.343,3.343,0,0,1,3.339,3.339Z"/>
        <path id="Trazado_160431" data-name="Trazado 160431" d="M64.548,50.081H58.167l-9.2-5.256v5.256H42.29a5.571,5.571,0,0,0-5.565,5.565v8.9a5.571,5.571,0,0,0,5.565,5.565H64.548a5.571,5.571,0,0,0,5.565-5.565v-8.9A5.571,5.571,0,0,0,64.548,50.081Zm3.339,14.468a3.343,3.343,0,0,1-3.339,3.339H42.29a3.343,3.343,0,0,1-3.339-3.339v-8.9a3.343,3.343,0,0,1,3.339-3.339h8.9V48.659l6.381,3.647h6.973a3.343,3.343,0,0,1,3.339,3.339Z"/>
        <path id="Trazado_160432" data-name="Trazado 160432" d="M6.677,25.6h1.93l9.2,5.256V25.6H28.935A5.571,5.571,0,0,0,34.5,20.032V6.677a5.571,5.571,0,0,0-5.565-5.565H6.677A5.571,5.571,0,0,0,1.113,6.677V20.032A5.571,5.571,0,0,0,6.677,25.6ZM3.339,6.677A3.343,3.343,0,0,1,6.677,3.339H28.935a3.343,3.343,0,0,1,3.339,3.339V20.032a3.343,3.343,0,0,1-3.339,3.339H15.581v3.647L9.2,23.371H6.677a3.343,3.343,0,0,1-3.339-3.339Z"/>
        <path id="Trazado_160433" data-name="Trazado 160433" d="M50.081,24.023l-3.665-3.665-1.574,1.574,5.238,5.238L63.109,14.142l-1.574-1.574Z"/>
        <path id="Trazado_160434" data-name="Trazado 160434" d="M10.8,21.932l7-7,7,7,1.574-1.574-7-7,7-7L24.81,4.778l-7,7-7-7L9.229,6.351l7,7-7,7Z"/>
        <path id="Trazado_160435" data-name="Trazado 160435" d="M41.177,65.661H52.306V54.532H41.177Zm2.226-8.9h6.677v6.677H43.4Z"/>
        <path id="Trazado_160436" data-name="Trazado 160436" d="M54.532,54.532H65.661v2.226H54.532Z"/>
        <path id="Trazado_160437" data-name="Trazado 160437" d="M54.532,58.984H65.661V61.21H54.532Z"/>
        <path id="Trazado_160438" data-name="Trazado 160438" d="M54.532,63.435H65.661v2.226H54.532Z"/>
      </g>
    </g>
  </g>
</svg>
