<svg xmlns="http://www.w3.org/2000/svg" xmlns:xlink="http://www.w3.org/1999/xlink" width="85" height="121" viewBox="0 0 85 121">
  <defs>
    <clipPath id="clip-path">
      <rect id="Rect치ngulo_36721" data-name="Rect치ngulo 36721" width="69" height="69" transform="translate(818 6065)" fill="#fff"/>
    </clipPath>
  </defs>
  <g id="Grupo_119023" data-name="Grupo 119023" transform="translate(-810 -6038)">
    <rect id="Rect치ngulo_36720" data-name="Rect치ngulo 36720" width="85" height="121" rx="5" transform="translate(810 6038)" fill="#ffa648"/>
    <g id="Enmascarar_grupo_252" data-name="Enmascarar grupo 252" clip-path="url(#clip-path)">
      <g id="comunicado" transform="translate(818 6065)">
        <g id="Grupo_115052" data-name="Grupo 115052">
          <g id="Grupo_115037" data-name="Grupo 115037">
            <path id="Trazado_160497" data-name="Trazado 160497" d="M54.532,21.145a6.683,6.683,0,0,0-6.677,6.677V24.484a2.232,2.232,0,0,0-2.226-2.226H41.177V11.129A3.334,3.334,0,0,1,44.516,7.79H64.548a3.334,3.334,0,0,1,3.339,3.339V26.71a3.334,3.334,0,0,1-3.339,3.339H61.21V27.823a6.687,6.687,0,0,0-6.677-6.677,4.452,4.452,0,1,0-4.452-4.452A4.45,4.45,0,0,0,54.532,21.145Z" fill="#e6e9ed"/>
          </g>
          <g id="Grupo_115038" data-name="Grupo 115038">
            <path id="Trazado_160498" data-name="Trazado 160498" d="M61.21,27.823v2.226H58.984l-4,4a1.574,1.574,0,0,1-2.682-1.113V30.048H47.855V27.823a6.683,6.683,0,0,1,6.677-6.677,6.687,6.687,0,0,1,6.677,6.677Z" fill="#ef7385"/>
          </g>
          <g id="Grupo_115039" data-name="Grupo 115039">
            <path id="Trazado_160499" data-name="Trazado 160499" d="M47.855,24.484V26.71h-8.9V24.484a2.232,2.232,0,0,1,2.226-2.226h4.452A2.232,2.232,0,0,1,47.855,24.484Z" fill="#969faa"/>
          </g>
          <g id="Grupo_115040" data-name="Grupo 115040">
            <path id="Trazado_160500" data-name="Trazado 160500" d="M41.177,34.634a2.393,2.393,0,0,0-.356-1.246h7.034v2.226a2.232,2.232,0,0,1-2.226,2.226H38.952L40.487,36.3A2.358,2.358,0,0,0,41.177,34.634Z" fill="#969faa"/>
          </g>
          <g id="Grupo_115041" data-name="Grupo 115041">
            <path id="Trazado_160501" data-name="Trazado 160501" d="M47.855,30.048v3.339H40.821a2.542,2.542,0,0,0-.334-.423,2.332,2.332,0,0,0-1.536-.679V26.71h8.9v3.339Z" fill="#69d6f4"/>
          </g>
          <g id="Grupo_115042" data-name="Grupo 115042">
            <path id="Trazado_160502" data-name="Trazado 160502" d="M29.147,16.694H22.18a6.4,6.4,0,0,1-3.617-1.113,6.489,6.489,0,0,1-2.382-2.949,2.389,2.389,0,0,0-4.485.134l-.568,1.7h-.946A2.378,2.378,0,0,0,7.8,16.694H6.677a3.331,3.331,0,0,0-2.359.979.557.557,0,0,0-.078.089,10.226,10.226,0,0,1-.9-4.2A12.463,12.463,0,0,1,15.792,1.113h6.255A12.453,12.453,0,0,1,34.5,13.566a10.226,10.226,0,0,1-.9,4.2,3.292,3.292,0,0,0-2.437-1.068H29.147Z" fill="#656d78"/>
          </g>
          <g id="Grupo_115043" data-name="Grupo 115043">
            <path id="Trazado_160503" data-name="Trazado 160503" d="M27.823,55.645V67.887H10.016V56.758h-8.9V51.806a13.369,13.369,0,0,1,10.35-13.021l.579-.134,2.426,8.091,4.452-4.452,4.452,4.452,2.37-7.89a13.319,13.319,0,0,1,7.034,5.3l2.17,3.261-7.123,7.123Z" fill="#fcd770"/>
          </g>
          <g id="Grupo_115044" data-name="Grupo 115044">
            <path id="Trazado_160504" data-name="Trazado 160504" d="M25.741,38.84v.011l-2.37,7.89L18.919,42.29l3.339-4.452,3.072.879c.134.045.278.078.412.122Z" fill="#ffc729"/>
          </g>
          <g id="Grupo_115045" data-name="Grupo 115045">
            <path id="Trazado_160505" data-name="Trazado 160505" d="M15.581,37.839l3.339,4.452-4.452,4.452-2.426-8.091Z" fill="#ffc729"/>
          </g>
          <g id="Grupo_115046" data-name="Grupo 115046">
            <circle id="Elipse_5010" data-name="Elipse 5010" cx="4.452" cy="4.452" r="4.452" transform="translate(50.081 12.242)" fill="#f0d0b4"/>
          </g>
          <g id="Grupo_115047" data-name="Grupo 115047">
            <path id="Trazado_160506" data-name="Trazado 160506" d="M1.113,56.758h8.9V67.887h-8.9Z" fill="#f0d0b4"/>
          </g>
          <g id="Grupo_115048" data-name="Grupo 115048">
            <path id="Trazado_160507" data-name="Trazado 160507" d="M44.516,37.839,42.869,55.1a6.735,6.735,0,0,1-11.452,4.129l-3.595-3.584V54.532l7.123-7.123.668,1,1.113-6.121-1.246-1.246a3.355,3.355,0,0,1-.979-2.359V36.537a2.233,2.233,0,0,1,.657-1.58l1.992-1.992a2.358,2.358,0,0,1,1.669-.69.542.542,0,0,1,.134.011,2.332,2.332,0,0,1,1.536.679,2.542,2.542,0,0,1,.334.423,2.393,2.393,0,0,1,.356,1.246,2.358,2.358,0,0,1-.69,1.669l-1.536,1.536Z" fill="#f0d0b4"/>
          </g>
          <g id="Grupo_115049" data-name="Grupo 115049">
            <path id="Trazado_160508" data-name="Trazado 160508" d="M7.79,16.86v6.51H6.677A3.33,3.33,0,0,1,4.24,17.762a.557.557,0,0,1,.078-.089,3.331,3.331,0,0,1,2.359-.979H7.8A.842.842,0,0,0,7.79,16.86Z" fill="#f0d0b4"/>
          </g>
          <g id="Grupo_115050" data-name="Grupo 115050">
            <path id="Trazado_160509" data-name="Trazado 160509" d="M33.6,17.762a3.335,3.335,0,0,1-2.437,5.609H30.048V16.694h1.113A3.292,3.292,0,0,1,33.6,17.762Z" fill="#f0d0b4"/>
          </g>
          <g id="Grupo_115051" data-name="Grupo 115051">
            <path id="Trazado_160510" data-name="Trazado 160510" d="M30.048,16.694v6.722a11.737,11.737,0,0,1-7.111,10.8,1.117,1.117,0,0,0-.679,1.024v2.6L18.919,42.29l-3.339-4.452v-2.6a1.117,1.117,0,0,0-.679-1.024A11.707,11.707,0,0,1,7.79,23.427V16.86a.842.842,0,0,1,.011-.167,2.378,2.378,0,0,1,2.382-2.226h.946l.568-1.7a2.389,2.389,0,0,1,4.485-.134,6.489,6.489,0,0,0,2.382,2.949,6.4,6.4,0,0,0,3.617,1.113h7.868Z" fill="#f0d0b4"/>
          </g>
        </g>
        <g id="Grupo_115053" data-name="Grupo 115053">
          <circle id="Elipse_5011" data-name="Elipse 5011" cx="1.113" cy="1.113" r="1.113" transform="translate(23.371 18.919)"/>
          <circle id="Elipse_5012" data-name="Elipse 5012" cx="1.113" cy="1.113" r="1.113" transform="translate(12.242 18.919)"/>
          <path id="Trazado_160511" data-name="Trazado 160511" d="M18.3,26.593l1.23-.615a2.228,2.228,0,0,0,1-2.987l-.5-.995V20.032H17.806v2.226a1.116,1.116,0,0,0,.117.5l.615,1.23-1.23.615Z"/>
          <path id="Trazado_160512" data-name="Trazado 160512" d="M18.919,31.161a4.688,4.688,0,0,0,4.217-2.606l.117-.235-1.991-1-.117.236a2.489,2.489,0,0,1-4.452,0l-.117-.235-1.991,1,.117.235A4.691,4.691,0,0,0,18.919,31.161Z"/>
          <path id="Trazado_160513" data-name="Trazado 160513" d="M64.548,6.677H44.516a4.456,4.456,0,0,0-4.452,4.452V21.35a3.334,3.334,0,0,0-2.226,3.134v6.833a3.436,3.436,0,0,0-1.478.861l-2,2a3.315,3.315,0,0,0-.978,2.362v2.147a4.424,4.424,0,0,0,1.3,3.148l.835.835L35.01,45.5,33.7,43.532a14.48,14.48,0,0,0-8.064-5.886L23.371,37V35.233a12.835,12.835,0,0,0,7.742-10.748h.047a4.445,4.445,0,0,0,3.7-6.911,11.261,11.261,0,0,0,.746-4A13.583,13.583,0,0,0,22.043,0H15.794A13.583,13.583,0,0,0,2.226,13.569a11.248,11.248,0,0,0,.747,4.005,4.444,4.444,0,0,0,3.7,6.91h.048a12.831,12.831,0,0,0,7.742,10.75v1.719l-3.252.75A14.4,14.4,0,0,0,0,51.8V69H28.935V58.326l1.695,1.691A7.846,7.846,0,0,0,43.98,55.2l1.548-16.253h.1a3.343,3.343,0,0,0,3.339-3.339V31.161h2.226v1.765a2.687,2.687,0,0,0,4.586,1.9l3.665-3.665h5.1A4.456,4.456,0,0,0,69,26.71V11.129a4.457,4.457,0,0,0-4.452-4.452ZM41.177,23.371h4.452a1.115,1.115,0,0,1,1.113,1.113V25.6H40.065V24.484A1.114,1.114,0,0,1,41.177,23.371Zm5.565,8.9H41.35a3.47,3.47,0,0,0-1.285-.871v-3.58h6.677v4.452ZM24.353,39.595,22.84,44.637l-2.452-2.452,2.3-3.066Zm6.809-17.337V17.806a2.226,2.226,0,0,1,0,4.452ZM15.794,2.226h6.249A11.356,11.356,0,0,1,33.387,13.569a9.065,9.065,0,0,1-.345,2.444,4.409,4.409,0,0,0-1.881-.432H29.135a5.342,5.342,0,0,1-5.068-3.658l-.752-2.258-2.111.7.752,2.259a7.572,7.572,0,0,0,1.821,2.954H22.182a5.328,5.328,0,0,1-4.968-3.363,3.5,3.5,0,0,0-6.573.193l-.315.945h-.148a3.5,3.5,0,0,0-3.253,2.226H6.677a4.406,4.406,0,0,0-1.881.432,9.059,9.059,0,0,1-.345-2.444A11.355,11.355,0,0,1,15.794,2.226ZM4.452,20.032a2.228,2.228,0,0,1,2.226-2.226v4.452A2.227,2.227,0,0,1,4.452,20.032ZM8.9,23.422V16.856a1.277,1.277,0,0,1,1.275-1.275H11.93l.822-2.466a1.275,1.275,0,0,1,2.394-.07,7.539,7.539,0,0,0,7.035,4.762h6.754V23.42a10.616,10.616,0,0,1-6.443,9.769,2.223,2.223,0,0,0-1.348,2.046v2.234l-2.226,2.967-2.226-2.967V35.235a2.224,2.224,0,0,0-1.349-2.046A10.616,10.616,0,0,1,8.9,23.422Zm6.221,15.664,2.325,3.1L15,44.637l-1.549-5.164ZM2.226,57.871H8.9v8.9H2.226Zm24.484,8.9H11.129V46.742H8.9v8.9H2.226V51.8A12.175,12.175,0,0,1,11.28,39.993l2.656,8.853,4.982-4.982L23.9,48.846l2.561-8.537a12.25,12.25,0,0,1,5.383,4.457l1.667,2.5-4.577,4.577v-5.1H26.71ZM41.763,54.993A5.619,5.619,0,0,1,32.2,58.44l-3.267-3.256v-.19l5.316-5.316L33.4,54.333l2.19.4,2.33-12.815-1.66-1.66a2.207,2.207,0,0,1-.652-1.574V36.534a1.108,1.108,0,0,1,.326-.788l2-2A1.248,1.248,0,0,1,39.7,35.517L37.52,37.7l2.732,4.1L42.1,40.56l-1.074-1.608h2.261Zm3.866-18.267H41.574a3.444,3.444,0,0,0,.717-2.091c0-.046-.012-.089-.013-.135h4.465v1.113A1.115,1.115,0,0,1,45.629,36.726Zm12.893-7.79-4.317,4.317a.478.478,0,0,1-.786-.326V28.935H48.968V27.823a5.565,5.565,0,1,1,11.129,0v1.113ZM51.194,16.694a3.339,3.339,0,1,1,3.339,3.339A3.343,3.343,0,0,1,51.194,16.694ZM66.774,26.71a2.228,2.228,0,0,1-2.226,2.226H62.323V27.823a7.793,7.793,0,0,0-4.206-6.909,5.565,5.565,0,1,0-7.169,0,7.833,7.833,0,0,0-2.417,1.95,3.328,3.328,0,0,0-2.9-1.718H42.29V11.129A2.228,2.228,0,0,1,44.516,8.9H64.548a2.228,2.228,0,0,1,2.226,2.226Z"/>
          <path id="Trazado_160514" data-name="Trazado 160514" d="M56.622,49.946,58.2,51.52a1.137,1.137,0,0,1,1.573,0l1.575-1.574A3.418,3.418,0,0,0,56.622,49.946Z"/>
          <path id="Trazado_160515" data-name="Trazado 160515" d="M53.475,46.8l1.574,1.574a5.572,5.572,0,0,1,7.869,0L64.492,46.8a7.8,7.8,0,0,0-11.017,0Z"/>
          <path id="Trazado_160516" data-name="Trazado 160516" d="M50.327,43.65,51.9,45.224a10.029,10.029,0,0,1,14.166,0L67.64,43.65a12.256,12.256,0,0,0-17.313,0Z"/>
          <path id="Trazado_160517" data-name="Trazado 160517" d="M57.871,62.323H60.1v2.226H57.871Z"/>
          <path id="Trazado_160518" data-name="Trazado 160518" d="M57.871,57.871H60.1V60.1H57.871Z"/>
          <path id="Trazado_160519" data-name="Trazado 160519" d="M57.871,53.419H60.1v2.226H57.871Z"/>
        </g>
      </g>
    </g>
  </g>
</svg>
