<svg xmlns="http://www.w3.org/2000/svg" xmlns:xlink="http://www.w3.org/1999/xlink" width="295" height="181" viewBox="0 0 295 181">
  <defs>
    <clipPath id="clip-path">
      <circle id="Elipse_4971" data-name="Elipse 4971" cx="11.458" cy="11.458" r="11.458" fill="none"/>
    </clipPath>
  </defs>
  <g id="Grupo_114268" data-name="Grupo 114268" transform="translate(-915 -891)">
    <path id="Trazado_159732" data-name="Trazado 159732" d="M20,0H275a20,20,0,0,1,20,20V161a20,20,0,0,1-20,20H20A20,20,0,0,1,0,161V20A20,20,0,0,1,20,0Z" transform="translate(915 891)" fill="#8d8cbe"/>
    <g id="Grupo_114157" data-name="Grupo 114157" transform="translate(963.599 882.492)">
      <g id="BACKGROUND" transform="translate(16.265 16.446)">
        <g id="Grupo_114011" data-name="Grupo 114011">
          <circle id="Elipse_4969" data-name="Elipse 4969" cx="82.591" cy="82.591" r="82.591" fill="#e3e3f7"/>
        </g>
      </g>
      <g id="OBJECTS" transform="translate(17.797 14.66)">
        <g id="Grupo_114156" data-name="Grupo 114156">
          <g id="Grupo_114044" data-name="Grupo 114044">
            <g id="Grupo_114021" data-name="Grupo 114021">
              <g id="Grupo_114013" data-name="Grupo 114013" transform="translate(11.198 20.294)">
                <rect id="Rectángulo_36792" data-name="Rectángulo 36792" width="18.122" height="13.562" rx="2" transform="translate(18.122 13.562) rotate(180)" fill="#2f2fa7"/>
                <g id="Grupo_114012" data-name="Grupo 114012" transform="translate(2.648 2.689)">
                  <path id="Trazado_159538" data-name="Trazado 159538" d="M83.548,113.909h6.219a.433.433,0,1,1,0,.866H83.548a.433.433,0,1,1,0-.866Z" transform="translate(-83.115 -107.326)" fill="#d967a2"/>
                  <path id="Trazado_159539" data-name="Trazado 159539" d="M83.548,105.737H95.823a.433.433,0,1,1,0,.866H83.548a.433.433,0,1,1,0-.866Z" transform="translate(-83.115 -102.445)" fill="#d967a2"/>
                  <path id="Trazado_159540" data-name="Trazado 159540" d="M83.548,97.564H95.823a.433.433,0,1,1,0,.866H83.548a.433.433,0,1,1,0-.866Z" transform="translate(-83.115 -97.564)" fill="#d967a2"/>
                </g>
              </g>
              <g id="Grupo_114016" data-name="Grupo 114016" transform="translate(27.88 9.045)">
                <circle id="Elipse_4970" data-name="Elipse 4970" cx="11.458" cy="11.458" r="11.458" fill="#fff"/>
                <g id="Grupo_114015" data-name="Grupo 114015">
                  <g id="Grupo_114014" data-name="Grupo 114014" clip-path="url(#clip-path)">
                    <path id="Trazado_159541" data-name="Trazado 159541" d="M141.482,90.091c-7.629-.065-12.793-.07-20.4,0-.055-2.883.511-4.593,2.656-5.526,1.568-.679,3.767-.6,4.251-1.913.686-1.868-.876-3.657-1.382-5.313-1.092-3.585.806-7.775,4.251-8.076,3.6-.317,6.016,3.8,5.1,7.544-.472,1.93-2.036,3.732-1.487,5.632.324,1.118,1.658,1.427,2.976,1.808C140.294,85.066,141.464,86.162,141.482,90.091Z" transform="translate(-119.821 -66.713)" fill="#a4a4e4" fill-rule="evenodd"/>
                  </g>
                </g>
              </g>
              <g id="Grupo_114018" data-name="Grupo 114018" transform="translate(43.969)">
                <path id="Trazado_159542" data-name="Trazado 159542" d="M170.613,40.5h-10.9a1.808,1.808,0,0,0-1.808,1.808v12.2l4.5-4.061h8.207a1.808,1.808,0,0,0,1.808-1.808V42.306A1.808,1.808,0,0,0,170.613,40.5Z" transform="translate(-157.909 -40.498)" fill="#1e1e77"/>
                <g id="Grupo_114017" data-name="Grupo 114017" transform="translate(3.293 4.247)">
                  <circle id="Elipse_4972" data-name="Elipse 4972" cx="0.914" cy="0.914" r="0.914" fill="#fff"/>
                  <circle id="Elipse_4973" data-name="Elipse 4973" cx="0.914" cy="0.914" r="0.914" transform="translate(3.088 0)" fill="#fff"/>
                  <circle id="Elipse_4974" data-name="Elipse 4974" cx="0.914" cy="0.914" r="0.914" transform="translate(6.177)" fill="#fff"/>
                </g>
              </g>
              <g id="Grupo_114020" data-name="Grupo 114020" transform="translate(0 49.953)">
                <rect id="Rectángulo_36793" data-name="Rectángulo 36793" width="18.123" height="7.683" rx="1" fill="#1e1e77"/>
                <rect id="Rectángulo_36794" data-name="Rectángulo 36794" width="16.416" height="5.975" rx="1" transform="translate(0.853 0.854)" fill="#fff"/>
                <g id="Grupo_114019" data-name="Grupo 114019" transform="translate(4.627 2.285)">
                  <path id="Trazado_159543" data-name="Trazado 159543" d="M60.651,171.056h8.8a.427.427,0,1,0,0-.853h-8.8a.427.427,0,1,0,0,.853Z" transform="translate(-60.224 -170.203)" fill="#1e1e77"/>
                  <path id="Trazado_159544" data-name="Trazado 159544" d="M60.651,176.483h4.4a.427.427,0,1,0,0-.853h-4.4a.427.427,0,1,0,0,.853Z" transform="translate(-60.224 -173.444)" fill="#1e1e77"/>
                </g>
              </g>
            </g>
            <g id="Grupo_114035" data-name="Grupo 114035" transform="translate(66.225 0.648)">
              <g id="Grupo_114026" data-name="Grupo 114026" transform="translate(15.736 7.76)">
                <g id="Grupo_114025" data-name="Grupo 114025">
                  <path id="Trazado_159545" data-name="Trazado 159545" d="M279.315,72S270.8,64.935,268.3,62.815s-3.155-1.71-5.086.026c-2.282,2.052-10.978,9.169-10.978,9.169v.184l27.076-.006Z" transform="translate(-252.24 -61.377)" fill="#a4a4e4"/>
                  <path id="Trazado_159546" data-name="Trazado 159546" d="M252.24,87.771v2.489l13.539,11.557,13.536-11.563V87.764Z" transform="translate(-252.24 -77.137)" fill="#a4a4e4"/>
                  <g id="Grupo_114022" data-name="Grupo 114022" transform="translate(3.196 4.934)">
                    <rect id="Rectángulo_36795" data-name="Rectángulo 36795" width="20.75" height="19.026" fill="#fff"/>
                  </g>
                  <g id="Grupo_114023" data-name="Grupo 114023" transform="translate(4.191 7.197)">
                    <path id="Trazado_159547" data-name="Trazado 159547" d="M280.587,80H263.021a.375.375,0,1,1,0-.749h17.567a.375.375,0,1,1,0,.749Z" transform="translate(-262.646 -79.247)" fill="#d967a2"/>
                    <path id="Trazado_159548" data-name="Trazado 159548" d="M280.587,86.165H263.021a.375.375,0,1,1,0-.749h17.567a.375.375,0,1,1,0,.749Z" transform="translate(-262.646 -82.931)" fill="#d967a2"/>
                    <path id="Trazado_159549" data-name="Trazado 159549" d="M280.587,92.335H263.021a.375.375,0,1,1,0-.749h17.567a.375.375,0,1,1,0,.749Z" transform="translate(-262.646 -86.616)" fill="#d967a2"/>
                    <path id="Trazado_159550" data-name="Trazado 159550" d="M274.532,98.5H263.021a.375.375,0,1,1,0-.749h11.511a.375.375,0,1,1,0,.749Z" transform="translate(-262.646 -90.301)" fill="#d967a2"/>
                  </g>
                  <g id="Grupo_114024" data-name="Grupo 114024" transform="translate(0 10.628)">
                    <path id="Trazado_159551" data-name="Trazado 159551" d="M279.319,106.127l-27.075.006,0-18.362,13.54,10.063,13.535-10.069Z" transform="translate(-252.24 -87.764)" fill="#bcbcea"/>
                    <path id="Trazado_159552" data-name="Trazado 159552" d="M279.325,117.59l-27.076,0v-2.336s8.7-5.39,10.979-7.442c1.93-1.736,2.7-2.036,5.2.085s10.9,7.351,10.9,7.351Z" transform="translate(-252.245 -98.902)" fill="#a4a4e4"/>
                  </g>
                </g>
              </g>
              <g id="Grupo_114030" data-name="Grupo 114030" transform="translate(39.164 2.359)">
                <rect id="Rectángulo_36796" data-name="Rectángulo 36796" width="19.327" height="22.23" rx="3" transform="translate(0 1.049)" fill="#2f2fa7"/>
                <rect id="Rectángulo_36797" data-name="Rectángulo 36797" width="15.585" height="14.32" rx="7.16" transform="translate(1.938 6.923)" fill="#fff"/>
                <g id="Grupo_114027" data-name="Grupo 114027" transform="translate(4.321 9.249)">
                  <path id="Trazado_159553" data-name="Trazado 159553" d="M322.111,71.569a3.211,3.211,0,0,1,2.06-.64,3.353,3.353,0,0,1,1.488.307,2.2,2.2,0,0,1,.947.837,2.257,2.257,0,0,1,.32,1.193,2.111,2.111,0,0,1-.406,1.3,1.973,1.973,0,0,1-.972.725v.05a2.065,2.065,0,0,1,1.132.805,2.564,2.564,0,0,1,.406,1.494,2.5,2.5,0,0,1-.332,1.291,2.292,2.292,0,0,1-.984.892,3.456,3.456,0,0,1-1.562.326,3.392,3.392,0,0,1-2.183-.682,2.417,2.417,0,0,1-.881-1.6.32.32,0,0,1,.318-.363h.725a.321.321,0,0,1,.312.256,1.493,1.493,0,0,0,.468.808,1.761,1.761,0,0,0,1.23.412,1.549,1.549,0,0,0,1.156-.412,1.45,1.45,0,0,0,.406-1.064,1.359,1.359,0,0,0-.547-1.224,3.084,3.084,0,0,0-1.679-.363h0a.32.32,0,0,1-.32-.32v-.517a.32.32,0,0,1,.32-.32h.012a3.008,3.008,0,0,0,1.519-.332,1.1,1.1,0,0,0,.523-1.008,1.216,1.216,0,0,0-.381-.941,1.541,1.541,0,0,0-1.082-.351,1.522,1.522,0,0,0-1.07.351,1.406,1.406,0,0,0-.4.636.321.321,0,0,1-.306.232h-.749a.323.323,0,0,1-.313-.388A2.266,2.266,0,0,1,322.111,71.569Z" transform="translate(-321.14 -70.929)" fill="#1e1e77"/>
                  <path id="Trazado_159554" data-name="Trazado 159554" d="M339.109,72.407v-.64a.32.32,0,0,1,.32-.32h1.918a.32.32,0,0,1,.32.32v8.326a.32.32,0,0,1-.32.32h-.774a.32.32,0,0,1-.32-.32V73.047a.32.32,0,0,0-.32-.32h-.5A.32.32,0,0,1,339.109,72.407Z" transform="translate(-331.872 -71.239)" fill="#1e1e77"/>
                </g>
                <g id="Grupo_114028" data-name="Grupo 114028" transform="translate(2.929)">
                  <path id="Trazado_159555" data-name="Trazado 159555" d="M320.453,54.32a1.384,1.384,0,1,1-1.384-1.384,1.384,1.384,0,0,1,1.384,1.384" transform="translate(-317.684 -50.934)" fill="#b04470"/>
                  <path id="Trazado_159556" data-name="Trazado 159556" d="M320.089,51.96h0a.691.691,0,0,1-.689-.689V48.653a.689.689,0,0,1,1.377,0v2.618a.691.691,0,0,1-.689.689" transform="translate(-318.709 -47.964)" fill="#fff"/>
                </g>
                <g id="Grupo_114029" data-name="Grupo 114029" transform="translate(13.929)">
                  <path id="Trazado_159557" data-name="Trazado 159557" d="M347.763,54.32a1.384,1.384,0,1,1-1.384-1.384,1.384,1.384,0,0,1,1.384,1.384" transform="translate(-344.995 -50.934)" fill="#b04470"/>
                  <path id="Trazado_159558" data-name="Trazado 159558" d="M347.4,51.96h0a.691.691,0,0,1-.689-.689V48.653a.689.689,0,0,1,1.377,0v2.618a.691.691,0,0,1-.689.689" transform="translate(-346.02 -47.964)" fill="#fff"/>
                </g>
              </g>
              <g id="Grupo_114032" data-name="Grupo 114032">
                <rect id="Rectángulo_36798" data-name="Rectángulo 36798" width="18.123" height="7.683" rx="1" fill="#2f2fa7"/>
                <path id="Rectángulo_36799" data-name="Rectángulo 36799" d="M1.3,0H15.115a1.3,1.3,0,0,1,1.3,1.3V4.674a1.3,1.3,0,0,1-1.3,1.3H1.3A1.3,1.3,0,0,1,0,4.675V1.3A1.3,1.3,0,0,1,1.3,0Z" transform="translate(0.853 0.854)" fill="#a4a4e4"/>
                <g id="Grupo_114031" data-name="Grupo 114031" transform="translate(4.626 2.285)">
                  <path id="Trazado_159559" data-name="Trazado 159559" d="M225.082,48.635h8.8a.427.427,0,0,0,0-.853h-8.8a.427.427,0,1,0,0,.853Z" transform="translate(-224.655 -47.782)" fill="#2f2fa7"/>
                  <path id="Trazado_159560" data-name="Trazado 159560" d="M225.082,54.062h4.4a.427.427,0,0,0,0-.853h-4.4a.427.427,0,1,0,0,.853Z" transform="translate(-224.655 -51.023)" fill="#2f2fa7"/>
                </g>
              </g>
              <g id="Grupo_114034" data-name="Grupo 114034" transform="translate(10.532 36.801)">
                <path id="Rectángulo_36800" data-name="Rectángulo 36800" d="M1.789,0H9.931a1.788,1.788,0,0,1,1.788,1.788v0A1.789,1.789,0,0,1,9.93,3.578H1.789A1.789,1.789,0,0,1,0,1.789v0A1.789,1.789,0,0,1,1.789,0Z" fill="#1e1e77"/>
                <g id="Grupo_114033" data-name="Grupo 114033" transform="translate(2.326 1.127)">
                  <path id="Trazado_159561" data-name="Trazado 159561" d="M246.437,136.95a.671.671,0,1,1-.671-.671A.671.671,0,0,1,246.437,136.95Z" transform="translate(-245.095 -136.279)" fill="#fff"/>
                  <path id="Trazado_159562" data-name="Trazado 159562" d="M253.543,136.95a.671.671,0,1,1-.671-.671A.671.671,0,0,1,253.543,136.95Z" transform="translate(-249.339 -136.279)" fill="#fff"/>
                  <path id="Trazado_159563" data-name="Trazado 159563" d="M260.651,136.95a.671.671,0,1,1-.671-.671A.671.671,0,0,1,260.651,136.95Z" transform="translate(-253.584 -136.279)" fill="#fff"/>
                </g>
              </g>
            </g>
            <g id="Grupo_114043" data-name="Grupo 114043" transform="translate(117.653 16.508)">
              <g id="Grupo_114036" data-name="Grupo 114036" transform="translate(24.202 18.391)">
                <path id="Trazado_159564" data-name="Trazado 159564" d="M400.953,153.215a1.792,1.792,0,0,0,1.792,1.793h0a1.792,1.792,0,0,0,1.793-1.793V128.944a1.793,1.793,0,0,0-1.793-1.793h0a1.792,1.792,0,0,0-1.792,1.793Z" transform="translate(-400.953 -127.151)" fill="#fff" fill-rule="evenodd"/>
                <path id="Trazado_159565" data-name="Trazado 159565" d="M402.745,151.815a1.793,1.793,0,0,1,1.793,1.793v14.338a1.792,1.792,0,1,1-3.585,0V153.608A1.792,1.792,0,0,1,402.745,151.815Z" transform="translate(-400.953 -141.882)" fill="#d967a2" fill-rule="evenodd"/>
              </g>
              <g id="Grupo_114037" data-name="Grupo 114037" transform="translate(17.938 18.391)">
                <path id="Trazado_159566" data-name="Trazado 159566" d="M385.4,153.215a1.792,1.792,0,0,0,1.792,1.793h0a1.792,1.792,0,0,0,1.792-1.793V128.944a1.792,1.792,0,0,0-1.792-1.793h0a1.792,1.792,0,0,0-1.792,1.793Z" transform="translate(-385.401 -127.151)" fill="#fff" fill-rule="evenodd"/>
                <path id="Trazado_159567" data-name="Trazado 159567" d="M387.193,140.111a1.792,1.792,0,0,1,1.792,1.792v19.052a1.792,1.792,0,1,1-3.584,0V141.9A1.792,1.792,0,0,1,387.193,140.111Z" transform="translate(-385.401 -134.891)" fill="#d967a2" fill-rule="evenodd"/>
              </g>
              <g id="Grupo_114038" data-name="Grupo 114038" transform="translate(11.896 18.391)">
                <path id="Trazado_159568" data-name="Trazado 159568" d="M370.4,153.215a1.792,1.792,0,0,0,1.793,1.793h0a1.792,1.792,0,0,0,1.792-1.793V128.944a1.792,1.792,0,0,0-1.792-1.793h0a1.793,1.793,0,0,0-1.793,1.793Z" transform="translate(-370.398 -127.151)" fill="#fff" fill-rule="evenodd"/>
                <path id="Trazado_159569" data-name="Trazado 159569" d="M372.191,148.535a1.792,1.792,0,0,1,1.792,1.792v15.659a1.792,1.792,0,1,1-3.585,0V150.327A1.793,1.793,0,0,1,372.191,148.535Z" transform="translate(-370.398 -139.923)" fill="#d967a2" fill-rule="evenodd"/>
              </g>
              <g id="Grupo_114039" data-name="Grupo 114039" transform="translate(5.948 18.391)">
                <path id="Trazado_159570" data-name="Trazado 159570" d="M355.63,153.215a1.792,1.792,0,0,0,1.793,1.793h0a1.792,1.792,0,0,0,1.792-1.793V128.944a1.793,1.793,0,0,0-1.792-1.793h0a1.793,1.793,0,0,0-1.793,1.793Z" transform="translate(-355.63 -127.151)" fill="#fff" fill-rule="evenodd"/>
                <path id="Trazado_159571" data-name="Trazado 159571" d="M357.423,132.276a1.793,1.793,0,0,1,1.792,1.792v22.208a1.792,1.792,0,1,1-3.585,0V134.068A1.793,1.793,0,0,1,357.423,132.276Z" transform="translate(-355.63 -130.212)" fill="#d967a2" fill-rule="evenodd"/>
              </g>
              <g id="Grupo_114040" data-name="Grupo 114040" transform="translate(0 18.391)">
                <path id="Trazado_159572" data-name="Trazado 159572" d="M340.862,153.215a1.792,1.792,0,0,0,1.793,1.793h0a1.792,1.792,0,0,0,1.792-1.793V128.944a1.792,1.792,0,0,0-1.792-1.793h0a1.793,1.793,0,0,0-1.793,1.793Z" transform="translate(-340.862 -127.151)" fill="#fff" fill-rule="evenodd"/>
                <path id="Trazado_159573" data-name="Trazado 159573" d="M342.655,145.865a1.792,1.792,0,0,1,1.792,1.792v16.735a1.792,1.792,0,1,1-3.585,0V147.657A1.792,1.792,0,0,1,342.655,145.865Z" transform="translate(-340.862 -138.328)" fill="#d967a2" fill-rule="evenodd"/>
              </g>
              <path id="Trazado_159574" data-name="Trazado 159574" d="M392.915,81.487H381.237a1.938,1.938,0,0,0-1.938,1.938v13.08l4.82-4.352h8.8a1.938,1.938,0,0,0,1.938-1.938V83.425A1.938,1.938,0,0,0,392.915,81.487Z" transform="translate(-363.819 -81.487)" fill="#1e1e77"/>
              <g id="Grupo_114041" data-name="Grupo 114041" transform="translate(17.594 2.056)">
                <path id="Trazado_159575" data-name="Trazado 159575" d="M384.952,93.066a.4.4,0,0,1-.251-.722l3.135-2.478a.405.405,0,0,1,.512.009l1.909,1.617,4.566-4.773a.4.4,0,0,1,.585.559l-4.829,5.048a.4.4,0,0,1-.554.029l-1.947-1.649L385.2,92.979A.4.4,0,0,1,384.952,93.066Z" transform="translate(-384.548 -86.593)" fill="#fff"/>
                <path id="Trazado_159576" data-name="Trazado 159576" d="M404.071,87.6" transform="translate(-396.208 -87.193)" fill="#8080c9"/>
                <path id="Trazado_159577" data-name="Trazado 159577" d="M405.127,90.815a.4.4,0,0,1-.4-.4V87.4h-3.009a.4.4,0,0,1,0-.809h3.413a.4.4,0,0,1,.4.4v3.413A.4.4,0,0,1,405.127,90.815Z" transform="translate(-394.558 -86.593)" fill="#fff"/>
              </g>
              <path id="Rectángulo_36801" data-name="Rectángulo 36801" d="M1.789,0H9.93a1.789,1.789,0,0,1,1.789,1.789v0A1.789,1.789,0,0,1,9.93,3.578H1.789A1.789,1.789,0,0,1,0,1.789v0A1.789,1.789,0,0,1,1.789,0Z" transform="translate(35.162 49.357)" fill="#1e1e77"/>
              <g id="Grupo_114042" data-name="Grupo 114042" transform="translate(37.488 50.484)">
                <path id="Trazado_159578" data-name="Trazado 159578" d="M435.285,207.506a.671.671,0,1,1-.671-.671A.671.671,0,0,1,435.285,207.506Z" transform="translate(-433.943 -206.835)" fill="#fff"/>
                <path id="Trazado_159579" data-name="Trazado 159579" d="M442.391,207.506a.671.671,0,1,1-.671-.671A.671.671,0,0,1,442.391,207.506Z" transform="translate(-438.187 -206.835)" fill="#fff"/>
                <path id="Trazado_159580" data-name="Trazado 159580" d="M449.5,207.506a.671.671,0,1,1-.671-.671A.671.671,0,0,1,449.5,207.506Z" transform="translate(-442.432 -206.835)" fill="#fff"/>
              </g>
            </g>
          </g>
          <g id="Grupo_114155" data-name="Grupo 114155" transform="translate(3.404 14.648)">
            <g id="Grupo_114082" data-name="Grupo 114082" transform="translate(8.948)">
              <g id="Grupo_114063" data-name="Grupo 114063" transform="translate(4.648)">
                <g id="Grupo_114048" data-name="Grupo 114048" transform="translate(44.77 28.404)">
                  <g id="Grupo_114047" data-name="Grupo 114047" transform="translate(0 0.332)">
                    <g id="Grupo_114046" data-name="Grupo 114046" transform="translate(5.153 22.486)">
                      <path id="Trazado_159581" data-name="Trazado 159581" d="M237.355,239.205c-.676-.278-1.123-1.209-1.816-1.58a24.528,24.528,0,0,0-4.078-.831c-.515-.093-1.05-.164-1.593-.229-.786-4.243-1.733-8.328-2.507-12.459-.263-1.4-.509-2.745-.855-4.065-.331-1.265-.826-2.492-1.251-3.744-.874-2.576-2.093-9.44-2.8-12.2,0-.026,0-.051-.039-.045l-7.514,1.615c.229,1.437,1.329,6.147,1.6,7.68a36.259,36.259,0,0,1,.3,4.92,33.081,33.081,0,0,0,1.621,9.068,62.485,62.485,0,0,0,6.032,12.929,10.58,10.58,0,0,0,.89,1.474h0c.289.887,9.52.142,10.63.517.654.221,2.986,1.352,2.949-.282.213.118.631.081.671-.159C239.83,241.235,238.35,239.614,237.355,239.205Z" transform="translate(-214.902 -204.048)" fill="#e2b1ce" fill-rule="evenodd"/>
                      <g id="Grupo_114045" data-name="Grupo 114045" transform="translate(6.337 12.567)">
                        <path id="Trazado_159582" data-name="Trazado 159582" d="M230.637,236.679l3.835-1.067A2.83,2.83,0,0,0,230.637,236.679Z" transform="translate(-230.637 -235.252)" fill="#875633" fill-rule="evenodd"/>
                        <path id="Trazado_159583" data-name="Trazado 159583" d="M267.178,294.062c.138.21.257.495.077.7-.418.48-1.123-.307-1.737-.678a11.31,11.31,0,0,0-1.247-.639,19.919,19.919,0,0,0-2.99-.824,9.192,9.192,0,0,1,4.422,1.074c.37.2,1.478.545,1.474.367" transform="translate(-248.94 -269.506)" fill="#bb78a2" fill-rule="evenodd"/>
                        <path id="Trazado_159584" data-name="Trazado 159584" d="M260.677,288.572a10.612,10.612,0,0,1,3.129.375,5.6,5.6,0,0,0,1.125.855,20.165,20.165,0,0,0-4.253-1.23" transform="translate(-248.578 -267.097)" fill="#bb78a2" fill-rule="evenodd"/>
                      </g>
                    </g>
                    <path id="Trazado_159585" data-name="Trazado 159585" d="M222.023,202.146c-3.907,1.187-4.8,1.669-9.17,2.23-1.447-4.156-11.037-41.222-10.74-45.653a22.384,22.384,0,0,1,1.147-5.959c.623-1.732,1.684-3.8,3.6-4.342a2.481,2.481,0,0,1,1.707-.087,7.381,7.381,0,0,1,3.5,3.922,43.681,43.681,0,0,1,1.757,5.681C214.881,162.05,221.22,198.036,222.023,202.146Z" transform="translate(-202.106 -148.218)" fill="#bcbcea" fill-rule="evenodd"/>
                  </g>
                  <path id="Trazado_159586" data-name="Trazado 159586" d="M211.009,147.393a5.3,5.3,0,0,1,.852,2.443,7.721,7.721,0,0,1-.864,3.808,22.054,22.054,0,0,1-1.639,3.038,48.627,48.627,0,0,1-3.623,4.583C216.994,153.95,211.18,147.413,211.009,147.393Z" transform="translate(-204.274 -147.393)" fill="#a4a4e4"/>
                </g>
                <g id="Grupo_114050" data-name="Grupo 114050" transform="translate(0 21.664)">
                  <g id="Grupo_114049" data-name="Grupo 114049">
                    <path id="Trazado_159587" data-name="Trazado 159587" d="M121.455,130.665a24.149,24.149,0,0,1,5.132.635c2.471.523,4.893,1.232,7.306,1.972a44.089,44.089,0,0,1,4.582,1.59,20.847,20.847,0,0,1,2.846,1.461,4.013,4.013,0,0,1,1.986,3.6,10.165,10.165,0,0,1-1.356,5.34,27.408,27.408,0,0,1-2.762,3.983,17.934,17.934,0,0,1-3.648,3.253,95,95,0,0,0-8.1,6.179,66.345,66.345,0,0,0-6.328,6.012c-.557.609-1.136,1.2-1.691,1.807a1,1,0,0,1-.756.354c-1.939.079-3.879.126-5.818.2-2.926.107-5.853.141-8.78.2-2.265.048-4.53.007-6.793.081-1.81.059-3.622.085-5.426.254a4.286,4.286,0,0,1-.533.021c-.32-.01-.417-.107-.348-.426.1-.473.238-.941.381-1.4a45.565,45.565,0,0,1,1.776-4.825,28.192,28.192,0,0,1,1.924-3.535,83.242,83.242,0,0,1,7.084-9.6c1.687-2.007,3.27-4.1,4.914-6.137,1.28-1.588,2.636-3.108,4-4.62.869-.96,1.752-1.907,2.692-2.8a17.518,17.518,0,0,1,3.035-2.332A8.5,8.5,0,0,1,121.455,130.665Z" transform="translate(-90.946 -130.659)" fill="#cecef4"/>
                  </g>
                  <path id="Trazado_159588" data-name="Trazado 159588" d="M117.041,133.447q-.132.074-.264.152a17.518,17.518,0,0,0-3.035,2.332c-.94.89-1.823,1.837-2.692,2.8-1.367,1.511-2.724,3.031-4,4.62-1.644,2.041-3.227,4.131-4.914,6.137a83.243,83.243,0,0,0-7.084,9.6,28.246,28.246,0,0,0-1.924,3.535,45.564,45.564,0,0,0-1.776,4.825c-.144.463-.277.931-.381,1.4-.07.319.028.416.348.426a4.289,4.289,0,0,0,.533-.021c1.339-.125,2.682-.172,4.025-.211a23.893,23.893,0,0,1,1.262-4.383,40.061,40.061,0,0,1,4.645-8.274c1.7-2.424,3.444-4.816,5.154-7.233a99.21,99.21,0,0,1,7.022-9.1,32.549,32.549,0,0,1,4.709-4.395,27.554,27.554,0,0,1,3.141-2Q119.423,133.593,117.041,133.447Z" transform="translate(-90.946 -132.324)" fill="#a4a4e4"/>
                </g>
                <g id="Grupo_114062" data-name="Grupo 114062" transform="translate(35.447)">
                  <g id="Grupo_114060" data-name="Grupo 114060" transform="translate(1.549)">
                    <path id="Trazado_159589" data-name="Trazado 159589" d="M188.591,90.414a7.945,7.945,0,0,1,4.448-3.23,7.365,7.365,0,0,1,6.888.7c5.456,3.527,3.066,7.492.991,11.314-1.923,3.541-3.031,5.58-5.729,6.153a15.926,15.926,0,0,1-1.753.213s-1.285,2.531-2.538,4.973c-1.109,2.162-9.11-2.366-7.989-4.357,1.975-3.509,4.489-7.783,4.565-8.122C187.579,97.592,186.417,94.2,188.591,90.414Z" transform="translate(-182.803 -82.706)" fill="#e2b1ce" fill-rule="evenodd"/>
                    <g id="Grupo_114053" data-name="Grupo 114053" transform="translate(3.066 8.421)">
                      <path id="Trazado_159590" data-name="Trazado 159590" d="M202.141,127.3a6.184,6.184,0,0,1-4.657-4.269,5.3,5.3,0,0,0,3.664,6.229Z" transform="translate(-194.573 -112.857)" fill="#bb78a2"/>
                      <g id="Grupo_114052" data-name="Grupo 114052">
                        <path id="Trazado_159591" data-name="Trazado 159591" d="M190.778,98.82c-.528.988-.6,3.846.587,4.293.89.337,2.338-1.533,2.867-2.52s.851-1.8.851-1.8c-.894-.2-2.093-.941-2.534-1A1.559,1.559,0,0,0,190.778,98.82Z" transform="translate(-190.415 -97.777)" fill="#e2b1ce" fill-rule="evenodd"/>
                        <g id="Grupo_114051" data-name="Grupo 114051" transform="translate(0.833 0.948)">
                          <path id="Trazado_159592" data-name="Trazado 159592" d="M195.821,103.329a.472.472,0,0,0,.063.025.276.276,0,0,0,.332-.2,3.025,3.025,0,0,0-.652-2.94.274.274,0,0,0-.394.379,2.492,2.492,0,0,1,.515,2.429A.276.276,0,0,0,195.821,103.329Z" transform="translate(-194.043 -100.132)" fill="#bb78a2"/>
                          <path id="Trazado_159593" data-name="Trazado 159593" d="M192.629,104.189a.273.273,0,0,0,.351-.084,1.538,1.538,0,0,1,1.414-.59.275.275,0,0,0,.287-.259.269.269,0,0,0-.258-.286,2.066,2.066,0,0,0-1.89.822.272.272,0,0,0,.066.381Z" transform="translate(-192.483 -101.824)" fill="#bb78a2"/>
                        </g>
                      </g>
                    </g>
                    <g id="Grupo_114058" data-name="Grupo 114058" transform="translate(10.991 10.086)">
                      <g id="Grupo_114054" data-name="Grupo 114054" transform="translate(1.388 2.712)">
                        <path id="Trazado_159594" data-name="Trazado 159594" d="M213.688,113.4c.012.007.028.012.042.019a1.335,1.335,0,0,0,1.057-.043c.593-.322.828-1.146,1.126-2.187a14.4,14.4,0,0,1,.747-2.157.274.274,0,0,0-.5-.228,15.274,15.274,0,0,0-.775,2.235c-.25.882-.468,1.645-.858,1.857a.824.824,0,0,1-.634,0,.272.272,0,0,0-.208.5" transform="translate(-213.54 -108.644)" fill="#bb78a2"/>
                      </g>
                      <g id="Grupo_114056" data-name="Grupo 114056" transform="translate(5.197 1.885)">
                        <g id="Grupo_114055" data-name="Grupo 114055" transform="translate(0 3.118)">
                          <path id="Trazado_159595" data-name="Trazado 159595" d="M224.091,115.318a.581.581,0,1,1-.973-.533c.2-.367.583-.547.849-.4a.68.68,0,0,1,.124.934" transform="translate(-222.999 -114.334)" fill="#1e1e77" fill-rule="evenodd"/>
                        </g>
                        <path id="Trazado_159596" data-name="Trazado 159596" d="M224.745,106.615c-.182.15.653.964,1.243,1.662s.924,1.314,1.1,1.162-.056-.957-.642-1.656S224.927,106.461,224.745,106.615Z" transform="translate(-224.027 -106.591)" fill="#5d382e" fill-rule="evenodd"/>
                      </g>
                      <g id="Grupo_114057" data-name="Grupo 114057">
                        <path id="Trazado_159597" data-name="Trazado 159597" d="M214.253,102.892c-.043.233-1.162-.1-2.057-.267s-2.143-.18-2.1-.41,1.406-.4,2.3-.236C213.926,102.268,214.3,102.624,214.253,102.892Z" transform="translate(-210.094 -101.911)" fill="#5d382e" fill-rule="evenodd"/>
                        <path id="Trazado_159598" data-name="Trazado 159598" d="M212.445,108.715a.687.687,0,0,1-.859.406.7.7,0,0,1-.125-.946.589.589,0,1,1,.984.539" transform="translate(-210.839 -105.382)" fill="#1e1e77" fill-rule="evenodd"/>
                      </g>
                    </g>
                    <path id="Trazado_159599" data-name="Trazado 159599" d="M202.558,78.291a3.039,3.039,0,0,0-3.282-1.169,6.224,6.224,0,0,0-3.6,3.325c-.823,1.755-.54,3.33-.461,4.879a7.962,7.962,0,0,1-.214,2.414c-.118.488-.816,2.133.021,2.346.582.148,1.34-1.753,1.561-2.2.925-1.858,2.255-4.5,3.549-5.033.941-.387,2.185.074,3.323.857a10.829,10.829,0,0,1,2.108,2.313c1.063,1.324,2.228,3.163,4.307,3.3a24.216,24.216,0,0,1-1.746,3.723c-.264.561-1.687,3.034-1.687,3.034,1.2.248,2.4-1.621,2.839-2.024a12.514,12.514,0,0,1,1.275-1.088,11.944,11.944,0,0,0,2.669-1.909c1.074-1.253,1.223-3.126.6-3.934a2.984,2.984,0,0,0-1.835-.892c2.468-2.748,1.358-6.326-1.265-8.112C207.691,76.057,204.784,76.853,202.558,78.291Z" transform="translate(-189.861 -76.869)" fill="#5d382e" fill-rule="evenodd"/>
                    <g id="Grupo_114059" data-name="Grupo 114059" transform="translate(4.208 7.777)">
                      <path id="Trazado_159600" data-name="Trazado 159600" d="M193.252,96.972a1.687,1.687,0,0,1,1.2-.081c1.068.521,2.771,1.355,4.659,2.317-.437.7-1.214,2.178-.687,3.054a2.456,2.456,0,0,0,.915.75,4.924,4.924,0,0,0,1.915.663c1.056-.033,1.894-1.044,2.525-2,.245.136.487.271.724.4-.485,1.037-.907,2.282-.382,3.2a4.919,4.919,0,0,0,1.568,1.286,2.458,2.458,0,0,0,1.118.387c1.078-.01,1.968-1.615,2.3-2.3a.31.31,0,0,0-.072-.361l-.04-.033h0l-.021-.017a17.468,17.468,0,0,0-2.878-1.971c-.351-.2-.712-.385-1.073-.563a.286.286,0,0,0-.135-.029c-.316-.178-.638-.356-.967-.536a.284.284,0,0,0-.1-.106c-.339-.213-.69-.423-1.042-.619a19.564,19.564,0,0,0-2.321-1.115c-2.492-1.293-4.845-2.456-6.1-3.077C193.611,95.967,193.252,96.972,193.252,96.972Zm11.783,5.415.119.064c1.116.643,2.115,1.259,2.884,1.8.146.113.29.227.42.339-.551,1.067-1.188,1.748-1.656,1.752a1.851,1.851,0,0,1-.814-.309,4.6,4.6,0,0,1-1.336-1.056C204.27,104.308,204.621,103.277,205.035,102.388Zm-5.462-2.766a13.566,13.566,0,0,1,1.468.584c.7.366,1.4.739,2.088,1.114.037.023.076.043.112.065-.542.818-1.236,1.657-2,1.682a4.592,4.592,0,0,1-1.6-.586,1.851,1.851,0,0,1-.69-.532C198.706,101.548,198.952,100.648,199.574,99.621Z" transform="translate(-193.252 -96.179)" fill="#b04470"/>
                    </g>
                    <path id="Trazado_159601" data-name="Trazado 159601" d="M208.725,121.481h0a.255.255,0,0,0-.25-.26h0a1.676,1.676,0,0,1-1.157-.5,1.145,1.145,0,0,1-.1-1.018.255.255,0,1,0-.492-.137,1.623,1.623,0,0,0,.178,1.462,2.172,2.172,0,0,0,1.555.7A.256.256,0,0,0,208.725,121.481Z" transform="translate(-197.04 -102.258)" fill="#bb78a2"/>
                  </g>
                  <g id="Grupo_114061" data-name="Grupo 114061" transform="translate(0 21.559)">
                    <path id="Trazado_159602" data-name="Trazado 159602" d="M194.993,140.989c-1.284.624-.226,4.95.408,5.189.414.157,3.025-1.762,4.057-2.463.433-.3,1.013-.679,1.132-1.255a4.772,4.772,0,0,0-.734-2.166c-.241-.47-.873-.284-1.45-.174C198.031,140.192,195.582,140.758,194.993,140.989Z" transform="translate(-188.173 -136.126)" fill="#fff" fill-rule="evenodd"/>
                    <path id="Trazado_159603" data-name="Trazado 159603" d="M185.462,135.176c.6,1.239-2.656,4.135-3.266,3.967-.4-.11-2.63-4.531-3-5.687a2.4,2.4,0,0,1-.13-1.661c.235-.527,1.333-1.09,1.785-1.334s.813.267,1.18.686C182.27,131.419,185.151,134.653,185.462,135.176Z" transform="translate(-178.958 -130.397)" fill="#fff" fill-rule="evenodd"/>
                    <path id="Trazado_159604" data-name="Trazado 159604" d="M183.931,157.578a21.272,21.272,0,0,1-.938-4.544c.149-.593,3.819-6.7,3.83-6.939.013-.31-.415-.59-.407-.868a4.909,4.909,0,0,1,1.385-1.657.331.331,0,0,1,.136.008h0a.106.106,0,0,1,.015,0l.016,0v0a.338.338,0,0,1,.121.06,4.908,4.908,0,0,1,.365,2.129c-.132.244-.643.271-.787.547-.111.212,0,7.336-.173,7.924A21.268,21.268,0,0,1,184.4,157.7.357.357,0,0,1,183.931,157.578Z" transform="translate(-181.362 -138.262)" fill="#1e1e77"/>
                  </g>
                </g>
              </g>
              <g id="Grupo_114078" data-name="Grupo 114078" transform="translate(4.047 54.888)">
                <g id="Grupo_114075" data-name="Grupo 114075" transform="translate(0 2.201)">
                  <g id="Grupo_114067" data-name="Grupo 114067" transform="translate(15.61 80.677)">
                    <g id="Grupo_114064" data-name="Grupo 114064" transform="translate(1.102)">
                      <path id="Trazado_159605" data-name="Trazado 159605" d="M132.839,418.932,140.275,420,139,428.844l-8.047-1.626Z" transform="translate(-130.949 -418.932)" fill="#e2b1ce" fill-rule="evenodd"/>
                      <path id="Trazado_159606" data-name="Trazado 159606" d="M141.594,427.478c-3.929,1.992-7.65-1.1-7.65-1.1Z" transform="translate(-132.738 -423.377)" fill="#bb78a2" fill-rule="evenodd"/>
                    </g>
                    <g id="Grupo_114066" data-name="Grupo 114066" transform="translate(0 4.545)">
                      <path id="Trazado_159607" data-name="Trazado 159607" d="M138.365,431.17c-.338-.046-1.513-.312-2.037.03-.545.354-.574,1.109-.8,2.035-2.212-.556-2.356-2.88-5.427-3.018a47.064,47.064,0,0,0-1.892,7.467c5.951,1.33,12.176,2.479,18.235,3.74a5.678,5.678,0,0,0-.207-1.688,5.581,5.581,0,0,0-2.844-3.046c-1.741-.994-3.814-2-4.559-3.774A11.8,11.8,0,0,1,138.365,431.17Z" transform="translate(-128.213 -430.217)" fill="#bcbcea" fill-rule="evenodd"/>
                      <g id="Grupo_114065" data-name="Grupo 114065" transform="translate(8.443 2.711)">
                        <path id="Trazado_159608" data-name="Trazado 159608" d="M149.188,437.675c.083.377.987.131,1.629.159.377.015,1.244.224,1.377-.1.241-.574-1.075-.812-1.657-.784C149.973,436.981,149.064,437.123,149.188,437.675Z" transform="translate(-149.176 -436.949)" fill="#282894" fill-rule="evenodd"/>
                        <path id="Trazado_159609" data-name="Trazado 159609" d="M150.669,441.406c.226.483,1.194.163,1.836.152.337-.006.708.022,1.033.043s.861.169.9-.092c.078-.562-.824-.79-1.476-.846C152.134,440.588,150.333,440.688,150.669,441.406Z" transform="translate(-150.043 -439.155)" fill="#282894" fill-rule="evenodd"/>
                      </g>
                      <path id="Trazado_159610" data-name="Trazado 159610" d="M156.706,444.121c.512.3,1.037.59,1.533.873a5.581,5.581,0,0,1,2.844,3.046,5.678,5.678,0,0,1,.207,1.688c-2.721-.566-5.476-1.109-8.226-1.659A5.383,5.383,0,0,1,156.706,444.121Z" transform="translate(-143.056 -438.521)" fill="#282894"/>
                      <path id="Trazado_159611" data-name="Trazado 159611" d="M131.882,442.268c-1.231-.259-2.458-.52-3.669-.791.325-1.688.667-3.355,1.083-4.909A6.186,6.186,0,0,1,131.882,442.268Z" transform="translate(-128.213 -434.01)" fill="#282894"/>
                    </g>
                  </g>
                  <g id="Grupo_114071" data-name="Grupo 114071" transform="translate(4.403 83.595)">
                    <g id="Grupo_114068" data-name="Grupo 114068" transform="translate(0.35)">
                      <path id="Trazado_159612" data-name="Trazado 159612" d="M101.474,426.592l7.5-.417.492,8.917-8.21,0Z" transform="translate(-101.258 -426.175)" fill="#e2b1ce" fill-rule="evenodd"/>
                      <path id="Trazado_159613" data-name="Trazado 159613" d="M109.318,433.776c-3.458,2.729-7.718.429-7.718.429Z" transform="translate(-101.462 -430.715)" fill="#bb78a2" fill-rule="evenodd"/>
                    </g>
                    <g id="Grupo_114070" data-name="Grupo 114070" transform="translate(0 4.393)">
                      <path id="Trazado_159614" data-name="Trazado 159614" d="M109.061,437.082c-.34.021-1.544-.007-1.99.431-.464.455-.344,1.2-.379,2.152-2.278-.108-2.878-2.358-5.917-1.887a47.1,47.1,0,0,0-.379,7.693c6.1.129,12.426.026,18.614.064a5.661,5.661,0,0,0-.536-1.613,5.58,5.58,0,0,0-3.39-2.424c-1.9-.631-4.135-1.211-5.214-2.8A11.856,11.856,0,0,1,109.061,437.082Z" transform="translate(-100.389 -437.082)" fill="#cecef4" fill-rule="evenodd"/>
                      <g id="Grupo_114069" data-name="Grupo 114069" transform="translate(7.46 1.71)">
                        <path id="Trazado_159615" data-name="Trazado 159615" d="M118.948,442.388c.156.354.994-.066,1.628-.166.373-.06,1.264-.027,1.33-.368.123-.61-1.214-.584-1.779-.442C119.581,441.552,118.718,441.871,118.948,442.388Z" transform="translate(-118.91 -441.328)" fill="#2f2fa7" fill-rule="evenodd"/>
                        <path id="Trazado_159616" data-name="Trazado 159616" d="M121.131,445.581c.317.429,1.2-.076,1.83-.213.329-.072.7-.118,1.021-.161s.877,0,.862-.268c-.034-.566-.963-.612-1.614-.538C122.405,444.49,120.66,444.943,121.131,445.581Z" transform="translate(-120.189 -443.146)" fill="#2f2fa7" fill-rule="evenodd"/>
                      </g>
                      <path id="Trazado_159617" data-name="Trazado 159617" d="M128.576,446.676c.562.2,1.133.374,1.675.553a5.581,5.581,0,0,1,3.39,2.424,5.661,5.661,0,0,1,.536,1.613c-2.779-.018-5.587-.006-8.391,0A5.381,5.381,0,0,1,128.576,446.676Z" transform="translate(-115.557 -442.812)" fill="#2f2fa7"/>
                      <path id="Trazado_159618" data-name="Trazado 159618" d="M104.147,450.511c-1.258-.01-2.512-.025-3.753-.052-.014-1.718-.009-3.42.092-5.026A6.186,6.186,0,0,1,104.147,450.511Z" transform="translate(-100.388 -442.07)" fill="#2f2fa7"/>
                    </g>
                  </g>
                  <g id="Grupo_114074" data-name="Grupo 114074">
                    <path id="Trazado_159619" data-name="Trazado 159619" d="M106.823,237.124a1.238,1.238,0,0,0-.017.139c-.033,3.753.025,7.507.112,11.258.081,3.509.215,7.017.162,10.527-.027,1.763-.148,3.521-.265,5.28-.113,1.694-.3,3.382-.43,5.075-.141,1.773-.309,3.543-.447,5.316-.09,1.16-.147,2.323-.222,3.485-.087,1.355-.177,2.711-.263,4.066-.041.646-.064,1.292-.1,1.938-.1,1.614-.141,3.231-.231,4.845-.1,1.872-.234,3.744-.355,5.615-.066,1.017.175,9.154.108,10.171-.033.495-.081.559-.578.564-1.23.011-2.458.063-3.686.1-2.829.087-5.657.2-8.488.2-.737,0-.751-.006-.776-.75-.082-2.473-.555-12.064-.637-14.538-.076-2.311-.126-4.623-.184-6.935-.083-3.284-.1-6.567-.085-9.851.008-2.46.164-4.912.371-7.362.19-2.24.48-4.469.762-6.7a32.389,32.389,0,0,0,.319-4.934q-.062-2.329-.317-4.645c-.191-1.768-.408-3.534-.634-5.3-.2-1.539-.438-3.073-.636-4.613-.246-1.908-.49-3.816-.659-5.734a68.544,68.544,0,0,1-.141-7.855,55.4,55.4,0,0,1,.562-6.715c.022-.144.043-.288.078-.429.081-.327.253-.4.509-.2a.3.3,0,0,0,.291.094,16.242,16.242,0,0,1,2.456-.275c1.418-.105,2.841-.157,4.261-.232,4.01-.21,8.023-.1,12.034-.053,2.506.027,5.011.146,7.517.186.307,0,.613.056.92.056a.489.489,0,0,1,.534.385c.108.356.234.706.366,1.054,1.188,3.131,2.4,6.253,3.565,9.391q3.1,8.347,5.863,16.816c.806,2.477,1.667,4.935,2.265,7.474a18.439,18.439,0,0,1,.361,5.93,36.649,36.649,0,0,1-1.621,7.478c-1.289,4.192-2.791,8.311-4.295,12.428-2.137,5.851-5.518,17.108-7.8,22.9-.322.819-.285.9-1.145.78,0,0-8.53-1.3-10.2-1.278-.66.01-.683-.01-.587-.638.36-2.366,1.554-8.817,1.934-11.18.739-4.6,1.807-9.137,2.953-13.654.485-1.914,1.147-3.777,1.665-5.68.777-2.86,1.764-5.651,2.71-8.455a22.876,22.876,0,0,0,.916-3.317,6.76,6.76,0,0,0-.579-4.34c-.978-1.953-2.068-3.847-3.011-5.819-1.166-2.437-2.367-4.857-3.393-7.358-.516-1.257-.956-2.544-1.4-3.826-.106-.3-.224-.6-.337-.905Z" transform="translate(-89.455 -218.615)" fill="#2f2fa7"/>
                    <g id="Grupo_114073" data-name="Grupo 114073" transform="translate(0 0.245)">
                      <path id="Trazado_159620" data-name="Trazado 159620" d="M94.861,286.894c-.062-3.106.025-6.21.148-9.314.066-1.664.087-3.33.129-5,.007-.275.01-.55.026-.824q.128-2.325.263-4.649c.069-1.162.133-2.325.223-3.485.119-1.547.257-3.093.454-4.633q.376-2.935.737-5.871a33.581,33.581,0,0,0,.333-4.5,46.744,46.744,0,0,0-.624-6.465c-.509-3.324-1.151-6.628-1.561-9.968-.193-1.573-.372-3.149-.423-4.732-.044-1.373-.012-2.747.056-4.123a22.9,22.9,0,0,1,.584-4.117c-.6.031-1.2.066-1.806.11a16.238,16.238,0,0,0-2.456.275.3.3,0,0,1-.291-.094c-.257-.205-.429-.129-.509.2-.035.141-.056.286-.078.429a55.4,55.4,0,0,0-.562,6.714,68.549,68.549,0,0,0,.141,7.856c.17,1.918.414,3.825.659,5.734.2,1.539.438,3.073.636,4.613.227,1.764.443,3.529.634,5.3q.251,2.315.317,4.644a32.389,32.389,0,0,1-.319,4.934c-.282,2.23-.572,4.458-.762,6.7-.207,2.45-.363,4.9-.371,7.362-.011,3.284,0,6.567.085,9.851.058,2.312.108,4.624.184,6.935.081,2.473.555,12.065.637,14.538.025.745.039.751.776.75,1.222,0,2.536-.058,3.757-.089-.156-2.042-.709-11.173-.82-13.217C94.951,290.807,94.9,288.85,94.861,286.894Z" transform="translate(-89.455 -219.222)" fill="#1e1e77"/>
                      <path id="Trazado_159621" data-name="Trazado 159621" d="M140.552,296.688a67.589,67.589,0,0,0,2.586-9.092,21.446,21.446,0,0,0,.492-4.428,18.456,18.456,0,0,0-1.34-6.426,46.136,46.136,0,0,0-3.48-6.877,75.744,75.744,0,0,1-4.659-9.161q-1.176-2.773-2.112-5.632a5.049,5.049,0,0,0-.424-1.03.564.564,0,0,0-.582-.353.573.573,0,0,0-.46.5,1.432,1.432,0,0,0-.043.238,13.486,13.486,0,0,0-.081,1.356c.027.758.05,1.517.076,2.276l.022,0c.113.3.231.6.337.905.449,1.282.889,2.569,1.4,3.826,1.025,2.5,2.227,4.922,3.393,7.358.943,1.971,2.033,3.866,3.011,5.819a6.76,6.76,0,0,1,.579,4.34,22.876,22.876,0,0,1-.916,3.317c-.947,2.8-1.933,5.6-2.711,8.455-.518,1.9-1.179,3.767-1.665,5.68-1.145,4.517-2.213,9.05-2.953,13.654-.38,2.363-1.574,8.814-1.934,11.18-.1.628-.072.592.587.638.708.049,2.133.2,2.133.2,1.22-3.309,3.308-10.928,4.363-14.3C137.491,304.94,139.114,300.846,140.552,296.688Z" transform="translate(-113.104 -239.804)" fill="#1e1e77"/>
                      <g id="Grupo_114072" data-name="Grupo 114072" transform="translate(6.101 1.446)">
                        <path id="Trazado_159622" data-name="Trazado 159622" d="M157.533,232.4a4.773,4.773,0,0,1-5.733-4.642C152.624,229.659,155.462,231.615,157.533,232.4Z" transform="translate(-132.792 -225.767)" fill="#1e1e77" fill-rule="evenodd"/>
                        <path id="Trazado_159623" data-name="Trazado 159623" d="M104.6,232.4a4.773,4.773,0,0,0,5.733-4.642C109.512,229.659,106.675,231.615,104.6,232.4Z" transform="translate(-104.604 -225.767)" fill="#1e1e77" fill-rule="evenodd"/>
                        <path id="Trazado_159624" data-name="Trazado 159624" d="M133.21,233.67c-.249-3.635-.265-10.906-.241-10.858.6,2.9,1.531,6.048,1.509,8.894C134.474,232.417,134.533,233.945,133.21,233.67Z" transform="translate(-121.54 -222.812)" fill="#1e1e77" fill-rule="evenodd"/>
                      </g>
                    </g>
                  </g>
                </g>
                <g id="Grupo_114077" data-name="Grupo 114077" transform="translate(0.507)">
                  <path id="Trazado_159625" data-name="Trazado 159625" d="M90.715,215.525a.812.812,0,0,0,.795.829l27.947,1.685a.815.815,0,0,0,.891-.727l.1-1.644a.811.811,0,0,0-.794-.83l-27.947-1.685a.817.817,0,0,0-.892.728Z" transform="translate(-90.713 -213.151)" fill="#b04470" fill-rule="evenodd"/>
                  <g id="Grupo_114076" data-name="Grupo 114076" transform="translate(14.329 0.545)">
                    <path id="Trazado_159626" data-name="Trazado 159626" d="M141.835,218.716a.507.507,0,0,0,1.013.043l.135-3a.507.507,0,0,0-1.012-.043Z" transform="translate(-135.575 -214.942)" fill="#fff" fill-rule="evenodd"/>
                    <path id="Trazado_159627" data-name="Trazado 159627" d="M126.292,217.979a.507.507,0,0,0,1.013.045l.134-3a.5.5,0,0,0-.483-.519.5.5,0,0,0-.529.475Z" transform="translate(-126.292 -214.503)" fill="#fff" fill-rule="evenodd"/>
                    <path id="Trazado_159628" data-name="Trazado 159628" d="M130.785,214.994a.112.112,0,0,0,0,.014h0a.06.06,0,0,0,0,.01l-.127,2.77a.321.321,0,0,0,0,.05.41.41,0,0,0-.019.1.457.457,0,0,0,.424.487l2.745.172a.46.46,0,0,0,.487-.43.089.089,0,0,0,0-.012.337.337,0,0,0,.022-.11l.125-2.773a.094.094,0,0,1,0-.021c0-.005,0-.01,0-.014a.457.457,0,0,0-.427-.487l-2.748-.172a.456.456,0,0,0-.472.344.347.347,0,0,0-.012.073m.819,2.543.027-.6,1.794.114-.027.6Zm1.884-1.9-.021.491-1.794-.112.023-.491Z" transform="translate(-128.889 -214.547)" fill="#fff" fill-rule="evenodd"/>
                  </g>
                </g>
              </g>
              <g id="Grupo_114081" data-name="Grupo 114081" transform="translate(0 21.559)">
                <g id="Grupo_114079" data-name="Grupo 114079" transform="translate(5.754 32.111)">
                  <path id="Trazado_159629" data-name="Trazado 159629" d="M101.524,223.4c-.707.769-1.667,3.716-2.676,3.429-1.1-.313.341-3,.431-3.8-.674.937-1.577,3.067-2.211,2.983-.714-.095-.563-1.339-.38-2.137.2-.853.618-1.62.716-2.1-.544.684-1.323,2.268-2.126,1.93-.784-.33.17-2.07.375-2.814a13.476,13.476,0,0,0,.671-2.857,4.537,4.537,0,0,0-.953-1.88,8.38,8.38,0,0,1-1.585-6.018l6.328,2.107a7.958,7.958,0,0,0,2.209,2.831c.68.644,1.818,1.48,2.134,2.369.47,1.33.017,4.257-.833,6.255-.351.826-1.423,3.077-2.091,2.928-1.136-.253-.116-2.46-.008-3.22" transform="translate(-93.691 -210.126)" fill="#e2b1ce" fill-rule="evenodd"/>
                  <path id="Trazado_159630" data-name="Trazado 159630" d="M106.294,241.039c-1.456.649-.723-1.818-.411-2.808.489-1.555,1.206-3.193,1.429-4.193.357,1.517-1.421,4.443-1.413,6.1a1.032,1.032,0,0,0,.4.9" transform="translate(-100.696 -224.407)" fill="#bb78a2" fill-rule="evenodd"/>
                  <path id="Trazado_159631" data-name="Trazado 159631" d="M112.762,240.347a.491.491,0,0,1-.669.026c-.58-.34-.079-2.044.165-2.819.49-1.555,1.3-3.211,1.524-4.211.355,1.518-1.422,4.442-1.415,6.1a1.037,1.037,0,0,0,.395.907" transform="translate(-104.521 -223.992)" fill="#bb78a2" fill-rule="evenodd"/>
                  <path id="Trazado_159632" data-name="Trazado 159632" d="M95.417,223.734c-.807-.088-.356-1.727-.137-2.6.125-.5.3-1.014.474-1.535a6.587,6.587,0,0,0,.474-1.536c.016-.727-1.143-2.013-1.5-2.766a8.818,8.818,0,0,1-.931-5.17c2.115.638,4.11,1.252,6.328,2.106a5.227,5.227,0,0,1-3.165-.267,7.663,7.663,0,0,1-2.229-1.207,15.208,15.208,0,0,0,1.077,5.478c.342.9.806,1.383.555,2.374-.4,1.567-1.582,4.456-.946,5.122" transform="translate(-93.704 -210.127)" fill="#bb78a2" fill-rule="evenodd"/>
                  <path id="Trazado_159633" data-name="Trazado 159633" d="M101.77,238.061c-.969,1.176-1.237-.237-1.218-.761.07-1.9,1.621-3.665,1.878-6.316a1.817,1.817,0,0,1,.051,1.175c-.2,1.2-1.013,3.124-1.332,4.4-.146.583-.21,1.259.621,1.5" transform="translate(-97.788 -222.583)" fill="#bb78a2" fill-rule="evenodd"/>
                </g>
                <g id="Grupo_114080" data-name="Grupo 114080">
                  <path id="Trazado_159634" data-name="Trazado 159634" d="M91.13,148.659c1.049,5.4,2.154,10.794,2.684,16.295a45.039,45.039,0,0,1-9.94,1.914c-1.31-4.451-2.605-8.618-3.5-13.213a47.232,47.232,0,0,1-.921-6.739c-.119-2.272-.1-4.883,1.248-7.146,1.933-3.243,5.868-4.785,8.429-5.662a72.593,72.593,0,0,1,13.734-3.01,60.291,60.291,0,0,1,9.345-.7,8.33,8.33,0,0,1,4.242.933c2.57,1.453,2.9,4.286,1,6.674-1.648,2.072-4.2,3.371-6.289,4.349C104.908,145.285,97.243,147.318,91.13,148.659Z" transform="translate(-79.405 -130.398)" fill="#bcbcea" fill-rule="evenodd"/>
                  <path id="Trazado_159635" data-name="Trazado 159635" d="M107.426,167.974l-.735-5.236,2.144,4.92Z" transform="translate(-95.702 -149.713)" fill="#a4a4e4"/>
                </g>
              </g>
            </g>
            <g id="Grupo_114102" data-name="Grupo 114102" transform="translate(0 42.737)">
              <g id="Grupo_114089" data-name="Grupo 114089" transform="translate(0 46.751)">
                <rect id="Rectángulo_36802" data-name="Rectángulo 36802" width="40.698" height="5.534" transform="translate(3.072 1.481)" fill="#a4a4e4"/>
                <g id="Grupo_114085" data-name="Grupo 114085" transform="translate(75.109 4.302)">
                  <g id="Grupo_114083" data-name="Grupo 114083">
                    <path id="Trazado_159636" data-name="Trazado 159636" d="M247.783,310.431V368.4h-2.328l-1.775-58.657Z" transform="translate(-243.68 -309.742)" fill="#fff"/>
                    <path id="Trazado_159637" data-name="Trazado 159637" d="M247.783,309.742v8.782h-3.826l-.277-8.782Z" transform="translate(-243.68 -309.742)" fill="#a4a4e4"/>
                  </g>
                  <g id="Grupo_114084" data-name="Grupo 114084" transform="translate(29.812)">
                    <path id="Trazado_159638" data-name="Trazado 159638" d="M321.8,310.431v58.808h-2.328l-1.775-59.5Z" transform="translate(-317.701 -309.742)" fill="#fff"/>
                    <path id="Trazado_159639" data-name="Trazado 159639" d="M321.8,309.742v8.782h-3.825l-.277-8.782Z" transform="translate(-317.701 -309.742)" fill="#6879b3"/>
                  </g>
                </g>
                <g id="Grupo_114088" data-name="Grupo 114088" transform="translate(3.072 4.323)">
                  <g id="Grupo_114086" data-name="Grupo 114086" transform="translate(33.751)">
                    <path id="Trazado_159640" data-name="Trazado 159640" d="M148.621,310.484l4.1-.687-1.776,59.449h-2.324Z" transform="translate(-148.62 -309.796)" fill="#fff"/>
                    <path id="Trazado_159641" data-name="Trazado 159641" d="M152.439,318.57l.28-8.775-4.1.688v8.087Z" transform="translate(-148.618 -309.794)" fill="#a4a4e4"/>
                  </g>
                  <g id="Grupo_114087" data-name="Grupo 114087">
                    <path id="Trazado_159642" data-name="Trazado 159642" d="M64.82,310.484l4.1-.687-1.775,59.449H64.82Z" transform="translate(-64.819 -309.796)" fill="#fff"/>
                    <path id="Trazado_159643" data-name="Trazado 159643" d="M68.638,318.57l.279-8.775-4.1.688v8.087Z" transform="translate(-64.817 -309.794)" fill="#a4a4e4"/>
                  </g>
                </g>
                <rect id="Rectángulo_36803" data-name="Rectángulo 36803" width="65.254" height="5.534" transform="translate(43.77 1.481)" fill="#a4a4e4"/>
                <path id="Trazado_159644" data-name="Trazado 159644" d="M57.189,299.8a.742.742,0,0,0,.743.741h109.64a.741.741,0,1,0,0-1.482H57.932a.742.742,0,0,0-.743.741" transform="translate(-57.189 -299.061)" fill="#fff"/>
              </g>
              <g id="Grupo_114101" data-name="Grupo 114101" transform="translate(37.42)">
                <g id="Grupo_114092" data-name="Grupo 114092">
                  <g id="Grupo_114090" data-name="Grupo 114090" transform="translate(16.928 35.421)">
                    <path id="Trazado_159645" data-name="Trazado 159645" d="M209.356,271.351c-.056,1.66-.422,4.361-.626,6.449-.156,1.617-.386,2.5.679,3.047.2.1.556.087.694.372-3.676-.037-7.5-.019-11.316,0-1.069.005-3.158.177-3.418-.512-.195-.52.291-1.818.414-2.394.529-2.487.972-4.9,1.551-7.211,3.969.039,8,.155,12.022.253" transform="translate(-194.037 -271.03)" fill="#a4a4e4" fill-rule="evenodd"/>
                    <path id="Trazado_159646" data-name="Trazado 159646" d="M198.947,280.851l-5.014,0c-.231-.006-.378-.133-.34-.38.074-.5,1.333-7.064,1.834-9.476,0-.037,0-.072-.055-.067a4.468,4.468,0,0,1-1.277,0c-.4,2.034-1.934,8.787-1.962,9.5a1.645,1.645,0,0,0,.7,1.633,1.531,1.531,0,0,0,.745.193c.022,0,.041.005.063.005l5.308,0a.711.711,0,1,0,0-1.4" transform="translate(-192.13 -270.928)" fill="#8d8dd4" fill-rule="evenodd"/>
                    <path id="Trazado_159647" data-name="Trazado 159647" d="M218.963,296.441a.5.5,0,0,1-.482.518l-9.591,0a.5.5,0,0,1-.482-.517v-.368a.5.5,0,0,1,.482-.517l9.591,0a.5.5,0,0,1,.481.518Z" transform="translate(-201.851 -285.637)" fill="#c7c7f2" fill-rule="evenodd"/>
                  </g>
                  <g id="Grupo_114091" data-name="Grupo 114091">
                    <path id="Trazado_159648" data-name="Trazado 159648" d="M153.086,213.082l-.011-23.913a6.146,6.146,0,0,1,6.144-6.149l-2.976,0a6.146,6.146,0,0,0-6.144,6.148l.01,23.912a6.147,6.147,0,0,0,6.15,6.144h2.975a6.146,6.146,0,0,1-6.149-6.143" transform="translate(-150.1 -183.004)" fill="#a4a4e4"/>
                    <path id="Trazado_159649" data-name="Trazado 159649" d="M200.126,182.981l-2.976,0L163.631,183a6.148,6.148,0,0,0-6.145,6.149l.012,23.912a6.146,6.146,0,0,0,6.148,6.144l33.518-.015,2.976,0a6.146,6.146,0,0,0,6.144-6.149l-.011-23.912a6.144,6.144,0,0,0-6.149-6.143" transform="translate(-154.511 -182.981)" fill="#8d8dd4"/>
                    <path id="Trazado_159650" data-name="Trazado 159650" d="M201.286,185.111l-2.811,0-31.649.014a5.8,5.8,0,0,0-5.8,5.806l.01,22.579a5.8,5.8,0,0,0,5.807,5.8l31.65-.015h2.81a5.8,5.8,0,0,0,5.8-5.806l-.01-22.579a5.8,5.8,0,0,0-5.806-5.8" transform="translate(-156.625 -184.253)" fill="#fff"/>
                  </g>
                </g>
                <g id="Grupo_114100" data-name="Grupo 114100" transform="translate(7.702 3.669)">
                  <rect id="Rectángulo_36804" data-name="Rectángulo 36804" width="40.027" height="29.274" rx="2.655" fill="#cecef4"/>
                  <g id="Grupo_114096" data-name="Grupo 114096" transform="translate(1.62 1.747)">
                    <g id="Grupo_114093" data-name="Grupo 114093" transform="translate(33.812)">
                      <path id="Trazado_159651" data-name="Trazado 159651" d="M258.437,198.9a1.238,1.238,0,1,1,1.238-1.238A1.239,1.239,0,0,1,258.437,198.9Zm0-1.789a.552.552,0,1,0,.551.551A.552.552,0,0,0,258.437,197.114Z" transform="translate(-257.199 -196.428)" fill="#a4a4e4"/>
                      <path id="Trazado_159652" data-name="Trazado 159652" d="M262.271,201.734a.342.342,0,0,1-.221-.081l-.957-.809a.343.343,0,1,1,.443-.524l.958.809a.343.343,0,0,1-.222.6Z" transform="translate(-259.452 -198.704)" fill="#a4a4e4"/>
                    </g>
                    <g id="Grupo_114095" data-name="Grupo 114095">
                      <path id="Trazado_159653" data-name="Trazado 159653" d="M185.625,198.9h-1.789a.343.343,0,0,1-.343-.343v-1.789a.343.343,0,0,1,.343-.343h1.789a.343.343,0,0,1,.343.343v1.789A.343.343,0,0,1,185.625,198.9Zm-1.446-.686h1.1v-1.1h-1.1Z" transform="translate(-179.366 -196.428)" fill="#a4a4e4"/>
                      <g id="Grupo_114094" data-name="Grupo 114094" transform="translate(0 0)">
                        <path id="Trazado_159654" data-name="Trazado 159654" d="M175.379,198.9a.342.342,0,0,1-.242-.1l-1.789-1.789a.343.343,0,0,1,.485-.485l1.789,1.789a.343.343,0,0,1-.242.586Z" transform="translate(-173.246 -196.428)" fill="#a4a4e4"/>
                        <path id="Trazado_159655" data-name="Trazado 159655" d="M173.589,198.9a.343.343,0,0,1-.242-.586l1.789-1.789a.343.343,0,0,1,.485.485l-1.789,1.789A.342.342,0,0,1,173.589,198.9Z" transform="translate(-173.246 -196.428)" fill="#a4a4e4"/>
                      </g>
                    </g>
                  </g>
                  <g id="Grupo_114097" data-name="Grupo 114097" transform="translate(30.096 8.437)">
                    <path id="Trazado_159656" data-name="Trazado 159656" d="M251.628,231.438h-7.334a.343.343,0,0,1-.343-.343V213.383a.343.343,0,0,1,.343-.343h7.334a.343.343,0,0,1,.343.343v17.712A.343.343,0,0,1,251.628,231.438Zm-6.991-.686h6.647V213.726h-6.647Z" transform="translate(-243.952 -213.04)" fill="#a4a4e4"/>
                    <path id="Trazado_159657" data-name="Trazado 159657" d="M251.628,231.438a.342.342,0,0,1-.317-.212l-7.334-17.711a.343.343,0,0,1,.634-.263l7.333,17.712a.343.343,0,0,1-.317.474Z" transform="translate(-243.951 -213.04)" fill="#a4a4e4"/>
                    <path id="Trazado_159658" data-name="Trazado 159658" d="M244.294,231.438a.344.344,0,0,1-.317-.474l7.334-17.712a.343.343,0,1,1,.634.263l-7.333,17.711A.342.342,0,0,1,244.294,231.438Z" transform="translate(-243.951 -213.04)" fill="#a4a4e4"/>
                  </g>
                  <g id="Grupo_114098" data-name="Grupo 114098" transform="translate(1.812 8.437)">
                    <path id="Trazado_159659" data-name="Trazado 159659" d="M181.4,231.438h-7.333a.343.343,0,0,1-.343-.343V213.383a.343.343,0,0,1,.343-.343H181.4a.343.343,0,0,1,.343.343v17.712A.343.343,0,0,1,181.4,231.438Zm-6.99-.686h6.647V213.726h-6.647Z" transform="translate(-173.725 -213.04)" fill="#a4a4e4"/>
                    <path id="Trazado_159660" data-name="Trazado 159660" d="M181.4,231.438a.343.343,0,0,1-.317-.212l-7.333-17.711a.343.343,0,0,1,.634-.263l7.333,17.712a.344.344,0,0,1-.317.474Z" transform="translate(-173.725 -213.04)" fill="#a4a4e4"/>
                    <path id="Trazado_159661" data-name="Trazado 159661" d="M174.068,231.438a.343.343,0,0,1-.317-.474l7.333-17.712a.343.343,0,0,1,.634.263l-7.333,17.711A.343.343,0,0,1,174.068,231.438Z" transform="translate(-173.725 -213.04)" fill="#a4a4e4"/>
                  </g>
                  <g id="Grupo_114099" data-name="Grupo 114099" transform="translate(13.192 9.161)">
                    <path id="Trazado_159662" data-name="Trazado 159662" d="M215.085,215.523H202.323a.343.343,0,1,1,0-.686h12.762a.343.343,0,0,1,0,.686Z" transform="translate(-201.98 -214.837)" fill="#a4a4e4"/>
                    <path id="Trazado_159663" data-name="Trazado 159663" d="M215.085,229.545H202.323a.343.343,0,1,1,0-.686h12.762a.343.343,0,1,1,0,.686Z" transform="translate(-201.98 -223.212)" fill="#a4a4e4"/>
                    <path id="Trazado_159664" data-name="Trazado 159664" d="M215.085,243.68H202.323a.343.343,0,0,1,0-.686h12.762a.343.343,0,0,1,0,.686Z" transform="translate(-201.98 -231.654)" fill="#a4a4e4"/>
                    <path id="Trazado_159665" data-name="Trazado 159665" d="M215.085,257.7H202.323a.343.343,0,1,1,0-.686h12.762a.343.343,0,1,1,0,.686Z" transform="translate(-201.98 -240.028)" fill="#a4a4e4"/>
                  </g>
                  <path id="Trazado_159666" data-name="Trazado 159666" d="M217.067,198.853a1.913,1.913,0,0,1-1.913,1.913H194.149a1.912,1.912,0,0,1-1.913-1.913h0a1.912,1.912,0,0,1,1.913-1.913h21.006a1.913,1.913,0,0,1,1.913,1.913Z" transform="translate(-182.968 -194.987)" fill="#fff"/>
                </g>
              </g>
            </g>
            <g id="Grupo_114154" data-name="Grupo 114154" transform="translate(56.982 26.352)">
              <g id="Grupo_114116" data-name="Grupo 114116" transform="translate(39.006 37.794)">
                <g id="Grupo_114112" data-name="Grupo 114112" transform="translate(9.009 51.241)">
                  <g id="Grupo_114109" data-name="Grupo 114109" transform="translate(0 27.634)">
                    <path id="Trazado_159667" data-name="Trazado 159667" d="M319.6,436.747a3.06,3.06,0,0,1,3.056-3.056h35.861a3.06,3.06,0,0,1,3.056,3.056V439.3h1.709v-2.554a4.77,4.77,0,0,0-4.765-4.765H322.652a4.769,4.769,0,0,0-4.763,4.765V439.3H319.6Z" transform="translate(-317.889 -431.982)" fill="#171458"/>
                    <g id="Grupo_114103" data-name="Grupo 114103" transform="translate(0 4.659)">
                      <path id="Trazado_159668" data-name="Trazado 159668" d="M320.8,453.7a2.913,2.913,0,0,0,2.913-2.913h-5.825A2.912,2.912,0,0,0,320.8,453.7Z" transform="translate(-317.889 -447.87)" fill="#171458"/>
                      <path id="Trazado_159669" data-name="Trazado 159669" d="M320.8,443.551a2.912,2.912,0,0,0-2.912,2.913h5.825A2.913,2.913,0,0,0,320.8,443.551Z" transform="translate(-317.889 -443.551)" fill="#fff"/>
                    </g>
                    <g id="Grupo_114105" data-name="Grupo 114105" transform="translate(11.286 0.213)">
                      <rect id="Rectángulo_36805" data-name="Rectángulo 36805" width="1.708" height="7.105" fill="#171458"/>
                      <g id="Grupo_114104" data-name="Grupo 114104" transform="translate(0 4.446)">
                        <path id="Trazado_159670" data-name="Trazado 159670" d="M348.824,453.7a2.913,2.913,0,0,0,2.913-2.913h-5.825A2.912,2.912,0,0,0,348.824,453.7Z" transform="translate(-345.912 -447.87)" fill="#171458"/>
                        <path id="Trazado_159671" data-name="Trazado 159671" d="M348.824,443.551a2.912,2.912,0,0,0-2.912,2.913h5.825A2.912,2.912,0,0,0,348.824,443.551Z" transform="translate(-345.912 -443.551)" fill="#2f2fa7"/>
                      </g>
                    </g>
                    <g id="Grupo_114107" data-name="Grupo 114107" transform="translate(32.357 0.213)">
                      <rect id="Rectángulo_36806" data-name="Rectángulo 36806" width="1.708" height="7.105" fill="#171458"/>
                      <g id="Grupo_114106" data-name="Grupo 114106" transform="translate(0 4.446)">
                        <path id="Trazado_159672" data-name="Trazado 159672" d="M401.142,453.7a2.913,2.913,0,0,0,2.913-2.913H398.23A2.913,2.913,0,0,0,401.142,453.7Z" transform="translate(-398.23 -447.87)" fill="#171458"/>
                        <path id="Trazado_159673" data-name="Trazado 159673" d="M401.142,443.551a2.912,2.912,0,0,0-2.912,2.913h5.825A2.912,2.912,0,0,0,401.142,443.551Z" transform="translate(-398.23 -443.551)" fill="#2f2fa7"/>
                      </g>
                    </g>
                    <g id="Grupo_114108" data-name="Grupo 114108" transform="translate(43.668 4.659)">
                      <path id="Trazado_159674" data-name="Trazado 159674" d="M429.225,453.7a2.913,2.913,0,0,0,2.913-2.913h-5.825A2.912,2.912,0,0,0,429.225,453.7Z" transform="translate(-426.313 -447.87)" fill="#171458"/>
                      <path id="Trazado_159675" data-name="Trazado 159675" d="M429.225,443.551a2.912,2.912,0,0,0-2.912,2.913h5.825A2.913,2.913,0,0,0,429.225,443.551Z" transform="translate(-426.313 -443.551)" fill="#2f2fa7"/>
                    </g>
                  </g>
                  <g id="Grupo_114111" data-name="Grupo 114111" transform="translate(11.052)">
                    <g id="Grupo_114110" data-name="Grupo 114110">
                      <path id="Trazado_159676" data-name="Trazado 159676" d="M369.081,363.437c0,2.984-2.942,3.144-6.423,3.144H351.586c-2.809,0-5.2-.073-6.014-1.914a2.624,2.624,0,0,1-.205-.683c-.035-.319-.119-.476.205-.547a1.955,1.955,0,0,1,.273-.068C353.229,363.536,361.624,363.509,369.081,363.437Z" transform="translate(-345.331 -363.369)" fill="#171458" fill-rule="evenodd"/>
                    </g>
                    <path id="Rectángulo_36807" data-name="Rectángulo 36807" d="M2.931,0h0A2.929,2.929,0,0,1,5.86,2.929V14.8a2.929,2.929,0,0,1-2.929,2.929h0A2.931,2.931,0,0,1,0,14.8V2.931A2.931,2.931,0,0,1,2.931,0Z" transform="translate(8.904 13.882)" fill="#171458"/>
                    <rect id="Rectángulo_36808" data-name="Rectángulo 36808" width="2.705" height="9.682" transform="translate(10.494 5.233)" fill="#171458"/>
                    <rect id="Rectángulo_36809" data-name="Rectángulo 36809" width="5.956" height="2.543" transform="translate(8.904 3.212)" fill="#171458"/>
                    <path id="Trazado_159677" data-name="Trazado 159677" d="M391.552,375.865h-9.09l-.083-.017a16.439,16.439,0,0,1-2.655-1.093l.758-1.53a17.71,17.71,0,0,0,2.163.932h8.907Z" transform="translate(-365.872 -369.255)" fill="#171458"/>
                  </g>
                </g>
                <g id="Grupo_114115" data-name="Grupo 114115">
                  <g id="Grupo_114113" data-name="Grupo 114113">
                    <path id="Trazado_159678" data-name="Trazado 159678" d="M321.339,236.2c.936-.123,2.637,0,3.9,0H348.2a10.863,10.863,0,0,1,3.282.137,3.018,3.018,0,0,1,1.777,1.64,8.337,8.337,0,0,1,0,3.075c-.959,11.563-1.933,22.148-2.87,33.692a14.494,14.494,0,0,1-3.964,9.293,10.433,10.433,0,0,1-4.031,2.666,22.455,22.455,0,0,1-5.947.683c-3.812.182-8.567.41-12.847.41-6.2,0-13.792.041-19.477-.067-1.079-.021-2.26,0-3.348,0a13.365,13.365,0,0,1-3.076-.069,2.8,2.8,0,0,1-2.049-1.914,2.972,2.972,0,0,1,1.571-3.553,10.724,10.724,0,0,1,3.417-.342c2.347-.083,4.823-.161,7.245-.273a12.746,12.746,0,0,0,4.169-.547,6.322,6.322,0,0,0,2.938-3.349,18.666,18.666,0,0,0,.889-5.33c.979-10.741,1.744-20.879,2.733-31.641a11.112,11.112,0,0,1,.41-2.666A2.64,2.64,0,0,1,321.339,236.2Z" transform="translate(-295.52 -236.14)" fill="#a4a4e4" fill-rule="evenodd"/>
                  </g>
                  <g id="Grupo_114114" data-name="Grupo 114114" transform="translate(28.757 0.033)">
                    <path id="Trazado_159679" data-name="Trazado 159679" d="M392.754,236.244a3.069,3.069,0,0,1,3.145,1.777c.433,1.2-.021,3.092-.138,4.443-.892,10.424-1.815,20.775-2.665,31.027a28,28,0,0,1-.546,4.3,12.962,12.962,0,0,1-6.083,8.338,11.033,11.033,0,0,1-3.758,1.093c-2.817.364-6.027.349-9.09.478a17.3,17.3,0,0,1-4.51,0,2.908,2.908,0,0,1-.478-5.467,10.821,10.821,0,0,1,3.417-.342c2.463-.087,4.768-.157,7.245-.273a15.047,15.047,0,0,0,3.758-.41,6,6,0,0,0,2.938-2.6c1.36-2.391,1.373-6.473,1.64-9.7.816-9.842,1.634-18.783,2.46-28.7C390.27,238.051,390.677,236.517,392.754,236.244Z" transform="translate(-366.92 -236.222)" fill="#fff" fill-rule="evenodd"/>
                  </g>
                </g>
              </g>
              <g id="Grupo_114153" data-name="Grupo 114153">
                <g id="Grupo_114122" data-name="Grupo 114122" transform="translate(0 28.616)">
                  <g id="Grupo_114120" data-name="Grupo 114120">
                    <g id="Grupo_114117" data-name="Grupo 114117" transform="translate(9.237 0.831)">
                      <path id="Trazado_159680" data-name="Trazado 159680" d="M258.468,218.307c-.228-1.889-1.487-3.042-3.017-2.877a6.221,6.221,0,0,0-3.286,1.667,21.536,21.536,0,0,0-2.362,2.309,97.336,97.336,0,0,0-7.916,10.208c-1.065,1.547-2.05,3.212-3.038,4.761a1.343,1.343,0,0,1-.5.568c-2.267-3.583-4.9-6.98-7.394-10.371a34.168,34.168,0,0,0-2.874-3.425c-2.46.936-4.03,2.667-6.476,3.64a13.18,13.18,0,0,1,2.383,3.918c2.48,4.92,4.492,9.34,7.27,13.92a53.678,53.678,0,0,0,3.143,4.822,5.8,5.8,0,0,0,1.205,1.377c1.625.931,4.323-.893,5.5-1.764a30.062,30.062,0,0,0,3.681-3.3,61.161,61.161,0,0,0,8.626-11.534c.795-1.346,1.512-2.788,2.227-4.294a35.189,35.189,0,0,0,1.851-4.506c.228-.717.5-1.566.685-2.411A8.442,8.442,0,0,0,258.468,218.307Z" transform="translate(-221.606 -215.415)" fill="#935e45" fill-rule="evenodd"/>
                      <path id="Trazado_159681" data-name="Trazado 159681" d="M262.18,218.321a2.947,2.947,0,0,0-2.562-2.884c-.083.636-.195,1.258-.294,1.807a35.49,35.49,0,0,1-1.27,4.759c-.522,1.6-1.054,3.142-1.676,4.6a61.811,61.811,0,0,1-7.15,12.687,30.381,30.381,0,0,1-3.262,3.792c-1.067,1.027-3.536,3.207-5.286,2.485a5.871,5.871,0,0,1-1.388-1.225,54.26,54.26,0,0,1-3.778-4.426c-2.789-3.491-5.154-7.219-7.693-10.952,2.364,4.692,4.489,9.294,7.15,13.681a53.694,53.694,0,0,0,3.143,4.822,5.8,5.8,0,0,0,1.205,1.377c1.625.931,4.323-.892,5.5-1.764a30.062,30.062,0,0,0,3.681-3.3,61.16,61.16,0,0,0,8.626-11.534c.795-1.346,1.512-2.788,2.227-4.294a35.182,35.182,0,0,0,1.851-4.506c.228-.717.5-1.566.685-2.411A8.442,8.442,0,0,0,262.18,218.321Z" transform="translate(-225.318 -215.428)" fill="#5d382e"/>
                    </g>
                    <g id="Grupo_114119" data-name="Grupo 114119">
                      <path id="Trazado_159682" data-name="Trazado 159682" d="M202.42,219.028a21.223,21.223,0,0,0-3.147.542c-.315.13-.648.376-.6.675.108.629,1.535.433,2.042.434.877,0,1.487.056,2.235.034-.578.223-2.338.293-3.356.653-.424.15-.884.4-.8.784.1.484,1.294.457,1.695.461a31.683,31.683,0,0,1,5.6.375,5.181,5.181,0,0,1,3.8,2.5c.257.339,4.908-5.117,4.775-5.262a33.585,33.585,0,0,0-6.443-5.207c-.654-.518-2.786-2.231-3.552-1.473-.63.624,1.634,2.035,2.018,2.613a13.863,13.863,0,0,0-5.078-.388c-.524.057-1.629.121-1.671.589-.06.641.822.623,1.226.694a8.142,8.142,0,0,0,1.462.225,25.267,25.267,0,0,0-3.135.6c-.259.117-.529.357-.5.592.072.541.935.418,1.516.446.793.037,1.3.115,1.85.13Z" transform="translate(-198.671 -213.352)" fill="#935e45" fill-rule="evenodd"/>
                      <g id="Grupo_114118" data-name="Grupo 114118" transform="translate(3.73 3.142)">
                        <path id="Trazado_159683" data-name="Trazado 159683" d="M209.1,226.135a2.047,2.047,0,0,1-.6-.6,4.5,4.5,0,0,1,.02-4.388A6.559,6.559,0,0,0,209.1,226.135Z" transform="translate(-207.932 -221.152)" fill="#5d382e" fill-rule="evenodd"/>
                      </g>
                      <path id="Trazado_159684" data-name="Trazado 159684" d="M218.2,220.031a6.413,6.413,0,0,0,1.329,3.874C218.276,223.6,217.544,221.059,218.2,220.031Z" transform="translate(-210.188 -217.341)" fill="#5d382e" fill-rule="evenodd"/>
                    </g>
                  </g>
                  <g id="Grupo_114121" data-name="Grupo 114121" transform="translate(25.993 1.488)">
                    <path id="Trazado_159685" data-name="Trazado 159685" d="M264.633,235l6.722,9.2c1.5-1.235,18.179-21.693,10.484-26.573C274.926,213.247,264.633,235,264.633,235Z" transform="translate(-264.059 -217.048)" fill="#e488bd" fill-rule="evenodd"/>
                    <path id="Trazado_159686" data-name="Trazado 159686" d="M267.9,272.836l-4.694-10.6.691-1.157L270.5,270.5A11.034,11.034,0,0,1,267.9,272.836Z" transform="translate(-263.209 -243.344)" fill="#db62a1" fill-rule="evenodd"/>
                    <path id="Trazado_159687" data-name="Trazado 159687" d="M288.141,228.818c-.9,1.561-1.818,3.127-2.654,4.526-1.581,2.647-3.678,5.533-5.332,7.765-.982,1.326-1.949,2.63-2.835,3.749a34.323,34.323,0,0,1-5.515,5.928l1.232,2.783a11.694,11.694,0,0,0,1.384-1.043,14.238,14.238,0,0,0,1.176-1.242l.037-.046,0,0,0-.005c.27-.279.534-.556.8-.834C279.326,247.12,288.1,235.636,288.141,228.818Z" transform="translate(-268.343 -224.077)" fill="#b04470"/>
                  </g>
                </g>
                <g id="Grupo_114128" data-name="Grupo 114128" transform="translate(6.982 62.589)">
                  <g id="Grupo_114126" data-name="Grupo 114126" transform="translate(0 47.076)">
                    <g id="Grupo_114123" data-name="Grupo 114123" transform="translate(10.612)">
                      <path id="Trazado_159688" data-name="Trazado 159688" d="M252.379,416.008l-6.98-1.419-3.043,12.138,8.07,1.508Z" transform="translate(-242.356 -414.589)" fill="#935e45" fill-rule="evenodd"/>
                      <path id="Trazado_159689" data-name="Trazado 159689" d="M248.393,420.646c3,3.042,7.347,1.007,7.347,1.007Z" transform="translate(-245.962 -418.207)" fill="#5d382e" fill-rule="evenodd"/>
                    </g>
                    <g id="Grupo_114125" data-name="Grupo 114125" transform="translate(0 7.67)">
                      <path id="Trazado_159690" data-name="Trazado 159690" d="M227.343,433.633c.33.084,1.519.277,1.877.791.372.533.116,1.243-.023,2.185,2.259.313,3.263-1.788,6.163-.764a47.145,47.145,0,0,1-1.044,7.631c-6.016-1-12.219-2.263-18.308-3.365a5.674,5.674,0,0,1,.825-1.487,5.581,5.581,0,0,1,3.778-1.758c1.987-.269,4.287-.429,5.641-1.791A11.864,11.864,0,0,0,227.343,433.633Z" transform="translate(-216.007 -433.633)" fill="#e488bd" fill-rule="evenodd"/>
                      <g id="Grupo_114124" data-name="Grupo 114124" transform="translate(7.303 1.488)">
                        <path id="Trazado_159691" data-name="Trazado 159691" d="M241.585,438.78c-.219.319-.965-.248-1.57-.463-.355-.127-1.237-.259-1.24-.607-.009-.623,1.3-.35,1.83-.106C241.117,437.842,241.907,438.314,241.585,438.78Z" transform="translate(-236.909 -437.329)" fill="#b04470" fill-rule="evenodd"/>
                        <path id="Trazado_159692" data-name="Trazado 159692" d="M237.675,441.334c-.39.364-1.168-.3-1.759-.547-.31-.131-.665-.245-.973-.347s-.861-.166-.8-.422c.138-.55,1.06-.424,1.685-.232C236.623,440.027,238.255,440.794,237.675,441.334Z" transform="translate(-234.14 -438.699)" fill="#b04470" fill-rule="evenodd"/>
                      </g>
                      <path id="Trazado_159693" data-name="Trazado 159693" d="M222.359,441.076c-.589.09-1.183.159-1.749.235a5.581,5.581,0,0,0-3.778,1.758,5.673,5.673,0,0,0-.825,1.487c2.735.495,5.493,1.024,8.248,1.545A5.382,5.382,0,0,0,222.359,441.076Z" transform="translate(-216.007 -438.078)" fill="#b04470"/>
                      <path id="Trazado_159694" data-name="Trazado 159694" d="M252.282,450.08c1.238.221,2.474.439,3.7.641.331-1.686.639-3.36.835-4.957A6.187,6.187,0,0,0,252.282,450.08Z" transform="translate(-237.672 -440.878)" fill="#b04470"/>
                    </g>
                  </g>
                  <g id="Grupo_114127" data-name="Grupo 114127" transform="translate(10.689)">
                    <path id="Trazado_159695" data-name="Trazado 159695" d="M242.547,346.9l11.038,1.5a114.578,114.578,0,0,0,4.079-13.434c1.35-5.872,2.58-12.34,1.827-19.539,8.334.952,19.186,1.49,27.543.253,4.355-.646,7.888-1.7,9.9-4.728a14.212,14.212,0,0,0,1.891-5.42,24.5,24.5,0,0,0,0-5.862c-.007-.1-.14-.242-.125-.316.027-.135.346-.022.188-.252-3.389-.092-6.8-.346-10.21-.5s-6.77-.667-10.022-.82c-.542-.025-1.437-.1-2.079-.064-.621.038-1.05.16-1.575.189-1.826.1-3.538.123-5.232.253s-3.352.305-4.978.5c-6.487.8-12.924,1.623-15.694,6.24-1.335,2.224-1.832,5.315-2.332,8.635Z" transform="translate(-242.547 -297.704)" fill="#1e1e77" fill-rule="evenodd"/>
                    <path id="Trazado_159696" data-name="Trazado 159696" d="M272.74,311.191a6.937,6.937,0,0,1,1.512-1.386c.1-.068.211-.132.321-.195-7.624,0-3.456,14.691-3.787,21.373a78.866,78.866,0,0,1-3.216,18.592c-.413,1.426-1.271,5.5-1.258,5.734l1.466.2a131.42,131.42,0,0,0,4.079-13.434,64.931,64.931,0,0,0,2.05-15.74h0c-.019-1.244-.087-2.51-.223-3.8l.245.028c-.039-.074-.075-.148-.118-.216a2.937,2.937,0,0,0-1.532-1.262C271.422,317.747,270.863,313.727,272.74,311.191Z" transform="translate(-256.741 -304.815)" fill="#171458"/>
                  </g>
                </g>
                <g id="Grupo_114135" data-name="Grupo 114135" transform="translate(32.414 63.959)">
                  <g id="Grupo_114132" data-name="Grupo 114132" transform="translate(7.575 43.945)">
                    <g id="Grupo_114129" data-name="Grupo 114129" transform="translate(7.681)">
                      <path id="Trazado_159697" data-name="Trazado 159697" d="M324.055,410.221l-7.025,1.176,1.507,12.422,8.075-1.483Z" transform="translate(-317.029 -410.221)" fill="#935e45" fill-rule="evenodd"/>
                      <path id="Trazado_159698" data-name="Trazado 159698" d="M317.986,420.588c3.894,2.061,7.454-.941,7.454-.941Z" transform="translate(-317.601 -415.851)" fill="#5d382e" fill-rule="evenodd"/>
                    </g>
                    <g id="Grupo_114131" data-name="Grupo 114131" transform="translate(0 8.36)">
                      <path id="Trazado_159699" data-name="Trazado 159699" d="M306.222,431.786c.338-.04,1.518-.286,2.036.066.538.364.554,1.119.761,2.048,2.221-.517,2.406-2.838,5.48-2.921a47.032,47.032,0,0,1,1.759,7.5c-5.974,1.225-12.218,2.263-18.3,3.416a5.665,5.665,0,0,1,.238-1.684,5.578,5.578,0,0,1,2.9-2.995c1.758-.963,3.849-1.936,4.625-3.693A11.818,11.818,0,0,0,306.222,431.786Z" transform="translate(-297.959 -430.979)" fill="#e488bd" fill-rule="evenodd"/>
                      <g id="Grupo_114130" data-name="Grupo 114130" transform="translate(5.504 2.569)">
                        <path id="Trazado_159700" data-name="Trazado 159700" d="M318.084,438.109c-.09.376-.99.114-1.631.13-.377.008-1.248.2-1.375-.123-.231-.578,1.089-.793,1.67-.755C317.311,437.4,318.218,437.559,318.084,438.109Z" transform="translate(-313.672 -437.357)" fill="#b04470" fill-rule="evenodd"/>
                        <path id="Trazado_159701" data-name="Trazado 159701" d="M315.4,441.8c-.234.48-1.2.143-1.838.12-.337-.012-.709.009-1.033.025s-.864.153-.9-.108c-.068-.563.838-.775,1.491-.82C313.947,440.959,315.745,441.09,315.4,441.8Z" transform="translate(-311.626 -439.536)" fill="#b04470" fill-rule="evenodd"/>
                      </g>
                      <path id="Trazado_159702" data-name="Trazado 159702" d="M302.643,444.364c-.517.295-1.047.572-1.549.846a5.578,5.578,0,0,0-2.9,2.994,5.665,5.665,0,0,0-.238,1.684c2.731-.518,5.495-1.012,8.254-1.512A5.381,5.381,0,0,0,302.643,444.364Z" transform="translate(-297.959 -438.973)" fill="#b04470"/>
                      <path id="Trazado_159703" data-name="Trazado 159703" d="M334.229,443.018c1.236-.237,2.467-.477,3.682-.727-.3-1.693-.607-3.366-1-4.927A6.187,6.187,0,0,0,334.229,443.018Z" transform="translate(-319.613 -434.792)" fill="#b04470"/>
                    </g>
                  </g>
                  <g id="Grupo_114134" data-name="Grupo 114134">
                    <path id="Trazado_159704" data-name="Trazado 159704" d="M323.078,309.265a61.971,61.971,0,0,0-2.333-8.131c-.247-.1-.128.106-.251.132-3.139.352-6.5.209-10.022.246-3.426.036-6.907.19-10.274.315-3.261.122-6.788.2-10.021.568a32.012,32.012,0,0,0-4.412.882,13.034,13.034,0,0,0-3.845,1.449,6.937,6.937,0,0,0-1.512,1.386c-2.472,3.339-.72,9.254.378,12.8,1.262,4.071,2.965,7.759,4.285,11.534,2.7,7.716,4.984,12.627,7.612,19.7.676-.11,1.36-.185,2.039-.268,1.686-.2,3.379-.361,5.059-.611,1.378-.205,2.746-.445,4.108-.709a63.239,63.239,0,0,0-1.988-13.383,70.785,70.785,0,0,0-6.177-14.874c4.176,1.007,9.338,1.2,14.433,1.2,5,0,9.654-.666,11.913-3.719C323.6,315.7,323.582,312.31,323.078,309.265Z" transform="translate(-279.152 -301.107)" fill="#2f2fa7" fill-rule="evenodd"/>
                    <g id="Grupo_114133" data-name="Grupo 114133" transform="translate(13.264 4.047)">
                      <path id="Trazado_159705" data-name="Trazado 159705" d="M342.747,315.266a30.266,30.266,0,0,0-1.027-4.111,20.913,20.913,0,0,1,.27,3.291c0,2.468-.273,4.448-1.323,5.987a9.31,9.31,0,0,1-2.585,2.584c-2.733,1.726-8.421,1.383-12.793,1.261-3.175-.089-6.764-.383-10.4-.189-1.142.06-2.469.273-2.711.82-.3.69.2,1.671.5,2.332a108.8,108.8,0,0,1,5.862,14.874,79.651,79.651,0,0,1,2.9,12.822q1.057-.182,2.11-.385a63.235,63.235,0,0,0-1.988-13.383,70.782,70.782,0,0,0-6.177-14.874c4.176,1.007,9.338,1.2,14.433,1.2,5,0,9.655-.666,11.913-3.719C343.271,321.7,343.251,318.311,342.747,315.266Z" transform="translate(-312.085 -311.155)" fill="#1e1e77"/>
                    </g>
                  </g>
                </g>
                <g id="Grupo_114148" data-name="Grupo 114148" transform="translate(28.1)">
                  <g id="Grupo_114136" data-name="Grupo 114136" transform="translate(12.179 26.654)">
                    <path id="Trazado_159706" data-name="Trazado 159706" d="M311.829,246.505c-1.087-5.994-4.852-12.125-7.019-14.972-.258-.339-.708-1.033-.995-1.114a4.213,4.213,0,0,0-.915,0,4.607,4.607,0,0,1-2.029-.637,3.822,3.822,0,0,1-1.751-1.791c-.464-1.112-.134-3.385-.2-4.814-.075-1.642-.23-3.289-.239-4.895a9.749,9.749,0,0,1,1.87-5.889,8.187,8.187,0,0,1,3.342-3.1,7.941,7.941,0,0,1,3.1-.8,11.8,11.8,0,0,1,5.053.955,19.673,19.673,0,0,1,3.939,2.069,24.768,24.768,0,0,1,6.208,5.81c10.718,14.728,9.705,27.146,10.176,28.485C332.447,246.014,314.158,246.875,311.829,246.505Z" transform="translate(-298.683 -208.48)" fill="#d967a2" fill-rule="evenodd"/>
                    <path id="Trazado_159707" data-name="Trazado 159707" d="M350.445,224.621c7.638,13.3,7.181,24.082,7.04,27.978a27.2,27.2,0,0,0,3.3-.271c-.47-1.339.542-13.757-10.176-28.485a22.64,22.64,0,0,0-4.363-4.454A23.021,23.021,0,0,1,350.445,224.621Z" transform="translate(-327.087 -214.995)" fill="#b04470"/>
                  </g>
                  <g id="Grupo_114147" data-name="Grupo 114147">
                    <g id="Grupo_114146" data-name="Grupo 114146">
                      <path id="Trazado_159708" data-name="Trazado 159708" d="M283.754,189.287l-.03,0-.018.025a1.009,1.009,0,0,1-.1.116c-.04.039-.077.081-.113.123l-.109.122.106.006a3.142,3.142,0,1,1-1.134.142c.168-.091.193-.211.164-.286s-.139-.145-.31-.1a3.54,3.54,0,1,0,1.544-.146Z" transform="translate(-275.197 -170.361)" fill="#fff"/>
                      <path id="Trazado_159709" data-name="Trazado 159709" d="M299.617,171.522a8.2,8.2,0,0,0,1.4-4.032c-.621-2.629-.847-7.3-2.959-8.347a8.678,8.678,0,0,0-9.461,1.875c-1.63,1.883-2.953,5.911-2.811,9.828.144,3.959,1.8,6.6,6.528,5.39.473,1.551,1.214,4.114,1.407,4.672.407,1.189,5.737,2.8,8.133-2.006C301.863,179.086,299.713,172.517,299.617,171.522Z" transform="translate(-278.794 -151.947)" fill="#935e45"/>
                      <g id="Grupo_114137" data-name="Grupo 114137">
                        <path id="Trazado_159710" data-name="Trazado 159710" d="M299.334,156.508a1.956,1.956,0,0,0-.44-3.866,1.928,1.928,0,0,0-.48.07,1.51,1.51,0,0,0-.789-1.039,1.255,1.255,0,0,0,.035-.2,2.412,2.412,0,1,0-3.054-3.734,1.923,1.923,0,0,0-1.8-1.212,2.921,2.921,0,0,0-5.773-.609c-.071,0-.141.008-.21.017a1.51,1.51,0,0,0-1.5-1.258c-.043,0-.083.01-.125.014a2.919,2.919,0,0,0-5.516-.709,1.51,1.51,0,1,0-2.532,1.533,1.287,1.287,0,0,0,.053.3,1.687,1.687,0,0,0-1.7.063,1.356,1.356,0,0,0-.47,1.344,1.9,1.9,0,0,0-1-.275,1.915,1.915,0,0,0-1.459,3.147,1.923,1.923,0,0,0-1.869,1.937,1.955,1.955,0,0,0,.041.373,2.411,2.411,0,0,0,.037,4.818,2.412,2.412,0,0,0,2.383,2.9,3.509,3.509,0,0,0,2.316-.931s.187-1.493.318-2.226a12.039,12.039,0,0,1,.871-2.8,1.83,1.83,0,0,0,.986-1.084,1.088,1.088,0,0,0,.5.175,1.075,1.075,0,0,0,1.023-.507.912.912,0,0,0,.651.362.932.932,0,0,0,.743-.277,3.893,3.893,0,0,0,1.835.664,3.512,3.512,0,0,0,2.145-.231,1.242,1.242,0,0,0,.824.647,1.149,1.149,0,0,0-.366.72,1.21,1.21,0,0,0,1.142,1.292,1.377,1.377,0,0,0,.22,0,.809.809,0,0,0-.2.429.861.861,0,0,0,.757.913c-.233,1.978-1.081,3.927-.753,3.963.87-.215,1.623-2.841,2.264-2.822a1.066,1.066,0,0,1,.78.391,1.978,1.978,0,0,1-1.136,3.257,1.441,1.441,0,0,0,.021,2.3,1.3,1.3,0,0,0,1.028-.084,1.691,1.691,0,0,0,1.738.494c.038-.015.07-.037.106-.056a2,2,0,0,0,3.806-.859,1.972,1.972,0,0,0-.037-.34,1.948,1.948,0,0,0,3.031-1.5l.04,0a2.966,2.966,0,0,0,1.5-5.509Z" transform="translate(-268.442 -142.3)" fill="#171458" fill-rule="evenodd"/>
                        <path id="Trazado_159711" data-name="Trazado 159711" d="M290.352,152.35a1.491,1.491,0,0,1,.576.271,1.509,1.509,0,0,0-2.749.413,2.437,2.437,0,0,0,.1,1.371,1.687,1.687,0,0,0-1.655-.379,1.356,1.356,0,0,0-.8,1.176,1.906,1.906,0,0,0-.89-.524,1.925,1.925,0,0,0-2.347,1.38,1.645,1.645,0,0,0,.475,1.5,1.873,1.873,0,0,1-.01-.858,1.925,1.925,0,0,1,2.3-1.456,1.9,1.9,0,0,1,.907.5,1.357,1.357,0,0,1,.764-1.2,1.686,1.686,0,0,1,1.666.325,3.927,3.927,0,0,1-.142-1.368A1.441,1.441,0,0,1,290.352,152.35Z" transform="translate(-276.865 -148.034)" fill="#2b2bab"/>
                        <path id="Trazado_159712" data-name="Trazado 159712" d="M316.934,154.92a2.922,2.922,0,0,1,1.905,3.667,1.921,1.921,0,0,1,1.337,1.709,2.408,2.408,0,0,1,2.874,3.638,2.411,2.411,0,0,0-2.261-4.232,1.922,1.922,0,0,0-1.336-1.709,2.92,2.92,0,0,0-5.1-2.665A2.914,2.914,0,0,1,316.934,154.92Z" transform="translate(-295.865 -149.401)" fill="#2b2bab"/>
                      </g>
                      <g id="Grupo_114145" data-name="Grupo 114145" transform="translate(7.293 12.804)">
                        <g id="Grupo_114140" data-name="Grupo 114140" transform="translate(6.226 2.944)">
                          <g id="Grupo_114139" data-name="Grupo 114139">
                            <g id="Grupo_114138" data-name="Grupo 114138" transform="translate(0 6.406)">
                              <path id="Trazado_159713" data-name="Trazado 159713" d="M302.009,199.441l.638,2.136c2.105-1.181,3.091-4.27,3.091-4.27S302.92,198.994,302.009,199.441Z" transform="translate(-302.009 -197.307)" fill="#5d382e" fill-rule="evenodd"/>
                            </g>
                            <path id="Trazado_159714" data-name="Trazado 159714" d="M318.884,183.576c-.3.9-1.628,2.2-2.414,1.935s-.735-2-.433-2.9a1.516,1.516,0,1,1,2.847.963Z" transform="translate(-310.265 -181.401)" fill="#935e45" fill-rule="evenodd"/>
                          </g>
                          <path id="Trazado_159715" data-name="Trazado 159715" d="M316.068,189.014l-.03,0-.018.025a.967.967,0,0,1-.1.116c-.039.039-.077.081-.113.123l-.109.122.106.006a3.142,3.142,0,1,1-1.135.142c.168-.091.194-.211.164-.286s-.139-.144-.311-.1a3.54,3.54,0,1,0,1.545-.146Z" transform="translate(-308.015 -185.946)" fill="#fff"/>
                        </g>
                        <g id="Grupo_114144" data-name="Grupo 114144">
                          <g id="Grupo_114141" data-name="Grupo 114141" transform="translate(1.52 0.998)">
                            <path id="Trazado_159716" data-name="Trazado 159716" d="M291.676,181.532a.215.215,0,0,1-.042-.011,1.205,1.205,0,0,1-.723-.631c-.236-.564.065-1.281.447-2.186a13.191,13.191,0,0,0,.7-1.949.249.249,0,0,1,.482.12,13.784,13.784,0,0,1-.723,2.021c-.325.768-.6,1.431-.448,1.8a.74.74,0,0,0,.446.36.249.249,0,0,1,.141.321.243.243,0,0,1-.277.153" transform="translate(-290.624 -176.568)" fill="#5d382e"/>
                            <path id="Trazado_159717" data-name="Trazado 159717" d="M291.3,193.08c-.962-.144-1.019-1.538-.957-1.659a.248.248,0,0,1,.331-.112c1.3.642,1.9-.069,1.928-.1.085-.106.267-.148.345-.039.332.45-.506,2.132-1.647,1.909" transform="translate(-290.323 -185.251)" fill="#5d382e"/>
                          </g>
                          <g id="Grupo_114142" data-name="Grupo 114142">
                            <path id="Trazado_159718" data-name="Trazado 159718" d="M286.55,174.533c.009.2.641.33,1.412.291s1.387-.234,1.379-.433-.644-.334-1.415-.293-1.388.232-1.376.435" transform="translate(-286.55 -174.09)" fill="#171458" fill-rule="evenodd"/>
                            <path id="Trazado_159719" data-name="Trazado 159719" d="M288,179.341c-.051.34.113.647.363.68s.492-.213.541-.554-.116-.647-.364-.681-.493.212-.54.555" transform="translate(-287.413 -176.893)" fill="#171458" fill-rule="evenodd"/>
                          </g>
                          <g id="Grupo_114143" data-name="Grupo 114143" transform="translate(4.135 0.291)">
                            <path id="Trazado_159720" data-name="Trazado 159720" d="M296.821,174.929c-.069.194.478.567,1.227.834s1.409.328,1.476.135-.478-.571-1.226-.839-1.408-.325-1.478-.13" transform="translate(-296.815 -174.814)" fill="#171458" fill-rule="evenodd"/>
                            <path id="Trazado_159721" data-name="Trazado 159721" d="M298.011,180.28c-.053.362.119.691.387.729s.524-.229.576-.593a.6.6,0,0,0-.39-.728c-.266-.037-.524.228-.574.592" transform="translate(-297.524 -177.723)" fill="#171458" fill-rule="evenodd"/>
                          </g>
                        </g>
                      </g>
                    </g>
                    <path id="Trazado_159722" data-name="Trazado 159722" d="M306.755,212a6.892,6.892,0,0,1-3.938-.886l.829-2.554a5.248,5.248,0,0,0,4.9.744,4.353,4.353,0,0,0,3-3.482l2.1,1.754a6.325,6.325,0,0,1-4.328,4A7.981,7.981,0,0,1,306.755,212Z" transform="translate(-288.972 -180.238)" fill="#b04470"/>
                  </g>
                </g>
                <g id="Grupo_114152" data-name="Grupo 114152" transform="translate(28.437 28.31)">
                  <g id="Grupo_114150" data-name="Grupo 114150" transform="translate(0 0.249)">
                    <path id="Trazado_159723" data-name="Trazado 159723" d="M299.182,217.669c-.381-2.541-1.957-5.86-5.028-3.771a6.4,6.4,0,0,0-2.009,2.412,44.794,44.794,0,0,0-3.238,8.216,78.174,78.174,0,0,0-2.253,10.05,6.655,6.655,0,0,1-.277,1.415,68.569,68.569,0,0,1-4.26-7.866c-.62-1.447-2.883-7.051-3.592-9.1-.572-1.655-1.529-4.759-3.3-5.388a9.474,9.474,0,0,0-2.075-.306c-1.257-.082-3.5-.319-3.765.223-.652,1.344,1.967,1.631,2.766,1.89a1.772,1.772,0,0,0-.836,1.1,4.586,4.586,0,0,1-.1.778c-.054.13-.3.229-.435.495a3.5,3.5,0,0,0-.135,2.205c.217.608,1.142.951,1.4,1.415.216.391.1.876.225,1.21a4.06,4.06,0,0,0,1.112,1.709c.244.2.661.248.851.494.13.167,1.69,7.939,2.081,9.262a80.373,80.373,0,0,0,2.958,8.3c1.23,2.952,2.995,6.054,5.059,7.1A4.851,4.851,0,0,0,288,249.7a8.66,8.66,0,0,0,4.183-3.382c2.893-3.916,4.109-8.145,5.208-12.571a73.139,73.139,0,0,0,1.712-8.962A25.825,25.825,0,0,0,299.182,217.669Z" transform="translate(-269.278 -213.21)" fill="#935e45" fill-rule="evenodd"/>
                    <g id="Grupo_114149" data-name="Grupo 114149" transform="translate(0.009 0.859)">
                      <path id="Trazado_159724" data-name="Trazado 159724" d="M269.3,215.342a5.362,5.362,0,0,0,.685.346c1.05.462,2.443.342,3.949.523a3.678,3.678,0,0,0-1.774.509c-1.056-.157-2.728-.507-2.86-1.378" transform="translate(-269.3 -215.342)" fill="#5d382e" fill-rule="evenodd"/>
                      <path id="Trazado_159725" data-name="Trazado 159725" d="M276.66,219.83a6.733,6.733,0,0,0-2.065.156c.255-.712,1.456-.46,2.065-.156" transform="translate(-272.462 -217.841)" fill="#5d382e" fill-rule="evenodd"/>
                      <path id="Trazado_159726" data-name="Trazado 159726" d="M276.123,222.467c-.632.07-1.28.12-1.866.245.221-.567,1.186-.455,1.866-.245" transform="translate(-272.261 -219.495)" fill="#5d382e" fill-rule="evenodd"/>
                      <path id="Trazado_159727" data-name="Trazado 159727" d="M278.787,234.813c.287.2.729.472.842.558a2.891,2.891,0,0,1-2.917-1.391c-.713-1.113-.63-2.714-.881-3.988-.027-.137,1.343,3.69,2.956,4.821" transform="translate(-273.201 -224.089)" fill="#5d382e" fill-rule="evenodd"/>
                    </g>
                  </g>
                  <g id="Grupo_114151" data-name="Grupo 114151" transform="translate(6.678)">
                    <path id="Trazado_159728" data-name="Trazado 159728" d="M312.3,234.557l8.29,6.671c.937-1.639,9.49-26.253,1.569-28.513C315.047,210.684,312.3,234.557,312.3,234.557Z" transform="translate(-301.652 -212.593)" fill="#e488bd" fill-rule="evenodd"/>
                    <path id="Trazado_159729" data-name="Trazado 159729" d="M318.68,276.457l-6.948-8.63.269-1.314,8.251,6.919A11.433,11.433,0,0,1,318.68,276.457Z" transform="translate(-301.311 -244.797)" fill="#db62a1" fill-rule="evenodd"/>
                    <path id="Trazado_159730" data-name="Trazado 159730" d="M300.591,272.455c-.723,1.016-2.307,3.127-4.241,3.416-1.2.18-2.5-1.089-3.369-2.089-2.808-3.245-5.126-8-7.1-12.23l-.017-.038c.15.666.275,1.186.353,1.451a80.393,80.393,0,0,0,2.958,8.3c1.23,2.952,2.995,6.054,5.059,7.1a4.674,4.674,0,0,0,2.124.46,5.453,5.453,0,0,0,.679-.056,4.651,4.651,0,0,0,.869-.216,8.66,8.66,0,0,0,4.183-3.382c.414-.56.793-1.127,1.143-1.7l-1.824-2.265C301.151,271.627,300.883,272.044,300.591,272.455Z" transform="translate(-285.858 -241.81)" fill="#5d382e"/>
                    <path id="Trazado_159731" data-name="Trazado 159731" d="M332.3,221.16c-.337,1.764-.683,3.537-1.008,5.125-.615,3.007-1.6,6.4-2.394,9.034-.47,1.565-.933,3.1-1.379,4.442a36.293,36.293,0,0,1-3.06,7.344l1.824,2.265a11.786,11.786,0,0,0,.892-1.42,15.1,15.1,0,0,0,.659-1.545c.006-.018.013-.036.019-.055l0-.005,0-.007q.23-.522.448-1.039C329.854,241.292,334.156,227.656,332.3,221.16Z" transform="translate(-308.91 -217.709)" fill="#b04470"/>
                  </g>
                </g>
              </g>
            </g>
          </g>
        </g>
      </g>
    </g>
  </g>
</svg>
