<svg xmlns="http://www.w3.org/2000/svg" xmlns:xlink="http://www.w3.org/1999/xlink" width="85" height="121" viewBox="0 0 85 121">
  <defs>
    <clipPath id="clip-path">
      <rect id="Rect치ngulo_36716" data-name="Rect치ngulo 36716" width="69" height="69" transform="translate(1028 5922)" fill="#fff"/>
    </clipPath>
  </defs>
  <g id="Grupo_119022" data-name="Grupo 119022" transform="translate(-1020 -5895)">
    <rect id="Rect치ngulo_36007" data-name="Rect치ngulo 36007" width="85" height="121" rx="5" transform="translate(1020 5895)" fill="#ffa648"/>
    <g id="Enmascarar_grupo_250" data-name="Enmascarar grupo 250" clip-path="url(#clip-path)">
      <g id="formacion" transform="translate(1026.887 5920.887)">
        <g id="Grupo_115008" data-name="Grupo 115008">
          <g id="Grupo_114988" data-name="Grupo 114988">
            <path id="Trazado_160439" data-name="Trazado 160439" d="M69,11.129v8.9a2.232,2.232,0,0,1-2.226,2.226H62.323l-4,4a1.574,1.574,0,0,1-2.682-1.113V22.258H53.419a2.232,2.232,0,0,1-2.226-2.226v-8.9A2.232,2.232,0,0,1,53.419,8.9H66.774A2.232,2.232,0,0,1,69,11.129Z" fill="#e6e9ed"/>
          </g>
          <g id="Grupo_114989" data-name="Grupo 114989">
            <path id="Trazado_160440" data-name="Trazado 160440" d="M14.846,58.628l.735,1.469L11.953,61.31a4.426,4.426,0,0,0-2.938,3.25l-.078-.011H6.677a2.232,2.232,0,0,1-2.226-2.226V57.871H14.468l.022-.011c.111.256.234.512.356.768Z" fill="#ccd1d9"/>
          </g>
          <g id="Grupo_114990" data-name="Grupo 114990">
            <path id="Trazado_160441" data-name="Trazado 160441" d="M33.387,57.871v4.452a2.232,2.232,0,0,1-2.226,2.226H28.9l-.078.011a4.426,4.426,0,0,0-2.938-3.25L22.258,60.1l.735-1.469c.122-.256.245-.512.356-.768l.022.011Z" fill="#ccd1d9"/>
          </g>
          <g id="Grupo_114991" data-name="Grupo 114991">
            <path id="Trazado_160442" data-name="Trazado 160442" d="M46.742,57.871V60.1l-1.992.99a4.487,4.487,0,0,0-2.426,3.461H40.065a2.232,2.232,0,0,1-2.226-2.226V57.871Z" fill="#ccd1d9"/>
          </g>
          <g id="Grupo_114992" data-name="Grupo 114992">
            <path id="Trazado_160443" data-name="Trazado 160443" d="M66.774,57.871v4.452a2.232,2.232,0,0,1-2.226,2.226H62.289a4.487,4.487,0,0,0-2.426-3.461l-1.992-.99V57.871Z" fill="#ccd1d9"/>
          </g>
          <g id="Grupo_114993" data-name="Grupo 114993">
            <path id="Trazado_160444" data-name="Trazado 160444" d="M49.869,30.95a8.332,8.332,0,0,0-4.841-2.37l-3.15-.39a3.492,3.492,0,0,1-.957-.267l-.857,7.69-4.452-4.452-4.452,4.452-.868-7.8a3.621,3.621,0,0,1-.857.245,21.46,21.46,0,0,0-3.84.879,19.85,19.85,0,0,0-6.288,4.1,5.288,5.288,0,0,0-.935-1.124l-4.83-4.3-.189.211L9.081,32.1,14.646,37.1a7.174,7.174,0,0,0,8.013,1.091l2.9-1.458a3,3,0,0,1,.033.445V51.194h26.71V36.826A8.315,8.315,0,0,0,49.869,30.95Z" fill="#b4dd7f"/>
          </g>
          <g id="Grupo_114994" data-name="Grupo 114994">
            <path id="Trazado_160445" data-name="Trazado 160445" d="M33.387,44.516V57.871H23.371l-.022-.011a14.161,14.161,0,0,0,1.135-5.553,5.565,5.565,0,1,0-11.129,0A14.161,14.161,0,0,0,14.49,57.86l-.022.011H4.452V44.516A2.232,2.232,0,0,1,6.677,42.29H31.161a2.232,2.232,0,0,1,2.226,2.226Z" fill="#69d6f4"/>
          </g>
          <g id="Grupo_114995" data-name="Grupo 114995">
            <path id="Trazado_160446" data-name="Trazado 160446" d="M66.774,44.516V57.871h-8.9V52.306a5.565,5.565,0,1,0-11.129,0v5.565h-8.9V44.516a2.232,2.232,0,0,1,2.226-2.226H64.548A2.232,2.232,0,0,1,66.774,44.516Z" fill="#69d6f4"/>
          </g>
          <g id="Grupo_114996" data-name="Grupo 114996">
            <path id="Trazado_160447" data-name="Trazado 160447" d="M62.323,65.071V69H42.29V65.071a4.127,4.127,0,0,1,.033-.523,4.487,4.487,0,0,1,2.426-3.461l1.992-.99v4.452H57.871V60.1l1.992.99a4.487,4.487,0,0,1,2.426,3.461A4.127,4.127,0,0,1,62.323,65.071Z" fill="#fcd770"/>
          </g>
          <g id="Grupo_114997" data-name="Grupo 114997">
            <path id="Trazado_160448" data-name="Trazado 160448" d="M28.935,65.528V69H8.9V65.528a3.975,3.975,0,0,1,.111-.968,4.426,4.426,0,0,1,2.938-3.25L15.581,60.1h6.677l3.628,1.213a4.426,4.426,0,0,1,2.938,3.25A3.976,3.976,0,0,1,28.935,65.528Z" fill="#ff826e"/>
          </g>
          <g id="Grupo_114998" data-name="Grupo 114998">
            <path id="Trazado_160449" data-name="Trazado 160449" d="M24.484,52.306a14.161,14.161,0,0,1-1.135,5.553c-.111.256-.234.512-.356.768L22.258,60.1H15.581l-.735-1.469c-.122-.256-.245-.512-.356-.768a14.161,14.161,0,0,1-1.135-5.553,5.565,5.565,0,1,1,11.129,0Z" fill="#b27946"/>
          </g>
          <g id="Grupo_114999" data-name="Grupo 114999">
            <path id="Trazado_160450" data-name="Trazado 160450" d="M57.871,60.1v4.452H46.742V52.306a5.565,5.565,0,1,1,11.129,0V60.1Z" fill="#b27946"/>
          </g>
          <g id="Grupo_115000" data-name="Grupo 115000">
            <path id="Trazado_160451" data-name="Trazado 160451" d="M31.762,26.543l3.851,4.619-4.452,4.452-.868-7.8a3.265,3.265,0,0,0,1.469-1.269Z" fill="#a0d468"/>
          </g>
          <g id="Grupo_115001" data-name="Grupo 115001">
            <path id="Trazado_160452" data-name="Trazado 160452" d="M40.921,27.923l-.857,7.69-4.452-4.452,3.806-4.574a3.5,3.5,0,0,0,1.5,1.335Z" fill="#a0d468"/>
          </g>
          <g id="Grupo_115002" data-name="Grupo 115002">
            <path id="Trazado_160453" data-name="Trazado 160453" d="M45.34,13.978A3.338,3.338,0,0,1,43.4,20.032H41.9a6.458,6.458,0,0,0,.39-2.226V13.355H43.4a3.322,3.322,0,0,1,1.936.623Z" fill="#f0d0b4"/>
          </g>
          <g id="Grupo_115003" data-name="Grupo 115003">
            <path id="Trazado_160454" data-name="Trazado 160454" d="M46.742,9.638a7.4,7.4,0,0,1-1.4,4.34,3.322,3.322,0,0,0-1.936-.623H42.29V11.129H41.7A21.005,21.005,0,0,1,32.274,8.9l-.289.1a4.437,4.437,0,0,0-3.049,4.218v.134H27.823a3.322,3.322,0,0,0-1.936.623A7.413,7.413,0,0,1,31.9,2.226H39.33a7.409,7.409,0,0,1,7.412,7.412Z" fill="#656d78"/>
          </g>
          <g id="Grupo_115004" data-name="Grupo 115004">
            <path id="Trazado_160455" data-name="Trazado 160455" d="M42.29,13.355v4.452a6.458,6.458,0,0,1-.39,2.226,6.693,6.693,0,0,1-2.949,3.561,6.705,6.705,0,0,1-6.677,0,6.827,6.827,0,0,1-1.38-1.068,6.743,6.743,0,0,1-1.959-4.719V13.221A4.437,4.437,0,0,1,31.985,9l.289-.1A21.005,21.005,0,0,0,41.7,11.129h.59Z" fill="#f0d0b4"/>
          </g>
          <g id="Grupo_115005" data-name="Grupo 115005">
            <path id="Trazado_160456" data-name="Trazado 160456" d="M39.419,26.587l-3.806,4.574-3.851-4.619a3.39,3.39,0,0,0,.512-1.781V23.594a6.705,6.705,0,0,0,6.677,0v1.28a3.385,3.385,0,0,0,.467,1.714Z" fill="#f0d0b4"/>
          </g>
          <g id="Grupo_115006" data-name="Grupo 115006">
            <path id="Trazado_160457" data-name="Trazado 160457" d="M29.325,20.032h-1.5a3.337,3.337,0,0,1-2.359-5.7,2.563,2.563,0,0,1,.423-.356,3.322,3.322,0,0,1,1.936-.623h1.113v4.452a6.458,6.458,0,0,0,.39,2.226Z" fill="#f0d0b4"/>
          </g>
          <g id="Grupo_115007" data-name="Grupo 115007">
            <path id="Trazado_160458" data-name="Trazado 160458" d="M13.544,27.611l-.189.211L9.081,32.1,6.588,29.848a3.075,3.075,0,0,1,2.059-5.364h.2a3.089,3.089,0,0,1,2.048.779Z" fill="#f0d0b4"/>
          </g>
        </g>
        <g id="Grupo_115009" data-name="Grupo 115009">
          <path id="Trazado_160459" data-name="Trazado 160459" d="M63.435,65.661h1.113a3.343,3.343,0,0,0,3.339-3.339V44.516a3.343,3.343,0,0,0-3.339-3.339H53.419V36.83a9.364,9.364,0,0,0-2.761-6.665,9.468,9.468,0,0,0-5.5-2.688l-3.148-.394a2.229,2.229,0,0,1-1.95-2.208v-.684a7.832,7.832,0,0,0,2.576-3.045H43.4a4.456,4.456,0,0,0,4.452-4.452,4.41,4.41,0,0,0-1.1-2.9A8.5,8.5,0,0,0,39.327,1.113H31.9a8.5,8.5,0,0,0-7.425,12.682,4.41,4.41,0,0,0-1.1,2.9,4.456,4.456,0,0,0,4.452,4.452h.762a7.832,7.832,0,0,0,2.576,3.045v.566a2.212,2.212,0,0,1-1.877,2.2,23.013,23.013,0,0,0-4.04.926,19.227,19.227,0,0,0-5.8,3.531c-.109-.114-.218-.228-.337-.334L11.63,24.43a4.181,4.181,0,0,0-2.784-1.059h-.2a4.193,4.193,0,0,0-2.806,7.31L13.9,37.936a8.3,8.3,0,0,0,9.259,1.253l1.324-.662v2.651H6.677a3.343,3.343,0,0,0-3.339,3.339V62.323a3.343,3.343,0,0,0,3.339,3.339H7.79v2.226H1.113v2.226h69V67.887H63.435ZM15.843,58.134a13.087,13.087,0,0,1-1.376-5.827,4.452,4.452,0,1,1,8.9,0A13.087,13.087,0,0,1,22,58.134l-.425.85h-5.3Zm8.143,1c.023-.047.039-.1.062-.146h8.225v3.339a1.114,1.114,0,0,1-1.113,1.113H29.622a5.542,5.542,0,0,0-3.379-3.184l-2.416-.8Zm6.062,6.532h1.113A3.343,3.343,0,0,0,34.5,62.323V52.306h2.226V62.323a3.343,3.343,0,0,0,3.339,3.339h1.113v2.226H30.048Zm15.581-6.252-1.376.688a5.529,5.529,0,0,0-2.826,3.339H40.065a1.114,1.114,0,0,1-1.113-1.113V58.984h6.677ZM43.4,65.074a3.32,3.32,0,0,1,1.845-2.986l.381-.19v3.764H58.984V61.9l.381.19a3.32,3.32,0,0,1,1.845,2.986v2.813H43.4Zm4.452-1.638V52.306a4.452,4.452,0,1,1,8.9,0V63.435Zm16.694,0H63.186A5.529,5.529,0,0,0,60.361,60.1l-1.377-.688v-.425h6.677v3.339A1.114,1.114,0,0,1,64.548,63.435Zm1.113-18.919V56.758H58.984V52.306a6.677,6.677,0,1,0-13.355,0v4.452H38.952V44.516A1.114,1.114,0,0,1,40.065,43.4H64.548A1.114,1.114,0,0,1,65.661,44.516ZM39.452,28.292c.09.075.187.14.283.208l-.521,4.689-2.1-2.1ZM43.4,18.919h-.089a7.819,7.819,0,0,0,.089-1.113V14.468a2.226,2.226,0,1,1,0,4.452Zm-15.581,0a2.226,2.226,0,0,1,0-4.452v3.339a7.819,7.819,0,0,0,.089,1.113Zm.093-6.677h-.093a4.383,4.383,0,0,0-1.522.286,6.3,6.3,0,0,1,5.6-9.189h7.429a6.3,6.3,0,0,1,5.6,9.189,4.378,4.378,0,0,0-1.522-.286V10.016H41.7a20.058,20.058,0,0,1-8.931-2.109L32.36,7.7l-.733.245A5.552,5.552,0,0,0,27.916,12.242Zm2.132,5.565V13.225A3.334,3.334,0,0,1,32.2,10.1a22.334,22.334,0,0,0,8.978,2.131v5.571a5.565,5.565,0,0,1-11.129,0Zm5.565,7.79a7.749,7.749,0,0,0,2.261-.337,4.439,4.439,0,0,0,.245,1.156l-2.506,3.007-2.537-3.045a4.448,4.448,0,0,0,.265-1.122,7.751,7.751,0,0,0,2.273.341Zm-3.892,2.632,2.386,2.864-2.1,2.1-.533-4.8C31.559,28.338,31.645,28.29,31.721,28.229ZM6.677,27.564A1.97,1.97,0,0,1,8.645,25.6h.2a1.961,1.961,0,0,1,1.307.5l1.777,1.58L9.038,30.566,7.328,29.027a1.971,1.971,0,0,1-.651-1.462Zm18.593,6.149L23.7,35.287a2.681,2.681,0,0,1,.573.858L22.165,37.2a6.185,6.185,0,0,1-6.774-.916l-4.7-4.226,2.9-2.9,4.033,3.585a3.85,3.85,0,0,1,1.29,2.874h2.226a6.063,6.063,0,0,0-.47-2.323,17.536,17.536,0,0,1,5.273-3.3,20.569,20.569,0,0,1,3.381-.785l.98,8.831,5.3-5.3,5.3,5.3.969-8.726,3,.375a7.239,7.239,0,0,1,4.2,2.053,7.149,7.149,0,0,1,2.109,5.09v4.347H46.742V37.187a2.707,2.707,0,0,1,.787-1.9l-1.574-1.574a4.877,4.877,0,0,0-1.439,3.473v3.991H40.065a3.343,3.343,0,0,0-3.339,3.339v5.565H34.5V44.516a3.343,3.343,0,0,0-3.339-3.339H26.71V37.187A4.877,4.877,0,0,0,25.271,33.713ZM6.677,43.4H31.161a1.114,1.114,0,0,1,1.113,1.113V56.758H24.9a15.279,15.279,0,0,0,.692-4.452,6.677,6.677,0,1,0-13.355,0,15.279,15.279,0,0,0,.692,4.452H5.565V44.516A1.114,1.114,0,0,1,6.677,43.4ZM5.565,62.323V58.984H13.79c.023.048.039.1.062.146l.159.317-2.417.8a5.544,5.544,0,0,0-3.378,3.184H6.677a1.114,1.114,0,0,1-1.113-1.113Zm4.452,3.208A3.337,3.337,0,0,1,12.3,62.363L15.76,61.21h6.32l3.46,1.153a3.337,3.337,0,0,1,2.283,3.168v2.356H10.016Z"/>
          <path id="Trazado_160460" data-name="Trazado 160460" d="M54.532,12.242H65.661v2.226H54.532Z"/>
          <path id="Trazado_160461" data-name="Trazado 160461" d="M54.532,16.694H65.661v2.226H54.532Z"/>
          <path id="Trazado_160462" data-name="Trazado 160462" d="M66.774,7.79H53.419a3.343,3.343,0,0,0-3.339,3.339v8.9a3.343,3.343,0,0,0,3.339,3.339h1.113v1.765a2.687,2.687,0,0,0,4.586,1.9l3.665-3.665h3.991a3.343,3.343,0,0,0,3.339-3.339v-8.9A3.343,3.343,0,0,0,66.774,7.79Zm1.113,12.242a1.115,1.115,0,0,1-1.113,1.113H61.862l-4.317,4.317a.479.479,0,0,1-.787-.326V21.145H53.419a1.115,1.115,0,0,1-1.113-1.113v-8.9a1.115,1.115,0,0,1,1.113-1.113H66.774a1.115,1.115,0,0,1,1.113,1.113Z"/>
        </g>
      </g>
    </g>
  </g>
</svg>
