<svg xmlns="http://www.w3.org/2000/svg" xmlns:xlink="http://www.w3.org/1999/xlink" width="85" height="121" viewBox="0 0 85 121">
  <defs>
    <clipPath id="clip-path">
      <rect id="Rect치ngulo_36717" data-name="Rect치ngulo 36717" width="69" height="69" transform="translate(188 5922)" fill="#fff"/>
    </clipPath>
  </defs>
  <g id="Grupo_119020" data-name="Grupo 119020" transform="translate(-180 -5895)">
    <rect id="Rect치ngulo_35642" data-name="Rect치ngulo 35642" width="85" height="121" rx="5" transform="translate(180 5895)" fill="#ffa648"/>
    <g id="Enmascarar_grupo_248" data-name="Enmascarar grupo 248" clip-path="url(#clip-path)">
      <g id="filled_outline" data-name="filled outline" transform="translate(185.7 5919.7)">
        <path id="Trazado_160413" data-name="Trazado 160413" d="M45.766,13.11l-3.628,3.534a20.132,20.132,0,0,1-9.7,5.226l3.522,15.495A20.315,20.315,0,0,1,46.994,38l4.81,1.667Z" fill="#eae9e4"/>
        <path id="Trazado_160414" data-name="Trazado 160414" d="M37.728,55.37,33.715,37.861l-8.977,1.985,4.013,17.509Z" fill="#bbbab6"/>
        <path id="Trazado_160415" data-name="Trazado 160415" d="M39.1,42.9H29.9l-.363-.358a6.659,6.659,0,0,0-4.676-1.91h-.272a6.659,6.659,0,0,0-4.676,1.91l-.02.02a11,11,0,0,0-3.171,6.256L16.1,53.1,3.45,67.849h18.4l5.914-6.805H35.65a2.268,2.268,0,1,0,0-4.536H36.8a2.269,2.269,0,1,0,0-4.537h1.15a2.269,2.269,0,1,0,0-4.537H39.1a2.269,2.269,0,1,0,0-4.538Z" fill="#f6bb92"/>
        <path id="Trazado_160416" data-name="Trazado 160416" d="M24.738,39.846l-1.122.248A8.052,8.052,0,0,1,14,34.084,7.939,7.939,0,0,1,20.093,24.6l1.122-.248Z" fill="#eae9e4"/>
        <path id="Trazado_160417" data-name="Trazado 160417" d="M35.959,37.365,24.738,39.846,21.215,24.352,32.437,21.87Z" fill="#0a71cd"/>
        <path id="Trazado_160418" data-name="Trazado 160418" d="M54.553,41.39a2.3,2.3,0,0,1-2.747-1.717L45.766,13.11a2.268,2.268,0,0,1,1.741-2.71,2.3,2.3,0,0,1,2.747,1.718L56.293,38.68a2.268,2.268,0,0,1-1.741,2.709Z" fill="#0a71cd"/>
        <path id="Trazado_160419" data-name="Trazado 160419" d="M3.45,69h18.4a1.15,1.15,0,0,0,.868-.4l5.57-6.41H35.65a3.438,3.438,0,0,0,3.45-3.418,3.374,3.374,0,0,0-.436-1.662,3.411,3.411,0,0,0,1.586-2.875,3.374,3.374,0,0,0-.436-1.662A3.411,3.411,0,0,0,41.4,49.7a3.373,3.373,0,0,0-.436-1.662A3.412,3.412,0,0,0,39.1,41.746H35.777l-.685-3.012,1.115-.247a19.145,19.145,0,0,1,10.41.6L50.9,40.578a3.46,3.46,0,0,0,3.9,1.935,3.425,3.425,0,0,0,2.171-1.519,3.371,3.371,0,0,0,.444-2.569L51.376,11.863A3.461,3.461,0,0,0,45.089,10.8a3.372,3.372,0,0,0-.528,1.883L41.336,15.82a18.962,18.962,0,0,1-9.148,4.928l-12.343,2.73a9.133,9.133,0,0,0-5.788,4.047,8.942,8.942,0,0,0-1.18,6.8v.011a9.154,9.154,0,0,0,6.831,6.844,7.949,7.949,0,0,0-.605.537l-.019.019a12.229,12.229,0,0,0-3.5,6.91l-.574,3.96L2.577,67.1A1.15,1.15,0,0,0,3.45,69ZM47.031,12.027a1.141,1.141,0,0,1,.724-.5,1.184,1.184,0,0,1,.256-.029,1.144,1.144,0,0,1,1.121.877l6.039,26.562a1.087,1.087,0,0,1-.144.828,1.162,1.162,0,0,1-2.1-.345L46.888,12.855a1.087,1.087,0,0,1,.144-.828Zm-4.091,5.441,2.159-2.1,5.125,22.542-2.853-.989a21.44,21.44,0,0,0-10.537-.893L34.186,24.378l-.379-1.666a21.237,21.237,0,0,0,9.133-5.244ZM31.569,23.24l3.013,13.252-8.976,1.985L22.593,25.225Zm1.85,18.506H30.371l-.027-.027a7.771,7.771,0,0,0-2.091-1.473l4.594-1.016Zm-13.971-3.04.295-.065a1.15,1.15,0,1,0-.5-2.246l-2.244.5a1.155,1.155,0,0,0-.207.067,6.727,6.727,0,0,1-1.318-2.024l3.259-.721a1.15,1.15,0,1,0-.5-2.246l-3.275.724a6.616,6.616,0,0,1,.307-2.384,1.147,1.147,0,0,0,.215-.026l2.244-.5a1.15,1.15,0,1,0-.5-2.246l-.327.072a6.877,6.877,0,0,1,3.436-1.891h.006L23.36,38.973A6.965,6.965,0,0,1,19.448,38.707ZM16.973,53.853a1.15,1.15,0,0,0,.265-.584l.622-4.29a9.916,9.916,0,0,1,2.842-5.6l.019-.019a5.472,5.472,0,0,1,3.868-1.579h.272a5.472,5.472,0,0,1,3.868,1.579l.363.358a1.15,1.15,0,0,0,.808.331h9.2a1.119,1.119,0,1,1,0,2.237H37.95a1.15,1.15,0,1,0,0,2.3,1.119,1.119,0,1,1,0,2.237H36.8a1.15,1.15,0,1,0,0,2.3,1.119,1.119,0,1,1,0,2.237H35.65a1.15,1.15,0,1,0,0,2.3,1.119,1.119,0,1,1,0,2.237H27.764a1.15,1.15,0,0,0-.868.4l-5.57,6.41H5.951Z"/>
        <path id="Trazado_160420" data-name="Trazado 160420" d="M57.521,21.852a1.149,1.149,0,0,0,1.351.906l11.5-2.268a1.15,1.15,0,1,0-.446-2.257L58.427,20.5a1.15,1.15,0,0,0-.906,1.351Z"/>
        <path id="Trazado_160421" data-name="Trazado 160421" d="M56.629,14.441a1.15,1.15,0,0,0,1.622.119l9.2-7.94a1.15,1.15,0,0,0-1.5-1.741l-9.2,7.94a1.15,1.15,0,0,0-.119,1.622Z"/>
        <path id="Trazado_160422" data-name="Trazado 160422" d="M70.476,31.529l-10.35-3.063a1.15,1.15,0,1,0-.653,2.206l10.35,3.062a1.15,1.15,0,1,0,.653-2.205Z"/>
      </g>
    </g>
  </g>
</svg>
