<svg xmlns="http://www.w3.org/2000/svg" xmlns:xlink="http://www.w3.org/1999/xlink" width="295" height="181" viewBox="0 0 295 181">
  <defs>
    <clipPath id="clip-path">
      <path id="Trazado_159758" data-name="Trazado 159758" d="M185.458,312.541c.232,4.892-.1,9.888-.1,14.91,0,5,2.555,10,2.424,14.921,0,0,8.821.273,14.682.286.452-6.11.035-12.576,0-18.947-.019-3.151-.206-6.374-.462-9.374a27.243,27.243,0,0,0-1.69-8.128c-2-4.74-5.694-7.468-10.7-9.224-10.486-3.679-30.851-5.092-32.221-5.481a42.067,42.067,0,0,1-9.263,1.091c-.39.081-.634.841-.769,1.3a22.535,22.535,0,0,0-.308,9.173,21.626,21.626,0,0,0,.717,3.34,7.6,7.6,0,0,0,3.688,4.489A17.7,17.7,0,0,0,158,312.541c4.917.551,5.857.35,11.27.35C174.8,312.891,179.857,312.616,185.458,312.541Z" transform="translate(-146.722 -291.505)" fill="none" clip-rule="evenodd"/>
    </clipPath>
    <clipPath id="clip-path-2">
      <path id="Trazado_159773" data-name="Trazado 159773" d="M184.608,200.966c.113.264.484.274.7.328,1.815.46,3.77.723,5.677,1.089,2.128.408,4.309.836,6.488,1.244,2.117.4,4.3.866,6.519,1.169a32,32,0,0,0,6.855.344c5.038-.418,18.048-9.291,21.986-12.238a38.011,38.011,0,0,0-2.744-5.927c-6.856,2.066-6.352,2.218-13.315,4.8-1.678.622-3.375,1.228-5.072,1.825a12.439,12.439,0,0,1-1.839.65,6.2,6.2,0,0,1-1.75-.319c-3.993-.841-8.189-1.756-12.1-2.61a89.279,89.279,0,0,0-10.591-1.691,17.968,17.968,0,0,0-3.692-.061c-.076.009-.165-.011-.233.036-.286.2-.124.3-.042.639.394,1.628,1.1,3.57,1.495,5.024C183.546,197.451,184.14,199.3,184.608,200.966Z" transform="translate(-181.337 -186.974)" fill="none" clip-rule="evenodd"/>
    </clipPath>
    <clipPath id="clip-path-3">
      <path id="Trazado_159813" data-name="Trazado 159813" d="M187.24,230.987a29.619,29.619,0,0,0,1.736-9.292,223.392,223.392,0,0,0-27.54-4.247c-1.884-1.847-4.133-3.68-6.36-5.57-2.1-1.785-4.372-3.688-6.866-5.419a48.662,48.662,0,0,0-7.847-4.415c-2.636-1.177-6.386-2.716-8.307-.834a3.167,3.167,0,0,0-.693,1.188,6.093,6.093,0,0,0,.907,3.574,25.669,25.669,0,0,0,2.252,3.279,23.021,23.021,0,0,0,2.8,3.157c5.291,4.845,11.638,10.537,18.939,14.172a31.256,31.256,0,0,0,8.172,3.059,76.574,76.574,0,0,0,7.687.845A145.3,145.3,0,0,0,187.24,230.987Z" transform="translate(-131.311 -200.328)" fill="none" clip-rule="evenodd"/>
    </clipPath>
    <clipPath id="clip-path-4">
      <path id="Trazado_159824" data-name="Trazado 159824" d="M217.813,106.231a4.694,4.694,0,1,0-4.694,4.694A4.694,4.694,0,0,0,217.813,106.231Z" transform="translate(-208.426 -101.537)" fill="none"/>
    </clipPath>
    <clipPath id="clip-path-5">
      <circle id="Elipse_4977" data-name="Elipse 4977" cx="9.106" cy="9.106" r="9.106" transform="translate(0 12.878) rotate(-45)" fill="none"/>
    </clipPath>
    <clipPath id="clip-path-6">
      <path id="Trazado_159852" data-name="Trazado 159852" d="M422.11,131.062a4.661,4.661,0,1,0-4.661,4.661A4.661,4.661,0,0,0,422.11,131.062Z" transform="translate(-412.788 -126.401)" fill="none"/>
    </clipPath>
  </defs>
  <g id="Grupo_119014" data-name="Grupo 119014" transform="translate(-5494 10809)">
    <g id="Grupo_114267" data-name="Grupo 114267">
      <rect id="Rectángulo_36658" data-name="Rectángulo 36658" width="295" height="181" rx="20" transform="translate(5494 -10809)" fill="#8d8cbe"/>
    </g>
    <g id="Grupo_114266" data-name="Grupo 114266" transform="translate(5572.472 -10783.86)">
      <circle id="Elipse_4975" data-name="Elipse 4975" cx="79.078" cy="79.078" r="79.078" transform="translate(-10.821 -11.63)" fill="#d9d9e9"/>
      <g id="OBJECTS" transform="translate(-16.702 -14.806)">
        <g id="Grupo_114265" data-name="Grupo 114265">
          <g id="Grupo_114223" data-name="Grupo 114223" transform="translate(18.986 34.521)">
            <g id="Grupo_114171" data-name="Grupo 114171" transform="translate(0 43.094)">
              <g id="Grupo_114167" data-name="Grupo 114167" transform="translate(0 47.924)">
                <g id="Grupo_114164" data-name="Grupo 114164" transform="translate(0 25.843)">
                  <path id="Trazado_159733" data-name="Trazado 159733" d="M129.722,433.27a2.861,2.861,0,0,0-2.858-2.858H93.326a2.861,2.861,0,0,0-2.858,2.858v2.39h-1.6v-2.39a4.461,4.461,0,0,1,4.457-4.457h33.539a4.46,4.46,0,0,1,4.455,4.457v2.39h-1.6Z" transform="translate(-85.031 -428.813)" fill="#1e1e77"/>
                  <g id="Grupo_114158" data-name="Grupo 114158" transform="translate(40.839 4.359)">
                    <path id="Trazado_159734" data-name="Trazado 159734" d="M187.547,449.906a2.726,2.726,0,0,1-2.725-2.725h5.449A2.724,2.724,0,0,1,187.547,449.906Z" transform="translate(-184.822 -444.457)" fill="#1e1e77"/>
                    <path id="Trazado_159735" data-name="Trazado 159735" d="M187.547,440.117a2.723,2.723,0,0,1,2.724,2.724h-5.449A2.724,2.724,0,0,1,187.547,440.117Z" transform="translate(-184.822 -440.117)" fill="#2f2fa7"/>
                  </g>
                  <g id="Grupo_114160" data-name="Grupo 114160" transform="translate(30.285 0.199)">
                    <rect id="Rectángulo_36810" data-name="Rectángulo 36810" width="1.597" height="6.648" transform="translate(3.85)" fill="#1e1e77"/>
                    <g id="Grupo_114159" data-name="Grupo 114159" transform="translate(0 4.16)">
                      <path id="Trazado_159736" data-name="Trazado 159736" d="M160.177,449.906a2.724,2.724,0,0,1-2.724-2.725H162.9A2.724,2.724,0,0,1,160.177,449.906Z" transform="translate(-157.453 -444.457)" fill="#1e1e77"/>
                      <path id="Trazado_159737" data-name="Trazado 159737" d="M160.177,440.117a2.722,2.722,0,0,1,2.723,2.724h-5.447A2.723,2.723,0,0,1,160.177,440.117Z" transform="translate(-157.453 -440.117)" fill="#2f2fa7"/>
                    </g>
                  </g>
                  <g id="Grupo_114162" data-name="Grupo 114162" transform="translate(10.578 0.199)">
                    <rect id="Rectángulo_36811" data-name="Rectángulo 36811" width="1.598" height="6.648" transform="translate(3.851)" fill="#1e1e77"/>
                    <g id="Grupo_114161" data-name="Grupo 114161" transform="translate(0 4.16)">
                      <path id="Trazado_159738" data-name="Trazado 159738" d="M109.072,449.906a2.725,2.725,0,0,1-2.724-2.725H111.8A2.725,2.725,0,0,1,109.072,449.906Z" transform="translate(-106.348 -444.457)" fill="#1e1e77"/>
                      <path id="Trazado_159739" data-name="Trazado 159739" d="M109.072,440.117a2.724,2.724,0,0,1,2.724,2.724h-5.448A2.723,2.723,0,0,1,109.072,440.117Z" transform="translate(-106.348 -440.117)" fill="#2f2fa7"/>
                    </g>
                  </g>
                  <g id="Grupo_114163" data-name="Grupo 114163" transform="translate(0 4.359)">
                    <path id="Trazado_159740" data-name="Trazado 159740" d="M81.641,449.906a2.725,2.725,0,0,1-2.724-2.725h5.448A2.724,2.724,0,0,1,81.641,449.906Z" transform="translate(-78.917 -444.457)" fill="#1e1e77"/>
                    <path id="Trazado_159741" data-name="Trazado 159741" d="M81.641,440.117a2.722,2.722,0,0,1,2.724,2.724H78.917A2.723,2.723,0,0,1,81.641,440.117Z" transform="translate(-78.917 -440.117)" fill="#2f2fa7"/>
                  </g>
                </g>
                <g id="Grupo_114166" data-name="Grupo 114166" transform="translate(13.739)">
                  <g id="Grupo_114165" data-name="Grupo 114165">
                    <path id="Trazado_159742" data-name="Trazado 159742" d="M114.546,361.859c0,2.792,2.751,2.94,6.008,2.94h10.353c2.628,0,4.866-.069,5.625-1.789a2.475,2.475,0,0,0,.193-.641c.031-.3.11-.445-.193-.511a1.9,1.9,0,0,0-.255-.063C129.372,361.952,121.52,361.927,114.546,361.859Z" transform="translate(-114.546 -361.796)" fill="#1e1e77" fill-rule="evenodd"/>
                  </g>
                  <path id="Trazado_159743" data-name="Trazado 159743" d="M136.339,410.5a1.544,1.544,0,0,0,1.544,1.545h2.393a1.544,1.544,0,0,0,1.544-1.545v-13.5a1.544,1.544,0,0,0-1.544-1.543h-2.393a1.545,1.545,0,0,0-1.544,1.543Z" transform="translate(-127.935 -382.48)" fill="#1e1e77"/>
                  <rect id="Rectángulo_36812" data-name="Rectángulo 36812" width="2.529" height="9.054" transform="translate(9.868 4.893)" fill="#1e1e77"/>
                  <rect id="Rectángulo_36813" data-name="Rectángulo 36813" width="5.57" height="2.379" transform="translate(8.314 3.003)" fill="#1e1e77"/>
                </g>
              </g>
              <g id="Grupo_114170" data-name="Grupo 114170" transform="translate(0.546)">
                <g id="Grupo_114168" data-name="Grupo 114168" transform="translate(0.029)">
                  <path id="Trazado_159744" data-name="Trazado 159744" d="M110.4,237.567c-.875-.114-2.466,0-3.644,0H85.279a10.168,10.168,0,0,0-3.069.129,2.823,2.823,0,0,0-1.661,1.534,7.786,7.786,0,0,0,0,2.877c.9,10.812,1.807,20.714,2.684,31.511a13.561,13.561,0,0,0,3.707,8.69,9.745,9.745,0,0,0,3.771,2.493,21.075,21.075,0,0,0,5.562.64c3.564.17,8.012.381,12.015.381,5.8,0,12.9.039,18.216-.062,1.009-.019,2.113,0,3.131,0a12.508,12.508,0,0,0,2.876-.064,2.623,2.623,0,0,0,1.917-1.789,2.777,2.777,0,0,0-1.47-3.324,10.012,10.012,0,0,0-3.195-.321c-2.195-.076-4.511-.151-6.776-.255a11.938,11.938,0,0,1-3.9-.511,5.9,5.9,0,0,1-2.748-3.134,17.428,17.428,0,0,1-.831-4.983c-.916-10.047-1.631-19.527-2.557-29.593a10.414,10.414,0,0,0-.383-2.493A2.471,2.471,0,0,0,110.4,237.567Z" transform="translate(-80.406 -237.516)" fill="#cecef4" fill-rule="evenodd"/>
                </g>
                <g id="Grupo_114169" data-name="Grupo 114169" transform="translate(0 0.031)">
                  <path id="Trazado_159745" data-name="Trazado 159745" d="M83.445,237.616a2.874,2.874,0,0,0-2.941,1.662c-.4,1.124.02,2.892.128,4.155.834,9.749,1.7,19.431,2.493,29.017a26.1,26.1,0,0,0,.511,4.026,12.121,12.121,0,0,0,5.689,7.8,10.356,10.356,0,0,0,3.515,1.022c2.636.34,5.637.325,8.5.447a16.153,16.153,0,0,0,4.218,0,2.719,2.719,0,0,0,.448-5.113,10.193,10.193,0,0,0-3.2-.321c-2.3-.08-4.46-.148-6.776-.254a14.1,14.1,0,0,1-3.514-.384,5.611,5.611,0,0,1-2.748-2.429c-1.273-2.235-1.285-6.053-1.536-9.074-.762-9.205-1.527-17.566-2.3-26.845C85.769,239.308,85.388,237.873,83.445,237.616Z" transform="translate(-80.332 -237.596)" fill="#a4a4e4" fill-rule="evenodd"/>
                </g>
              </g>
            </g>
            <g id="Grupo_114222" data-name="Grupo 114222" transform="translate(9.638)">
              <g id="Grupo_114205" data-name="Grupo 114205">
                <g id="Grupo_114185" data-name="Grupo 114185" transform="translate(2.459 63.162)">
                  <g id="Grupo_114175" data-name="Grupo 114175" transform="translate(58.925 48.678)">
                    <g id="Grupo_114172" data-name="Grupo 114172" transform="translate(0.409)">
                      <path id="Trazado_159746" data-name="Trazado 159746" d="M264.815,415.926l8.32-.132,1.078,10.375h-10.06Z" transform="translate(-264.153 -415.794)" fill="#e2b1ce" fill-rule="evenodd"/>
                      <path id="Trazado_159747" data-name="Trazado 159747" d="M274.273,422.679c-3.77,2.274-8.807-.364-8.807-.364Z" transform="translate(-264.96 -419.8)" fill="#bb78a2" fill-rule="evenodd"/>
                    </g>
                    <g id="Grupo_114174" data-name="Grupo 114174" transform="translate(0 5.09)">
                      <path id="Trazado_159748" data-name="Trazado 159748" d="M273.221,428.994c-.4.023-1.8-.01-2.326.5-.541.531-.4,1.4-.44,2.512-2.664-.123-3.366-2.752-6.915-2.2a55.315,55.315,0,0,0-.442,8.993c7.126.146,14.523.02,21.756.062a6.6,6.6,0,0,0-.63-1.885,6.5,6.5,0,0,0-3.961-2.829c-2.225-.737-4.833-1.414-6.1-3.271A13.805,13.805,0,0,1,273.221,428.994Z" transform="translate(-263.092 -428.994)" fill="#af5091" fill-rule="evenodd"/>
                      <g id="Grupo_114173" data-name="Grupo 114173" transform="translate(8.714 1.995)">
                        <path id="Trazado_159749" data-name="Trazado 159749" d="M285.734,435.409c.183.412,1.163-.077,1.9-.194.433-.07,1.475-.033,1.556-.431.142-.714-1.421-.683-2.081-.516C286.473,434.431,285.465,434.806,285.734,435.409Z" transform="translate(-285.689 -434.169)" fill="#2f2fa7" fill-rule="evenodd"/>
                        <path id="Trazado_159750" data-name="Trazado 159750" d="M288.4,439.295c.371.5,1.4-.092,2.137-.251.386-.085.817-.138,1.194-.188s1.026-.007,1.007-.315c-.04-.662-1.125-.714-1.885-.629C289.887,438.019,287.849,438.55,288.4,439.295Z" transform="translate(-287.297 -436.449)" fill="#2f2fa7" fill-rule="evenodd"/>
                      </g>
                    </g>
                  </g>
                  <g id="Grupo_114179" data-name="Grupo 114179" transform="translate(41.558 48.678)">
                    <g id="Grupo_114176" data-name="Grupo 114176" transform="translate(0.408)">
                      <path id="Trazado_159751" data-name="Trazado 159751" d="M219.778,415.926l8.319-.132,1.078,10.375h-10.06Z" transform="translate(-219.116 -415.794)" fill="#e2b1ce" fill-rule="evenodd"/>
                      <path id="Trazado_159752" data-name="Trazado 159752" d="M229.238,422.679c-3.771,2.274-8.808-.364-8.808-.364Z" transform="translate(-219.923 -419.8)" fill="#bb78a2" fill-rule="evenodd"/>
                    </g>
                    <g id="Grupo_114178" data-name="Grupo 114178" transform="translate(0 5.09)">
                      <path id="Trazado_159753" data-name="Trazado 159753" d="M228.185,428.994c-.4.023-1.8-.01-2.325.5-.542.531-.4,1.4-.44,2.512-2.664-.123-3.366-2.752-6.915-2.2a55.276,55.276,0,0,0-.442,8.993c7.125.146,14.523.02,21.755.062a6.608,6.608,0,0,0-.629-1.885,6.5,6.5,0,0,0-3.961-2.829c-2.225-.737-4.834-1.414-6.1-3.271A13.808,13.808,0,0,1,228.185,428.994Z" transform="translate(-218.057 -428.994)" fill="#c167a0" fill-rule="evenodd"/>
                      <g id="Grupo_114177" data-name="Grupo 114177" transform="translate(8.714 1.995)">
                        <path id="Trazado_159754" data-name="Trazado 159754" d="M240.7,435.409c.183.412,1.163-.077,1.9-.194.433-.07,1.474-.033,1.556-.431.142-.714-1.421-.683-2.081-.516C241.437,434.431,240.43,434.806,240.7,435.409Z" transform="translate(-240.654 -434.169)" fill="#2f2fa7" fill-rule="evenodd"/>
                        <path id="Trazado_159755" data-name="Trazado 159755" d="M243.361,439.295c.371.5,1.4-.092,2.137-.251.387-.085.817-.138,1.194-.188.361-.048,1.026-.007,1.008-.315-.041-.662-1.126-.714-1.887-.629C244.85,438.019,242.812,438.55,243.361,439.295Z" transform="translate(-242.26 -436.449)" fill="#2f2fa7" fill-rule="evenodd"/>
                      </g>
                    </g>
                  </g>
                  <g id="Grupo_114184" data-name="Grupo 114184">
                    <g id="Grupo_114182" data-name="Grupo 114182" transform="translate(14.05 0.75)">
                      <path id="Trazado_159756" data-name="Trazado 159756" d="M185.458,312.541c.232,4.892-.1,9.888-.1,14.91,0,5,3.061,10,2.93,14.925l14.177.283s.035-12.576,0-18.947c-.019-3.151-.206-6.374-.462-9.374a27.243,27.243,0,0,0-1.69-8.128c-2-4.74-5.694-7.468-10.7-9.224-10.486-3.679-30.851-5.092-32.221-5.481a42.067,42.067,0,0,1-9.263,1.091c-.39.081-.634.841-.769,1.3a22.535,22.535,0,0,0-.308,9.173,21.626,21.626,0,0,0,.717,3.34,7.6,7.6,0,0,0,3.688,4.489A17.7,17.7,0,0,0,158,312.541c4.917.551,5.857.35,11.27.35C174.8,312.891,179.857,312.616,185.458,312.541Z" transform="translate(-146.722 -291.505)" fill="#2f2fa7" fill-rule="evenodd"/>
                      <g id="Grupo_114181" data-name="Grupo 114181">
                        <g id="Grupo_114180" data-name="Grupo 114180" clip-path="url(#clip-path)">
                          <path id="Trazado_159757" data-name="Trazado 159757" d="M193.061,300.46c3.326,1.646,6.191,3.772,7.784,7.031a17.56,17.56,0,0,1,1.178,3.69,76.581,76.581,0,0,1,1.434,8.327,111.626,111.626,0,0,1,.257,18.6c-.105,2.131-.372,4.475-.461,6.831-.033.856.1,1.722.461,1.944.514.318,2.134.044,2.815.051.945.008,2.33.286,2.919-.151.43-.317.509-1.244.564-2.143.147-2.463.194-5.288.307-7.729.162-3.467.358-6.844.358-10.321a57.972,57.972,0,0,0-.819-9.873,33.729,33.729,0,0,0-2.407-8.327c-5.576-11.983-28.024-12.666-30.984-13.013C176.206,295.347,191.956,299.915,193.061,300.46Z" transform="translate(-164.995 -293.884)" fill="#1e1e77" fill-rule="evenodd"/>
                        </g>
                      </g>
                    </g>
                    <g id="Grupo_114183" data-name="Grupo 114183">
                      <path id="Trazado_159759" data-name="Trazado 159759" d="M149.021,313.407c.234,4.749-.1,9.6-.1,14.479,0,4.862-.113,9.27-.243,14.048,0,0,11.508.426,17.37.441,0,0,.012-11.932-.021-18.12-.017-3.061-.2-6.19-.462-9.106a25.833,25.833,0,0,0-1.691-7.894c-2-4.6-5.755-7.1-10.7-8.96-3.555-1.334-19.742-4.866-21.113-5.243-4.553,1.125-19.67-1.547-19.67-1.547-.391.078-1.338,3.343-1.472,3.786a21.266,21.266,0,0,0-.307,8.912,20.247,20.247,0,0,0,.717,3.247,7.436,7.436,0,0,0,3.687,4.358,18.143,18.143,0,0,0,6.555,1.6c4.916.533,10.822.338,16.235.338C143.325,313.745,143.421,313.476,149.021,313.407Z" transform="translate(-110.286 -290.755)" fill="#2f2fa7" fill-rule="evenodd"/>
                      <path id="Trazado_159760" data-name="Trazado 159760" d="M148.92,326.691c0-4.877.336-9.731.1-14.479-5.6.069-5.7.338-11.218.338-5.413,0-11.319.195-16.235-.338a18.143,18.143,0,0,1-6.555-1.6,7.436,7.436,0,0,1-3.687-4.358,20.249,20.249,0,0,1-.717-3.246,21.266,21.266,0,0,1,.307-8.912c.134-.443,1.386-4.455,1.775-4.534a9.6,9.6,0,0,1,1.522.374,33.828,33.828,0,0,0-.634,4.695c-.028,1.376.019,2.746.1,4.068a18.745,18.745,0,0,0,.46,3.729c.687,2.446,3.09,3.983,5.684,4.794a40.073,40.073,0,0,0,9.322,1.356c6.852.41,13.729.748,20.485,1.016,3.806.153,3,6.08,3.025,7.7.084,5.176-.205,9.538-.205,14.965a69.85,69.85,0,0,1-.308,7.363c-.068.6-.106,1.018-.153,1.23l-3.315-.116C148.807,335.961,148.92,331.553,148.92,326.691Z" transform="translate(-110.286 -289.559)" fill="#1e1e77"/>
                    </g>
                  </g>
                </g>
                <g id="Grupo_114191" data-name="Grupo 114191" transform="translate(29.857 7.769)">
                  <g id="Grupo_114187" data-name="Grupo 114187" transform="translate(40.084)">
                    <g id="Grupo_114186" data-name="Grupo 114186">
                      <path id="Trazado_159761" data-name="Trazado 159761" d="M285.285,161.506a1.869,1.869,0,0,0,1.79,1.943l6.226-.687a1.867,1.867,0,0,0,1.936-1.794l.515-13.113a1.87,1.87,0,0,0-1.79-1.943l-6.224.686a1.867,1.867,0,0,0-1.937,1.793Z" transform="translate(-285.283 -145.912)" fill="#2f2fa7" fill-rule="evenodd"/>
                      <path id="Trazado_159762" data-name="Trazado 159762" d="M287.559,147.7a1.91,1.91,0,0,0-.776,1.466l-.526,13.432a1.912,1.912,0,0,0,1.314,1.895l-.494.055a1.868,1.868,0,0,1-1.789-1.943l.514-13.114a1.864,1.864,0,0,1,1.757-1.79" transform="translate(-285.285 -147.009)" fill="#1e1e77"/>
                      <path id="Trazado_159763" data-name="Trazado 159763" d="M307.936,150.263a.394.394,0,0,0-.113-.777l-.634.044a.394.394,0,0,0,.057.787l.634-.046a.489.489,0,0,0,.057-.008" transform="translate(-298.518 -148.107)" fill="#fff"/>
                      <path id="Trazado_159764" data-name="Trazado 159764" d="M304.784,150.489a.393.393,0,0,0-.113-.776l-.114.008a.394.394,0,0,0,.057.786l.115-.008a.269.269,0,0,0,.056-.009" transform="translate(-296.9 -148.246)" fill="#fff"/>
                    </g>
                    <path id="Trazado_159765" data-name="Trazado 159765" d="M297.727,163.038a3.742,3.742,0,0,1,1.684.224c.008.314-.182.607-.187.974a3.4,3.4,0,0,0,1.364,2.657c.015,0-.346,3.076-.346,3.076l1.466,3.891c6.21-4.462,4.105-10.842,3.3-13.415-1.055-3.373-3.3-5.547-6.079-6-.258-.042-.912.152-.935.463-.034.489.567.754.855.924.406.239.745.391,1.026.57.691.442,1.88,1.506,1.758,1.7-.1.163-.869-.255-1.282-.372a5.477,5.477,0,0,0-3.333.028c-.321.134-.7.474-.643.738.11.531,1.752.441,2.192.489.854.094,2.183.423,2.1.644-.047.125-.523-.049-.775-.106a5.538,5.538,0,0,0-2.652-.06c-.4.114-1.239.548-1.147,1,.121.6,1.372.437,1.923.47.348.02.725.08,1.044.126s.924.133.878.344c-.035.171-.351.073-.514.047a4.219,4.219,0,0,0-2.393.091c-.353.13-1.145.618-.939,1.125C296.25,163.054,297.286,163.022,297.727,163.038Z" transform="translate(-291.905 -151.15)" fill="#e2b1ce" fill-rule="evenodd"/>
                    <path id="Trazado_159766" data-name="Trazado 159766" d="M297.62,174.95a4.8,4.8,0,0,1,1.7.265,4.709,4.709,0,0,0-.15.611,3.324,3.324,0,0,0,1.353,2.967h.059a7.429,7.429,0,0,1-.76-1.637,5.53,5.53,0,0,1,.04-2.389c-.669.005-3.071.224-3.5-.958-.23.219-.478.427-.378.731C296.126,174.993,297.021,174.923,297.62,174.95Z" transform="translate(-291.839 -163.051)" fill="#bb78a2" fill-rule="evenodd"/>
                    <path id="Trazado_159767" data-name="Trazado 159767" d="M302.234,154.5c-.819-.24-1.768.1-1.128.937a4.713,4.713,0,0,0,1.3.764,9.028,9.028,0,0,1,1.455.976,4.521,4.521,0,0,0-1.27-1.111c-.605-.424-1.656-1.183-.353-1.566" transform="translate(-294.875 -151.139)" fill="#bb78a2" fill-rule="evenodd"/>
                    <path id="Trazado_159768" data-name="Trazado 159768" d="M297.408,163.413c-.132-.183-.052-.3.092-.431-.575.191-1.026.763-.592,1.045a3.562,3.562,0,0,0,1.59.2,9.85,9.85,0,0,1,1.807.259c-.695-.368-2.336-.3-2.9-1.076" transform="translate(-292.319 -156.399)" fill="#bb78a2" fill-rule="evenodd"/>
                    <path id="Trazado_159769" data-name="Trazado 159769" d="M296.55,168.343c-.165.088-.6.426-.43.755.231.438,1.172.424,1.839.443a5.811,5.811,0,0,1,1.9.257c-.307-.487-2.367-.349-3.234-1.011a.323.323,0,0,1-.071-.445" transform="translate(-291.916 -159.693)" fill="#bb78a2" fill-rule="evenodd"/>
                  </g>
                  <g id="Grupo_114190" data-name="Grupo 114190" transform="translate(0 15.834)">
                    <path id="Trazado_159770" data-name="Trazado 159770" d="M184.608,200.966c.113.264.484.274.7.328,1.815.46,3.77.723,5.677,1.089,2.128.408,4.309.836,6.488,1.244,2.117.4,4.3.866,6.519,1.169a32,32,0,0,0,6.855.344c5.038-.418,18.048-9.291,21.986-12.238a38.011,38.011,0,0,0-2.744-5.927c-6.856,2.066-6.352,2.218-13.315,4.8-1.678.622-3.375,1.228-5.072,1.825a12.439,12.439,0,0,1-1.839.65,6.2,6.2,0,0,1-1.75-.319c-3.993-.841-8.189-1.756-12.1-2.61a89.279,89.279,0,0,0-10.591-1.691,17.968,17.968,0,0,0-3.692-.061c-.076.009-.165-.011-.233.036-.286.2-.124.3-.042.639.394,1.628,1.1,3.57,1.495,5.024C183.546,197.451,184.14,199.3,184.608,200.966Z" transform="translate(-181.337 -186.974)" fill="#c167a0" fill-rule="evenodd"/>
                    <path id="Trazado_159771" data-name="Trazado 159771" d="M184.608,204.979q-.08-.283-.165-.575c-.023-.08-.046-.16-.071-.242-.034-.117-.069-.235-.1-.354-.029-.1-.057-.2-.088-.3s-.056-.19-.085-.286c-.034-.114-.067-.228-.1-.343h0c-.329-1.1-.685-2.291-1.041-3.6-.394-1.454-1.1-3.4-1.495-5.024-.083-.343-.244-.443.042-.639.068-.047.158-.027.233-.036a12.764,12.764,0,0,1,2.072-.055c3.323,3.937,2.972,9.782,12.641,12.6,2.134.623,4.239,1.138,6.431,1.58a31.942,31.942,0,0,0,6.82.779c3.622-.069,11.605-4.211,17.355-7.543-5.467,3.614-12.732,7.921-16.206,8.21a32,32,0,0,1-6.855-.344c-2.216-.3-4.4-.773-6.519-1.169-2.179-.408-4.361-.836-6.488-1.244-1.686-.324-3.412-.568-5.044-.937-.151-.033-.46-.093-.744-.175C184.981,205.243,184.7,205.2,184.608,204.979Z" transform="translate(-181.337 -190.987)" fill="#9a466e" fill-rule="evenodd"/>
                    <g id="Grupo_114189" data-name="Grupo 114189">
                      <g id="Grupo_114188" data-name="Grupo 114188" clip-path="url(#clip-path-2)">
                        <path id="Trazado_159772" data-name="Trazado 159772" d="M251.114,202.173a20.12,20.12,0,0,0,2.867,4.447c.308.394.59,1.089,1.2.925.174-.384-.088-.89-.247-1.325A41.629,41.629,0,0,0,253,201.937,1.937,1.937,0,0,0,251.114,202.173Z" transform="translate(-224.207 -196.085)" fill="#9a466e" fill-rule="evenodd"/>
                      </g>
                    </g>
                  </g>
                </g>
                <path id="Trazado_159774" data-name="Trazado 159774" d="M106.432,236.919a49.378,49.378,0,0,0,11.329-2.162c7.235-2.457,9.909-4.794,13.516-6.854-.239-.6-.535-1.232-.853-1.878a10.7,10.7,0,0,1-.884-1.8c-.113-.469.4-1.331.667-1.958,1.89-4.509,3.063-6.781,5.29-11.192a26.739,26.739,0,0,0,2.764-7.749,16.2,16.2,0,0,0-.814-9.163,9.527,9.527,0,0,0-6.422-5.809,16.183,16.183,0,0,0-4.238-.327,13.127,13.127,0,0,0-2.333.361,22.214,22.214,0,0,0-13.529,9.923,40.853,40.853,0,0,0-2.727,5.621c-.795,1.952-1.544,3.91-2.127,5.867a56.153,56.153,0,0,0-1.355,6.224,49.605,49.605,0,0,0-.777,6.417C103.731,226.93,104.7,231.643,106.432,236.919Z" transform="translate(-103.91 -164.005)" fill="#af5091" fill-rule="evenodd"/>
                <g id="Grupo_114204" data-name="Grupo 114204" transform="translate(16.36)">
                  <g id="Grupo_114202" data-name="Grupo 114202">
                    <g id="Grupo_114200" data-name="Grupo 114200" transform="translate(0.108 2.748)">
                      <path id="Trazado_159775" data-name="Trazado 159775" d="M158.381,132.95a7.877,7.877,0,0,0-6.847,2.5,8.167,8.167,0,0,0-2.711,5.021c-.3,4.5,2.38,7.1,2.5,7.584.085.34-.289,5.232-.529,9.33a43.058,43.058,0,0,0,4.3,1.846c.758.3,1.491.68,2.23,1.037a3.367,3.367,0,0,1,3.014-.31c.067-3.235.127-7.688.127-7.688a16.407,16.407,0,0,0,1.561-1c2.287-1.765,2.387-4.157,2.562-8.314C164.768,138.48,165.188,133.717,158.381,132.95Z" transform="translate(-147.958 -132.89)" fill="#e2b1ce" fill-rule="evenodd"/>
                      <path id="Trazado_159776" data-name="Trazado 159776" d="M168.846,180.26a6.579,6.579,0,0,1-6.394-1.818,5.548,5.548,0,0,0,6.365,4.086Z" transform="translate(-156.345 -160.876)" fill="#bb78a2"/>
                      <g id="Grupo_114193" data-name="Grupo 114193" transform="translate(0 8.491)">
                        <path id="Trazado_159777" data-name="Trazado 159777" d="M146.616,156.9c-.042,1.156,2.03,4.7,3.363,4.685,1.484-.02.689-3.467.732-4.624s-.031-2.053-.031-2.053c-.939.225-2.421.087-2.864.237A1.612,1.612,0,0,0,146.616,156.9Z" transform="translate(-146.615 -154.908)" fill="#e2b1ce" fill-rule="evenodd"/>
                        <g id="Grupo_114192" data-name="Grupo 114192" transform="translate(1.359 1.056)">
                          <path id="Trazado_159778" data-name="Trazado 159778" d="M152.566,160.426a.364.364,0,0,0,.072,0,.287.287,0,0,0,.221-.337,3.121,3.121,0,0,0-1.984-2.422.292.292,0,0,0-.368.171.276.276,0,0,0,.171.36,2.57,2.57,0,0,1,1.616,2.011A.287.287,0,0,0,152.566,160.426Z" transform="translate(-150.354 -157.647)" fill="#bb78a2"/>
                          <path id="Trazado_159779" data-name="Trazado 159779" d="M150.42,161.652a.286.286,0,0,0,.293-.238,1.6,1.6,0,0,1,1.064-1.193.281.281,0,0,0,.151-.37.285.285,0,0,0-.376-.148,2.158,2.158,0,0,0-1.408,1.626.28.28,0,0,0,.239.322Z" transform="translate(-150.14 -158.895)" fill="#bb78a2"/>
                        </g>
                      </g>
                      <g id="Grupo_114199" data-name="Grupo 114199" transform="translate(7.466 6.527)">
                        <g id="Grupo_114198" data-name="Grupo 114198">
                          <g id="Grupo_114194" data-name="Grupo 114194" transform="translate(4.04 1.586)">
                            <path id="Trazado_159780" data-name="Trazado 159780" d="M176.7,159.163h.045a1.321,1.321,0,0,0,.94-.43c.416-.5.319-1.32.195-2.35a13.712,13.712,0,0,1-.136-2.184.267.267,0,0,0-.534-.018,14.164,14.164,0,0,0,.14,2.265c.106.872.2,1.629-.076,1.96a.814.814,0,0,1-.573.235.266.266,0,0,0-.243.286.261.261,0,0,0,.243.236" transform="translate(-176.455 -153.931)" fill="#bb78a2"/>
                          </g>
                          <g id="Grupo_114196" data-name="Grupo 114196" transform="translate(5.69 0.193)">
                            <g id="Grupo_114195" data-name="Grupo 114195" transform="translate(1.459 2.568)">
                              <path id="Trazado_159781" data-name="Trazado 159781" d="M185.6,157.725c-.014.4-.274.717-.575.7s-.529-.347-.511-.746.276-.718.573-.7.531.346.513.749" transform="translate(-184.515 -156.976)" fill="#1e1e77" fill-rule="evenodd"/>
                            </g>
                            <path id="Trazado_159782" data-name="Trazado 159782" d="M180.739,150.416c-.1.2.991.55,1.811.9s1.382.737,1.473.529-.463-.8-1.279-1.15S180.833,150.206,180.739,150.416Z" transform="translate(-180.733 -150.317)" fill="#1e1e77" fill-rule="evenodd"/>
                          </g>
                          <g id="Grupo_114197" data-name="Grupo 114197">
                            <path id="Trazado_159783" data-name="Trazado 159783" d="M169.93,149.986c.063.219-1.064.41-1.924.645s-1.963.755-2.025.539,1.061-.944,1.923-1.18S169.867,149.767,169.93,149.986Z" transform="translate(-165.978 -149.817)" fill="#1e1e77" fill-rule="evenodd"/>
                            <path id="Trazado_159784" data-name="Trazado 159784" d="M171.57,157.34c-.014.4-.275.727-.578.714s-.531-.354-.52-.761.283-.722.586-.711a.66.66,0,0,1,.512.758" transform="translate(-168.738 -153.973)" fill="#1e1e77" fill-rule="evenodd"/>
                          </g>
                        </g>
                      </g>
                    </g>
                    <g id="Grupo_114201" data-name="Grupo 114201">
                      <path id="Trazado_159785" data-name="Trazado 159785" d="M163.906,131.645a2.309,2.309,0,0,1,1.65.993c1.032,1.81-.978,4.21-2.425,4.606a7.543,7.543,0,0,0-1.586-4.715,6.24,6.24,0,0,0-5.8-1.918,4.882,4.882,0,0,1-1.842,4,2.78,2.78,0,0,0-.744.805,10.009,10.009,0,0,0-.1,2.853c-.016.93.025,2.3-.615,2.44-.366.079-.666-.308-.824-.521-.786-1.055-1.225-2.54-2.871-2.743a9.769,9.769,0,0,1-1.511-.022c-.612-.19-.718-1.11-.8-1.8-.28-2.306.053-4.383,1.244-5.593a5.422,5.422,0,0,1,3.728-1.58,3.379,3.379,0,0,0,.625.061c.233-.041.462-.314.738-.551a11.137,11.137,0,0,1,6.763-2.2,6.714,6.714,0,0,1,4.255,1.131A3.5,3.5,0,0,1,163.906,131.645Z" transform="translate(-146.334 -125.764)" fill="#1e1e77" fill-rule="evenodd"/>
                      <path id="Trazado_159786" data-name="Trazado 159786" d="M152.2,135.361a12.433,12.433,0,0,0-2.967,5.721C148.975,138.119,150.057,136.064,152.2,135.361Z" transform="translate(-148.095 -131.66)" fill="#2f2fa7" fill-rule="evenodd"/>
                      <path id="Trazado_159787" data-name="Trazado 159787" d="M164.726,131.08a4.883,4.883,0,0,1,1.9-1.146,9.205,9.205,0,0,1,2.615-.525,9.067,9.067,0,0,1,5.184,1.6,14.41,14.41,0,0,0-5.613-.894A10.087,10.087,0,0,0,164.726,131.08Z" transform="translate(-157.634 -127.999)" fill="#2f2fa7" fill-rule="evenodd"/>
                      <path id="Trazado_159788" data-name="Trazado 159788" d="M174.721,134.142a6.787,6.787,0,0,1,6.555,3.662c-.063-.133.208.221,0,.1A10.565,10.565,0,0,0,174.721,134.142Z" transform="translate(-163.775 -130.905)" fill="#2f2fa7" fill-rule="evenodd"/>
                      <path id="Trazado_159789" data-name="Trazado 159789" d="M161.9,140.126c-.314,1.464-1.09,2.911-2.817,3.121-.236-.088.172-.226.266-.3A7.92,7.92,0,0,0,161.9,140.126Z" transform="translate(-154.124 -134.588)" fill="#2f2fa7" fill-rule="evenodd"/>
                    </g>
                    <path id="Trazado_159790" data-name="Trazado 159790" d="M175.829,170.306s-1.183,6.069-2.836-.557Z" transform="translate(-162.713 -152.788)" fill="#bb78a2"/>
                  </g>
                  <g id="Grupo_114203" data-name="Grupo 114203" transform="translate(0.559 23.245)">
                    <path id="Trazado_159791" data-name="Trazado 159791" d="M175.417,187.668c.041-.013,2.135,1.517,1.716,3.28a9.553,9.553,0,0,1-1.1,2.309c-.206.337-1,1.819-1.551,1.888-.707.089-1.359-1.615-1.359-1.615Z" transform="translate(-163.35 -187.042)" fill="#fff" fill-rule="evenodd"/>
                    <path id="Trazado_159792" data-name="Trazado 159792" d="M150.369,186.1c-.014-.037.013-.045.043-.052,2.4,2.334,7.067,6.281,7.143,6.489a6.281,6.281,0,0,1,.014,1.291c-.16,2.29-6.37-1.748-7.891-2.835a10.572,10.572,0,0,1-1.053-.836c-.34-.316-.8-.7-.837-1.094C147.747,188.641,148.252,187.555,150.369,186.1Z" transform="translate(-147.785 -186.044)" fill="#fff" fill-rule="evenodd"/>
                  </g>
                </g>
              </g>
              <g id="Grupo_114221" data-name="Grupo 114221" transform="translate(10.259 28.753)">
                <g id="Grupo_114215" data-name="Grupo 114215" transform="translate(16.232 6.473)">
                  <g id="Grupo_114212" data-name="Grupo 114212" transform="translate(0 20.048)">
                    <rect id="Rectángulo_36814" data-name="Rectángulo 36814" width="32.851" height="6.202" transform="translate(64.165 1.661)" fill="#8080c9"/>
                    <g id="Grupo_114211" data-name="Grupo 114211">
                      <g id="Grupo_114206" data-name="Grupo 114206" transform="translate(23.582 4.823)">
                        <path id="Trazado_159793" data-name="Trazado 159793" d="M233.761,282.382V348.3h2.6l1.982-66.693Z" transform="translate(-233.761 -281.61)" fill="#bcbcea"/>
                        <path id="Trazado_159794" data-name="Trazado 159794" d="M233.761,281.61v9.844h4.27l.311-9.844Z" transform="translate(-233.761 -281.61)" fill="#8080c9"/>
                      </g>
                      <g id="Grupo_114207" data-name="Grupo 114207" transform="translate(2.367 4.823)">
                        <path id="Trazado_159795" data-name="Trazado 159795" d="M178.746,282.382V348.3h2.6l1.981-66.693Z" transform="translate(-178.746 -281.61)" fill="#bcbcea"/>
                        <path id="Trazado_159796" data-name="Trazado 159796" d="M178.746,281.61v9.844h4.269l.311-9.844Z" transform="translate(-178.746 -281.61)" fill="#8080c9"/>
                      </g>
                      <g id="Grupo_114208" data-name="Grupo 114208" transform="translate(68.942 4.846)">
                        <path id="Trazado_159797" data-name="Trazado 159797" d="M355.968,282.443l-4.577-.77,1.982,66.639h2.595Z" transform="translate(-351.391 -281.672)" fill="#bcbcea"/>
                        <path id="Trazado_159798" data-name="Trazado 159798" d="M351.706,291.506l-.311-9.836,4.577.771v9.065Z" transform="translate(-351.393 -281.67)" fill="#8080c9"/>
                      </g>
                      <g id="Grupo_114209" data-name="Grupo 114209" transform="translate(92.437 4.846)">
                        <path id="Trazado_159799" data-name="Trazado 159799" d="M416.9,282.443l-4.577-.77,1.983,66.639H416.9Z" transform="translate(-412.32 -281.672)" fill="#bcbcea"/>
                        <path id="Trazado_159800" data-name="Trazado 159800" d="M412.635,291.506l-.311-9.836,4.577.771v9.065Z" transform="translate(-412.322 -281.67)" fill="#8080c9"/>
                      </g>
                      <g id="Grupo_114210" data-name="Grupo 114210">
                        <rect id="Rectángulo_36815" data-name="Rectángulo 36815" width="61.817" height="6.202" transform="translate(2.348 1.661)" fill="#8080c9"/>
                        <path id="Trazado_159801" data-name="Trazado 159801" d="M273.052,269.935a.83.83,0,0,1-.829.831H173.439a.831.831,0,0,1,0-1.661h98.784a.829.829,0,0,1,.829.831" transform="translate(-172.608 -269.104)" fill="#8080c9"/>
                      </g>
                    </g>
                  </g>
                  <g id="Grupo_114214" data-name="Grupo 114214" transform="translate(43.451)">
                    <path id="Trazado_159802" data-name="Trazado 159802" d="M309.7,263.7a1.272,1.272,0,0,1-1.265,1.278H286.551a1.278,1.278,0,0,1,0-2.557H308.43A1.272,1.272,0,0,1,309.7,263.7" transform="translate(-285.286 -244.947)" fill="#1e1e77" fill-rule="evenodd"/>
                    <g id="Grupo_114213" data-name="Grupo 114213" transform="translate(15.376)">
                      <path id="Trazado_159803" data-name="Trazado 159803" d="M358.555,217.881a1.9,1.9,0,0,0-1.528-.766H332.392a1.907,1.907,0,0,0-1.812,1.313L325.255,234.7a1.907,1.907,0,0,0,1.813,2.5h25.138a1.907,1.907,0,0,0,1.828-1.365l4.821-16.268a1.905,1.905,0,0,0-.3-1.682" transform="translate(-325.16 -217.115)" fill="#1e1e77"/>
                      <path id="Trazado_159804" data-name="Trazado 159804" d="M370.429,240.525a1.922,1.922,0,1,1-.8-2.8,2.066,2.066,0,0,1,.8,2.8" transform="translate(-350.71 -229.685)" fill="#2f2fa7"/>
                    </g>
                  </g>
                </g>
                <g id="Grupo_114220" data-name="Grupo 114220">
                  <g id="Grupo_114216" data-name="Grupo 114216" transform="translate(54.531 21.125)">
                    <path id="Trazado_159805" data-name="Trazado 159805" d="M285.426,259.244c.614.81,3.224,2.442,2.808,3.207-.449.831-2.744-1.128-3.483-1.431.775.829,2.631,2.185,2.461,2.692-.193.571-1.331.094-2.049-.283-.767-.4-1.421-.974-1.855-1.192.559.649,1.922,1.747,1.49,2.324s-1.906-.725-2.57-1.106a16.024,16.024,0,0,0-2.568-1.366,4.137,4.137,0,0,0-1.891.27,8.443,8.443,0,0,1-5.843-.365l2.882-4.708a6.536,6.536,0,0,0,2.961-1.055,6.2,6.2,0,0,1,2.519-1.121c1.308-.021,3.972,1.183,5.712,2.456.72.526,2.664,2.057,2.428,2.576-.4.881-2.31-.595-3-.9" transform="translate(-271.928 -255.111)" fill="#e2b1ce" fill-rule="evenodd"/>
                    <path id="Trazado_159806" data-name="Trazado 159806" d="M304.055,268.643c.394,1.4-1.8.095-2.68-.445-1.369-.84-2.791-1.9-3.7-2.377,1.466.128,3.938,2.441,5.48,2.9a.963.963,0,0,0,.9-.077" transform="translate(-287.745 -261.691)" fill="#bb78a2" fill-rule="evenodd"/>
                    <path id="Trazado_159807" data-name="Trazado 159807" d="M304.372,262.7c.187.361.032.466-.072.568-.4.39-1.919-.51-2.606-.931-1.378-.848-2.805-1.992-3.708-2.461,1.47.129,3.946,2.443,5.482,2.9a.964.964,0,0,0,.9-.075" transform="translate(-287.938 -258.036)" fill="#bb78a2" fill-rule="evenodd"/>
                    <path id="Trazado_159808" data-name="Trazado 159808" d="M284.853,267.935c-.2.652-1.661-.187-2.445-.617-.446-.244-.9-.539-1.363-.829a7.821,7.821,0,0,0-1.363-.829c-.676-.218-2.043.392-2.8.479a9.212,9.212,0,0,1-4.956-.675c.9-1.592,1.765-3.091,2.883-4.708a3.847,3.847,0,0,1-.706,2.576,5.366,5.366,0,0,1-1.45,1.529,15.868,15.868,0,0,0,5.265.639c.888-.035,1.407-.286,2.3.2,1.4.771,3.926,2.578,4.639,2.232" transform="translate(-271.927 -258.579)" fill="#bb78a2" fill-rule="evenodd"/>
                    <path id="Trazado_159809" data-name="Trazado 159809" d="M300.461,271.746c.956,1.143-.4.97-.887.806-1.762-.593-3.183-2.389-5.618-3.35a2,2,0,0,1,1.1.288c1.094.5,2.766,1.728,3.908,2.354.523.286,1.144.531,1.493-.1" transform="translate(-285.462 -263.764)" fill="#bb78a2" fill-rule="evenodd"/>
                  </g>
                  <g id="Grupo_114219" data-name="Grupo 114219">
                    <path id="Trazado_159810" data-name="Trazado 159810" d="M187.24,230.987a29.619,29.619,0,0,0,1.736-9.292,223.392,223.392,0,0,0-27.54-4.247c-1.884-1.847-4.133-3.68-6.36-5.57-2.1-1.785-4.372-3.688-6.866-5.419a48.662,48.662,0,0,0-7.847-4.415c-2.636-1.177-6.386-2.716-8.307-.834a3.167,3.167,0,0,0-.693,1.188,6.093,6.093,0,0,0,.907,3.574,25.669,25.669,0,0,0,2.252,3.279,23.021,23.021,0,0,0,2.8,3.157c5.291,4.845,11.638,10.537,18.939,14.172a31.256,31.256,0,0,0,8.172,3.059,76.574,76.574,0,0,0,7.687.845A145.3,145.3,0,0,0,187.24,230.987Z" transform="translate(-131.004 -200.328)" fill="#c167a0" fill-rule="evenodd"/>
                    <path id="Trazado_159811" data-name="Trazado 159811" d="M132.85,212.682c-3.946-5.138-1.722-8.893-1.625-8.917a2.581,2.581,0,0,0-.353.745,6.093,6.093,0,0,0,.907,3.574,25.674,25.674,0,0,0,2.252,3.279,23.017,23.017,0,0,0,2.8,3.157c5.291,4.845,11.638,10.537,18.938,14.172a31.256,31.256,0,0,0,8.172,3.059,76.556,76.556,0,0,0,7.687.845c3.511.28,6.955.465,10.384.518-3.584.1-7.186.049-10.862-.1a77.166,77.166,0,0,1-7.839-.552,31.163,31.163,0,0,1-8.385-2.8C147.421,226.233,137.937,219.3,132.85,212.682Z" transform="translate(-130.514 -202.44)" fill="#9a466e"/>
                    <g id="Grupo_114218" data-name="Grupo 114218" transform="translate(0.307)">
                      <g id="Grupo_114217" data-name="Grupo 114217" clip-path="url(#clip-path-3)">
                        <path id="Trazado_159812" data-name="Trazado 159812" d="M209.519,242.839c-.2-.222-.72-.612-1-.57a.4.4,0,0,0-.189.083,20.836,20.836,0,0,0-.3,4.295c.014.332.062,1.141.4,1.279.553.224.755-.8.807-1.047A16.064,16.064,0,0,0,209.519,242.839Z" transform="translate(-178.438 -226.094)" fill="#9a466e" fill-rule="evenodd"/>
                      </g>
                    </g>
                  </g>
                </g>
              </g>
            </g>
          </g>
          <g id="Grupo_114264" data-name="Grupo 114264">
            <g id="Grupo_114225" data-name="Grupo 114225" transform="translate(103.166 9.807)">
              <path id="Trazado_159814" data-name="Trazado 159814" d="M318.412,61.676h-16.58a4.616,4.616,0,0,0-4.616,4.617V73.13a4.617,4.617,0,0,0,4.616,4.618h.337l-4.366,5.98,10.244-5.98h10.364a4.617,4.617,0,0,0,4.616-4.618V66.293A4.616,4.616,0,0,0,318.412,61.676Z" transform="translate(-297.216 -61.676)" fill="#c167a0"/>
              <g id="Grupo_114224" data-name="Grupo 114224" transform="translate(3.591 4.558)">
                <path id="Trazado_159815" data-name="Trazado 159815" d="M307.148,74.735h17.76a.62.62,0,1,0,0-1.241h-17.76a.62.62,0,1,0,0,1.24Z" transform="translate(-306.528 -73.495)" fill="#fff"/>
                <path id="Trazado_159816" data-name="Trazado 159816" d="M307.148,82.351h17.76a.62.62,0,1,0,0-1.24h-17.76a.62.62,0,1,0,0,1.24Z" transform="translate(-306.528 -78.174)" fill="#fff"/>
                <path id="Trazado_159817" data-name="Trazado 159817" d="M307.148,89.84h17.76a.62.62,0,1,0,0-1.24h-17.76a.62.62,0,1,0,0,1.24Z" transform="translate(-306.528 -82.775)" fill="#fff"/>
              </g>
            </g>
            <g id="Grupo_114232" data-name="Grupo 114232" transform="translate(66.967 22.884)">
              <g id="Grupo_114228" data-name="Grupo 114228" transform="translate(0 0)">
                <path id="Trazado_159818" data-name="Trazado 159818" d="M207.317,95.587h24.226a3.976,3.976,0,0,1,3.976,3.976v5.888a3.976,3.976,0,0,1-3.975,3.977h-.29l3.759,5.15-8.822-5.15H207.317a3.977,3.977,0,0,1-3.975-3.977V99.563A3.976,3.976,0,0,1,207.317,95.587Z" transform="translate(-203.342 -95.587)" fill="#8080c9"/>
                <g id="Grupo_114227" data-name="Grupo 114227" transform="translate(12.8 3.925)">
                  <g id="Grupo_114226" data-name="Grupo 114226">
                    <path id="Trazado_159819" data-name="Trazado 159819" d="M252.286,106.833H237.071a.534.534,0,1,1,0-1.068h15.215a.534.534,0,1,1,0,1.068Z" transform="translate(-236.537 -105.765)" fill="#fff"/>
                    <path id="Trazado_159820" data-name="Trazado 159820" d="M252.286,113.392H237.07a.534.534,0,1,1,0-1.068h15.215a.534.534,0,1,1,0,1.068Z" transform="translate(-236.536 -109.795)" fill="#fff"/>
                    <path id="Trazado_159821" data-name="Trazado 159821" d="M252.286,119.841H237.07a.534.534,0,1,1,0-1.068h15.215a.534.534,0,1,1,0,1.068Z" transform="translate(-236.536 -113.757)" fill="#fff"/>
                  </g>
                </g>
              </g>
              <g id="Grupo_114231" data-name="Grupo 114231" transform="translate(1.96 2.294)">
                <path id="Trazado_159822" data-name="Trazado 159822" d="M217.813,106.231a4.694,4.694,0,1,0-4.694,4.694A4.694,4.694,0,0,0,217.813,106.231Z" transform="translate(-208.426 -101.537)" fill="#fff"/>
                <g id="Grupo_114230" data-name="Grupo 114230">
                  <g id="Grupo_114229" data-name="Grupo 114229" clip-path="url(#clip-path-4)">
                    <path id="Trazado_159823" data-name="Trazado 159823" d="M218.119,112.768c-3.126-.027-5.241-.029-8.358,0-.023-1.182.209-1.882,1.088-2.264.642-.278,1.543-.245,1.741-.784.281-.765-.359-1.5-.566-2.176-.447-1.468.33-3.185,1.742-3.308,1.476-.13,2.464,1.557,2.089,3.09-.194.791-.834,1.529-.609,2.307.132.458.679.585,1.219.74C217.631,110.709,218.111,111.158,218.119,112.768Z" transform="translate(-209.245 -103.191)" fill="#cecef4" fill-rule="evenodd"/>
                  </g>
                </g>
              </g>
            </g>
            <g id="Grupo_114234" data-name="Grupo 114234" transform="translate(43.814 17.945)">
              <path id="Trazado_159825" data-name="Trazado 159825" d="M153.955,82.779h-7.527a3.126,3.126,0,0,0-3.126,3.127v4.63a3.126,3.126,0,0,0,3.126,3.127h.228l-2.957,4.05,6.937-4.049h3.318a3.127,3.127,0,0,0,3.126-3.127v-4.63A3.126,3.126,0,0,0,153.955,82.779Z" transform="translate(-143.302 -82.779)" fill="#c167a0"/>
              <g id="Grupo_114233" data-name="Grupo 114233" transform="translate(4.486 1.286)">
                <path id="Trazado_159826" data-name="Trazado 159826" d="M156,88.58a.5.5,0,0,1-.044.209.575.575,0,0,1-.114.17.5.5,0,0,1-.169.115.536.536,0,0,1-.209.041.511.511,0,0,1-.379-.153.523.523,0,0,1-.15-.382,2.367,2.367,0,0,1,.2-.958,2.537,2.537,0,0,1,.533-.785,2.5,2.5,0,0,1,.785-.53,2.38,2.38,0,0,1,.953-.194,2.323,2.323,0,0,1,.953.2,2.573,2.573,0,0,1,.785.535,2.524,2.524,0,0,1,.532.785,2.333,2.333,0,0,1,.2.948,2.423,2.423,0,0,1-.728,1.753l-.8.739a1.241,1.241,0,0,0-.407.892.514.514,0,0,1-.53.53.524.524,0,0,1-.383-.15.51.51,0,0,1-.153-.379,2.271,2.271,0,0,1,.729-1.646l.8-.744a1.385,1.385,0,0,0,.408-.994,1.33,1.33,0,0,0-.112-.54,1.467,1.467,0,0,0-.3-.446,1.451,1.451,0,0,0-.447-.3,1.318,1.318,0,0,0-.54-.113,1.361,1.361,0,0,0-.545.11,1.43,1.43,0,0,0-.446.3,1.384,1.384,0,0,0-.41.994Zm2.125,4.959a.722.722,0,1,1-.211-.512A.7.7,0,0,1,158.124,93.538Z" transform="translate(-154.934 -86.113)" fill="#fff"/>
              </g>
            </g>
            <g id="Grupo_114238" data-name="Grupo 114238" transform="translate(8.929 20.573)">
              <rect id="Rectángulo_36816" data-name="Rectángulo 36816" width="28.062" height="38.219" rx="7.072" transform="translate(0 0.821)" fill="#2f2fa7"/>
              <g id="Grupo_114237" data-name="Grupo 114237" transform="translate(0.93 0)">
                <circle id="Elipse_4976" data-name="Elipse 4976" cx="9.106" cy="9.106" r="9.106" transform="translate(0 12.878) rotate(-45)" fill="#8080c9"/>
                <g id="Grupo_114236" data-name="Grupo 114236" transform="translate(0)">
                  <g id="Grupo_114235" data-name="Grupo 114235" clip-path="url(#clip-path-5)">
                    <path id="Trazado_159827" data-name="Trazado 159827" d="M83.836,121.164c-6.063-.052-10.167-.056-16.216,0-.044-2.291.406-3.651,2.111-4.392,1.246-.539,2.994-.474,3.378-1.52.546-1.484-.7-2.906-1.1-4.223-.867-2.849.641-6.18,3.38-6.419,2.864-.252,4.782,3.02,4.053,6-.375,1.534-1.618,2.966-1.182,4.476.258.888,1.318,1.133,2.365,1.436C82.891,117.17,83.822,118.041,83.836,121.164Z" transform="translate(-62.848 -98.811)" fill="#bcbcea" fill-rule="evenodd"/>
                  </g>
                </g>
              </g>
              <path id="Trazado_159828" data-name="Trazado 159828" d="M81.794,156.234H60.668a.771.771,0,1,1,0-1.542H81.794a.771.771,0,1,1,0,1.542Z" transform="translate(-57.175 -129.589)" fill="#fff"/>
              <path id="Trazado_159829" data-name="Trazado 159829" d="M81.794,166.945H60.668a.771.771,0,1,1,0-1.542H81.794a.771.771,0,1,1,0,1.542Z" transform="translate(-57.175 -136.17)" fill="#fff"/>
              <path id="Trazado_159830" data-name="Trazado 159830" d="M81.794,177.772H60.668a.771.771,0,1,1,0-1.542H81.794a.771.771,0,1,1,0,1.542Z" transform="translate(-57.175 -142.822)" fill="#fff"/>
            </g>
            <g id="Grupo_114239" data-name="Grupo 114239" transform="translate(0 33.697)">
              <path id="Trazado_159831" data-name="Trazado 159831" d="M41.182,125.32a1.682,1.682,0,0,0-.637-1.311c-.01-.007-.018-.017-.028-.023a1.675,1.675,0,0,0-1.028-.357l-8.118,0a1.677,1.677,0,0,0-.791.206.385.385,0,0,0-.058.031,1.646,1.646,0,0,0-.841,1.457l0,4.68a1.694,1.694,0,0,0,1.692,1.691h0l8.118-.005A1.691,1.691,0,0,0,41.186,130Z" transform="translate(-29.681 -123.629)" fill="#fff"/>
              <path id="Trazado_159832" data-name="Trazado 159832" d="M42.8,125.951l-3.849,3.006-3.714-3Z" transform="translate(-33.095 -125.055)" fill="#c167a0"/>
              <path id="Trazado_159833" data-name="Trazado 159833" d="M41.483,132.463a.791.791,0,0,1-.563.234L32.8,132.7v0a.8.8,0,0,1-.8-.8l0-4.68a.79.79,0,0,1,.185-.506l4.49,3.629a.448.448,0,0,0,.557,0l4.414-3.448a.8.8,0,0,1,.065.313l0,4.681A.791.791,0,0,1,41.483,132.463Z" transform="translate(-31.107 -125.528)" fill="#c167a0"/>
            </g>
            <g id="Grupo_114240" data-name="Grupo 114240" transform="translate(151.63 59.04)">
              <path id="Trazado_159834" data-name="Trazado 159834" d="M442.719,192.263a2.907,2.907,0,0,0-.988-2.18c-.017-.016-.033-.032-.051-.046a2.9,2.9,0,0,0-1.879-.689l-13.994.008a2.9,2.9,0,0,0-1.419.371h0a2.929,2.929,0,0,0-.642.485,2.9,2.9,0,0,0-.852,2.063l0,8.068a2.92,2.92,0,0,0,2.916,2.914h0l13.994-.009a2.916,2.916,0,0,0,2.914-2.917Z" transform="translate(-422.894 -189.348)" fill="#c167a0"/>
              <path id="Trazado_159835" data-name="Trazado 159835" d="M445.508,193.35l-6.634,5.182-6.4-5.174Z" transform="translate(-428.779 -191.807)" fill="#fff"/>
              <path id="Trazado_159836" data-name="Trazado 159836" d="M443.238,204.576a1.363,1.363,0,0,1-.97.4l-13.994.009v0a1.375,1.375,0,0,1-1.373-1.372l-.005-8.068a1.361,1.361,0,0,1,.319-.871l7.74,6.256a.772.772,0,0,0,.96.008L443.523,195a1.368,1.368,0,0,1,.111.539l.005,8.068A1.364,1.364,0,0,1,443.238,204.576Z" transform="translate(-425.352 -192.622)" fill="#fff"/>
            </g>
            <g id="Grupo_114241" data-name="Grupo 114241" transform="translate(68.132)">
              <path id="Trazado_159837" data-name="Trazado 159837" d="M227.338,39.328a3.075,3.075,0,0,0-1.045-2.306c-.018-.017-.035-.034-.054-.049a3.072,3.072,0,0,0-1.988-.729l-14.805.009a3.066,3.066,0,0,0-1.5.393h0a3.08,3.08,0,0,0-1.581,2.7l.005,8.535a3.09,3.09,0,0,0,3.086,3.083h0l14.806-.01a3.085,3.085,0,0,0,3.083-3.086Z" transform="translate(-206.363 -36.244)" fill="#8080c9"/>
              <path id="Trazado_159838" data-name="Trazado 159838" d="M230.288,40.479l-7.019,5.482L216.5,40.487Z" transform="translate(-212.589 -38.846)" fill="#1e1e77"/>
              <path id="Trazado_159839" data-name="Trazado 159839" d="M227.888,52.355a1.442,1.442,0,0,1-1.026.426l-14.805.01v0a1.455,1.455,0,0,1-1.453-1.451L210.6,42.8a1.437,1.437,0,0,1,.338-.922l8.188,6.619a.817.817,0,0,0,1.016.008l8.05-6.288a1.446,1.446,0,0,1,.118.571l.005,8.536A1.444,1.444,0,0,1,227.888,52.355Z" transform="translate(-208.964 -39.708)" fill="#1e1e77"/>
            </g>
            <g id="Grupo_114254" data-name="Grupo 114254" transform="translate(117.469 31.365)">
              <g id="Grupo_114249" data-name="Grupo 114249" transform="translate(0)">
                <rect id="Rectángulo_36817" data-name="Rectángulo 36817" width="42.695" height="22.88" rx="11.44" fill="#1e1e77"/>
                <g id="Grupo_114248" data-name="Grupo 114248" transform="translate(2.388 3.32)">
                  <path id="Trazado_159840" data-name="Trazado 159840" d="M367.569,145.029l-7.066-7.218-5.479,4.155-8.049-8.3-4.083,3.154-.471-.61,4.628-3.576,8.053,8.309,5.475-4.153,7.542,7.7Z" transform="translate(-341.681 -130.147)" fill="#6d59cf"/>
                  <g id="Grupo_114242" data-name="Grupo 114242" transform="translate(0 2.021)">
                    <circle id="Elipse_4978" data-name="Elipse 4978" cx="0.977" cy="0.977" r="0.977" transform="translate(25.187 11.614)" fill="#fff"/>
                    <path id="Trazado_159841" data-name="Trazado 159841" d="M388.935,143.276a.978.978,0,1,1-.978-.978A.978.978,0,0,1,388.935,143.276Z" transform="translate(-369.056 -138.108)" fill="#fff"/>
                    <path id="Trazado_159842" data-name="Trazado 159842" d="M374.754,153.929a.977.977,0,1,1-.978-.978A.977.977,0,0,1,374.754,153.929Z" transform="translate(-360.344 -144.653)" fill="#fff"/>
                    <path id="Trazado_159843" data-name="Trazado 159843" d="M353.756,132.41a.977.977,0,1,1-.977-.978A.977.977,0,0,1,353.756,132.41Z" transform="translate(-347.443 -131.432)" fill="#fff"/>
                    <path id="Trazado_159844" data-name="Trazado 159844" d="M342.454,141.2a.977.977,0,1,1-.977-.977A.977.977,0,0,1,342.454,141.2Z" transform="translate(-340.499 -136.834)" fill="#fff"/>
                  </g>
                  <g id="Grupo_114243" data-name="Grupo 114243" transform="translate(28.406 11.302)">
                    <path id="Trazado_159845" data-name="Trazado 159845" d="M422.219,156.272h-7.672a.386.386,0,1,1,0-.771h7.672a.386.386,0,1,1,0,.771Z" transform="translate(-414.162 -155.501)" fill="#6d59cf"/>
                    <path id="Trazado_159846" data-name="Trazado 159846" d="M422.219,160.711h-7.672a.386.386,0,1,1,0-.771h7.672a.386.386,0,1,1,0,.771Z" transform="translate(-414.162 -158.228)" fill="#6d59cf"/>
                    <path id="Trazado_159847" data-name="Trazado 159847" d="M422.219,165.149h-7.672a.386.386,0,1,1,0-.771h7.672a.386.386,0,1,1,0,.771Z" transform="translate(-414.162 -160.955)" fill="#6d59cf"/>
                  </g>
                  <g id="Grupo_114244" data-name="Grupo 114244" transform="translate(9.547)">
                    <path id="Trazado_159848" data-name="Trazado 159848" d="M382.5,126.962H365.607a.387.387,0,0,1,0-.771H382.5a.387.387,0,0,1,0,.771Z" transform="translate(-365.257 -126.191)" fill="#6d59cf"/>
                    <path id="Trazado_159849" data-name="Trazado 159849" d="M382.5,131.4H365.607a.387.387,0,0,1,0-.771H382.5a.387.387,0,0,1,0,.771Z" transform="translate(-365.257 -128.918)" fill="#6d59cf"/>
                  </g>
                  <g id="Grupo_114247" data-name="Grupo 114247" transform="translate(27.876 0.081)">
                    <path id="Trazado_159850" data-name="Trazado 159850" d="M422.11,131.062a4.661,4.661,0,1,0-4.661,4.661A4.661,4.661,0,0,0,422.11,131.062Z" transform="translate(-412.788 -126.401)" fill="#fff"/>
                    <g id="Grupo_114246" data-name="Grupo 114246">
                      <g id="Grupo_114245" data-name="Grupo 114245" clip-path="url(#clip-path-6)">
                        <path id="Trazado_159851" data-name="Trazado 159851" d="M422.414,137.554c-3.1-.027-5.2-.029-8.3,0-.022-1.173.208-1.869,1.081-2.249.638-.276,1.532-.243,1.73-.778.279-.76-.357-1.488-.563-2.161-.444-1.458.328-3.163,1.73-3.285,1.466-.13,2.448,1.546,2.075,3.069-.192.785-.828,1.518-.605,2.291.132.455.674.581,1.21.735C421.93,135.509,422.406,135.955,422.414,137.554Z" transform="translate(-413.601 -128.043)" fill="#c167a0" fill-rule="evenodd"/>
                      </g>
                    </g>
                  </g>
                </g>
              </g>
              <g id="Grupo_114253" data-name="Grupo 114253" transform="translate(4.464 19.642)">
                <rect id="Rectángulo_36818" data-name="Rectángulo 36818" width="21.074" height="10.891" rx="3.668" fill="#e488bd"/>
                <g id="Grupo_114252" data-name="Grupo 114252" transform="translate(2.283 2.22)">
                  <g id="Grupo_114250" data-name="Grupo 114250" transform="translate(10.092)">
                    <path id="Trazado_159853" data-name="Trazado 159853" d="M381.442,175.288a1.679,1.679,0,0,1,.351-.524,1.659,1.659,0,0,1,.522-.355,1.615,1.615,0,0,1,1.271,0,1.659,1.659,0,0,1,.873.878,1.584,1.584,0,0,1,.128.632,1.568,1.568,0,0,1-.128.63,1.687,1.687,0,0,1-.351.522,1.665,1.665,0,0,1-.521.355,1.614,1.614,0,0,1-1.271,0,1.659,1.659,0,0,1-.522-.355,1.693,1.693,0,0,1-.351-.522,1.568,1.568,0,0,1-.128-.63A1.584,1.584,0,0,1,381.442,175.288Zm1.684,5.273-4.364-5.612a.4.4,0,0,1-.084-.253.392.392,0,0,1,.034-.164.424.424,0,0,1,.09-.132.437.437,0,0,1,.132-.09.4.4,0,0,1,.165-.034.433.433,0,0,1,.337.169l4.32,5.548a.41.41,0,0,1,.1.285.4.4,0,0,1-.033.16.419.419,0,0,1-.088.135.392.392,0,0,1-.132.09.425.425,0,0,1-.165.032A.4.4,0,0,1,383.127,180.561Zm-.485-5.379a.809.809,0,0,0-.253.175.838.838,0,0,0-.172.257.755.755,0,0,0-.064.307.776.776,0,0,0,.062.309.8.8,0,0,0,.17.253.83.83,0,0,0,.254.173.768.768,0,0,0,.311.064.777.777,0,0,0,.315-.064.8.8,0,0,0,.253-.173.826.826,0,0,0,.168-.253.794.794,0,0,0,0-.615.814.814,0,0,0-.423-.431.782.782,0,0,0-.622,0Zm-1.526,4.509a1.691,1.691,0,0,1-.354.519,1.673,1.673,0,0,1-.519.353,1.563,1.563,0,0,1-.634.13,1.582,1.582,0,0,1-.631-.128,1.653,1.653,0,0,1-.522-.351,1.69,1.69,0,0,1-.353-.519,1.576,1.576,0,0,1-.13-.638,1.592,1.592,0,0,1,.13-.64,1.649,1.649,0,0,1,.355-.519,1.7,1.7,0,0,1,.522-.349,1.617,1.617,0,0,1,1.268,0,1.691,1.691,0,0,1,.519.353,1.642,1.642,0,0,1,.351.521,1.615,1.615,0,0,1,0,1.266Zm-1.817-1.368a.834.834,0,0,0-.255.173.82.82,0,0,0-.172.253.773.773,0,0,0,0,.618.817.817,0,0,0,.427.425.763.763,0,0,0,.31.064.787.787,0,0,0,.312-.062.788.788,0,0,0,.425-.425.809.809,0,0,0,0-.622.789.789,0,0,0-.425-.425.788.788,0,0,0-.312-.062A.769.769,0,0,0,379.3,178.322Z" transform="translate(-377.973 -174.275)" fill="#fff"/>
                  </g>
                  <g id="Grupo_114251" data-name="Grupo 114251" transform="translate(0 0.27)">
                    <path id="Trazado_159854" data-name="Trazado 159854" d="M352.194,175.761H360a.393.393,0,0,0,0-.785h-7.808a.393.393,0,0,0,0,.785Z" transform="translate(-351.801 -174.976)" fill="#fff"/>
                    <path id="Trazado_159855" data-name="Trazado 159855" d="M352.194,182.547H360a.393.393,0,0,0,0-.785h-7.808a.393.393,0,0,0,0,.785Z" transform="translate(-351.801 -179.145)" fill="#fff"/>
                    <path id="Trazado_159856" data-name="Trazado 159856" d="M352.194,189.335H360a.393.393,0,0,0,0-.785h-7.808a.393.393,0,0,0,0,.785Z" transform="translate(-351.801 -183.316)" fill="#fff"/>
                  </g>
                </g>
              </g>
            </g>
            <g id="Grupo_114257" data-name="Grupo 114257" transform="translate(71.15 44.991)">
              <path id="Rectángulo_36819" data-name="Rectángulo 36819" d="M3.095,0H17.283a3.093,3.093,0,0,1,3.093,3.093v0a3.093,3.093,0,0,1-3.093,3.093H3.093A3.093,3.093,0,0,1,0,3.095v0A3.095,3.095,0,0,1,3.095,0Z" fill="#bcbcea"/>
              <g id="Grupo_114256" data-name="Grupo 114256" transform="translate(2.449 1.768)">
                <g id="Grupo_114255" data-name="Grupo 114255" transform="translate(0 0.932)">
                  <path id="Trazado_159857" data-name="Trazado 159857" d="M235.456,160.467H220.814a.274.274,0,1,1,0-.548h14.642a.274.274,0,0,1,0,.548Z" transform="translate(-220.54 -159.919)" fill="#c167a0"/>
                  <path id="Trazado_159858" data-name="Trazado 159858" d="M242.1,160.467H231.635a.274.274,0,1,1,0-.548H242.1a.274.274,0,0,1,0,.548Z" transform="translate(-227.188 -159.919)" fill="#fff"/>
                </g>
                <path id="Trazado_159859" data-name="Trazado 159859" d="M233,158.818a1.316,1.316,0,1,1-1.316-1.316A1.316,1.316,0,0,1,233,158.818Z" transform="translate(-226.577 -157.502)" fill="#1e1e77"/>
              </g>
            </g>
            <g id="Grupo_114260" data-name="Grupo 114260" transform="translate(1.316 65.407)">
              <path id="Rectángulo_36820" data-name="Rectángulo 36820" d="M3.095,0H17.282a3.095,3.095,0,0,1,3.095,3.095v0a3.093,3.093,0,0,1-3.093,3.093H3.093A3.093,3.093,0,0,1,0,3.095v0A3.095,3.095,0,0,1,3.095,0Z" fill="#c167a0"/>
              <g id="Grupo_114259" data-name="Grupo 114259" transform="translate(2.449 1.768)">
                <g id="Grupo_114258" data-name="Grupo 114258" transform="translate(0 0.932)">
                  <path id="Trazado_159860" data-name="Trazado 159860" d="M54.36,213.409H39.718a.274.274,0,1,1,0-.548H54.36a.274.274,0,0,1,0,.548Z" transform="translate(-39.444 -212.861)" fill="#2f2fa7"/>
                  <path id="Trazado_159861" data-name="Trazado 159861" d="M61.009,213.409H50.54a.274.274,0,0,1,0-.548H61.009a.274.274,0,0,1,0,.548Z" transform="translate(-46.093 -212.861)" fill="#fff"/>
                </g>
                <path id="Trazado_159862" data-name="Trazado 159862" d="M51.9,211.76a1.316,1.316,0,1,1-1.316-1.316A1.316,1.316,0,0,1,51.9,211.76Z" transform="translate(-45.481 -210.444)" fill="#1e1e77"/>
              </g>
            </g>
            <g id="Grupo_114263" data-name="Grupo 114263" transform="translate(41.011 6.713)">
              <rect id="Rectángulo_36821" data-name="Rectángulo 36821" width="20.376" height="6.188" rx="3.094" fill="#2f2fa7"/>
              <g id="Grupo_114262" data-name="Grupo 114262" transform="translate(2.449 1.768)">
                <g id="Grupo_114261" data-name="Grupo 114261" transform="translate(0 0.932)">
                  <path id="Trazado_159863" data-name="Trazado 159863" d="M157.3,61.2H142.655a.274.274,0,1,1,0-.548H157.3a.274.274,0,0,1,0,.548Z" transform="translate(-142.381 -60.655)" fill="#c167a0"/>
                  <path id="Trazado_159864" data-name="Trazado 159864" d="M163.945,61.2H153.476a.274.274,0,1,1,0-.548h10.469a.274.274,0,0,1,0,.548Z" transform="translate(-149.029 -60.655)" fill="#fff"/>
                </g>
                <path id="Trazado_159865" data-name="Trazado 159865" d="M154.838,59.554a1.316,1.316,0,1,1-1.316-1.316A1.316,1.316,0,0,1,154.838,59.554Z" transform="translate(-148.418 -58.238)" fill="#fff"/>
              </g>
            </g>
          </g>
        </g>
      </g>
    </g>
  </g>
</svg>
