<svg xmlns="http://www.w3.org/2000/svg" xmlns:xlink="http://www.w3.org/1999/xlink" width="152" height="144" viewBox="0 0 152 144">
  <defs>
    <clipPath id="clip-path">
      <rect id="Rectángulo_36663" data-name="Rectángulo 36663" width="127" height="127" transform="translate(756 1486)" fill="#fff"/>
    </clipPath>
  </defs>
  <g id="Grupo_119012" data-name="Grupo 119012" transform="translate(-728 -1448)">
    <circle id="Elipse_4956" data-name="Elipse 4956" cx="72" cy="72" r="72" transform="translate(728 1448)" fill="#ffa648"/>
    <g id="Enmascarar_grupo_238" data-name="Enmascarar grupo 238" transform="translate(-3 -21)" clip-path="url(#clip-path)">
      <g id="Online_Shopping-Shopping-Smartphone-Shopping_Bag-Commerce" data-name="Online Shopping-Shopping-Smartphone-Shopping Bag-Commerce" transform="translate(756 1486.006)">
        <path id="Trazado_158967" data-name="Trazado 158967" d="M82.559,17.148V93.341a12.7,12.7,0,0,1-12.7,12.7H27.531a12.726,12.726,0,0,1-11.006-6.349V99.67a12.57,12.57,0,0,1-1.693-6.328V17.148a12.7,12.7,0,0,1,12.7-12.7H69.86A12.7,12.7,0,0,1,82.517,16.2C82.538,16.513,82.559,16.831,82.559,17.148Z" transform="translate(2.1 -2.333)" fill="#5aaae7"/>
        <path id="Trazado_158968" data-name="Trazado 158968" d="M69.5,16.686V74.868a31.575,31.575,0,0,1-9.207-6.1L45.415,71.545l7.7-13.037A31.747,31.747,0,0,1,69.5,16.686Z" transform="translate(15.158 2.891)" fill="#3d9ae2"/>
        <path id="Trazado_158969" data-name="Trazado 158969" d="M110.493,49.114A31.747,31.747,0,0,1,73.73,74.872a27.369,27.369,0,0,1-2.963-.677,31.592,31.592,0,0,1-13.44-7.6L42.449,69.369l7.7-13.037a31.741,31.741,0,1,1,60.341-7.217Z" transform="translate(13.891 0.834)" fill="#ffd422"/>
        <path id="Trazado_158970" data-name="Trazado 158970" d="M60.811,29.664v25.4a4.246,4.246,0,0,0,4.233,4.233H86.209a4.246,4.246,0,0,0,4.233-4.233v-25.4Z" transform="translate(21.731 8.433)" fill="#ebbf00"/>
        <path id="Trazado_158971" data-name="Trazado 158971" d="M87.475,41.529v4.233A4.246,4.246,0,0,1,83.242,50H62.078a4.246,4.246,0,0,1-4.233-4.233V41.529Z" transform="translate(20.465 13.499)" fill="#d1d3d4"/>
        <path id="Trazado_158972" data-name="Trazado 158972" d="M57.845,26.7H87.475V47.862H57.845Z" transform="translate(20.465 7.166)" fill="#3d9ae2"/>
        <path id="Trazado_158973" data-name="Trazado 158973" d="M45.329,63.777a4.233,4.233,0,1,1,0,8.466H36.863a4.233,4.233,0,1,1,0-8.466Z" transform="translate(9.699 22.998)" fill="#e6e7e8"/>
        <path id="Trazado_158974" data-name="Trazado 158974" d="M34.535,65.065a6.375,6.375,0,0,1-.847,3.175l-.7,1.227a4.021,4.021,0,0,1-.36-1.672,4.138,4.138,0,0,1,1.249-2.984,4.78,4.78,0,0,1,.614-.529c.021.254.042.529.042.783Z" transform="translate(9.699 23.213)" fill="#e6e7e8"/>
        <path id="Trazado_158975" data-name="Trazado 158975" d="M38.192,30.657a8.483,8.483,0,1,1-5.99-2.476,8.483,8.483,0,0,1,5.99,2.476Z" transform="translate(5.894 7.799)" fill="#3d9ae2"/>
        <path id="Trazado_158976" data-name="Trazado 158976" d="M35.226,27.691a8.483,8.483,0,1,1-5.99-2.476A8.483,8.483,0,0,1,35.226,27.691Z" transform="translate(4.628 6.533)" fill="#ffd422"/>
        <path id="Trazado_158977" data-name="Trazado 158977" d="M42.334,69.9a6.349,6.349,0,0,0-11.852-3.175L20.958,83.192a12.57,12.57,0,0,1-1.693-6.328V43.042a4.233,4.233,0,0,0-3.259,2.413L6.4,66.3A20.97,20.97,0,0,0,4.45,75.149v37.694l33.863-.021v-9.185a12.749,12.749,0,0,0-1.82-6.54l-4.529-7.535,9.524-16.487a6.375,6.375,0,0,0,.847-3.175Z" transform="translate(-2.333 14.145)" fill="#ffc477"/>
        <path id="Trazado_158978" data-name="Trazado 158978" d="M26.7,8.9H30.93v4.233H26.7Z" transform="translate(7.166 -0.433)"/>
        <path id="Trazado_158979" data-name="Trazado 158979" d="M32.63,8.9H49.562v4.233H32.63Z" transform="translate(9.699 -0.433)"/>
        <path id="Trazado_158980" data-name="Trazado 158980" d="M85.509,93.975a10.6,10.6,0,0,1-10.582,10.582H36.263l7.276-12.6a6.258,6.258,0,0,0-.36,2.019,6.349,6.349,0,0,0,6.349,6.349h8.466a6.349,6.349,0,0,0,0-12.7H49.529a6.332,6.332,0,0,0-5.147,2.66,8.445,8.445,0,0,0-15.09-7.516L22.1,95.24a10.526,10.526,0,0,1-.08-1.266V17.782A10.6,10.6,0,0,1,32.6,7.2H74.926a10.625,10.625,0,0,1,9.164,5.291l3.664-2.116A14.875,14.875,0,0,0,74.926,2.966H32.6A14.832,14.832,0,0,0,17.782,17.782V58.63a6.349,6.349,0,0,0-3.065,3.05L5.11,82.52a22.978,22.978,0,0,0-2.144,9.761v37.673H7.2V92.281A18.758,18.758,0,0,1,8.952,84.3l8.83-19.158V93.975a14.758,14.758,0,0,0,1.882,7.219,2.116,2.116,0,0,0,3.769.188l9.524-16.5a4.233,4.233,0,1,1,7.332,4.233l-9.524,16.5a2.116,2.116,0,0,0,.019,2.15l4.533,7.535a10.62,10.62,0,0,1,1.513,5.456v9.177h4.233v-9.177a14.839,14.839,0,0,0-2.116-7.635l-2.606-4.332H74.926A14.832,14.832,0,0,0,89.742,93.975V83.392H85.509Zm-35.98-2.116h8.466a2.116,2.116,0,1,1,0,4.233H49.529a2.116,2.116,0,1,1,0-4.233Z" transform="translate(-2.966 -2.966)"/>
        <path id="Trazado_158981" data-name="Trazado 158981" d="M107.613,24.828a33.863,33.863,0,0,0-59.2,31.98L41.262,68.935a2.116,2.116,0,0,0,.085,2.286,2.157,2.157,0,0,0,2.138.868L57.3,69.507a33.734,33.734,0,0,0,16.678,8.106,35.135,35.135,0,0,0,5.9.508,33.864,33.864,0,0,0,27.726-53.293ZM109.052,49.4A29.631,29.631,0,0,1,59.421,65.7a2.14,2.14,0,0,0-1.46-.571,2.3,2.3,0,0,0-.381.021L47.272,67.073l5.333-9.016a2.205,2.205,0,0,0,.127-1.926,29.628,29.628,0,1,1,56.319-6.73Z" transform="translate(13.259 0.188)"/>
        <path id="Trazado_158982" data-name="Trazado 158982" d="M88.108,28.381H81.759V26.264a8.466,8.466,0,0,0-16.932,0v2.116H58.478A2.116,2.116,0,0,0,56.361,30.5v25.4a6.368,6.368,0,0,0,6.349,6.349H83.875a6.368,6.368,0,0,0,6.349-6.349V30.5A2.116,2.116,0,0,0,88.108,28.381ZM69.06,26.264a4.233,4.233,0,0,1,8.466,0v2.116H69.06ZM85.992,55.895a2.116,2.116,0,0,1-2.116,2.116H62.711a2.116,2.116,0,0,1-2.116-2.116V53.778h25.4Zm0-6.349h-25.4V32.614h4.233v4.233H69.06V32.614h8.466v4.233h4.233V32.614h4.233Z" transform="translate(19.832 3.366)"/>
        <path id="Trazado_158983" data-name="Trazado 158983" d="M38.969,22.682l-3.259,3.259A10.614,10.614,0,1,0,38.7,28.935l3.259-3.259ZM36.232,34.761a6.349,6.349,0,1,1-6.349-6.349,6.246,6.246,0,0,1,2.72.635L26.27,35.379l2.993,2.993,6.335-6.33a6.246,6.246,0,0,1,.635,2.72Z" transform="translate(3.981 5.452)"/>
        <path id="Trazado_158984" data-name="Trazado 158984" d="M37.08,26.7h8.466V30.93H37.08Z" transform="translate(11.599 7.166)"/>
        <path id="Trazado_158985" data-name="Trazado 158985" d="M37.08,32.63h8.466v4.233H37.08Z" transform="translate(11.599 9.699)"/>
      </g>
    </g>
  </g>
</svg>
