<svg xmlns="http://www.w3.org/2000/svg" xmlns:xlink="http://www.w3.org/1999/xlink" width="144" height="144" viewBox="0 0 144 144">
  <defs>
    <clipPath id="clip-path">
      <rect id="Rectángulo_36664" data-name="Rectángulo 36664" width="127" height="127" transform="translate(1176 1486)" fill="#fff"/>
    </clipPath>
  </defs>
  <g id="Grupo_119013" data-name="Grupo 119013" transform="translate(-1148 -1448)">
    <circle id="Elipse_4957" data-name="Elipse 4957" cx="72" cy="72" r="72" transform="translate(1148 1448)" fill="#ffa648"/>
    <g id="Enmascarar_grupo_239" data-name="Enmascarar grupo 239" transform="translate(-19 -21)" clip-path="url(#clip-path)">
      <g id="reputacion" transform="translate(1176.004 1486)">
        <path id="Trazado_158986" data-name="Trazado 158986" d="M76.326,24.076,56.64,21.216l-8.8-17.838A3.677,3.677,0,0,0,44.5,1.3V58.58l17.607,9.257a3.721,3.721,0,0,0,5.4-3.922L64.143,44.308,78.388,30.423a3.721,3.721,0,0,0-2.062-6.347Z" transform="translate(18.996 0.557)" fill="#ffbb6e"/>
        <path id="Trazado_158987" data-name="Trazado 158987" d="M70.813,29.272l-8.637-1.255L56.53,3.378C56.212,2,55.595,1.3,54.977,1.3A3.677,3.677,0,0,0,51.64,3.378l-8.8,17.838L23.151,24.076a3.721,3.721,0,0,0-2.062,6.346L35.334,44.308,31.971,63.914a3.721,3.721,0,0,0,5.4,3.922l17.607-9.257,10.243-.6a3.72,3.72,0,0,0,3.451-4.343L66.625,41.71l6.25-6.092a3.72,3.72,0,0,0-2.061-6.346Z" transform="translate(8.519 0.557)" fill="#ffd478"/>
        <path id="Trazado_158988" data-name="Trazado 158988" d="M49.715,73.476,64.6,93.768h7.441l7.441-20.291Z" transform="translate(21.222 31.372)" fill="#ffe7ad"/>
        <path id="Trazado_158989" data-name="Trazado 158989" d="M67.324,66.491h-48.9l7.441,30.26H43.94L55.632,85.08,67.324,96.75H77.955V66.491Z" transform="translate(7.864 28.389)" fill="#fff3d6"/>
        <path id="Trazado_158990" data-name="Trazado 158990" d="M18.3,67.363,6.843,74.048a11.166,11.166,0,0,0-5.536,9.641V96.378H33.179Z" transform="translate(0.554 28.762)" fill="#4367b1"/>
        <path id="Trazado_158991" data-name="Trazado 158991" d="M86.04,73.347,78.6,69s5.536,26.673,5.536,26.673h7.441V82.988A11.166,11.166,0,0,0,86.04,73.347Z" transform="translate(33.555 29.462)" fill="#2d5093"/>
        <path id="Trazado_158992" data-name="Trazado 158992" d="M84.253,69.707,80.24,67.363,65.358,96.378H89.789V79.346A11.159,11.159,0,0,0,84.253,69.707Z" transform="translate(27.901 28.762)" fill="#4367b1"/>
        <path id="Trazado_158993" data-name="Trazado 158993" d="M62.37,53.454H54.929L62.37,86.237c.092.055.186.107.28.156a4.911,4.911,0,0,0,7.161-4.368V60.9a7.44,7.44,0,0,0-7.441-7.441Z" transform="translate(23.449 22.823)" fill="#fff3d6"/>
        <path id="Trazado_158994" data-name="Trazado 158994" d="M68.288,53.454h-37.2A7.44,7.44,0,0,0,23.642,60.9v21.13a4.913,4.913,0,0,0,8.909,2.857l9.162-12.826H65.1L74.26,84.882a4.9,4.9,0,0,0,1.468,1.354V60.9a7.44,7.44,0,0,0-7.441-7.441Z" transform="translate(10.09 22.823)" fill="#fffaee"/>
        <path id="Trazado_158995" data-name="Trazado 158995" d="M28.095,98.977,17.678,91.164a11.164,11.164,0,0,1-4.465-8.929V69.962l14.882-8.686Z" transform="translate(5.637 26.163)" fill="#6a90e7"/>
        <path id="Trazado_158996" data-name="Trazado 158996" d="M80.24,69.962V82.235a11.164,11.164,0,0,1-4.465,8.929L65.358,98.977v-37.7Z" transform="translate(27.901 26.163)" fill="#6a90e7"/>
        <path id="Trazado_158997" data-name="Trazado 158997" d="M53.882,61.7a7.229,7.229,0,0,0-11.767,0L36.306,69.83H59.691Z" transform="translate(15.497 25.05)" fill="#2d5093"/>
        <path id="Trazado_158998" data-name="Trazado 158998" d="M53.882,64.893A15.024,15.024,0,0,0,48,63.883a15.024,15.024,0,0,0-5.883,1.009L36.306,67.6l7.972,11.161L48,82.486l3.72-3.72L59.691,67.6Z" transform="translate(15.497 27.276)" fill="#4367b1"/>
        <path id="Trazado_158999" data-name="Trazado 158999" d="M51.719,74.312l7.972,19.1H36.306l7.972-19.1Z" transform="translate(15.497 31.729)" fill="#2d5093"/>
        <path id="Trazado_159000" data-name="Trazado 159000" d="M120.537,78.937,95.123,64.1V61.452a9.312,9.312,0,0,0-9.3-9.3H41.176a9.312,9.312,0,0,0-9.3,9.3V64.1L17.915,72.252a1.861,1.861,0,0,0-.922,1.607V86.131A13.084,13.084,0,0,0,22.2,96.548l5.953,4.465H3.723V90.184a9.333,9.333,0,0,1,4.613-8.033l3.909-2.282a1.86,1.86,0,1,0-1.875-3.213L6.461,78.937A13.066,13.066,0,0,0,0,90.184v12.69a1.86,1.86,0,0,0,1.86,1.86H125.135a1.86,1.86,0,0,0,1.86-1.86V90.184a13.066,13.066,0,0,0-6.458-11.246Zm-14.253-4.011v11.2a9.346,9.346,0,0,1-3.72,7.441l-7.441,5.581V68.412ZM66.262,81.915H60.736l-6.644-9.3,5.038-7.053a5.37,5.37,0,0,1,8.739,0l5.038,7.053Zm-5.244,3.72H65.98L72.4,101.013H54.6Zm8.317-1.621,5.857-8.2,7.647,10.705A6.766,6.766,0,0,0,91.4,88.626v12.387H76.431ZM35.6,61.452a5.587,5.587,0,0,1,5.581-5.581H85.822A5.587,5.587,0,0,1,91.4,61.452v21.13a3.053,3.053,0,0,1-5.537,1.774L70.9,63.4a9.09,9.09,0,0,0-14.793,0L41.132,84.357A3.053,3.053,0,0,1,35.6,82.582V61.452ZM20.714,86.131v-11.2l11.161-6.515v30.74l-7.441-5.581a9.345,9.345,0,0,1-3.72-7.441ZM35.6,88.626a6.765,6.765,0,0,0,8.564-2.107l7.647-10.705,5.857,8.2-7.1,17H35.6V88.626Zm87.679,12.387H98.843l5.953-4.465A13.084,13.084,0,0,0,110,86.131V77.1l8.657,5.053a9.332,9.332,0,0,1,4.613,8.033Z" transform="translate(-0.003 22.267)"/>
        <path id="Trazado_159001" data-name="Trazado 159001" d="M33.892,45.514l-3.2,18.642a5.581,5.581,0,0,0,8.1,5.884l16.742-8.8,16.742,8.8a5.581,5.581,0,0,0,8.1-5.884l-3.2-18.642,13.544-13.2a5.581,5.581,0,0,0-3.093-9.519l-18.718-2.72L60.538,3.111a5.581,5.581,0,0,0-10.009,0L42.158,20.072,23.44,22.792a5.581,5.581,0,0,0-3.093,9.519ZM22.474,27.74a1.825,1.825,0,0,1,1.5-1.266l19.686-2.861a1.859,1.859,0,0,0,1.4-1.018l8.8-17.838a1.861,1.861,0,0,1,3.337,0l8.8,17.838a1.86,1.86,0,0,0,1.4,1.018l19.685,2.861a1.86,1.86,0,0,1,1.031,3.173L73.879,43.532a1.86,1.86,0,0,0-.535,1.647l3.363,19.606a1.86,1.86,0,0,1-2.7,1.961L56.4,57.49a1.861,1.861,0,0,0-1.731,0L37.062,66.746a1.861,1.861,0,0,1-2.7-1.961l3.363-19.606a1.861,1.861,0,0,0-.535-1.647L22.945,29.647A1.824,1.824,0,0,1,22.474,27.74Z" transform="translate(7.962 0)"/>
      </g>
    </g>
  </g>
</svg>
