<svg xmlns="http://www.w3.org/2000/svg" xmlns:xlink="http://www.w3.org/1999/xlink" width="1240" height="601" viewBox="0 0 1240 601">
  <defs>
    <radialGradient id="radial-gradient" cx="0.5" cy="0.5" r="0.5" gradientUnits="objectBoundingBox">
      <stop offset="0" stop-color="#f9f9f9"/>
      <stop offset="1" stop-color="#e33ffd"/>
    </radialGradient>
    <clipPath id="clip-path">
      <rect id="Rectángulo_40844" data-name="Rectángulo 40844" width="76.914" height="131.075" fill="none"/>
    </clipPath>
    <clipPath id="clip-path-2">
      <rect id="Rectángulo_40846" data-name="Rectángulo 40846" width="118.951" height="122" fill="none"/>
    </clipPath>
    <clipPath id="clip-path-3">
      <rect id="Rectángulo_40837" data-name="Rectángulo 40837" width="131.94" height="119.209" fill="none"/>
    </clipPath>
    <clipPath id="clip-path-4">
      <rect id="Rectángulo_40843" data-name="Rectángulo 40843" width="123.403" height="123.408" fill="none"/>
    </clipPath>
    <clipPath id="clip-path-5">
      <rect id="Rectángulo_40850" data-name="Rectángulo 40850" width="150.822" height="104.2" fill="none"/>
    </clipPath>
  </defs>
  <g id="Grupo_104204" data-name="Grupo 104204" transform="translate(-180 -1559)">
    <rect id="Rectángulo_40836" data-name="Rectángulo 40836" width="1240" height="601" transform="translate(180 1559)" opacity="0.1" fill="url(#radial-gradient)"/>
    <g id="Grupo_94452" data-name="Grupo 94452" transform="translate(0 -20)">
      <path id="Trazado_137139" data-name="Trazado 137139" d="M-670-9612.1v-169.233h184.667v-93.334H20v93.334H190V-9612.1" transform="translate(1040 11633)" fill="none" stroke="#361d90" stroke-width="3" stroke-dasharray="10"/>
      <g id="Grupo_94446" data-name="Grupo 94446" transform="translate(53 -91)">
        <path id="Trazado_148347" data-name="Trazado 148347" d="M14.529,16.609H10.3L9.563,19h-3.3L10.96,6.2h2.9L18.589,19H15.276ZM11.04,14.228h2.751l-1.38-4.438Zm17.174.088a5.735,5.735,0,0,1-1,3.538,3.2,3.2,0,0,1-2.694,1.323,2.742,2.742,0,0,1-2.153-.958v4.438H19.407V9.49h2.769l.088.879A2.742,2.742,0,0,1,24.5,9.314a3.224,3.224,0,0,1,2.733,1.3,5.805,5.805,0,0,1,.976,3.564Zm-2.962-.185q0-2.531-1.477-2.531a1.394,1.394,0,0,0-1.406.756V16.1a1.439,1.439,0,0,0,1.424.791q1.415,0,1.459-2.443Zm13.1.185a5.735,5.735,0,0,1-1,3.538,3.2,3.2,0,0,1-2.694,1.323,2.742,2.742,0,0,1-2.153-.958v4.438H29.541V9.49h2.769l.088.879a2.742,2.742,0,0,1,2.241-1.055,3.224,3.224,0,0,1,2.733,1.3,5.805,5.805,0,0,1,.976,3.564Zm-2.962-.185q0-2.531-1.477-2.531a1.394,1.394,0,0,0-1.406.756V16.1a1.439,1.439,0,0,0,1.424.791q1.415,0,1.459-2.443Zm13.729,2.2a.684.684,0,0,0-.4-.606,6.016,6.016,0,0,0-1.5-.475,6.853,6.853,0,0,1-1.828-.646,3.062,3.062,0,0,1-1.1-.971,2.319,2.319,0,0,1-.378-1.31,2.628,2.628,0,0,1,1.081-2.158,4.453,4.453,0,0,1,2.83-.848,4.934,4.934,0,0,1,3.023.853,2.666,2.666,0,0,1,1.143,2.241H49.017q0-1.143-1.2-1.143a1.194,1.194,0,0,0-.782.259.8.8,0,0,0-.316.646.737.737,0,0,0,.387.642,3.654,3.654,0,0,0,1.235.4,10.671,10.671,0,0,1,1.49.378A2.706,2.706,0,0,1,51.97,16.24a2.491,2.491,0,0,1-1.156,2.118,5.068,5.068,0,0,1-2.993.817,5.172,5.172,0,0,1-2.18-.439,3.645,3.645,0,0,1-1.494-1.2,2.707,2.707,0,0,1-.536-1.591H46.38a1.145,1.145,0,0,0,.439.962,1.808,1.808,0,0,0,1.081.3,1.422,1.422,0,0,0,.91-.246A.787.787,0,0,0,49.114,16.328ZM56.479,19H53.508V9.49h2.971ZM53.333,7.038A1.322,1.322,0,0,1,53.79,6a1.943,1.943,0,0,1,2.373,0,1.322,1.322,0,0,1,.457,1.037,1.322,1.322,0,0,1-.457,1.037,1.943,1.943,0,0,1-2.373,0A1.322,1.322,0,0,1,53.333,7.038Zm8.42.088V9.49h1.564v2.057H61.752V15.9a1.111,1.111,0,0,0,.193.747,1.037,1.037,0,0,0,.765.211,4.345,4.345,0,0,0,.738-.053v2.118a5.466,5.466,0,0,1-1.67.255,3.1,3.1,0,0,1-2.259-.721,2.954,2.954,0,0,1-.729-2.188v-4.72H57.578V9.49h1.213V7.126ZM67.606,19H64.635V9.49h2.971ZM64.459,7.038A1.322,1.322,0,0,1,64.917,6,1.943,1.943,0,0,1,67.29,6a1.322,1.322,0,0,1,.457,1.037,1.322,1.322,0,0,1-.457,1.037,1.943,1.943,0,0,1-2.373,0A1.322,1.322,0,0,1,64.459,7.038Zm4.6,7.119a5.613,5.613,0,0,1,.554-2.536A3.96,3.96,0,0,1,71.2,9.912a4.791,4.791,0,0,1,2.435-.6A4.373,4.373,0,0,1,77,10.637a5.076,5.076,0,0,1,1.23,3.6v.105A4.925,4.925,0,0,1,77,17.871a4.384,4.384,0,0,1-3.344,1.305,4.434,4.434,0,0,1-3.261-1.217,4.761,4.761,0,0,1-1.327-3.3Zm2.962.185a3.538,3.538,0,0,0,.413,1.934,1.376,1.376,0,0,0,1.222.615q1.582,0,1.617-2.435v-.3q0-2.558-1.635-2.558-1.485,0-1.608,2.206ZM35.592,39.228,37.06,31.2h3.059L37.4,44H34.2l-1.714-7.295L30.811,44H27.62L24.9,31.2h3.067l1.468,8.024L31.188,31.2h2.619Zm10.2,4.948a4.889,4.889,0,0,1-3.542-1.305,4.507,4.507,0,0,1-1.354-3.4v-.246a5.84,5.84,0,0,1,.541-2.575,3.955,3.955,0,0,1,1.578-1.727,4.763,4.763,0,0,1,2.461-.611,4.117,4.117,0,0,1,3.164,1.244,4.887,4.887,0,0,1,1.16,3.467v1.151H43.906a2.135,2.135,0,0,0,.694,1.257,2.066,2.066,0,0,0,1.389.457,2.662,2.662,0,0,0,2.2-.984l1.354,1.6a3.784,3.784,0,0,1-1.569,1.217A5.3,5.3,0,0,1,45.787,44.176ZM45.453,36.6q-1.3,0-1.547,1.723h2.988v-.229a1.467,1.467,0,0,0-.36-1.1A1.434,1.434,0,0,0,45.453,36.6Zm14.361,2.725a5.8,5.8,0,0,1-.967,3.595,3.238,3.238,0,0,1-2.725,1.257,2.81,2.81,0,0,1-2.338-1.151L53.662,44H51.008V30.5H53.97v4.755a2.711,2.711,0,0,1,2.136-.94,3.239,3.239,0,0,1,2.742,1.274,5.826,5.826,0,0,1,.967,3.586Zm-2.971-.189a3.866,3.866,0,0,0-.365-1.952,1.229,1.229,0,0,0-1.121-.584,1.418,1.418,0,0,0-1.389.763v3.773a1.426,1.426,0,0,0,1.406.755A1.258,1.258,0,0,0,56.7,40.873,7.309,7.309,0,0,0,56.844,39.135Z" transform="translate(967 2028)" fill="#12263f"/>
        <g id="Grupo_94444" data-name="Grupo 94444" transform="translate(971 1883.333)">
          <g id="Grupo_94443" data-name="Grupo 94443" clip-path="url(#clip-path)">
            <path id="Trazado_137076" data-name="Trazado 137076" d="M82.985,129.423a7.778,7.778,0,0,1-7.736,7.736H18.713a7.749,7.749,0,0,1-7.588-7.736V18.881a7.652,7.652,0,0,1,7.588-7.737H75.249a7.684,7.684,0,0,1,7.736,7.737Z" transform="translate(-8.595 -8.61)" fill="#f6f7f7" fill-rule="evenodd"/>
            <path id="Trazado_137077" data-name="Trazado 137077" d="M124.005,11.145l-3.719,9.373h-30.2l-3.719-9.373Z" transform="translate(-66.725 -8.611)" fill="#649ec8" fill-rule="evenodd"/>
            <path id="Trazado_137078" data-name="Trazado 137078" d="M61.534,170.129h41.807a4.669,4.669,0,0,1,4.612,4.761v28.268a4.635,4.635,0,0,1-4.612,4.612H61.534a4.635,4.635,0,0,1-4.612-4.612V174.89a4.669,4.669,0,0,1,4.612-4.761" transform="translate(-43.978 -131.441)" fill="#fbef9e" fill-rule="evenodd"/>
            <path id="Trazado_137079" data-name="Trazado 137079" d="M173.627,348.732l-10.266-16.366-6.993,3.571,4.315-25.144L183.3,322.547l-6.993,3.422,6.844,18Z" transform="translate(-120.81 -240.119)" fill="#c1e8ff" fill-rule="evenodd"/>
            <path id="Trazado_137080" data-name="Trazado 137080" d="M66.653,131.089H10.118A10.328,10.328,0,0,1,0,120.828V10.284A10.2,10.2,0,0,1,10.118.018H66.653A10.154,10.154,0,0,1,76.914,10.284V58.936a2.527,2.527,0,1,1-5.054,0V10.284a5.155,5.155,0,0,0-5.207-5.208H10.118a5.141,5.141,0,0,0-5.059,5.208V120.828a5.206,5.206,0,0,0,5.059,5.207H66.653a5.282,5.282,0,0,0,5.207-5.207V68.308a2.527,2.527,0,1,1,5.054,0v52.519a10.272,10.272,0,0,1-10.261,10.261" transform="translate(0 -0.014)" fill="#424952"/>
            <path id="Trazado_137081" data-name="Trazado 137081" d="M111.691,14.438h-30.2a2.527,2.527,0,0,1-2.35-1.6L75.417,3.467a2.528,2.528,0,0,1,4.7-1.866l3.088,7.778h26.768L113.055,1.6a2.531,2.531,0,0,1,4.705,1.866l-3.716,9.375a2.536,2.536,0,0,1-2.353,1.6" transform="translate(-58.129 0)" fill="#424952"/>
            <path id="Trazado_137082" data-name="Trazado 137082" d="M158.216,523.913h-1.932a2.527,2.527,0,1,1,0-5.054h1.932a2.527,2.527,0,1,1,0,5.054" transform="translate(-118.79 -400.87)" fill="#424952"/>
            <path id="Trazado_137083" data-name="Trazado 137083" d="M165.034,342.667a2.523,2.523,0,0,1-2.143-1.189l-9.036-14.4-4.933,2.517a2.532,2.532,0,0,1-3.642-2.681l4.316-25.144a2.531,2.531,0,0,1,3.66-1.817L175.87,311.7a2.532,2.532,0,0,1-.056,4.516l-4.921,2.409,6.023,15.848a2.526,2.526,0,0,1-1.23,3.157l-3.27,1.635a2.528,2.528,0,0,1-2.265-4.521l1.225-.615-6.028-15.863A2.524,2.524,0,0,1,166.6,315.1l2.491-1.22L154,306.035l-2.876,16.755,2.5-1.276a2.532,2.532,0,0,1,3.291.912l10.266,16.366a2.534,2.534,0,0,1-2.143,3.875" transform="translate(-112.215 -231.521)" fill="#424952"/>
            <path id="Trazado_137084" data-name="Trazado 137084" d="M65.44,201.7h-12.5a7.149,7.149,0,0,1-7.142-7.14V166.293A7.225,7.225,0,0,1,52.943,159H94.75a7.225,7.225,0,0,1,7.14,7.291v28.267a6.831,6.831,0,0,1-.277,2.286,2.528,2.528,0,0,1-4.8-1.6,5.879,5.879,0,0,0,.02-.687V166.293a2.141,2.141,0,0,0-2.086-2.232H52.943a2.139,2.139,0,0,0-2.083,2.232v28.267a2.114,2.114,0,0,0,2.083,2.086h12.5a2.527,2.527,0,1,1,0,5.054" transform="translate(-35.386 -122.845)" fill="#424952"/>
            <path id="Trazado_137085" data-name="Trazado 137085" d="M110.423,117.617H68.616a2.529,2.529,0,0,1,0-5.059h41.807a2.53,2.53,0,0,1,0,5.059" transform="translate(-51.059 -86.962)" fill="#424952"/>
          </g>
        </g>
      </g>
      <g id="Grupo_94449" data-name="Grupo 94449" transform="translate(1196.049 1951)">
        <g id="Grupo_94448" data-name="Grupo 94448" clip-path="url(#clip-path-2)">
          <path id="Trazado_137086" data-name="Trazado 137086" d="M256.679,80.784a34.828,34.828,0,1,0-34.9-34.9,34.9,34.9,0,0,0,34.9,34.9" transform="translate(-174.839 -8.772)" fill="#c1e8ff" fill-rule="evenodd"/>
          <path id="Trazado_137087" data-name="Trazado 137087" d="M11.111,419.317V399.1c0-10.525,12.74-13.571,21.188-18.972l14.541,7.478,14.54-7.478c8.309,5.4,21.188,8.448,21.188,18.972v20.218Z" transform="translate(-8.759 -299.668)" fill="#f6f7f7" fill-rule="evenodd"/>
          <path id="Trazado_137088" data-name="Trazado 137088" d="M155.668,415.456l6.509,25.065-6.509,6.647-6.509-6.647Z" transform="translate(-117.588 -327.519)" fill="#649ec8" fill-rule="evenodd"/>
          <path id="Trazado_137089" data-name="Trazado 137089" d="M121.627,143.941c-8.724,0-15.649,5.539-15.649,14.125,0,7.339,2.077,16.2,7.894,20.911v4.155c0,4.847-2.908,8.17-6.786,10.8l14.541,7.478,14.541-7.478c-3.877-2.631-6.924-5.955-6.924-10.8v-4.155c5.955-4.57,8.032-14.4,8.032-20.911,0-8.586-7.063-14.125-15.649-14.125" transform="translate(-83.546 -113.474)" fill="#ffdaab" fill-rule="evenodd"/>
          <path id="Trazado_137090" data-name="Trazado 137090" d="M100.882,127.774c-4.016-14.54.692-22.434,15.649-22.434,5.678,0,10.8,2.077,10.663,5.4,8.724,1.523,7.478,8.032,4.985,17.033-1.385-5.124-7.2-4.293-8.032-10.94-7.2,4.016-20.772-1.523-23.265,10.94" transform="translate(-78.45 -83.043)" fill="#e3a188" fill-rule="evenodd"/>
          <path id="Trazado_137091" data-name="Trazado 137091" d="M374.276,99.255c1.8,0,3.324-1.939,3.324-4.155s-1.523-4.154-3.324-4.154-3.324,1.939-3.324,4.154,1.523,4.155,3.324,4.155" transform="translate(-292.435 -71.696)" fill="#fff" fill-rule="evenodd"/>
          <rect id="Rectángulo_40845" data-name="Rectángulo 40845" width="6.786" height="20.495" transform="translate(78.379 34.621)" fill="#fff"/>
          <path id="Trazado_137092" data-name="Trazado 137092" d="M113.734,228.832a2.353,2.353,0,0,1-.234-4.695c8.812-.9,12.013-13.005,12.013-20.92a2.352,2.352,0,1,1,4.7,0c0,8.28-3.392,24.288-16.24,25.605a2.079,2.079,0,0,1-.243.01m-9.69-2.906a2.343,2.343,0,0,1-1.55-.582c-6.112-5.346-8.278-15.262-8.278-22.127a2.352,2.352,0,1,1,4.7,0c0,6.345,2.066,14.551,6.674,18.585a2.353,2.353,0,0,1-1.55,4.124" transform="translate(-74.274 -158.348)" fill="#424952"/>
          <path id="Trazado_137093" data-name="Trazado 137093" d="M2.352,357.712A2.348,2.348,0,0,1,0,355.36V335.142C0,325.9,8.182,321.7,15.405,318c6.741-3.449,12.566-6.431,12.566-12.49v-4.155a2.352,2.352,0,1,1,4.7,0v4.155c0,8.936-8.034,13.053-15.124,16.684C10.658,325.724,4.7,328.772,4.7,335.142V355.36a2.348,2.348,0,0,1-2.352,2.352" transform="translate(0 -235.712)" fill="#424952"/>
          <path id="Trazado_137094" data-name="Trazado 137094" d="M235.1,357.712a2.348,2.348,0,0,1-2.352-2.352V335.142c0-6.369-5.959-9.418-12.853-12.948-7.089-3.631-15.124-7.748-15.124-16.684v-4.155a2.352,2.352,0,1,1,4.7,0v4.155c0,6.059,5.825,9.041,12.566,12.49,7.223,3.7,15.41,7.9,15.41,17.142V355.36a2.348,2.348,0,0,1-2.352,2.352" transform="translate(-161.43 -235.712)" fill="#424952"/>
          <path id="Trazado_137095" data-name="Trazado 137095" d="M67.785,496.976a2.348,2.348,0,0,1-2.352-2.352V478.007a2.352,2.352,0,1,1,4.7,0v16.617a2.348,2.348,0,0,1-2.352,2.352" transform="translate(-51.583 -374.976)" fill="#424952"/>
          <path id="Trazado_137096" data-name="Trazado 137096" d="M273.865,496.976a2.348,2.348,0,0,1-2.352-2.352V478.007a2.352,2.352,0,1,1,4.7,0v16.617a2.348,2.348,0,0,1-2.352,2.352" transform="translate(-214.043 -374.976)" fill="#424952"/>
          <path id="Trazado_137097" data-name="Trazado 137097" d="M116.331,381.2a2.378,2.378,0,0,1-1.078-.262l-14.542-7.476a2.356,2.356,0,1,1,2.156-4.189l14.542,7.476a2.356,2.356,0,0,1-1.078,4.451" transform="translate(-78.388 -290.904)" fill="#424952"/>
          <path id="Trazado_137098" data-name="Trazado 137098" d="M170.49,381.2a2.356,2.356,0,0,1-1.078-4.451l14.542-7.476a2.356,2.356,0,0,1,2.156,4.189l-14.542,7.476a2.379,2.379,0,0,1-1.078.262" transform="translate(-132.548 -290.904)" fill="#424952"/>
          <path id="Trazado_137099" data-name="Trazado 137099" d="M146.256,440.752a2.351,2.351,0,0,1-1.665-.687l-6.508-6.507a2.368,2.368,0,0,1-.615-2.252l3.32-12.876a2.355,2.355,0,1,1,4.561,1.173l-2.986,11.574,3.912,3.912,4-3.922-6.3-23.878a2.354,2.354,0,1,1,4.551-1.2l6.646,25.2a2.361,2.361,0,0,1-.63,2.285l-6.646,6.507a2.336,2.336,0,0,1-1.646.668" transform="translate(-108.313 -318.752)" fill="#424952"/>
          <path id="Trazado_137100" data-name="Trazado 137100" d="M122.863,121.5a2.354,2.354,0,0,1-2.271-2.972c1.441-5.286,2.514-9.847,1.083-12.1-.673-1.062-2.047-1.76-4.2-2.137a2.353,2.353,0,0,1-1.946-2.416c0-.1.014-.358-.377-.763-1.007-1.052-3.922-2.185-7.934-2.185-6.192,0-10.448,1.462-12.647,4.344-2.395,3.137-2.643,8.27-.73,15.255a2.354,2.354,0,1,1-4.542,1.24c-2.319-8.473-1.8-14.985,1.527-19.351,3.139-4.112,8.654-6.2,16.393-6.2,4.914,0,9.151,1.357,11.331,3.633a6.121,6.121,0,0,1,1.374,2.166,9.332,9.332,0,0,1,5.73,3.886c2.466,3.884,1.288,9.251-.515,15.861a2.358,2.358,0,0,1-2.271,1.736" transform="translate(-69.272 -74.274)" fill="#424952"/>
          <path id="Trazado_137101" data-name="Trazado 137101" d="M127.856,164.313a2.351,2.351,0,0,1-2.271-1.741c-.4-1.45-1.293-2.168-2.848-3.316a11.917,11.917,0,0,1-4.513-5.184,35.276,35.276,0,0,1-7.208,1.04c-6.736.508-10.925,1.133-12.147,7.3a2.354,2.354,0,1,1-4.618-.911c1.975-10,9.981-10.6,16.412-11.085,3.092-.234,6.011-.456,8-1.584a2.358,2.358,0,0,1,3.5,1.756c.329,2.638,1.6,3.576,3.368,4.876,1.674,1.233,3.76,2.769,4.6,5.88a2.353,2.353,0,0,1-1.655,2.886,2.4,2.4,0,0,1-.615.081" transform="translate(-74.265 -117.089)" fill="#424952"/>
          <path id="Trazado_137102" data-name="Trazado 137102" d="M265.966,74.363A37.048,37.048,0,0,1,240.227,64a2.355,2.355,0,0,1,3.292-3.368,32.453,32.453,0,1,0-5.568-39.92,2.354,2.354,0,1,1-4.065-2.376,37.166,37.166,0,1,1,32.079,56.024" transform="translate(-184.127)" fill="#424952"/>
          <path id="Trazado_137103" data-name="Trazado 137103" d="M358.516,253.333H344.528a2.354,2.354,0,0,1,0-4.709h13.988a2.354,2.354,0,0,1,0,4.709" transform="translate(-269.75 -195.999)" fill="#424952"/>
          <path id="Trazado_137104" data-name="Trazado 137104" d="M354.913,157.156H344.527a2.354,2.354,0,0,1,0-4.709h10.386a2.354,2.354,0,0,1,0,4.709" transform="translate(-269.749 -120.179)" fill="#424952"/>
          <path id="Trazado_137105" data-name="Trazado 137105" d="M365.519,93.862c-3.235,0-5.673-2.8-5.673-6.507a6.219,6.219,0,0,1,4.027-6.133,2.354,2.354,0,1,1,1.355,4.508,1.9,1.9,0,0,0-.678,1.625c0,1.009.425,1.8.969,1.8.248,0,.816-.5,1.021-1.462a2.357,2.357,0,0,1,4.609.988c-.654,3.051-2.968,5.183-5.63,5.183" transform="translate(-283.68 -63.949)" fill="#424952"/>
          <path id="Trazado_137106" data-name="Trazado 137106" d="M361.545,171a2.351,2.351,0,0,1-2.352-2.354V154.8a2.352,2.352,0,1,1,4.7,0v13.847A2.351,2.351,0,0,1,361.545,171" transform="translate(-283.165 -120.179)" fill="#424952"/>
          <path id="Trazado_137107" data-name="Trazado 137107" d="M393.6,177.651a2.351,2.351,0,0,1-2.352-2.354V154.8a2.352,2.352,0,1,1,4.7,0v20.5a2.351,2.351,0,0,1-2.352,2.354" transform="translate(-308.432 -120.179)" fill="#424952"/>
        </g>
      </g>
      <g id="Grupo_94445" data-name="Grupo 94445" transform="translate(29)">
        <g id="Grupo_94439" data-name="Grupo 94439" transform="translate(705 1720.791)">
          <g id="Grupo_94438" data-name="Grupo 94438" clip-path="url(#clip-path-3)">
            <path id="Trazado_137037" data-name="Trazado 137037" d="M137.973,17.259a6.268,6.268,0,0,0-6.14-6.14H17.267a6.168,6.168,0,0,0-6.14,6.14v84.314a6.073,6.073,0,0,0,6.14,6.14H131.833a6.168,6.168,0,0,0,6.14-6.14Z" transform="translate(-8.58 -8.574)" fill="#f6f7f7" fill-rule="evenodd"/>
            <path id="Trazado_137038" data-name="Trazado 137038" d="M11.127,363.108v9.884a6.073,6.073,0,0,0,6.14,6.14H131.833a6.167,6.167,0,0,0,6.14-6.14v-9.884Z" transform="translate(-8.58 -279.993)" fill="#b9baba" fill-rule="evenodd"/>
            <path id="Trazado_137039" data-name="Trazado 137039" d="M258.583,450.634l-3.594-17.522H237.168l-3.594,17.522Z" transform="translate(-180.108 -333.973)" fill="#e4e7e7" fill-rule="evenodd"/>
            <path id="Trazado_137040" data-name="Trazado 137040" d="M304.506,51.028H262.424a4.666,4.666,0,0,0-4.643,4.643v28.6a4.666,4.666,0,0,0,4.643,4.643h42.082a4.666,4.666,0,0,0,4.643-4.643v-28.6a4.666,4.666,0,0,0-4.643-4.643" transform="translate(-198.775 -39.348)" fill="#fbef9e" fill-rule="evenodd"/>
            <path id="Trazado_137041" data-name="Trazado 137041" d="M393.408,203.128l-12.73-14.676-6.44,4.643.3-25.609,24.261,7.937-6.44,4.643,9.884,16.623Z" transform="translate(-288.575 -129.148)" fill="#c1e8ff" fill-rule="evenodd"/>
            <path id="Trazado_137042" data-name="Trazado 137042" d="M105.882,246.926a1.73,1.73,0,0,0,1.8-1.8v-5.691a1.857,1.857,0,0,0-1.8-1.947H81.621a1.857,1.857,0,0,0-1.8,1.947v5.691a1.73,1.73,0,0,0,1.8,1.8Z" transform="translate(-61.552 -183.129)" fill="#ff8694" fill-rule="evenodd"/>
            <path id="Trazado_137043" data-name="Trazado 137043" d="M123.254,101.683H8.688A8.592,8.592,0,0,1,0,93V8.686A8.7,8.7,0,0,1,8.688,0H123.254a8.8,8.8,0,0,1,8.686,8.686V53.015a2.546,2.546,0,0,1-5.092,0V8.686a3.736,3.736,0,0,0-3.594-3.593H8.688a3.643,3.643,0,0,0-3.6,3.593V93a3.518,3.518,0,0,0,3.6,3.6H123.254a3.642,3.642,0,0,0,3.594-3.6V62.449a2.546,2.546,0,1,1,5.092,0V93a8.694,8.694,0,0,1-8.686,8.683" fill="#424952"/>
            <path id="Trazado_137044" data-name="Trazado 137044" d="M228.011,503.631H184.43a2.544,2.544,0,1,1,0-5.087h43.581a2.544,2.544,0,1,1,0,5.087" transform="translate(-140.251 -384.427)" fill="#424952"/>
            <path id="Trazado_137045" data-name="Trazado 137045" d="M225,473.886a2.91,2.91,0,0,1-.511-.052,2.547,2.547,0,0,1-1.986-3L224.3,462a2.545,2.545,0,1,1,4.989,1.011l-1.8,8.833A2.549,2.549,0,0,1,225,473.886" transform="translate(-171.534 -354.677)" fill="#424952"/>
            <path id="Trazado_137046" data-name="Trazado 137046" d="M322.142,444.614a2.548,2.548,0,0,1-2.492-2.038l-3.593-17.521a2.546,2.546,0,0,1,4.989-1.022l3.593,17.521a2.543,2.543,0,0,1-1.984,3,2.5,2.5,0,0,1-.513.057" transform="translate(-243.672 -325.405)" fill="#424952"/>
            <path id="Trazado_137047" data-name="Trazado 137047" d="M129.393,357.078H2.546a2.544,2.544,0,1,1,0-5.087H129.393a2.544,2.544,0,1,1,0,5.087" transform="translate(0 -271.42)" fill="#424952"/>
            <path id="Trazado_137048" data-name="Trazado 137048" d="M384.829,197.088a2.534,2.534,0,0,1-1.924-.877l-11.2-12.919-4.553,3.281a2.545,2.545,0,0,1-4.035-2.095l.3-25.611a2.547,2.547,0,0,1,3.338-2.389l24.262,7.938a2.545,2.545,0,0,1,.7,4.483l-4.548,3.282,8.691,14.619a2.547,2.547,0,0,1-.658,3.338l-2.995,2.249a2.548,2.548,0,0,1-3.059-4.076l1.169-.877-8.714-14.655a2.541,2.541,0,0,1,.7-3.364l2.379-1.715-16.208-5.3-.2,17.1,2.345-1.69a2.547,2.547,0,0,1,3.413.395l12.73,14.681a2.542,2.542,0,0,1-1.924,4.21" transform="translate(-279.997 -120.562)" fill="#424952"/>
            <path id="Trazado_137049" data-name="Trazado 137049" d="M266.431,82.886H253.85a7.2,7.2,0,0,1-7.187-7.187V47.245a7.272,7.272,0,0,1,7.187-7.339h42.082a7.273,7.273,0,0,1,7.19,7.339V67.462a2.546,2.546,0,0,1-5.092,0V47.245a2.153,2.153,0,0,0-2.1-2.247H253.85a2.153,2.153,0,0,0-2.095,2.247V75.7a2.123,2.123,0,0,0,2.095,2.095h12.581a2.546,2.546,0,0,1,0,5.092" transform="translate(-190.202 -30.772)" fill="#424952"/>
            <path id="Trazado_137050" data-name="Trazado 137050" d="M99.1,65.937H71.247a2.546,2.546,0,0,1,0-5.092H99.1a2.546,2.546,0,0,1,0,5.092" transform="translate(-52.975 -46.918)" fill="#424952"/>
            <path id="Trazado_137051" data-name="Trazado 137051" d="M85.175,190.244H71.247a2.546,2.546,0,0,1,0-5.092H85.175a2.546,2.546,0,0,1,0,5.092" transform="translate(-52.975 -142.771)" fill="#424952"/>
            <path id="Trazado_137052" data-name="Trazado 137052" d="M99.1,149.019H71.247a2.546,2.546,0,0,1,0-5.092H99.1a2.546,2.546,0,0,1,0,5.092" transform="translate(-52.975 -110.982)" fill="#424952"/>
            <path id="Trazado_137053" data-name="Trazado 137053" d="M99.1,107.151H71.247a2.546,2.546,0,0,1,0-5.092H99.1a2.546,2.546,0,0,1,0,5.092" transform="translate(-52.975 -78.698)" fill="#424952"/>
            <path id="Trazado_137054" data-name="Trazado 137054" d="M97.3,240.893H80.681a2.545,2.545,0,1,1,0-5.09H96.556v-4.344H73.793v4.455a2.546,2.546,0,0,1-.748,4.979,4.3,4.3,0,0,1-4.344-4.342v-5.691a4.374,4.374,0,0,1,4.344-4.494H97.3a4.374,4.374,0,0,1,4.344,4.494v5.691a4.3,4.3,0,0,1-4.344,4.342" transform="translate(-52.975 -174.552)" fill="#424952"/>
          </g>
        </g>
        <path id="Trazado_148345" data-name="Trazado 148345" d="M12.107,15.6a1.268,1.268,0,0,0-.479-1.055,5.954,5.954,0,0,0-1.683-.782,16.147,16.147,0,0,1-1.969-.782Q5.489,11.758,5.489,9.622a3.011,3.011,0,0,1,.62-1.876A4.008,4.008,0,0,1,7.862,6.48a6.823,6.823,0,0,1,2.549-.453,5.969,5.969,0,0,1,2.474.492,3.917,3.917,0,0,1,1.7,1.4A3.661,3.661,0,0,1,15.192,10H12.116a1.547,1.547,0,0,0-.479-1.213,1.867,1.867,0,0,0-1.3-.431,2.106,2.106,0,0,0-1.305.365,1.074,1.074,0,0,0,.048,1.819,6.65,6.65,0,0,0,1.854.826,11.36,11.36,0,0,1,2.18.918,3.663,3.663,0,0,1,2.074,3.3,3.125,3.125,0,0,1-1.266,2.637,5.629,5.629,0,0,1-3.472.958,6.888,6.888,0,0,1-2.817-.558,4.247,4.247,0,0,1-1.9-1.529A3.985,3.985,0,0,1,5.1,14.852H8.2a1.963,1.963,0,0,0,.532,1.516,2.513,2.513,0,0,0,1.727.488,1.985,1.985,0,0,0,1.208-.33A1.088,1.088,0,0,0,12.107,15.6Zm9.132,3.577A4.889,4.889,0,0,1,17.7,17.871a4.507,4.507,0,0,1-1.354-3.4v-.246a5.84,5.84,0,0,1,.541-2.575,3.955,3.955,0,0,1,1.578-1.727,4.763,4.763,0,0,1,2.461-.611,4.117,4.117,0,0,1,3.164,1.244,4.887,4.887,0,0,1,1.16,3.467v1.151H19.358a2.135,2.135,0,0,0,.694,1.257,2.066,2.066,0,0,0,1.389.457,2.662,2.662,0,0,0,2.2-.984l1.354,1.6a3.784,3.784,0,0,1-1.569,1.217A5.3,5.3,0,0,1,21.239,19.176ZM20.905,11.6q-1.3,0-1.547,1.723h2.988v-.229a1.467,1.467,0,0,0-.36-1.1A1.434,1.434,0,0,0,20.905,11.6Zm11.285.571-.976-.07a1.752,1.752,0,0,0-1.793.879V19H26.46V9.49h2.777l.1,1.222a2.294,2.294,0,0,1,2.083-1.4,2.888,2.888,0,0,1,.826.105Zm5.019,3.3,1.5-5.985h3.12L38.729,19H35.706L32.6,9.49h3.129ZM45.84,19H42.869V9.49H45.84ZM42.693,7.038A1.322,1.322,0,0,1,43.15,6a1.943,1.943,0,0,1,2.373,0,1.322,1.322,0,0,1,.457,1.037,1.322,1.322,0,0,1-.457,1.037,1.943,1.943,0,0,1-2.373,0A1.322,1.322,0,0,1,42.693,7.038Zm8.991,9.853a1.317,1.317,0,0,0,.967-.338,1.241,1.241,0,0,0,.334-.945h2.777a3.288,3.288,0,0,1-1.121,2.566,4.168,4.168,0,0,1-2.887,1,4.22,4.22,0,0,1-3.27-1.3,5.125,5.125,0,0,1-1.2-3.6v-.123a5.792,5.792,0,0,1,.532-2.544,3.872,3.872,0,0,1,1.534-1.7,4.573,4.573,0,0,1,2.373-.593,4.116,4.116,0,0,1,2.944,1.028,3.647,3.647,0,0,1,1.09,2.786H52.985A1.626,1.626,0,0,0,52.625,12a1.244,1.244,0,0,0-.967-.4q-1.151,0-1.345,1.468a10.357,10.357,0,0,0-.062,1.283,4.068,4.068,0,0,0,.343,1.986A1.187,1.187,0,0,0,51.685,16.891ZM60.14,19H57.169V9.49H60.14ZM56.993,7.038A1.322,1.322,0,0,1,57.45,6a1.943,1.943,0,0,1,2.373,0,1.322,1.322,0,0,1,.457,1.037,1.322,1.322,0,0,1-.457,1.037,1.943,1.943,0,0,1-2.373,0A1.322,1.322,0,0,1,56.993,7.038Zm4.6,7.119a5.613,5.613,0,0,1,.554-2.536,3.96,3.96,0,0,1,1.591-1.709,4.791,4.791,0,0,1,2.435-.6,4.373,4.373,0,0,1,3.366,1.323,5.076,5.076,0,0,1,1.23,3.6v.105a4.925,4.925,0,0,1-1.235,3.529,4.384,4.384,0,0,1-3.344,1.305,4.434,4.434,0,0,1-3.261-1.217,4.761,4.761,0,0,1-1.327-3.3Zm2.962.185a3.538,3.538,0,0,0,.413,1.934,1.376,1.376,0,0,0,1.222.615q1.582,0,1.617-2.435v-.3q0-2.558-1.635-2.558-1.485,0-1.608,2.206Zm12.5,1.986a.684.684,0,0,0-.4-.606,6.016,6.016,0,0,0-1.5-.475,6.853,6.853,0,0,1-1.828-.646,3.062,3.062,0,0,1-1.1-.971,2.319,2.319,0,0,1-.378-1.31,2.628,2.628,0,0,1,1.081-2.158,4.453,4.453,0,0,1,2.83-.848,4.934,4.934,0,0,1,3.023.853,2.666,2.666,0,0,1,1.143,2.241H76.953q0-1.143-1.2-1.143a1.194,1.194,0,0,0-.782.259.8.8,0,0,0-.316.646.737.737,0,0,0,.387.642,3.654,3.654,0,0,0,1.235.4,10.671,10.671,0,0,1,1.49.378,2.706,2.706,0,0,1,2.145,2.646,2.491,2.491,0,0,1-1.156,2.118,5.068,5.068,0,0,1-2.993.817,5.172,5.172,0,0,1-2.18-.439,3.645,3.645,0,0,1-1.494-1.2,2.707,2.707,0,0,1-.536-1.591h2.769a1.145,1.145,0,0,0,.439.962,1.808,1.808,0,0,0,1.081.3,1.422,1.422,0,0,0,.91-.246A.787.787,0,0,0,77.05,16.328ZM15.663,39.157a5.613,5.613,0,0,1,.554-2.536,3.96,3.96,0,0,1,1.591-1.709,4.791,4.791,0,0,1,2.435-.6,4.373,4.373,0,0,1,3.366,1.323,5.076,5.076,0,0,1,1.23,3.6v.105A4.925,4.925,0,0,1,23.6,42.871a4.384,4.384,0,0,1-3.344,1.305A4.434,4.434,0,0,1,17,42.958a4.761,4.761,0,0,1-1.327-3.3Zm2.962.185a3.538,3.538,0,0,0,.413,1.934,1.376,1.376,0,0,0,1.222.615q1.582,0,1.617-2.435v-.3q0-2.558-1.635-2.558-1.485,0-1.608,2.206ZM28.864,34.49l.1,1.116a3.225,3.225,0,0,1,2.716-1.292A2.713,2.713,0,0,1,33.9,35.2a4.226,4.226,0,0,1,.76,2.672V44H31.685V38a1.6,1.6,0,0,0-.29-1.059A1.342,1.342,0,0,0,30.34,36.6a1.413,1.413,0,0,0-1.292.686V44H26.086V34.49ZM43.9,44H40.931V30.5H43.9Zm4.948,0H45.879V34.49H48.85ZM45.7,32.038A1.322,1.322,0,0,1,46.161,31a1.943,1.943,0,0,1,2.373,0,1.405,1.405,0,0,1,0,2.074,1.943,1.943,0,0,1-2.373,0A1.322,1.322,0,0,1,45.7,32.038Zm7.69,2.452.1,1.116a3.225,3.225,0,0,1,2.716-1.292,2.713,2.713,0,0,1,2.219.888,4.226,4.226,0,0,1,.76,2.672V44H56.215V38a1.6,1.6,0,0,0-.29-1.059,1.342,1.342,0,0,0-1.055-.338,1.413,1.413,0,0,0-1.292.686V44H50.617V34.49Zm12.032,9.686a4.889,4.889,0,0,1-3.542-1.305,4.507,4.507,0,0,1-1.354-3.4v-.246a5.84,5.84,0,0,1,.541-2.575,3.955,3.955,0,0,1,1.578-1.727,4.763,4.763,0,0,1,2.461-.611,4.117,4.117,0,0,1,3.164,1.244,4.887,4.887,0,0,1,1.16,3.467v1.151H63.545a2.135,2.135,0,0,0,.694,1.257,2.066,2.066,0,0,0,1.389.457,2.662,2.662,0,0,0,2.2-.984l1.354,1.6a3.784,3.784,0,0,1-1.569,1.217A5.3,5.3,0,0,1,65.426,44.176ZM65.092,36.6q-1.3,0-1.547,1.723h2.988v-.229a1.467,1.467,0,0,0-.36-1.1A1.434,1.434,0,0,0,65.092,36.6Z" transform="translate(728 1652)" fill="#12263f"/>
      </g>
      <g id="Grupo_94447" data-name="Grupo 94447" transform="translate(0 -86.836)">
        <path id="Trazado_148342" data-name="Trazado 148342" d="M7.828,14.658V19H4.743V6.2H9.849a5.948,5.948,0,0,1,2.6.541A4.074,4.074,0,0,1,14.2,8.282a4.2,4.2,0,0,1,.62,2.263,3.7,3.7,0,0,1-1.34,2.993A5.561,5.561,0,0,1,9.8,14.658Zm0-2.382H9.849a1.906,1.906,0,0,0,1.367-.448,1.665,1.665,0,0,0,.47-1.266A2.059,2.059,0,0,0,11.2,9.13a1.712,1.712,0,0,0-1.318-.545H7.828Zm14.159,5.7a3.054,3.054,0,0,1-2.54,1.2,3,3,0,0,1-2.369-.91,3.826,3.826,0,0,1-.8-2.615V9.49h2.962v6.179a1.065,1.065,0,0,0,1.187,1.222,1.548,1.548,0,0,0,1.45-.729V9.49h2.979V19H22.075ZM29.194,9.49l.1,1.116a3.225,3.225,0,0,1,2.716-1.292,2.713,2.713,0,0,1,2.219.888,4.226,4.226,0,0,1,.76,2.672V19H32.015V13a1.6,1.6,0,0,0-.29-1.059A1.342,1.342,0,0,0,30.67,11.6a1.413,1.413,0,0,0-1.292.686V19H26.417V9.49ZM40.075,7.126V9.49h1.564v2.057H40.075V15.9a1.111,1.111,0,0,0,.193.747,1.037,1.037,0,0,0,.765.211,4.345,4.345,0,0,0,.738-.053v2.118a5.466,5.466,0,0,1-1.67.255,3.1,3.1,0,0,1-2.259-.721,2.954,2.954,0,0,1-.729-2.188v-4.72H35.9V9.49h1.213V7.126Zm2.092,7.031a5.613,5.613,0,0,1,.554-2.536,3.96,3.96,0,0,1,1.591-1.709,4.791,4.791,0,0,1,2.435-.6,4.373,4.373,0,0,1,3.366,1.323,5.076,5.076,0,0,1,1.23,3.6v.105a4.925,4.925,0,0,1-1.235,3.529,4.384,4.384,0,0,1-3.344,1.305A4.434,4.434,0,0,1,43.5,17.958a4.761,4.761,0,0,1-1.327-3.3Zm2.962.185a3.538,3.538,0,0,0,.413,1.934,1.376,1.376,0,0,0,1.222.615q1.582,0,1.617-2.435v-.3q0-2.558-1.635-2.558-1.485,0-1.608,2.206Zm11.628-.167a5.809,5.809,0,0,1,.976-3.56,3.211,3.211,0,0,1,2.725-1.3,2.731,2.731,0,0,1,2.145,1V5.5h2.971V19H62.909l-.149-1.02a2.8,2.8,0,0,1-2.32,1.2,3.205,3.205,0,0,1-2.689-1.3A5.993,5.993,0,0,1,56.756,14.175Zm2.962.185q0,2.531,1.477,2.531a1.458,1.458,0,0,0,1.406-.826V12.443a1.419,1.419,0,0,0-1.389-.844q-1.371,0-1.485,2.215Zm12.138,4.816a4.889,4.889,0,0,1-3.542-1.305,4.507,4.507,0,0,1-1.354-3.4v-.246a5.84,5.84,0,0,1,.541-2.575,3.955,3.955,0,0,1,1.578-1.727,4.763,4.763,0,0,1,2.461-.611A4.117,4.117,0,0,1,74.7,10.558a4.887,4.887,0,0,1,1.16,3.467v1.151H69.975a2.135,2.135,0,0,0,.694,1.257,2.066,2.066,0,0,0,1.389.457,2.662,2.662,0,0,0,2.2-.984l1.354,1.6a3.784,3.784,0,0,1-1.569,1.217A5.3,5.3,0,0,1,71.856,19.176ZM71.522,11.6q-1.3,0-1.547,1.723h2.988v-.229a1.467,1.467,0,0,0-.36-1.1A1.434,1.434,0,0,0,71.522,11.6ZM22.132,40.476l1.5-5.985h3.12L23.652,44H20.629l-3.1-9.51h3.129Zm10.107,3.7A4.889,4.889,0,0,1,28.7,42.871a4.507,4.507,0,0,1-1.354-3.4v-.246a5.84,5.84,0,0,1,.541-2.575,3.955,3.955,0,0,1,1.578-1.727,4.763,4.763,0,0,1,2.461-.611,4.117,4.117,0,0,1,3.164,1.244,4.887,4.887,0,0,1,1.16,3.467v1.151H30.358a2.135,2.135,0,0,0,.694,1.257,2.066,2.066,0,0,0,1.389.457,2.662,2.662,0,0,0,2.2-.984l1.354,1.6a3.784,3.784,0,0,1-1.569,1.217A5.3,5.3,0,0,1,32.239,44.176ZM31.905,36.6q-1.3,0-1.547,1.723h2.988v-.229a1.467,1.467,0,0,0-.36-1.1A1.434,1.434,0,0,0,31.905,36.6Zm8.253-2.109.1,1.116a3.225,3.225,0,0,1,2.716-1.292,2.713,2.713,0,0,1,2.219.888,4.226,4.226,0,0,1,.76,2.672V44H42.979V38a1.6,1.6,0,0,0-.29-1.059,1.342,1.342,0,0,0-1.055-.338,1.413,1.413,0,0,0-1.292.686V44H37.381V34.49Zm10.881-2.364V34.49H52.6v2.057H51.039V40.9a1.111,1.111,0,0,0,.193.747,1.037,1.037,0,0,0,.765.211,4.345,4.345,0,0,0,.738-.053v2.118a5.466,5.466,0,0,1-1.67.255,3.1,3.1,0,0,1-2.259-.721,2.954,2.954,0,0,1-.729-2.188v-4.72H46.864V34.49h1.213V32.126ZM59.125,44a3.344,3.344,0,0,1-.281-.853,2.754,2.754,0,0,1-2.285,1.028,3.374,3.374,0,0,1-2.285-.813,2.588,2.588,0,0,1-.94-2.043,2.66,2.66,0,0,1,1.143-2.338A5.821,5.821,0,0,1,57.8,38.19h.914v-.5q0-1.316-1.134-1.316a.927.927,0,0,0-1.055,1.042H53.562a2.655,2.655,0,0,1,1.173-2.239,4.931,4.931,0,0,1,2.993-.86A4.323,4.323,0,0,1,60.6,35.2a3.086,3.086,0,0,1,1.081,2.435v4.21a4.311,4.311,0,0,0,.4,2V44Zm-1.854-1.934a1.652,1.652,0,0,0,.918-.237,1.487,1.487,0,0,0,.523-.536V39.772h-.861q-1.547,0-1.547,1.389a.848.848,0,0,0,.272.655A.986.986,0,0,0,57.271,42.066Z" transform="translate(516.333 2019.672)" fill="#12263f"/>
        <g id="Grupo_94442" data-name="Grupo 94442" transform="translate(495 1883.333)">
          <rect id="Rectángulo_40838" data-name="Rectángulo 40838" width="98.753" height="100.154" transform="translate(12.328 11.908)" fill="#f6f7f7"/>
          <g id="Grupo_94441" data-name="Grupo 94441">
            <g id="Grupo_94440" data-name="Grupo 94440" clip-path="url(#clip-path-4)">
              <path id="Trazado_137055" data-name="Trazado 137055" d="M11.127,11.127H30.878V23.033a9.876,9.876,0,0,1-19.751,0Z" transform="translate(-8.745 -8.745)" fill="#ff8694" fill-rule="evenodd"/>
              <path id="Trazado_137056" data-name="Trazado 137056" d="M103.377,11.127h19.751V23.033a9.745,9.745,0,0,1-9.805,9.805,9.864,9.864,0,0,1-9.945-9.805Z" transform="translate(-81.244 -8.745)" fill="#fff" fill-rule="evenodd"/>
              <path id="Trazado_137057" data-name="Trazado 137057" d="M195.627,11.127h19.751V23.033a9.745,9.745,0,0,1-9.805,9.805,9.864,9.864,0,0,1-9.945-9.805Z" transform="translate(-153.744 -8.745)" fill="#ff8694" fill-rule="evenodd"/>
              <path id="Trazado_137058" data-name="Trazado 137058" d="M287.877,11.127h19.891V23.033a9.946,9.946,0,0,1-19.891,0Z" transform="translate(-226.243 -8.745)" fill="#fff" fill-rule="evenodd"/>
              <path id="Trazado_137059" data-name="Trazado 137059" d="M380.781,11.127h19.751V23.033a9.864,9.864,0,0,1-9.945,9.805,9.745,9.745,0,0,1-9.805-9.805Z" transform="translate(-299.256 -8.745)" fill="#ff8694" fill-rule="evenodd"/>
              <path id="Trazado_137060" data-name="Trazado 137060" d="M473.031,11.127h19.751V23.033a9.864,9.864,0,0,1-9.945,9.805,9.745,9.745,0,0,1-9.805-9.805Z" transform="translate(-371.756 -8.745)" fill="#fff" fill-rule="evenodd"/>
              <rect id="Rectángulo_40839" data-name="Rectángulo 40839" width="118.643" height="8.965" transform="translate(2.382 112.061)" fill="#b9baba"/>
              <rect id="Rectángulo_40840" data-name="Rectángulo 40840" width="41.602" height="62.193" transform="translate(59.953 36.981)" fill="#c1e8ff"/>
              <rect id="Rectángulo_40841" data-name="Rectángulo 40841" width="27.735" height="8.825" transform="translate(21.293 36.981)" fill="#b9baba"/>
              <rect id="Rectángulo_40842" data-name="Rectángulo 40842" width="27.735" height="54.769" transform="translate(21.292 57.292)" fill="#e3a188"/>
              <path id="Trazado_137061" data-name="Trazado 137061" d="M12.327,26.476A12.272,12.272,0,0,1,0,14.289V2.382A2.382,2.382,0,0,1,2.382,0H22.133a2.382,2.382,0,0,1,2.381,2.382V14.289A12.2,12.2,0,0,1,12.327,26.476M4.763,4.763v9.526a7.495,7.495,0,0,0,14.989,0V4.763Z" fill="#424952"/>
              <path id="Trazado_137062" data-name="Trazado 137062" d="M104.582,26.476a13.091,13.091,0,0,1-4.623-.854,2.382,2.382,0,0,1,1.679-4.459A7.557,7.557,0,0,0,112,14.289V4.763H94.637a2.382,2.382,0,1,1,0-4.763h19.749a2.382,2.382,0,0,1,2.382,2.381V14.289a12.057,12.057,0,0,1-12.185,12.187" transform="translate(-72.503)" fill="#424952"/>
              <path id="Trazado_137063" data-name="Trazado 137063" d="M196.826,26.476a13.009,13.009,0,0,1-4.621-.857,2.38,2.38,0,1,1,1.679-4.454,7.57,7.57,0,0,0,10.365-6.877V4.763H186.88a2.382,2.382,0,0,1,0-4.763h19.752a2.382,2.382,0,0,1,2.381,2.381V14.289a12.059,12.059,0,0,1-12.187,12.187" transform="translate(-144.998)" fill="#424952"/>
              <path id="Trazado_137064" data-name="Trazado 137064" d="M289.081,26.476a13.023,13.023,0,0,1-4.623-.857,2.38,2.38,0,0,1,1.679-4.454c5.033,1.894,10.51-1.812,10.51-6.877V4.763H279.136a2.382,2.382,0,1,1,0-4.763h19.891a2.378,2.378,0,0,1,2.379,2.381V14.289a12.268,12.268,0,0,1-12.325,12.187" transform="translate(-217.501)" fill="#424952"/>
              <path id="Trazado_137065" data-name="Trazado 137065" d="M381.858,26.476a13.021,13.021,0,0,1-4.623-.857,2.38,2.38,0,1,1,1.679-4.454c5.062,1.913,10.51-1.8,10.51-6.877V4.763H372.052a2.382,2.382,0,0,1,0-4.763H391.8a2.378,2.378,0,0,1,2.379,2.381V14.289a12.268,12.268,0,0,1-12.325,12.187" transform="translate(-290.527)" fill="#424952"/>
              <path id="Trazado_137066" data-name="Trazado 137066" d="M474.109,26.476a13.573,13.573,0,0,1-4.618-.857,2.38,2.38,0,1,1,1.679-4.454,8.937,8.937,0,0,0,2.939.548,7.506,7.506,0,0,0,7.567-7.424V4.763H464.308a2.382,2.382,0,0,1,0-4.763h19.747a2.378,2.378,0,0,1,2.379,2.381V14.289a12.268,12.268,0,0,1-12.325,12.187" transform="translate(-363.031)" fill="#424952"/>
              <path id="Trazado_137067" data-name="Trazado 137067" d="M121.024,526.012H19.332a2.382,2.382,0,1,1,0-4.763h99.313v-4.2H4.763v4.2h5.323a2.382,2.382,0,0,1,0,4.763h-7.7A2.382,2.382,0,0,1,0,523.631v-8.966a2.382,2.382,0,0,1,2.381-2.381H121.024a2.378,2.378,0,0,1,2.379,2.381v8.966a2.378,2.378,0,0,1-2.379,2.381" transform="translate(0 -402.604)" fill="#424952"/>
              <path id="Trazado_137068" data-name="Trazado 137068" d="M510.086,185.463a2.378,2.378,0,0,1-2.379-2.381V103.8a2.379,2.379,0,1,1,4.758,0v79.282a2.378,2.378,0,0,1-2.379,2.381" transform="translate(-399.008 -79.705)" fill="#424952"/>
              <path id="Trazado_137069" data-name="Trazado 137069" d="M48.836,226.022a2.382,2.382,0,0,1-2.381-2.381V144.359a2.381,2.381,0,1,1,4.763,0V223.64a2.382,2.382,0,0,1-2.381,2.381" transform="translate(-36.509 -111.58)" fill="#424952"/>
              <path id="Trazado_137070" data-name="Trazado 137070" d="M118.448,316a2.382,2.382,0,0,1-2.381-2.381V261.231H93.1v45.1a2.382,2.382,0,0,1-4.763,0V258.849a2.382,2.382,0,0,1,2.381-2.381h27.733a2.382,2.382,0,0,1,2.381,2.381v54.77A2.382,2.382,0,0,1,118.448,316" transform="translate(-69.421 -201.559)" fill="#424952"/>
              <path id="Trazado_137071" data-name="Trazado 137071" d="M118.448,175.2H90.714a2.382,2.382,0,0,1-2.381-2.381v-8.824a2.382,2.382,0,0,1,2.381-2.381h27.733a2.382,2.382,0,0,1,2.381,2.381v8.824a2.382,2.382,0,0,1-2.381,2.381M93.1,170.434h22.97v-4.061H93.1Z" transform="translate(-69.421 -127.01)" fill="#424952"/>
              <path id="Trazado_137072" data-name="Trazado 137072" d="M312.885,228.564h-33.9a2.382,2.382,0,1,1,0-4.763h31.521V166.373H273.662v59.81a2.381,2.381,0,1,1-4.763,0V163.991a2.382,2.382,0,0,1,2.381-2.381h41.6a2.378,2.378,0,0,1,2.379,2.381v62.191a2.378,2.378,0,0,1-2.379,2.381" transform="translate(-211.328 -127.01)" fill="#424952"/>
              <path id="Trazado_137073" data-name="Trazado 137073" d="M318.4,272.44a2.379,2.379,0,0,1-2.06-3.573L333,240.012a2.381,2.381,0,1,1,4.121,2.384l-16.668,28.855a2.377,2.377,0,0,1-2.061,1.19" transform="translate(-248.356 -187.694)" fill="#424952"/>
              <path id="Trazado_137074" data-name="Trazado 137074" d="M384.46,330.294a2.349,2.349,0,0,1-1.182-.316,2.377,2.377,0,0,1-.883-3.25l5.463-9.526a2.381,2.381,0,0,1,4.131,2.369l-5.463,9.526a2.375,2.375,0,0,1-2.065,1.2" transform="translate(-300.275 -248.349)" fill="#424952"/>
              <path id="Trazado_137075" data-name="Trazado 137075" d="M197.116,394.046h-6.3a2.382,2.382,0,0,1,0-4.763h6.3a2.382,2.382,0,0,1,0,4.763" transform="translate(-148.089 -305.938)" fill="#424952"/>
            </g>
          </g>
        </g>
      </g>
      <g id="Grupo_94451" data-name="Grupo 94451" transform="translate(285 1968.8)">
        <g id="Grupo_94450" data-name="Grupo 94450" clip-path="url(#clip-path-5)">
          <path id="Trazado_137108" data-name="Trazado 137108" d="M88,608.81a4.3,4.3,0,0,0,4.266-4.266A4.234,4.234,0,0,0,88,600.278a4.3,4.3,0,0,0-4.266,4.266A4.365,4.365,0,0,0,88,608.81" transform="translate(-71.041 -509.258)" fill="#b9baba" fill-rule="evenodd"/>
          <path id="Trazado_137109" data-name="Trazado 137109" d="M411.206,608.81a4.3,4.3,0,0,0,4.266-4.266,4.234,4.234,0,0,0-4.266-4.266,4.3,4.3,0,0,0-4.266,4.266,4.365,4.365,0,0,0,4.266,4.266" transform="translate(-345.236 -509.258)" fill="#b9baba" fill-rule="evenodd"/>
          <path id="Trazado_137110" data-name="Trazado 137110" d="M72.616,530.274v5.258h58.332a2.629,2.629,0,1,0,0-5.258Z" transform="translate(-61.605 -449.869)" fill="#e4e7e7" fill-rule="evenodd"/>
          <path id="Trazado_137111" data-name="Trazado 137111" d="M14.191,173.412a3.125,3.125,0,1,0-3.075-3.075,3.091,3.091,0,0,0,3.075,3.075" transform="translate(-9.43 -141.815)" fill="#649ec8" fill-rule="evenodd"/>
          <rect id="Rectángulo_40847" data-name="Rectángulo 40847" width="19.742" height="7.143" transform="translate(30.058 15.526)" fill="#fbca3e"/>
          <rect id="Rectángulo_40848" data-name="Rectángulo 40848" width="30.555" height="23.015" transform="translate(24.403 22.668)" fill="#ff8694"/>
          <rect id="Rectángulo_40849" data-name="Rectángulo 40849" width="23.115" height="16.17" transform="translate(41.169 29.513)" fill="#c1e8ff"/>
          <path id="Trazado_137112" data-name="Trazado 137112" d="M140.389,271.844l7.242-24.8L77.2,244.364,87.712,277Z" transform="translate(-65.491 -207.311)" fill="#e4e7e7" fill-rule="evenodd"/>
          <path id="Trazado_137113" data-name="Trazado 137113" d="M78.276,269.217a1.689,1.689,0,0,1-1.606-1.169L66.154,235.413a1.685,1.685,0,0,1,.263-1.536,1.493,1.493,0,0,1,1.408-.667l70.435,2.678a1.689,1.689,0,0,1,1.555,2.158l-7.242,24.8a1.689,1.689,0,0,1-1.456,1.207L78.44,269.21a1.322,1.322,0,0,1-.164.007M70.1,236.672l9.361,29.049,50.189-4.915,6.316-21.631Z" transform="translate(-56.054 -197.842)" fill="#424952"/>
          <path id="Trazado_137114" data-name="Trazado 137114" d="M63.186,462.57a1.685,1.685,0,0,1-1.165-2.905l11.21-10.714a1.687,1.687,0,1,1,2.331,2.44L64.352,462.1a1.685,1.685,0,0,1-1.165.465" transform="translate(-52.175 -380.48)" fill="#424952"/>
          <path id="Trazado_137115" data-name="Trazado 137115" d="M285.2,196.415a1.684,1.684,0,0,1-1.685-1.687v-7.837H263.771v1.786a1.685,1.685,0,1,1-3.37,0V185.2a1.684,1.684,0,0,1,1.685-1.687H285.2a1.684,1.684,0,0,1,1.685,1.687v9.523a1.684,1.684,0,0,1-1.685,1.687" transform="translate(-220.916 -155.691)" fill="#424952"/>
          <path id="Trazado_137116" data-name="Trazado 137116" d="M151.506,151.368a1.684,1.684,0,0,1-1.685-1.687v-9.623a1.684,1.684,0,0,1,1.685-1.687h30.557a1.684,1.684,0,0,1,1.685,1.687V146.9a1.685,1.685,0,1,1-3.37,0v-5.159H153.191v7.936a1.684,1.684,0,0,1-1.685,1.687" transform="translate(-127.104 -117.391)" fill="#424952"/>
          <path id="Trazado_137117" data-name="Trazado 137117" d="M208.55,101.779a1.684,1.684,0,0,1-1.685-1.687V94.636H190.495v5.456a1.685,1.685,0,1,1-3.37,0V92.95a1.684,1.684,0,0,1,1.685-1.687H208.55a1.684,1.684,0,0,1,1.685,1.687v7.143a1.684,1.684,0,0,1-1.685,1.687" transform="translate(-158.751 -77.425)" fill="#424952"/>
          <path id="Trazado_137118" data-name="Trazado 137118" d="M78.572,601.066a6.029,6.029,0,0,1-5.95-5.95,5.957,5.957,0,0,1,5.95-5.95,1.685,1.685,0,1,1,0,3.37,2.616,2.616,0,0,0-2.581,2.58,2.683,2.683,0,0,0,2.581,2.58,2.616,2.616,0,0,0,2.58-2.58,1.685,1.685,0,0,1,3.37,0,5.957,5.957,0,0,1-5.95,5.95" transform="translate(-61.61 -499.831)" fill="#424952"/>
          <path id="Trazado_137119" data-name="Trazado 137119" d="M401.774,601.066a6.029,6.029,0,0,1-5.954-5.95,5.957,5.957,0,0,1,5.954-5.95,1.685,1.685,0,1,1,0,3.37,2.617,2.617,0,0,0-2.584,2.58,2.686,2.686,0,0,0,2.584,2.58,2.616,2.616,0,0,0,2.58-2.58,1.685,1.685,0,0,1,3.37,0,5.957,5.957,0,0,1-5.95,5.95" transform="translate(-335.802 -499.831)" fill="#424952"/>
          <path id="Trazado_137120" data-name="Trazado 137120" d="M39.462,202.76a1.69,1.69,0,0,1-1.3-.6L33.108,196.1a1.688,1.688,0,0,1,2.59-2.163l5.058,6.051a1.686,1.686,0,0,1-.215,2.375,1.667,1.667,0,0,1-1.08.393" transform="translate(-27.756 -164.021)" fill="#424952"/>
          <path id="Trazado_137121" data-name="Trazado 137121" d="M121.526,527.787H63.2a1.682,1.682,0,0,1-1.685-1.685v-5.26a1.685,1.685,0,1,1,3.37,0v3.575h56.645a.974.974,0,0,0,.995-.9.985.985,0,0,0-.995-.995H70.24a1.685,1.685,0,1,1,0-3.37h51.286a4.37,4.37,0,0,1,4.364,4.364,4.321,4.321,0,0,1-4.364,4.265" transform="translate(-52.184 -440.437)" fill="#424952"/>
          <path id="Trazado_137122" data-name="Trazado 137122" d="M165,293.375a1.685,1.685,0,0,1-1.6-1.169l-6.941-21.429a1.685,1.685,0,1,1,3.206-1.039l6.941,21.429a1.685,1.685,0,0,1-1.083,2.122,1.619,1.619,0,0,1-.519.086" transform="translate(-132.666 -227.847)" fill="#424952"/>
          <path id="Trazado_137123" data-name="Trazado 137123" d="M244.314,294.5a1.692,1.692,0,0,1-1.606-1.169l-6.449-19.939a1.688,1.688,0,0,1,3.213-1.039l6.449,19.939a1.693,1.693,0,0,1-1.087,2.126,1.732,1.732,0,0,1-.519.082" transform="translate(-200.366 -230.066)" fill="#424952"/>
          <path id="Trazado_137124" data-name="Trazado 137124" d="M323.642,296.177a1.685,1.685,0,0,1-1.6-1.169l-5.954-18.351a1.685,1.685,0,1,1,3.206-1.042l5.954,18.355a1.685,1.685,0,0,1-1.083,2.123,1.622,1.622,0,0,1-.519.085" transform="translate(-268.088 -232.833)" fill="#424952"/>
          <path id="Trazado_137125" data-name="Trazado 137125" d="M403.506,297.785a1.692,1.692,0,0,1-1.606-1.172l-5.359-16.666a1.687,1.687,0,1,1,3.213-1.032l5.359,16.666a1.69,1.69,0,0,1-1.606,2.2" transform="translate(-336.345 -235.63)" fill="#424952"/>
          <path id="Trazado_137126" data-name="Trazado 137126" d="M478.977,286.9a1.687,1.687,0,0,1-1.61-1.184l-.991-3.175a1.686,1.686,0,1,1,3.22-1l.991,3.175a1.687,1.687,0,0,1-1.107,2.112,1.656,1.656,0,0,1-.5.077" transform="translate(-404.078 -237.843)" fill="#424952"/>
          <path id="Trazado_137127" data-name="Trazado 137127" d="M4.761,165.665A4.767,4.767,0,0,1,0,160.9a4.817,4.817,0,0,1,4.761-4.86,1.687,1.687,0,0,1,0,3.373A1.426,1.426,0,0,0,3.37,160.9a1.391,1.391,0,0,0,2.782,0,1.685,1.685,0,1,1,3.37,0,4.767,4.767,0,0,1-4.761,4.763" transform="translate(0 -132.381)" fill="#424952"/>
          <path id="Trazado_137128" data-name="Trazado 137128" d="M612.935,171.488V198a2.412,2.412,0,0,1-2.428,2.428h-6.368v32.8h-4.856V198a2.428,2.428,0,1,0,4.856,0v-2.388h3.98v-24.12a8.935,8.935,0,0,0-8.955-8.916h-19.1a8.935,8.935,0,0,0-8.955,8.916v24.12h3.98V198a2.412,2.412,0,0,0,2.428,2.428A2.438,2.438,0,0,0,579.94,198V233.22h-4.856v-32.8h-6.368A2.412,2.412,0,0,1,566.288,198V171.488a13.767,13.767,0,0,1,13.771-13.731h19.1a13.768,13.768,0,0,1,13.771,13.731" transform="translate(-480.422 -133.836)" fill="#424952"/>
          <path id="Trazado_137129" data-name="Trazado 137129" d="M635.064,198.434v24.12h-3.98V201.3a2.428,2.428,0,0,0-4.856,0v58.866h-7.244V230.911a2.428,2.428,0,0,0-4.856,0v29.254h-7.244V201.3a2.43,2.43,0,0,0-2.428-2.388,2.4,2.4,0,0,0-2.428,2.388v21.254h-3.98v-24.12A8.935,8.935,0,0,1,607,189.518h19.1a8.935,8.935,0,0,1,8.955,8.916" transform="translate(-507.367 -160.781)" fill="#45a8c0"/>
          <path id="Trazado_137130" data-name="Trazado 137130" d="M815.916,655.439h1.99a2.38,2.38,0,0,0-1.99,1.035Z" transform="translate(-692.199 -556.055)" fill="#424952"/>
          <path id="Trazado_137131" data-name="Trazado 137131" d="M788.748,407.385v2.388a2.428,2.428,0,1,1-2.428-2.388Z" transform="translate(-665.031 -345.613)" fill="#424952"/>
          <path id="Trazado_137132" data-name="Trazado 137132" d="M788.748,253.854v21.254H786.32a2.43,2.43,0,0,0-2.428,2.388V253.854a2.428,2.428,0,0,1,4.856,0" transform="translate(-665.031 -213.336)" fill="#424952"/>
          <path id="Trazado_137133" data-name="Trazado 137133" d="M674.911,6.169V8.557a17.988,17.988,0,0,1-2.03,8.557c-2.667,5.015-6.209,6.01-8.637,5.93h-.239c-2.348,0-5.692-1.075-8.279-5.93a18.466,18.466,0,0,1-2.03-8.557V5.931a2.235,2.235,0,0,1,.358-1.234c1-1.672,5.294-4.7,10.229-4.7,5.174,0,10.627,3.184,10.627,6.169M670.1,8.557V6.806a9.733,9.733,0,0,0-5.811-1.95,9.929,9.929,0,0,0-5.771,2.07V8.557a13.569,13.569,0,0,0,1.473,6.289c1.194,2.309,2.667,3.5,4.259,3.383,1.672.119,3.184-1.075,4.378-3.383A13.566,13.566,0,0,0,670.1,8.557" transform="translate(-554.577)" fill="#424952"/>
          <path id="Trazado_137134" data-name="Trazado 137134" d="M697.04,33.974v1.751a13.567,13.567,0,0,1-1.473,6.289c-1.194,2.308-2.707,3.5-4.378,3.383-1.592.119-3.065-1.075-4.259-3.383a13.569,13.569,0,0,1-1.473-6.289V34.094a9.929,9.929,0,0,1,5.771-2.07,9.732,9.732,0,0,1,5.811,1.95" transform="translate(-581.522 -27.168)" fill="#fde990"/>
          <path id="Trazado_137135" data-name="Trazado 137135" d="M708.951,448.924v29.254h-4.856V448.924a2.428,2.428,0,0,1,4.856,0" transform="translate(-597.333 -378.794)" fill="#424952"/>
          <path id="Trazado_137136" data-name="Trazado 137136" d="M629.154,253.854V277.5a2.43,2.43,0,0,0-2.428-2.388H624.3V253.854a2.4,2.4,0,0,1,2.428-2.388,2.43,2.43,0,0,1,2.428,2.388" transform="translate(-529.636 -213.336)" fill="#424952"/>
          <path id="Trazado_137137" data-name="Trazado 137137" d="M626.726,407.385a2.408,2.408,0,1,1-2.428,2.388v-2.388Z" transform="translate(-529.636 -345.613)" fill="#424952"/>
          <path id="Trazado_137138" data-name="Trazado 137138" d="M167.4,655.439H144.718a2.387,2.387,0,0,0-1.694.683l-.3-.683H24.836a2.408,2.408,0,1,0,0,4.816H167.4a2.408,2.408,0,1,0,0-4.816" transform="translate(-19.01 -556.055)" fill="#424952"/>
        </g>
      </g>
      <path id="Trazado_148343" data-name="Trazado 148343" d="M16.9,14.667a4.673,4.673,0,0,1-.721,2.36,4.35,4.35,0,0,1-1.85,1.586,6.3,6.3,0,0,1-2.72.563,5.025,5.025,0,0,1-3.973-1.644,6.786,6.786,0,0,1-1.45-4.641v-.633a7.746,7.746,0,0,1,.655-3.292,4.961,4.961,0,0,1,1.885-2.18,5.26,5.26,0,0,1,2.848-.769,5.516,5.516,0,0,1,3.744,1.226,4.844,4.844,0,0,1,1.608,3.379H13.848a2.292,2.292,0,0,0-.589-1.679,2.422,2.422,0,0,0-1.687-.51A1.843,1.843,0,0,0,9.885,9.3a5.536,5.536,0,0,0-.562,2.751v.905a6.126,6.126,0,0,0,.514,2.927,1.882,1.882,0,0,0,1.771.879,2.369,2.369,0,0,0,1.626-.5,2.126,2.126,0,0,0,.6-1.591ZM21.346,19H18.375V5.5h2.971Zm4.948,0H23.323V9.49h2.971ZM23.147,7.038A1.322,1.322,0,0,1,23.6,6a1.943,1.943,0,0,1,2.373,0,1.322,1.322,0,0,1,.457,1.037,1.322,1.322,0,0,1-.457,1.037,1.943,1.943,0,0,1-2.373,0A1.322,1.322,0,0,1,23.147,7.038Zm9.571,12.138a4.889,4.889,0,0,1-3.542-1.305,4.507,4.507,0,0,1-1.354-3.4v-.246a5.84,5.84,0,0,1,.541-2.575,3.955,3.955,0,0,1,1.578-1.727A4.763,4.763,0,0,1,32.4,9.314a4.117,4.117,0,0,1,3.164,1.244,4.887,4.887,0,0,1,1.16,3.467v1.151H30.838a2.135,2.135,0,0,0,.694,1.257,2.066,2.066,0,0,0,1.389.457,2.662,2.662,0,0,0,2.2-.984l1.354,1.6A3.784,3.784,0,0,1,34.9,18.723,5.3,5.3,0,0,1,32.719,19.176ZM32.385,11.6q-1.3,0-1.547,1.723h2.988v-.229a1.467,1.467,0,0,0-.36-1.1A1.434,1.434,0,0,0,32.385,11.6ZM40.638,9.49l.1,1.116A3.225,3.225,0,0,1,43.45,9.314a2.713,2.713,0,0,1,2.219.888,4.226,4.226,0,0,1,.76,2.672V19H43.459V13a1.6,1.6,0,0,0-.29-1.059,1.342,1.342,0,0,0-1.055-.338,1.413,1.413,0,0,0-1.292.686V19H37.86V9.49ZM51.518,7.126V9.49h1.564v2.057H51.518V15.9a1.111,1.111,0,0,0,.193.747,1.037,1.037,0,0,0,.765.211,4.345,4.345,0,0,0,.738-.053v2.118a5.466,5.466,0,0,1-1.67.255,3.1,3.1,0,0,1-2.259-.721,2.954,2.954,0,0,1-.729-2.188v-4.72H47.344V9.49h1.213V7.126Zm7.33,12.05a4.889,4.889,0,0,1-3.542-1.305,4.507,4.507,0,0,1-1.354-3.4v-.246a5.84,5.84,0,0,1,.541-2.575,3.955,3.955,0,0,1,1.578-1.727,4.763,4.763,0,0,1,2.461-.611A4.117,4.117,0,0,1,61.7,10.558a4.887,4.887,0,0,1,1.16,3.467v1.151H56.968a2.135,2.135,0,0,0,.694,1.257,2.066,2.066,0,0,0,1.389.457,2.662,2.662,0,0,0,2.2-.984l1.354,1.6a3.784,3.784,0,0,1-1.569,1.217A5.3,5.3,0,0,1,58.848,19.176ZM58.514,11.6q-1.3,0-1.547,1.723h2.988v-.229a1.467,1.467,0,0,0-.36-1.1A1.434,1.434,0,0,0,58.514,11.6Zm10.512,4.729a.684.684,0,0,0-.4-.606,6.016,6.016,0,0,0-1.5-.475A6.853,6.853,0,0,1,65.3,14.6a3.062,3.062,0,0,1-1.1-.971,2.319,2.319,0,0,1-.378-1.31A2.628,2.628,0,0,1,64.9,10.163a4.453,4.453,0,0,1,2.83-.848,4.934,4.934,0,0,1,3.023.853A2.666,2.666,0,0,1,71.9,12.408H68.93q0-1.143-1.2-1.143a1.194,1.194,0,0,0-.782.259.8.8,0,0,0-.316.646.737.737,0,0,0,.387.642,3.654,3.654,0,0,0,1.235.4,10.671,10.671,0,0,1,1.49.378,2.706,2.706,0,0,1,2.145,2.646,2.491,2.491,0,0,1-1.156,2.118,5.068,5.068,0,0,1-2.993.817,5.172,5.172,0,0,1-2.18-.439,3.645,3.645,0,0,1-1.494-1.2,2.707,2.707,0,0,1-.536-1.591h2.769a1.145,1.145,0,0,0,.439.962,1.808,1.808,0,0,0,1.081.3,1.422,1.422,0,0,0,.91-.246A.787.787,0,0,0,69.026,16.328Zm8.35-2.153a5.809,5.809,0,0,1,.976-3.56,3.211,3.211,0,0,1,2.725-1.3,2.731,2.731,0,0,1,2.145,1V5.5h2.971V19H83.528l-.149-1.02a2.8,2.8,0,0,1-2.32,1.2,3.205,3.205,0,0,1-2.689-1.3A5.993,5.993,0,0,1,77.376,14.175Zm2.962.185q0,2.531,1.477,2.531a1.458,1.458,0,0,0,1.406-.826V12.443a1.419,1.419,0,0,0-1.389-.844q-1.371,0-1.485,2.215Zm12.138,4.816a4.889,4.889,0,0,1-3.542-1.305,4.507,4.507,0,0,1-1.354-3.4v-.246a5.84,5.84,0,0,1,.541-2.575A3.955,3.955,0,0,1,89.7,9.925a4.763,4.763,0,0,1,2.461-.611,4.117,4.117,0,0,1,3.164,1.244,4.887,4.887,0,0,1,1.16,3.467v1.151H90.595a2.135,2.135,0,0,0,.694,1.257,2.066,2.066,0,0,0,1.389.457,2.662,2.662,0,0,0,2.2-.984l1.354,1.6a3.784,3.784,0,0,1-1.569,1.217A5.3,5.3,0,0,1,92.475,19.176ZM92.141,11.6q-1.3,0-1.547,1.723h2.988v-.229a1.467,1.467,0,0,0-.36-1.1A1.434,1.434,0,0,0,92.141,11.6ZM107.513,19a3.344,3.344,0,0,1-.281-.853,2.754,2.754,0,0,1-2.285,1.028,3.374,3.374,0,0,1-2.285-.813,2.588,2.588,0,0,1-.94-2.043,2.66,2.66,0,0,1,1.143-2.338,5.821,5.821,0,0,1,3.322-.791h.914v-.5q0-1.316-1.134-1.316a.927.927,0,0,0-1.055,1.042H101.95a2.655,2.655,0,0,1,1.173-2.239,4.931,4.931,0,0,1,2.993-.86,4.323,4.323,0,0,1,2.874.888,3.086,3.086,0,0,1,1.081,2.435v4.21a4.311,4.311,0,0,0,.4,2V19Zm-1.854-1.934a1.652,1.652,0,0,0,.918-.237,1.487,1.487,0,0,0,.523-.536V14.772h-.861q-1.547,0-1.547,1.389a.848.848,0,0,0,.272.655A.986.986,0,0,0,105.659,17.066Zm19.362-2.751a5.735,5.735,0,0,1-1,3.538,3.2,3.2,0,0,1-2.694,1.323,2.742,2.742,0,0,1-2.153-.958v4.438h-2.962V9.49h2.769l.088.879a2.742,2.742,0,0,1,2.241-1.055,3.224,3.224,0,0,1,2.733,1.3,5.805,5.805,0,0,1,.976,3.564Zm-2.962-.185q0-2.531-1.477-2.531a1.394,1.394,0,0,0-1.406.756V16.1a1.439,1.439,0,0,0,1.424.791q1.415,0,1.459-2.443ZM129.451,19H126.48V9.49h2.971ZM126.3,7.038A1.322,1.322,0,0,1,126.762,6a1.943,1.943,0,0,1,2.373,0,1.322,1.322,0,0,1,.457,1.037,1.322,1.322,0,0,1-.457,1.037,1.943,1.943,0,0,1-2.373,0A1.322,1.322,0,0,1,126.3,7.038Zm9.571,12.138a4.889,4.889,0,0,1-3.542-1.305,4.507,4.507,0,0,1-1.354-3.4v-.246a5.84,5.84,0,0,1,.541-2.575A3.955,3.955,0,0,1,133.1,9.925a4.763,4.763,0,0,1,2.461-.611,4.117,4.117,0,0,1,3.164,1.244,4.887,4.887,0,0,1,1.16,3.467v1.151h-5.889a2.135,2.135,0,0,0,.694,1.257,2.066,2.066,0,0,0,1.389.457,2.662,2.662,0,0,0,2.2-.984l1.354,1.6a3.784,3.784,0,0,1-1.569,1.217A5.3,5.3,0,0,1,135.876,19.176Zm-.334-7.576q-1.3,0-1.547,1.723h2.988v-.229a1.467,1.467,0,0,0-.36-1.1A1.434,1.434,0,0,0,135.542,11.6Z" transform="translate(290 2083.836)" fill="#12263f"/>
      <path id="Trazado_148348" data-name="Trazado 148348" d="M15.612,14.667a4.673,4.673,0,0,1-.721,2.36,4.35,4.35,0,0,1-1.85,1.586,6.3,6.3,0,0,1-2.72.563,5.025,5.025,0,0,1-3.973-1.644A6.786,6.786,0,0,1,4.9,12.892v-.633a7.746,7.746,0,0,1,.655-3.292,4.961,4.961,0,0,1,1.885-2.18,5.26,5.26,0,0,1,2.848-.769A5.516,5.516,0,0,1,14.03,7.245a4.844,4.844,0,0,1,1.608,3.379H12.563a2.292,2.292,0,0,0-.589-1.679,2.422,2.422,0,0,0-1.687-.51A1.843,1.843,0,0,0,8.6,9.3a5.536,5.536,0,0,0-.562,2.751v.905A6.126,6.126,0,0,0,8.55,15.88a1.882,1.882,0,0,0,1.771.879,2.369,2.369,0,0,0,1.626-.5,2.126,2.126,0,0,0,.6-1.591ZM20.06,19H17.089V5.5H20.06Zm4.948,0H22.037V9.49h2.971ZM21.861,7.038A1.322,1.322,0,0,1,22.318,6a1.943,1.943,0,0,1,2.373,0,1.322,1.322,0,0,1,.457,1.037,1.322,1.322,0,0,1-.457,1.037,1.943,1.943,0,0,1-2.373,0A1.322,1.322,0,0,1,21.861,7.038Zm9.571,12.138a4.889,4.889,0,0,1-3.542-1.305,4.507,4.507,0,0,1-1.354-3.4v-.246a5.84,5.84,0,0,1,.541-2.575,3.955,3.955,0,0,1,1.578-1.727,4.763,4.763,0,0,1,2.461-.611,4.117,4.117,0,0,1,3.164,1.244,4.887,4.887,0,0,1,1.16,3.467v1.151H29.552a2.135,2.135,0,0,0,.694,1.257,2.066,2.066,0,0,0,1.389.457,2.662,2.662,0,0,0,2.2-.984l1.354,1.6a3.784,3.784,0,0,1-1.569,1.217A5.3,5.3,0,0,1,31.433,19.176ZM31.1,11.6q-1.3,0-1.547,1.723H32.54v-.229a1.467,1.467,0,0,0-.36-1.1A1.434,1.434,0,0,0,31.1,11.6ZM39.352,9.49l.1,1.116a3.225,3.225,0,0,1,2.716-1.292,2.713,2.713,0,0,1,2.219.888,4.226,4.226,0,0,1,.76,2.672V19H42.173V13a1.6,1.6,0,0,0-.29-1.059,1.342,1.342,0,0,0-1.055-.338,1.413,1.413,0,0,0-1.292.686V19H36.574V9.49ZM50.232,7.126V9.49H51.8v2.057H50.232V15.9a1.111,1.111,0,0,0,.193.747,1.037,1.037,0,0,0,.765.211,4.345,4.345,0,0,0,.738-.053v2.118a5.466,5.466,0,0,1-1.67.255A3.1,3.1,0,0,1,48,18.455a2.954,2.954,0,0,1-.729-2.188v-4.72H46.058V9.49h1.213V7.126Zm7.33,12.05a4.889,4.889,0,0,1-3.542-1.305,4.507,4.507,0,0,1-1.354-3.4v-.246a5.84,5.84,0,0,1,.541-2.575,3.955,3.955,0,0,1,1.578-1.727,4.763,4.763,0,0,1,2.461-.611,4.117,4.117,0,0,1,3.164,1.244,4.887,4.887,0,0,1,1.16,3.467v1.151H55.682a2.135,2.135,0,0,0,.694,1.257,2.066,2.066,0,0,0,1.389.457,2.662,2.662,0,0,0,2.2-.984l1.354,1.6a3.784,3.784,0,0,1-1.569,1.217A5.3,5.3,0,0,1,57.563,19.176ZM57.229,11.6q-1.3,0-1.547,1.723H58.67v-.229a1.467,1.467,0,0,0-.36-1.1A1.434,1.434,0,0,0,57.229,11.6ZM67.74,16.328a.684.684,0,0,0-.4-.606,6.016,6.016,0,0,0-1.5-.475,6.853,6.853,0,0,1-1.828-.646,3.062,3.062,0,0,1-1.1-.971,2.319,2.319,0,0,1-.378-1.31,2.628,2.628,0,0,1,1.081-2.158,4.453,4.453,0,0,1,2.83-.848,4.934,4.934,0,0,1,3.023.853,2.666,2.666,0,0,1,1.143,2.241H67.644q0-1.143-1.2-1.143a1.194,1.194,0,0,0-.782.259.8.8,0,0,0-.316.646.737.737,0,0,0,.387.642,3.654,3.654,0,0,0,1.235.4,10.671,10.671,0,0,1,1.49.378A2.706,2.706,0,0,1,70.6,16.24a2.491,2.491,0,0,1-1.156,2.118,5.068,5.068,0,0,1-2.993.817,5.172,5.172,0,0,1-2.18-.439,3.645,3.645,0,0,1-1.494-1.2,2.707,2.707,0,0,1-.536-1.591h2.769a1.145,1.145,0,0,0,.439.962,1.808,1.808,0,0,0,1.081.3,1.422,1.422,0,0,0,.91-.246A.787.787,0,0,0,67.74,16.328Zm8.35-2.153a5.809,5.809,0,0,1,.976-3.56,3.211,3.211,0,0,1,2.725-1.3,2.731,2.731,0,0,1,2.145,1V5.5h2.971V19H82.242l-.149-1.02a2.8,2.8,0,0,1-2.32,1.2,3.205,3.205,0,0,1-2.689-1.3A5.993,5.993,0,0,1,76.09,14.175Zm2.962.185q0,2.531,1.477,2.531a1.458,1.458,0,0,0,1.406-.826V12.443a1.419,1.419,0,0,0-1.389-.844q-1.371,0-1.485,2.215ZM89.713,19H86.742V9.49h2.971ZM86.566,7.038A1.322,1.322,0,0,1,87.023,6,1.943,1.943,0,0,1,89.4,6a1.322,1.322,0,0,1,.457,1.037A1.322,1.322,0,0,1,89.4,8.075a1.943,1.943,0,0,1-2.373,0A1.322,1.322,0,0,1,86.566,7.038Zm4.623,7.137a6.421,6.421,0,0,1,.475-2.549,3.821,3.821,0,0,1,1.362-1.709,3.591,3.591,0,0,1,2.065-.6,2.855,2.855,0,0,1,2.32,1l.105-.826h2.689V18.64a4.009,4.009,0,0,1-.584,2.184,3.75,3.75,0,0,1-1.692,1.424,6.219,6.219,0,0,1-2.566.5,5.365,5.365,0,0,1-2.026-.4,3.657,3.657,0,0,1-1.5-1.028l1.239-1.74a2.716,2.716,0,0,0,2.18.976,1.764,1.764,0,0,0,1.969-2.021v-.3a2.781,2.781,0,0,1-2.153.94,3.437,3.437,0,0,1-2.812-1.332,5.517,5.517,0,0,1-1.072-3.564Zm2.971.185a3.383,3.383,0,0,0,.439,1.85,1.387,1.387,0,0,0,1.23.681,1.573,1.573,0,0,0,1.4-.642v-4a1.534,1.534,0,0,0-1.38-.65,1.4,1.4,0,0,0-1.239.708A3.858,3.858,0,0,0,94.16,14.359ZM105.015,19h-2.971V9.49h2.971ZM101.868,7.038A1.322,1.322,0,0,1,102.325,6,1.943,1.943,0,0,1,104.7,6a1.322,1.322,0,0,1,.457,1.037,1.322,1.322,0,0,1-.457,1.037,1.943,1.943,0,0,1-2.373,0A1.322,1.322,0,0,1,101.868,7.038Zm8.42.088V9.49h1.564v2.057h-1.564V15.9a1.111,1.111,0,0,0,.193.747,1.037,1.037,0,0,0,.765.211,4.345,4.345,0,0,0,.738-.053v2.118a5.466,5.466,0,0,1-1.67.255,3.1,3.1,0,0,1-2.259-.721,2.954,2.954,0,0,1-.729-2.188v-4.72h-1.213V9.49h1.213V7.126ZM118.374,19a3.344,3.344,0,0,1-.281-.853,2.754,2.754,0,0,1-2.285,1.028,3.374,3.374,0,0,1-2.285-.813,2.588,2.588,0,0,1-.94-2.043,2.66,2.66,0,0,1,1.143-2.338,5.821,5.821,0,0,1,3.322-.791h.914v-.5q0-1.316-1.134-1.316a.927.927,0,0,0-1.055,1.042h-2.962a2.655,2.655,0,0,1,1.173-2.239,4.931,4.931,0,0,1,2.993-.86,4.323,4.323,0,0,1,2.874.888,3.086,3.086,0,0,1,1.081,2.435v4.21a4.311,4.311,0,0,0,.4,2V19Zm-1.854-1.934a1.652,1.652,0,0,0,.918-.237,1.487,1.487,0,0,0,.523-.536V14.772H117.1q-1.547,0-1.547,1.389a.848.848,0,0,0,.272.655A.986.986,0,0,0,116.52,17.066ZM125.7,19h-2.971V5.5H125.7Zm6.425.176a4.889,4.889,0,0,1-3.542-1.305,4.507,4.507,0,0,1-1.354-3.4v-.246a5.84,5.84,0,0,1,.541-2.575,3.955,3.955,0,0,1,1.578-1.727,4.763,4.763,0,0,1,2.461-.611,4.117,4.117,0,0,1,3.164,1.244,4.887,4.887,0,0,1,1.16,3.467v1.151h-5.889a2.135,2.135,0,0,0,.694,1.257,2.066,2.066,0,0,0,1.389.457,2.662,2.662,0,0,0,2.2-.984l1.354,1.6a3.784,3.784,0,0,1-1.569,1.217A5.3,5.3,0,0,1,132.12,19.176Zm-.334-7.576q-1.3,0-1.547,1.723h2.988v-.229a1.467,1.467,0,0,0-.36-1.1A1.434,1.434,0,0,0,131.786,11.6ZM142.3,16.328a.684.684,0,0,0-.4-.606,6.016,6.016,0,0,0-1.5-.475,6.853,6.853,0,0,1-1.828-.646,3.062,3.062,0,0,1-1.1-.971,2.319,2.319,0,0,1-.378-1.31,2.628,2.628,0,0,1,1.081-2.158,4.453,4.453,0,0,1,2.83-.848,4.934,4.934,0,0,1,3.023.853,2.666,2.666,0,0,1,1.143,2.241H142.2q0-1.143-1.2-1.143a1.194,1.194,0,0,0-.782.259.8.8,0,0,0-.316.646.737.737,0,0,0,.387.642,3.654,3.654,0,0,0,1.235.4,10.671,10.671,0,0,1,1.49.378,2.706,2.706,0,0,1,2.145,2.646A2.491,2.491,0,0,1,144,18.358a5.068,5.068,0,0,1-2.993.817,5.172,5.172,0,0,1-2.18-.439,3.645,3.645,0,0,1-1.494-1.2,2.707,2.707,0,0,1-.536-1.591h2.769a1.145,1.145,0,0,0,.439.962,1.808,1.808,0,0,0,1.081.3,1.422,1.422,0,0,0,.91-.246A.787.787,0,0,0,142.3,16.328Z" transform="translate(1165 2083.836)" fill="#12263f"/>
      <path id="Trazado_148344" data-name="Trazado 148344" d="M-44.484,0h-1.5V-11.375h1.5ZM-40.6-8.453l.047,1.063a3.08,3.08,0,0,1,2.531-1.219q2.68,0,2.7,3.023V0h-1.445V-5.594a1.946,1.946,0,0,0-.418-1.352,1.675,1.675,0,0,0-1.277-.437,2.086,2.086,0,0,0-1.234.375,2.546,2.546,0,0,0-.828.984V0h-1.445V-8.453ZM-31.18-10.5v2.047H-29.6v1.117H-31.18v5.249a1.173,1.173,0,0,0,.211.763.888.888,0,0,0,.719.254,3.5,3.5,0,0,0,.688-.094V0a4.215,4.215,0,0,1-1.109.155A1.8,1.8,0,0,1-32.133-.43a2.517,2.517,0,0,1-.492-1.664V-7.336h-1.539V-8.453h1.539V-10.5ZM-24.406.156A3.693,3.693,0,0,1-27.2-.973a4.19,4.19,0,0,1-1.078-3.02v-.266A5.073,5.073,0,0,1-27.8-6.5a3.748,3.748,0,0,1,1.344-1.547,3.378,3.378,0,0,1,1.871-.559,3.166,3.166,0,0,1,2.563,1.086,4.7,4.7,0,0,1,.914,3.109v.6h-5.727a3,3,0,0,0,.73,2.02,2.3,2.3,0,0,0,1.777.77,2.517,2.517,0,0,0,1.3-.312,3.259,3.259,0,0,0,.93-.828l.883.688A3.55,3.55,0,0,1-24.406.156Zm-.18-7.578a1.928,1.928,0,0,0-1.469.637A3.1,3.1,0,0,0-26.789-5h4.234v-.109a2.753,2.753,0,0,0-.594-1.707A1.815,1.815,0,0,0-24.586-7.422Zm9.234.266a4.331,4.331,0,0,0-.711-.055A1.9,1.9,0,0,0-17.992-6V0h-1.445V-8.453h1.406l.023.977a2.251,2.251,0,0,1,2.016-1.133,1.477,1.477,0,0,1,.641.109Zm2.688-1.3.039.938a3.122,3.122,0,0,1,2.508-1.094A2.417,2.417,0,0,1-7.7-7.25a3.2,3.2,0,0,1,1.1-.984,3.242,3.242,0,0,1,1.6-.375q2.781,0,2.828,2.945V0H-3.625V-5.578a1.941,1.941,0,0,0-.414-1.355A1.823,1.823,0,0,0-5.43-7.383a1.916,1.916,0,0,0-1.336.48,1.949,1.949,0,0,0-.617,1.293V0H-8.836V-5.539a1.613,1.613,0,0,0-1.8-1.844,1.934,1.934,0,0,0-1.945,1.211V0h-1.445V-8.453ZM3.508.156A3.693,3.693,0,0,1,.711-.973,4.19,4.19,0,0,1-.367-3.992v-.266A5.073,5.073,0,0,1,.113-6.5,3.748,3.748,0,0,1,1.457-8.051a3.378,3.378,0,0,1,1.871-.559A3.166,3.166,0,0,1,5.891-7.523,4.7,4.7,0,0,1,6.8-4.414v.6H1.078a3,3,0,0,0,.73,2.02,2.3,2.3,0,0,0,1.777.77,2.517,2.517,0,0,0,1.3-.312,3.259,3.259,0,0,0,.93-.828l.883.688A3.55,3.55,0,0,1,3.508.156Zm-.18-7.578a1.928,1.928,0,0,0-1.469.637A3.1,3.1,0,0,0,1.125-5H5.359v-.109a2.753,2.753,0,0,0-.594-1.707A1.815,1.815,0,0,0,3.328-7.422ZM8.125-4.3a4.952,4.952,0,0,1,.922-3.129,2.915,2.915,0,0,1,2.414-1.184,2.932,2.932,0,0,1,2.352,1.016V-12h1.445V0H13.93l-.07-.906A2.943,2.943,0,0,1,11.445.156a2.887,2.887,0,0,1-2.395-1.2,5.008,5.008,0,0,1-.926-3.141Zm1.445.164a3.749,3.749,0,0,0,.594,2.25A1.92,1.92,0,0,0,11.8-1.07,2.108,2.108,0,0,0,13.813-2.3V-6.187a2.125,2.125,0,0,0-1.992-1.2,1.929,1.929,0,0,0-1.656.82A4.128,4.128,0,0,0,9.57-4.133ZM19.07,0H17.625V-8.453H19.07ZM17.508-10.7a.863.863,0,0,1,.215-.594.807.807,0,0,1,.637-.242.819.819,0,0,1,.641.242.854.854,0,0,1,.219.594.826.826,0,0,1-.219.586.834.834,0,0,1-.641.234.821.821,0,0,1-.637-.234A.834.834,0,0,1,17.508-10.7ZM26.6,0a3.036,3.036,0,0,1-.2-.891A3.225,3.225,0,0,1,23.992.156a2.984,2.984,0,0,1-2.051-.707,2.287,2.287,0,0,1-.8-1.793,2.39,2.39,0,0,1,1-2.051,4.733,4.733,0,0,1,2.824-.73h1.406v-.664A1.623,1.623,0,0,0,25.922-7a1.821,1.821,0,0,0-1.336-.449,2.108,2.108,0,0,0-1.3.391,1.151,1.151,0,0,0-.523.945H21.313a2,2,0,0,1,.449-1.223,3.066,3.066,0,0,1,1.219-.934,4.1,4.1,0,0,1,1.691-.344,3.342,3.342,0,0,1,2.289.73,2.635,2.635,0,0,1,.859,2.012v3.891a4.757,4.757,0,0,0,.3,1.852V0ZM24.2-1.1a2.54,2.54,0,0,0,1.289-.352,2.127,2.127,0,0,0,.883-.914V-4.1H25.242q-2.656,0-2.656,1.555a1.316,1.316,0,0,0,.453,1.063A1.742,1.742,0,0,0,24.2-1.1Zm9.969-6.055a4.331,4.331,0,0,0-.711-.055A1.9,1.9,0,0,0,31.531-6V0H30.086V-8.453h1.406l.023.977a2.251,2.251,0,0,1,2.016-1.133,1.477,1.477,0,0,1,.641.109ZM37.07,0H35.625V-8.453H37.07ZM35.508-10.7a.863.863,0,0,1,.215-.594.807.807,0,0,1,.637-.242.819.819,0,0,1,.641.242.854.854,0,0,1,.219.594.826.826,0,0,1-.219.586.834.834,0,0,1-.641.234.821.821,0,0,1-.637-.234A.834.834,0,0,1,35.508-10.7ZM39-4.3a4.993,4.993,0,0,1,.488-2.234A3.643,3.643,0,0,1,40.848-8.07a3.7,3.7,0,0,1,1.988-.539,3.565,3.565,0,0,1,2.793,1.2A4.6,4.6,0,0,1,46.7-4.234v.1a5.036,5.036,0,0,1-.473,2.215A3.589,3.589,0,0,1,44.871-.391a3.743,3.743,0,0,1-2.02.547,3.556,3.556,0,0,1-2.785-1.2A4.575,4.575,0,0,1,39-4.2Zm1.453.172a3.616,3.616,0,0,0,.652,2.258,2.088,2.088,0,0,0,1.746.852,2.075,2.075,0,0,0,1.75-.863A3.955,3.955,0,0,0,45.25-4.3a3.61,3.61,0,0,0-.66-2.254,2.1,2.1,0,0,0-1.754-.863,2.075,2.075,0,0,0-1.727.852A3.925,3.925,0,0,0,40.453-4.133Z" transform="translate(630 1741)" fill="#12263f"/>
      <path id="Trazado_148346" data-name="Trazado 148346" d="M-24.1,0V-11.375h3.211a5.169,5.169,0,0,1,2.625.656A4.438,4.438,0,0,1-16.5-8.852a6.078,6.078,0,0,1,.629,2.781v.727a6.1,6.1,0,0,1-.621,2.82A4.369,4.369,0,0,1-18.266-.664,5.5,5.5,0,0,1-20.949,0Zm1.5-10.148v8.922h1.578a3.434,3.434,0,0,0,2.7-1.079,4.458,4.458,0,0,0,.965-3.073v-.665a4.529,4.529,0,0,0-.91-3.014,3.239,3.239,0,0,0-2.582-1.091ZM-12.262,0h-1.445V-8.453h1.445Zm-1.562-10.7a.863.863,0,0,1,.215-.594.807.807,0,0,1,.637-.242.819.819,0,0,1,.641.242.854.854,0,0,1,.219.594.826.826,0,0,1-.219.586.834.834,0,0,1-.641.234.821.821,0,0,1-.637-.234A.834.834,0,0,1-13.824-10.7Zm7.961,3.539a4.331,4.331,0,0,0-.711-.055A1.9,1.9,0,0,0-8.5-6V0H-9.949V-8.453h1.406l.023.977A2.251,2.251,0,0,1-6.5-8.609a1.477,1.477,0,0,1,.641.109ZM-1.027.156a3.693,3.693,0,0,1-2.8-1.129A4.19,4.19,0,0,1-4.9-3.992v-.266A5.073,5.073,0,0,1-4.422-6.5,3.748,3.748,0,0,1-3.078-8.051a3.378,3.378,0,0,1,1.871-.559A3.166,3.166,0,0,1,1.355-7.523,4.7,4.7,0,0,1,2.27-4.414v.6H-3.457a3,3,0,0,0,.73,2.02,2.3,2.3,0,0,0,1.777.77,2.517,2.517,0,0,0,1.3-.312,3.259,3.259,0,0,0,.93-.828l.883.688A3.55,3.55,0,0,1-1.027.156Zm-.18-7.578a1.928,1.928,0,0,0-1.469.637A3.1,3.1,0,0,0-3.41-5H.824v-.109A2.753,2.753,0,0,0,.23-6.816,1.815,1.815,0,0,0-1.207-7.422Zm8.539,6.4a2.082,2.082,0,0,0,1.352-.469,1.649,1.649,0,0,0,.641-1.172h1.367a2.621,2.621,0,0,1-.5,1.383A3.293,3.293,0,0,1,8.961-.234,3.55,3.55,0,0,1,7.332.156,3.482,3.482,0,0,1,4.586-1a4.59,4.59,0,0,1-1.02-3.152v-.242a5.089,5.089,0,0,1,.453-2.2,3.451,3.451,0,0,1,1.3-1.492,3.7,3.7,0,0,1,2-.531,3.39,3.39,0,0,1,2.363.852,3.043,3.043,0,0,1,1,2.211H9.324A1.992,1.992,0,0,0,8.7-6.895a1.932,1.932,0,0,0-1.379-.527,2.023,2.023,0,0,0-1.707.793,3.724,3.724,0,0,0-.605,2.293v.273a3.65,3.65,0,0,0,.6,2.25A2.033,2.033,0,0,0,7.332-1.023ZM14.277-10.5v2.047h1.578v1.117H14.277v5.249a1.173,1.173,0,0,0,.211.763.888.888,0,0,0,.719.254,3.5,3.5,0,0,0,.688-.094V0a4.215,4.215,0,0,1-1.109.155A1.8,1.8,0,0,1,13.324-.43a2.517,2.517,0,0,1-.492-1.664V-7.336H11.293V-8.453h1.539V-10.5ZM17-4.3a4.993,4.993,0,0,1,.488-2.234A3.643,3.643,0,0,1,18.852-8.07a3.7,3.7,0,0,1,1.988-.539,3.565,3.565,0,0,1,2.793,1.2A4.6,4.6,0,0,1,24.7-4.234v.1a5.036,5.036,0,0,1-.473,2.215A3.589,3.589,0,0,1,22.875-.391a3.743,3.743,0,0,1-2.02.547,3.556,3.556,0,0,1-2.785-1.2A4.575,4.575,0,0,1,17-4.2Zm1.453.172a3.616,3.616,0,0,0,.652,2.258,2.088,2.088,0,0,0,1.746.852,2.075,2.075,0,0,0,1.75-.863A3.955,3.955,0,0,0,23.254-4.3a3.61,3.61,0,0,0-.66-2.254,2.1,2.1,0,0,0-1.754-.863,2.075,2.075,0,0,0-1.727.852A3.925,3.925,0,0,0,18.457-4.133Z" transform="translate(962 1741)" fill="#12263f"/>
    </g>
    <g id="Rectángulo_40851" data-name="Rectángulo 40851" transform="translate(210 1589)" fill="none" stroke="#361d90" stroke-width="3" stroke-dasharray="10">
      <rect width="1180" height="541" stroke="none"/>
      <rect x="1.5" y="1.5" width="1177" height="538" fill="none"/>
    </g>
    <path id="Trazado_148349" data-name="Trazado 148349" d="M-47.969,0h-1.225l-4.653-7.122V0h-1.225V-9.242h1.225l4.666,7.154V-9.242h1.212ZM-46.3-3.5a4.057,4.057,0,0,1,.4-1.815,2.96,2.96,0,0,1,1.1-1.244A3.007,3.007,0,0,1-43.183-7a2.9,2.9,0,0,1,2.269.971,3.736,3.736,0,0,1,.866,2.583v.083a4.092,4.092,0,0,1-.384,1.8,2.916,2.916,0,0,1-1.1,1.241A3.041,3.041,0,0,1-43.17.127a2.889,2.889,0,0,1-2.263-.971A3.718,3.718,0,0,1-46.3-3.415Zm1.181.14a2.938,2.938,0,0,0,.53,1.834,1.7,1.7,0,0,0,1.419.692,1.686,1.686,0,0,0,1.422-.7A3.213,3.213,0,0,0-41.222-3.5a2.933,2.933,0,0,0-.536-1.831,1.705,1.705,0,0,0-1.425-.7,1.686,1.686,0,0,0-1.4.692A3.189,3.189,0,0,0-45.119-3.358Zm8.138-5.173v1.663H-35.7v.908h-1.282V-1.7a.953.953,0,0,0,.171.62.721.721,0,0,0,.584.207,2.843,2.843,0,0,0,.559-.076V0a3.424,3.424,0,0,1-.9.126,1.462,1.462,0,0,1-1.187-.476,2.045,2.045,0,0,1-.4-1.352V-5.96h-1.25v-.908h1.25V-8.531ZM-30.088,0a2.467,2.467,0,0,1-.165-.724,2.62,2.62,0,0,1-1.955.851,2.424,2.424,0,0,1-1.666-.574A1.859,1.859,0,0,1-34.525-1.9a1.942,1.942,0,0,1,.816-1.666,3.846,3.846,0,0,1,2.295-.594h1.143V-4.7a1.319,1.319,0,0,0-.368-.981,1.48,1.48,0,0,0-1.085-.365,1.712,1.712,0,0,0-1.054.317.935.935,0,0,0-.425.768h-1.181a1.621,1.621,0,0,1,.365-.993,2.491,2.491,0,0,1,.99-.759A3.331,3.331,0,0,1-31.656-7,2.715,2.715,0,0,1-29.8-6.4a2.141,2.141,0,0,1,.7,1.635v3.161a3.865,3.865,0,0,0,.241,1.5V0Zm-1.949-.9a2.064,2.064,0,0,0,1.047-.286,1.728,1.728,0,0,0,.717-.743V-3.333h-.92q-2.158,0-2.158,1.263a1.069,1.069,0,0,0,.368.863A1.415,1.415,0,0,0-32.037-.9Zm4.805.279a.735.735,0,0,1,.181-.508.689.689,0,0,1,.543-.2.71.71,0,0,1,.549.2.721.721,0,0,1,.187.508.681.681,0,0,1-.187.489.723.723,0,0,1-.549.2.7.7,0,0,1-.543-.2A.7.7,0,0,1-27.231-.616Zm9.521-3.5a5.731,5.731,0,0,1-2.282-1.108,2.116,2.116,0,0,1-.714-1.622,2.236,2.236,0,0,1,.873-1.806,3.469,3.469,0,0,1,2.269-.714,3.786,3.786,0,0,1,1.7.368,2.792,2.792,0,0,1,1.155,1.016A2.6,2.6,0,0,1-14.3-6.57h-1.225a1.69,1.69,0,0,0-.533-1.322,2.168,2.168,0,0,0-1.5-.481,2.22,2.22,0,0,0-1.406.4,1.326,1.326,0,0,0-.5,1.1A1.193,1.193,0,0,0-19-5.915a4.7,4.7,0,0,0,1.631.715,7.569,7.569,0,0,1,1.8.715,2.736,2.736,0,0,1,.965.911,2.325,2.325,0,0,1,.314,1.225,2.159,2.159,0,0,1-.876,1.8A3.735,3.735,0,0,1-17.5.127a4.344,4.344,0,0,1-1.777-.365,2.991,2.991,0,0,1-1.273-1A2.44,2.44,0,0,1-21-2.679h1.225a1.592,1.592,0,0,0,.619,1.323A2.606,2.606,0,0,0-17.5-.87a2.4,2.4,0,0,0,1.479-.394,1.278,1.278,0,0,0,.514-1.073,1.255,1.255,0,0,0-.476-1.051A5.489,5.489,0,0,0-17.71-4.12ZM-7.5-4.272H-11.5V-1h4.653V0h-5.872V-9.242h5.808v1H-11.5v2.977H-7.5ZM1.771,0H.546L-4.107-7.122V0H-5.332V-9.242h1.225L.559-2.088V-9.242H1.771ZM9.039-2.418H5.167L4.3,0H3.041L6.57-9.242H7.636L11.172,0H9.921Zm-3.5-1H8.677L7.1-7.738Zm9.871-.336a9.814,9.814,0,0,1,.384-2.755,8,8,0,0,1,1.146-2.4,4.874,4.874,0,0,1,1.581-1.523l.241.774a5.056,5.056,0,0,0-1.52,2.171,9.411,9.411,0,0,0-.651,3.269l-.006.54a9.46,9.46,0,0,0,.9,4.253,5.079,5.079,0,0,0,1.282,1.688l-.241.717A5.031,5.031,0,0,1,16.9,1.409,8.823,8.823,0,0,1,15.406-3.751ZM25.829,0H19.773V-.844l3.2-3.555a7.6,7.6,0,0,0,.981-1.311,2.188,2.188,0,0,0,.27-1.044,1.658,1.658,0,0,0-.438-1.187A1.531,1.531,0,0,0,22.617-8.4a1.814,1.814,0,0,0-1.362.5,1.9,1.9,0,0,0-.486,1.387H19.6a2.726,2.726,0,0,1,.822-2.063,3.047,3.047,0,0,1,2.2-.787,2.928,2.928,0,0,1,2.038.676,2.306,2.306,0,0,1,.749,1.8,5.287,5.287,0,0,1-1.739,3.25L21.188-.958h4.64Zm7.04-3.942a5.371,5.371,0,0,1-.7,3.066,2.506,2.506,0,0,1-2.2,1,2.524,2.524,0,0,1-2.19-.981,5.1,5.1,0,0,1-.736-2.929V-5.351a5.251,5.251,0,0,1,.7-3.028,2.525,2.525,0,0,1,2.209-.99,2.548,2.548,0,0,1,2.2.955,5.068,5.068,0,0,1,.724,2.948ZM31.694-5.548a4.3,4.3,0,0,0-.419-2.174A1.442,1.442,0,0,0,29.948-8.4a1.423,1.423,0,0,0-1.314.679,4.2,4.2,0,0,0-.425,2.088v1.879a4.372,4.372,0,0,0,.435,2.212,1.439,1.439,0,0,0,1.317.714A1.42,1.42,0,0,0,31.253-1.5a4.214,4.214,0,0,0,.441-2.12ZM40.428,0H34.373V-.844l3.2-3.555a7.6,7.6,0,0,0,.981-1.311,2.188,2.188,0,0,0,.27-1.044,1.658,1.658,0,0,0-.438-1.187A1.531,1.531,0,0,0,37.216-8.4a1.814,1.814,0,0,0-1.362.5,1.9,1.9,0,0,0-.486,1.387H34.195a2.726,2.726,0,0,1,.822-2.063,3.047,3.047,0,0,1,2.2-.787,2.928,2.928,0,0,1,2.038.676A2.306,2.306,0,0,1,40-6.894a5.287,5.287,0,0,1-1.739,3.25L35.788-.958h4.64Zm7.3,0H41.672V-.844l3.2-3.555a7.6,7.6,0,0,0,.981-1.311,2.188,2.188,0,0,0,.27-1.044,1.658,1.658,0,0,0-.438-1.187A1.531,1.531,0,0,0,44.516-8.4a1.814,1.814,0,0,0-1.362.5,1.9,1.9,0,0,0-.486,1.387H41.495a2.726,2.726,0,0,1,.822-2.063,3.047,3.047,0,0,1,2.2-.787,2.928,2.928,0,0,1,2.038.676,2.306,2.306,0,0,1,.749,1.8,5.287,5.287,0,0,1-1.739,3.25L43.088-.958h4.64ZM51.8-3.688a9.819,9.819,0,0,1-.371,2.714,8.024,8.024,0,0,1-1.136,2.4,4.978,4.978,0,0,1-1.6,1.562l-.248-.717A5.1,5.1,0,0,0,50.016-.06a10.065,10.065,0,0,0,.606-3.5v-.2a10.45,10.45,0,0,0-.279-2.479A8.366,8.366,0,0,0,49.566-8.3a4.743,4.743,0,0,0-1.12-1.416l.248-.717a4.959,4.959,0,0,1,1.6,1.549,8.041,8.041,0,0,1,1.136,2.393A10.045,10.045,0,0,1,51.8-3.688ZM53.638-.616a.735.735,0,0,1,.181-.508.689.689,0,0,1,.543-.2.71.71,0,0,1,.549.2.721.721,0,0,1,.187.508.681.681,0,0,1-.187.489.723.723,0,0,1-.549.2.7.7,0,0,1-.543-.2A.7.7,0,0,1,53.638-.616Z" transform="translate(1334 2149)" fill="#12263f"/>
  </g>
</svg>
