<svg id="Grupo_94436" data-name="Grupo 94436" xmlns="http://www.w3.org/2000/svg" xmlns:xlink="http://www.w3.org/1999/xlink" width="100" height="78" viewBox="0 0 100 78">
  <defs>
    <clipPath id="clip-path">
      <rect id="Rectángulo_40835" data-name="Rectángulo 40835" width="100" height="78" fill="none"/>
    </clipPath>
  </defs>
  <rect id="Rectángulo_40832" data-name="Rectángulo 40832" width="14.09" height="68.653" transform="translate(76.632 0.935)" fill="#acdaa3"/>
  <rect id="Rectángulo_40833" data-name="Rectángulo 40833" width="14.09" height="61.932" transform="translate(42.954 7.656)" fill="#a7ceda"/>
  <rect id="Rectángulo_40834" data-name="Rectángulo 40834" width="14.09" height="41.76" transform="translate(9.271 27.828)" fill="#e69787"/>
  <g id="Grupo_94435" data-name="Grupo 94435" transform="translate(0 0)">
    <g id="Grupo_94434" data-name="Grupo 94434" clip-path="url(#clip-path)">
      <path id="Trazado_137027" data-name="Trazado 137027" d="M98.2,24.58a1.83,1.83,0,0,1,0,3.66H1.8a1.83,1.83,0,0,1,0-3.66H98.2Z" transform="translate(0 49.76)"/>
      <path id="Trazado_137028" data-name="Trazado 137028" d="M33.126,17.69V29.969a1.8,1.8,0,0,1-1.8,1.815,1.822,1.822,0,0,1-1.8-1.815V17.69a1.849,1.849,0,0,0,1.8,1.845,1.829,1.829,0,0,0,1.8-1.845" transform="translate(57.502 35.812)"/>
      <path id="Trazado_137029" data-name="Trazado 137029" d="M33.126,17.085v5.5a1.829,1.829,0,0,0-1.8-1.845,1.849,1.849,0,0,0-1.8,1.845v-5.5a1.822,1.822,0,0,1,1.8-1.815,1.8,1.8,0,0,1,1.8,1.815" transform="translate(57.502 30.913)"/>
      <path id="Trazado_137030" data-name="Trazado 137030" d="M33.126,10.975v9.255a1.8,1.8,0,0,1-1.8,1.815,1.822,1.822,0,0,1-1.8-1.815V10.975a1.822,1.822,0,0,1,1.8-1.815,1.8,1.8,0,0,1,1.8,1.815" transform="translate(57.502 18.544)"/>
      <path id="Trazado_137031" data-name="Trazado 137031" d="M33.126,4.89v5.5a1.829,1.829,0,0,1-1.8,1.845,1.849,1.849,0,0,1-1.8-1.845V4.89a1.829,1.829,0,0,0,1.8,1.845,1.81,1.81,0,0,0,1.8-1.845" transform="translate(57.502 9.899)"/>
      <path id="Trazado_137032" data-name="Trazado 137032" d="M44.322,1.815V14.789a1.8,1.8,0,0,0-1.8-1.815,1.822,1.822,0,0,0-1.8,1.815V3.66H27.346V65.781a1.783,1.783,0,1,1-3.566,0V1.815A1.8,1.8,0,0,1,25.578,0H42.524a1.8,1.8,0,0,1,1.8,1.815" transform="translate(46.305 0)"/>
      <path id="Trazado_137033" data-name="Trazado 137033" d="M31.328,4.29a1.83,1.83,0,0,1,0,3.66,1.83,1.83,0,0,1,0-3.66" transform="translate(57.502 8.685)"/>
      <path id="Trazado_137034" data-name="Trazado 137034" d="M31.328,17.08a1.846,1.846,0,0,1,0,3.69,1.846,1.846,0,0,1,0-3.69" transform="translate(57.502 34.577)"/>
      <path id="Trazado_137035" data-name="Trazado 137035" d="M34.022,4.235V60.882a1.783,1.783,0,1,1-3.566,0V6.08H17.046v54.8a1.783,1.783,0,1,1-3.566,0V4.235a1.8,1.8,0,0,1,1.8-1.815H32.224a1.8,1.8,0,0,1,1.8,1.815" transform="translate(26.249 4.899)"/>
      <path id="Trazado_137036" data-name="Trazado 137036" d="M23.722,6.685v49.3a1.783,1.783,0,1,1-3.566,0V8.5H6.746V55.983a1.783,1.783,0,1,1-3.566,0V6.685a1.81,1.81,0,0,1,1.8-1.845H21.924a1.81,1.81,0,0,1,1.8,1.845" transform="translate(6.192 9.798)"/>
    </g>
  </g>
</svg>
