<svg id="Grupo_94415" data-name="Grupo 94415" xmlns="http://www.w3.org/2000/svg" xmlns:xlink="http://www.w3.org/1999/xlink" width="55" height="55" viewBox="0 0 55 55">
  <defs>
    <clipPath id="clip-path">
      <rect id="Rectángulo_40808" data-name="Rectángulo 40808" width="55" height="55" fill="none"/>
    </clipPath>
  </defs>
  <g id="Grupo_94414" data-name="Grupo 94414" transform="translate(0 0)" clip-path="url(#clip-path)">
    <path id="Trazado_136863" data-name="Trazado 136863" d="M55,21.458v12.1a.954.954,0,0,1-.952.952h-6.36a22.121,22.121,0,0,1-.967,2.3l4.5,4.5a.987.987,0,0,1,.285.682,1.017,1.017,0,0,1-.285.682l-8.548,8.548a.957.957,0,0,1-1.364,0l-4.5-4.5a22.121,22.121,0,0,1-2.3.967v6.36a.954.954,0,0,1-.952.952h-12.1a.958.958,0,0,1-.967-.952v-6.36a23.416,23.416,0,0,1-2.284-.967l-4.5,4.5a.957.957,0,0,1-1.364,0L3.79,42.678A.948.948,0,0,1,3.5,42a.922.922,0,0,1,.285-.682l4.5-4.5a19.144,19.144,0,0,1-.967-2.3H.967A.968.968,0,0,1,0,33.558v-12.1a.971.971,0,0,1,.967-.967h6.36a20.075,20.075,0,0,1,.967-2.284l-4.5-4.5a.948.948,0,0,1-.285-.682.922.922,0,0,1,.285-.682L12.339,3.79a.957.957,0,0,1,1.364,0l4.5,4.5a18.933,18.933,0,0,1,2.284-.967V.967A.971.971,0,0,1,21.458,0h12.1a.968.968,0,0,1,.952.967v6.36a19.144,19.144,0,0,1,2.3.967l4.5-4.5a.987.987,0,0,1,1.364,0l8.548,8.548a.957.957,0,0,1,0,1.364l-4.5,4.5a23.416,23.416,0,0,1,.967,2.284h6.36a.958.958,0,0,1,.952.967M53.081,32.591V22.409h-6.09a.957.957,0,0,1-.92-.666,19.988,19.988,0,0,0-1.364-3.283.962.962,0,0,1,.159-1.126l4.33-4.314L42,5.82l-4.314,4.314a.987.987,0,0,1-1.142.174,18.068,18.068,0,0,0-3.267-1.364.986.986,0,0,1-.682-.92V1.935H22.409v6.09a.972.972,0,0,1-.666.92,18.7,18.7,0,0,0-3.283,1.364.966.966,0,0,1-1.126-.174L13.021,5.82l-7.2,7.2,4.314,4.314a.966.966,0,0,1,.174,1.126,18.7,18.7,0,0,0-1.364,3.283.972.972,0,0,1-.92.666H1.935V32.591h6.09a.986.986,0,0,1,.92.682,19.209,19.209,0,0,0,1.364,3.283.966.966,0,0,1-.174,1.126L5.82,42l7.2,7.2,4.314-4.33a.962.962,0,0,1,1.126-.159,18.7,18.7,0,0,0,3.283,1.364.957.957,0,0,1,.666.92v6.09H32.591v-6.09a.971.971,0,0,1,.682-.92,18.554,18.554,0,0,0,3.267-1.364.983.983,0,0,1,1.142.159L42,49.2,49.2,42l-4.33-4.314a.962.962,0,0,1-.159-1.126,20.577,20.577,0,0,0,1.364-3.283.971.971,0,0,1,.92-.682Z" transform="translate(0 0)"/>
    <path id="Trazado_136864" data-name="Trazado 136864" d="M52.367,21.694V31.876h-6.09a.971.971,0,0,0-.92.682,20.577,20.577,0,0,1-1.364,3.283.962.962,0,0,0,.159,1.126l4.33,4.314-7.2,7.2-4.314-4.33a.983.983,0,0,0-1.142-.159,18.554,18.554,0,0,1-3.267,1.364.971.971,0,0,0-.682.92v6.09H21.694v-6.09a.957.957,0,0,0-.666-.92,18.7,18.7,0,0,1-3.283-1.364.962.962,0,0,0-1.126.159l-4.314,4.33-7.2-7.2,4.314-4.314a.966.966,0,0,0,.174-1.126A19.209,19.209,0,0,1,8.23,32.558a.986.986,0,0,0-.92-.682H1.22V21.694H7.31a.972.972,0,0,0,.92-.666,18.7,18.7,0,0,1,1.364-3.283.966.966,0,0,0-.174-1.126L5.106,12.306l7.2-7.2,4.314,4.314a.966.966,0,0,0,1.126.174A18.7,18.7,0,0,1,21.028,8.23a.972.972,0,0,0,.666-.92V1.22H31.876V7.31a.986.986,0,0,0,.682.92,18.068,18.068,0,0,1,3.267,1.364.987.987,0,0,0,1.142-.174l4.314-4.314,7.2,7.2-4.33,4.314a.962.962,0,0,0-.159,1.126,19.988,19.988,0,0,1,1.364,3.283.957.957,0,0,0,.92.666Zm-8.739,5.091A16.843,16.843,0,1,0,26.785,43.628,16.864,16.864,0,0,0,43.628,26.785" transform="translate(0.715 0.715)" fill="#6da7bf"/>
    <path id="Trazado_136865" data-name="Trazado 136865" d="M23.563,6.72A16.843,16.843,0,1,1,6.72,23.563,16.864,16.864,0,0,1,23.563,6.72M38.486,23.563A14.942,14.942,0,0,0,25.735,8.813a13.873,13.873,0,0,0-2.173-.159,14.916,14.916,0,0,0,0,29.831,13.873,13.873,0,0,0,2.173-.159A14.959,14.959,0,0,0,38.486,23.563" transform="translate(3.938 3.937)"/>
    <path id="Trazado_136866" data-name="Trazado 136866" d="M18.8,8.04a14.915,14.915,0,0,1,0,29.514L18.55,35.54a.961.961,0,0,0,.967-.967v-1.7a5.7,5.7,0,0,0,0-10.372V14.986a3.707,3.707,0,0,1,1.411,2.9.96.96,0,1,0,1.919,0,5.821,5.821,0,0,0-3.33-5.186v-1.7a.958.958,0,0,0-.967-.952Z" transform="translate(10.869 4.711)" fill="#acdaa3"/>
    <path id="Trazado_136867" data-name="Trazado 136867" d="M22.49,16.166a.96.96,0,1,1-1.919,0,3.707,3.707,0,0,0-1.411-2.9V10.98a5.821,5.821,0,0,1,3.33,5.186" transform="translate(11.227 6.434)"/>
    <path id="Trazado_136868" data-name="Trazado 136868" d="M19.16,17.16a5.7,5.7,0,0,1,0,10.372V25.264a3.763,3.763,0,0,0,1.411-2.918,3.707,3.707,0,0,0-1.411-2.9Z" transform="translate(11.227 10.055)"/>
    <path id="Trazado_136869" data-name="Trazado 136869" d="M19.16,18.6a3.707,3.707,0,0,1,1.411,2.9A3.763,3.763,0,0,1,19.16,24.42Z" transform="translate(11.227 10.898)" fill="#acdaa3"/>
    <path id="Trazado_136870" data-name="Trazado 136870" d="M19.869,23.7v1.7a.96.96,0,1,1-1.919,0V24.3a6.03,6.03,0,0,0,1.919-.6" transform="translate(10.518 13.887)"/>
    <path id="Trazado_136871" data-name="Trazado 136871" d="M19.869,22.27v2.268a6.03,6.03,0,0,1-1.919.6V23.206a4.355,4.355,0,0,0,1.919-.936" transform="translate(10.518 13.049)"/>
    <path id="Trazado_136872" data-name="Trazado 136872" d="M19.869,18.946v5.82a4.355,4.355,0,0,1-1.919.936V18.01a4.354,4.354,0,0,1,1.919.936" transform="translate(10.518 10.553)"/>
    <path id="Trazado_136873" data-name="Trazado 136873" d="M19.869,17.377v2.284a4.354,4.354,0,0,0-1.919-.936V16.79a6.436,6.436,0,0,1,1.919.587" transform="translate(10.518 9.838)"/>
    <path id="Trazado_136874" data-name="Trazado 136874" d="M19.869,12.766v7.517A6.436,6.436,0,0,0,17.95,19.7V11.83a4.355,4.355,0,0,1,1.919.936" transform="translate(10.518 6.932)"/>
    <path id="Trazado_136875" data-name="Trazado 136875" d="M19.869,11.2v2.284a4.355,4.355,0,0,0-1.919-.936V10.61a6.436,6.436,0,0,1,1.919.587" transform="translate(10.518 6.217)"/>
    <path id="Trazado_136876" data-name="Trazado 136876" d="M19.869,10.262v1.7a6.436,6.436,0,0,0-1.919-.587v-1.11a.96.96,0,0,1,1.919,0" transform="translate(10.518 5.455)"/>
    <path id="Trazado_136877" data-name="Trazado 136877" d="M24.767,35.6l.254,2.014a13.873,13.873,0,0,1-2.173.159,14.916,14.916,0,0,1,0-29.831,13.873,13.873,0,0,1,2.173.159l-.254,2.014a.954.954,0,0,0-.952.952v1.11a6.456,6.456,0,0,0-.967-.079,4.819,4.819,0,0,0-.952.079v-1.11a.96.96,0,0,0-1.919,0v1.681a5.859,5.859,0,0,0-3.346,5.2,5.859,5.859,0,0,0,3.346,5.2v7.517a3.763,3.763,0,0,1-1.411-2.918.968.968,0,0,0-1.935,0,5.859,5.859,0,0,0,3.346,5.2v1.681a.96.96,0,1,0,1.919,0V33.537a5.844,5.844,0,0,0,1.919,0v1.094a.958.958,0,0,0,.952.967" transform="translate(4.652 4.652)" fill="#acdaa3"/>
    <path id="Trazado_136878" data-name="Trazado 136878" d="M18.659,22.86v1.935a5.844,5.844,0,0,1-1.919,0V22.86a4.61,4.61,0,0,0,.952.1,4.882,4.882,0,0,0,.967-.1" transform="translate(9.809 13.395)"/>
    <path id="Trazado_136879" data-name="Trazado 136879" d="M18.659,18.074v7.692a4.882,4.882,0,0,1-.967.1,4.61,4.61,0,0,1-.952-.1V17.9a6.418,6.418,0,0,0,.952.079,4.881,4.881,0,0,1,.967.1" transform="translate(9.809 10.488)" fill="#acdaa3"/>
    <path id="Trazado_136880" data-name="Trazado 136880" d="M18.659,16.854v1.935a4.881,4.881,0,0,0-.967-.1,6.418,6.418,0,0,1-.952-.079V16.68a4.61,4.61,0,0,0,.952.1,6.456,6.456,0,0,1,.967.079" transform="translate(9.809 9.773)"/>
    <path id="Trazado_136881" data-name="Trazado 136881" d="M18.659,11.865v7.866a6.456,6.456,0,0,0-.967-.079,4.61,4.61,0,0,1-.952-.1V11.865a4.61,4.61,0,0,1,.952-.1,4.881,4.881,0,0,1,.967.1" transform="translate(9.809 6.896)" fill="#acdaa3"/>
    <path id="Trazado_136882" data-name="Trazado 136882" d="M18.659,10.639v1.935a4.881,4.881,0,0,0-.967-.1,4.61,4.61,0,0,0-.952.1V10.639a4.819,4.819,0,0,1,.952-.079,6.456,6.456,0,0,1,.967.079" transform="translate(9.809 6.187)"/>
    <path id="Trazado_136883" data-name="Trazado 136883" d="M17.449,24.3v1.094a.96.96,0,1,1-1.919,0V23.71a6.435,6.435,0,0,0,1.919.587" transform="translate(9.1 13.893)"/>
    <path id="Trazado_136884" data-name="Trazado 136884" d="M17.449,23.206v1.935a6.435,6.435,0,0,1-1.919-.587V22.27a4.355,4.355,0,0,0,1.919.936" transform="translate(9.1 13.049)"/>
    <path id="Trazado_136885" data-name="Trazado 136885" d="M17.449,18.117v7.866a4.355,4.355,0,0,1-1.919-.936V17.53a6.436,6.436,0,0,0,1.919.587" transform="translate(9.1 10.271)"/>
    <path id="Trazado_136886" data-name="Trazado 136886" d="M17.449,17.026v1.935a6.436,6.436,0,0,1-1.919-.587V16.09a4.354,4.354,0,0,0,1.919.936" transform="translate(9.1 9.428)"/>
    <path id="Trazado_136887" data-name="Trazado 136887" d="M17.449,11.83v7.692a4.355,4.355,0,0,1-1.919-.936v-5.82a4.355,4.355,0,0,1,1.919-.936" transform="translate(9.1 6.932)"/>
    <path id="Trazado_136888" data-name="Trazado 136888" d="M17.449,10.61v1.935a4.355,4.355,0,0,0-1.919.936v-2.3a6.415,6.415,0,0,1,1.919-.571" transform="translate(9.1 6.217)"/>
    <path id="Trazado_136889" data-name="Trazado 136889" d="M17.449,10.262v1.11a6.415,6.415,0,0,0-1.919.571V10.262a.96.96,0,0,1,1.919,0" transform="translate(9.1 5.455)"/>
    <path id="Trazado_136890" data-name="Trazado 136890" d="M16.766,23.7v2.284a5.859,5.859,0,0,1-3.346-5.2.968.968,0,0,1,1.935,0A3.763,3.763,0,0,0,16.766,23.7" transform="translate(7.863 11.619)"/>
    <path id="Trazado_136891" data-name="Trazado 136891" d="M16.766,19.09v2.284a5.859,5.859,0,0,1-3.346-5.2,5.859,5.859,0,0,1,3.346-5.2v2.3a3.707,3.707,0,0,0-1.411,2.9,3.763,3.763,0,0,0,1.411,2.918" transform="translate(7.863 6.428)"/>
    <path id="Trazado_136892" data-name="Trazado 136892" d="M16.051,12.42v5.82a3.763,3.763,0,0,1-1.411-2.918,3.707,3.707,0,0,1,1.411-2.9" transform="translate(8.578 7.277)" fill="#acdaa3"/>
  </g>
</svg>
