<svg id="Grupo_94250" data-name="Grupo 94250" xmlns="http://www.w3.org/2000/svg" xmlns:xlink="http://www.w3.org/1999/xlink" width="57.711" height="74" viewBox="0 0 57.711 74">
  <defs>
    <clipPath id="clip-path">
      <rect id="Rectángulo_40773" data-name="Rectángulo 40773" width="57.711" height="74" fill="none"/>
    </clipPath>
    <clipPath id="clip-path-2">
      <rect id="Rectángulo_40772" data-name="Rectángulo 40772" width="57.711" height="73.999" fill="none"/>
    </clipPath>
    <clipPath id="clip-path-3">
      <rect id="Rectángulo_40762" data-name="Rectángulo 40762" width="34.778" height="22.991" fill="none"/>
    </clipPath>
    <clipPath id="clip-path-4">
      <rect id="Rectángulo_40763" data-name="Rectángulo 40763" width="12.753" height="19.98" fill="none"/>
    </clipPath>
    <clipPath id="clip-path-5">
      <rect id="Rectángulo_40765" data-name="Rectángulo 40765" width="3.768" height="6.248" fill="none"/>
    </clipPath>
    <clipPath id="clip-path-6">
      <rect id="Rectángulo_40767" data-name="Rectángulo 40767" width="3.515" height="11.218" fill="none"/>
    </clipPath>
    <clipPath id="clip-path-7">
      <rect id="Rectángulo_40768" data-name="Rectángulo 40768" width="20.352" height="21.292" fill="none"/>
    </clipPath>
    <clipPath id="clip-path-8">
      <rect id="Rectángulo_40769" data-name="Rectángulo 40769" width="20.355" height="21.292" fill="none"/>
    </clipPath>
    <clipPath id="clip-path-9">
      <rect id="Rectángulo_40770" data-name="Rectángulo 40770" width="11.504" height="28.153" fill="none"/>
    </clipPath>
    <clipPath id="clip-path-10">
      <rect id="Rectángulo_40771" data-name="Rectángulo 40771" width="11.499" height="28.153" fill="none"/>
    </clipPath>
  </defs>
  <g id="Grupo_94249" data-name="Grupo 94249" clip-path="url(#clip-path)">
    <g id="Grupo_94248" data-name="Grupo 94248" transform="translate(0 0.001)">
      <g id="Grupo_94247" data-name="Grupo 94247" clip-path="url(#clip-path-2)">
        <path id="Rectángulo_40761" data-name="Rectángulo 40761" d="M2.276,0H32.5a2.277,2.277,0,0,1,2.277,2.277V20.714A2.278,2.278,0,0,1,32.5,22.992H2.276A2.276,2.276,0,0,1,0,20.716V2.276A2.276,2.276,0,0,1,2.276,0Z" transform="translate(5.682 22.125)" fill="#af7eb5"/>
        <path id="Trazado_136516" data-name="Trazado 136516" d="M34.516,36.969h-27A4.629,4.629,0,0,1,2.9,32.344V17.14a4.629,4.629,0,0,1,4.622-4.624h27a4.627,4.627,0,0,1,4.619,4.624v15.2a4.627,4.627,0,0,1-4.619,4.625m-27-22.992A3.166,3.166,0,0,0,4.357,17.14v15.2a3.166,3.166,0,0,0,3.162,3.164h27a3.165,3.165,0,0,0,3.159-3.164V17.14a3.164,3.164,0,0,0-3.159-3.162Z" transform="translate(2.055 8.877)" fill="#4a1971"/>
        <g id="Grupo_94225" data-name="Grupo 94225" transform="translate(5.682 22.125)" style="mix-blend-mode: multiply;isolation: isolate">
          <g id="Grupo_94224" data-name="Grupo 94224">
            <g id="Grupo_94223" data-name="Grupo 94223" clip-path="url(#clip-path-3)">
              <path id="Trazado_136517" data-name="Trazado 136517" d="M34.213,12.944h-.779c.05.511.075,1.026.075,1.547A17.6,17.6,0,0,1,16.07,31.926,17.422,17.422,0,0,1,3.324,26.292v5.75a3.9,3.9,0,0,0,3.892,3.894h27A3.893,3.893,0,0,0,38.1,32.042v-15.2a3.89,3.89,0,0,0-3.889-3.894" transform="translate(-3.324 -12.944)" fill="#af7eb5"/>
            </g>
          </g>
        </g>
        <path id="Trazado_136518" data-name="Trazado 136518" d="M29.4,18.82l-3.525,1.908V26.9l3.525,1.9,9.229,5V13.825Z" transform="translate(18.353 9.806)" fill="#af7eb5"/>
        <path id="Trazado_136519" data-name="Trazado 136519" d="M38.93,34.84a.718.718,0,0,1-.347-.089L25.83,27.85a.731.731,0,0,1-.383-.643V21.032a.729.729,0,0,1,.383-.643l3.525-1.909,9.229-4.993a.73.73,0,0,1,1.079.641v19.98a.727.727,0,0,1-.357.627.716.716,0,0,1-.374.1M26.908,26.772,38.2,32.882V15.355L26.908,21.466Z" transform="translate(18.05 9.503)" fill="#4a1971"/>
        <g id="Grupo_94228" data-name="Grupo 94228" transform="translate(44.227 23.631)" style="mix-blend-mode: multiply;isolation: isolate">
          <g id="Grupo_94227" data-name="Grupo 94227">
            <g id="Grupo_94226" data-name="Grupo 94226" clip-path="url(#clip-path-4)">
              <path id="Trazado_136520" data-name="Trazado 136520" d="M36.773,14.828a8.513,8.513,0,0,1,.395,2.567A8.908,8.908,0,0,1,34.3,23.877a10.219,10.219,0,0,1-8.43,2.571V26.9l3.525,1.9,9.229,5V13.825Z" transform="translate(-25.875 -13.826)" fill="#af7eb5"/>
            </g>
          </g>
        </g>
        <rect id="Rectángulo_40764" data-name="Rectángulo 40764" width="3.767" height="6.248" transform="translate(40.459 30.496)" fill="#d15f9d"/>
        <path id="Trazado_136521" data-name="Trazado 136521" d="M27.74,25.121H23.973a.729.729,0,0,1-.73-.73V18.144a.729.729,0,0,1,.73-.73H27.74a.731.731,0,0,1,.732.73v6.248a.731.731,0,0,1-.732.73M24.7,23.66H27.01V18.874H24.7Z" transform="translate(16.487 12.351)" fill="#4a1971"/>
        <g id="Grupo_94231" data-name="Grupo 94231" transform="translate(40.459 30.496)" style="mix-blend-mode: multiply;isolation: isolate">
          <g id="Grupo_94230" data-name="Grupo 94230">
            <g id="Grupo_94229" data-name="Grupo 94229" clip-path="url(#clip-path-5)">
              <path id="Trazado_136522" data-name="Trazado 136522" d="M25.8,17.841a3.443,3.443,0,0,1,.72,2.087,3.707,3.707,0,0,1-2.848,3.487v.673h3.767V17.841Z" transform="translate(-23.67 -17.841)" fill="#d15f9d"/>
            </g>
          </g>
        </g>
        <rect id="Rectángulo_40766" data-name="Rectángulo 40766" width="3.514" height="11.218" transform="translate(2.167 28.12)" fill="#d15f9d"/>
        <path id="Trazado_136523" data-name="Trazado 136523" d="M5.086,28.7H1.572a.731.731,0,0,1-.732-.73V16.754a.731.731,0,0,1,.732-.73H5.086a.729.729,0,0,1,.73.73V27.972a.729.729,0,0,1-.73.73M2.3,27.24H4.354V17.484H2.3Z" transform="translate(0.596 11.365)" fill="#4a1971"/>
        <g id="Grupo_94234" data-name="Grupo 94234" transform="translate(2.167 28.12)" style="mix-blend-mode: multiply;isolation: isolate">
          <g id="Grupo_94233" data-name="Grupo 94233">
            <g id="Grupo_94232" data-name="Grupo 94232" clip-path="url(#clip-path-6)">
              <path id="Trazado_136524" data-name="Trazado 136524" d="M2.413,16.451a8.585,8.585,0,0,1,1.52,4.863,8.691,8.691,0,0,1-2.665,6.224v.132H4.782V16.451Z" transform="translate(-1.268 -16.452)" fill="#d15f9d"/>
            </g>
          </g>
        </g>
        <path id="Trazado_136525" data-name="Trazado 136525" d="M21.821,11.126a10.7,10.7,0,1,1-10.7-10.7,10.695,10.695,0,0,1,10.7,10.7" transform="translate(0.303 0.302)" fill="#e3619d"/>
        <path id="Trazado_136526" data-name="Trazado 136526" d="M11.428,22.857A11.428,11.428,0,1,1,22.855,11.428,11.441,11.441,0,0,1,11.428,22.857m0-21.4a9.967,9.967,0,1,0,9.965,9.967,9.979,9.979,0,0,0-9.965-9.967" transform="translate(0 -0.001)" fill="#4a1971"/>
        <g id="Grupo_94237" data-name="Grupo 94237" transform="translate(1.772 0.833)" style="mix-blend-mode: multiply;isolation: isolate">
          <g id="Grupo_94236" data-name="Grupo 94236">
            <g id="Grupo_94235" data-name="Grupo 94235" clip-path="url(#clip-path-7)">
              <path id="Trazado_136527" data-name="Trazado 136527" d="M12.158.487a9.484,9.484,0,0,1,3.361,7.191,9.566,9.566,0,0,1-9.476,9.48,9.365,9.365,0,0,1-5-1.461A10.7,10.7,0,1,0,12.158.487" transform="translate(-1.036 -0.488)" fill="#d15f9d"/>
            </g>
          </g>
        </g>
        <path id="Trazado_136528" data-name="Trazado 136528" d="M11.11,7.983A3.127,3.127,0,1,1,7.984,4.857,3.126,3.126,0,0,1,11.11,7.983" transform="translate(3.444 3.445)" fill="#7ccdf5"/>
        <path id="Trazado_136529" data-name="Trazado 136529" d="M8.287,12.141a3.855,3.855,0,1,1,3.858-3.854,3.862,3.862,0,0,1-3.858,3.854m0-6.249a2.394,2.394,0,1,0,2.4,2.395,2.4,2.4,0,0,0-2.4-2.395" transform="translate(3.142 3.142)" fill="#4a1971"/>
        <path id="Trazado_136530" data-name="Trazado 136530" d="M6.989,4.734A.729.729,0,0,1,6.259,4V2.435a.73.73,0,0,1,1.46,0V4a.729.729,0,0,1-.73.73" transform="translate(4.44 1.209)" fill="#4a1971"/>
        <path id="Trazado_136531" data-name="Trazado 136531" d="M6.989,12.924a.729.729,0,0,1-.73-.728V10.623a.73.73,0,0,1,1.46,0V12.2a.729.729,0,0,1-.73.728" transform="translate(4.44 7.018)" fill="#4a1971"/>
        <path id="Trazado_136532" data-name="Trazado 136532" d="M12.194,7.72H10.625a.731.731,0,0,1,0-1.461h1.569a.731.731,0,0,1,0,1.461" transform="translate(7.019 4.439)" fill="#4a1971"/>
        <path id="Trazado_136533" data-name="Trazado 136533" d="M4.006,7.72H2.436a.731.731,0,1,1,0-1.461H4.006a.731.731,0,0,1,0,1.461" transform="translate(1.209 4.439)" fill="#4a1971"/>
        <path id="Trazado_136534" data-name="Trazado 136534" d="M9.561,5.609a.731.731,0,0,1-.516-1.248l1.108-1.109a.731.731,0,0,1,1.034,1.034L10.075,5.4a.726.726,0,0,1-.515.214" transform="translate(6.263 2.154)" fill="#4a1971"/>
        <path id="Trazado_136535" data-name="Trazado 136535" d="M3.769,11.4a.73.73,0,0,1-.516-1.246L4.359,9.044a.731.731,0,1,1,1.034,1.032L4.285,11.186a.73.73,0,0,1-.516.214" transform="translate(2.155 6.263)" fill="#4a1971"/>
        <path id="Trazado_136536" data-name="Trazado 136536" d="M10.67,11.4a.73.73,0,0,1-.516-.214L9.044,10.076a.73.73,0,1,1,1.032-1.032l1.109,1.108A.731.731,0,0,1,10.67,11.4" transform="translate(6.263 6.263)" fill="#4a1971"/>
        <path id="Trazado_136537" data-name="Trazado 136537" d="M4.877,5.609a.729.729,0,0,1-.518-.215L3.253,4.284A.731.731,0,0,1,4.287,3.252L5.395,4.363a.731.731,0,0,1-.518,1.246" transform="translate(2.155 2.154)" fill="#4a1971"/>
        <path id="Trazado_136538" data-name="Trazado 136538" d="M35.446,11.126a10.7,10.7,0,1,1-10.7-10.7,10.7,10.7,0,0,1,10.7,10.7" transform="translate(9.967 0.302)" fill="#e3619d"/>
        <path id="Trazado_136539" data-name="Trazado 136539" d="M25.051,22.857A11.428,11.428,0,1,1,36.48,11.428,11.441,11.441,0,0,1,25.051,22.857m0-21.4a9.967,9.967,0,1,0,9.967,9.967,9.979,9.979,0,0,0-9.967-9.967" transform="translate(9.663 -0.001)" fill="#4a1971"/>
        <g id="Grupo_94240" data-name="Grupo 94240" transform="translate(25.058 0.833)" style="mix-blend-mode: multiply;isolation: isolate">
          <g id="Grupo_94239" data-name="Grupo 94239">
            <g id="Grupo_94238" data-name="Grupo 94238" clip-path="url(#clip-path-8)">
              <path id="Trazado_136540" data-name="Trazado 136540" d="M25.784.487a9.493,9.493,0,0,1,3.357,7.191,9.565,9.565,0,0,1-9.476,9.48,9.374,9.374,0,0,1-5-1.461A10.7,10.7,0,1,0,25.784.487" transform="translate(-14.66 -0.488)" fill="#d15f9d"/>
            </g>
          </g>
        </g>
        <path id="Trazado_136541" data-name="Trazado 136541" d="M24.734,7.983a3.127,3.127,0,1,1-3.126-3.126,3.126,3.126,0,0,1,3.126,3.126" transform="translate(13.108 3.445)" fill="#7ccdf5"/>
        <path id="Trazado_136542" data-name="Trazado 136542" d="M21.91,12.141a3.855,3.855,0,1,1,3.858-3.854,3.862,3.862,0,0,1-3.858,3.854m0-6.249a2.394,2.394,0,1,0,2.4,2.395,2.4,2.4,0,0,0-2.4-2.395" transform="translate(12.804 3.142)" fill="#4a1971"/>
        <path id="Trazado_136543" data-name="Trazado 136543" d="M20.612,4.734a.729.729,0,0,1-.73-.73V2.435a.73.73,0,0,1,1.46,0V4a.729.729,0,0,1-.73.73" transform="translate(14.103 1.209)" fill="#4a1971"/>
        <path id="Trazado_136544" data-name="Trazado 136544" d="M20.612,12.924a.729.729,0,0,1-.73-.728V10.623a.73.73,0,0,1,1.46,0V12.2a.729.729,0,0,1-.73.728" transform="translate(14.103 7.018)" fill="#4a1971"/>
        <path id="Trazado_136545" data-name="Trazado 136545" d="M25.818,7.72H24.247a.731.731,0,0,1,0-1.461h1.571a.731.731,0,0,1,0,1.461" transform="translate(16.681 4.439)" fill="#4a1971"/>
        <path id="Trazado_136546" data-name="Trazado 136546" d="M17.63,7.72H16.06a.731.731,0,1,1,0-1.461H17.63a.731.731,0,0,1,0,1.461" transform="translate(10.872 4.439)" fill="#4a1971"/>
        <path id="Trazado_136547" data-name="Trazado 136547" d="M23.184,5.609a.731.731,0,0,1-.518-1.246l1.108-1.111a.731.731,0,0,1,1.034,1.032L23.7,5.393a.729.729,0,0,1-.518.215" transform="translate(15.927 2.154)" fill="#4a1971"/>
        <path id="Trazado_136548" data-name="Trazado 136548" d="M17.393,11.4a.73.73,0,0,1-.516-1.246l1.106-1.109a.731.731,0,0,1,1.034,1.032l-1.108,1.109a.73.73,0,0,1-.516.214" transform="translate(11.819 6.263)" fill="#4a1971"/>
        <path id="Trazado_136549" data-name="Trazado 136549" d="M24.292,11.4a.73.73,0,0,1-.516-.214l-1.108-1.109A.731.731,0,0,1,23.7,9.044l1.106,1.109a.73.73,0,0,1-.516,1.246" transform="translate(15.927 6.263)" fill="#4a1971"/>
        <path id="Trazado_136550" data-name="Trazado 136550" d="M18.5,5.609a.729.729,0,0,1-.518-.215L16.876,4.284A.731.731,0,0,1,17.91,3.252l1.108,1.111A.731.731,0,0,1,18.5,5.609" transform="translate(11.818 2.154)" fill="#4a1971"/>
        <path id="Trazado_136551" data-name="Trazado 136551" d="M34.714,22.8H11.386a11.387,11.387,0,0,1,0-22.775H34.714a11.387,11.387,0,1,1,0,22.775M11.386,1.484a9.926,9.926,0,0,0,0,19.852H34.714a9.926,9.926,0,1,0,0-19.852Z" transform="translate(0 0.016)" fill="#4a1971"/>
        <path id="Trazado_136552" data-name="Trazado 136552" d="M25,54.547h-4.3L13.5,26.395h4.3Z" transform="translate(9.575 18.722)" fill="#e3619d"/>
        <path id="Trazado_136553" data-name="Trazado 136553" d="M25.306,55.581h-4.3a.731.731,0,0,1-.708-.55L13.095,26.878a.729.729,0,0,1,.708-.911H18.1a.732.732,0,0,1,.709.549l7.208,28.152a.731.731,0,0,1-.708.913m-3.728-1.461h2.786L17.53,27.428H14.742Z" transform="translate(9.272 18.418)" fill="#4a1971"/>
        <g id="Grupo_94243" data-name="Grupo 94243" transform="translate(23.075 45.116)" style="mix-blend-mode: multiply;isolation: isolate">
          <g id="Grupo_94242" data-name="Grupo 94242">
            <g id="Grupo_94241" data-name="Grupo 94241" clip-path="url(#clip-path-9)">
              <path id="Trazado_136554" data-name="Trazado 136554" d="M17.794,26.4H13.5l.282,1.1a12.854,12.854,0,0,1,6.733,11.2,12.606,12.606,0,0,1-2.09,6.921l2.285,8.936H25Z" transform="translate(-13.5 -26.394)" fill="#d15f9d"/>
            </g>
          </g>
        </g>
        <path id="Trazado_136555" data-name="Trazado 136555" d="M6.768,54.547H11.06l7.206-28.152h-4.29Z" transform="translate(4.8 18.722)" fill="#e3619d"/>
        <path id="Trazado_136556" data-name="Trazado 136556" d="M11.364,55.581H7.07a.726.726,0,0,1-.576-.284.734.734,0,0,1-.132-.629l7.21-28.152a.73.73,0,0,1,.708-.549h4.289a.731.731,0,0,1,.709.911L12.071,55.03a.733.733,0,0,1-.708.55M8.012,54.119H10.8l6.832-26.691H14.847Z" transform="translate(4.497 18.418)" fill="#4a1971"/>
        <g id="Grupo_94246" data-name="Grupo 94246" transform="translate(11.568 45.116)" style="mix-blend-mode: multiply;isolation: isolate">
          <g id="Grupo_94245" data-name="Grupo 94245">
            <g id="Grupo_94244" data-name="Grupo 94244" clip-path="url(#clip-path-10)">
              <path id="Trazado_136557" data-name="Trazado 136557" d="M13.976,26.4,12.73,31.251a12.539,12.539,0,0,1,1.745,6.357A12.843,12.843,0,0,1,8.32,48.474L6.768,54.547H11.06L18.267,26.4Z" transform="translate(-6.767 -26.394)" fill="#d15f9d"/>
            </g>
          </g>
        </g>
      </g>
    </g>
  </g>
</svg>
