<svg id="Grupo_94431" data-name="Grupo 94431" xmlns="http://www.w3.org/2000/svg" xmlns:xlink="http://www.w3.org/1999/xlink" width="100" height="94" viewBox="0 0 100 94">
  <defs>
    <clipPath id="clip-path">
      <rect id="Rectángulo_40831" data-name="Rectángulo 40831" width="100" height="94" fill="none"/>
    </clipPath>
  </defs>
  <g id="Grupo_94430" data-name="Grupo 94430" transform="translate(0 0)" clip-path="url(#clip-path)">
    <path id="Trazado_136951" data-name="Trazado 136951" d="M26.48,20.291,23.937,44.038H.659V30.417s.667-9.336,9.036-9.729,16.785-.4,16.785-.4" transform="translate(1.135 47.902)" fill="#6da7bf"/>
    <path id="Trazado_136952" data-name="Trazado 136952" d="M26.585,20.657,29.128,44.4H52.852V29.371s-4.971-9.692-8.974-9.219-17.294.5-17.294.5" transform="translate(45.795 47.536)" fill="#6da7bf"/>
    <path id="Trazado_136953" data-name="Trazado 136953" d="M19.876,1.21A2.746,2.746,0,0,1,22.3,4.167a2.759,2.759,0,0,1-2.423,2.991,2.758,2.758,0,0,1-2.4-2.991,2.746,2.746,0,0,1,2.4-2.957" transform="translate(30.111 2.856)" fill="#e69787"/>
    <path id="Trazado_136954" data-name="Trazado 136954" d="M8.686,20.715V22.53A1.726,1.726,0,0,1,7.38,23,1.7,1.7,0,0,1,6.1,22.53V20.11h.082a.288.288,0,0,0,.163.034,6.715,6.715,0,0,0,.79.067H7.38a8.558,8.558,0,0,0,1.307-.1Z" transform="translate(10.508 47.475)" fill="#6da7bf"/>
    <path id="Trazado_136955" data-name="Trazado 136955" d="M21.766,19.425v2.487a2.35,2.35,0,0,1-2.1.941,2.286,2.286,0,0,1-2.069-.941V17.98a.383.383,0,0,0,.191.034,1.331,1.331,0,0,0,.626.134,7.618,7.618,0,0,0,1.252.1,2.026,2.026,0,0,0,.463-.034,2.827,2.827,0,0,0,.762-.067.335.335,0,0,0,.191-.034,1.546,1.546,0,0,0,.354-.067.207.207,0,0,0,.136-.034.383.383,0,0,0,.191-.034Z" transform="translate(30.317 42.446)" fill="#a7ceda"/>
    <path id="Trazado_136956" data-name="Trazado 136956" d="M32.266,20.715V22.53a1.7,1.7,0,0,1-1.28.471,1.726,1.726,0,0,1-1.307-.471V20.11a4.078,4.078,0,0,0,1.252.1h.054c.354,0,.735-.034,1.062-.067.082,0,.136-.034.218-.034Z" transform="translate(51.126 47.475)" fill="#6da7bf"/>
    <path id="Trazado_136957" data-name="Trazado 136957" d="M49.97,31.142v13.88H44.361V34.7a1.681,1.681,0,1,0-3.294,0V45.022H19.913V34.7a1.862,1.862,0,0,0-1.661-2.016A1.881,1.881,0,0,0,16.591,34.7V45.022H11.01V31.142c0-6.688,4.383-12.132,9.8-12.132h4.846v.47a5.121,5.121,0,0,0,5.363,5.008,5.145,5.145,0,0,0,5.391-5.008v-.47h3.757c5.391,0,9.8,5.444,9.8,12.132" transform="translate(18.965 44.878)" fill="#a7ceda"/>
    <path id="Trazado_136958" data-name="Trazado 136958" d="M40.09,16.586v2.353A19.872,19.872,0,0,1,38.647,26.6a9.232,9.232,0,0,1-2.559,3.7,3.362,3.362,0,0,1-2.124.672,3.239,3.239,0,0,1-2.042-.672c-.027,0-.027-.034-.054-.034a9.042,9.042,0,0,1-2.5-3.663,19.872,19.872,0,0,1-1.443-7.662V16.653a8.955,8.955,0,0,1,6.044-2.823,8.474,8.474,0,0,1,6.126,2.756" transform="translate(48.094 32.649)" fill="#edc16c"/>
    <path id="Trazado_136959" data-name="Trazado 136959" d="M16.51,16.653v2.285A19.376,19.376,0,0,1,15.04,26.6a8.949,8.949,0,0,1-2.532,3.7,2.044,2.044,0,0,1-.436.269,2.543,2.543,0,0,1-.272.134,2.266,2.266,0,0,1-.626.2,3.041,3.041,0,0,1-.517.067h-.272A3.369,3.369,0,0,1,8.315,30.3a9.49,9.49,0,0,1-2.532-3.7A19.378,19.378,0,0,1,4.34,18.938V16.586a8.474,8.474,0,0,1,6.126-2.756,9.1,9.1,0,0,1,6.044,2.823" transform="translate(7.476 32.649)" fill="#edc16c"/>
    <path id="Trazado_136960" data-name="Trazado 136960" d="M31.678,13.9V17.06a25.252,25.252,0,0,1-1.906,9.981,11.417,11.417,0,0,1-3.4,4.873.357.357,0,0,1-.136.1,4.833,4.833,0,0,1-.817.437,4.325,4.325,0,0,1-.871.269,3.024,3.024,0,0,1-.79.1h-.272a3.1,3.1,0,0,1-1.116-.1,1.83,1.83,0,0,1-.681-.235,1.549,1.549,0,0,1-.436-.2,5.777,5.777,0,0,1-.6-.37s-.027,0-.027-.034a11.255,11.255,0,0,1-3.349-4.839A25.252,25.252,0,0,1,15.37,17.06V13.935a11.812,11.812,0,0,1,8.113-3.865A11.156,11.156,0,0,1,31.678,13.9" transform="translate(26.476 23.773)" fill="#f8e995"/>
    <path id="Trazado_136961" data-name="Trazado 136961" d="M45.153,32.864v12.6a1.862,1.862,0,0,1-1.661,2.016H36.468a1.862,1.862,0,0,0,1.661-2.016v-2.05h3.73V32.864c0-5.041-3.322-9.108-7.405-9.108H31.84V19.69h2.614c5.908,0,10.7,5.915,10.7,13.174" transform="translate(54.847 46.483)"/>
    <path id="Trazado_136962" data-name="Trazado 136962" d="M36.234,26.75V28.8a1.862,1.862,0,0,1-1.661,2.016A1.861,1.861,0,0,1,32.94,28.8V26.75Z" transform="translate(56.741 63.15)"/>
    <path id="Trazado_136963" data-name="Trazado 136963" d="M36.234,25.866V33.6H32.94v-7.73a1.861,1.861,0,0,1,1.634-2.016,1.862,1.862,0,0,1,1.661,2.016" transform="translate(56.741 56.304)"/>
    <path id="Trazado_136964" data-name="Trazado 136964" d="M45.469,19.039v2.756a24.547,24.547,0,0,1-1.824,9.578,13.8,13.8,0,0,1-2.968,4.571V34.868a2.1,2.1,0,0,0-.817-1.748,1.374,1.374,0,0,0-1.688.034,9.232,9.232,0,0,0,2.559-3.7,19.872,19.872,0,0,0,1.443-7.662V19.442a8.474,8.474,0,0,0-6.126-2.756A8.955,8.955,0,0,0,30,19.51v2.285a19.872,19.872,0,0,0,1.443,7.662,9.042,9.042,0,0,0,2.5,3.663,1.342,1.342,0,0,0-1.634,0,2.1,2.1,0,0,0-.817,1.748v1.109a14.373,14.373,0,0,1-2.968-4.6,24.546,24.546,0,0,1-1.824-9.578V18.77a2.463,2.463,0,0,1,.245-1.075c.871-1.781,4.764-5.075,9.093-5.075,4.411,0,9.42,3.428,9.42,6.419" transform="translate(46.01 29.793)"/>
    <path id="Trazado_136965" data-name="Trazado 136965" d="M43.91,30.816H29.181A1.862,1.862,0,0,1,27.52,28.8a1.874,1.874,0,0,1,1.661-2.05h13.1V28.8a1.861,1.861,0,0,0,1.634,2.016" transform="translate(47.405 63.15)"/>
    <path id="Trazado_136966" data-name="Trazado 136966" d="M37.645,19.69v4.066a.364.364,0,0,1-.027.168,3.12,3.12,0,0,1-.082.706,3.8,3.8,0,0,1-.681,1.546,4.037,4.037,0,0,1-1.225,1.143,4.642,4.642,0,0,1-2.559.739,4.489,4.489,0,0,1-4.492-3.428,3.121,3.121,0,0,1-.082-.706.364.364,0,0,1-.027-.168V19.69h.463a6.008,6.008,0,0,0,2.723,1.378s.027,0,.027.034a2.133,2.133,0,0,1,.082.6v1.815a1.726,1.726,0,0,0,1.307.471,1.7,1.7,0,0,0,1.28-.471V21.706a1.812,1.812,0,0,1,.109-.672,6.124,6.124,0,0,0,2.723-1.344Z" transform="translate(49.042 46.483)"/>
    <path id="Trazado_136967" data-name="Trazado 136967" d="M32.133,19.56V20H31.67a2.764,2.764,0,0,0,.463-.437" transform="translate(54.554 46.176)"/>
    <path id="Trazado_136968" data-name="Trazado 136968" d="M37.645,20.662v1.075a2.764,2.764,0,0,1-.463.437H36.012a1.693,1.693,0,0,0-1.552,1.344,1.219,1.219,0,0,1-.327.1c-.327.034-.708.067-1.062.067h-.054a7.381,7.381,0,0,1-1.252-.1h-.082c0-.034-.027-.034-.027-.034A1.667,1.667,0,0,0,30.1,22.175H28.933c-.163-.134-.3-.269-.463-.4V20.662a2.1,2.1,0,0,1,.817-1.748,1.342,1.342,0,0,1,1.634,0c.027,0,.027.034.054.034a3.239,3.239,0,0,0,2.042.672,3.362,3.362,0,0,0,2.124-.672,1.374,1.374,0,0,1,1.688-.034,2.1,2.1,0,0,1,.817,1.748" transform="translate(49.042 43.998)"/>
    <path id="Trazado_136969" data-name="Trazado 136969" d="M31.8,21.656a3.121,3.121,0,0,0,.082-.706,3.121,3.121,0,0,1-.082.706" transform="translate(54.778 49.458)"/>
    <path id="Trazado_136970" data-name="Trazado 136970" d="M33.393,19.69a6.124,6.124,0,0,1-2.723,1.344,1.693,1.693,0,0,1,1.552-1.344Z" transform="translate(52.831 46.483)"/>
    <path id="Trazado_136971" data-name="Trazado 136971" d="M31.1,22.763a4.037,4.037,0,0,0,1.225-1.143A4.037,4.037,0,0,1,31.1,22.763" transform="translate(53.572 51.039)"/>
    <path id="Trazado_136972" data-name="Trazado 136972" d="M30.55,20.191a1.219,1.219,0,0,0,.327-.1,1.812,1.812,0,0,0-.109.672v-.6c-.082,0-.136.034-.218.034" transform="translate(52.625 47.427)"/>
    <path id="Trazado_136973" data-name="Trazado 136973" d="M41.438,26.937a2.111,2.111,0,0,1-1.361,2.386H39.8a1.774,1.774,0,0,1-1.634-1.68C36.455,15.578,24.966,8.688,24.83,8.621A2.255,2.255,0,0,1,24.068,5.9a1.492,1.492,0,0,1,2.178-.941c.545.3,13.15,7.831,15.192,21.979" transform="translate(41.165 11.207)"/>
    <path id="Trazado_136974" data-name="Trazado 136974" d="M30.932,20.211a4.078,4.078,0,0,1-1.252-.1,7.381,7.381,0,0,0,1.252.1" transform="translate(51.126 47.475)"/>
    <path id="Trazado_136975" data-name="Trazado 136975" d="M29.732,20.11v.6a2.133,2.133,0,0,0-.082-.6Z" transform="translate(51.074 47.475)"/>
    <path id="Trazado_136976" data-name="Trazado 136976" d="M29.811,19.69a1.667,1.667,0,0,1,1.552,1.378A6.008,6.008,0,0,1,28.64,19.69Z" transform="translate(49.334 46.483)"/>
    <path id="Trazado_136977" data-name="Trazado 136977" d="M28.933,19.973H28.47v-.4c.163.134.3.269.463.4" transform="translate(49.042 46.2)"/>
    <path id="Trazado_136978" data-name="Trazado 136978" d="M28.48,20.95a3.12,3.12,0,0,0,.082.706,3.12,3.12,0,0,1-.082-.706" transform="translate(49.059 49.458)"/>
    <path id="Trazado_136979" data-name="Trazado 136979" d="M31.708,23.689v.067H28.224a1.874,1.874,0,0,1-1.634-2.05,1.861,1.861,0,0,1,1.634-2.016h3.485Z" transform="translate(45.803 46.483)"/>
    <path id="Trazado_136980" data-name="Trazado 136980" d="M37.193,34v15.93a1.9,1.9,0,0,1-1.661,2.05H26.656a1.9,1.9,0,0,0,1.634-2.05v-2.05H33.9V34c0-6.688-4.411-12.132-9.8-12.132H20.34V17.8H24.1c7.215,0,13.1,7.259,13.1,16.2" transform="translate(35.037 42.021)"/>
    <path id="Trazado_136981" data-name="Trazado 136981" d="M25.344,26.75V28.8a1.9,1.9,0,0,1-1.634,2.05A1.9,1.9,0,0,1,22.05,28.8V26.75Z" transform="translate(37.983 63.15)"/>
    <path id="Trazado_136982" data-name="Trazado 136982" d="M25.344,25.1V35.414H22.05V25.1a1.862,1.862,0,0,1,1.661-2.016A1.861,1.861,0,0,1,25.344,25.1" transform="translate(37.983 54.486)"/>
    <path id="Trazado_136983" data-name="Trazado 136983" d="M38.146,30.85H13.67a1.9,1.9,0,0,0,1.661-2.05V26.75H36.485V28.8a1.9,1.9,0,0,0,1.661,2.05" transform="translate(23.548 63.15)"/>
    <path id="Trazado_136984" data-name="Trazado 136984" d="M37.057,16.422v3.5a30.423,30.423,0,0,1-2.287,11.9,16.8,16.8,0,0,1-3.784,5.747V36.485a2.118,2.118,0,0,0-.844-1.748,1.335,1.335,0,0,0-1.661.034h-.027a11.417,11.417,0,0,0,3.4-4.873,25.252,25.252,0,0,0,1.906-9.981V16.758a11.156,11.156,0,0,0-8.195-3.831,11.812,11.812,0,0,0-8.113,3.865v3.125A25.252,25.252,0,0,0,19.36,29.9a11.255,11.255,0,0,0,3.349,4.839,1.382,1.382,0,0,0-1.661,0,2.1,2.1,0,0,0-.817,1.748v1.109a16.647,16.647,0,0,1-3.784-5.78,30.423,30.423,0,0,1-2.287-11.9V16.086a2.463,2.463,0,0,1,.245-1.075c.871-1.748,5.445-6.15,11.163-6.15,5.8,0,11.489,4.335,11.489,7.562" transform="translate(24.392 20.916)"/>
    <path id="Trazado_136985" data-name="Trazado 136985" d="M27.144,21.867v.471a5.145,5.145,0,0,1-5.391,5.008,5.121,5.121,0,0,1-5.363-5.008V17.8h1.634a.438.438,0,0,1,.218.034A7.916,7.916,0,0,0,19,18.2a2.234,2.234,0,0,1,.681,1.647v2.487a2.286,2.286,0,0,0,2.069.941,2.35,2.35,0,0,0,2.1-.941V19.85a2.177,2.177,0,0,1,.708-1.68l.027-.034a2.09,2.09,0,0,0,.6-.3h.027a.835.835,0,0,1,.3-.034h1.634Z" transform="translate(28.233 42.021)"/>
    <path id="Trazado_136986" data-name="Trazado 136986" d="M21.563,17.4v1.344H19.929a.835.835,0,0,0-.3.034A7.9,7.9,0,0,0,21.563,17.4" transform="translate(33.814 41.077)"/>
    <path id="Trazado_136987" data-name="Trazado 136987" d="M27.144,18.5v1.075a7.9,7.9,0,0,1-1.933,1.378h-.027a1.79,1.79,0,0,0-.6.3l-.027.034a9.111,9.111,0,0,1-.9.269.207.207,0,0,1-.136.034,1.141,1.141,0,0,1-.354.067.335.335,0,0,1-.191.034,2.928,2.928,0,0,1-.762.067,2.026,2.026,0,0,1-.463.034,7.618,7.618,0,0,1-1.252-.1,3.55,3.55,0,0,1-.626-.134.383.383,0,0,1-.191-.034,2.341,2.341,0,0,1-.681-.2,1.316,1.316,0,0,0-.762-.37,7.882,7.882,0,0,1-1.851-1.344V18.5a2.1,2.1,0,0,1,.817-1.748,1.382,1.382,0,0,1,1.661,0c0,.034.027.034.027.034a2.323,2.323,0,0,0,.6.37,1.549,1.549,0,0,0,.436.2,2.4,2.4,0,0,0,.681.235,3.1,3.1,0,0,0,1.116.1H22a3.024,3.024,0,0,0,.79-.1,2.675,2.675,0,0,0,.871-.269,3.229,3.229,0,0,0,.817-.437.357.357,0,0,0,.136-.1h.027a1.335,1.335,0,0,1,1.661-.034,2.118,2.118,0,0,1,.844,1.748" transform="translate(28.233 38.899)"/>
    <path id="Trazado_136988" data-name="Trazado 136988" d="M21.96,0c3.158,0,5.717,3.159,5.717,7.024,0,3.9-2.559,7.058-5.717,7.058-3.131,0-5.69-3.159-5.69-7.058C16.27,3.159,18.829,0,21.96,0m2.423,7.024A2.746,2.746,0,0,0,21.96,4.066a2.746,2.746,0,0,0-2.4,2.957,2.758,2.758,0,0,0,2.4,2.991,2.759,2.759,0,0,0,2.423-2.991" transform="translate(28.026 0)"/>
    <path id="Trazado_136989" data-name="Trazado 136989" d="M20,17.81a2.09,2.09,0,0,1-.6.3,1.79,1.79,0,0,1,.6-.3" transform="translate(33.418 42.045)"/>
    <path id="Trazado_136990" data-name="Trazado 136990" d="M19.06,18.179a9.111,9.111,0,0,0,.9-.269,2.177,2.177,0,0,0-.708,1.68V18.145a.383.383,0,0,1-.191.034" transform="translate(32.832 42.281)"/>
    <path id="Trazado_136991" data-name="Trazado 136991" d="M19.06,17.037a4.833,4.833,0,0,0,.817-.437,3.229,3.229,0,0,1-.817.437" transform="translate(32.832 39.188)"/>
    <path id="Trazado_136992" data-name="Trazado 136992" d="M18.74,17a4.325,4.325,0,0,0,.871-.269A2.675,2.675,0,0,1,18.74,17" transform="translate(32.281 39.495)"/>
    <path id="Trazado_136993" data-name="Trazado 136993" d="M18.88,18.067A1.141,1.141,0,0,0,19.234,18a1.546,1.546,0,0,1-.354.067" transform="translate(32.522 42.493)"/>
    <path id="Trazado_136994" data-name="Trazado 136994" d="M21.054,6.736v7.629a1.9,1.9,0,0,1-1.661,2.05,1.9,1.9,0,0,1-1.634-2.05V6.736A1.861,1.861,0,0,1,19.394,4.72a1.862,1.862,0,0,1,1.661,2.016" transform="translate(30.593 11.143)"/>
    <path id="Trazado_136995" data-name="Trazado 136995" d="M18.53,18.1a2.928,2.928,0,0,0,.762-.067,2.827,2.827,0,0,1-.762.067" transform="translate(31.919 42.564)"/>
    <path id="Trazado_136996" data-name="Trazado 136996" d="M18.45,16.911a3.024,3.024,0,0,0,.79-.1,3.024,3.024,0,0,1-.79.1" transform="translate(31.781 39.684)"/>
    <path id="Trazado_136997" data-name="Trazado 136997" d="M17.69,16.74a1.83,1.83,0,0,0,.681.235,2.4,2.4,0,0,1-.681-.235" transform="translate(30.472 39.519)"/>
    <path id="Trazado_136998" data-name="Trazado 136998" d="M17.67,17.99a3.55,3.55,0,0,0,.626.134,1.331,1.331,0,0,1-.626-.134" transform="translate(30.438 42.47)"/>
    <path id="Trazado_136999" data-name="Trazado 136999" d="M18.031,18.122v1.445a2.234,2.234,0,0,0-.681-1.647,2.341,2.341,0,0,0,.681.2" transform="translate(29.887 42.305)"/>
    <path id="Trazado_137000" data-name="Trazado 137000" d="M17.31,16.57a5.778,5.778,0,0,0,.6.37,2.323,2.323,0,0,1-.6-.37" transform="translate(29.818 39.118)"/>
    <path id="Trazado_137001" data-name="Trazado 137001" d="M17.832,18.18a7.916,7.916,0,0,1-.762-.37,1.316,1.316,0,0,1,.762.37" transform="translate(29.404 42.045)"/>
    <path id="Trazado_137002" data-name="Trazado 137002" d="M18.241,18.754a.438.438,0,0,0-.218-.034H16.39V17.41a7.882,7.882,0,0,0,1.851,1.344" transform="translate(28.233 41.101)"/>
    <path id="Trazado_137003" data-name="Trazado 137003" d="M27.742,17.8v4.067H22.9c-5.418,0-9.8,5.444-9.8,12.132v13.88h5.581v2.05a1.915,1.915,0,0,0,1.661,2.05h-8.9A1.9,1.9,0,0,1,9.8,49.929V34a18.972,18.972,0,0,1,1.225-6.789c2.069-5.545,6.616-9.41,11.87-9.41Z" transform="translate(16.881 42.021)"/>
    <path id="Trazado_137004" data-name="Trazado 137004" d="M16.382,26.75V28.8a1.9,1.9,0,0,1-1.661,2.05A1.915,1.915,0,0,1,13.06,28.8V26.75Z" transform="translate(22.497 63.15)"/>
    <path id="Trazado_137005" data-name="Trazado 137005" d="M16.382,25.1V35.414H13.06V25.1a1.881,1.881,0,0,1,1.661-2.016A1.862,1.862,0,0,1,16.382,25.1" transform="translate(22.497 54.486)"/>
    <path id="Trazado_137006" data-name="Trazado 137006" d="M23.777,5.9a2.264,2.264,0,0,1-.79,2.722c-.109.067-11.6,6.957-13.313,19.022a1.8,1.8,0,0,1-1.634,1.68h-.3a2.068,2.068,0,0,1-1.334-2.386C8.449,12.788,21.054,5.26,21.572,4.958a1.511,1.511,0,0,1,2.205.941" transform="translate(10.99 11.207)"/>
    <path id="Trazado_137007" data-name="Trazado 137007" d="M13.378,21.706a2.6,2.6,0,0,1-.136.807,1.646,1.646,0,0,1-1.5,1.243H8.26V19.69h3.485a1.861,1.861,0,0,1,1.634,2.016" transform="translate(14.228 46.483)"/>
    <path id="Trazado_137008" data-name="Trazado 137008" d="M21.889,18.77v3.025a24.068,24.068,0,0,1-1.851,9.578,13.723,13.723,0,0,1-2.94,4.571V34.868a2.048,2.048,0,0,0-.844-1.748,1.335,1.335,0,0,0-1.661.034,8.949,8.949,0,0,0,2.532-3.7,19.376,19.376,0,0,0,1.47-7.662V19.51a9.1,9.1,0,0,0-6.044-2.823,8.474,8.474,0,0,0-6.126,2.756v2.353a19.378,19.378,0,0,0,1.443,7.662,9.49,9.49,0,0,0,2.532,3.7,1.334,1.334,0,0,0-1.661-.034,2.118,2.118,0,0,0-.844,1.748v1.075a13.377,13.377,0,0,1-2.94-4.571A24.546,24.546,0,0,1,3.13,21.795V19.039c0-2.991,5.01-6.419,9.42-6.419,4.329,0,8.222,3.327,9.093,5.075a2.463,2.463,0,0,1,.245,1.075" transform="translate(5.392 29.793)"/>
    <path id="Trazado_137009" data-name="Trazado 137009" d="M17.919,26.75A1.874,1.874,0,0,1,19.58,28.8a1.862,1.862,0,0,1-1.661,2.016H3.19A1.861,1.861,0,0,0,4.824,28.8V26.75Z" transform="translate(5.495 63.15)"/>
    <path id="Trazado_137010" data-name="Trazado 137010" d="M14.082,19.69v4.066a.364.364,0,0,1-.027.168,3.121,3.121,0,0,1-.082.706,4.489,4.489,0,0,1-4.492,3.428A4.511,4.511,0,0,1,4.989,24.63a3.121,3.121,0,0,1-.082-.706.364.364,0,0,1-.027-.168V19.69h.463a6.305,6.305,0,0,0,2.75,1.378,1.639,1.639,0,0,1,.109.639v1.815a1.7,1.7,0,0,0,1.28.471,1.726,1.726,0,0,0,1.307-.471V21.706a2.379,2.379,0,0,1,.082-.639,6.223,6.223,0,0,0,2.723-1.378Z" transform="translate(8.406 46.483)"/>
    <path id="Trazado_137011" data-name="Trazado 137011" d="M8.57,19.56V20H8.08a5.729,5.729,0,0,0,.49-.437" transform="translate(13.918 46.176)"/>
    <path id="Trazado_137012" data-name="Trazado 137012" d="M14.082,20.659v1.075a5.728,5.728,0,0,1-.49.437H12.449A1.719,1.719,0,0,0,10.87,23.55a.089.089,0,0,0-.082.034,8.558,8.558,0,0,1-1.307.1H9.454a9.618,9.618,0,0,1-1.007-.067.288.288,0,0,1-.163-.034.383.383,0,0,1-.191-.034,1.716,1.716,0,0,0-1.552-1.378h-1.2a5.525,5.525,0,0,1-.463-.437V20.659a2.118,2.118,0,0,1,.844-1.748,1.334,1.334,0,0,1,1.661.034,3.369,3.369,0,0,0,2.069.672h.272a2.467,2.467,0,0,0,.517-.067,2.008,2.008,0,0,0,.626-.2.736.736,0,0,0,.272-.134,2.044,2.044,0,0,0,.436-.269,1.335,1.335,0,0,1,1.661-.034,2.048,2.048,0,0,1,.844,1.748" transform="translate(8.406 44.001)"/>
    <path id="Trazado_137013" data-name="Trazado 137013" d="M8.22,21.656A3.121,3.121,0,0,0,8.3,20.95a3.121,3.121,0,0,1-.082.706" transform="translate(14.16 49.458)"/>
    <path id="Trazado_137014" data-name="Trazado 137014" d="M8.659,19.69H9.8A6.223,6.223,0,0,1,7.08,21.068,1.719,1.719,0,0,1,8.659,19.69" transform="translate(12.196 46.483)"/>
    <path id="Trazado_137015" data-name="Trazado 137015" d="M7.08,18.944a2.543,2.543,0,0,0,.272-.134.736.736,0,0,1-.272.134" transform="translate(12.196 44.406)"/>
    <path id="Trazado_137016" data-name="Trazado 137016" d="M6.85,19.052a2.266,2.266,0,0,0,.626-.2,2.008,2.008,0,0,1-.626.2" transform="translate(11.8 44.5)"/>
    <path id="Trazado_137017" data-name="Trazado 137017" d="M7.05,20.134a.089.089,0,0,1,.082-.034,2.379,2.379,0,0,0-.082.639Z" transform="translate(12.144 47.451)"/>
    <path id="Trazado_137018" data-name="Trazado 137018" d="M6.66,18.977a3.041,3.041,0,0,0,.517-.067,2.467,2.467,0,0,1-.517.067" transform="translate(11.472 44.642)"/>
    <path id="Trazado_137019" data-name="Trazado 137019" d="M7.2,20.187H6.98a6.715,6.715,0,0,1-.79-.067,9.618,9.618,0,0,0,1.007.067" transform="translate(10.663 47.498)"/>
    <path id="Trazado_137020" data-name="Trazado 137020" d="M6.251,20.134H6.169v.6A1.639,1.639,0,0,0,6.06,20.1a.383.383,0,0,0,.191.034" transform="translate(10.439 47.451)"/>
    <path id="Trazado_137021" data-name="Trazado 137021" d="M6.248,19.69A1.716,1.716,0,0,1,7.8,21.068,6.305,6.305,0,0,1,5.05,19.69Z" transform="translate(8.699 46.483)"/>
    <path id="Trazado_137022" data-name="Trazado 137022" d="M5.343,20H4.88V19.56A5.526,5.526,0,0,0,5.343,20" transform="translate(8.406 46.176)"/>
    <path id="Trazado_137023" data-name="Trazado 137023" d="M4.89,20.95a3.121,3.121,0,0,0,.082.706,3.121,3.121,0,0,1-.082-.706" transform="translate(8.423 49.458)"/>
    <path id="Trazado_137024" data-name="Trazado 137024" d="M13.286,23.689v.067H10.7c-4.084,0-7.405,4.067-7.405,9.108V43.417h3.73v2.05a1.862,1.862,0,0,0,1.661,2.016H1.661A1.862,1.862,0,0,1,0,45.467v-12.6C0,25.6,4.792,19.69,10.7,19.69h2.586Z" transform="translate(0 46.483)"/>
    <path id="Trazado_137025" data-name="Trazado 137025" d="M5.874,26.75V28.8a1.861,1.861,0,0,1-1.634,2.016A1.862,1.862,0,0,1,2.58,28.8V26.75Z" transform="translate(4.444 63.15)"/>
    <path id="Trazado_137026" data-name="Trazado 137026" d="M5.874,25.866V33.6H2.58v-7.73A1.862,1.862,0,0,1,4.241,23.85a1.861,1.861,0,0,1,1.634,2.016" transform="translate(4.444 56.304)"/>
  </g>
</svg>
