<svg id="Grupo_94423" data-name="Grupo 94423" xmlns="http://www.w3.org/2000/svg" xmlns:xlink="http://www.w3.org/1999/xlink" width="100" height="100" viewBox="0 0 100 100">
  <defs>
    <clipPath id="clip-path">
      <rect id="Rectángulo_40828" data-name="Rectángulo 40828" width="100" height="100" fill="none"/>
    </clipPath>
  </defs>
  <g id="Grupo_94422" data-name="Grupo 94422" clip-path="url(#clip-path)">
    <path id="Trazado_136909" data-name="Trazado 136909" d="M62.353,22.865V60.378a3.6,3.6,0,0,1-3.44,3.695H23.98a3.58,3.58,0,0,1-3.44-3.695V22.865a3.563,3.563,0,0,1,3.44-3.695H58.913a3.58,3.58,0,0,1,3.44,3.695M57.13,41.608a1.586,1.586,0,1,0-3.164,0c0,7.416-5.625,13.457-12.531,13.457S28.928,49.024,28.928,41.608s5.6-13.43,12.506-13.43a1.657,1.657,0,0,0,1.607-1.7,1.682,1.682,0,0,0-1.607-1.726c-8.639,0-15.7,7.578-15.7,16.855,0,9.3,7.057,16.855,15.7,16.855,8.664,0,15.7-7.551,15.7-16.855" transform="translate(31.042 32.529)" fill="#ffeb92"/>
    <path id="Trazado_136910" data-name="Trazado 136910" d="M50.959,36.746c0,8.2-6.19,14.849-13.827,14.849S23.307,44.947,23.307,36.746,29.5,21.9,37.132,21.9s13.827,6.648,13.827,14.849" transform="translate(35.224 37.156)" fill="#ff7863"/>
    <path id="Trazado_136911" data-name="Trazado 136911" d="M98.418,96.6a1.7,1.7,0,0,1,0,3.4H1.582a1.7,1.7,0,0,1,0-3.4H4.42a7.329,7.329,0,0,1-.979-3.695V55.394a6.87,6.87,0,0,1,6.6-7.093h9.493a7.347,7.347,0,0,1-1-3.695V7.093A6.87,6.87,0,0,1,25.138,0H60.07A6.891,6.891,0,0,1,66.7,7.093V44.606a7.347,7.347,0,0,1-1,3.695H89.955a6.87,6.87,0,0,1,6.6,7.093V92.907A7.592,7.592,0,0,1,95.58,96.6ZM93.4,92.907V55.394a3.58,3.58,0,0,0-3.44-3.695H55.023a3.563,3.563,0,0,0-3.44,3.695V92.907a3.58,3.58,0,0,0,3.44,3.695H89.955a3.6,3.6,0,0,0,3.44-3.695m-29.884-48.3V7.093A3.563,3.563,0,0,0,60.07,3.4H25.138a3.559,3.559,0,0,0-3.415,3.695V44.606A3.577,3.577,0,0,0,25.138,48.3H60.07a3.58,3.58,0,0,0,3.44-3.695m-15.093,48.3V55.394a3.58,3.58,0,0,0-3.44-3.695H10.045A3.563,3.563,0,0,0,6.6,55.394V92.907a3.58,3.58,0,0,0,3.44,3.695H44.977a3.6,3.6,0,0,0,3.44-3.695"/>
    <path id="Trazado_136912" data-name="Trazado 136912" d="M52.419,36.4A1.637,1.637,0,0,1,54,38.1c0,9.3-7.032,16.855-15.7,16.855-8.639,0-15.7-7.551-15.7-16.855,0-9.277,7.057-16.855,15.7-16.855a1.682,1.682,0,0,1,1.607,1.726,1.657,1.657,0,0,1-1.607,1.7C31.4,24.665,25.8,30.679,25.8,38.1s5.6,13.457,12.506,13.457S50.837,45.512,50.837,38.1a1.637,1.637,0,0,1,1.582-1.7" transform="translate(34.171 36.042)"/>
    <path id="Trazado_136913" data-name="Trazado 136913" d="M50.438,4.955V42.468A3.58,3.58,0,0,1,47,46.163H12.065A3.577,3.577,0,0,1,8.65,42.468V4.955A3.559,3.559,0,0,1,12.065,1.26H47a3.563,3.563,0,0,1,3.44,3.695M46.922,16.282a1.547,1.547,0,0,0-.126-.755.258.258,0,0,0-.025-.135l-3.039-6.58a1.543,1.543,0,0,0-1.406-.971H16.762a1.6,1.6,0,0,0-1.431.971l-3.014,6.58h-.025v.135a1.547,1.547,0,0,0-.126.755,1.287,1.287,0,0,0,.075.3,1.8,1.8,0,0,0,.151.485c0,.027.025.027.05.054a.1.1,0,0,1,.025.081l15.821,21.71a1.558,1.558,0,0,0,1.256.647,1.594,1.594,0,0,0,1.256-.647L46.6,17.2c.025-.027.025-.054.05-.081,0-.027.05-.027.05-.054a1.8,1.8,0,0,0,.151-.485,1.287,1.287,0,0,0,.075-.3" transform="translate(13.073 2.138)" fill="#ff7863"/>
    <path id="Trazado_136914" data-name="Trazado 136914" d="M44.685,11.386a1.547,1.547,0,0,1,.126.755,1.287,1.287,0,0,1-.075.3,1.8,1.8,0,0,1-.151.485c0,.027-.05.027-.05.054-.025.027-.025.054-.05.081l-15.8,21.71a1.594,1.594,0,0,1-1.256.647,1.558,1.558,0,0,1-1.256-.647L10.355,13.058a.1.1,0,0,0-.025-.081c-.025-.027-.05-.027-.05-.054a1.8,1.8,0,0,1-.151-.485,1.287,1.287,0,0,1-.075-.3,1.547,1.547,0,0,1,.126-.755v-.135H10.2l3.014-6.58A1.6,1.6,0,0,1,14.65,3.7H40.215a1.543,1.543,0,0,1,1.406.971l3.039,6.58a.258.258,0,0,1,.025.135m-3.993-1.079L39.21,7.125H15.629l-1.457,3.182ZM27.432,30.938,39.989,13.705H14.876Z" transform="translate(15.185 6.278)"/>
    <path id="Trazado_136915" data-name="Trazado 136915" d="M36.728,4.97l1.482,3.182H11.69L13.147,4.97Z" transform="translate(17.667 8.433)" fill="#43aac2"/>
    <path id="Trazado_136916" data-name="Trazado 136916" d="M37.083,7.41,24.527,24.643,11.97,7.41Z" transform="translate(18.09 12.574)" fill="#97d0dc"/>
    <path id="Trazado_136917" data-name="Trazado 136917" d="M44.443,22.865V60.378A3.6,3.6,0,0,1,41,64.073H6.07a3.58,3.58,0,0,1-3.44-3.695V22.865A3.563,3.563,0,0,1,6.07,19.17H41a3.58,3.58,0,0,1,3.44,3.695m-6.705,20.28a5.412,5.412,0,0,0,1.783-5.906A4.848,4.848,0,0,0,34.875,33.6H31.033a1.773,1.773,0,0,1-1.657-1.268L28.2,28.393a4.817,4.817,0,0,0-9.342,0l-1.18,3.937A1.72,1.72,0,0,1,16.04,33.6H12.2a4.9,4.9,0,0,0-4.671,3.641A5.412,5.412,0,0,0,9.31,43.145l3.114,2.4a1.992,1.992,0,0,1,.628,2.1l-1.18,3.91a5.387,5.387,0,0,0,1.758,5.879,4.582,4.582,0,0,0,5.776,0l3.114-2.4a1.6,1.6,0,0,1,2.034,0l3.089,2.4a4.558,4.558,0,0,0,5.776,0A5.357,5.357,0,0,0,35.2,51.559l-1.18-3.91a1.934,1.934,0,0,1,.628-2.077Z" transform="translate(3.975 32.529)" fill="#43aac2"/>
    <path id="Trazado_136918" data-name="Trazado 136918" d="M36.727,33.727a5.412,5.412,0,0,1-1.783,5.906L31.855,42.06a1.934,1.934,0,0,0-.628,2.077l1.18,3.91a5.357,5.357,0,0,1-1.783,5.879,4.558,4.558,0,0,1-5.776,0l-3.089-2.4a1.6,1.6,0,0,0-2.034,0l-3.114,2.4a4.582,4.582,0,0,1-5.776,0,5.387,5.387,0,0,1-1.758-5.879l1.18-3.91a1.992,1.992,0,0,0-.628-2.1l-3.114-2.4a5.412,5.412,0,0,1-1.783-5.906A4.9,4.9,0,0,1,9.4,30.086h3.842a1.72,1.72,0,0,0,1.632-1.268l1.18-3.937a4.817,4.817,0,0,1,9.342,0l1.18,3.937a1.773,1.773,0,0,0,1.657,1.268h3.842a4.848,4.848,0,0,1,4.646,3.641m-3.641,3.128a1.843,1.843,0,0,0,.628-2.077,1.681,1.681,0,0,0-1.632-1.268H28.239a4.963,4.963,0,0,1-4.671-3.641l-1.18-3.937a1.685,1.685,0,0,0-1.657-1.268A1.661,1.661,0,0,0,19.1,25.933L17.892,29.87a4.934,4.934,0,0,1-4.646,3.641H9.4a1.717,1.717,0,0,0-1.657,1.268,1.931,1.931,0,0,0,.628,2.077l3.114,2.427a5.5,5.5,0,0,1,1.783,5.906l-1.18,3.91a1.827,1.827,0,0,0,.628,2.077,1.591,1.591,0,0,0,2.034,0l3.089-2.427a4.629,4.629,0,0,1,5.776,0l3.114,2.427a1.6,1.6,0,0,0,2.034,0,1.906,1.906,0,0,0,.628-2.077l-1.18-3.91a5.485,5.485,0,0,1,1.758-5.906Z" transform="translate(6.768 36.042)"/>
    <path id="Trazado_136919" data-name="Trazado 136919" d="M31.795,32.623a1.843,1.843,0,0,1-.628,2.077l-3.114,2.427a5.485,5.485,0,0,0-1.758,5.906l1.18,3.91a1.906,1.906,0,0,1-.628,2.077,1.6,1.6,0,0,1-2.034,0L21.7,46.593a4.629,4.629,0,0,0-5.776,0L12.834,49.02a1.591,1.591,0,0,1-2.034,0,1.827,1.827,0,0,1-.628-2.077l1.18-3.91A5.5,5.5,0,0,0,9.57,37.127L6.456,34.7a1.931,1.931,0,0,1-.628-2.077,1.717,1.717,0,0,1,1.657-1.268h3.842a4.934,4.934,0,0,0,4.646-3.641l1.205-3.937a1.661,1.661,0,0,1,1.632-1.268,1.685,1.685,0,0,1,1.657,1.268l1.18,3.937a4.963,4.963,0,0,0,4.671,3.641h3.842a1.681,1.681,0,0,1,1.632,1.268" transform="translate(8.687 38.197)" fill="#ffeb92"/>
  </g>
</svg>
