<svg id="Grupo_94417" data-name="Grupo 94417" xmlns="http://www.w3.org/2000/svg" xmlns:xlink="http://www.w3.org/1999/xlink" width="41.275" height="57.386" viewBox="0 0 41.275 57.386">
  <defs>
    <clipPath id="clip-path">
      <rect id="Rectángulo_40811" data-name="Rectángulo 40811" width="41.275" height="57.386" fill="none"/>
    </clipPath>
  </defs>
  <g id="Grupo_94416" data-name="Grupo 94416" clip-path="url(#clip-path)">
    <path id="Trazado_136893" data-name="Trazado 136893" d="M37.519,4.731V20.006a4.727,4.727,0,0,1-4.731,4.731H21.971a.95.95,0,0,1-.943-.761.867.867,0,0,1-.015-.2.954.954,0,0,1,.958-.958H32.788A2.818,2.818,0,0,0,35.6,20.006V4.731a2.818,2.818,0,0,0-2.815-2.815H11.854A2.845,2.845,0,0,0,9.1,4.123a.959.959,0,0,1-.943.761.867.867,0,0,1-.2-.015.963.963,0,0,1-.73-1.156A4.767,4.767,0,0,1,11.854,0H32.788a4.737,4.737,0,0,1,4.731,4.731" transform="translate(3.756)"/>
    <path id="Trazado_136894" data-name="Trazado 136894" d="M40.316,48.947a.958.958,0,1,1,0,1.917H.958a.958.958,0,1,1,0-1.917H4.245V32.7H.958A.954.954,0,0,1,0,31.74V18.945A6.438,6.438,0,0,1,6.435,12.51H15.67a6.43,6.43,0,0,1,6.3,5.142,6.015,6.015,0,0,1,.137,1.293V31.74a.954.954,0,0,1-.958.958H17.861V48.947ZM20.189,29.732H17.861v1.05h2.328Zm0-1.932V18.945a4.519,4.519,0,0,0-4.518-4.518H6.435a4.519,4.519,0,0,0-4.518,4.518V27.8H4.245V20.33a.958.958,0,0,1,1.917,0V48.947h3.925V34.615a.954.954,0,0,1,.958-.958.968.968,0,0,1,.974.958V48.947h3.91V20.33a.954.954,0,0,1,.958-.958.968.968,0,0,1,.974.958V27.8ZM4.245,29.732H1.917v1.05H4.245Z" transform="translate(0 6.522)"/>
    <path id="Trazado_136895" data-name="Trazado 136895" d="M35.573,4.075V19.349a2.818,2.818,0,0,1-2.815,2.815H21.941a.954.954,0,0,0-.958.958.867.867,0,0,0,.015.2l-2.815.2a6.43,6.43,0,0,0-6.3-5.142H7.26V17.3A5.583,5.583,0,0,0,7.853,6.159l.274-1.932a.959.959,0,0,0,.943-.761A2.845,2.845,0,0,1,11.824,1.26H32.758a2.818,2.818,0,0,1,2.815,2.815m-6.785,7.774a2.421,2.421,0,0,0-1.43-4.382h-1.75a.488.488,0,0,1-.472-.35l-.548-1.674a2.42,2.42,0,0,0-4.595,0l-.548,1.674a.488.488,0,0,1-.472.35H17.21a2.421,2.421,0,0,0-1.415,4.382l1.415,1.019a.49.49,0,0,1,.183.563L16.86,15.1a2.374,2.374,0,0,0,.867,2.708,2.511,2.511,0,0,0,1.43.472,2.465,2.465,0,0,0,1.415-.472L22,16.778a.5.5,0,0,1,.578,0L24,17.812a2.42,2.42,0,0,0,2.86,0,2.389,2.389,0,0,0,.867-2.708l-.532-1.674a.463.463,0,0,1,.183-.548Z" transform="translate(3.785 0.657)" fill="#97dca3"/>
    <path id="Trazado_136896" data-name="Trazado 136896" d="M24.583,21.59a.968.968,0,0,1,.958.974.954.954,0,0,1-.958.958h-.654a.954.954,0,0,1-.958-.958.968.968,0,0,1,.958-.974Z" transform="translate(11.976 11.256)"/>
    <path id="Trazado_136897" data-name="Trazado 136897" d="M23.577,23.858v.654a.959.959,0,1,1-1.917,0v-.654a.958.958,0,1,1,1.917,0" transform="translate(11.293 11.939)"/>
    <path id="Trazado_136898" data-name="Trazado 136898" d="M23.577,20.818v.654a.958.958,0,0,1-1.917,0v-.654a.958.958,0,0,1,1.917,0" transform="translate(11.293 10.354)"/>
    <path id="Trazado_136899" data-name="Trazado 136899" d="M27.09,8.275a2.381,2.381,0,0,1-.882,2.708l-1.415,1.035a.463.463,0,0,0-.183.548l.532,1.674a2.389,2.389,0,0,1-.867,2.708,2.42,2.42,0,0,1-2.86,0L20,15.912a.5.5,0,0,0-.578,0l-1.43,1.035a2.465,2.465,0,0,1-1.415.472,2.511,2.511,0,0,1-1.43-.472,2.374,2.374,0,0,1-.867-2.708l.532-1.674A.49.49,0,0,0,14.63,12l-1.415-1.019A2.421,2.421,0,0,1,14.63,6.6h1.765a.488.488,0,0,0,.472-.35l.548-1.674a2.42,2.42,0,0,1,4.595,0l.548,1.674a.488.488,0,0,0,.472.35h1.75A2.388,2.388,0,0,1,27.09,8.275M25.082,9.416a.475.475,0,0,0,.183-.548.5.5,0,0,0-.487-.35h-1.75a2.4,2.4,0,0,1-2.3-1.674l-.548-1.658a.493.493,0,0,0-.943,0l-.548,1.658a2.4,2.4,0,0,1-2.3,1.674H14.63a.494.494,0,0,0-.472.35.475.475,0,0,0,.183.548l1.43,1.035a2.419,2.419,0,0,1,.867,2.708l-.532,1.674a.454.454,0,0,0,.183.548.441.441,0,0,0,.578,0l1.415-1.019a2.4,2.4,0,0,1,2.845,0l1.43,1.019a.441.441,0,0,0,.578,0,.454.454,0,0,0,.183-.548l-.532-1.674a2.4,2.4,0,0,1,.867-2.708Z" transform="translate(6.365 1.522)"/>
    <path id="Trazado_136900" data-name="Trazado 136900" d="M21.548,21.59a.977.977,0,0,1,.958.974.964.964,0,0,1-.958.958h-.654a.968.968,0,0,1-.974-.958.98.98,0,0,1,.974-.974Z" transform="translate(10.386 11.256)"/>
    <path id="Trazado_136901" data-name="Trazado 136901" d="M24.6,8.212a.475.475,0,0,1-.183.548l-1.43,1.035a2.4,2.4,0,0,0-.867,2.708l.532,1.674a.454.454,0,0,1-.183.548.441.441,0,0,1-.578,0L20.466,13.7a2.4,2.4,0,0,0-2.845,0l-1.415,1.019a.441.441,0,0,1-.578,0,.454.454,0,0,1-.183-.548l.532-1.674a2.419,2.419,0,0,0-.867-2.708l-1.43-1.035a.475.475,0,0,1-.183-.548.494.494,0,0,1,.472-.35h1.765a2.4,2.4,0,0,0,2.3-1.674L18.58,4.53a.493.493,0,0,1,.943,0l.548,1.658a2.4,2.4,0,0,0,2.3,1.674h1.75a.5.5,0,0,1,.487.35" transform="translate(7.025 2.179)" fill="#ffeb92"/>
    <path id="Trazado_136902" data-name="Trazado 136902" d="M19.468,29.95a.958.958,0,1,1,0,1.917h-.654a.959.959,0,1,1,0-1.917Z" transform="translate(9.301 15.615)"/>
    <path id="Trazado_136903" data-name="Trazado 136903" d="M18.457,32.208v.654a.959.959,0,1,1-1.917,0v-.654a.958.958,0,0,1,1.917,0" transform="translate(8.623 16.293)"/>
    <path id="Trazado_136904" data-name="Trazado 136904" d="M18.457,29.168v.654a.958.958,0,1,1-1.917,0v-.654a.958.958,0,1,1,1.917,0" transform="translate(8.623 14.708)"/>
    <path id="Trazado_136905" data-name="Trazado 136905" d="M16.413,29.95a.958.958,0,1,1,0,1.917h-.654a.958.958,0,1,1,0-1.917Z" transform="translate(7.716 15.615)"/>
    <rect id="Rectángulo_40809" data-name="Rectángulo 40809" width="2.328" height="1.05" transform="translate(17.861 36.254)" fill="#ffeb92"/>
    <path id="Trazado_136906" data-name="Trazado 136906" d="M19.532,18.288v8.854H17.2v-7.47a.967.967,0,0,0-.974-.958.954.954,0,0,0-.958.958V48.29h-3.91V33.959A.968.968,0,0,0,10.388,33a.954.954,0,0,0-.958.958V48.29H5.5V19.673a.958.958,0,0,0-1.917,0v7.47H1.26V18.288A4.519,4.519,0,0,1,5.778,13.77h9.235a4.519,4.519,0,0,1,4.518,4.518" transform="translate(0.657 7.179)" fill="#ff7863"/>
    <path id="Trazado_136907" data-name="Trazado 136907" d="M9.767,4.49a5.594,5.594,0,1,1-.593-.03c.2,0,.4.015.593.03m3.073,5.553A3.666,3.666,0,1,0,9.173,13.71a3.668,3.668,0,0,0,3.666-3.666" transform="translate(1.872 2.325)"/>
    <path id="Trazado_136908" data-name="Trazado 136908" d="M8.516,5.72A3.666,3.666,0,1,1,4.85,9.386,3.668,3.668,0,0,1,8.516,5.72" transform="translate(2.529 2.982)" fill="#ffeb92"/>
    <rect id="Rectángulo_40810" data-name="Rectángulo 40810" width="2.328" height="1.05" transform="translate(1.917 36.254)" fill="#ffeb92"/>
  </g>
</svg>
