<svg id="Grupo_94848" data-name="Grupo 94848" xmlns="http://www.w3.org/2000/svg" xmlns:xlink="http://www.w3.org/1999/xlink" width="51.383" height="69.427" viewBox="0 0 51.383 69.427">
  <defs>
    <clipPath id="clip-path">
      <rect id="Rectángulo_41083" data-name="Rectángulo 41083" width="51.383" height="69.427" fill="none"/>
    </clipPath>
  </defs>
  <path id="Trazado_137916" data-name="Trazado 137916" d="M34.961,50.808H3.249V4.54H34.3l8.328,9.9V50.808Z" transform="translate(1.944 2.716)" fill="#d4eafd"/>
  <g id="Grupo_94847" data-name="Grupo 94847" transform="translate(0 0)">
    <g id="Grupo_94846" data-name="Grupo 94846" clip-path="url(#clip-path)">
      <path id="Trazado_137917" data-name="Trazado 137917" d="M49.672,10.085V47.867a1.214,1.214,0,0,1-1.215,1.215h-4.7v4.443a1.214,1.214,0,0,1-1.215,1.215H36.407a1.215,1.215,0,0,1,0-2.429h4.923V16.973h-7.32a1.214,1.214,0,0,1-1.215-1.215V8.087H5.289V53.524a1.215,1.215,0,1,1-2.429,0V6.872A1.214,1.214,0,0,1,4.075,5.658h4.7V1.215A1.214,1.214,0,0,1,9.988,0H39.939a.692.692,0,0,0,.08.016,1.136,1.136,0,0,1,.32.064c.032.016.08.032.112.048a1.322,1.322,0,0,1,.368.24l8.519,8.886a1.016,1.016,0,0,1,.224.352.78.78,0,0,1,.048.112.93.93,0,0,1,.048.3c0,.016.016.048.016.064M47.243,46.652V11.3H44.19a1.215,1.215,0,1,1,0-2.429h1.422L43.79,6.984,41.153,4.235V5.658a1.215,1.215,0,1,1-2.429,0V2.429H11.2V5.658H34.009a.692.692,0,0,1,.08.016,1.885,1.885,0,0,1,.32.064c.048.016.08.032.128.048a1.105,1.105,0,0,1,.352.256l8.535,8.87a1.32,1.32,0,0,1,.224.352c.016.032.016.08.032.112a.935.935,0,0,1,.064.3c0,.032.016.048.016.08V46.652Zm-7.56-32.108-3.133-3.276L35.224,9.893v4.651Z" transform="translate(1.711 0)"/>
      <path id="Trazado_137918" data-name="Trazado 137918" d="M44.12,10.39V45.743H40.636V14.849c0-.032-.016-.048-.016-.08a.935.935,0,0,0-.064-.3c-.016-.032-.016-.08-.032-.112A1.32,1.32,0,0,0,40.3,14l-8.535-8.87a1.105,1.105,0,0,0-.352-.256c-.048-.016-.08-.032-.128-.048a1.885,1.885,0,0,0-.32-.064.692.692,0,0,0-.08-.016H8.08V1.52H35.6V4.748a1.215,1.215,0,0,0,2.429,0V3.326l2.637,2.749L42.49,7.961H41.067a1.215,1.215,0,1,0,0,2.429Z" transform="translate(4.834 0.909)" fill="#ebb830"/>
      <path id="Trazado_137919" data-name="Trazado 137919" d="M45.9,57.851a1.215,1.215,0,1,1,0,2.429H1.215a1.215,1.215,0,0,1,0-2.429H6.888a4.165,4.165,0,0,1-.336-1.614,4.036,4.036,0,0,1,2.685-3.8V30.505a3.63,3.63,0,0,1,5.514-3.133,3.657,3.657,0,0,1,5.178-.9,3.674,3.674,0,0,1,2.733-1.247,3.905,3.905,0,0,1,1.231.224v-6.5a3.652,3.652,0,1,1,7.3,0V31.927l2.477-2.477a4.272,4.272,0,0,1,6.5,5.5l-1.071,1.5-5.722,8.023a15.338,15.338,0,0,0-2.046,4.012,14.965,14.965,0,0,0-.767,3.74,4.04,4.04,0,0,1,3.644,4.012,4.165,4.165,0,0,1-.336,1.614ZM38.2,33.542a1.844,1.844,0,0,0-.208-2.365,1.823,1.823,0,0,0-2.589,0l-4.555,4.555-.863.863a1.215,1.215,0,1,1-1.726-1.71l.511-.511V18.95a1.223,1.223,0,1,0-2.445,0V35.06a1.215,1.215,0,1,1-2.429,0V28.891a1.231,1.231,0,0,0-2.461,0v7.272a1.215,1.215,0,1,1-2.429,0V29.434a1.223,1.223,0,1,0-2.445,0v8.295a1.215,1.215,0,1,1-2.429,0V30.505a1.231,1.231,0,0,0-2.461,0V52.177H28.145a17.592,17.592,0,0,1,3.26-9.11l5.722-8.039ZM31.789,56.236a1.62,1.62,0,0,0-1.614-1.614H10.6a1.614,1.614,0,1,0,0,3.228H30.174a1.63,1.63,0,0,0,1.614-1.614" transform="translate(0 9.147)"/>
      <path id="Trazado_137920" data-name="Trazado 137920" d="M24.437,7.564l3.133,3.276H23.11V6.19Z" transform="translate(13.825 3.703)" fill="#6da7bf"/>
      <path id="Trazado_137921" data-name="Trazado 137921" d="M33.623,30.267a1.844,1.844,0,0,1,.208,2.365L32.76,34.119l-5.722,8.039a17.592,17.592,0,0,0-3.26,9.11H7.3V29.6a1.231,1.231,0,0,1,2.461,0V36.82a1.215,1.215,0,1,0,2.429,0V28.525a1.223,1.223,0,1,1,2.445,0v6.729a1.215,1.215,0,1,0,2.429,0V27.982a1.231,1.231,0,0,1,2.461,0v6.169a1.215,1.215,0,1,0,2.429,0V18.041a1.223,1.223,0,1,1,2.445,0V33.463l-.511.511a1.215,1.215,0,0,0,1.726,1.71l.863-.863,4.555-4.555a1.823,1.823,0,0,1,2.589,0" transform="translate(4.367 10.056)" fill="#f8e794"/>
      <path id="Trazado_137922" data-name="Trazado 137922" d="M26.812,39.9a1.614,1.614,0,1,1,0,3.228H7.234a1.614,1.614,0,1,1,0-3.228H26.812Z" transform="translate(3.362 23.869)" fill="#6da7bf"/>
      <path id="Trazado_137923" data-name="Trazado 137923" d="M25.53,8.1a1.214,1.214,0,0,1,1.215,1.215,1.228,1.228,0,0,1-1.215,1.231H7.215A1.228,1.228,0,0,1,6,9.315,1.214,1.214,0,0,1,7.215,8.1Z" transform="translate(3.589 4.846)"/>
      <path id="Trazado_137924" data-name="Trazado 137924" d="M25.53,12.42a1.215,1.215,0,1,1,0,2.429H7.215a1.215,1.215,0,1,1,0-2.429Z" transform="translate(3.589 7.43)"/>
      <path id="Trazado_137925" data-name="Trazado 137925" d="M17.044,16.73a1.215,1.215,0,0,1,0,2.429H7.215a1.215,1.215,0,1,1,0-2.429Z" transform="translate(3.589 10.008)"/>
    </g>
  </g>
</svg>
