<svg xmlns="http://www.w3.org/2000/svg" xmlns:xlink="http://www.w3.org/1999/xlink" width="67" height="35.814" viewBox="0 0 67 35.814">
  <defs>
    <clipPath id="clip-path">
      <rect id="Rectángulo_40807" data-name="Rectángulo 40807" width="67" height="35.814" fill="none"/>
    </clipPath>
  </defs>
  <g id="Grupo_94413" data-name="Grupo 94413" transform="translate(0 0)">
    <g id="Grupo_94412" data-name="Grupo 94412" transform="translate(0 0)" clip-path="url(#clip-path)">
      <path id="Trazado_136817" data-name="Trazado 136817" d="M43.431,20.476a1.105,1.105,0,0,1-.792,1.362l-8.026,2.135a1.431,1.431,0,0,1-.295.037,1.116,1.116,0,0,1-1.068-.828l-.2-.755,1.1-.35a1.109,1.109,0,0,0,.736-1.362l.221.81,5.872-1.546L36.362,2.859,30.471,4.442l.276.994a1.157,1.157,0,0,0-.515-.626,1.053,1.053,0,0,0-.847-.092l-1.068.295-.295-1.068a1.128,1.128,0,0,1,.11-.847,1.076,1.076,0,0,1,.681-.515L36.859.41A1.144,1.144,0,0,1,38.24,1.2Z" transform="translate(23.533 0.317)"/>
      <path id="Trazado_136818" data-name="Trazado 136818" d="M35.227,1.725l4.621,17.12-5.872,1.546-.221-.81L29.631,4.357c0-.018-.018-.037-.018-.055l-.276-.994Z" transform="translate(24.668 1.451)" fill="#e69787"/>
      <path id="Trazado_136819" data-name="Trazado 136819" d="M34.738,18.755A1.109,1.109,0,0,1,34,20.117l-1.1.35-.589-2.154L28.755,5.206l-.589-2.154,1.068-.295a1.053,1.053,0,0,1,.847.092,1.157,1.157,0,0,1,.515.626c0,.018.018.037.018.055Z" transform="translate(23.684 2.277)"/>
      <path id="Trazado_136820" data-name="Trazado 136820" d="M34.3,12.6l.589,2.154-.423.129a6.677,6.677,0,0,1-2.062.313,5.95,5.95,0,0,1-1.27-.129,3.886,3.886,0,0,0-1.712-3.148L25.8,9.505l4.068,2.688a4.464,4.464,0,0,0,3.939.552Z" transform="translate(21.691 7.993)"/>
      <path id="Trazado_136821" data-name="Trazado 136821" d="M39.326,4.8l3.553,13.107-.5.147a4.464,4.464,0,0,1-3.939-.552l-4.068-2.688-2.227-1.491c-.018-.018-.037-.018-.055-.037L27.6,10.323a5.459,5.459,0,0,0-5.983-.055l-4.124,2.651a1.225,1.225,0,0,1-1.012.129,1.161,1.161,0,0,1-.773-.663,1.236,1.236,0,0,1,.276-1.417l7.106-6.535a5.292,5.292,0,0,1,1.123-.773A4.828,4.828,0,0,1,27.692,3.4l5.431,1.657a9.081,9.081,0,0,0,5.007.074Z" transform="translate(13.113 2.683)" fill="#edc16c"/>
      <path id="Trazado_136822" data-name="Trazado 136822" d="M31.017,13.114a3.87,3.87,0,0,1-.534,1.97,3.769,3.769,0,0,1-2.393,1.8,3.932,3.932,0,0,1-.92.11h-.037a3.321,3.321,0,0,0-1.2-2.743l.387.258a1.537,1.537,0,0,0,1.233.2,1.617,1.617,0,0,0,1.012-.755,1.643,1.643,0,0,0-.46-2.135l.4.276a6.6,6.6,0,0,0,2.5,1.012" transform="translate(21.809 9.944)"/>
      <path id="Trazado_136823" data-name="Trazado 136823" d="M35.541,5.816l-1.2.331a9.081,9.081,0,0,1-5.007-.074L23.907,4.416a4.828,4.828,0,0,0-3.479.258,1.118,1.118,0,0,0,.092-2.1L20.1,2.41a7.088,7.088,0,0,1,4.455-.129L30,3.938a6.522,6.522,0,0,0,3.755.055l1.2-.331Z" transform="translate(16.898 1.668)"/>
      <path id="Trazado_136824" data-name="Trazado 136824" d="M31.233,12.678a3.886,3.886,0,0,1,1.712,3.148,6.6,6.6,0,0,1-2.5-1.012l-.4-.276c-.018,0-.018-.018-.037-.018l-5.854-3.884a1.1,1.1,0,0,1-.313-1.546,1.147,1.147,0,0,1,1.491-.35c.018.018.037.018.055.037l2.227,1.491Z" transform="translate(19.88 7.232)"/>
      <path id="Trazado_136825" data-name="Trazado 136825" d="M44.547,19.531a1.643,1.643,0,0,1,.46,2.135A1.617,1.617,0,0,1,44,22.421a1.537,1.537,0,0,1-1.233-.2l-.387-.258h-.018a2.449,2.449,0,0,0-.35-.258l-2.522-1.546-5.817-3.571a1.116,1.116,0,1,0-1.178,1.9l6.5,3.995,2.062,1.307a1.055,1.055,0,0,1,.166,1.233,1.089,1.089,0,0,1-.663.515,1.037,1.037,0,0,1-.81-.11l-.773-.442a.488.488,0,0,0-.11-.092l-.828-.479-4.952-2.89a.068.068,0,0,0-.055-.018l-2.651-1.546a1.118,1.118,0,1,0-1.123,1.933l2.688,1.565h.018l5.762,3.369.074.055h.018a.757.757,0,0,1,.368.534.923.923,0,0,1-1.307,1.049l-2.89-1.417c-.018-.018-.037-.018-.074-.037L31.44,25.679a1.116,1.116,0,1,0-1.049,1.97l2.614,1.4.313.166a.491.491,0,0,1,.239.313.547.547,0,0,1-.074.387.467.467,0,0,1-.589.147L28.808,28.2a3.438,3.438,0,0,0,.276-2.1,3.521,3.521,0,0,0-1.417-2.283,3.415,3.415,0,0,0-2.172-.626.633.633,0,0,0-.018-.258A3.43,3.43,0,0,0,21.96,20.1a3.469,3.469,0,0,0-1.436-2.338,3.4,3.4,0,0,0-4.768.81l-.368.515A3.233,3.233,0,0,0,14.6,18.3a3.3,3.3,0,0,0-2.485-.571,3.247,3.247,0,0,0-2.154,1.362l-.313.423L6.386,17.985,11.338,5.706l2.982.442a8.258,8.258,0,0,0,3.958-.4l8.045-2.927a2.493,2.493,0,0,1,1.822.037l1.123.442L22.218,9.756a3.462,3.462,0,0,0-.792,4.013A3.55,3.55,0,0,0,23.6,15.647a3.5,3.5,0,0,0,2.835-.4l4.124-2.651a3.234,3.234,0,0,1,3.553.037l4.547,3,5.854,3.884c.018,0,.018.018.037.018" transform="translate(5.37 2.238)" fill="#f8e995"/>
      <path id="Trazado_136826" data-name="Trazado 136826" d="M28.035,14.047a3.321,3.321,0,0,1,1.2,2.743,3.747,3.747,0,0,1-2.007-.589l-.515-.331a1.95,1.95,0,0,0-.221-.184l-1.841-1.123-.681-.442a1.088,1.088,0,0,1-.35-1.528,1.108,1.108,0,0,1,1.528-.35l2.872,1.8Z" transform="translate(19.71 10.151)"/>
      <path id="Trazado_136827" data-name="Trazado 136827" d="M28.688,15.055a3.41,3.41,0,0,1-.4,1.381A3.087,3.087,0,0,1,25.54,18.13a3.228,3.228,0,0,0-.055-.847,2.994,2.994,0,0,0-1.4-1.951l.773.442a1.037,1.037,0,0,0,.81.11,1.089,1.089,0,0,0,.663-.515,1.055,1.055,0,0,0-.166-1.233l.515.331a3.747,3.747,0,0,0,2.007.589" transform="translate(20.253 11.886)"/>
      <path id="Trazado_136828" data-name="Trazado 136828" d="M27.238,13.969l-2.872-1.8,2.522,1.546a2.449,2.449,0,0,1,.35.258" transform="translate(20.489 10.23)"/>
      <path id="Trazado_136829" data-name="Trazado 136829" d="M26.158,14.732,24.1,13.425l1.841,1.123a1.95,1.95,0,0,1,.221.184" transform="translate(20.262 11.289)"/>
      <path id="Trazado_136830" data-name="Trazado 136830" d="M28.944,18.384a3.228,3.228,0,0,1,.055.847.405.405,0,0,1-.147.018,3.236,3.236,0,0,1-1.657-.442l-.81-.479h-.018c-.018-.037-.037-.037-.055-.055h-.018L20.531,14.9h-.018a1.131,1.131,0,0,1-.387-1.528,1.107,1.107,0,0,1,1.473-.423.068.068,0,0,1,.055.018l4.952,2.89.939.571a2.994,2.994,0,0,1,1.4,1.951" transform="translate(16.795 10.785)"/>
      <path id="Trazado_136831" data-name="Trazado 136831" d="M27.672,16.735a.405.405,0,0,0,.147-.018,3.065,3.065,0,0,1-.552,1.638A3.168,3.168,0,0,1,23.291,19.4l-.221-.11a2.387,2.387,0,0,0,.037-1.344A2.6,2.6,0,0,0,21.763,16.2l-.387-.221,2.89,1.417a.923.923,0,0,0,1.307-1.049.757.757,0,0,0-.368-.534l.81.479a3.236,3.236,0,0,0,1.657.442" transform="translate(17.975 13.299)"/>
      <path id="Trazado_136832" data-name="Trazado 136832" d="M28.622,10.479l4.492,2.964a1.147,1.147,0,0,0-1.491.35,1.1,1.1,0,0,0,.313,1.546l-4.547-3a3.234,3.234,0,0,0-3.553-.037l-4.124,2.651a3.5,3.5,0,0,1-2.835.4,3.55,3.55,0,0,1-2.172-1.878A3.462,3.462,0,0,1,15.5,9.466l7.051-6.461,1.933.773a1.074,1.074,0,0,0,.755.037,5.292,5.292,0,0,0-1.123.773l-7.106,6.535a1.236,1.236,0,0,0-.276,1.417,1.161,1.161,0,0,0,.773.663,1.225,1.225,0,0,0,1.012-.129l4.124-2.651a5.459,5.459,0,0,1,5.983.055" transform="translate(12.09 2.527)"/>
      <path id="Trazado_136833" data-name="Trazado 136833" d="M21.985,10.3,27.8,13.874a1.108,1.108,0,0,0-1.528.35,1.088,1.088,0,0,0,.35,1.528l.681.442-6.5-3.995a1.116,1.116,0,1,1,1.178-1.9" transform="translate(17.053 8.52)"/>
      <path id="Trazado_136834" data-name="Trazado 136834" d="M24.515,15.046l-.939-.571.828.479a.488.488,0,0,1,.11.092" transform="translate(19.824 12.172)"/>
      <path id="Trazado_136835" data-name="Trazado 136835" d="M23.424,15.785c.018.018.037.018.055.055l-.074-.055Z" transform="translate(19.682 13.274)"/>
      <path id="Trazado_136836" data-name="Trazado 136836" d="M23.84,17.925a2.387,2.387,0,0,1-.037,1.344l-2.356-1.141-.313-.166a1.109,1.109,0,0,1-.515-1.491,1.128,1.128,0,0,1,1.417-.552c.037.018.055.018.074.037l.387.221a2.6,2.6,0,0,1,1.344,1.749" transform="translate(17.241 13.324)"/>
      <path id="Trazado_136837" data-name="Trazado 136837" d="M23.656,17.547l2.356,1.141a2.089,2.089,0,0,1-.368.828,2.685,2.685,0,0,1-2.227,1.16,2.741,2.741,0,0,1-1.123-.239l-4.418-2.025.957-1.344a3.116,3.116,0,0,0,.313-.534l4.087,1.859a.467.467,0,0,0,.589-.147.547.547,0,0,0,.074-.387.491.491,0,0,0-.239-.313" transform="translate(15.031 13.904)"/>
      <path id="Trazado_136838" data-name="Trazado 136838" d="M20.747,15.227l2.467,1.325A1.128,1.128,0,0,0,21.8,17.1a1.109,1.109,0,0,0,.515,1.491L19.7,17.2a1.116,1.116,0,1,1,1.049-1.97" transform="translate(16.063 12.691)"/>
      <path id="Trazado_136839" data-name="Trazado 136839" d="M20.184,12.125l2.651,1.546a1.107,1.107,0,0,0-1.473.423,1.131,1.131,0,0,0,.387,1.528l-2.688-1.565a1.118,1.118,0,1,1,1.123-1.933" transform="translate(15.559 10.068)"/>
      <path id="Trazado_136840" data-name="Trazado 136840" d="M21.6,2.381a1.118,1.118,0,0,1-.092,2.1,1.074,1.074,0,0,1-.755-.037l-1.933-.773.055-.055a6.905,6.905,0,0,1,2.3-1.4Z" transform="translate(15.822 1.863)"/>
      <path id="Trazado_136841" data-name="Trazado 136841" d="M26.712,1.793l2.651,1.068a6.905,6.905,0,0,0-2.3,1.4l-.055.055-1.123-.442a2.493,2.493,0,0,0-1.822-.037L16.016,6.763a8.258,8.258,0,0,1-3.958.4L9.076,6.726l.331-.81L9.96,4.591l2.43.368a5.879,5.879,0,0,0,2.872-.295l8.026-2.927a4.772,4.772,0,0,1,3.424.055" transform="translate(7.632 1.217)"/>
      <path id="Trazado_136842" data-name="Trazado 136842" d="M20.759,16.727a3.438,3.438,0,0,1-.276,2.1l-1.178-.534A1.121,1.121,0,0,0,18,18.568l.35-.5a1.315,1.315,0,0,0,.221-.976,1.289,1.289,0,0,0-.515-.828,1.36,1.36,0,0,0-.755-.239c-.074,0-.147.018-.221.018a1.187,1.187,0,0,0-.792.5l.295-.423a3.326,3.326,0,0,0,.589-2.3,3.415,3.415,0,0,1,2.172.626,3.521,3.521,0,0,1,1.417,2.283" transform="translate(13.694 11.614)"/>
      <path id="Trazado_136843" data-name="Trazado 136843" d="M18.649,16.291l1.178.534a3.116,3.116,0,0,1-.313.534L18.557,18.7l-.847-.387a1.135,1.135,0,0,1-.552-1.473,1.032,1.032,0,0,1,.184-.276,1.121,1.121,0,0,1,1.307-.276" transform="translate(14.35 13.615)"/>
      <path id="Trazado_136844" data-name="Trazado 136844" d="M21.366,18.4l-1.417,2.007a3.476,3.476,0,0,1-2.283,1.436,3.39,3.39,0,0,1-.607.055,3.482,3.482,0,0,1-3.332-2.448,3.484,3.484,0,0,0,1.97-1.362l.331-.46a1.291,1.291,0,0,0,.295,1.8,1.315,1.315,0,0,0,.976.221,1.245,1.245,0,0,0,.828-.534l1.841-2.577a1.135,1.135,0,0,0,.552,1.473Z" transform="translate(11.542 13.913)"/>
      <path id="Trazado_136845" data-name="Trazado 136845" d="M19.782,16.083a1.315,1.315,0,0,1-.221.976l-.35.5a1.032,1.032,0,0,0-.184.276l-1.841,2.577a1.245,1.245,0,0,1-.828.534,1.315,1.315,0,0,1-.976-.221,1.291,1.291,0,0,1-.295-1.8l2.375-3.35.037-.037a1.187,1.187,0,0,1,.792-.5c.074,0,.147-.018.221-.018a1.36,1.36,0,0,1,.755.239,1.289,1.289,0,0,1,.515.828" transform="translate(12.482 12.626)" fill="#edc16c"/>
      <path id="Trazado_136846" data-name="Trazado 136846" d="M19.4,13.815a3.326,3.326,0,0,1-.589,2.3l-.295.423-.037.037L16.1,19.927l-.331.46a3.484,3.484,0,0,1-1.97,1.362,3.509,3.509,0,0,1,.479-3.111l2.375-3.35.018-.018a3.482,3.482,0,0,1,2.264-1.417,1.943,1.943,0,0,1,.46-.037" transform="translate(11.464 11.617)"/>
      <path id="Trazado_136847" data-name="Trazado 136847" d="M18.74,14.972a.633.633,0,0,1,.018.258,1.943,1.943,0,0,0-.46.037,3.482,3.482,0,0,0-2.264,1.417l.313-.442a1.161,1.161,0,0,0,.2-.884,1.218,1.218,0,0,0-.5-.773,1.157,1.157,0,0,0-.681-.221.755.755,0,0,0-.2.018,1.193,1.193,0,0,0-.773.479l.2-.295a3.547,3.547,0,0,0,.626-2.43,3.43,3.43,0,0,1,3.516,2.835" transform="translate(12.105 10.203)"/>
      <path id="Trazado_136848" data-name="Trazado 136848" d="M18.03,14.339a1.161,1.161,0,0,1-.2.884l-.313.442-.018.018-2.375,3.35-.331.46a1.188,1.188,0,1,1-1.933-1.381l3.019-4.271a1.193,1.193,0,0,1,.773-.479.755.755,0,0,1,.2-.018,1.157,1.157,0,0,1,.681.221,1.218,1.218,0,0,1,.5.773" transform="translate(10.626 11.222)" fill="#edc16c"/>
      <path id="Trazado_136849" data-name="Trazado 136849" d="M17.727,12.135a3.547,3.547,0,0,1-.626,2.43l-.2.295L13.879,19.13l-1.012,1.417a3.505,3.505,0,0,1-1.012.939,3.4,3.4,0,0,1,.2-3.645l3.019-4.271c.074-.11.147-.2.221-.295a3.411,3.411,0,0,1,2.43-1.141" transform="translate(9.603 10.205)"/>
      <path id="Trazado_136850" data-name="Trazado 136850" d="M16.412,11.156a3.469,3.469,0,0,1,1.436,2.338,3.411,3.411,0,0,0-2.43,1.141,1.2,1.2,0,0,0-.295-1.657,1.043,1.043,0,0,0-.681-.221,1.148,1.148,0,0,0-.976.5l-2.191,3.074a3.289,3.289,0,0,0,0-3.847l.368-.515a3.4,3.4,0,0,1,4.768-.81" transform="translate(9.482 8.845)"/>
      <path id="Trazado_136851" data-name="Trazado 136851" d="M15.614,17.316l.331-.46a3.509,3.509,0,0,0-.479,3.111,4.229,4.229,0,0,1-.828.092,3.422,3.422,0,0,1-1.97-.626,3.517,3.517,0,0,1-1.012-1.141,3.505,3.505,0,0,0,1.012-.939l1.012-1.417a1.206,1.206,0,0,0-.2.9,1.177,1.177,0,0,0,2.135.479" transform="translate(9.801 13.4)"/>
      <path id="Trazado_136852" data-name="Trazado 136852" d="M16.161,11.956a1.2,1.2,0,0,1,.295,1.657c-.074.092-.147.184-.221.295l-3.019,4.271L12.2,19.6a1.2,1.2,0,0,1-1.657.295,1.223,1.223,0,0,1-.295-1.675l.626-.865,1.436-2.043L14.5,12.232a1.148,1.148,0,0,1,.976-.5,1.043,1.043,0,0,1,.681.221" transform="translate(8.444 9.868)" fill="#edc16c"/>
      <path id="Trazado_136853" data-name="Trazado 136853" d="M13.221,17.031l1.012-1.417a3.4,3.4,0,0,0-.2,3.645,3.405,3.405,0,0,1-5.191-3.129,2.347,2.347,0,0,0,.368.018,2.81,2.81,0,0,0,.552-.055A3.319,3.319,0,0,0,11.9,14.785l-.626.865a1.223,1.223,0,0,0,.295,1.675,1.2,1.2,0,0,0,1.657-.295" transform="translate(7.427 12.433)"/>
      <path id="Trazado_136854" data-name="Trazado 136854" d="M13.328,11.585a3.289,3.289,0,0,1,0,3.847l-1.436,2.043a3.319,3.319,0,0,1-2.135,1.307,2.81,2.81,0,0,1-.552.055,2.347,2.347,0,0,1-.368-.018,3.246,3.246,0,0,1,.607-1.767l.626-.865,1.491-2.1Z" transform="translate(7.43 9.742)"/>
      <path id="Trazado_136855" data-name="Trazado 136855" d="M13.9,12.229l-1.767,2.5a1.1,1.1,0,0,0-.313-1.473.981.981,0,0,0-.626-.2h-.2a1.13,1.13,0,0,0-.7.46l-.736,1.031-.018-.018A1.1,1.1,0,0,0,9,13.057l-.847-.4.313-.423a3.247,3.247,0,0,1,2.154-1.362,3.3,3.3,0,0,1,2.485.571,3.233,3.233,0,0,1,.792.792" transform="translate(6.858 9.098)"/>
      <path id="Trazado_136856" data-name="Trazado 136856" d="M11.584,12.237A1.1,1.1,0,0,1,11.9,13.71l-1.491,2.1a1.113,1.113,0,0,1-1.51.221,1.114,1.114,0,0,1-.258-1.546l.681-.957.736-1.031a1.13,1.13,0,0,1,.7-.46h.2a.981.981,0,0,1,.626.2" transform="translate(7.093 10.12)" fill="#edc16c"/>
      <path id="Trazado_136857" data-name="Trazado 136857" d="M18.052,3.783a1.134,1.134,0,0,1,.018.884l-.479,1.141-1.436-.2A1.113,1.113,0,0,0,15,6.213c.11-.276.552-1.325.552-1.325L8.94,2.531l-6.388,16.6,6.241,2.393.479-1.1A1.14,1.14,0,0,0,9.86,21.8l1.031.479-.479,1.1a1.1,1.1,0,0,1-1.012.681,1.049,1.049,0,0,1-.4-.074L.711,20.811a1.153,1.153,0,0,1-.626-.589,1.219,1.219,0,0,1-.018-.847L7.246.727A1.121,1.121,0,0,1,8.663.064l8.744,3.129a1.072,1.072,0,0,1,.644.589" transform="translate(0 0.001)"/>
      <path id="Trazado_136858" data-name="Trazado 136858" d="M13.384,3.254l-.552,1.325-.331.81L7.548,17.668l-.387.976-.479,1.086-1.031-.479a1.14,1.14,0,0,1-.589-1.381L5.1,17.8,10.751,3.732a.2.2,0,0,0,.037-.074,1.113,1.113,0,0,1,1.16-.607Z" transform="translate(4.208 2.555)"/>
      <path id="Trazado_136859" data-name="Trazado 136859" d="M11.425,15.145l-.626.865a3.246,3.246,0,0,0-.607,1.767,3.19,3.19,0,0,1-1.565-.589,3.351,3.351,0,0,1-.976-4.363l1.2.552a1.055,1.055,0,0,0,.46.11,1.109,1.109,0,0,0,1.012-.644l.018.018-.681.957a1.114,1.114,0,0,0,.258,1.546,1.113,1.113,0,0,0,1.51-.221" transform="translate(6.075 10.785)"/>
      <path id="Trazado_136860" data-name="Trazado 136860" d="M9.591,12.22a1.1,1.1,0,0,1,.534,1.473,1.109,1.109,0,0,1-1.012.644,1.055,1.055,0,0,1-.46-.11l-1.2-.552a1.59,1.59,0,0,1,.184-.295l1.1-1.565Z" transform="translate(6.27 9.935)"/>
      <path id="Trazado_136861" data-name="Trazado 136861" d="M7.774,1.375l6.609,2.356s-.442,1.049-.552,1.325a.2.2,0,0,1-.037.074L8.142,19.195l-.037.074-.479,1.1L1.386,17.98Z" transform="translate(1.165 1.157)" fill="#a7ceda"/>
      <path id="Trazado_136862" data-name="Trazado 136862" d="M10.04,12.513l-1.1,1.565a1.59,1.59,0,0,0-.184.295L5.916,13.047l.479-1.086.387-.976Z" transform="translate(4.975 9.238)"/>
    </g>
  </g>
</svg>
