<svg xmlns="http://www.w3.org/2000/svg" xmlns:xlink="http://www.w3.org/1999/xlink" width="286.667" height="312.747" viewBox="0 0 286.667 312.747">
  <defs>
    <clipPath id="clip-path">
      <path id="Trazado_137401" data-name="Trazado 137401" d="M501.692,235.174a2.417,2.417,0,0,0-2.417,2.416v55.257a2.417,2.417,0,0,0,2.417,2.417h81.1V235.174Z" transform="translate(-499.275 -235.174)" fill="none"/>
    </clipPath>
    <linearGradient id="linear-gradient" x1="-2.34" y1="1.957" x2="-2.336" y2="1.957" gradientUnits="objectBoundingBox">
      <stop offset="0" stop-color="#f4ba13"/>
      <stop offset="1" stop-color="#ea6927"/>
    </linearGradient>
    <clipPath id="clip-path-2">
      <rect id="Rectángulo_40934" data-name="Rectángulo 40934" width="60.953" height="60.093" fill="none"/>
    </clipPath>
  </defs>
  <g id="Grupo_104205" data-name="Grupo 104205" transform="translate(-915.333 -2543.17)">
    <g id="Grupo_95588" data-name="Grupo 95588" transform="translate(1200 11766)">
      <g id="Grupo_95587" data-name="Grupo 95587" transform="translate(-12.283 31.078)">
        <path id="Trazado_139641" data-name="Trazado 139641" d="M557.821,427.9a251.659,251.659,0,0,0,55.965-61.589l22.977,19.324a290.974,290.974,0,0,1-64.708,71.211L557.821,427.9" transform="translate(-654.352 -9498.713)" fill="#5858c6"/>
        <path id="Trazado_139643" data-name="Trazado 139643" d="M622.4,378.768l14.241,12.214c-1.658,2.517-1.685,5.756-.013,7.278a289.108,289.108,0,0,1-54.254,59.706c-1.133-2.116-3.836-2.35-6.072-.581l-9.02-17.96a5.705,5.705,0,0,0,1.651-6.82,253.883,253.883,0,0,0,47.644-52.431c1.671,1.522,4.3.911,5.824-1.405" transform="translate(-659.706 -9505.927)" fill="#a4e5ff"/>
        <path id="Trazado_139651" data-name="Trazado 139651" d="M671.3,426.781q6.239-7.655,12.006-15.836l2.134,1.995Q679.6,421.23,673.27,429l-1.966-2.217" transform="translate(-718.566 -9524.556)" fill="#7473e8"/>
        <path id="Trazado_139639" data-name="Trazado 139639" d="M559.146,471.388a204.145,204.145,0,0,0,73.81-23.785l14.365,29.2a236.027,236.027,0,0,1-85.341,27.5q-1.417-16.455-2.835-32.912" transform="translate(-655.101 -9545.779)" fill="#5858c6"/>
        <path id="Trazado_139640" data-name="Trazado 139640" d="M637.048,460.032l8.819,18.3c-2.435,1.309-3.617,4.123-2.613,6.349A234.343,234.343,0,0,1,571.7,507.742a4.625,4.625,0,0,0-5.413-3.763q-.966-10.261-1.933-20.522a4.6,4.6,0,0,0,3.964-5.071,205.794,205.794,0,0,0,62.835-20.248,4.189,4.189,0,0,0,5.894,1.9" transform="translate(-658.049 -9551.878)" fill="#a4e5ff"/>
        <path id="Trazado_139642" data-name="Trazado 139642" d="M686.378,500.743q8.51-3.34,16.771-7.394l1.263,2.887q-8.37,4.108-17.006,7.5l-1.028-2.99" transform="translate(-727.095 -9572.265)" fill="#7473e8"/>
      </g>
      <path id="Trazado_139598" data-name="Trazado 139598" d="M167.978,329.336l-1.823-2.387a15.072,15.072,0,0,1-3.512,1.691,1.881,1.881,0,0,1-2.316-1.034l-.045-.107a1.791,1.791,0,0,1,1.151-2.4,11,11,0,0,0,3.169-1.549c1.477-1.061,2.065-2.339,1.3-3.345-.729-.954-2.019-.962-4.416-.213-3.463,1.086-6.314,1.188-8.175-1.249-1.688-2.211-1.406-5.1.964-7.617l-1.823-2.387,2.539-1.824,1.688,2.211a13.9,13.9,0,0,1,2.617-1.367,1.882,1.882,0,0,1,2.4,1,1.79,1.79,0,0,1-1.083,2.377,10.02,10.02,0,0,0-2.515,1.322c-1.684,1.21-1.691,2.3-1.154,3.007.633.829,1.943.706,4.76-.072,3.889-1.159,6.188-.67,7.915,1.592,1.708,2.237,1.533,5.319-1.062,7.961l1.957,2.563Z" transform="translate(-394.824 -9447.652)" fill="#ff862d"/>
      <path id="Trazado_139398" data-name="Trazado 139398" d="M310.7,789.494h0a1.393,1.393,0,0,0-1.168-1.539H25.206a1.6,1.6,0,0,0,0,3.078H309.537a1.392,1.392,0,0,0,1.168-1.539" transform="translate(-308.705 -9701.115)" fill="#271651"/>
      <path id="Trazado_139571" data-name="Trazado 139571" d="M694.4,292.117l-1.622-3.719-4.078-.813a.549.549,0,0,1-.259-.962l3.146-2.645-.463-4.013a.57.57,0,0,1,.864-.536l3.566,2.084,3.792-1.667a.566.566,0,0,1,.793.631l-.942,3.933L702,287.391a.552.552,0,0,1-.374.927l-4.147.347-2.057,3.51a.58.58,0,0,1-1.025-.058" transform="translate(-723.473 -9448.367)" fill="#7473e8"/>
      <path id="Trazado_139615" data-name="Trazado 139615" d="M839.238,387.061l-3.425-1.87-2,2.974-3.457-1.7-2.277,2.613-2.8-.861-.449,1.375,3.747,1.151,2.157-2.476,3.6,1.766,1.971-2.925,3.1,1.7Z" transform="translate(-897.992 -9506.868)" fill="#ff862d"/>
      <path id="Trazado_139621" data-name="Trazado 139621" d="M797.669,343.3l1.011,2.629-4.183,2.044.989,4.021-2.872,2.026,1.058,1.41,3.841-2.71-.937-3.81,4.351-2.126-1.52-3.957Z" transform="translate(-829.203 -9464.504)" fill="#7473e8"/>
      <path id="Trazado_139587" data-name="Trazado 139587" d="M267.579,157.2a6.9,6.9,0,0,1,.214,9.969,7.43,7.43,0,0,1-10.279.208,6.9,6.9,0,0,1-.214-9.969,7.431,7.431,0,0,1,10.279-.208" transform="translate(-453.131 -9359.842)" fill="#a4e5ff"/>
      <path id="Trazado_139588" data-name="Trazado 139588" d="M270.165,165.91l-3.093.922-.971,2.994a.319.319,0,0,1-.559.084l-1.86-2.568-3.236.03a.306.306,0,0,1-.255-.49l1.944-2.509L261.1,161.4a.311.311,0,0,1,.4-.387l3.062,1.017,2.6-1.869a.316.316,0,0,1,.5.251l-.052,3.138,2.637,1.82a.3.3,0,0,1-.09.542" transform="translate(-455.875 -9362.654)" fill="#7473e8"/>
      <path id="Trazado_139590" data-name="Trazado 139590" d="M260.737,280.24l1.358,2.189a.349.349,0,0,0,.616-.05l.965-2.377,2.566-.577a.331.331,0,0,0,.142-.583l-2.033-1.625.227-2.545a.344.344,0,0,0-.528-.311l-2.222,1.373-2.425-1a.341.341,0,0,0-.468.391l.66,2.473-1.727,1.929a.332.332,0,0,0,.239.552Z" transform="translate(-454.549 -9428.777)" fill="#e9faff"/>
      <path id="Trazado_139564" data-name="Trazado 139564" d="M441.088,211.542l1.13,1.821a.29.29,0,0,0,.512-.042l.8-1.977,2.134-.48a.275.275,0,0,0,.118-.485l-1.691-1.352.189-2.117a.286.286,0,0,0-.439-.258L442,207.8l-2.018-.829a.283.283,0,0,0-.389.325l.549,2.057-1.436,1.6a.276.276,0,0,0,.2.459Z" transform="translate(-556.881 -9389.58)" fill="#7473e8"/>
      <path id="Trazado_139577" data-name="Trazado 139577" d="M322.374,221.771l1.809,2.914a.465.465,0,0,0,.819-.067l1.285-3.165,3.417-.768a.44.44,0,0,0,.188-.776l-2.707-2.163.3-3.389a.458.458,0,0,0-.7-.413l-2.957,1.828-3.23-1.327a.454.454,0,0,0-.623.521l.879,3.293-2.3,2.569a.442.442,0,0,0,.318.735Z" transform="translate(-488.872 -9393.787)" fill="#ff862d"/>
      <path id="Trazado_139545" data-name="Trazado 139545" d="M688.118,228.771a2.584,2.584,0,0,1,2.036-.776,1.936,1.936,0,0,1,1.873,2.067c-.069,1.221-1.256,2.607-4.194,3.709-2.8-1.409-3.817-2.913-3.747-4.135a1.953,1.953,0,0,1,2.1-1.855,2.565,2.565,0,0,1,1.935.989" transform="translate(-721.119 -9418.511)" fill="#ff862d"/>
      <path id="Trazado_139546" data-name="Trazado 139546" d="M670.513,229.056a26.99,26.99,0,0,0,2.967.473c.3.031.813.171,1.049-.058a.3.3,0,0,0,.05-.421c-.195-.265-.659-.217-.962-.248-.924-.1-1.966-.247-3.009-.459a.359.359,0,1,0-.1.712" transform="translate(-713.259 -9418.835)" fill="#ff862d"/>
      <path id="Trazado_139553" data-name="Trazado 139553" d="M705.49,238.336c.441.053.884.1,1.326.144a4.207,4.207,0,0,0,1.332.07.309.309,0,0,0,.077-.591,4.135,4.135,0,0,0-1.312-.205c-.443-.045-.885-.091-1.328-.13a.359.359,0,0,0-.1.712" transform="translate(-733.056 -9424.209)" fill="#ff862d"/>
      <path id="Trazado_139554" data-name="Trazado 139554" d="M678.013,241.794a4.629,4.629,0,0,1,1.919-1.342.29.29,0,0,0-.155-.552,3.453,3.453,0,0,0-2.354,1.467c-.281.37.3.8.59.428" transform="translate(-717.309 -9425.527)" fill="#ff862d"/>
      <path id="Trazado_139556" data-name="Trazado 139556" d="M689.069,247.8a3.1,3.1,0,0,1,.366-1.266c.131-.242.739-.891.234-1.079-.475-.176-.827.575-.981.892a3.674,3.674,0,0,0-.356,1.36c-.029.461.7.556.737.092" transform="translate(-723.524 -9428.731)" fill="#ff862d"/>
      <path id="Trazado_139557" data-name="Trazado 139557" d="M699.177,244.7l.678.6c.225.2.432.475.763.446a.319.319,0,0,0,.274-.347c0-.294-.377-.507-.584-.688l-.682-.593a.387.387,0,0,0-.526.074.365.365,0,0,0,.076.511" transform="translate(-729.576 -9427.927)" fill="#ff862d"/>
      <path id="Trazado_139537" data-name="Trazado 139537" d="M685.208,219.525c-.689-2.291-.67-2.3-.838-2.5a.331.331,0,0,0-.575.155c-.032.27-.022.226.712,2.634a.387.387,0,0,0,.5.2.374.374,0,0,0,.2-.484" transform="translate(-720.951 -9412.219)" fill="#ff862d"/>
      <path id="Trazado_139542" data-name="Trazado 139542" d="M695.431,220.907a5.372,5.372,0,0,0,.445-1.091c.1-.352.3-.88-.012-1.166a.287.287,0,0,0-.286-.034c-.338.173-.328.668-.422.993a6.366,6.366,0,0,1-.407,1.029.357.357,0,0,0,.2.465.381.381,0,0,0,.48-.2" transform="translate(-727.138 -9413.192)" fill="#ff862d"/>
      <path id="Trazado_139547" data-name="Trazado 139547" d="M706.482,225.769a.314.314,0,0,0-.177-.405c-.291-.15-.724.094-1,.213a6.573,6.573,0,0,0-.908.493.356.356,0,0,0-.061.506.389.389,0,0,0,.522.059c1.122-.665,1.411-.471,1.621-.866" transform="translate(-732.538 -9417.085)" fill="#ff862d"/>
      <path id="Trazado_139535" data-name="Trazado 139535" d="M620.811,224.631l-3.894-9.136a2.632,2.632,0,0,0-3.4-1.368l-3.429,1.375,5.884,13.8,3.428-1.375a2.5,2.5,0,0,0,1.411-3.3" transform="translate(-679.25 -9410.495)" fill="#5858c6"/>
      <path id="Trazado_139538" data-name="Trazado 139538" d="M604.434,227.408l-3.894-9.136a2.633,2.633,0,0,0-3.4-1.369l-9.23,3.7a2.5,2.5,0,0,0-1.411,3.3l3.894,9.136a2.633,2.633,0,0,0,3.4,1.369l9.229-3.7a2.5,2.5,0,0,0,1.411-3.3" transform="translate(-665.79 -9412.104)" fill="#7473e8"/>
      <path id="Trazado_139548" data-name="Trazado 139548" d="M595.149,229.271a1.189,1.189,0,0,1-.6,1.6,1.252,1.252,0,0,1-1.588-.717,1.189,1.189,0,0,1,.6-1.595,1.252,1.252,0,0,1,1.588.717" transform="translate(-669.497 -9418.913)" fill="#271651"/>
      <path id="Trazado_139549" data-name="Trazado 139549" d="M603.449,225.839a1.19,1.19,0,0,1-.6,1.6,1.253,1.253,0,0,1-1.589-.717,1.189,1.189,0,0,1,.6-1.6,1.253,1.253,0,0,1,1.589.717" transform="translate(-674.193 -9416.926)" fill="#271651"/>
      <path id="Trazado_139550" data-name="Trazado 139550" d="M611.748,222.409a1.189,1.189,0,0,1-.6,1.6,1.251,1.251,0,0,1-1.588-.717,1.188,1.188,0,0,1,.6-1.595,1.252,1.252,0,0,1,1.588.716" transform="translate(-678.89 -9414.94)" fill="#271651"/>
      <path id="Trazado_139551" data-name="Trazado 139551" d="M625.558,227.071c.49-.011,1.038.557,1.226,1.27s-.058,1.3-.547,1.31-1.039-.557-1.226-1.269.058-1.3.547-1.311" transform="translate(-687.658 -9418.101)" fill="#271651"/>
      <path id="Trazado_139562" data-name="Trazado 139562" d="M603.9,250.434a1.189,1.189,0,0,1-.6,1.6,1.253,1.253,0,0,1-1.589-.717,1.188,1.188,0,0,1,.6-1.595,1.252,1.252,0,0,1,1.588.717" transform="translate(-674.448 -9431.165)" fill="#271651"/>
      <path id="Trazado_139558" data-name="Trazado 139558" d="M612.2,247a1.189,1.189,0,0,1-.6,1.6,1.253,1.253,0,0,1-1.589-.717,1.189,1.189,0,0,1,.6-1.595A1.252,1.252,0,0,1,612.2,247" transform="translate(-679.144 -9429.179)" fill="#271651"/>
      <path id="Trazado_139555" data-name="Trazado 139555" d="M620.5,243.572a1.189,1.189,0,0,1-.6,1.6,1.253,1.253,0,0,1-1.589-.717,1.189,1.189,0,0,1,.6-1.6,1.253,1.253,0,0,1,1.588.717" transform="translate(-683.841 -9427.192)" fill="#271651"/>
      <path id="Trazado_139532" data-name="Trazado 139532" d="M577.758,164.984l-3.241-1.808-7.677,12.948,3.241,1.807a2.619,2.619,0,0,0,3.515-.92l5.11-8.619a2.456,2.456,0,0,0-.948-3.409" transform="translate(-654.778 -9381.108)" fill="#ff862d"/>
      <path id="Trazado_139533" data-name="Trazado 139533" d="M562.636,156.71l-8.658-4.828a2.648,2.648,0,0,0-3.554.93l-5.081,8.57a2.484,2.484,0,0,0,.959,3.447l8.658,4.828a2.647,2.647,0,0,0,3.554-.93l5.081-8.57a2.484,2.484,0,0,0-.959-3.447" transform="translate(-642.418 -9374.375)" fill="#fccaa7"/>
      <path id="Trazado_139543" data-name="Trazado 139543" d="M564.242,159.006a1.26,1.26,0,0,1-1.671.511,1.182,1.182,0,0,1-.385-1.657,1.261,1.261,0,0,1,1.671-.512,1.183,1.183,0,0,1,.385,1.658" transform="translate(-652.041 -9377.652)" fill="#271651"/>
      <path id="Trazado_139539" data-name="Trazado 139539" d="M572.027,163.483a1.26,1.26,0,0,1-1.671.511,1.182,1.182,0,0,1-.385-1.657,1.26,1.26,0,0,1,1.67-.512,1.182,1.182,0,0,1,.385,1.658" transform="translate(-656.446 -9380.244)" fill="#271651"/>
      <path id="Trazado_139536" data-name="Trazado 139536" d="M579.812,167.959a1.261,1.261,0,0,1-1.671.511,1.182,1.182,0,0,1-.384-1.657,1.26,1.26,0,0,1,1.67-.511,1.182,1.182,0,0,1,.385,1.657" transform="translate(-660.851 -9382.836)" fill="#271651"/>
      <path id="Trazado_139534" data-name="Trazado 139534" d="M584.575,181.539a1.5,1.5,0,0,1-.288,1.717c-.468.579-1.1.749-1.4.38a1.5,1.5,0,0,1,.288-1.717c.467-.579,1.1-.749,1.4-.38" transform="translate(-663.761 -9391.627)" fill="#271651"/>
      <path id="Trazado_139552" data-name="Trazado 139552" d="M552.827,178.859a1.261,1.261,0,0,1-1.671.512,1.183,1.183,0,0,1-.384-1.658,1.26,1.26,0,0,1,1.67-.511,1.182,1.182,0,0,1,.385,1.657" transform="translate(-645.582 -9389.146)" fill="#271651"/>
      <path id="Trazado_139544" data-name="Trazado 139544" d="M560.611,183.335a1.26,1.26,0,0,1-1.671.511,1.182,1.182,0,0,1-.385-1.657,1.261,1.261,0,0,1,1.671-.512,1.183,1.183,0,0,1,.385,1.658" transform="translate(-649.986 -9391.738)" fill="#271651"/>
      <path id="Trazado_139540" data-name="Trazado 139540" d="M568.4,187.812a1.261,1.261,0,0,1-1.671.511,1.182,1.182,0,0,1-.385-1.657,1.261,1.261,0,0,1,1.671-.512,1.183,1.183,0,0,1,.385,1.658" transform="translate(-654.392 -9394.33)" fill="#271651"/>
      <g id="Grupo_95583" data-name="Grupo 95583" transform="translate(-260.408 -9055.864)">
        <path id="Trazado_139418" data-name="Trazado 139418" d="M379.337,614.223a3.919,3.919,0,0,0,.432,1.016,38.7,38.7,0,0,0,4.13,5.329l2.233-4.879s-.364-1.531-1-3.721c-2.156.546-4.21.862-5.8,2.255" transform="translate(-374.018 -569.669)" fill="#f8a492"/>
        <path id="Trazado_139421" data-name="Trazado 139421" d="M388.414,595.385s-12.453,5.2-12.855,5.1c-.259-.064-5.108-7.935-5.16-15.336-.024-3.418,3.637-7.53,7.721-6.717,2.056.41,2.025.964,5.067,5.251s5.227,11.7,5.227,11.7" transform="translate(-370.294 -555.062)" fill="#7473e8"/>
        <path id="Trazado_139401" data-name="Trazado 139401" d="M418.9,773.274s-.3,4.743-.3,4.753a25.3,25.3,0,0,0-.536,2.638c0,2.056,10.069-1.746,7.812-2.657-.2-.083-1.274-.706-1.341-1.406-.1-1.079-.366-3.26-.366-3.26Z" transform="translate(-390.155 -639.712)" fill="#f7a491"/>
        <path id="Trazado_139402" data-name="Trazado 139402" d="M425.6,781.54s-2.364.629-3.575.786-2.807-1.167-3.664-.809c-.942.394-.905,3.937-.905,3.937s12.678,1.009,16.242-.034c1.412-.414-3.265-2.415-8.1-3.88" transform="translate(-389.9 -643.264)" fill="#5858c6"/>
        <path id="Trazado_139403" data-name="Trazado 139403" d="M383.6,773.274s-.3,4.743-.3,4.753a25.13,25.13,0,0,0-.536,2.638c0,2.056,10.069-1.746,7.812-2.657-.2-.083-1.591-1.172-1.659-1.872-.1-1.078-.049-2.794-.049-2.794Z" transform="translate(-375.445 -639.712)" fill="#f7a491"/>
        <path id="Trazado_139404" data-name="Trazado 139404" d="M390.243,781.54s-2.364.629-3.575.786-2.807-1.167-3.664-.809c-.942.394-.98,3.937-.98,3.937s12.736,1.176,16.317-.034c1.391-.47-3.265-2.415-8.1-3.88" transform="translate(-375.137 -643.264)" fill="#5858c6"/>
        <path id="Trazado_139417" data-name="Trazado 139417" d="M389.467,592.019l8.868-12.048c.037-.106.118-.322.242-.651.446-1.2,1.376-3.683,2.185-6.158l.009-.027c.254-.865.793-2.374,1.315-3.834.58-1.624,1.3-3.636,1.324-3.98-.022-.059-.064-.164-.12-.3a27.1,27.1,0,0,1-.92-3.616c-.1-.54-.2-1.852.463-1.852,1.04,0,.545,1.31,1.024,2.129a20.209,20.209,0,0,0,.721-2.73l.173-2.562c.034-.193-.178-1.606.551-1.606h.035c.655.047.641,1.549.914,4.09.086-.292.172-.645.237-.969a8.924,8.924,0,0,1,.222-1.341c-.132-.708-.055-1.825.722-1.72.39.053.358,1.612.358,1.612,0,.214-.027,1.861-.015,2.187.08-.553.391-2.911,1-2.911.506,0,.547.635.536,1.137-.006.3-.324,2.853-.341,3.15.238-.388.52-2.639.756-2.639.987,0,.63,3.2.268,4.036a3.583,3.583,0,0,0-.112.446,7.717,7.717,0,0,1-.846,2.382c-.62,1.027-1.474,2.661-1.6,2.911-.1.51-.393,2.346-.766,4.654-.16.988-.334,2.071-.517,3.193h-.01c-.033.243-.218,1.015-.919,3.911a33.773,33.773,0,0,1-1.1,4.208c-.417.716-9.978,13.308-10.386,13.844l-.24.316Z" transform="translate(-378.238 -544.837)" fill="#f7a491"/>
        <path id="Trazado_139428" data-name="Trazado 139428" d="M416.312,569.509s-.72-1.785-2-1.788a1.514,1.514,0,0,1,1.33.221,2.417,2.417,0,0,1,.672,1.568" transform="translate(-388.588 -550.426)" fill="#f47458"/>
        <path id="Trazado_139425" data-name="Trazado 139425" d="M384.978,564.521l-1.142,7s4.35,3.387,6.886,2.673c2.128-.6.669-3.3.669-3.3s-1.134-3.738-.785-5.7-5.628-.681-5.628-.681" transform="translate(-375.892 -548.888)" fill="#f7a491"/>
        <path id="Trazado_139429" data-name="Trazado 139429" d="M386.456,566.639a18.191,18.191,0,0,0,4.923,1.346,9.023,9.023,0,0,1-.116-2.783c.16-.9-1.026-1.118-2.35-1.087-1.733.144-3.278.406-3.278.406l-.219,1.346a3.57,3.57,0,0,0,1.039.771" transform="translate(-376.551 -548.889)" fill="#fe875e"/>
        <path id="Trazado_139431" data-name="Trazado 139431" d="M376.376,547.672c-.18,0,1.719,7.822,4.658,9.168s7.322.645,8.144-1.463c.91-2.33-2.408-10.31-6.542-11.324s-6.26,3.619-6.26,3.619" transform="translate(-372.779 -540.116)" fill="#f7a491"/>
        <path id="Trazado_139430" data-name="Trazado 139430" d="M377.216,537.574a9.058,9.058,0,0,0-3.787,4.058c-1.1.506-2.435,1.6-3.075,4.558-.787,3.633,2.011,6.435,4.977,7.277s3.424,2.746,3.424,2.746l.336-2.049a8.053,8.053,0,0,0-1.652-2.676c-.992-.892.47-2.194.6-3.254.1-.818-.522-2.4-.387-3.744,0,0,1.649-2.422,3.273-3.021,2.769-1.02-.695-5.581-3.707-3.9" transform="translate(-370.219 -537.204)" fill="#271651"/>
        <path id="Trazado_139432" data-name="Trazado 139432" d="M382.71,558.1c.384.9.227,1.8-.351,2s-1.358-.365-1.742-1.269-.227-1.8.351-2,1.358.364,1.742,1.268" transform="translate(-374.464 -545.711)" fill="#f7a491"/>
        <path id="Trazado_139420" data-name="Trazado 139420" d="M403.119,615.219l17.106-2.7s-1.946-4.752-2.642-4.752-12.934,5.181-12.934,5.181l-.974,1.9Z" transform="translate(-383.926 -567.843)" fill="#f8a492"/>
        <path id="Trazado_139405" data-name="Trazado 139405" d="M386.019,640.464s-1.706,8-1.011,14.067.75,27.617.75,27.617l-2.654,34.48,6.3.133s7.467-34.464,7.327-33.58,2.5-24.266,2.5-24.266l-8.9-19.211Z" transform="translate(-375.587 -581.714)" fill="#a4e5ff"/>
        <path id="Trazado_139406" data-name="Trazado 139406" d="M390.66,638.339s-1.113,7.2.278,10.363,11.929,34.162,12.069,36.689,3.643,30.467,3.643,30.467l7.322-.2,1.584-31.063-3.317-39.04-3.22-9.871Z" transform="translate(-378.56 -579.968)" fill="#e9faff"/>
        <path id="Trazado_139426" data-name="Trazado 139426" d="M383.837,575.473a6.714,6.714,0,0,0,3.489,1.016,11.794,11.794,0,0,0,4.065-1.641l-.331-1.087s-4.357-.615-4.466-.549-2.757,2.261-2.757,2.261" transform="translate(-375.893 -552.838)" fill="#f7a491"/>
        <path id="Trazado_139422" data-name="Trazado 139422" d="M416.822,602.842s6.47,5.922,9.392,4.911,4.129-4.467-3-9.524c-6.378-4.526-6.395,4.613-6.395,4.613" transform="translate(-389.634 -563.157)" fill="#f8a492"/>
        <path id="Trazado_139414" data-name="Trazado 139414" d="M403.152,601.008c-.961-5.071-7.928-20.853-8.484-23.76-.271-1.414-4.028-1.445-7.608-1.26-3.78.195-7.536.659-7.536.659s-3.347.534-4.82,1.872-1.864,5.038.253,12.063c1.671,5.546,3.742,8.59,4.768,12.63.208,1.355.385,2.691.621,4.253.377,6.04,0,14.019,0,14.019s18.22,3.666,25.035-1.9c0,0-1.24-13.383-2.225-18.579" transform="translate(-371.58 -554.01)" fill="#5858c6"/>
        <path id="Trazado_139423" data-name="Trazado 139423" d="M417.744,590.257s-7.15,5.723-7.567,5.723c-.269,0-10.2-7.087-12.5-12.909a5.1,5.1,0,0,1,4.429-6.808c2.1.009,3.041.535,7.213,3.947s8.42,10.047,8.42,10.047" transform="translate(-381.526 -554.165)" fill="#7473e8"/>
      </g>
      <path id="Trazado_139574" data-name="Trazado 139574" d="M520.659,299.028l2.73,4.355c.441.7,5.713-1.622,11.774-5.2s10.617-7.041,10.175-7.745l-2.729-4.355Z" transform="translate(-628.647 -9452.27)" fill="#a4e5ff"/>
      <path id="Trazado_139589" data-name="Trazado 139589" d="M532.1,311.28l-3.5-5.58-7.942,4.682,2.73,4.355c.364.582,4.028-.906,8.71-3.457" transform="translate(-628.647 -9463.624)" fill="#ff862d"/>
      <path id="Trazado_139581" data-name="Trazado 139581" d="M543.309,305.465c.868-.478,1.768-.991,2.686-1.532,1.368-.806,2.661-1.608,3.835-2.373l-3.478-5.548-6.549,3.861Z" transform="translate(-639.48 -9458.015)" fill="#ff862d"/>
      <path id="Trazado_139575" data-name="Trazado 139575" d="M559.367,295.535c3.788-2.5,6.244-4.566,5.914-5.092l-2.729-4.355-6.649,3.919Z" transform="translate(-648.589 -9452.27)" fill="#ff862d"/>
      <path id="Trazado_139573" data-name="Trazado 139573" d="M542.5,285.805c.442.7-4.114,4.172-10.175,7.745s-11.333,5.9-11.774,5.2,4.115-4.171,10.175-7.745,11.333-5.9,11.774-5.2" transform="translate(-628.57 -9452.033)" fill="#e27023"/>
      <path id="Trazado_139580" data-name="Trazado 139580" d="M544.4,294.573c.192.307-1.793,1.818-4.434,3.375s-4.938,2.571-5.131,2.264,1.793-1.818,4.434-3.375,4.938-2.57,5.13-2.264" transform="translate(-636.663 -9457.15)" fill="#e9faff"/>
      <path id="Trazado_139576" data-name="Trazado 139576" d="M533.75,289.374l-.348.191-1.849,2.6-4.182.986-.425.275,4.343-1.023-10.76,6.343a.184.184,0,0,0,.028.083.2.2,0,0,0,.063.062l10.592-6.244-1.945,2.725.376-.206,1.934-2.735.274-.161,4.314-1.009.426-.28-4.247,1,10.189-6.007a.191.191,0,0,0-.028-.083.2.2,0,0,0-.063-.062l-10.623,6.263Z" transform="translate(-628.573 -9452.12)" fill="#e9faff"/>
      <path id="Trazado_139583" data-name="Trazado 139583" d="M641.955,298.772l-4.947,1.72c-.8.278.492,5.753,2.886,12.228s4.982,11.5,5.782,11.222l4.947-1.72Z" transform="translate(-694.348 -9459.612)" fill="#a4e5ff"/>
      <path id="Trazado_139584" data-name="Trazado 139584" d="M638.753,309.461l6.339-2.2-3.137-8.485-4.947,1.72c-.661.23.107,4.009,1.744,8.969" transform="translate(-694.349 -9459.612)" fill="#7473e8"/>
      <path id="Trazado_139595" data-name="Trazado 139595" d="M641.641,322.07c.309.92.646,1.879,1.008,2.86.541,1.462,1.091,2.85,1.628,4.12l6.3-2.191-2.586-7Z" transform="translate(-697.104 -9471.823)" fill="#7473e8"/>
      <path id="Trazado_139600" data-name="Trazado 139600" d="M648.169,339.779c1.766,4.1,3.36,6.848,3.956,6.64l4.947-1.72-2.626-7.1Z" transform="translate(-700.798 -9482.091)" fill="#7473e8"/>
      <path id="Trazado_139585" data-name="Trazado 139585" d="M657.191,322.164c-.8.278-3.388-4.746-5.782-11.222s-3.686-11.95-2.886-12.228,3.388,4.746,5.782,11.222,3.686,11.95,2.886,12.228" transform="translate(-700.865 -9459.572)" fill="#5858c6"/>
      <path id="Trazado_139592" data-name="Trazado 139592" d="M658.109,324.653c-.349.121-1.477-2.068-2.52-4.89s-1.606-5.207-1.257-5.329,1.476,2.068,2.519,4.89,1.606,5.207,1.258,5.329" transform="translate(-704.227 -9468.678)" fill="#e9faff"/>
      <path id="Trazado_139586" data-name="Trazado 139586" d="M655.641,313.147q-.06-.184-.123-.369l-2.26-2.28-.156-4.171q-.1-.232-.193-.459l.162,4.332-4.249-11.5a.21.21,0,0,0-.089.01.2.2,0,0,0-.076.047l4.183,11.316-2.363-2.395c.04.123.091.276.133.4l2.374,2.385.108.293.155,4.3c.064.152.133.313.2.461l-.156-4.235,4.024,10.885a.214.214,0,0,0,.089-.01.211.211,0,0,0,.076-.048l-4.195-11.349Z" transform="translate(-701.075 -9459.572)" fill="#e9faff"/>
      <path id="Trazado_139594" data-name="Trazado 139594" d="M226.563,212.841l-1.006-2.694-2.881,1.333-1.3-2.546-2.915,1.168-1.475-2.687.775-.4,1.1,2.005,2.938-1.178,1.278,2.508,2.974-1.376,1.335,3.577Z" transform="translate(-431.465 -9389.816)" fill="#7473e8"/>
      <g id="Grupo_95586" data-name="Grupo 95586" transform="translate(9.644 12.345)">
        <path id="Trazado_137299" data-name="Trazado 137299" d="M560.42,109.729l-1.768,6.868,23.171-8.266Z" transform="translate(-753.748 -9233.33)" fill="#f7a677"/>
        <path id="Trazado_137300" data-name="Trazado 137300" d="M585.857,108.332l-15.542,9.307-4.244-5.777Z" transform="translate(-757.782 -9233.33)" fill="#fce1d2"/>
        <path id="Trazado_137301" data-name="Trazado 137301" d="M578.821,102.984l-21.4,1.4L553.131,98.5Z" transform="translate(-750.746 -9227.983)" fill="#fce1d2"/>
        <path id="Trazado_137302" data-name="Trazado 137302" d="M562.037,116.068l-3.386,4.735,5.543-1.8Z" transform="translate(-753.748 -9237.537)" fill="#f26b1d"/>
        <path id="Trazado_137303" data-name="Trazado 137303" d="M570.755,254.377a.247.247,0,0,1-.025-.492c.4-.031.812-.072,1.217-.121a.243.243,0,0,1,.275.215.246.246,0,0,1-.215.274c-.412.05-.829.092-1.239.124h-.013" transform="translate(-760.191 -9312.402)" fill="#ed553b"/>
        <path id="Trazado_137304" data-name="Trazado 137304" d="M523.268,187.45h-.009c-.827-.009-1.665-.054-2.49-.135a.246.246,0,0,1-.221-.269.243.243,0,0,1,.269-.221c.811.079,1.635.124,2.448.132a.247.247,0,0,1,0,.493m-4.917-.483a.223.223,0,0,1-.052,0c-.814-.152-1.631-.342-2.429-.565a.247.247,0,1,1,.132-.475c.784.219,1.588.406,2.388.556a.247.247,0,0,1-.039.489m-4.76-1.328a.247.247,0,0,1-.093-.016c-.776-.292-1.549-.621-2.295-.978a.247.247,0,0,1,.213-.445c.734.351,1.493.674,2.255.961a.247.247,0,0,1-.08.477m-4.456-2.136a.248.248,0,0,1-.132-.035c-.716-.426-1.418-.887-2.085-1.372a.247.247,0,1,1,.29-.4c.655.476,1.344.929,2.047,1.347a.247.247,0,0,1-.12.459m-4-2.907a.244.244,0,0,1-.17-.062,24.5,24.5,0,0,1-1.785-1.749.247.247,0,0,1,.363-.334,23.883,23.883,0,0,0,1.748,1.713.246.246,0,0,1-.157.431m-3.339-3.638a.246.246,0,0,1-.205-.1c-.347-.472-.673-.956-.974-1.446a.234.234,0,0,1-.079-.005c-.356-.082-.712-.174-1.059-.276-.449-.132-.9-.286-1.34-.457a.247.247,0,0,1,.18-.459c.426.167.863.316,1.3.443.217.063.438.124.66.179l-.045-.079a.247.247,0,1,1,.43-.242,20.306,20.306,0,0,0,1.326,2.051.247.247,0,0,1-.192.392m3.714-1.064h0a20.822,20.822,0,0,1-2.5-.089.246.246,0,0,1-.222-.269.243.243,0,0,1,.269-.222,20.4,20.4,0,0,0,2.441.087.247.247,0,0,1,.012.493m2.464-.2a.247.247,0,0,1-.04-.491,23.234,23.234,0,0,0,2.4-.461.247.247,0,1,1,.118.479,23.6,23.6,0,0,1-2.454.471l-.027,0m4.8-1.182a.247.247,0,0,1-.09-.479c.3-.109.611-.226.911-.347.46-.186.913-.386,1.347-.6a.247.247,0,1,1,.214.444c-.443.214-.906.418-1.376.608-.306.124-.619.243-.93.355a.256.256,0,0,1-.077.015m-16.761-.9a.245.245,0,0,1-.13-.033,16.885,16.885,0,0,1-2.069-1.417.247.247,0,1,1,.308-.385,16.453,16.453,0,0,0,2.009,1.376.246.246,0,0,1-.118.459m21.2-1.258a.247.247,0,0,1-.14-.454,16.514,16.514,0,0,0,1.948-1.461.247.247,0,1,1,.325.371,17.063,17.063,0,0,1-2.007,1.5.249.249,0,0,1-.127.039m-17.828.3a.247.247,0,0,1-.235-.155,17.3,17.3,0,0,1-.762-2.389.247.247,0,0,1,.48-.115,16.758,16.758,0,0,0,.74,2.321.246.246,0,0,1-.222.338m-7.225-2.119a.246.246,0,0,1-.187-.078,16.873,16.873,0,0,1-1.566-1.96.247.247,0,0,1,.408-.278,16.27,16.27,0,0,0,1.519,1.9.246.246,0,0,1-.174.414m28.74-1.446a.247.247,0,0,1-.2-.4,12,12,0,0,0,.924-1.334c.135-.226.263-.461.38-.7a.247.247,0,1,1,.442.218c-.123.25-.257.5-.4.734a12.482,12.482,0,0,1-.962,1.389.245.245,0,0,1-.187.093m-22.652-1.229a.247.247,0,0,1-.252-.228c-.02-.263-.034-.53-.041-.795a15.154,15.154,0,0,1,.053-1.717.242.242,0,0,1,.267-.224.247.247,0,0,1,.224.267,14.708,14.708,0,0,0-.051,1.661c.006.256.02.515.04.769a.246.246,0,0,1-.227.265h-.013m-8.86-1.4a.247.247,0,0,1-.23-.141,15.534,15.534,0,0,1-.891-2.348.246.246,0,1,1,.474-.136,15.074,15.074,0,0,0,.862,2.272.247.247,0,0,1-.216.353m33.674-1.776a.222.222,0,0,1-.062-.006.246.246,0,0,1-.185-.3,9.931,9.931,0,0,0,.256-2.395.247.247,0,0,1,.24-.251h0a.247.247,0,0,1,.251.242,10.432,10.432,0,0,1-.268,2.514.247.247,0,0,1-.234.191m-24.393-1.733a.257.257,0,0,1-.064-.007.247.247,0,0,1-.182-.3,18.093,18.093,0,0,1,.748-2.392.247.247,0,1,1,.459.18,17.648,17.648,0,0,0-.728,2.327.246.246,0,0,1-.233.189m-10.64-1.224a.246.246,0,0,1-.251-.217l-.005-.049c-.031-.28-.051-.6-.06-.959-.012-.471,0-.979.024-1.508a.247.247,0,0,1,.492.026c-.027.516-.035,1.011-.023,1.469.009.343.028.652.057.918l.005.045a.247.247,0,0,1-.216.274h-.023m34.917-1.933a.247.247,0,0,1-.242-.174,7.426,7.426,0,0,0-.958-2.011l-.091-.13a.246.246,0,0,1,.4-.286q.049.069.1.14a7.914,7.914,0,0,1,1.022,2.143.247.247,0,0,1-.164.308.258.258,0,0,1-.066.011m-22.454-1.423a.246.246,0,0,1-.217-.374,12.392,12.392,0,0,1,1.5-2.021.247.247,0,1,1,.362.334,11.929,11.929,0,0,0-1.444,1.941.245.245,0,0,1-.205.12m-12.243-1.579a.248.248,0,0,1-.25-.285c.126-.811.292-1.634.494-2.448a.247.247,0,1,1,.479.119c-.2.8-.362,1.607-.485,2.4a.248.248,0,0,1-.237.209m31.9-.985a.243.243,0,0,1-.159-.053,11.793,11.793,0,0,0-2.05-1.284.246.246,0,1,1,.22-.441,12.252,12.252,0,0,1,2.135,1.338.246.246,0,0,1-.146.44m-16.309-1.021a.247.247,0,0,1-.143-.452,10,10,0,0,1,1.111-.637c.37-.181.755-.347,1.145-.494a.247.247,0,0,1,.173.462c-.375.141-.746.3-1.1.475a9.468,9.468,0,0,0-1.055.605.248.248,0,0,1-.13.041m11.924-1.212a.235.235,0,0,1-.081-.011,16.119,16.119,0,0,0-2.37-.555.247.247,0,0,1,.076-.488,16.662,16.662,0,0,1,2.443.573.247.247,0,0,1-.068.482m-7.332-.538a.247.247,0,0,1-.049-.49,14.845,14.845,0,0,1,2.5-.218.247.247,0,0,1,.247.246.253.253,0,0,1-.246.247,14.421,14.421,0,0,0-2.42.21.251.251,0,0,1-.036,0m-18.993-1.043a.26.26,0,0,1-.086-.013.247.247,0,0,1-.153-.313c.268-.782.574-1.563.909-2.323a.247.247,0,1,1,.451.2c-.33.747-.63,1.515-.893,2.284a.248.248,0,0,1-.227.167m1.993-4.523a.244.244,0,0,1-.124-.03.247.247,0,0,1-.1-.335c.4-.726.828-1.445,1.284-2.137a.247.247,0,1,1,.412.271c-.449.681-.874,1.388-1.263,2.1a.245.245,0,0,1-.21.128m2.718-4.126a.246.246,0,0,1-.2-.4c.508-.649,1.05-1.288,1.612-1.9a.247.247,0,1,1,.363.334c-.553.6-1.087,1.232-1.586,1.87a.247.247,0,0,1-.188.094m3.338-3.641a.246.246,0,0,1-.175-.426c.6-.56,1.229-1.11,1.877-1.635a.247.247,0,0,1,.311.383c-.639.517-1.261,1.06-1.85,1.612a.247.247,0,0,1-.162.067m3.835-3.114a.247.247,0,0,1-.149-.448c.666-.47,1.365-.929,2.077-1.367a.247.247,0,1,1,.259.42c-.7.433-1.394.887-2.051,1.351a.25.25,0,0,1-.136.045M505.531,134a.247.247,0,0,1-.123-.464c.715-.384,1.462-.76,2.219-1.116a.247.247,0,1,1,.21.446c-.75.353-1.489.724-2.2,1.1a.24.24,0,0,1-.11.029m4.47-2.1a.247.247,0,0,1-.1-.475c.753-.309,1.533-.609,2.318-.89a.247.247,0,1,1,.166.464c-.778.279-1.551.575-2.3.882a.245.245,0,0,1-.087.019" transform="translate(-715.175 -9245.393)" fill="#ed553b"/>
        <path id="Trazado_137305" data-name="Trazado 137305" d="M546.56,128.839a.247.247,0,0,1-.079-.482q.584-.181,1.186-.355a.247.247,0,0,1,.137.474q-.6.172-1.177.353a.265.265,0,0,1-.067.011" transform="translate(-747.036 -9244.02)" fill="#ed553b"/>
        <path id="Trazado_137335" data-name="Trazado 137335" d="M485.9,272.956s2.879,3.09,4.2,2.8c.61-.134-2.869-2.754-2.869-2.754Z" transform="translate(-714.192 -9322.839)" fill="#f7c8b3"/>
        <path id="Trazado_137336" data-name="Trazado 137336" d="M487.582,273.428s-.252,2.98.689,3.333c.453.17.116-3.3.116-3.3Z" transform="translate(-715.089 -9323.096)" fill="#f7c8b3"/>
        <path id="Trazado_137383" data-name="Trazado 137383" d="M680.51,324.911h-70.44a8.386,8.386,0,0,1-8.386-8.386V163.347a8.386,8.386,0,0,1,8.386-8.386h70.44a8.386,8.386,0,0,1,8.386,8.386V316.526a8.386,8.386,0,0,1-8.386,8.386" transform="translate(-777.146 -9258.684)" fill="#068587"/>
        <path id="Trazado_137384" data-name="Trazado 137384" d="M667.645,324.911h-70.44a8.386,8.386,0,0,1-8.386-8.386V163.347a8.386,8.386,0,0,1,8.386-8.386h70.44a8.386,8.386,0,0,1,8.386,8.386V316.526a8.386,8.386,0,0,1-8.386,8.386" transform="translate(-770.151 -9258.684)" fill="#fff"/>
        <path id="Trazado_137385" data-name="Trazado 137385" d="M672.912,156.819a8.24,8.24,0,0,0-3.9-1.749,7.794,7.794,0,0,0-1.373-.117H597.2a8.384,8.384,0,0,0-8.382,8.386v55.426l0,39.267,0,58.483A8.381,8.381,0,0,0,597.2,324.9h70.437a8.373,8.373,0,0,0,8.388-8.387l0-153.176a8.374,8.374,0,0,0-3.113-6.52m-1.08,33.251,0,111.853,0,4.7,0,9.749a4.337,4.337,0,0,1-4.336,4.334H597.056a3.994,3.994,0,0,1-3.985-3.346,4.453,4.453,0,0,1-.061-.7V301.923l0-43.694,0-38.027,0-56.716a4.346,4.346,0,0,1,4.337-4.34h70.443a3.021,3.021,0,0,1,.474.031,3.972,3.972,0,0,1,2.391,1.142,4.029,4.029,0,0,1,1.181,2.873Z" transform="translate(-770.149 -9258.679)" fill="#112f41"/>
        <path id="Trazado_137386" data-name="Trazado 137386" d="M676.643,166.5h-23.2a3.914,3.914,0,0,1-3.914-3.914v-2.8a3.913,3.913,0,0,1,3.914-3.913h23.2a3.913,3.913,0,0,1,3.914,3.913v2.8a3.914,3.914,0,0,1-3.914,3.914" transform="translate(-803.159 -9259.184)" fill="#112f41"/>
        <path id="Trazado_137387" data-name="Trazado 137387" d="M785.42,250.512a.838.838,0,0,1-.839-.839V226.4a.839.839,0,1,1,1.677,0v23.27a.838.838,0,0,1-.839.839" transform="translate(-876.589 -9297.072)" fill="#6fc6d2"/>
        <path id="Trazado_137388" data-name="Trazado 137388" d="M676.9,487.361l0,9.75a4.337,4.337,0,0,1-4.336,4.334H602.126a3.993,3.993,0,0,1-3.985-3.346l.005-10.738Z" transform="translate(-775.219 -9439.415)" fill="#31728d"/>
        <path id="Trazado_137389" data-name="Trazado 137389" d="M681.167,500.434a5.059,5.059,0,0,1-7.123-.126,4.986,4.986,0,0,1,.124-7.081,5.059,5.059,0,0,1,7.123.126,4.986,4.986,0,0,1-.124,7.081" transform="translate(-815.719 -9441.841)" fill="#fff"/>
        <path id="Trazado_137390" data-name="Trazado 137390" d="M743.836,502.158h-5.254a1.339,1.339,0,0,1-1.343-1.336v-4.006a1.34,1.34,0,0,1,1.343-1.336h5.254a1.34,1.34,0,0,1,1.343,1.336v4.006a1.34,1.34,0,0,1-1.344,1.336" transform="translate(-850.849 -9443.83)" fill="#fff"/>
        <path id="Trazado_137391" data-name="Trazado 137391" d="M621.214,502.158H615.96a1.339,1.339,0,0,1-1.343-1.336v-4.006a1.34,1.34,0,0,1,1.343-1.336h5.254a1.34,1.34,0,0,1,1.343,1.336v4.006a1.34,1.34,0,0,1-1.344,1.336" transform="translate(-784.177 -9443.83)" fill="#fff"/>
        <path id="Trazado_137392" data-name="Trazado 137392" d="M662.562,439.455h-45.38a1.3,1.3,0,0,1-1.3-1.267L615.62,422.9a1.245,1.245,0,0,1,1.253-1.267h45.38a1.3,1.3,0,0,1,1.3,1.267l.266,15.288a1.245,1.245,0,0,1-1.252,1.267" transform="translate(-784.722 -9403.678)" fill="#31728d"/>
        <path id="Trazado_137393" data-name="Trazado 137393" d="M743.782,435.66a4.536,4.536,0,0,1-4.565,4.618,4.73,4.73,0,0,1-4.726-4.618,4.536,4.536,0,0,1,4.565-4.618,4.73,4.73,0,0,1,4.726,4.618" transform="translate(-849.354 -9408.793)" fill="#f26b1d"/>
        <path id="Trazado_137394" data-name="Trazado 137394" d="M744.177,438.093a2.531,2.531,0,0,1-2.547,2.576,2.639,2.639,0,0,1-2.636-2.576,2.53,2.53,0,0,1,2.547-2.576,2.639,2.639,0,0,1,2.636,2.576" transform="translate(-851.802 -9411.227)" fill="#fff"/>
        <path id="Trazado_137395" data-name="Trazado 137395" d="M662.623,432.248H624.1a.973.973,0,0,1-.972-.95.933.933,0,0,1,.939-.95H662.59a.973.973,0,0,1,.972.95.933.933,0,0,1-.939.95" transform="translate(-788.803 -9408.416)" fill="#fff"/>
        <path id="Trazado_137396" data-name="Trazado 137396" d="M662.765,440.422H624.24a.973.973,0,0,1-.972-.95.933.933,0,0,1,.939-.95h38.525a.973.973,0,0,1,.972.95.934.934,0,0,1-.94.95" transform="translate(-788.881 -9412.86)" fill="#fff"/>
        <path id="Trazado_137397" data-name="Trazado 137397" d="M650.772,448.6h-26.39a.973.973,0,0,1-.972-.95.933.933,0,0,1,.94-.95h26.39a.973.973,0,0,1,.972.95.933.933,0,0,1-.939.95" transform="translate(-788.958 -9417.305)" fill="#fff"/>
        <path id="Trazado_137398" data-name="Trazado 137398" d="M675.824,398.691H615.6a2.227,2.227,0,0,1-2.233-2.22V392.53a2.228,2.228,0,0,1,2.234-2.221h60.219a2.226,2.226,0,0,1,2.233,2.221v3.941a2.228,2.228,0,0,1-2.234,2.22" transform="translate(-783.5 -9386.646)" fill="#31728d"/>
        <path id="Trazado_137399" data-name="Trazado 137399" d="M675,294.128H616.513a2.746,2.746,0,0,1-2.738-2.738V225.511a2.746,2.746,0,0,1,2.738-2.738H675a2.746,2.746,0,0,1,2.738,2.738V291.39A2.746,2.746,0,0,1,675,294.128" transform="translate(-783.719 -9295.554)" fill="#a9dde4"/>
        <path id="Trazado_137400" data-name="Trazado 137400" d="M681.5,294.9h-1.96a1.825,1.825,0,0,1-1.825-1.825v-59.6a1.825,1.825,0,0,1,1.825-1.825h1.96a1.825,1.825,0,0,1,1.825,1.825v59.6A1.825,1.825,0,0,1,681.5,294.9" transform="translate(-818.485 -9300.385)" fill="#31728d"/>
        <g id="Grupo_94686" data-name="Grupo 94686" transform="translate(-222.189 -9067.123)" clip-path="url(#clip-path)">
          <rect id="Rectángulo_40933" data-name="Rectángulo 40933" width="94.906" height="102.613" transform="translate(-26.793 43.641) rotate(-58.452)" fill="url(#linear-gradient)"/>
        </g>
        <g id="Grupo_94690" data-name="Grupo 94690" transform="translate(-216.571 -9067.123)" opacity="0.2">
          <g id="Grupo_94689" data-name="Grupo 94689">
            <g id="Grupo_94688" data-name="Grupo 94688" clip-path="url(#clip-path-2)">
              <path id="Trazado_137402" data-name="Trazado 137402" d="M572.538,235.172H511.586v60.093h15.333a49.5,49.5,0,0,1-.256-5.02c0-25.077,19.028-46.5,45.875-55.073" transform="translate(-511.586 -235.172)" fill="#f4f9f8"/>
            </g>
          </g>
        </g>
        <path id="Trazado_137403" data-name="Trazado 137403" d="M542.619,290.9H529.353a1.709,1.709,0,0,1-1.709-1.709V281.57a1.709,1.709,0,0,1,1.709-1.709h13.266a1.709,1.709,0,0,1,1.709,1.709v7.624a1.709,1.709,0,0,1-1.709,1.709" transform="translate(-736.888 -9326.594)" fill="#f7d085"/>
        <path id="Trazado_137404" data-name="Trazado 137404" d="M679.974,252.2a5.261,5.261,0,0,0,0,8.193Z" transform="translate(-818.647 -9311.555)" fill="#f4f9f8"/>
        <path id="Trazado_137405" data-name="Trazado 137405" d="M682.162,341.646a5.2,5.2,0,0,0,0,2.257Z" transform="translate(-820.835 -9360.188)" fill="#f2b134"/>
        <path id="Trazado_137406" data-name="Trazado 137406" d="M528.275,315.625a4.075,4.075,0,0,1,.162-1.27,1.585,1.585,0,0,1,.483-.743,1.233,1.233,0,0,1,.807-.261,1.314,1.314,0,0,1,.628.145,1.193,1.193,0,0,1,.446.416,2.228,2.228,0,0,1,.277.662,4.412,4.412,0,0,1,.1,1.052,4.074,4.074,0,0,1-.161,1.265,1.583,1.583,0,0,1-.481.745,1.234,1.234,0,0,1-.809.262,1.22,1.22,0,0,1-1.012-.462,2.934,2.934,0,0,1-.441-1.81m.562,0a2.79,2.79,0,0,0,.256,1.46.734.734,0,0,0,1.267,0,4.279,4.279,0,0,0,0-2.918.762.762,0,0,0-.64-.362.7.7,0,0,0-.6.32,2.813,2.813,0,0,0-.283,1.5" transform="translate(-737.232 -9344.802)" fill="#f4f9f8"/>
        <path id="Trazado_137407" data-name="Trazado 137407" d="M535.856,315.625a4.075,4.075,0,0,1,.162-1.27,1.586,1.586,0,0,1,.483-.743,1.234,1.234,0,0,1,.807-.261,1.314,1.314,0,0,1,.628.145,1.194,1.194,0,0,1,.446.416,2.213,2.213,0,0,1,.276.662,4.383,4.383,0,0,1,.1,1.052,4.074,4.074,0,0,1-.161,1.265,1.58,1.58,0,0,1-.481.745,1.233,1.233,0,0,1-.809.262,1.22,1.22,0,0,1-1.012-.462,2.934,2.934,0,0,1-.441-1.81m.562,0a2.791,2.791,0,0,0,.256,1.46.734.734,0,0,0,1.267,0,4.28,4.28,0,0,0,0-2.918.762.762,0,0,0-.64-.362.7.7,0,0,0-.6.32,2.814,2.814,0,0,0-.283,1.5" transform="translate(-741.353 -9344.802)" fill="#f4f9f8"/>
        <path id="Trazado_137408" data-name="Trazado 137408" d="M543.438,315.625a4.073,4.073,0,0,1,.162-1.27,1.585,1.585,0,0,1,.483-.743,1.233,1.233,0,0,1,.807-.261,1.314,1.314,0,0,1,.628.145,1.2,1.2,0,0,1,.446.416,2.215,2.215,0,0,1,.276.662,4.383,4.383,0,0,1,.1,1.052,4.074,4.074,0,0,1-.161,1.265,1.58,1.58,0,0,1-.481.745,1.233,1.233,0,0,1-.809.262,1.22,1.22,0,0,1-1.012-.462,2.934,2.934,0,0,1-.441-1.81m.562,0a2.792,2.792,0,0,0,.256,1.46.734.734,0,0,0,1.267,0,4.279,4.279,0,0,0,0-2.918.762.762,0,0,0-.64-.362.7.7,0,0,0-.6.32,2.814,2.814,0,0,0-.283,1.5" transform="translate(-745.476 -9344.802)" fill="#f4f9f8"/>
        <path id="Trazado_137409" data-name="Trazado 137409" d="M551.02,315.625a4.073,4.073,0,0,1,.162-1.27,1.588,1.588,0,0,1,.483-.743,1.234,1.234,0,0,1,.807-.261,1.312,1.312,0,0,1,.628.145,1.2,1.2,0,0,1,.446.416,2.217,2.217,0,0,1,.276.662,4.38,4.38,0,0,1,.1,1.052,4.076,4.076,0,0,1-.161,1.265,1.587,1.587,0,0,1-.481.745,1.235,1.235,0,0,1-.81.262,1.22,1.22,0,0,1-1.012-.462,2.934,2.934,0,0,1-.441-1.81m.563,0a2.791,2.791,0,0,0,.256,1.46.733.733,0,0,0,1.267,0,4.274,4.274,0,0,0,0-2.918.761.761,0,0,0-.64-.362.7.7,0,0,0-.6.32,2.815,2.815,0,0,0-.282,1.5" transform="translate(-749.598 -9344.802)" fill="#f4f9f8"/>
        <path id="Trazado_137410" data-name="Trazado 137410" d="M566.177,315.625a4.073,4.073,0,0,1,.162-1.27,1.586,1.586,0,0,1,.483-.743,1.234,1.234,0,0,1,.807-.261,1.314,1.314,0,0,1,.628.145,1.193,1.193,0,0,1,.446.416,2.215,2.215,0,0,1,.276.662,4.383,4.383,0,0,1,.1,1.052,4.074,4.074,0,0,1-.161,1.265,1.584,1.584,0,0,1-.481.745,1.234,1.234,0,0,1-.809.262,1.22,1.22,0,0,1-1.012-.462,2.934,2.934,0,0,1-.441-1.81m.562,0a2.79,2.79,0,0,0,.256,1.46.734.734,0,0,0,1.267,0,4.278,4.278,0,0,0,0-2.918.762.762,0,0,0-.64-.362.7.7,0,0,0-.6.32,2.814,2.814,0,0,0-.283,1.5" transform="translate(-757.839 -9344.802)" fill="#f4f9f8"/>
        <path id="Trazado_137411" data-name="Trazado 137411" d="M573.759,315.625a4.075,4.075,0,0,1,.162-1.27,1.586,1.586,0,0,1,.483-.743,1.234,1.234,0,0,1,.807-.261,1.314,1.314,0,0,1,.628.145,1.193,1.193,0,0,1,.446.416,2.217,2.217,0,0,1,.277.662,4.386,4.386,0,0,1,.1,1.052,4.076,4.076,0,0,1-.161,1.265,1.581,1.581,0,0,1-.481.745,1.356,1.356,0,0,1-1.821-.2,2.934,2.934,0,0,1-.441-1.81m.562,0a2.791,2.791,0,0,0,.256,1.46.733.733,0,0,0,1.267,0,4.272,4.272,0,0,0,0-2.918.761.761,0,0,0-.639-.362.7.7,0,0,0-.6.32,2.813,2.813,0,0,0-.283,1.5" transform="translate(-761.962 -9344.802)" fill="#f4f9f8"/>
        <path id="Trazado_137412" data-name="Trazado 137412" d="M581.34,315.625a4.075,4.075,0,0,1,.162-1.27,1.586,1.586,0,0,1,.483-.743,1.234,1.234,0,0,1,.807-.261,1.314,1.314,0,0,1,.628.145,1.194,1.194,0,0,1,.446.416,2.213,2.213,0,0,1,.276.662,4.383,4.383,0,0,1,.1,1.052,4.078,4.078,0,0,1-.161,1.265,1.583,1.583,0,0,1-.481.745,1.234,1.234,0,0,1-.809.262,1.22,1.22,0,0,1-1.011-.462,2.933,2.933,0,0,1-.441-1.81m.562,0a2.791,2.791,0,0,0,.256,1.46.734.734,0,0,0,1.267,0,4.28,4.28,0,0,0,0-2.918.762.762,0,0,0-.64-.362.7.7,0,0,0-.6.32,2.813,2.813,0,0,0-.283,1.5" transform="translate(-766.084 -9344.802)" fill="#f4f9f8"/>
        <path id="Trazado_137413" data-name="Trazado 137413" d="M588.921,315.625a4.075,4.075,0,0,1,.162-1.27,1.586,1.586,0,0,1,.483-.743,1.234,1.234,0,0,1,.807-.261,1.314,1.314,0,0,1,.628.145,1.193,1.193,0,0,1,.446.416,2.218,2.218,0,0,1,.276.662,4.386,4.386,0,0,1,.1,1.052,4.074,4.074,0,0,1-.161,1.265,1.584,1.584,0,0,1-.481.745,1.234,1.234,0,0,1-.809.262,1.22,1.22,0,0,1-1.012-.462,2.934,2.934,0,0,1-.441-1.81m.562,0a2.79,2.79,0,0,0,.256,1.46.734.734,0,0,0,1.267,0,4.278,4.278,0,0,0,0-2.918.762.762,0,0,0-.64-.362.7.7,0,0,0-.6.32,2.813,2.813,0,0,0-.283,1.5" transform="translate(-770.206 -9344.802)" fill="#f4f9f8"/>
        <path id="Trazado_137414" data-name="Trazado 137414" d="M604.078,315.625a4.073,4.073,0,0,1,.162-1.27,1.585,1.585,0,0,1,.483-.743,1.233,1.233,0,0,1,.807-.261,1.314,1.314,0,0,1,.628.145,1.193,1.193,0,0,1,.446.416,2.215,2.215,0,0,1,.276.662,4.38,4.38,0,0,1,.1,1.052,4.074,4.074,0,0,1-.161,1.265,1.58,1.58,0,0,1-.481.745,1.356,1.356,0,0,1-1.821-.2,2.934,2.934,0,0,1-.441-1.81m.562,0a2.791,2.791,0,0,0,.257,1.46.733.733,0,0,0,1.267,0,4.272,4.272,0,0,0,0-2.918.76.76,0,0,0-.639-.362.7.7,0,0,0-.6.32,2.814,2.814,0,0,0-.283,1.5" transform="translate(-778.447 -9344.802)" fill="#f4f9f8"/>
        <path id="Trazado_137415" data-name="Trazado 137415" d="M611.66,315.625a4.077,4.077,0,0,1,.162-1.27,1.586,1.586,0,0,1,.483-.743,1.234,1.234,0,0,1,.807-.261,1.314,1.314,0,0,1,.628.145,1.2,1.2,0,0,1,.446.416,2.215,2.215,0,0,1,.277.662,4.386,4.386,0,0,1,.1,1.052,4.076,4.076,0,0,1-.161,1.265,1.581,1.581,0,0,1-.481.745,1.233,1.233,0,0,1-.809.262,1.22,1.22,0,0,1-1.012-.462,2.933,2.933,0,0,1-.441-1.81m.562,0a2.791,2.791,0,0,0,.256,1.46.733.733,0,0,0,1.267,0,4.274,4.274,0,0,0,0-2.918.761.761,0,0,0-.64-.362.7.7,0,0,0-.6.32,2.814,2.814,0,0,0-.283,1.5" transform="translate(-782.569 -9344.802)" fill="#f4f9f8"/>
        <path id="Trazado_137416" data-name="Trazado 137416" d="M619.242,315.625a4.077,4.077,0,0,1,.162-1.27,1.586,1.586,0,0,1,.483-.743,1.233,1.233,0,0,1,.807-.261,1.314,1.314,0,0,1,.628.145,1.193,1.193,0,0,1,.446.416,2.212,2.212,0,0,1,.276.662,4.379,4.379,0,0,1,.1,1.052,4.074,4.074,0,0,1-.161,1.265,1.582,1.582,0,0,1-.481.745,1.234,1.234,0,0,1-.809.262,1.22,1.22,0,0,1-1.012-.462,2.933,2.933,0,0,1-.441-1.81m.562,0a2.791,2.791,0,0,0,.256,1.46.733.733,0,0,0,1.267,0,4.273,4.273,0,0,0,0-2.918.761.761,0,0,0-.639-.362.7.7,0,0,0-.6.32,2.815,2.815,0,0,0-.283,1.5" transform="translate(-786.692 -9344.802)" fill="#f4f9f8"/>
        <path id="Trazado_137417" data-name="Trazado 137417" d="M626.824,315.625a4.073,4.073,0,0,1,.162-1.27,1.585,1.585,0,0,1,.483-.743,1.233,1.233,0,0,1,.807-.261,1.314,1.314,0,0,1,.628.145,1.192,1.192,0,0,1,.446.416,2.226,2.226,0,0,1,.277.662,4.409,4.409,0,0,1,.1,1.052,4.078,4.078,0,0,1-.161,1.265,1.582,1.582,0,0,1-.481.745,1.356,1.356,0,0,1-1.821-.2,2.934,2.934,0,0,1-.441-1.81m.562,0a2.792,2.792,0,0,0,.256,1.46.734.734,0,0,0,1.267,0,4.28,4.28,0,0,0,0-2.918.762.762,0,0,0-.64-.362.7.7,0,0,0-.6.32,2.813,2.813,0,0,0-.283,1.5" transform="translate(-790.814 -9344.802)" fill="#f4f9f8"/>
        <path id="Trazado_137418" data-name="Trazado 137418" d="M641.98,315.625a4.073,4.073,0,0,1,.162-1.27,1.585,1.585,0,0,1,.483-.743,1.233,1.233,0,0,1,.807-.261,1.314,1.314,0,0,1,.628.145,1.192,1.192,0,0,1,.446.416,2.225,2.225,0,0,1,.277.662,4.409,4.409,0,0,1,.1,1.052,4.078,4.078,0,0,1-.161,1.265,1.584,1.584,0,0,1-.481.745,1.234,1.234,0,0,1-.809.262,1.22,1.22,0,0,1-1.012-.462,2.934,2.934,0,0,1-.441-1.81m.562,0a2.791,2.791,0,0,0,.256,1.46.734.734,0,0,0,1.267,0,4.28,4.28,0,0,0,0-2.918.762.762,0,0,0-.64-.362.7.7,0,0,0-.6.32,2.814,2.814,0,0,0-.283,1.5" transform="translate(-799.055 -9344.802)" fill="#f4f9f8"/>
        <path id="Trazado_137419" data-name="Trazado 137419" d="M649.563,315.625a4.061,4.061,0,0,1,.163-1.27,1.581,1.581,0,0,1,.483-.743,1.234,1.234,0,0,1,.807-.261,1.314,1.314,0,0,1,.628.145,1.193,1.193,0,0,1,.446.416,2.215,2.215,0,0,1,.276.662,4.383,4.383,0,0,1,.1,1.052,4.076,4.076,0,0,1-.161,1.265,1.584,1.584,0,0,1-.481.745,1.234,1.234,0,0,1-.809.262,1.22,1.22,0,0,1-1.012-.462,2.934,2.934,0,0,1-.441-1.81m.562,0a2.791,2.791,0,0,0,.256,1.46.734.734,0,0,0,1.267,0,4.279,4.279,0,0,0,0-2.918.762.762,0,0,0-.64-.362.7.7,0,0,0-.6.32,2.815,2.815,0,0,0-.283,1.5" transform="translate(-803.178 -9344.802)" fill="#f4f9f8"/>
        <path id="Trazado_137420" data-name="Trazado 137420" d="M657.144,315.625a4.077,4.077,0,0,1,.162-1.27,1.586,1.586,0,0,1,.483-.743,1.234,1.234,0,0,1,.807-.261,1.314,1.314,0,0,1,.628.145,1.193,1.193,0,0,1,.446.416,2.225,2.225,0,0,1,.277.662,4.408,4.408,0,0,1,.1,1.052,4.076,4.076,0,0,1-.161,1.265,1.583,1.583,0,0,1-.481.745,1.234,1.234,0,0,1-.809.262,1.22,1.22,0,0,1-1.012-.462,2.934,2.934,0,0,1-.441-1.81m.562,0a2.79,2.79,0,0,0,.256,1.46.734.734,0,0,0,1.267,0,4.28,4.28,0,0,0,0-2.918.762.762,0,0,0-.64-.362.7.7,0,0,0-.6.32,2.814,2.814,0,0,0-.283,1.5" transform="translate(-807.3 -9344.802)" fill="#f4f9f8"/>
        <path id="Trazado_137421" data-name="Trazado 137421" d="M664.725,315.625a4.075,4.075,0,0,1,.162-1.27,1.585,1.585,0,0,1,.483-.743,1.234,1.234,0,0,1,.807-.261,1.314,1.314,0,0,1,.628.145,1.193,1.193,0,0,1,.446.416,2.23,2.23,0,0,1,.277.662,4.409,4.409,0,0,1,.1,1.052,4.078,4.078,0,0,1-.161,1.265,1.584,1.584,0,0,1-.481.745,1.234,1.234,0,0,1-.809.262,1.22,1.22,0,0,1-1.012-.462,2.934,2.934,0,0,1-.441-1.81m.562,0a2.79,2.79,0,0,0,.256,1.46.734.734,0,0,0,1.267,0,4.28,4.28,0,0,0,0-2.918.762.762,0,0,0-.64-.362.7.7,0,0,0-.6.32,2.814,2.814,0,0,0-.283,1.5" transform="translate(-811.422 -9344.802)" fill="#f4f9f8"/>
        <rect id="Rectángulo_40935" data-name="Rectángulo 40935" width="40.677" height="2.633" transform="translate(-209.097 -9017.294)" fill="#f4f9f8"/>
        <rect id="Rectángulo_40936" data-name="Rectángulo 40936" width="18.738" height="2.633" transform="translate(-177.375 -9023.416)" fill="#f4f9f8"/>
        <path id="Trazado_137422" data-name="Trazado 137422" d="M672.749,333.364a5.266,5.266,0,1,0,0,8.961Z" transform="translate(-811.422 -9355.257)" fill="#ff1d25"/>
        <path id="Trazado_137423" data-name="Trazado 137423" d="M614.92,195.963v-5.551a2.746,2.746,0,0,1,2.738-2.738H675.1a2.746,2.746,0,0,1,2.738,2.738v5.551A2.746,2.746,0,0,1,675.1,198.7H617.658a2.746,2.746,0,0,1-2.738-2.738" transform="translate(-784.342 -9276.471)" fill="#6fc6d2"/>
        <path id="Trazado_137424" data-name="Trazado 137424" d="M621.309,197.447v-1.414a1.825,1.825,0,0,1,1.825-1.825H676.57a1.825,1.825,0,0,1,1.825,1.825v1.414a1.825,1.825,0,0,1-1.825,1.825H623.134a1.825,1.825,0,0,1-1.825-1.825" transform="translate(-787.816 -9280.022)" fill="#31728d"/>
        <path id="Trazado_137425" data-name="Trazado 137425" d="M744.558,38.706h19.1a9.55,9.55,0,0,0-19.1,0" transform="translate(-854.828 -9190.281)" fill="#31728d"/>
        <path id="Trazado_137426" data-name="Trazado 137426" d="M678.423,107V38.706a9.547,9.547,0,0,1,9.55-9.55h-55.5a9.55,9.55,0,0,0-9.55,9.55V107Z" transform="translate(-788.693 -9190.281)" fill="#eaeff5"/>
        <path id="Trazado_137427" data-name="Trazado 137427" d="M659.255,54.874H633.062a.535.535,0,0,1,0-1.069h26.193a.535.535,0,1,1,0,1.069" transform="translate(-793.916 -9203.684)" fill="#6fc6d2"/>
        <path id="Trazado_137428" data-name="Trazado 137428" d="M655.547,60.341H633.063a.535.535,0,1,1,0-1.069h22.484a.535.535,0,1,1,0,1.069" transform="translate(-793.916 -9206.656)" fill="#6fc6d2"/>
        <path id="Trazado_137429" data-name="Trazado 137429" d="M721.469,57.814h-5.437a1.691,1.691,0,0,1-1.691-1.691V55.5a1.691,1.691,0,0,1,1.691-1.691h5.437A1.691,1.691,0,0,1,723.16,55.5v.626a1.692,1.692,0,0,1-1.691,1.691" transform="translate(-838.398 -9203.684)" fill="#6fc6d2"/>
        <path id="Trazado_137430" data-name="Trazado 137430" d="M664.527,37.457H638.334a.535.535,0,0,1,0-1.069h26.193a.535.535,0,1,1,0,1.069" transform="translate(-796.782 -9194.214)" fill="#6fc6d2"/>
        <path id="Trazado_137431" data-name="Trazado 137431" d="M660.819,42.924H638.335a.535.535,0,1,1,0-1.069h22.484a.535.535,0,1,1,0,1.069" transform="translate(-796.782 -9197.186)" fill="#6fc6d2"/>
        <path id="Trazado_137432" data-name="Trazado 137432" d="M726.741,40.4H721.3a1.691,1.691,0,0,1-1.691-1.691v-.626a1.691,1.691,0,0,1,1.691-1.691h5.437a1.691,1.691,0,0,1,1.691,1.691v.626a1.692,1.692,0,0,1-1.691,1.691" transform="translate(-841.264 -9194.214)" fill="#6fc6d2"/>
        <path id="Trazado_137433" data-name="Trazado 137433" d="M659.255,72.291H633.062a.535.535,0,0,1,0-1.069h26.193a.535.535,0,1,1,0,1.069" transform="translate(-793.916 -9213.153)" fill="#6fc6d2"/>
        <path id="Trazado_137434" data-name="Trazado 137434" d="M655.547,77.758H633.063a.535.535,0,1,1,0-1.069h22.484a.535.535,0,1,1,0,1.069" transform="translate(-793.916 -9216.126)" fill="#6fc6d2"/>
        <path id="Trazado_137435" data-name="Trazado 137435" d="M721.469,75.231h-5.437a1.691,1.691,0,0,1-1.691-1.691v-.626a1.691,1.691,0,0,1,1.691-1.691h5.437a1.691,1.691,0,0,1,1.691,1.691v.626a1.692,1.692,0,0,1-1.691,1.691" transform="translate(-838.398 -9213.153)" fill="#6fc6d2"/>
        <path id="Trazado_137436" data-name="Trazado 137436" d="M659.255,89.708H633.062a.535.535,0,0,1,0-1.069h26.193a.535.535,0,1,1,0,1.069" transform="translate(-793.916 -9222.623)" fill="#6fc6d2"/>
        <path id="Trazado_137437" data-name="Trazado 137437" d="M655.547,95.175H633.063a.535.535,0,1,1,0-1.069h22.484a.535.535,0,1,1,0,1.069" transform="translate(-793.916 -9225.596)" fill="#6fc6d2"/>
        <path id="Trazado_137438" data-name="Trazado 137438" d="M721.469,92.648h-5.437a1.691,1.691,0,0,1-1.691-1.691V90.33a1.691,1.691,0,0,1,1.691-1.691h5.437a1.691,1.691,0,0,1,1.691,1.691v.626a1.692,1.692,0,0,1-1.691,1.691" transform="translate(-838.398 -9222.623)" fill="#6fc6d2"/>
        <path id="Trazado_137439" data-name="Trazado 137439" d="M659.255,107.125H633.062a.534.534,0,0,1,0-1.069h26.193a.534.534,0,1,1,0,1.069" transform="translate(-793.916 -9232.093)" fill="#6fc6d2"/>
        <path id="Trazado_137440" data-name="Trazado 137440" d="M655.547,112.592H633.063a.535.535,0,1,1,0-1.069h22.484a.535.535,0,1,1,0,1.069" transform="translate(-793.916 -9235.065)" fill="#6fc6d2"/>
        <path id="Trazado_137441" data-name="Trazado 137441" d="M721.469,110.065h-5.437a1.691,1.691,0,0,1-1.691-1.691v-.626a1.691,1.691,0,0,1,1.691-1.691h5.437a1.691,1.691,0,0,1,1.691,1.691v.626a1.692,1.692,0,0,1-1.691,1.691" transform="translate(-838.398 -9232.093)" fill="#6fc6d2"/>
        <path id="Trazado_137442" data-name="Trazado 137442" d="M659.255,124.541H633.062a.534.534,0,0,1-.534-.534h0a.534.534,0,0,1,.534-.534h26.193a.535.535,0,0,1,.535.534h0a.535.535,0,0,1-.535.534" transform="translate(-793.916 -9241.563)" fill="#6fc6d2"/>
        <path id="Trazado_137443" data-name="Trazado 137443" d="M655.547,130.009H633.063a.535.535,0,1,1,0-1.069h22.484a.535.535,0,1,1,0,1.069" transform="translate(-793.916 -9244.535)" fill="#6fc6d2"/>
        <path id="Trazado_137444" data-name="Trazado 137444" d="M721.469,127.482h-5.437a1.691,1.691,0,0,1-1.691-1.691v-.626a1.691,1.691,0,0,1,1.691-1.691h5.437a1.691,1.691,0,0,1,1.691,1.691v.626a1.692,1.692,0,0,1-1.691,1.691" transform="translate(-838.398 -9241.563)" fill="#6fc6d2"/>
        <path id="Trazado_137445" data-name="Trazado 137445" d="M659.255,141.958H633.062a.535.535,0,0,1,0-1.069h26.193a.535.535,0,1,1,0,1.069" transform="translate(-793.916 -9251.032)" fill="#6fc6d2"/>
        <path id="Trazado_137446" data-name="Trazado 137446" d="M655.547,147.425H633.063a.535.535,0,1,1,0-1.069h22.484a.535.535,0,1,1,0,1.069" transform="translate(-793.916 -9254.005)" fill="#6fc6d2"/>
        <path id="Trazado_137447" data-name="Trazado 137447" d="M721.469,144.9h-5.437a1.691,1.691,0,0,1-1.691-1.691v-.626a1.691,1.691,0,0,1,1.691-1.691h5.437a1.691,1.691,0,0,1,1.691,1.691v.626a1.692,1.692,0,0,1-1.691,1.691" transform="translate(-838.398 -9251.033)" fill="#6fc6d2"/>
        <path id="Trazado_137448" data-name="Trazado 137448" d="M659.255,159.375H633.062a.535.535,0,0,1,0-1.069h26.193a.535.535,0,1,1,0,1.069" transform="translate(-793.916 -9260.502)" fill="#6fc6d2"/>
        <path id="Trazado_137449" data-name="Trazado 137449" d="M655.547,164.842H633.063a.535.535,0,1,1,0-1.069h22.484a.535.535,0,1,1,0,1.069" transform="translate(-793.916 -9263.475)" fill="#6fc6d2"/>
        <path id="Trazado_137450" data-name="Trazado 137450" d="M721.469,162.315h-5.437a1.691,1.691,0,0,1-1.691-1.691V160a1.691,1.691,0,0,1,1.691-1.691h5.437A1.691,1.691,0,0,1,723.16,160v.626a1.691,1.691,0,0,1-1.691,1.691" transform="translate(-838.398 -9260.503)" fill="#6fc6d2"/>
        <path id="Trazado_137451" data-name="Trazado 137451" d="M659.255,176.792H633.062a.535.535,0,0,1,0-1.069h26.193a.535.535,0,1,1,0,1.069" transform="translate(-793.916 -9269.972)" fill="#6fc6d2"/>
        <path id="Trazado_137452" data-name="Trazado 137452" d="M655.547,182.259H633.063a.535.535,0,1,1,0-1.069h22.484a.535.535,0,1,1,0,1.069" transform="translate(-793.916 -9272.944)" fill="#6fc6d2"/>
        <path id="Trazado_137453" data-name="Trazado 137453" d="M721.469,179.732h-5.437a1.691,1.691,0,0,1-1.691-1.691v-.626a1.691,1.691,0,0,1,1.691-1.691h5.437a1.691,1.691,0,0,1,1.691,1.691v.626a1.692,1.692,0,0,1-1.691,1.691" transform="translate(-838.398 -9269.972)" fill="#6fc6d2"/>
      </g>
    </g>
  </g>
</svg>
