<svg id="Grupo_94842" data-name="Grupo 94842" xmlns="http://www.w3.org/2000/svg" xmlns:xlink="http://www.w3.org/1999/xlink" width="400" height="334.841" viewBox="0 0 400 334.841">
  <defs>
    <clipPath id="clip-path">
      <rect id="Rectángulo_41082" data-name="Rectángulo 41082" width="400" height="334.841" fill="none"/>
    </clipPath>
  </defs>
  <g id="Grupo_94841" data-name="Grupo 94841" clip-path="url(#clip-path)">
    <path id="Trazado_137588" data-name="Trazado 137588" d="M348.612,350.317l-43.425,32.846a3.181,3.181,0,0,1-4.372-.524L244.45,312.554a2.961,2.961,0,0,1,.541-4.24l43.426-32.846a3.181,3.181,0,0,1,4.372.524l56.364,70.085a2.961,2.961,0,0,1-.541,4.24" transform="translate(-137.948 -159.114)" fill="#e9faff"/>
    <path id="Trazado_137589" data-name="Trazado 137589" d="M306.052,428.158a3.181,3.181,0,0,1-4.372-.524l-56.363-70.085a2.949,2.949,0,0,1-.123-3.554l-.2.152a2.96,2.96,0,0,0-.541,4.24l56.363,70.085a3.18,3.18,0,0,0,4.372.524l43.425-32.846a3.042,3.042,0,0,0,.663-.686Z" transform="translate(-137.949 -204.948)" fill="#a4e5ff"/>
    <path id="Trazado_137590" data-name="Trazado 137590" d="M277.095,373.489a2.812,2.812,0,0,1,.917-2.565c1.09-.886,2.79-.4,3.895.88,1.278,1.48,1.767,4.063.424,7.745-3.973.639-6.51-.28-7.789-1.76-1.1-1.278-1.3-2.986-.212-3.872a3.037,3.037,0,0,1,2.765-.427" transform="translate(-154.819 -214.488)" fill="#ff862d"/>
    <path id="Trazado_137591" data-name="Trazado 137591" d="M255.318,360.239l.713.532.666-1.486.02-.016,4.568,5.638.87-.663-5.227-6.452-.768.585Z" transform="translate(-144.471 -207.146)" fill="#ff862d"/>
    <path id="Trazado_137592" data-name="Trazado 137592" d="M266.5,349.8c-1.351,1.029-1.348,2.954.4,5.118,1.75,2.119,3.587,2.629,4.887,1.639,1.474-1.123,1.332-2.974-.445-5.167-1.665-2.055-3.444-2.657-4.846-1.589m4.8,6.042c-.819.624-2.123.077-3.482-1.6-1.424-1.757-1.606-3.127-.818-3.727.931-.709,2.2.013,3.482,1.6,1.335,1.648,1.739,3.025.818,3.727" transform="translate(-150.25 -202.217)" fill="#ff862d"/>
    <path id="Trazado_137593" data-name="Trazado 137593" d="M369.016,349.182l-49.07,24.247a3.162,3.162,0,0,1-4.19-1.32l-41.607-79.194a2.978,2.978,0,0,1,1.362-4.063L324.58,264.6a3.162,3.162,0,0,1,4.19,1.32l41.607,79.194a2.978,2.978,0,0,1-1.361,4.064" transform="translate(-154.933 -153.003)" fill="#fccaa7"/>
    <path id="Trazado_137594" data-name="Trazado 137594" d="M320.959,406.4a3.161,3.161,0,0,1-4.19-1.32L275.162,325.89a2.956,2.956,0,0,1,.576-3.512l-.228.113a2.978,2.978,0,0,0-1.362,4.064l41.607,79.194a3.162,3.162,0,0,0,4.19,1.32l49.069-24.247a3.1,3.1,0,0,0,.785-.551Z" transform="translate(-154.933 -186.643)" fill="#a4e5ff"/>
    <path id="Trazado_137595" data-name="Trazado 137595" d="M396.406,342.39l-52.347,16.591a3.137,3.137,0,0,1-3.929-1.933l-28.47-84.484a3,3,0,0,1,1.993-3.81L366,252.163a3.137,3.137,0,0,1,3.929,1.933L398.4,338.58a3,3,0,0,1-1.994,3.81" transform="translate(-176.264 -145.905)" fill="#e9faff"/>
    <path id="Trazado_137596" data-name="Trazado 137596" d="M345.166,381.391a3.137,3.137,0,0,1-3.929-1.933l-28.47-84.484a2.972,2.972,0,0,1,1.129-3.383l-.244.077a3,3,0,0,0-1.993,3.81l28.47,84.484a3.137,3.137,0,0,0,3.929,1.933L396.406,365.3a3.15,3.15,0,0,0,.864-.427Z" transform="translate(-176.264 -168.818)" fill="#a4e5ff"/>
    <path id="Trazado_137597" data-name="Trazado 137597" d="M433.442,349.062l-54.294,8.943a3.107,3.107,0,0,1-3.593-2.473l-15.346-87.626a3.031,3.031,0,0,1,2.55-3.484l54.294-8.943a3.106,3.106,0,0,1,3.593,2.472l15.346,87.626a3.032,3.032,0,0,1-2.55,3.485" transform="translate(-203.798 -147.887)" fill="#fccaa7"/>
    <path id="Trazado_137598" data-name="Trazado 137598" d="M380.319,369.964a3.107,3.107,0,0,1-3.593-2.473L361.38,279.865a3,3,0,0,1,1.63-3.185l-.252.041a3.032,3.032,0,0,0-2.549,3.485l15.346,87.626a3.107,3.107,0,0,0,3.593,2.473l54.294-8.943a3.194,3.194,0,0,0,.919-.3Z" transform="translate(-203.798 -160.186)" fill="#a4e5ff"/>
    <path id="Trazado_137599" data-name="Trazado 137599" d="M453.37,361.915l-54.659-6.528A3.042,3.042,0,0,1,396,352.019L407.2,263.8a3.1,3.1,0,0,1,3.473-2.629l54.659,6.528a3.041,3.041,0,0,1,2.711,3.367l-11.2,88.215a3.1,3.1,0,0,1-3.472,2.629" transform="translate(-224.062 -151.196)" fill="#e9faff"/>
    <path id="Trazado_137600" data-name="Trazado 137600" d="M399.933,355.385a3.041,3.041,0,0,1-2.711-3.368l11.2-88.214a3.063,3.063,0,0,1,2.5-2.6l-.254-.03A3.1,3.1,0,0,0,407.2,263.8L396,352.018a3.042,3.042,0,0,0,2.711,3.368l54.659,6.528a3.193,3.193,0,0,0,.969-.031Z" transform="translate(-224.061 -151.195)" fill="#a4e5ff"/>
    <path id="Trazado_137601" data-name="Trazado 137601" d="M470.952,370.4a4.825,4.825,0,0,1,4.145-1.75c2.277.286,3.539,2.777,3.182,5.447-.413,3.091-3.041,6.48-9.019,8.961-5.128-3.877-6.778-7.8-6.365-10.895.357-2.671,2.233-4.767,4.51-4.48a4.732,4.732,0,0,1,3.548,2.717" transform="translate(-261.893 -212.858)" fill="#b75742"/>
    <path id="Trazado_137602" data-name="Trazado 137602" d="M438.806,301.518a2.971,2.971,0,0,1,2.467-1.283c1.421.065,2.33,1.541,2.249,3.207-.094,1.929-1.54,4.149-5.1,5.973-3.367-2.142-4.591-4.485-4.5-6.414.081-1.666,1.13-3.052,2.551-2.986a2.95,2.95,0,0,1,2.331,1.5" transform="translate(-245.532 -173.694)" fill="#ff862d"/>
    <path id="Trazado_137603" data-name="Trazado 137603" d="M439.677,282.638l-1.126,2.6-1.167-.089,3.662-8.254,1.363.1,2.294,8.71-1.207-.092-.717-2.74Zm2.938-.636-.657-2.507c-.15-.568-.238-1.082-.328-1.582l-.026,0c-.171.493-.355,1-.566,1.5l-1.056,2.388Z" transform="translate(-247.492 -160.309)" fill="#ff862d"/>
    <path id="Trazado_137604" data-name="Trazado 137604" d="M511.653,454.525a2.991,2.991,0,0,1-2.577,1.062c-1.408-.189-2.176-1.738-1.941-3.391.273-1.912,1.92-4,5.637-5.5,3.155,2.428,4.154,4.869,3.881,6.781-.236,1.652-1.41,2.94-2.818,2.751a2.929,2.929,0,0,1-2.182-1.7" transform="translate(-286.936 -258.616)" fill="#b75742"/>
    <path id="Trazado_137605" data-name="Trazado 137605" d="M512.767,473.707l1.363-2.489,1.155.192-4.416,7.9-1.347-.223-1.473-8.876,1.193.2.459,2.791Zm-2.985.376.422,2.554c.1.579.136,1.1.179,1.605l.026,0c.216-.476.447-.963.7-1.446l1.274-2.286Z" transform="translate(-287.477 -272.231)" fill="#b75742"/>
    <path id="Trazado_137606" data-name="Trazado 137606" d="M382.411,310.673a2.945,2.945,0,0,1,2.3-1.549c1.419-.093,2.5,1.272,2.612,2.936.134,1.926-1.04,4.293-4.363,6.5-3.6-1.754-5.09-3.946-5.224-5.873-.115-1.664.763-3.157,2.182-3.25a2.976,2.976,0,0,1,2.493,1.235" transform="translate(-213.734 -178.967)" fill="#5858c6"/>
    <path id="Trazado_137607" data-name="Trazado 137607" d="M380.495,284.351l1.132-.04.152,4.1h.039c.222-.336.445-.647.656-.933l2.562-3.285,1.4-.049-3.041,3.718,3.6,4.776-1.34.047-3.042-4.076-.8.963.12,3.242-1.132.04Z" transform="translate(-215.302 -164.507)" fill="#5858c6"/>
    <path id="Trazado_137608" data-name="Trazado 137608" d="M340.728,318.265a2.887,2.887,0,0,1,1.851-2.037c1.355-.419,2.737.657,3.26,2.246.6,1.84.047,4.409-2.635,7.323-3.926-.87-5.914-2.653-6.519-4.492-.523-1.589-.037-3.242,1.317-3.661a3.021,3.021,0,0,1,2.726.621" transform="translate(-190.395 -183.03)" fill="#ff862d"/>
    <path id="Trazado_137609" data-name="Trazado 137609" d="M341.047,301.4c-1.225.023-2.435,0-3.508-.056a1.748,1.748,0,0,0-.549.02,4.04,4.04,0,0,1-4.932-3.114c-.769-2.623.389-4.766,2.667-5.395s4.287.681,5,3.1c.616,2.1.01,3.724-1.254,4.585l.014.048c.9-.025,1.87-.083,2.619-.158Zm-2.464-5.082c-.481-1.639-1.853-3.085-3.643-2.591-1.84.508-2.258,2.408-1.724,4.177.5,1.739,1.945,3.033,3.647,2.563,1.741-.48,2.268-2.28,1.72-4.149" transform="translate(-187.759 -169.461)" fill="#ff862d"/>
    <path id="Trazado_137610" data-name="Trazado 137610" d="M303.791,347.025a2.841,2.841,0,0,1,1.382-2.362c1.238-.679,2.818.1,3.666,1.55.98,1.68.978,4.306-1.032,7.691-4.027-.071-6.349-1.421-7.33-3.1-.847-1.451-.722-3.166.516-3.845a3.038,3.038,0,0,1,2.8.067" transform="translate(-169.716 -199.401)" fill="#5858c6"/>
    <path id="Trazado_137611" data-name="Trazado 137611" d="M297.157,323.465l1-.511,2.729,5.04c1.084,2,.4,3.132-.935,3.813a3.752,3.752,0,0,1-1.168.367l-.28-.87a2.764,2.764,0,0,0,.92-.283c.9-.458,1.217-1.119.419-2.594Z" transform="translate(-168.145 -186.976)" fill="#5858c6"/>
    <rect id="Rectángulo_41060" data-name="Rectángulo 41060" width="47.844" height="3.986" transform="translate(316.496 313.452) rotate(-89.831)" fill="#e9faff"/>
    <path id="Trazado_137612" data-name="Trazado 137612" d="M687.908,598.055l34.413-29.018-70.23,2.069Z" transform="translate(-368.983 -329.448)" fill="#e9faff"/>
    <path id="Trazado_137613" data-name="Trazado 137613" d="M722.925,598.494a35.124,35.124,0,0,1-11.88-1.008c-8.178-2.22-16.336-3.638-24.243-1.576l16.17,12.167a7.035,7.035,0,0,0,8.9-.262Z" transform="translate(-388.624 -344.426)" fill="#ff862d"/>
    <path id="Trazado_137614" data-name="Trazado 137614" d="M725.871,745.74l-36.282-.1,0-1.771a1.764,1.764,0,0,1,1.8-1.733l32.7.09a1.764,1.764,0,0,1,1.786,1.74Z" transform="translate(-390.201 -429.665)" fill="#9bc1f9"/>
    <path id="Trazado_137615" data-name="Trazado 137615" d="M557.821,427.9a251.659,251.659,0,0,0,55.965-61.589l22.977,19.324a290.974,290.974,0,0,1-64.708,71.211L557.821,427.9" transform="translate(-315.641 -212.076)" fill="#5858c6"/>
    <path id="Trazado_137616" data-name="Trazado 137616" d="M622.4,378.768l14.241,12.214c-1.658,2.517-1.685,5.756-.013,7.278a289.108,289.108,0,0,1-54.254,59.706c-1.133-2.116-3.836-2.35-6.072-.581l-9.02-17.96a5.705,5.705,0,0,0,1.651-6.82,253.883,253.883,0,0,0,47.644-52.431c1.671,1.522,4.3.911,5.824-1.405" transform="translate(-320.995 -219.29)" fill="#a4e5ff"/>
    <path id="Trazado_137617" data-name="Trazado 137617" d="M623.88,471.466c-3.265-4.995-2.045-12.8,2.5-17.733s11.152-5.614,14.984-1.235,3,12.682-2.119,18.228-12.1,5.727-15.36.74" transform="translate(-351.977 -260.292)" fill="#7473e8"/>
    <path id="Trazado_137618" data-name="Trazado 137618" d="M633.629,461.034l1.2,1.478a12.679,12.679,0,0,1,2.136-1.82.957.957,0,0,1,1.482.371l.031.071a1.685,1.685,0,0,1-.645,1.977,9.345,9.345,0,0,0-1.95,1.674c-.9,1.025-1.254,2.066-.756,2.7.473.6,1.29.4,2.8-.558,2.172-1.394,3.974-2,5.23-.528,1.138,1.336,1.028,3.577-.483,5.931l1.2,1.473q-.82.935-1.648,1.862l-1.1-1.379a12.092,12.092,0,0,1-1.7,1.5.963.963,0,0,1-1.555-.359,1.784,1.784,0,0,1,.7-1.982,8.642,8.642,0,0,0,1.613-1.432c1.075-1.212,1.062-2.043.706-2.475-.419-.513-1.254-.179-3.045.877-2.476,1.517-3.943,1.481-5.041.042s-.992-3.743.571-6.087l-1.273-1.6q.766-.858,1.525-1.725" transform="translate(-357.66 -266.603)" fill="#3c8f7c"/>
    <path id="Trazado_137619" data-name="Trazado 137619" d="M671.3,426.781q6.239-7.655,12.006-15.836l2.134,1.995Q679.6,421.23,673.27,429l-1.966-2.217" transform="translate(-379.855 -237.919)" fill="#7473e8"/>
    <path id="Trazado_137620" data-name="Trazado 137620" d="M586.989,518.815q7.358-6.078,14.333-12.781l1.654,2.556q-7.066,6.79-14.533,12.96l-1.453-2.735" transform="translate(-332.145 -292.972)" fill="#50bfa5"/>
    <path id="Trazado_137621" data-name="Trazado 137621" d="M559.146,471.388a204.145,204.145,0,0,0,73.81-23.785l14.365,29.2a236.027,236.027,0,0,1-85.341,27.5q-1.417-16.455-2.835-32.912" transform="translate(-316.39 -259.143)" fill="#5858c6"/>
    <path id="Trazado_137622" data-name="Trazado 137622" d="M637.048,460.032l8.819,18.3c-2.435,1.309-3.617,4.123-2.613,6.349A234.343,234.343,0,0,1,571.7,507.742a4.625,4.625,0,0,0-5.413-3.763q-.966-10.261-1.933-20.522a4.6,4.6,0,0,0,3.964-5.071,205.794,205.794,0,0,0,62.835-20.248,4.189,4.189,0,0,0,5.894,1.9" transform="translate(-319.338 -265.241)" fill="#a4e5ff"/>
    <path id="Trazado_137623" data-name="Trazado 137623" d="M626.045,512.08a12.534,12.534,0,0,1,8.646-14.149A11.324,11.324,0,0,1,649,504.886c1.981,5.868-1.757,12.683-8.474,14.784s-13.249-1.487-14.483-7.589" transform="translate(-354.116 -287.958)" fill="#50bfa5"/>
    <path id="Trazado_137624" data-name="Trazado 137624" d="M643.24,502.751l.582,1.934a10.867,10.867,0,0,1,2.628-.444,1.175,1.175,0,0,1,1.239,1.117l0,.079a1.344,1.344,0,0,1-1.3,1.381,7.994,7.994,0,0,0-2.4.416c-1.2.411-1.9,1.132-1.663,1.95.224.776,1.05,1.045,2.787,1.012,2.508-.053,4.395.381,5.03,2.343.576,1.776-.326,3.675-2.566,4.921q.294.967.589,1.933-1.093.376-2.19.743-.264-.9-.528-1.8a10.3,10.3,0,0,1-2.106.4,1.173,1.173,0,0,1-1.311-1.147,1.413,1.413,0,0,1,1.356-1.356,7.332,7.332,0,0,0,2.005-.386c1.427-.482,1.712-1.215,1.537-1.783-.2-.672-1.1-.829-3.132-.866-2.834,0-4.18-.821-4.682-2.666s.419-3.8,2.7-5.01q-.3-1.042-.605-2.084,1.016-.339,2.028-.688" transform="translate(-361.566 -291.071)" fill="#3c8f7c"/>
    <path id="Trazado_137625" data-name="Trazado 137625" d="M686.378,500.743q8.51-3.34,16.771-7.394l1.263,2.887q-8.37,4.108-17.006,7.5l-1.028-2.99" transform="translate(-388.384 -285.628)" fill="#7473e8"/>
    <path id="Trazado_137626" data-name="Trazado 137626" d="M577.9,536.227q8.982-1.364,17.834-3.478.309,1.56.618,3.119-8.967,2.142-18.083,3.526-.184-1.583-.368-3.167" transform="translate(-327.002 -308.438)" fill="#50bfa5"/>
    <path id="Trazado_137627" data-name="Trazado 137627" d="M167.978,329.336l-1.823-2.387a15.072,15.072,0,0,1-3.512,1.691,1.881,1.881,0,0,1-2.316-1.034l-.045-.107a1.791,1.791,0,0,1,1.151-2.4,11,11,0,0,0,3.169-1.549c1.477-1.061,2.065-2.339,1.3-3.345-.729-.954-2.019-.962-4.416-.213-3.463,1.086-6.314,1.188-8.175-1.249-1.688-2.211-1.406-5.1.964-7.617l-1.823-2.387,2.539-1.824,1.688,2.211a13.9,13.9,0,0,1,2.617-1.367,1.882,1.882,0,0,1,2.4,1,1.79,1.79,0,0,1-1.083,2.377,10.02,10.02,0,0,0-2.515,1.322c-1.684,1.21-1.691,2.3-1.154,3.007.633.829,1.943.706,4.76-.072,3.889-1.159,6.188-.67,7.915,1.592,1.708,2.237,1.533,5.319-1.062,7.961l1.957,2.563Z" transform="translate(-86.141 -177.69)" fill="#ff862d"/>
    <path id="Trazado_137628" data-name="Trazado 137628" d="M413.6,789.494h0a1.564,1.564,0,0,0-1.587-1.539H25.625a1.54,1.54,0,1,0,0,3.078h386.39a1.563,1.563,0,0,0,1.587-1.539" transform="translate(-13.602 -456.192)" fill="#271651"/>
    <path id="Trazado_137629" data-name="Trazado 137629" d="M597.271,359.642a12.331,12.331,0,1,1-12.326-11.953,12.144,12.144,0,0,1,12.326,11.953" transform="translate(-324.015 -201.297)" fill="#e9faff"/>
    <path id="Trazado_137630" data-name="Trazado 137630" d="M583.181,364.268a2.948,2.948,0,0,0-.366.873.714.714,0,0,1-.7.533h-7.133a.7.7,0,0,1-.712-.745,11.059,11.059,0,0,1,2.626-6.282.73.73,0,0,1,1.05-.058l5.12,4.829a.675.675,0,0,1,.116.85" transform="translate(-324.947 -207.495)" fill="#7473e8"/>
    <path id="Trazado_137631" data-name="Trazado 137631" d="M575.149,365.682a.349.349,0,0,1-.1-.272,10.706,10.706,0,0,1,2.549-6.1.383.383,0,0,1,.292-.134c.283,0,.042-.052,5.38,4.931a.351.351,0,0,1,.062.443,3.265,3.265,0,0,0-.406.969.378.378,0,0,1-.37.278c-7.367-.042-7.2.1-7.408-.117" transform="translate(-325.39 -207.948)" fill="#7473e8"/>
    <path id="Trazado_137632" data-name="Trazado 137632" d="M583.137,378.8l-4.979,4.966a.729.729,0,0,1-1.047-.024,11.077,11.077,0,0,1-2.842-6.527.7.7,0,0,1,.712-.747h7.14a.709.709,0,0,1,.7.535,2.965,2.965,0,0,0,.414.946.673.673,0,0,1-.093.851" transform="translate(-324.947 -217.96)" fill="#7473e8"/>
    <path id="Trazado_137633" data-name="Trazado 137633" d="M578.088,384.1a.368.368,0,0,1-.278-.122,10.7,10.7,0,0,1-2.759-6.335.368.368,0,0,1,.373-.391h7.139a.37.37,0,0,1,.364.28,3.28,3.28,0,0,0,.458,1.05.353.353,0,0,1-.05.443c-5.17,5.1-4.948,5.076-5.248,5.076" transform="translate(-325.39 -218.414)" fill="#7473e8"/>
    <path id="Trazado_137634" data-name="Trazado 137634" d="M608.706,352.9l-4.978,4.966a.728.728,0,0,1-.877.112,3.153,3.153,0,0,0-.9-.355.7.7,0,0,1-.551-.68v-6.918a.705.705,0,0,1,.768-.691,11.789,11.789,0,0,1,6.478,2.546.68.68,0,0,1,.059,1.019" transform="translate(-340.3 -202.25)" fill="#7473e8"/>
    <path id="Trazado_137635" data-name="Trazado 137635" d="M603.47,358.152a3.5,3.5,0,0,0-1-.394.37.37,0,0,1-.287-.359v-6.917a.369.369,0,0,1,.4-.363,11.421,11.421,0,0,1,6.288,2.472.357.357,0,0,1,.032.535l-4.978,4.965a.381.381,0,0,1-.457.06" transform="translate(-340.743 -202.703)" fill="#7473e8"/>
    <path id="Trazado_137636" data-name="Trazado 137636" d="M590.528,350.029v6.924a.7.7,0,0,1-.552.675,3.15,3.15,0,0,0-.975.4.728.728,0,0,1-.878-.09L583,353.11a.678.678,0,0,1,.024-1.016,11.786,11.786,0,0,1,6.731-2.756.706.706,0,0,1,.77.691" transform="translate(-329.767 -202.25)" fill="#7473e8"/>
    <path id="Trazado_137637" data-name="Trazado 137637" d="M588.8,358.155c-5.262-5.021-5.242-4.8-5.234-5.1a.35.35,0,0,1,.126-.26,11.38,11.38,0,0,1,6.533-2.675h.03a.368.368,0,0,1,.373.363v6.924a.363.363,0,0,1-.288.353,3.5,3.5,0,0,0-1.083.445.378.378,0,0,1-.456-.049" transform="translate(-330.21 -202.704)" fill="#7473e8"/>
    <path id="Trazado_137638" data-name="Trazado 137638" d="M615.212,365.363h-7.139a.71.71,0,0,1-.7-.535,2.944,2.944,0,0,0-.413-.946.674.674,0,0,1,.093-.851l4.979-4.965a.728.728,0,0,1,1.047.024,11.074,11.074,0,0,1,2.842,6.527.7.7,0,0,1-.712.747" transform="translate(-343.385 -207.183)" fill="#7473e8"/>
    <path id="Trazado_137639" data-name="Trazado 137639" d="M608.517,365.486a.37.37,0,0,1-.364-.28,3.275,3.275,0,0,0-.458-1.049.353.353,0,0,1,.05-.443c5.171-5.1,4.948-5.076,5.248-5.076a.369.369,0,0,1,.278.122,10.7,10.7,0,0,1,2.759,6.336.367.367,0,0,1-.373.39Z" transform="translate(-343.829 -207.636)" fill="#7473e8"/>
    <path id="Trazado_137640" data-name="Trazado 137640" d="M616,377.215a11.06,11.06,0,0,1-2.626,6.282.729.729,0,0,1-1.05.058l-5.121-4.828a.675.675,0,0,1-.116-.85,2.949,2.949,0,0,0,.366-.873.714.714,0,0,1,.7-.534h7.133a.7.7,0,0,1,.712.745" transform="translate(-343.46 -217.96)" fill="#7473e8"/>
    <path id="Trazado_137641" data-name="Trazado 137641" d="M613,383.759l-5.12-4.828a.351.351,0,0,1-.062-.443,3.268,3.268,0,0,0,.406-.969.378.378,0,0,1,.37-.278c7.367.042,7.2-.1,7.409.117a.349.349,0,0,1,.1.272,10.706,10.706,0,0,1-2.549,6.1.383.383,0,0,1-.551.032" transform="translate(-343.903 -218.4)" fill="#7473e8"/>
    <path id="Trazado_137642" data-name="Trazado 137642" d="M608.9,387.963a11.78,11.78,0,0,1-6.73,2.756.706.706,0,0,1-.77-.691V383.1a.7.7,0,0,1,.552-.674,3.145,3.145,0,0,0,.975-.4.727.727,0,0,1,.878.09l5.12,4.829a.678.678,0,0,1-.024,1.015" transform="translate(-340.3 -221.116)" fill="#7473e8"/>
    <path id="Trazado_137643" data-name="Trazado 137643" d="M602.185,390.482v-6.924a.363.363,0,0,1,.289-.353c.841-.189,1.025-.5,1.276-.5a.382.382,0,0,1,.263.1c5.262,5.021,5.242,4.8,5.234,5.1a.351.351,0,0,1-.125.26,11.378,11.378,0,0,1-6.533,2.675.369.369,0,0,1-.4-.362" transform="translate(-340.744 -221.57)" fill="#7473e8"/>
    <path id="Trazado_137644" data-name="Trazado 137644" d="M590.833,383.187V390.1a.7.7,0,0,1-.768.691,11.792,11.792,0,0,1-6.478-2.546.68.68,0,0,1-.06-1.019l4.978-4.965a.728.728,0,0,1,.877-.113,3.157,3.157,0,0,0,.9.355.7.7,0,0,1,.551.68" transform="translate(-330.073 -221.193)" fill="#7473e8"/>
    <path id="Trazado_137645" data-name="Trazado 137645" d="M590.534,390.921a11.413,11.413,0,0,1-6.288-2.472.359.359,0,0,1-.137-.263c-.017-.3-.024-.084,5.083-5.237a.381.381,0,0,1,.458-.06,3.481,3.481,0,0,0,1,.394.371.371,0,0,1,.287.359v6.917a.369.369,0,0,1-.4.362" transform="translate(-330.515 -221.647)" fill="#7473e8"/>
    <path id="Trazado_137646" data-name="Trazado 137646" d="M591.846,373.521a7.1,7.1,0,0,1-4.977-1.993,6.7,6.7,0,0,1,0-9.652,7.21,7.21,0,0,1,9.953,0,6.7,6.7,0,0,1,0,9.652,7.1,7.1,0,0,1-4.976,1.993" transform="translate(-330.915 -208.357)" fill="#a4e5ff"/>
    <path id="Trazado_137647" data-name="Trazado 137647" d="M426.83,478.173c-28.277,40.754-86.018,51.07-128.969,23.042s-54.846-83.788-26.569-124.541,86.018-51.07,128.969-23.042,54.846,83.788,26.569,124.541" transform="translate(-144.823 -195.604)" fill="#e27023"/>
    <path id="Trazado_137648" data-name="Trazado 137648" d="M429.734,486.289c-25.716,37.062-78.635,46.178-118.2,20.36s-50.79-76.793-25.074-113.856,78.635-46.178,118.2-20.359,50.79,76.793,25.074,113.856" transform="translate(-154.277 -207.121)" fill="#e9faff"/>
    <path id="Trazado_137649" data-name="Trazado 137649" d="M455.485,527.655c-9.3,13.4-28.041,16.957-41.861,7.938a28.709,28.709,0,0,1-8.186-40.6c9.3-13.4,28.041-16.957,41.861-7.938a28.708,28.708,0,0,1,8.186,40.6" transform="translate(-226.507 -279.099)" fill="#60eac6"/>
    <path id="Trazado_137650" data-name="Trazado 137650" d="M533.912,482.832a32.515,32.515,0,0,1,4.16,6.506l15.535-7.369a53.892,53.892,0,0,0-7.085-9.791Z" transform="translate(-302.112 -273.371)" fill="#e27023"/>
    <path id="Trazado_137651" data-name="Trazado 137651" d="M517.892,464.256a32.868,32.868,0,0,1,5.919,5.127l12.561-10.613a56.236,56.236,0,0,0-9.3-7.751Z" transform="translate(-293.047 -261.12)" fill="#e27023"/>
    <path id="Trazado_137652" data-name="Trazado 137652" d="M544.992,506.138a33.419,33.419,0,0,1,2.156,7.273l17.842-3.384a52.232,52.232,0,0,0-4.36-11.307Z" transform="translate(-308.382 -288.737)" fill="#e27023"/>
    <path id="Trazado_137653" data-name="Trazado 137653" d="M401.351,460.977a37.465,37.465,0,0,1,6.091-4.233L399,440a52.056,52.056,0,0,0-10.638,6.516Z" transform="translate(-219.751 -254.74)" fill="#e27023"/>
    <path id="Trazado_137654" data-name="Trazado 137654" d="M450.935,446.054a36.38,36.38,0,0,1,7.68-.869l1.2-16.873a56.594,56.594,0,0,0-12.371.416Z" transform="translate(-253.183 -247.88)" fill="#60eac6"/>
    <path id="Trazado_137655" data-name="Trazado 137655" d="M476.9,445.636a34.691,34.691,0,0,1,7.753,1.189l5.435-15.362a57.013,57.013,0,0,0-12-2.582Z" transform="translate(-269.851 -248.303)" fill="#e27023"/>
    <path id="Trazado_137656" data-name="Trazado 137656" d="M498.309,451.56a33.6,33.6,0,0,1,7.158,3.289l9.187-13.241a57.329,57.329,0,0,0-10.934-5.343Z" transform="translate(-281.966 -252.578)" fill="#e27023"/>
    <path id="Trazado_137657" data-name="Trazado 137657" d="M494.157,625.344a37.322,37.322,0,0,1-7.183,2.677l3.514,17.429a54.849,54.849,0,0,0,12.056-3.476Z" transform="translate(-275.552 -362.047)" fill="#e27023"/>
    <path id="Trazado_137658" data-name="Trazado 137658" d="M363.89,545.832l-19.059-1.272a50.4,50.4,0,0,0,1.15,12.058l18-3.413a34.5,34.5,0,0,1-.091-7.372" transform="translate(-195.112 -315.277)" fill="#e27023"/>
    <path id="Trazado_137659" data-name="Trazado 137659" d="M567.336,559.986l-19.159-1.279a35.336,35.336,0,0,1-1.74,7.175l18.7,6.223a48.884,48.884,0,0,0,2.195-12.119" transform="translate(-309.199 -323.467)" fill="#e27023"/>
    <path id="Trazado_137660" data-name="Trazado 137660" d="M424.641,450.279a37.352,37.352,0,0,1,7.076-2.7l-3.52-17.456a54.774,54.774,0,0,0-11.951,3.509Z" transform="translate(-235.532 -249.025)" fill="#e27023"/>
    <path id="Trazado_137661" data-name="Trazado 137661" d="M550.65,540.065l19.044,1.271a50.428,50.428,0,0,0-1.221-12.14L550.5,532.6a34.466,34.466,0,0,1,.148,7.461" transform="translate(-311.499 -306.382)" fill="#e27023"/>
    <path id="Trazado_137662" data-name="Trazado 137662" d="M419.053,625.534a33.63,33.63,0,0,1-7.127-3.386l-9.184,13.237a57.361,57.361,0,0,0,10.9,5.432Z" transform="translate(-227.89 -360.197)" fill="#e27023"/>
    <path id="Trazado_137663" data-name="Trazado 137663" d="M471.69,632.582a36.347,36.347,0,0,1-7.759.8l-1.195,16.842a56.628,56.628,0,0,0,12.443-.341Z" transform="translate(-261.837 -366.237)" fill="#e27023"/>
    <path id="Trazado_137664" data-name="Trazado 137664" d="M512.99,613.451a37.449,37.449,0,0,1-6.2,4.266l8.438,16.73a52.089,52.089,0,0,0,10.75-6.537Z" transform="translate(-286.766 -355.161)" fill="#e27023"/>
    <path id="Trazado_137665" data-name="Trazado 137665" d="M528.733,597.776a37.592,37.592,0,0,1-4.921,5.545l13.033,14.507a50.447,50.447,0,0,0,8.516-9.2Z" transform="translate(-296.397 -346.086)" fill="#e27023"/>
    <path id="Trazado_137666" data-name="Trazado 137666" d="M444.556,632.614a34.632,34.632,0,0,1-7.781-1.287l-5.427,15.341a57,57,0,0,0,12.022,2.677Z" transform="translate(-244.076 -365.511)" fill="#60eac6"/>
    <path id="Trazado_137667" data-name="Trazado 137667" d="M540.663,579.234a36.877,36.877,0,0,1-3.442,6.509l16.628,10.851a49.222,49.222,0,0,0,5.581-11.116Z" transform="translate(-303.984 -335.351)" fill="#e27023"/>
    <path id="Trazado_137668" data-name="Trazado 137668" d="M370.032,499.89a36.837,36.837,0,0,1,3.4-6.406L356.8,482.633a49.241,49.241,0,0,0-5.544,11.011Z" transform="translate(-198.76 -279.424)" fill="#e27023"/>
    <path id="Trazado_137669" data-name="Trazado 137669" d="M382.733,477.851a37.616,37.616,0,0,1,4.838-5.468l-13.036-14.511A50.441,50.441,0,0,0,366.1,467Z" transform="translate(-207.159 -265.088)" fill="#e27023"/>
    <path id="Trazado_137670" data-name="Trazado 137670" d="M364.18,525.61a35.384,35.384,0,0,1,1.749-7.067l-18.708-6.224A48.856,48.856,0,0,0,345,524.33Z" transform="translate(-195.219 -296.61)" fill="#e27023"/>
    <path id="Trazado_137671" data-name="Trazado 137671" d="M368.254,576a33.456,33.456,0,0,1-2.063-7.228l-17.865,3.388a52.208,52.208,0,0,0,4.262,11.271Z" transform="translate(-197.099 -329.297)" fill="#e27023"/>
    <path id="Trazado_137672" data-name="Trazado 137672" d="M396.833,612.913A32.809,32.809,0,0,1,391,607.721l-12.571,10.622a56.154,56.154,0,0,0,9.223,7.81Z" transform="translate(-214.13 -351.844)" fill="#e27023"/>
    <path id="Trazado_137673" data-name="Trazado 137673" d="M379.468,595.88a32.543,32.543,0,0,1-4.056-6.517l-15.557,7.379a53.852,53.852,0,0,0,6.986,9.807Z" transform="translate(-203.623 -341.215)" fill="#e27023"/>
    <path id="Trazado_137674" data-name="Trazado 137674" d="M562.956,447.7a53.892,53.892,0,0,1,7.085,9.791l25.252-11.978A82.192,82.192,0,0,0,584.025,429.9Z" transform="translate(-318.546 -248.892)" fill="#271651"/>
    <path id="Trazado_137675" data-name="Trazado 137675" d="M539.047,420.177a56.238,56.238,0,0,1,9.3,7.751l21.07-17.8a85.792,85.792,0,0,0-14.8-12.377Z" transform="translate(-305.017 -230.279)" fill="#ff862d"/>
    <path id="Trazado_137676" data-name="Trazado 137676" d="M510.772,401.018a57.339,57.339,0,0,1,10.934,5.343l15.564-22.431a87.5,87.5,0,0,0-17.43-8.545Z" transform="translate(-289.018 -217.332)" fill="#271651"/>
    <path id="Trazado_137677" data-name="Trazado 137677" d="M440.354,391.156a56.591,56.591,0,0,1,12.371-.416l1.93-27.2a86.328,86.328,0,0,0-19.738.643Z" transform="translate(-246.095 -210.307)" fill="#271651"/>
    <path id="Trazado_137678" data-name="Trazado 137678" d="M479.636,391.486a56.987,56.987,0,0,1,12,2.582l9.069-25.635a86.979,86.979,0,0,0-19.138-4.143Z" transform="translate(-271.4 -210.908)" fill="#ff862d"/>
    <path id="Trazado_137679" data-name="Trazado 137679" d="M399.88,396.549a54.77,54.77,0,0,1,11.951-3.509l-5.438-26.972a83.628,83.628,0,0,0-19.07,5.582Z" transform="translate(-219.165 -211.937)" fill="#ff862d"/>
    <path id="Trazado_137680" data-name="Trazado 137680" d="M307.645,541.944l-28.513-1.9a76.944,76.944,0,0,0,1.851,19.235L308.795,554a50.407,50.407,0,0,1-1.15-12.058" transform="translate(-157.925 -312.66)" fill="#271651"/>
    <path id="Trazado_137681" data-name="Trazado 137681" d="M507.124,664.841a54.862,54.862,0,0,1-12.056,3.476l5.437,26.97a83.681,83.681,0,0,0,19.176-5.547Z" transform="translate(-280.132 -384.914)" fill="#ff862d"/>
    <path id="Trazado_137682" data-name="Trazado 137682" d="M593.118,534.085l28.514,1.9a76.962,76.962,0,0,0-1.924-19.316l-27.81,5.274a50.453,50.453,0,0,1,1.221,12.14" transform="translate(-334.922 -299.13)" fill="#271651"/>
    <path id="Trazado_137683" data-name="Trazado 137683" d="M581.01,482.251a52.277,52.277,0,0,1,4.36,11.307l27.812-5.274a79.712,79.712,0,0,0-6.922-18.01Z" transform="translate(-328.762 -272.268)" fill="#ff862d"/>
    <path id="Trazado_137684" data-name="Trazado 137684" d="M620.227,563.647l-28.513-1.9a48.865,48.865,0,0,1-2.195,12.119l27.206,9.052a74.573,74.573,0,0,0,3.5-19.269" transform="translate(-333.577 -325.225)" fill="#ff862d"/>
    <path id="Trazado_137685" data-name="Trazado 137685" d="M363.736,412.276a52.049,52.049,0,0,1,10.639-6.516l-12.558-24.9a79.442,79.442,0,0,0-16.974,10.384Z" transform="translate(-195.127 -220.502)" fill="#271651"/>
    <path id="Trazado_137686" data-name="Trazado 137686" d="M472.664,673.678a56.628,56.628,0,0,1-12.443.342l-1.93,27.2a86.329,86.329,0,0,0,19.811-.565Z" transform="translate(-259.322 -390.03)" fill="#271651"/>
    <path id="Trazado_137687" data-name="Trazado 137687" d="M431.55,670.44a57,57,0,0,1-12.021-2.677L410.461,693.4a86.976,86.976,0,0,0,19.16,4.242Z" transform="translate(-232.258 -386.606)" fill="#ff862d"/>
    <path id="Trazado_137688" data-name="Trazado 137688" d="M536.977,647.792a52.094,52.094,0,0,1-10.75,6.537l12.557,24.9a79.452,79.452,0,0,0,17.087-10.4Z" transform="translate(-297.763 -375.043)" fill="#271651"/>
    <path id="Trazado_137689" data-name="Trazado 137689" d="M581.1,594.064a49.243,49.243,0,0,1-5.581,11.116l23.912,15.6a75.136,75.136,0,0,0,8.875-17.669Z" transform="translate(-325.656 -343.937)" fill="#271651"/>
    <path id="Trazado_137690" data-name="Trazado 137690" d="M562.347,623.548a50.426,50.426,0,0,1-8.516,9.2l18.894,21.031a76.928,76.928,0,0,0,13.534-14.628Z" transform="translate(-313.383 -361.007)" fill="#ff862d"/>
    <path id="Trazado_137691" data-name="Trazado 137691" d="M393.363,659.017a57.353,57.353,0,0,1-10.9-5.431L366.9,676.015a87.5,87.5,0,0,0,17.4,8.637Z" transform="translate(-207.607 -378.398)" fill="#271651"/>
    <path id="Trazado_137692" data-name="Trazado 137692" d="M307.841,511.883a48.882,48.882,0,0,1,2.216-12.012l-27.205-9.052a74.556,74.556,0,0,0-3.525,19.161Z" transform="translate(-158.056 -284.163)" fill="#ff862d"/>
    <path id="Trazado_137693" data-name="Trazado 137693" d="M315.8,472.187a49.255,49.255,0,0,1,5.544-11.011l-23.912-15.6a75.154,75.154,0,0,0-8.838,17.563Z" transform="translate(-163.301 -257.967)" fill="#271651"/>
    <path id="Trazado_137694" data-name="Trazado 137694" d="M360.187,640.76a56.159,56.159,0,0,1-9.223-7.81l-21.069,17.8a85.669,85.669,0,0,0,14.728,12.44Z" transform="translate(-186.67 -366.45)" fill="#ff862d"/>
    <path id="Trazado_137695" data-name="Trazado 137695" d="M334.939,438.08a50.429,50.429,0,0,1,8.43-9.128L324.474,407.92a76.964,76.964,0,0,0-13.448,14.555Z" transform="translate(-175.993 -236.168)" fill="#ff862d"/>
    <path id="Trazado_137696" data-name="Trazado 137696" d="M316.342,588.093a52.232,52.232,0,0,1-4.263-11.271l-27.81,5.273a79.685,79.685,0,0,0,6.821,17.975Z" transform="translate(-160.852 -333.955)" fill="#ff862d"/>
    <path id="Trazado_137697" data-name="Trazado 137697" d="M333.932,616.7a53.842,53.842,0,0,1-6.986-9.807L301.7,618.866A82.155,82.155,0,0,0,312.862,634.5Z" transform="translate(-170.713 -351.362)" fill="#271651"/>
    <path id="Trazado_137698" data-name="Trazado 137698" d="M464.4,537.848a2.854,2.854,0,0,0-2.852-.147l-3.808-2.485a6.337,6.337,0,0,0-1.472-7.03l2.564-3.7a2.813,2.813,0,0,0,2.638-1.172,2.646,2.646,0,0,0-.755-3.741,2.833,2.833,0,0,0-3.857.732,2.625,2.625,0,0,0-.126,2.811l-2.565,3.7a6.835,6.835,0,0,0-7.269,1.325l-3.769-2.459a2.666,2.666,0,0,0-1.214-2.506,2.833,2.833,0,0,0-3.858.731,2.645,2.645,0,0,0,.755,3.741,2.852,2.852,0,0,0,2.944.1l3.7,2.413a6.336,6.336,0,0,0,1.4,7.2l-2.2,3.164a2.813,2.813,0,0,0-2.638,1.172,2.646,2.646,0,0,0,.754,3.741,2.833,2.833,0,0,0,3.857-.731,2.627,2.627,0,0,0,.126-2.811l2.2-3.164a6.828,6.828,0,0,0,7.4-1.458l3.738,2.439a2.663,2.663,0,0,0,1.2,2.609,2.833,2.833,0,0,0,3.857-.732,2.646,2.646,0,0,0-.754-3.741" transform="translate(-247.606 -300.547)" fill="#ff862d"/>
    <rect id="Rectángulo_41061" data-name="Rectángulo 41061" width="109.268" height="37.098" transform="translate(275.685 294.666)" fill="#7473e8"/>
    <rect id="Rectángulo_41062" data-name="Rectángulo 41062" width="109.268" height="4.772" transform="translate(275.685 300.072)" fill="#a4e5ff"/>
    <rect id="Rectángulo_41063" data-name="Rectángulo 41063" width="109.268" height="4.773" transform="translate(275.685 309.394)" fill="#a4e5ff"/>
    <rect id="Rectángulo_41064" data-name="Rectángulo 41064" width="109.268" height="4.772" transform="translate(275.685 318.716)" fill="#a4e5ff"/>
    <rect id="Rectángulo_41065" data-name="Rectángulo 41065" width="109.268" height="4.772" transform="translate(275.685 326.991)" fill="#a4e5ff"/>
    <rect id="Rectángulo_41066" data-name="Rectángulo 41066" width="22.725" height="37.098" transform="translate(321.551 294.666)" fill="#fccaa7"/>
    <rect id="Rectángulo_41067" data-name="Rectángulo 41067" width="21.744" height="37.098" transform="translate(275.685 294.666)" fill="#5858c6"/>
    <rect id="Rectángulo_41068" data-name="Rectángulo 41068" width="85.28" height="30.101" transform="translate(252.234 301.663)" fill="#7473e8"/>
    <rect id="Rectángulo_41069" data-name="Rectángulo 41069" width="85.28" height="3.872" transform="translate(252.234 306.049)" fill="#a4e5ff"/>
    <rect id="Rectángulo_41070" data-name="Rectángulo 41070" width="85.28" height="3.872" transform="translate(252.234 313.613)" fill="#a4e5ff"/>
    <rect id="Rectángulo_41071" data-name="Rectángulo 41071" width="85.28" height="3.872" transform="translate(252.234 321.177)" fill="#a4e5ff"/>
    <rect id="Rectángulo_41072" data-name="Rectángulo 41072" width="85.28" height="3.872" transform="translate(252.234 327.891)" fill="#a4e5ff"/>
    <rect id="Rectángulo_41073" data-name="Rectángulo 41073" width="17.737" height="30.101" transform="translate(288.031 301.663)" fill="#fccaa7"/>
    <rect id="Rectángulo_41074" data-name="Rectángulo 41074" width="12.879" height="30.101" transform="translate(240.39 301.663)" fill="#5858c6"/>
    <path id="Trazado_137699" data-name="Trazado 137699" d="M694.4,292.117l-1.622-3.719-4.078-.813a.549.549,0,0,1-.259-.962l3.146-2.645-.463-4.013a.57.57,0,0,1,.864-.536l3.566,2.084,3.792-1.667a.566.566,0,0,1,.793.631l-.942,3.933L702,287.391a.552.552,0,0,1-.374.927l-4.147.347-2.057,3.51a.58.58,0,0,1-1.025-.058" transform="translate(-389.439 -161.73)" fill="#7473e8"/>
    <path id="Trazado_137700" data-name="Trazado 137700" d="M839.238,387.061l-3.425-1.87-2,2.974-3.457-1.7-2.277,2.613-2.8-.861-.449,1.375,3.747,1.151,2.157-2.476,3.6,1.766,1.971-2.925,3.1,1.7Z" transform="translate(-466.724 -223.008)" fill="#ff862d"/>
    <path id="Trazado_137701" data-name="Trazado 137701" d="M133.8,389.506l-1.51-2.522-2.51,1.207-1.6-2.421-2.546.866-1.5-1.621-.846.738,2.01,2.169,2.413-.821,1.665,2.517,2.469-1.186,1.368,2.285Z" transform="translate(-69.762 -222.907)" fill="#ff862d"/>
    <path id="Trazado_137702" data-name="Trazado 137702" d="M862.6,506.111l.577,1.044,1.243-.068.561,1.214,1.3-.468.7,1.346,1.253-.287.889,1.189-.464.326-.664-.889-1.322.3L866,508.527l-1.323.476-.619-1.34-1.214.066-.534-.968-.788.205-.148-.537Z" transform="translate(-487.407 -293.016)" fill="#ff862d"/>
    <path id="Trazado_137703" data-name="Trazado 137703" d="M797.669,343.3l1.011,2.629-4.183,2.044.989,4.021-2.872,2.026,1.058,1.41,3.841-2.71-.937-3.81,4.351-2.126-1.52-3.957Z" transform="translate(-448.497 -198.481)" fill="#7473e8"/>
    <path id="Trazado_137704" data-name="Trazado 137704" d="M267.579,157.2a6.9,6.9,0,0,1,.214,9.969,7.43,7.43,0,0,1-10.279.208,6.9,6.9,0,0,1-.214-9.969,7.431,7.431,0,0,1,10.279-.208" transform="translate(-144.447 -89.878)" fill="#a4e5ff"/>
    <path id="Trazado_137705" data-name="Trazado 137705" d="M270.165,165.91l-3.093.922-.971,2.994a.319.319,0,0,1-.559.084l-1.86-2.568-3.236.03a.306.306,0,0,1-.255-.49l1.944-2.509L261.1,161.4a.311.311,0,0,1,.4-.387l3.062,1.017,2.6-1.869a.316.316,0,0,1,.5.251l-.052,3.138,2.637,1.82a.3.3,0,0,1-.09.542" transform="translate(-147.191 -92.69)" fill="#7473e8"/>
    <path id="Trazado_137706" data-name="Trazado 137706" d="M260.737,280.24l1.358,2.189a.349.349,0,0,0,.616-.05l.965-2.377,2.566-.577a.331.331,0,0,0,.142-.583l-2.033-1.625.227-2.545a.344.344,0,0,0-.528-.311l-2.222,1.373-2.425-1a.341.341,0,0,0-.468.391l.66,2.473-1.727,1.929a.332.332,0,0,0,.239.552Z" transform="translate(-145.866 -158.813)" fill="#e9faff"/>
    <path id="Trazado_137707" data-name="Trazado 137707" d="M441.088,211.542l1.13,1.821a.29.29,0,0,0,.512-.042l.8-1.977,2.134-.48a.275.275,0,0,0,.118-.485l-1.691-1.352.189-2.117a.286.286,0,0,0-.439-.258L442,207.8l-2.018-.829a.283.283,0,0,0-.389.325l.549,2.057-1.436,1.6a.276.276,0,0,0,.2.459Z" transform="translate(-248.198 -119.618)" fill="#7473e8"/>
    <path id="Trazado_137708" data-name="Trazado 137708" d="M552.471,48.606l1.13,1.821a.29.29,0,0,0,.512-.042l.8-1.977,2.134-.48a.275.275,0,0,0,.117-.485l-1.691-1.352.189-2.117a.286.286,0,0,0-.439-.258l-1.848,1.142-2.017-.829a.283.283,0,0,0-.389.325l.549,2.057-1.436,1.6a.276.276,0,0,0,.2.459Z" transform="translate(-311.223 -25.285)" fill="#7473e8"/>
    <path id="Trazado_137709" data-name="Trazado 137709" d="M322.374,221.771l1.809,2.914a.465.465,0,0,0,.819-.067l1.285-3.165,3.417-.768a.44.44,0,0,0,.188-.776l-2.707-2.163.3-3.389a.458.458,0,0,0-.7-.413l-2.957,1.828-3.23-1.327a.454.454,0,0,0-.623.521l.879,3.293-2.3,2.569a.442.442,0,0,0,.318.735Z" transform="translate(-180.189 -123.824)" fill="#ff862d"/>
    <path id="Trazado_137710" data-name="Trazado 137710" d="M453.387,67.528l1.809,2.914a.465.465,0,0,0,.819-.067l1.285-3.165,3.417-.768a.44.44,0,0,0,.188-.776L458.2,63.5l.3-3.389a.458.458,0,0,0-.7-.413L454.84,61.53,451.61,60.2a.454.454,0,0,0-.623.521l.879,3.293-2.3,2.569a.442.442,0,0,0,.318.735Z" transform="translate(-254.322 -34.524)" fill="#ff862d"/>
    <path id="Trazado_137711" data-name="Trazado 137711" d="M760.253,262.285l2.256,1.16s4-.563,4.5-1.251.93-2.487,1.478-2.448a1.631,1.631,0,0,1,1.589,1.667c.022.933-1.8,3.317-1.638,3.63a13.341,13.341,0,0,0,2.321,1.4,1.822,1.822,0,0,1,.976,1.661v0a1.018,1.018,0,0,1-.829.963l-.732.144.1.725a1.014,1.014,0,0,1-.865,1.126l-.563.085.1.447a1.013,1.013,0,0,1-.893,1.205l-.488.054,0,.124a1.021,1.021,0,0,1-.941.988l-.482.041-6.007-3.092a4.575,4.575,0,0,1-1.453-1.176l-1.924-1.432a.507.507,0,0,1-.137-.66l2.924-5.149a.539.539,0,0,1,.712-.213" transform="translate(-428.091 -150.382)" fill="#e9faff"/>
    <path id="Trazado_137712" data-name="Trazado 137712" d="M688.118,228.771a2.584,2.584,0,0,1,2.036-.776,1.936,1.936,0,0,1,1.873,2.067c-.069,1.221-1.256,2.607-4.194,3.709-2.8-1.409-3.817-2.913-3.747-4.135a1.953,1.953,0,0,1,2.1-1.855,2.565,2.565,0,0,1,1.935.989" transform="translate(-387.085 -131.874)" fill="#ff862d"/>
    <path id="Trazado_137713" data-name="Trazado 137713" d="M670.513,229.056a26.99,26.99,0,0,0,2.967.473c.3.031.813.171,1.049-.058a.3.3,0,0,0,.05-.421c-.195-.265-.659-.217-.962-.248-.924-.1-1.966-.247-3.009-.459a.359.359,0,1,0-.1.712" transform="translate(-379.225 -132.198)" fill="#ff862d"/>
    <path id="Trazado_137714" data-name="Trazado 137714" d="M705.49,238.336c.441.053.884.1,1.326.144a4.207,4.207,0,0,0,1.332.07.309.309,0,0,0,.077-.591,4.135,4.135,0,0,0-1.312-.205c-.443-.045-.885-.091-1.328-.13a.359.359,0,0,0-.1.712" transform="translate(-399.022 -137.573)" fill="#ff862d"/>
    <path id="Trazado_137715" data-name="Trazado 137715" d="M678.013,241.794a4.629,4.629,0,0,1,1.919-1.342.29.29,0,0,0-.155-.552,3.453,3.453,0,0,0-2.354,1.467c-.281.37.3.8.59.428" transform="translate(-383.275 -138.891)" fill="#ff862d"/>
    <path id="Trazado_137716" data-name="Trazado 137716" d="M689.069,247.8a3.1,3.1,0,0,1,.366-1.266c.131-.242.739-.891.234-1.079-.475-.176-.827.575-.981.892a3.674,3.674,0,0,0-.356,1.36c-.029.461.7.556.737.092" transform="translate(-389.489 -142.095)" fill="#ff862d"/>
    <path id="Trazado_137717" data-name="Trazado 137717" d="M699.177,244.7l.678.6c.225.2.432.475.763.446a.319.319,0,0,0,.274-.347c0-.294-.377-.507-.584-.688l-.682-.593a.387.387,0,0,0-.526.074.365.365,0,0,0,.076.511" transform="translate(-395.541 -141.291)" fill="#ff862d"/>
    <path id="Trazado_137718" data-name="Trazado 137718" d="M685.208,219.525c-.689-2.291-.67-2.3-.838-2.5a.331.331,0,0,0-.575.155c-.032.27-.022.226.712,2.634a.387.387,0,0,0,.5.2.374.374,0,0,0,.2-.484" transform="translate(-386.917 -125.582)" fill="#ff862d"/>
    <path id="Trazado_137719" data-name="Trazado 137719" d="M695.431,220.907a5.372,5.372,0,0,0,.445-1.091c.1-.352.3-.88-.012-1.166a.287.287,0,0,0-.286-.034c-.338.173-.328.668-.422.993a6.366,6.366,0,0,1-.407,1.029.357.357,0,0,0,.2.465.381.381,0,0,0,.48-.2" transform="translate(-393.104 -126.556)" fill="#ff862d"/>
    <path id="Trazado_137720" data-name="Trazado 137720" d="M706.482,225.769a.314.314,0,0,0-.177-.405c-.291-.15-.724.094-1,.213a6.573,6.573,0,0,0-.908.493.356.356,0,0,0-.061.506.389.389,0,0,0,.522.059c1.122-.665,1.411-.471,1.621-.866" transform="translate(-398.503 -130.449)" fill="#ff862d"/>
    <path id="Trazado_137721" data-name="Trazado 137721" d="M155.57,425.863l-6.35,94.489,13.609,58.57h55.341l13-60.962-7.56-92.088-4.241-.009v2.744H160.365v-2.744Z" transform="translate(-84.435 -246.556)" fill="#5858c6"/>
    <rect id="Rectángulo_41075" data-name="Rectángulo 41075" width="64.921" height="12.71" transform="translate(73.846 183.68)" fill="#ff862d"/>
    <rect id="Rectángulo_41076" data-name="Rectángulo 41076" width="56.588" height="13.166" transform="translate(77.946 206.818)" fill="#271651"/>
    <path id="Trazado_137722" data-name="Trazado 137722" d="M170.092,466.435l4.1,10.428H230.78l4.234-10.428Z" transform="translate(-96.246 -270.046)" fill="#e27023"/>
    <path id="Trazado_137723" data-name="Trazado 137723" d="M170.6,522.472l-6.855,40.67h69.223l-5.78-40.67Z" transform="translate(-92.654 -302.489)" fill="#7473e8"/>
    <path id="Trazado_137724" data-name="Trazado 137724" d="M236.731,562.474H201.378a2.874,2.874,0,0,1-2.915-3.08l2.568-29.064a2.893,2.893,0,0,1,2.916-2.6h30.429a2.892,2.892,0,0,1,2.917,2.616l2.355,29.064a2.875,2.875,0,0,1-2.917,3.06" transform="translate(-112.293 -305.536)" fill="#fccaa7"/>
    <rect id="Rectángulo_41077" data-name="Rectángulo 41077" width="71.44" height="3.128" transform="translate(69.948 260.654)" fill="#271651"/>
    <path id="Trazado_137725" data-name="Trazado 137725" d="M230.915,626.5H161.76l-2.117,12.873H233Z" transform="translate(-90.333 -362.714)" fill="#ff862d"/>
    <path id="Trazado_137726" data-name="Trazado 137726" d="M164.113,679.783l-4.469-22.715H233l-4.771,22.715Z" transform="translate(-90.334 -380.414)" fill="#e27023"/>
    <path id="Trazado_137727" data-name="Trazado 137727" d="M178.41,744.014l-5.377-33h61.023l-4.57,33Z" transform="translate(-97.91 -411.647)" fill="#271651"/>
    <path id="Trazado_137728" data-name="Trazado 137728" d="M288.943,679.144h-5.8l1.93-12.71h6.25Z" transform="translate(-160.213 -385.836)" fill="#a4e5ff"/>
    <path id="Trazado_137729" data-name="Trazado 137729" d="M243.423,640.991a1.76,1.76,0,1,1-1.739-1.491,1.629,1.629,0,0,1,1.739,1.491" transform="translate(-135.772 -370.243)" fill="#271651"/>
    <rect id="Rectángulo_41078" data-name="Rectángulo 41078" width="1.715" height="9.484" transform="translate(105.047 261.354)" fill="#a4e5ff"/>
    <path id="Trazado_137730" data-name="Trazado 137730" d="M284.531,640.991a1.76,1.76,0,1,1-1.739-1.491,1.629,1.629,0,0,1,1.739,1.491" transform="translate(-159.033 -370.243)" fill="#271651"/>
    <rect id="Rectángulo_41079" data-name="Rectángulo 41079" width="1.714" height="9.484" transform="translate(122.894 261.354)" fill="#a4e5ff"/>
    <path id="Trazado_137731" data-name="Trazado 137731" d="M203.417,640.991a1.76,1.76,0,1,1-1.739-1.491,1.63,1.63,0,0,1,1.739,1.491" transform="translate(-113.135 -370.243)" fill="#271651"/>
    <rect id="Rectángulo_41080" data-name="Rectángulo 41080" width="1.715" height="9.484" transform="translate(87.678 261.354)" fill="#a4e5ff"/>
    <path id="Trazado_137732" data-name="Trazado 137732" d="M290.252,680.566a.517.517,0,0,1-.084-.007.491.491,0,0,1-.414-.563l1.434-8.277a.5.5,0,0,1,.581-.4.49.49,0,0,1,.413.563l-1.433,8.278a.5.5,0,0,1-.5.408" transform="translate(-163.952 -388.66)" fill="#271651"/>
    <path id="Trazado_137733" data-name="Trazado 137733" d="M209.529,535.166,205.9,564.691h9.353l.66-29.525Z" transform="translate(-116.508 -309.838)" fill="#e9faff"/>
    <path id="Trazado_137734" data-name="Trazado 137734" d="M268.476,535.166l3.628,29.525h-9.354l-.66-29.525Z" transform="translate(-148.303 -309.838)" fill="#e9faff"/>
    <rect id="Rectángulo_41081" data-name="Rectángulo 41081" width="10.166" height="29.525" transform="translate(101.67 225.328)" fill="#e9faff"/>
    <path id="Trazado_137735" data-name="Trazado 137735" d="M212.563,565.6l.762-1.762-1.065-1.608a.263.263,0,0,1,.25-.4l1.964.158,1.247-1.479a.274.274,0,0,1,.473.106l.452,1.86,1.836.694a.259.259,0,0,1,.042.469l-1.685.991-.113,1.908a.272.272,0,0,1-.447.184l-1.493-1.247-1.906.485a.266.266,0,0,1-.318-.356" transform="translate(-120.082 -324.455)" fill="#fccaa7"/>
    <path id="Trazado_137736" data-name="Trazado 137736" d="M239.495,568.525l.462-1.777-1.248-1.377a.25.25,0,0,1,.178-.417l1.886-.123.964-1.576a.263.263,0,0,1,.465.035l.7,1.7,1.844.4a.249.249,0,0,1,.109.439l-1.451,1.175.175,1.825a.26.26,0,0,1-.4.237l-1.6-.975-1.735.726a.257.257,0,0,1-.355-.293" transform="translate(-135.036 -326.029)" fill="#fccaa7"/>
    <path id="Trazado_137737" data-name="Trazado 137737" d="M265.582,567.468l.2-1.988-1.576-1.286a.272.272,0,0,1,.122-.478l2.011-.431.775-1.85a.286.286,0,0,1,.505-.036l1.044,1.722,2.054.142a.273.273,0,0,1,.191.456l-1.365,1.494.495,1.938a.28.28,0,0,1-.388.318l-1.888-.8-1.748,1.056a.282.282,0,0,1-.431-.259" transform="translate(-149.443 -324.947)" fill="#fccaa7"/>
    <path id="Trazado_137738" data-name="Trazado 137738" d="M241.957,608.049a4.723,4.723,0,1,1-4.721-4.579,4.652,4.652,0,0,1,4.721,4.579" transform="translate(-131.568 -349.383)" fill="#e27023"/>
    <path id="Trazado_137739" data-name="Trazado 137739" d="M283.065,608.049a4.723,4.723,0,1,1-4.721-4.579,4.652,4.652,0,0,1,4.721,4.579" transform="translate(-154.828 -349.383)" fill="#e27023"/>
    <path id="Trazado_137740" data-name="Trazado 137740" d="M201.951,608.049a4.723,4.723,0,1,1-4.721-4.579,4.652,4.652,0,0,1,4.721,4.579" transform="translate(-108.93 -349.383)" fill="#e27023"/>
    <path id="Trazado_137741" data-name="Trazado 137741" d="M620.811,224.631l-3.894-9.136a2.632,2.632,0,0,0-3.4-1.368l-3.429,1.375,5.884,13.8,3.428-1.375a2.5,2.5,0,0,0,1.411-3.3" transform="translate(-345.216 -123.859)" fill="#5858c6"/>
    <path id="Trazado_137742" data-name="Trazado 137742" d="M604.434,227.408l-3.894-9.136a2.633,2.633,0,0,0-3.4-1.369l-9.23,3.7a2.5,2.5,0,0,0-1.411,3.3l3.894,9.136a2.633,2.633,0,0,0,3.4,1.369l9.229-3.7a2.5,2.5,0,0,0,1.411-3.3" transform="translate(-331.756 -125.467)" fill="#7473e8"/>
    <path id="Trazado_137743" data-name="Trazado 137743" d="M595.149,229.271a1.189,1.189,0,0,1-.6,1.6,1.252,1.252,0,0,1-1.588-.717,1.189,1.189,0,0,1,.6-1.595,1.252,1.252,0,0,1,1.588.717" transform="translate(-335.463 -132.276)" fill="#271651"/>
    <path id="Trazado_137744" data-name="Trazado 137744" d="M603.449,225.839a1.19,1.19,0,0,1-.6,1.6,1.253,1.253,0,0,1-1.589-.717,1.189,1.189,0,0,1,.6-1.6,1.253,1.253,0,0,1,1.589.717" transform="translate(-340.159 -130.289)" fill="#271651"/>
    <path id="Trazado_137745" data-name="Trazado 137745" d="M611.748,222.409a1.189,1.189,0,0,1-.6,1.6,1.251,1.251,0,0,1-1.588-.717,1.188,1.188,0,0,1,.6-1.595,1.252,1.252,0,0,1,1.588.716" transform="translate(-344.856 -128.303)" fill="#271651"/>
    <path id="Trazado_137746" data-name="Trazado 137746" d="M625.558,227.071c.49-.011,1.038.557,1.226,1.27s-.058,1.3-.547,1.31-1.039-.557-1.226-1.269.058-1.3.547-1.311" transform="translate(-353.624 -131.464)" fill="#271651"/>
    <path id="Trazado_137747" data-name="Trazado 137747" d="M603.9,250.434a1.189,1.189,0,0,1-.6,1.6,1.253,1.253,0,0,1-1.589-.717,1.188,1.188,0,0,1,.6-1.595,1.252,1.252,0,0,1,1.588.717" transform="translate(-340.414 -144.529)" fill="#271651"/>
    <path id="Trazado_137748" data-name="Trazado 137748" d="M612.2,247a1.189,1.189,0,0,1-.6,1.6,1.253,1.253,0,0,1-1.589-.717,1.189,1.189,0,0,1,.6-1.595A1.252,1.252,0,0,1,612.2,247" transform="translate(-345.11 -142.542)" fill="#271651"/>
    <path id="Trazado_137749" data-name="Trazado 137749" d="M620.5,243.572a1.189,1.189,0,0,1-.6,1.6,1.253,1.253,0,0,1-1.589-.717,1.189,1.189,0,0,1,.6-1.6,1.253,1.253,0,0,1,1.588.717" transform="translate(-349.806 -140.556)" fill="#271651"/>
    <path id="Trazado_137750" data-name="Trazado 137750" d="M577.758,164.984l-3.241-1.808-7.677,12.948,3.241,1.807a2.619,2.619,0,0,0,3.515-.92l5.11-8.619a2.456,2.456,0,0,0-.948-3.409" transform="translate(-320.744 -94.472)" fill="#ff862d"/>
    <path id="Trazado_137751" data-name="Trazado 137751" d="M562.636,156.71l-8.658-4.828a2.648,2.648,0,0,0-3.554.93l-5.081,8.57a2.484,2.484,0,0,0,.959,3.447l8.658,4.828a2.647,2.647,0,0,0,3.554-.93l5.081-8.57a2.484,2.484,0,0,0-.959-3.447" transform="translate(-308.384 -87.738)" fill="#fccaa7"/>
    <path id="Trazado_137752" data-name="Trazado 137752" d="M564.242,159.006a1.26,1.26,0,0,1-1.671.511,1.182,1.182,0,0,1-.385-1.657,1.261,1.261,0,0,1,1.671-.512,1.183,1.183,0,0,1,.385,1.658" transform="translate(-318.007 -91.016)" fill="#271651"/>
    <path id="Trazado_137753" data-name="Trazado 137753" d="M572.027,163.483a1.26,1.26,0,0,1-1.671.511,1.182,1.182,0,0,1-.385-1.657,1.26,1.26,0,0,1,1.67-.512,1.182,1.182,0,0,1,.385,1.658" transform="translate(-322.412 -93.608)" fill="#271651"/>
    <path id="Trazado_137754" data-name="Trazado 137754" d="M579.812,167.959a1.261,1.261,0,0,1-1.671.511,1.182,1.182,0,0,1-.384-1.657,1.26,1.26,0,0,1,1.67-.511,1.182,1.182,0,0,1,.385,1.657" transform="translate(-326.817 -96.199)" fill="#271651"/>
    <path id="Trazado_137755" data-name="Trazado 137755" d="M584.575,181.539a1.5,1.5,0,0,1-.288,1.717c-.468.579-1.1.749-1.4.38a1.5,1.5,0,0,1,.288-1.717c.467-.579,1.1-.749,1.4-.38" transform="translate(-329.727 -104.99)" fill="#271651"/>
    <path id="Trazado_137756" data-name="Trazado 137756" d="M552.827,178.859a1.261,1.261,0,0,1-1.671.512,1.183,1.183,0,0,1-.384-1.658,1.26,1.26,0,0,1,1.67-.511,1.182,1.182,0,0,1,.385,1.657" transform="translate(-311.548 -102.51)" fill="#271651"/>
    <path id="Trazado_137757" data-name="Trazado 137757" d="M560.611,183.335a1.26,1.26,0,0,1-1.671.511,1.182,1.182,0,0,1-.385-1.657,1.261,1.261,0,0,1,1.671-.512,1.183,1.183,0,0,1,.385,1.658" transform="translate(-315.952 -105.101)" fill="#271651"/>
    <path id="Trazado_137758" data-name="Trazado 137758" d="M568.4,187.812a1.261,1.261,0,0,1-1.671.511,1.182,1.182,0,0,1-.385-1.657,1.261,1.261,0,0,1,1.671-.512,1.183,1.183,0,0,1,.385,1.658" transform="translate(-320.358 -107.693)" fill="#271651"/>
    <path id="Trazado_137759" data-name="Trazado 137759" d="M140,536.9a22.68,22.68,0,0,1-.836,3.041c-.194.43-1.051,2.086-1.051,2.086l-.4,4.5-3.509-.452s1.188-3.245.786-4.219a9.83,9.83,0,0,1-.493-2.778c.069-1.371,5.5-2.181,5.5-2.181" transform="translate(-75.938 -310.842)" fill="#f7a491"/>
    <path id="Trazado_137760" data-name="Trazado 137760" d="M46.762,542.9s3.558,2.228,4.241,2.831c.359.317,1.84,1.5,1.84,1.5l2.263,3.962,3.018-1.779s-2.454-2.5-2.5-3.552a9.877,9.877,0,0,0-.72-2.732c-.641-1.227-8.145-.229-8.145-.229" transform="translate(-26.46 -314.093)" fill="#f7a491"/>
    <path id="Trazado_137761" data-name="Trazado 137761" d="M100.43,575.14a2.008,2.008,0,0,0-3.3.4,1.5,1.5,0,0,0-1.928.477s-2.047-.592-2.543,2.348a1.019,1.019,0,0,0-1.193,1.012,2.9,2.9,0,0,0,.5,2.005A1.642,1.642,0,0,0,92.68,584s.219,1.585.934,2.062a2.418,2.418,0,0,0,1.689.248,1.091,1.091,0,0,0,1.093.783c.834-.077,1.868-.84,2.8-.5a10.374,10.374,0,0,0,3.358-.019s2.723-1.165,1.908-3.837a1.905,1.905,0,0,0,.179-2.73s.914-2.329-.894-3.7a4.848,4.848,0,0,0-3.318-1.165" transform="translate(-51.746 -332.567)" fill="#271651"/>
    <path id="Trazado_137762" data-name="Trazado 137762" d="M57.017,730.633a28.436,28.436,0,0,1-3.674-.592c-.522-.247-3.168,2.181-2.644,3.4.3.686,1.231.6,1.231.6l.755-.709,4,.8Z" transform="translate(-28.65 -422.652)" fill="#f7a491"/>
    <path id="Trazado_137763" data-name="Trazado 137763" d="M103.889,761.779a26.379,26.379,0,0,1-2.113,2.948c-.453.351.717,3.681,2.087,3.74.773.033,1.085-.818,1.085-.818l-.349-.958,2.448-3.143Z" transform="translate(-57.533 -441.037)" fill="#f7a491"/>
    <path id="Trazado_137764" data-name="Trazado 137764" d="M97.974,768.539a20.376,20.376,0,0,0,1.474,1.633,17.421,17.421,0,0,0,1.532,1.187s.974,1.7,1.24,2.291c.593,1.32,1.258,2.79,1.162,3.529-.031.237-.585.488-1.048.351-1.924-.568-6.842-4.891-7.463-6.052-.716-1.338,3.1-2.94,3.1-2.94" transform="translate(-53.632 -444.951)" fill="#271651"/>
    <path id="Trazado_137765" data-name="Trazado 137765" d="M116.528,672.73c-.179-.48-.35-.925-.515-1.343-2.046.429-4.358.9-6.735,1.388l-.29,8.372c0-.646,1.787,13.354,1.787,13.354s-4.856,9.268-8.016,15a12.723,12.723,0,0,0,4.171,3.294c4.9-5.649,11.172-15.606,11.439-17.325.154-.989.291-16.971-1.841-22.736" transform="translate(-58.146 -388.704)" fill="#e27023"/>
    <path id="Trazado_137766" data-name="Trazado 137766" d="M74.2,677.059c.556,5.8,1.476,14.59,1.644,17.546-3.905.541-13.132,3.207-14.852,3.2a6.471,6.471,0,0,0-.56,4.5c.089.276,18.2.83,22.877-2.036,1.22-.748,1.6-8.764,1.614-17.218l.29-8.372c-3.961.811-7.6,1.607-11.012,2.376" transform="translate(-34.083 -390.612)" fill="#ff862d"/>
    <path id="Trazado_137767" data-name="Trazado 137767" d="M104.73,609.7l-4.445.643s-3.35.05-4.244.058c-.077,0-3.564,16.343-4.412,22.493s-.191,7.239-.191,7.239a42.638,42.638,0,0,0,10.285.905,34.527,34.527,0,0,0,9.665-2.747s-4.177-11.986-4.948-15.676-1.71-12.916-1.71-12.916" transform="translate(-51.602 -352.988)" fill="#e9faff"/>
    <path id="Trazado_137768" data-name="Trazado 137768" d="M125.706,554.8s-.39,15.139-.868,16.071c-.7,1.356-5.667,11.021-5.667,11.021s3.74,15.038,5.312,20.231c.158.523.859,3.9.859,4.231,0,.73-3.308,1.657-3.7,1.6-.352-.049-3.238-14.354-5.081-21.354a19.664,19.664,0,0,0-3.161-6.614l-1.282-1.75,7.6-8.833s1.644-13.978,1.644-14.851c0-.229,3.872-.613,4.349.245" transform="translate(-63.441 -320.9)" fill="#5858c6"/>
    <path id="Trazado_137769" data-name="Trazado 137769" d="M79,579.44l-7.611-11.028s-4.939-11.585-5.061-12.014-4,.061-5.23-.054c-.394-.037,5.171,12.162,5.758,14.2.694,2.4,4.408,11.8,4.408,11.8s2.567,5.628,2.167,9.976c-.665,7.222-1.984,17.63-1.663,17.941,1.993,1.206,8.266,1.163,8.75.414C85.865,602.4,79,579.44,79,579.44" transform="translate(-34.56 -322.028)" fill="#5858c6"/>
    <path id="Trazado_137770" data-name="Trazado 137770" d="M106.293,600.878l.331,2.359s.742,3.4-.212,4.054-4.056-4.151-4.056-4.151l.328-5.977Z" transform="translate(-57.918 -345.731)" fill="#f7a491"/>
    <path id="Trazado_137771" data-name="Trazado 137771" d="M102.867,599.1a6.941,6.941,0,0,0,4,3.778l-.28-2-3.61-3.715Z" transform="translate(-58.207 -345.731)" fill="#f47458"/>
    <path id="Trazado_137772" data-name="Trazado 137772" d="M91.42,585.247c0,.91.539,1.648,1.2,1.648s1.2-.738,1.2-1.648-.539-1.648-1.2-1.648-1.2.738-1.2,1.648" transform="translate(-51.73 -337.878)" fill="#271651"/>
    <path id="Trazado_137773" data-name="Trazado 137773" d="M99.736,577.8c0,.523.656.948,1.464.948s1.464-.425,1.464-.948-.656-.947-1.464-.947-1.464.424-1.464.947" transform="translate(-56.435 -333.97)" fill="#271651"/>
    <path id="Trazado_137774" data-name="Trazado 137774" d="M104,582.014a3.286,3.286,0,0,1,4.294,2.512,22.909,22.909,0,0,1,.266,3.026c.052,2.755-1.432,5.437-2.734,5.437a6,6,0,0,1-5.031-5.695,5.193,5.193,0,0,1,3.205-5.28" transform="translate(-57.035 -336.862)" fill="#f7a491"/>
    <path id="Trazado_137775" data-name="Trazado 137775" d="M100.573,594.009a.949.949,0,1,1-.936-1.1,1.029,1.029,0,0,1,.936,1.1" transform="translate(-55.849 -343.268)" fill="#f7a491"/>
    <path id="Trazado_137776" data-name="Trazado 137776" d="M115.728,577.835c1.345,1.024,1.817,2.579,1.053,3.474s-2.473.791-3.818-.233-1.816-2.579-1.053-3.474,2.473-.791,3.818.233" transform="translate(-63.117 -334.054)" fill="#271651"/>
    <path id="Trazado_137777" data-name="Trazado 137777" d="M109.826,579.877c0,.445-.559.805-1.249.805s-1.249-.36-1.249-.805.559-.805,1.249-.805,1.249.36,1.249.805" transform="translate(-60.731 -335.257)" fill="#271651"/>
    <path id="Trazado_137778" data-name="Trazado 137778" d="M118.861,587.693a1.067,1.067,0,1,1-1.066-1.036,1.051,1.051,0,0,1,1.066,1.036" transform="translate(-66.051 -339.649)" fill="#271651"/>
    <path id="Trazado_137779" data-name="Trazado 137779" d="M48.238,727.742a19.769,19.769,0,0,0-.917,1.974,16.33,16.33,0,0,0-.471,1.835s-1.19,1.567-1.636,2.049a10.764,10.764,0,0,1-2.947,2.574c-.237.074-.909-.12-.9-.621.024-1.933,1.957-8.237,2.788-9.269.959-1.19,4.085,1.458,4.085,1.458" transform="translate(-23.406 -420.309)" fill="#271651"/>
    <path id="Trazado_137780" data-name="Trazado 137780" d="M53.611,546.508a4,4,0,0,0,2.034,1.157,2.774,2.774,0,0,0,2.087-.951Z" transform="translate(-30.336 -316.404)" fill="#f47458"/>
    <path id="Trazado_137781" data-name="Trazado 137781" d="M135.594,541.134l.2.291s2.976.1,4.218-.946Z" transform="translate(-76.725 -312.913)" fill="#f47458"/>
    <path id="Trazado_137782" data-name="Trazado 137782" d="M5.2,466.354a193.174,193.174,0,0,0,72.149-5.038l6.071,29.233A223.366,223.366,0,0,1,0,496.374q2.6-15.01,5.2-30.02" transform="translate(0 -267.082)" fill="#5858c6"/>
    <path id="Trazado_137783" data-name="Trazado 137783" d="M80.46,471.236q1.818,9.143,3.637,18.285c-2.5.634-4.232,2.889-3.851,5.1A221.78,221.78,0,0,1,10.3,499.5a4.2,4.2,0,0,0-3.994-4.55L9.4,476.2a4.348,4.348,0,0,0,4.769-3.66,194.772,194.772,0,0,0,61.422-4.289,3.845,3.845,0,0,0,4.867,2.987" transform="translate(-3.57 -271.096)" fill="#a4e5ff"/>
    <path id="Trazado_137784" data-name="Trazado 137784" d="M66.095,498.895c.325-5.732,5.306-10.373,11.129-10.74s10.862,3.668,11.264,9.354-4.573,10.943-11.124,11.345-11.595-4.238-11.269-9.959" transform="translate(-37.391 -282.608)" fill="#7473e8"/>
    <path id="Trazado_137785" data-name="Trazado 137785" d="M85.864,492.38q.035.928.069,1.856a10.231,10.231,0,0,1,2.474.18,1.064,1.064,0,0,1,.854,1.27l-.015.072a1.272,1.272,0,0,1-1.5.947,7.533,7.533,0,0,0-2.265-.155c-1.181.1-1.979.595-1.959,1.377.02.742.7,1.164,2.274,1.516,2.274.5,3.873,1.305,3.983,3.2.1,1.713-1.16,3.211-3.473,3.832l.076,1.855q-1.075.1-2.149.183-.027-.86-.053-1.72a9.633,9.633,0,0,1-1.992-.108,1.062,1.062,0,0,1-.911-1.312,1.339,1.339,0,0,1,1.542-.914,6.921,6.921,0,0,0,1.9.1c1.4-.117,1.83-.709,1.807-1.255-.026-.646-.794-.981-2.619-1.462-2.555-.624-3.575-1.651-3.593-3.409s1.273-3.3,3.618-3.881l-.055-1.994q1-.08,1.991-.17" transform="translate(-45.443 -285.067)" fill="#a4e5ff"/>
    <path id="Trazado_137786" data-name="Trazado 137786" d="M125.13,504.161q8.459-1.115,16.863-2.922l.458,2.855q-8.514,1.832-17.1,2.963-.111-1.448-.221-2.9" transform="translate(-70.804 -290.196)" fill="#7473e8"/>
    <path id="Trazado_137787" data-name="Trazado 137787" d="M19.909,510.5q8.42.754,16.9.809-.089,1.461-.178,2.922-8.589-.056-17.134-.821.207-1.455.415-2.91" transform="translate(-11.031 -295.558)" fill="#7473e8"/>
    <path id="Trazado_137788" data-name="Trazado 137788" d="M61.746,544.089a2.827,2.827,0,0,0,.911-1.842c.007-.139-.389-1.384.109-1.468.828-.14,1.186,3.581,1.186,3.581a5.832,5.832,0,0,0-2.206-.272" transform="translate(-34.939 -313.086)" fill="#f7a491"/>
    <path id="Trazado_137789" data-name="Trazado 137789" d="M138.593,539.193a18.7,18.7,0,0,0,2.854-3.058c.065-.124.228-1.416.719-1.3.816.194-.2,3-.2,3s-2.358,1.653-3.371,1.357" transform="translate(-78.422 -309.642)" fill="#f7a491"/>
    <path id="Trazado_137790" data-name="Trazado 137790" d="M809.568,659.183a29.427,29.427,0,0,0,3.246,3.914c.1.091.758.3.862.389.923,2.858-.265,5.285-1.539,7.195a21.833,21.833,0,0,0-.606-3.925,31.6,31.6,0,0,0-4.386-4.4c1.411-.775,1.579-1.828,2.423-3.168" transform="translate(-456.72 -381.638)" fill="#f7a491"/>
    <path id="Trazado_137791" data-name="Trazado 137791" d="M819.4,668.593a7.189,7.189,0,0,1,3.01.9c-.013.242-1.133,8.667-2.495,9.409-.818.446-.969-.865-1.269-2.776,1.274-1.91,1.335-7.05.754-7.537" transform="translate(-463.227 -387.086)" fill="#5858c6"/>
    <path id="Trazado_137792" data-name="Trazado 137792" d="M861.577,649.831a39.812,39.812,0,0,0,4.619,2.33c.129.041.815-.046.95-.006,2.08,2.2,2.062,4.892,1.741,7.151a22.307,22.307,0,0,0-2.258-3.3,43.062,43.062,0,0,0-5.834-1.914c.939-1.289.6-2.7.782-4.261" transform="translate(-487.077 -376.224)" fill="#f7a491"/>
    <path id="Trazado_137793" data-name="Trazado 137793" d="M795.549,479.868s-3.3-6.076-3.792-8.252-2.181-13.135-2.039-13.841,2.82-2.4,2.489-3-2.88-.6-3.464-.549a5.358,5.358,0,0,0-2.259.789c-.5.405.565,13.538.883,16.366s5.161,12.09,5.161,12.09Z" transform="translate(-444.954 -262.963)" fill="#f7a491"/>
    <path id="Trazado_137794" data-name="Trazado 137794" d="M837.05,536.016s6.732,10.539,7.907,12.61a87.3,87.3,0,0,0,5.778,7.6c.221.254,4.854.024,4.722.549s-2.261.007-2.3.622,3.663,4.533,3.292,4.69c-.694.3-2.36-2.312-2.657-2.114s1.993,2.566,1.62,3.071-1.957-2.439-2.254-2.4,1.114,2.962.466,2.991c-.352.016-1.19-2.633-1.525-2.4s-.013,2.354-.42,2.335-.027-1.812-.652-2.757-.583-1.941-2.021-3.162-7.015-4.945-9.035-8.233-6.505-10.545-6.505-10.545Z" transform="translate(-471.612 -310.33)" fill="#f7a491"/>
    <path id="Trazado_137795" data-name="Trazado 137795" d="M790.058,573.249l11.69,3.682s-6.43,10.692-7.7,12.823-6.746,7.393-6.753,8.769c-.006.974,5.154,7.435,8.264,11.377a12.568,12.568,0,0,1-3.84,3.65c-5.18-4.8-12.735-12.37-12.874-14.852-.2-3.624,11.214-25.449,11.214-25.449" transform="translate(-440.704 -331.886)" fill="#271651"/>
    <path id="Trazado_137796" data-name="Trazado 137796" d="M873.458,654.7a7.2,7.2,0,0,1,3.109-.436c.093.226,2.75,8.314,1.84,9.552-.547.744-1.254-.379-2.357-1.983.321-2.258-1.945-7.078-2.592-7.133" transform="translate(-494.243 -378.754)" fill="#5858c6"/>
    <path id="Trazado_137797" data-name="Trazado 137797" d="M807.611,576.522c-.149-.7-1.112-2.772-1.609-4.418a8.839,8.839,0,0,1-.222-4.2l8.6-.391.33.625a5.088,5.088,0,0,0,1.474,1.727c1.288.952,3.547,3.041,3.479,5.947-.1,4.057-3.047,18.926-2.066,19.483,1.772,1,9.164,4.52,13.577,6.683a11.91,11.91,0,0,1-1.35,5.165c-3.495-1.309-15.794-6.631-18.081-7.936-1.033-.589-3.879-21.483-4.132-22.68" transform="translate(-455.859 -328.562)" fill="#271651"/>
    <path id="Trazado_137798" data-name="Trazado 137798" d="M831.279,468.681c-.682,1.762.4,3.075,1.147,4.81.5,1.164-.607,3.014-1.863,3.866-3.179,2.157-3.926,2.214-3.7,5.144.554,7.058-8.077,4.05-9.466,3.825s-2.436-.164-3.1-.613c-2-1.353-3.876-5.415-3.523-8.837s4.519-2.246,5.472-3.818-1.927-3.528.527-6.151c7.05-7.535,14.409-2.481,14.672.4a3,3,0,0,1-.172,1.373" transform="translate(-458.752 -268.033)" fill="#ff862d"/>
    <path id="Trazado_137799" data-name="Trazado 137799" d="M798.642,523.109s-2.4-5.573-2.783-6.5c0,0,3.35-2.918,5.351-2.69,0,0,2.591,3.981,4.119,4.124s6.9.367,7.844.915,4.94,6.434,4.94,6.434-3.592,3.518-5.037,3.511c0,0-.982-2.376-1.318-1.943s-1.663,9.665-2.334,10.368c-.621.651-8.146,3.133-10.319,2.677A131.533,131.533,0,0,1,798,525.65a11.058,11.058,0,0,1,.646-2.541" transform="translate(-450.334 -297.53)" fill="#7473e8"/>
    <path id="Trazado_137800" data-name="Trazado 137800" d="M819.63,515.068a21.161,21.161,0,0,0-.854,3.854c-.006,1.114-.914,4.615-3.3,4.385s.024-4.565.363-5.623a40.757,40.757,0,0,0,.746-4.4Z" transform="translate(-460.842 -297.171)" fill="#f7a491"/>
    <path id="Trazado_137801" data-name="Trazado 137801" d="M818.866,514.96c.134-.911.227-1.673.227-1.673l3.048,1.781s-.173.56-.364,1.277a2.828,2.828,0,0,1-2.91-1.385" transform="translate(-463.352 -297.171)" fill="#f47458"/>
    <path id="Trazado_137802" data-name="Trazado 137802" d="M822.916,498.712a3.9,3.9,0,0,1,1.461,2.29c.3,1.5-.611,5.186-3.894,5.768s-4.35-2.522-3.449-4.773,2.639-5.041,5.882-3.285" transform="translate(-462.142 -288.413)" fill="#f7a491"/>
    <path id="Trazado_137803" data-name="Trazado 137803" d="M816.735,503.486c0,.629.3,1.14.672,1.141s.681-.506.684-1.135-.3-1.139-.672-1.141-.681.506-.684,1.135" transform="translate(-462.146 -290.839)" fill="#f7a491"/>
    <path id="Trazado_137804" data-name="Trazado 137804" d="M830.574,511.747c-.432.506-.5,1.148-.148,1.433s.984.107,1.416-.4.5-1.148.148-1.434-.983-.106-1.415.4" transform="translate(-469.766 -295.969)" fill="#f7a491"/>
    <path id="Trazado_137805" data-name="Trazado 137805" d="M793.427,455.467a1.468,1.468,0,0,1,.2.145l2.039-.251a5.687,5.687,0,0,1-3.091.976s.1-.418.853-.869" transform="translate(-448.475 -263.634)" fill="#f47257"/>
    <path id="Trazado_137806" data-name="Trazado 137806" d="M784.171,413.628a12.2,12.2,0,1,1-11.8-12.311,12.088,12.088,0,0,1,11.8,12.311" transform="translate(-429.917 -232.341)" fill="#e9faff"/>
    <path id="Trazado_137807" data-name="Trazado 137807" d="M770.331,417.411a2.96,2.96,0,0,0-.391.859.709.709,0,0,1-.712.51l-7.057-.225a.7.7,0,0,1-.68-.765,11.1,11.1,0,0,1,2.807-6.183.719.719,0,0,1,1.041-.024l4.905,4.978a.677.677,0,0,1,.086.851" transform="translate(-430.884 -238.166)" fill="#ff862d"/>
    <path id="Trazado_137808" data-name="Trazado 137808" d="M762.351,418.554a.35.35,0,0,1-.087-.275,10.748,10.748,0,0,1,2.724-6,.378.378,0,0,1,.293-.124c.28.009.043-.051,5.158,5.087a.351.351,0,0,1,.046.444,3.283,3.283,0,0,0-.434.953.375.375,0,0,1-.375.266c-7.287-.274-7.124-.123-7.326-.351" transform="translate(-431.323 -238.619)" fill="#ff862d"/>
    <path id="Trazado_137809" data-name="Trazado 137809" d="M770.076,431.8l-5.091,4.8a.717.717,0,0,1-1.035-.057,11.076,11.076,0,0,1-2.594-6.6.7.7,0,0,1,.729-.722l7.063.225a.7.7,0,0,1,.67.556,2.969,2.969,0,0,0,.378.956.677.677,0,0,1-.12.846" transform="translate(-430.81 -248.497)" fill="#ff862d"/>
    <path id="Trazado_137810" data-name="Trazado 137810" d="M764.921,436.911a.363.363,0,0,1-.27-.13,10.7,10.7,0,0,1-2.518-6.406.366.366,0,0,1,.382-.378l7.063.225a.365.365,0,0,1,.35.29,3.279,3.279,0,0,0,.419,1.061.356.356,0,0,1-.065.44c-5.285,4.923-5.064,4.906-5.361,4.9" transform="translate(-431.249 -248.949)" fill="#ff862d"/>
    <path id="Trazado_137811" data-name="Trazado 137811" d="M795.907,406.8l-5.09,4.8a.718.718,0,0,1-.871.085,3.084,3.084,0,0,0-.878-.382.7.7,0,0,1-.522-.7l.23-6.9a.7.7,0,0,1,.783-.665,11.6,11.6,0,0,1,6.324,2.744.682.682,0,0,1,.025,1.018" transform="translate(-446.195 -233.339)" fill="#ff862d"/>
    <path id="Trazado_137812" data-name="Trazado 137812" d="M790.569,411.857a3.439,3.439,0,0,0-.975-.424.368.368,0,0,1-.272-.367l.23-6.9a.366.366,0,0,1,.409-.348,11.228,11.228,0,0,1,6.138,2.664.358.358,0,0,1,.014.534l-5.091,4.8a.374.374,0,0,1-.454.046" transform="translate(-446.634 -233.792)" fill="#ff862d"/>
    <path id="Trazado_137813" data-name="Trazado 137813" d="M778.207,403.616l-.231,6.906a.7.7,0,0,1-.568.655,3.1,3.1,0,0,0-.979.369.715.715,0,0,1-.865-.118l-4.905-4.977a.68.68,0,0,1,.059-1.012,11.629,11.629,0,0,1,6.75-2.536.7.7,0,0,1,.739.713" transform="translate(-435.962 -233.263)" fill="#ff862d"/>
    <path id="Trazado_137814" data-name="Trazado 137814" d="M776.245,411.653c-5.039-5.174-5.027-4.949-5.008-5.251a.35.35,0,0,1,.132-.255,11.231,11.231,0,0,1,6.552-2.462h.03a.365.365,0,0,1,.356.374l-.23,6.906a.362.362,0,0,1-.3.343,3.457,3.457,0,0,0-1.086.409.372.372,0,0,1-.45-.063" transform="translate(-436.4 -233.716)" fill="#ff862d"/>
    <path id="Trazado_137815" data-name="Trazado 137815" d="M802.022,419.655l-7.063-.225a.7.7,0,0,1-.67-.556,2.954,2.954,0,0,0-.378-.957.677.677,0,0,1,.12-.846l5.091-4.8a.717.717,0,0,1,1.035.057,11.078,11.078,0,0,1,2.594,6.6.7.7,0,0,1-.729.723" transform="translate(-449.176 -238.578)" fill="#ff862d"/>
    <path id="Trazado_137816" data-name="Trazado 137816" d="M795.409,419.552a.365.365,0,0,1-.351-.291,3.287,3.287,0,0,0-.419-1.061.355.355,0,0,1,.065-.44c5.285-4.923,5.063-4.906,5.361-4.9a.365.365,0,0,1,.271.13,10.7,10.7,0,0,1,2.518,6.407.366.366,0,0,1-.382.378Z" transform="translate(-449.616 -239.029)" fill="#ff862d"/>
    <path id="Trazado_137817" data-name="Trazado 137817" d="M802.595,431.3a11.1,11.1,0,0,1-2.806,6.182.719.719,0,0,1-1.042.024l-4.905-4.977a.678.678,0,0,1-.086-.852,2.949,2.949,0,0,0,.391-.859.71.71,0,0,1,.711-.51l7.057.225a.7.7,0,0,1,.68.766" transform="translate(-449.08 -249.133)" fill="#ff862d"/>
    <path id="Trazado_137818" data-name="Trazado 137818" d="M799.427,437.736l-4.9-4.977a.351.351,0,0,1-.047-.444,3.286,3.286,0,0,0,.434-.953.374.374,0,0,1,.375-.266c7.287.274,7.125.122,7.326.35a.35.35,0,0,1,.087.275,10.746,10.746,0,0,1-2.725,6,.377.377,0,0,1-.546.014" transform="translate(-449.518 -249.586)" fill="#ff862d"/>
    <path id="Trazado_137819" data-name="Trazado 137819" d="M794.945,441.827a11.628,11.628,0,0,1-6.75,2.536.7.7,0,0,1-.739-.714l.23-6.905a.7.7,0,0,1,.569-.655,3.1,3.1,0,0,0,.978-.369.715.715,0,0,1,.865.118l4.9,4.977a.68.68,0,0,1-.058,1.012" transform="translate(-445.579 -252.208)" fill="#ff862d"/>
    <path id="Trazado_137820" data-name="Trazado 137820" d="M788.232,444.113l.231-6.906a.362.362,0,0,1,.3-.343c.838-.163,1.031-.466,1.279-.458a.375.375,0,0,1,.257.112c5.039,5.174,5.026,4.95,5.008,5.251a.348.348,0,0,1-.132.255,11.23,11.23,0,0,1-6.552,2.462.366.366,0,0,1-.387-.374" transform="translate(-446.018 -252.66)" fill="#ff862d"/>
    <path id="Trazado_137821" data-name="Trazado 137821" d="M777.335,436.64l-.23,6.9a.7.7,0,0,1-.783.665A11.6,11.6,0,0,1,770,441.46a.682.682,0,0,1-.025-1.018l5.09-4.8a.717.717,0,0,1,.871-.085,3.083,3.083,0,0,0,.878.382.7.7,0,0,1,.522.7" transform="translate(-435.564 -252.108)" fill="#ff862d"/>
    <path id="Trazado_137822" data-name="Trazado 137822" d="M776.8,444.329a11.227,11.227,0,0,1-6.139-2.664.356.356,0,0,1-.127-.267c-.007-.3-.021-.084,5.2-5.063a.374.374,0,0,1,.454-.045,3.443,3.443,0,0,0,.976.424.369.369,0,0,1,.272.367l-.23,6.9a.366.366,0,0,1-.409.348" transform="translate(-436.002 -252.56)" fill="#ff862d"/>
    <path id="Trazado_137823" data-name="Trazado 137823" d="M778.581,427.085a6.99,6.99,0,0,1-4.857-2.144,6.719,6.719,0,0,1,.321-9.627,7.095,7.095,0,0,1,9.847.314,6.72,6.72,0,0,1-.321,9.627,7.014,7.014,0,0,1-4.99,1.83" transform="translate(-436.747 -239.386)" fill="#e9faff"/>
    <path id="Trazado_137824" data-name="Trazado 137824" d="M793.951,455.355l-.065-.534c.642-.192,1.592-.755,1.951-.85l.419-.779c.542-.53.663-.075.663.567,0,0-.063.677-.35.908,0,0-1.543,1.242-2.086,1.62-.269.187-1.114.691-1.114.691l-.493-.9Z" transform="translate(-448.647 -262.244)" fill="#f7a491"/>
    <path id="Trazado_137825" data-name="Trazado 137825" d="M379.337,613.646a2.916,2.916,0,0,0,.321.756,28.8,28.8,0,0,0,3.074,3.966l1.661-3.631s-.271-1.139-.741-2.769c-1.6.406-3.133.642-4.315,1.678" transform="translate(-214.646 -354.303)" fill="#f8a492"/>
    <path id="Trazado_137826" data-name="Trazado 137826" d="M383.805,591.022s-9.267,3.87-9.567,3.8c-.193-.048-3.8-5.9-3.84-11.413-.018-2.544,2.707-5.6,5.746-5,1.53.3,1.507.717,3.771,3.908s3.89,8.708,3.89,8.708" transform="translate(-209.589 -334.827)" fill="#7473e8"/>
    <path id="Trazado_137827" data-name="Trazado 137827" d="M418.691,773.274s-.22,3.53-.221,3.537a18.823,18.823,0,0,0-.4,1.963c0,1.53,7.493-1.3,5.814-1.978-.152-.061-.948-.526-1-1.046-.077-.8-.273-2.426-.273-2.426Z" transform="translate(-236.564 -447.692)" fill="#f7a491"/>
    <path id="Trazado_137828" data-name="Trazado 137828" d="M423.521,781.519s-1.759.468-2.66.585-2.089-.868-2.727-.6c-.7.293-.674,2.93-.674,2.93s9.435.751,12.087-.026c1.051-.308-2.43-1.8-6.026-2.888" transform="translate(-236.218 -452.429)" fill="#5858c6"/>
    <path id="Trazado_137829" data-name="Trazado 137829" d="M383.383,773.274s-.22,3.53-.221,3.537a18.7,18.7,0,0,0-.4,1.963c0,1.53,7.493-1.3,5.814-1.978-.152-.061-1.184-.872-1.234-1.393-.077-.8-.036-2.08-.036-2.08Z" transform="translate(-216.585 -447.692)" fill="#f7a491"/>
    <path id="Trazado_137830" data-name="Trazado 137830" d="M388.14,781.519s-1.759.468-2.66.585-2.089-.868-2.727-.6c-.7.293-.729,2.93-.729,2.93s9.478.875,12.143-.026c1.035-.35-2.43-1.8-6.026-2.888" transform="translate(-216.167 -452.429)" fill="#5858c6"/>
    <path id="Trazado_137831" data-name="Trazado 137831" d="M389.467,582.493l6.6-8.966c.028-.079.088-.239.18-.485.332-.89,1.024-2.741,1.626-4.583l.007-.02c.189-.644.59-1.767.979-2.853.432-1.208.967-2.706.986-2.962-.016-.044-.048-.122-.089-.226a20.159,20.159,0,0,1-.685-2.691c-.074-.4-.148-1.378.345-1.378.774,0,.405.975.762,1.584a15.038,15.038,0,0,0,.537-2.032l.129-1.906c.025-.144-.132-1.2.41-1.2h.026c.488.035.477,1.153.68,3.044.064-.218.128-.48.177-.721a6.643,6.643,0,0,1,.165-1c-.1-.527-.041-1.358.537-1.28.29.04.266,1.2.266,1.2,0,.159-.02,1.385-.011,1.628.059-.411.291-2.167.745-2.167.376,0,.407.473.4.846,0,.221-.241,2.123-.254,2.344.177-.288.387-1.964.563-1.964.734,0,.469,2.383.2,3a2.672,2.672,0,0,0-.083.332,5.743,5.743,0,0,1-.63,1.773c-.461.765-1.1,1.981-1.194,2.167-.071.38-.292,1.746-.57,3.464-.119.735-.249,1.541-.385,2.376h-.007c-.025.181-.162.755-.684,2.911a25.145,25.145,0,0,1-.821,3.132c-.31.533-7.426,9.9-7.729,10.3l-.179.235Z" transform="translate(-220.378 -321.194)" fill="#f7a491"/>
    <path id="Trazado_137832" data-name="Trazado 137832" d="M415.8,569.034s-.536-1.328-1.489-1.331a1.126,1.126,0,0,1,.989.164,1.8,1.8,0,0,1,.5,1.167" transform="translate(-234.436 -328.647)" fill="#f47458"/>
    <path id="Trazado_137833" data-name="Trazado 137833" d="M384.686,564.416l-.85,5.211s3.237,2.521,5.124,1.989c1.583-.446.5-2.453.5-2.453a12.675,12.675,0,0,1-.584-4.24c.259-1.458-4.188-.507-4.188-.507" transform="translate(-217.192 -326.596)" fill="#f7a491"/>
    <path id="Trazado_137834" data-name="Trazado 137834" d="M386.19,565.993a13.538,13.538,0,0,0,3.664,1,6.714,6.714,0,0,1-.086-2.071c.119-.673-.764-.832-1.749-.809-1.289.107-2.439.3-2.439.3l-.163,1a2.657,2.657,0,0,0,.773.574" transform="translate(-218.087 -326.597)" fill="#fe875e"/>
    <path id="Trazado_137835" data-name="Trazado 137835" d="M376.373,546.71c-.134,0,1.279,5.821,3.467,6.823s5.449.48,6.061-1.088c.677-1.734-1.792-7.673-4.869-8.427s-4.659,2.693-4.659,2.693" transform="translate(-212.964 -314.9)" fill="#f7a491"/>
    <path id="Trazado_137836" data-name="Trazado 137836" d="M375.427,537.479a6.741,6.741,0,0,0-2.819,3.02c-.82.377-1.812,1.193-2.288,3.392-.586,2.7,1.5,4.789,3.7,5.415s2.548,2.044,2.548,2.044l.25-1.525a5.993,5.993,0,0,0-1.229-1.992c-.739-.664.349-1.632.445-2.422.073-.608-.388-1.789-.288-2.786a7,7,0,0,1,2.436-2.248c2.061-.759-.517-4.153-2.759-2.9" transform="translate(-209.487 -311.018)" fill="#271651"/>
    <path id="Trazado_137837" data-name="Trazado 137837" d="M382.121,557.768c.286.672.169,1.34-.261,1.491s-1.01-.272-1.3-.944-.169-1.34.261-1.49,1.01.271,1.3.944" transform="translate(-215.252 -322.36)" fill="#f7a491"/>
    <path id="Trazado_137838" data-name="Trazado 137838" d="M403.119,613.312l12.73-2.013s-1.448-3.536-1.966-3.536-9.626,3.855-9.626,3.855l-.725,1.411Z" transform="translate(-228.103 -351.868)" fill="#f8a492"/>
    <path id="Trazado_137839" data-name="Trazado 137839" d="M385.273,640.27a39.464,39.464,0,0,0-.752,10.469c.518,4.515.558,20.552.558,20.552l-1.975,25.66,4.686.1s5.557-25.647,5.453-24.989S395.106,654,395.106,654l-6.624-14.3Z" transform="translate(-216.778 -370.362)" fill="#a4e5ff"/>
    <path id="Trazado_137840" data-name="Trazado 137840" d="M390.552,637.66s-.828,5.361.207,7.712,8.878,25.423,8.981,27.3,2.711,22.673,2.711,22.673l5.449-.148,1.179-23.117-2.468-29.053-2.4-7.346Z" transform="translate(-220.815 -368.034)" fill="#e9faff"/>
    <path id="Trazado_137841" data-name="Trazado 137841" d="M383.837,574.893a5,5,0,0,0,2.6.756,8.777,8.777,0,0,0,3.025-1.221l-.246-.809s-3.242-.458-3.324-.408-2.052,1.682-2.052,1.682" transform="translate(-217.193 -331.862)" fill="#f7a491"/>
    <path id="Trazado_137842" data-name="Trazado 137842" d="M416.822,601.34s4.815,4.407,6.989,3.655,3.073-3.325-2.23-7.087c-4.747-3.368-4.759,3.433-4.759,3.433" transform="translate(-235.857 -345.62)" fill="#f8a492"/>
    <path id="Trazado_137843" data-name="Trazado 137843" d="M395.562,594.587c-.715-3.774-5.9-15.519-6.313-17.682-.2-1.052-3-1.075-5.662-.938-2.813.145-5.608.49-5.608.49a8.726,8.726,0,0,0-3.587,1.393c-1.1,1-1.387,3.749.188,8.977,1.244,4.127,2.785,6.393,3.548,9.4.155,1.008.287,2,.462,3.165.28,4.495,0,10.433,0,10.433s13.559,2.728,18.63-1.411c0,0-.923-9.959-1.656-13.826" transform="translate(-211.335 -333.425)" fill="#5858c6"/>
    <path id="Trazado_137844" data-name="Trazado 137844" d="M412.529,586.678s-5.321,4.259-5.631,4.259c-.2,0-7.592-5.274-9.3-9.607a3.794,3.794,0,0,1,3.3-5.067c1.566.007,2.263.4,5.368,2.937a38.65,38.65,0,0,1,6.266,7.477" transform="translate(-224.844 -333.632)" fill="#7473e8"/>
    <path id="Trazado_137845" data-name="Trazado 137845" d="M792.054,773.617v5.822c0,.942,6.568,1.7,14.671,1.7s14.671-.763,14.671-1.7v-5.822Z" transform="translate(-448.181 -447.891)" fill="#a4e5ff"/>
    <path id="Trazado_137846" data-name="Trazado 137846" d="M802.671,781.076v-7.46H792.054v5.822c0,.778,4.486,1.434,10.617,1.638" transform="translate(-448.181 -447.89)" fill="#e27023"/>
    <path id="Trazado_137847" data-name="Trazado 137847" d="M817.647,781.092c1.14.033,2.332.051,3.56.051,1.829,0,3.581-.039,5.2-.11v-7.416h-8.755Z" transform="translate(-462.662 -447.89)" fill="#e27023"/>
    <path id="Trazado_137848" data-name="Trazado 137848" d="M839.166,781c5.227-.261,8.888-.864,8.888-1.567v-5.822h-8.888Z" transform="translate(-474.839 -447.89)" fill="#e27023"/>
    <path id="Trazado_137849" data-name="Trazado 137849" d="M821.4,771.127c0,.941-6.569,1.7-14.671,1.7s-14.671-.763-14.671-1.7,6.568-1.7,14.671-1.7,14.671.763,14.671,1.7" transform="translate(-448.181 -445.462)" fill="#ff862d"/>
    <path id="Trazado_137850" data-name="Trazado 137850" d="M823.906,772.449c0,.41-2.862.743-6.393.743s-6.393-.333-6.393-.743,2.862-.742,6.393-.742,6.393.332,6.393.742" transform="translate(-458.969 -446.785)" fill="#e9faff"/>
    <path id="Trazado_137851" data-name="Trazado 137851" d="M810.72,769.555l-.456-.014-3.4,1.478-4.685-1.445-.584.024,4.866,1.5H792.077a.213.213,0,0,0,0,.194h14.16l-3.566,1.541.494.015,3.56-1.557h.366l4.853,1.5.573-.027-4.765-1.469h13.621a.209.209,0,0,0,0-.194h-14.2Z" transform="translate(-448.181 -445.531)" fill="#e9faff"/>
    <path id="Trazado_137852" data-name="Trazado 137852" d="M775.225,757.747v5.822c0,.941,6.569,1.7,14.671,1.7s14.671-.763,14.671-1.7v-5.822Z" transform="translate(-438.658 -438.702)" fill="#a4e5ff"/>
    <path id="Trazado_137853" data-name="Trazado 137853" d="M785.842,765.207v-7.461H775.225v5.822c0,.778,4.487,1.434,10.617,1.638" transform="translate(-438.658 -438.702)" fill="#e27023"/>
    <path id="Trazado_137854" data-name="Trazado 137854" d="M800.818,765.223c1.14.033,2.332.051,3.56.051,1.829,0,3.58-.039,5.2-.11v-7.416h-8.755Z" transform="translate(-453.14 -438.702)" fill="#e27023"/>
    <path id="Trazado_137855" data-name="Trazado 137855" d="M822.338,765.135c5.227-.261,8.888-.864,8.888-1.567v-5.822h-8.888Z" transform="translate(-465.317 -438.702)" fill="#e27023"/>
    <path id="Trazado_137856" data-name="Trazado 137856" d="M804.567,755.257c0,.941-6.568,1.7-14.671,1.7s-14.671-.763-14.671-1.7,6.569-1.7,14.671-1.7,14.671.763,14.671,1.7" transform="translate(-438.658 -436.274)" fill="#ff862d"/>
    <path id="Trazado_137857" data-name="Trazado 137857" d="M807.078,756.579c0,.41-2.862.743-6.393.743s-6.393-.333-6.393-.743,2.862-.743,6.393-.743,6.393.333,6.393.743" transform="translate(-449.447 -437.596)" fill="#f7cc7f"/>
    <path id="Trazado_137858" data-name="Trazado 137858" d="M793.89,753.685l-.457-.014-3.4,1.478-4.685-1.445-.584.024,4.866,1.5H775.248a.209.209,0,0,0,0,.194h14.159l-3.566,1.541.494.016,3.56-1.557h.366l4.852,1.5.573-.026-4.765-1.47h13.62a.213.213,0,0,0,0-.194h-14.2Z" transform="translate(-438.657 -436.343)" fill="#e9faff"/>
    <path id="Trazado_137859" data-name="Trazado 137859" d="M790.245,743.757v5.822c0,.941,6.568,1.7,14.671,1.7s14.671-.763,14.671-1.7v-5.822Z" transform="translate(-447.157 -430.603)" fill="#a4e5ff"/>
    <path id="Trazado_137860" data-name="Trazado 137860" d="M800.862,751.218v-7.46H790.245v5.822c0,.778,4.486,1.434,10.617,1.638" transform="translate(-447.157 -430.603)" fill="#e27023"/>
    <path id="Trazado_137861" data-name="Trazado 137861" d="M815.838,751.233c1.14.033,2.332.051,3.56.051,1.829,0,3.58-.039,5.2-.11v-7.416h-8.755Z" transform="translate(-461.639 -430.603)" fill="#e27023"/>
    <path id="Trazado_137862" data-name="Trazado 137862" d="M837.358,751.146c5.227-.261,8.888-.864,8.888-1.567v-5.822h-8.888Z" transform="translate(-473.816 -430.603)" fill="#e27023"/>
    <path id="Trazado_137863" data-name="Trazado 137863" d="M819.587,741.267c0,.941-6.569,1.7-14.671,1.7s-14.671-.763-14.671-1.7,6.568-1.7,14.671-1.7,14.671.763,14.671,1.7" transform="translate(-447.157 -428.175)" fill="#ff862d"/>
    <path id="Trazado_137864" data-name="Trazado 137864" d="M822.1,742.59c0,.41-2.862.743-6.393.743s-6.393-.333-6.393-.743,2.862-.743,6.393-.743,6.393.333,6.393.743" transform="translate(-457.946 -429.497)" fill="#e9faff"/>
    <path id="Trazado_137865" data-name="Trazado 137865" d="M808.911,739.7l-.456-.014-3.4,1.478-4.685-1.445-.584.024,4.866,1.5H790.268a.221.221,0,0,0-.023.1.218.218,0,0,0,.023.1h14.16l-3.566,1.541.494.015,3.56-1.557h.366l4.829,1.5.588-.028-4.756-1.47h13.62a.213.213,0,0,0,.024-.1.216.216,0,0,0-.024-.1h-14.2Z" transform="translate(-447.157 -428.244)" fill="#e9faff"/>
    <path id="Trazado_137866" data-name="Trazado 137866" d="M629.638,774.615v5.822c0,.941,6.568,1.7,14.671,1.7s14.671-.763,14.671-1.7v-5.822Z" transform="translate(-356.278 -448.468)" fill="#a4e5ff"/>
    <path id="Trazado_137867" data-name="Trazado 137867" d="M640.254,782.075v-7.46H629.637v5.822c0,.778,4.486,1.434,10.617,1.638" transform="translate(-356.278 -448.468)" fill="#e27023"/>
    <path id="Trazado_137868" data-name="Trazado 137868" d="M655.23,782.091c1.14.033,2.332.05,3.56.05,1.83,0,3.581-.039,5.2-.11v-7.416H655.23Z" transform="translate(-370.759 -448.468)" fill="#e27023"/>
    <path id="Trazado_137869" data-name="Trazado 137869" d="M676.75,782c5.227-.261,8.888-.864,8.888-1.567v-5.822H676.75Z" transform="translate(-382.936 -448.468)" fill="#e27023"/>
    <path id="Trazado_137870" data-name="Trazado 137870" d="M658.98,772.126c0,.941-6.568,1.7-14.671,1.7s-14.671-.763-14.671-1.7,6.568-1.7,14.671-1.7,14.671.763,14.671,1.7" transform="translate(-356.278 -446.041)" fill="#ff862d"/>
    <path id="Trazado_137871" data-name="Trazado 137871" d="M661.491,773.448c0,.41-2.862.742-6.393.742s-6.393-.332-6.393-.742,2.862-.743,6.393-.743,6.393.333,6.393.743" transform="translate(-367.067 -447.363)" fill="#e9faff"/>
    <path id="Trazado_137872" data-name="Trazado 137872" d="M648.3,770.554l-.456-.014-3.4,1.478-4.685-1.445-.583.024,4.866,1.5H629.66a.213.213,0,0,0,0,.194H643.82l-3.566,1.542.494.015,3.56-1.557h.366l4.829,1.5.588-.027-4.756-1.47h13.62a.209.209,0,0,0,0-.194h-14.2Z" transform="translate(-356.278 -446.109)" fill="#e9faff"/>
    <path id="Trazado_137873" data-name="Trazado 137873" d="M684.749,756.1l-1.6,5.611c-.259.907,5.862,3.342,13.671,5.438s14.349,3.06,14.608,2.153l1.6-5.611Z" transform="translate(-386.552 -437.749)" fill="#a4e5ff"/>
    <path id="Trazado_137874" data-name="Trazado 137874" d="M692.93,766.036l2.052-7.19L684.749,756.1l-1.6,5.611c-.214.749,3.93,2.542,9.782,4.325" transform="translate(-386.552 -437.748)" fill="#ff862d"/>
    <path id="Trazado_137875" data-name="Trazado 137875" d="M706.776,770.131c1.089.326,2.234.652,3.417.969,1.763.474,3.461.889,5.037,1.238l2.04-7.148-8.438-2.265Z" transform="translate(-399.926 -441.701)" fill="#ff862d"/>
    <path id="Trazado_137876" data-name="Trazado 137876" d="M727.571,775.788c5.109,1.1,8.8,1.466,9,.789l1.6-5.611-8.566-2.3Z" transform="translate(-411.693 -445.025)" fill="#ff862d"/>
    <path id="Trazado_137877" data-name="Trazado 137877" d="M715.154,763.08c-.259.907-6.8-.057-14.608-2.153s-13.93-4.531-13.671-5.437,6.8.056,14.608,2.152,13.929,4.531,13.671,5.438" transform="translate(-388.661 -437.198)" fill="#e27023"/>
    <path id="Trazado_137878" data-name="Trazado 137878" d="M717.581,764.148c-.113.4-2.963-.024-6.366-.938s-6.07-1.974-5.957-2.369,2.963.024,6.366.938,6.07,1.975,5.957,2.37" transform="translate(-399.065 -440.407)" fill="#e9faff"/>
    <path id="Trazado_137879" data-name="Trazado 137879" d="M705.316,759.085l-.436-.132-3.682.545-4.118-2.6-.569-.128,4.276,2.7-13.864-3.721a.23.23,0,0,0-.049.088.225.225,0,0,0,0,.1l13.646,3.662-3.86.563.472.143,3.86-.579.352.095,4.243,2.692.574.125-4.18-2.647,13.128,3.524a.224.224,0,0,0,.049-.088.219.219,0,0,0,0-.1l-13.686-3.674Z" transform="translate(-388.661 -437.546)" fill="#e9faff"/>
    <path id="Trazado_137880" data-name="Trazado 137880" d="M520.659,299.028l2.73,4.355c.441.7,5.713-1.622,11.774-5.2s10.617-7.041,10.175-7.745l-2.729-4.355Z" transform="translate(-294.613 -165.632)" fill="#a4e5ff"/>
    <path id="Trazado_137881" data-name="Trazado 137881" d="M532.1,311.28l-3.5-5.58-7.942,4.682,2.73,4.355c.364.582,4.028-.906,8.71-3.457" transform="translate(-294.613 -176.987)" fill="#ff862d"/>
    <path id="Trazado_137882" data-name="Trazado 137882" d="M543.309,305.465c.868-.478,1.768-.991,2.686-1.532,1.368-.806,2.661-1.608,3.835-2.373l-3.478-5.548-6.549,3.861Z" transform="translate(-305.446 -171.378)" fill="#ff862d"/>
    <path id="Trazado_137883" data-name="Trazado 137883" d="M559.367,295.535c3.788-2.5,6.244-4.566,5.914-5.092l-2.729-4.355-6.649,3.919Z" transform="translate(-314.555 -165.632)" fill="#ff862d"/>
    <path id="Trazado_137884" data-name="Trazado 137884" d="M542.5,285.805c.442.7-4.114,4.172-10.175,7.745s-11.333,5.9-11.774,5.2,4.115-4.171,10.175-7.745,11.333-5.9,11.774-5.2" transform="translate(-294.536 -165.396)" fill="#e27023"/>
    <path id="Trazado_137885" data-name="Trazado 137885" d="M544.4,294.573c.192.307-1.793,1.818-4.434,3.375s-4.938,2.571-5.131,2.264,1.793-1.818,4.434-3.375,4.938-2.57,5.13-2.264" transform="translate(-302.629 -170.513)" fill="#e9faff"/>
    <path id="Trazado_137886" data-name="Trazado 137886" d="M533.75,289.374l-.348.191-1.849,2.6-4.182.986-.425.275,4.343-1.023-10.76,6.343a.184.184,0,0,0,.028.083.2.2,0,0,0,.063.062l10.592-6.244-1.945,2.725.376-.206,1.934-2.735.274-.161,4.314-1.009.426-.28-4.247,1,10.189-6.007a.191.191,0,0,0-.028-.083.2.2,0,0,0-.063-.062l-10.623,6.263Z" transform="translate(-294.539 -165.483)" fill="#e9faff"/>
    <path id="Trazado_137887" data-name="Trazado 137887" d="M641.955,298.772l-4.947,1.72c-.8.278.492,5.753,2.886,12.228s4.982,11.5,5.782,11.222l4.947-1.72Z" transform="translate(-360.314 -172.976)" fill="#a4e5ff"/>
    <path id="Trazado_137888" data-name="Trazado 137888" d="M638.753,309.461l6.339-2.2-3.137-8.485-4.947,1.72c-.661.23.107,4.009,1.744,8.969" transform="translate(-360.315 -172.976)" fill="#7473e8"/>
    <path id="Trazado_137889" data-name="Trazado 137889" d="M641.641,322.07c.309.92.646,1.879,1.008,2.86.541,1.462,1.091,2.85,1.628,4.12l6.3-2.191-2.586-7Z" transform="translate(-363.07 -185.186)" fill="#7473e8"/>
    <path id="Trazado_137890" data-name="Trazado 137890" d="M648.169,339.779c1.766,4.1,3.36,6.848,3.956,6.64l4.947-1.72-2.626-7.1Z" transform="translate(-366.764 -195.454)" fill="#7473e8"/>
    <path id="Trazado_137891" data-name="Trazado 137891" d="M657.191,322.164c-.8.278-3.388-4.746-5.782-11.222s-3.686-11.95-2.886-12.228,3.388,4.746,5.782,11.222,3.686,11.95,2.886,12.228" transform="translate(-366.83 -172.936)" fill="#5858c6"/>
    <path id="Trazado_137892" data-name="Trazado 137892" d="M658.109,324.653c-.349.121-1.477-2.068-2.52-4.89s-1.606-5.207-1.257-5.329,1.476,2.068,2.519,4.89,1.606,5.207,1.258,5.329" transform="translate(-370.192 -182.041)" fill="#e9faff"/>
    <path id="Trazado_137893" data-name="Trazado 137893" d="M655.641,313.147q-.06-.184-.123-.369l-2.26-2.28-.156-4.171q-.1-.232-.193-.459l.162,4.332-4.249-11.5a.21.21,0,0,0-.089.01.2.2,0,0,0-.076.047l4.183,11.316-2.363-2.395c.04.123.091.276.133.4l2.374,2.385.108.293.155,4.3c.064.152.133.313.2.461l-.156-4.235,4.024,10.885a.214.214,0,0,0,.089-.01.211.211,0,0,0,.076-.048l-4.195-11.349Z" transform="translate(-367.04 -172.936)" fill="#e9faff"/>
    <path id="Trazado_137894" data-name="Trazado 137894" d="M630.539,60.032l-4.947,1.72c-.8.278.492,5.753,2.886,12.228s4.982,11.5,5.782,11.222l4.947-1.72Z" transform="translate(-353.854 -34.756)" fill="#a4e5ff"/>
    <path id="Trazado_137895" data-name="Trazado 137895" d="M627.336,70.721l6.34-2.2-3.137-8.485-4.947,1.72c-.661.23.107,4.009,1.744,8.969" transform="translate(-353.854 -34.756)" fill="#7473e8"/>
    <path id="Trazado_137896" data-name="Trazado 137896" d="M630.225,83.331c.309.92.646,1.879,1.008,2.86.541,1.462,1.091,2.85,1.628,4.119l6.3-2.191-2.586-7Z" transform="translate(-356.61 -46.967)" fill="#7473e8"/>
    <path id="Trazado_137897" data-name="Trazado 137897" d="M636.753,101.04c1.765,4.1,3.359,6.848,3.956,6.64l4.947-1.72-2.626-7.1Z" transform="translate(-360.304 -57.234)" fill="#7473e8"/>
    <path id="Trazado_137898" data-name="Trazado 137898" d="M645.775,83.424c-.8.278-3.388-4.746-5.782-11.222s-3.686-11.95-2.886-12.228S640.5,64.72,642.889,71.2s3.686,11.95,2.886,12.228" transform="translate(-360.371 -34.716)" fill="#5858c6"/>
    <path id="Trazado_137899" data-name="Trazado 137899" d="M646.691,85.914c-.349.122-1.477-2.068-2.52-4.89s-1.606-5.207-1.258-5.329,1.477,2.068,2.52,4.89,1.606,5.207,1.258,5.328" transform="translate(-363.732 -43.822)" fill="#a4e5ff"/>
    <path id="Trazado_137900" data-name="Trazado 137900" d="M644.225,74.408q-.061-.184-.123-.369l-2.26-2.279-.156-4.171c-.064-.155-.128-.308-.193-.459l.163,4.332-4.25-11.5a.2.2,0,0,0-.165.057l4.183,11.316-2.363-2.394c.04.123.091.276.133.4l2.374,2.386.108.292.155,4.3c.064.152.133.313.2.461l-.156-4.235L645.9,83.434a.207.207,0,0,0,.089-.01.209.209,0,0,0,.076-.047l-4.195-11.349Z" transform="translate(-360.581 -34.716)" fill="#a4e5ff"/>
    <path id="Trazado_137901" data-name="Trazado 137901" d="M226.563,212.841l-1.006-2.694-2.881,1.333-1.3-2.546-2.915,1.168-1.475-2.687.775-.4,1.1,2.005,2.938-1.178,1.278,2.508,2.974-1.376,1.335,3.577Z" transform="translate(-122.782 -119.852)" fill="#7473e8"/>
    <path id="Trazado_137902" data-name="Trazado 137902" d="M468.024,5.827l-1.006-2.694-2.881,1.333-1.3-2.546-2.915,1.168L458.449.4l.775-.4,1.1,2.005L463.263.828l1.278,2.508,2.973-1.376,1.336,3.577Z" transform="translate(-260.77 7.051)" fill="#7473e8"/>
  </g>
</svg>
